G04 ================== begin FILE IDENTIFICATION RECORD ==================*
G04 Layout Name:  WIRELESS_BOARD_19may15_1310.brd*
G04 Film Name:    assembly_top*
G04 File Format:  Gerber RS274X*
G04 File Origin:  Cadence Allegro 16.6-P004*
G04 Origin Date:  Tue May 19 13:07:29 2015*
G04 *
G04 Layer:  REF DES/ASSEMBLY_TOP*
G04 Layer:  PIN/TOP*
G04 Layer:  PACKAGE GEOMETRY/ASSEMBLY_TOP*
G04 Layer:  DRAWING FORMAT/ASS_TOP*
G04 Layer:  DRAWING FORMAT/FILM_LABEL_OUTLINE*
G04 Layer:  BOARD GEOMETRY/OUTLINE*
G04 *
G04 Offset:    (0.0 0.0)*
G04 Mirror:    No*
G04 Mode:      Positive*
G04 Rotation:  0*
G04 FullContactRelief:  No*
G04 UndefLineWidth:     1.0*
G04 ================== end FILE IDENTIFICATION RECORD ====================*
%FSLAX25Y25*MOIN*%
%IR0*IPPOS*OFA0.00000B0.00000*MIA0B0*SFA1.00000B1.00000*%
%AMMACRO24*
4,1,44,.0053,-.0108,
-.0053,-.0108,
-.00622,-.01072,
-.007112,-.010482,
-.007949,-.010092,
-.008705,-.009563,
-.009358,-.008911,
-.009888,-.008155,
-.010279,-.007319,
-.010519,-.006427,
-.0106,-.005508,
-.0106,-.0055,
-.0106,.0055,
-.01052,.00642,
-.010282,.007312,
-.009892,.008149,
-.009363,.008905,
-.008711,.009558,
-.007955,.010088,
-.007119,.010479,
-.006227,.010719,
-.005308,.0108,
-.0053,.0108,
.0053,.0108,
.00622,.01072,
.007112,.010482,
.007949,.010092,
.008705,.009563,
.009358,.008911,
.009888,.008155,
.010279,.007319,
.010519,.006427,
.0106,.005508,
.0106,.0055,
.0106,-.0055,
.01052,-.00642,
.010282,-.007312,
.009892,-.008149,
.009363,-.008905,
.008711,-.009558,
.007955,-.010088,
.007119,-.010479,
.006227,-.010719,
.005308,-.0108,
.0053,-.0108,
0.0*
%
%ADD24MACRO24*%
%ADD12O,.0256X.0076*%
%ADD20O,.0076X.0256*%
%ADD19R,.185X.185*%
%ADD18R,.016X.031*%
%AMMACRO23*
4,1,12,-.1378,-.1378,
.1378,-.1378,
.1378,.0236,
.05,.0236,
.05,-.0315,
-.0512,-.0315,
-.0512,.0315,
.0474,.0315,
.0509,.028,
.1378,.028,
.1378,.1378,
-.1378,.1378,
-.1378,-.1378,
0.0*
%
%ADD23MACRO23*%
%ADD26R,.0217X.0236*%
%ADD15R,.0236X.0217*%
%ADD10R,.0472X.0433*%
%ADD27R,.0315X.0295*%
%ADD21C,.0376*%
%ADD28R,.0551X.0394*%
%ADD11R,.0197X.0236*%
%ADD17R,.0394X.0354*%
%ADD14R,.0236X.0197*%
%ADD16R,.0492X.0591*%
%ADD13R,.0197X.0256*%
%ADD22R,.0376X.0376*%
%ADD25R,.0276X.0197*%
%ADD29C,.005*%
%ADD30C,.006*%
%ADD31C,.008*%
%ADD32C,.001*%
G75*
%LPD*%
G75*
G54D10*
X44550Y15950D03*
Y21470D03*
X51250Y15950D03*
Y21470D03*
G54D11*
X35640Y23900D03*
Y19960D03*
X32640Y23900D03*
Y19960D03*
X39410Y19890D03*
Y15950D03*
X40410Y26240D03*
X35640Y39230D03*
Y35290D03*
X40410Y30180D03*
X31840Y53990D03*
Y57930D03*
X35140Y53990D03*
Y57930D03*
X56410Y17530D03*
Y21470D03*
G54D20*
X60700Y33990D03*
X59120D03*
X57540D03*
X55960D03*
X54380D03*
X52800D03*
X51220D03*
X49640D03*
X48060D03*
X46480D03*
X44900D03*
Y57810D03*
X46480D03*
X48060D03*
X49640D03*
X51220D03*
X52800D03*
X54380D03*
X55960D03*
X57540D03*
X59120D03*
X60700D03*
X62280Y33990D03*
Y57810D03*
G54D30*
G01X23990Y36190D02*
X23830Y36320D01*
X23640Y36400D01*
X23430D01*
X23190Y36270D01*
X23000Y36070D01*
X22870Y35820D01*
X22760Y35400D01*
X22730Y35020D01*
X22790Y34650D01*
X22870Y34400D01*
X23030Y34150D01*
X23210Y33980D01*
X23400Y33900D01*
X23590D01*
X23770Y33980D01*
X23930Y34110D01*
X24070Y34270D01*
G01X25550Y33900D02*
X25600Y34440D01*
X25680Y34900D01*
X25790Y35320D01*
X25920Y35770D01*
X26130Y36400D01*
X25070D01*
G01X38040Y8890D02*
X37910Y8730D01*
X37830Y8540D01*
Y8330D01*
X37960Y8090D01*
X38160Y7900D01*
X38410Y7770D01*
X38830Y7660D01*
X39210Y7630D01*
X39580Y7690D01*
X39830Y7770D01*
X40080Y7930D01*
X40250Y8110D01*
X40330Y8300D01*
Y8490D01*
X40250Y8670D01*
X40120Y8830D01*
X39960Y8970D01*
G01X40330Y10500D02*
X37830D01*
X38330Y10180D01*
G01X40330D02*
Y10820D01*
G01X39830Y12110D02*
X40120Y12270D01*
X40290Y12490D01*
X40330Y12730D01*
X40290Y12940D01*
X40080Y13150D01*
X39830Y13290D01*
X39580Y13310D01*
X39290Y13260D01*
X39080Y13070D01*
X39000Y12890D01*
Y12650D01*
G01Y12890D02*
X38870Y13050D01*
X38660Y13180D01*
X38410Y13230D01*
X38160Y13180D01*
X37960Y13050D01*
X37830Y12810D01*
X37870Y12570D01*
X38040Y12330D01*
G01X40490Y23740D02*
X40650Y23990D01*
X40840Y24120D01*
X41050Y24160D01*
X41320Y24080D01*
X41510Y23870D01*
X41560Y23620D01*
X41530Y23370D01*
X41430Y23160D01*
X40890Y22740D01*
X40650Y22450D01*
X40490Y22030D01*
X40440Y21660D01*
X41560D01*
G01X34550Y13390D02*
X34420Y13230D01*
X34340Y13040D01*
Y12830D01*
X34470Y12590D01*
X34670Y12400D01*
X34920Y12270D01*
X35340Y12160D01*
X35720Y12130D01*
X36090Y12190D01*
X36340Y12270D01*
X36590Y12430D01*
X36760Y12610D01*
X36840Y12800D01*
Y12990D01*
X36760Y13170D01*
X36630Y13330D01*
X36470Y13470D01*
G01X36840Y15000D02*
X34340D01*
X34840Y14680D01*
G01X36840D02*
Y15320D01*
G01Y17200D02*
X34340D01*
X34840Y16880D01*
G01X36840D02*
Y17520D01*
G01X34660Y23900D02*
Y19960D01*
X36620D01*
Y23900D01*
X34660D01*
G01X31050Y13390D02*
X30920Y13230D01*
X30840Y13040D01*
Y12830D01*
X30970Y12590D01*
X31170Y12400D01*
X31420Y12270D01*
X31840Y12160D01*
X32220Y12130D01*
X32590Y12190D01*
X32840Y12270D01*
X33090Y12430D01*
X33260Y12610D01*
X33340Y12800D01*
Y12990D01*
X33260Y13170D01*
X33130Y13330D01*
X32970Y13470D01*
G01X33340Y15000D02*
X30840D01*
X31340Y14680D01*
G01X33340D02*
Y15320D01*
G01X30840Y17200D02*
X30920Y16990D01*
X31130Y16830D01*
X31380Y16720D01*
X31720Y16640D01*
X32090Y16610D01*
X32470Y16640D01*
X32800Y16720D01*
X33050Y16830D01*
X33260Y16990D01*
X33340Y17200D01*
X33260Y17410D01*
X33050Y17570D01*
X32800Y17680D01*
X32470Y17760D01*
X32090Y17790D01*
X31720Y17760D01*
X31380Y17680D01*
X31130Y17570D01*
X30920Y17410D01*
X30840Y17200D01*
G01X31660Y23900D02*
Y19960D01*
X33620D01*
Y23900D01*
X31660D01*
G01X38430Y19890D02*
Y15950D01*
X40390D01*
Y19890D01*
X38430D01*
G01X42810Y30170D02*
X42970Y29880D01*
X43190Y29710D01*
X43430Y29670D01*
X43640Y29710D01*
X43850Y29920D01*
X43990Y30170D01*
X44010Y30420D01*
X43960Y30710D01*
X43770Y30920D01*
X43590Y31000D01*
X43350D01*
G01X43590D02*
X43750Y31130D01*
X43880Y31340D01*
X43930Y31590D01*
X43880Y31840D01*
X43750Y32040D01*
X43510Y32170D01*
X43270Y32130D01*
X43030Y31960D01*
G01X45550Y29670D02*
X45600Y30210D01*
X45680Y30670D01*
X45790Y31090D01*
X45920Y31540D01*
X46130Y32170D01*
X45070D01*
G01X29870Y31170D02*
Y28670D01*
X30930D01*
G01X32010Y29170D02*
X32170Y28880D01*
X32390Y28710D01*
X32630Y28670D01*
X32840Y28710D01*
X33050Y28920D01*
X33190Y29170D01*
X33210Y29420D01*
X33160Y29710D01*
X32970Y29920D01*
X32790Y30000D01*
X32550D01*
G01X32790D02*
X32950Y30130D01*
X33080Y30340D01*
X33130Y30590D01*
X33080Y30840D01*
X32950Y31040D01*
X32710Y31170D01*
X32470Y31130D01*
X32230Y30960D01*
G01X28870Y44170D02*
Y41670D01*
X29930D01*
G01X31090Y43750D02*
X31250Y44000D01*
X31440Y44130D01*
X31650Y44170D01*
X31920Y44090D01*
X32110Y43880D01*
X32160Y43630D01*
X32130Y43380D01*
X32030Y43170D01*
X31490Y42750D01*
X31250Y42460D01*
X31090Y42040D01*
X31040Y41670D01*
X32160D01*
G01X32510Y36270D02*
X28570D01*
Y34310D01*
X32510D01*
Y36270D01*
G01X29990Y39960D02*
X29830Y40090D01*
X29640Y40170D01*
X29430D01*
X29190Y40040D01*
X29000Y39840D01*
X28870Y39590D01*
X28760Y39170D01*
X28730Y38790D01*
X28790Y38420D01*
X28870Y38170D01*
X29030Y37920D01*
X29210Y37750D01*
X29400Y37670D01*
X29590D01*
X29770Y37750D01*
X29930Y37880D01*
X30070Y38040D01*
G01X31090Y38710D02*
X31280Y39000D01*
X31440Y39170D01*
X31650Y39250D01*
X31840Y39170D01*
X31970Y39000D01*
X32080Y38750D01*
X32110Y38460D01*
X32080Y38210D01*
X31970Y37960D01*
X31810Y37750D01*
X31630Y37670D01*
X31410Y37750D01*
X31230Y38000D01*
X31120Y38380D01*
X31090Y38790D01*
X31150Y39340D01*
X31230Y39630D01*
X31360Y39920D01*
X31550Y40130D01*
X31730Y40170D01*
X31920Y40090D01*
X32050Y39880D01*
G01X34660Y39230D02*
Y35290D01*
X36620D01*
Y39230D01*
X34660D01*
G01X38550Y33490D02*
X38420Y33330D01*
X38340Y33140D01*
Y32930D01*
X38470Y32690D01*
X38670Y32500D01*
X38920Y32370D01*
X39340Y32260D01*
X39720Y32230D01*
X40090Y32290D01*
X40340Y32370D01*
X40590Y32530D01*
X40760Y32710D01*
X40840Y32900D01*
Y33090D01*
X40760Y33270D01*
X40630Y33430D01*
X40470Y33570D01*
G01X40840Y35100D02*
X40800Y35290D01*
X40670Y35500D01*
X40470Y35630D01*
X40170Y35690D01*
X39880Y35630D01*
X39630Y35470D01*
X39510Y35230D01*
Y34970D01*
X39420Y34810D01*
X39220Y34670D01*
X38920Y34620D01*
X38630Y34700D01*
X38420Y34890D01*
X38340Y35100D01*
X38420Y35310D01*
X38630Y35500D01*
X38920Y35580D01*
X39220Y35530D01*
X39420Y35390D01*
X39510Y35230D01*
Y34970D01*
X39630Y34730D01*
X39880Y34570D01*
X40170Y34510D01*
X40470Y34570D01*
X40670Y34700D01*
X40800Y34910D01*
X40840Y35100D01*
G01X39430Y30180D02*
Y26240D01*
X41390D01*
Y30180D01*
X39430D01*
G01X37890Y58250D02*
X38050Y58500D01*
X38240Y58630D01*
X38450Y58670D01*
X38720Y58590D01*
X38910Y58380D01*
X38960Y58130D01*
X38930Y57880D01*
X38830Y57670D01*
X38290Y57250D01*
X38050Y56960D01*
X37890Y56540D01*
X37840Y56170D01*
X38960D01*
G01X40010Y56540D02*
X40170Y56340D01*
X40360Y56210D01*
X40600Y56170D01*
X40840Y56250D01*
X41030Y56420D01*
X41160Y56710D01*
X41190Y57040D01*
X41130Y57380D01*
X41000Y57590D01*
X40810Y57750D01*
X40630Y57790D01*
X40440Y57750D01*
X40200Y57590D01*
X40280Y58670D01*
X41000D01*
G01X43890Y62250D02*
X44050Y62500D01*
X44240Y62630D01*
X44450Y62670D01*
X44720Y62590D01*
X44910Y62380D01*
X44960Y62130D01*
X44930Y61880D01*
X44830Y61670D01*
X44290Y61250D01*
X44050Y60960D01*
X43890Y60540D01*
X43840Y60170D01*
X44960D01*
G01X46920D02*
Y62670D01*
X45930Y60880D01*
X47270D01*
G01X27340Y46870D02*
X29840D01*
Y47930D01*
G01Y49600D02*
X27340D01*
X27840Y49280D01*
G01X29840D02*
Y49920D01*
G01X30050Y61790D02*
X29920Y61630D01*
X29840Y61440D01*
Y61230D01*
X29970Y60990D01*
X30170Y60800D01*
X30420Y60670D01*
X30840Y60560D01*
X31220Y60530D01*
X31590Y60590D01*
X31840Y60670D01*
X32090Y60830D01*
X32260Y61010D01*
X32340Y61200D01*
Y61390D01*
X32260Y61570D01*
X32130Y61730D01*
X31970Y61870D01*
G01X31840Y62810D02*
X32130Y62970D01*
X32300Y63190D01*
X32340Y63430D01*
X32300Y63640D01*
X32090Y63850D01*
X31840Y63990D01*
X31590Y64010D01*
X31300Y63960D01*
X31090Y63770D01*
X31010Y63590D01*
Y63350D01*
G01Y63590D02*
X30880Y63750D01*
X30670Y63880D01*
X30420Y63930D01*
X30170Y63880D01*
X29970Y63750D01*
X29840Y63510D01*
X29880Y63270D01*
X30050Y63030D01*
G01X32820Y53990D02*
Y57930D01*
X30860D01*
Y53990D01*
X32820D01*
G01X34050Y61790D02*
X33920Y61630D01*
X33840Y61440D01*
Y61230D01*
X33970Y60990D01*
X34170Y60800D01*
X34420Y60670D01*
X34840Y60560D01*
X35220Y60530D01*
X35590Y60590D01*
X35840Y60670D01*
X36090Y60830D01*
X36260Y61010D01*
X36340Y61200D01*
Y61390D01*
X36260Y61570D01*
X36130Y61730D01*
X35970Y61870D01*
G01X36340Y63720D02*
X33840D01*
X35630Y62730D01*
Y64070D01*
G01X36120Y53990D02*
Y57930D01*
X34160D01*
Y53990D01*
X36120D01*
G01X28720Y85050D02*
X29640D01*
Y84050D01*
X29360Y83710D01*
X29040Y83490D01*
X28580Y83380D01*
X28120Y83490D01*
X27800Y83710D01*
X27520Y84050D01*
X27340Y84440D01*
X27240Y84890D01*
Y85280D01*
X27340Y85610D01*
X27520Y86000D01*
X27800Y86340D01*
X28070Y86560D01*
X28440Y86730D01*
X28760D01*
X29130Y86620D01*
X29410Y86390D01*
G01X30940Y83380D02*
Y86730D01*
X33060Y83380D01*
Y86730D01*
G01X34550Y83380D02*
Y86730D01*
X35470D01*
X35840Y86560D01*
X36110Y86340D01*
X36340Y86000D01*
X36530Y85610D01*
X36570Y85050D01*
X36530Y84500D01*
X36340Y84110D01*
X36110Y83770D01*
X35840Y83550D01*
X35470Y83380D01*
X34550D01*
G01X46500Y90000D02*
X38500D01*
Y81000D01*
X46500D01*
Y90000D01*
G01X57910Y7660D02*
Y10160D01*
G01X58930D02*
X57910Y8620D01*
G01X59090Y7660D02*
X58370Y9330D01*
G01X54910Y7660D02*
Y10160D01*
G01X55930D02*
X54910Y8620D01*
G01X56090Y7660D02*
X55370Y9330D01*
G01X46910Y2160D02*
Y4660D01*
G01X47930D02*
X46910Y3120D01*
G01X48090Y2160D02*
X47370Y3830D01*
G01X45410Y10660D02*
X45570Y10370D01*
X45790Y10200D01*
X46030Y10160D01*
X46240Y10200D01*
X46450Y10410D01*
X46590Y10660D01*
X46610Y10910D01*
X46560Y11200D01*
X46370Y11410D01*
X46190Y11490D01*
X45950D01*
G01X46190D02*
X46350Y11620D01*
X46480Y11830D01*
X46530Y12080D01*
X46480Y12330D01*
X46350Y12530D01*
X46110Y12660D01*
X45870Y12620D01*
X45630Y12450D01*
G01X54500Y22160D02*
Y24660D01*
X54180Y24160D01*
G01Y22160D02*
X54820D01*
G01X51320Y10160D02*
Y12660D01*
X50330Y10870D01*
X51670D01*
G01X45340Y24660D02*
X46460Y27160D01*
G01X45340D02*
X46460Y24660D01*
G01X47590Y26740D02*
X47750Y26990D01*
X47940Y27120D01*
X48150Y27160D01*
X48420Y27080D01*
X48610Y26870D01*
X48660Y26620D01*
X48630Y26370D01*
X48530Y26160D01*
X47990Y25740D01*
X47750Y25450D01*
X47590Y25030D01*
X47540Y24660D01*
X48660D01*
G01X51430Y25230D02*
X55370D01*
Y27190D01*
X51430D01*
Y25230D01*
G01X58790Y15960D02*
X58630Y16090D01*
X58440Y16170D01*
X58230D01*
X57990Y16040D01*
X57800Y15840D01*
X57670Y15590D01*
X57560Y15170D01*
X57530Y14790D01*
X57590Y14420D01*
X57670Y14170D01*
X57830Y13920D01*
X58010Y13750D01*
X58200Y13670D01*
X58390D01*
X58570Y13750D01*
X58730Y13880D01*
X58870Y14040D01*
G01X60400Y13670D02*
Y16170D01*
X60080Y15670D01*
G01Y13670D02*
X60720D01*
G01X62090Y15750D02*
X62250Y16000D01*
X62440Y16130D01*
X62650Y16170D01*
X62920Y16090D01*
X63110Y15880D01*
X63160Y15630D01*
X63130Y15380D01*
X63030Y15170D01*
X62490Y14750D01*
X62250Y14460D01*
X62090Y14040D01*
X62040Y13670D01*
X63160D01*
G01X57390Y17530D02*
Y21470D01*
X55430D01*
Y17530D01*
X57390D01*
G01X51290Y30960D02*
X51130Y31090D01*
X50940Y31170D01*
X50730D01*
X50490Y31040D01*
X50300Y30840D01*
X50170Y30590D01*
X50060Y30170D01*
X50030Y29790D01*
X50090Y29420D01*
X50170Y29170D01*
X50330Y28920D01*
X50510Y28750D01*
X50700Y28670D01*
X50890D01*
X51070Y28750D01*
X51230Y28880D01*
X51370Y29040D01*
G01X52450Y28960D02*
X52630Y28750D01*
X52850Y28670D01*
X53060Y28750D01*
X53250Y29000D01*
X53380Y29380D01*
X53430Y29750D01*
Y30210D01*
X53380Y30590D01*
X53250Y30920D01*
X53090Y31090D01*
X52900Y31170D01*
X52690Y31090D01*
X52530Y30920D01*
X52420Y30670D01*
X52370Y30340D01*
X52420Y30050D01*
X52550Y29750D01*
X52710Y29590D01*
X52900Y29540D01*
X53110Y29630D01*
X53270Y29840D01*
X53430Y30210D01*
G01X52810Y63670D02*
Y61880D01*
X52920Y61500D01*
X53130Y61250D01*
X53400Y61170D01*
X53670Y61250D01*
X53880Y61500D01*
X53990Y61880D01*
Y63670D01*
G01X55600Y61170D02*
Y63670D01*
X55280Y63170D01*
G01Y61170D02*
X55920D01*
G01X61400Y60670D02*
Y63170D01*
X61080Y62670D01*
G01Y60670D02*
X61720D01*
G01X63010Y61170D02*
X63170Y60880D01*
X63390Y60710D01*
X63630Y60670D01*
X63840Y60710D01*
X64050Y60920D01*
X64190Y61170D01*
X64210Y61420D01*
X64160Y61710D01*
X63970Y61920D01*
X63790Y62000D01*
X63550D01*
G01X63790D02*
X63950Y62130D01*
X64080Y62340D01*
X64130Y62590D01*
X64080Y62840D01*
X63950Y63040D01*
X63710Y63170D01*
X63470Y63130D01*
X63230Y62960D01*
G01X65830Y2160D02*
X66500Y4660D01*
X67170Y2160D01*
G01X66930Y3030D02*
X66070D01*
G01X64310Y7670D02*
Y10170D01*
X64850D01*
X65060Y10040D01*
X65220Y9880D01*
X65350Y9630D01*
X65460Y9340D01*
X65490Y8920D01*
X65460Y8500D01*
X65350Y8210D01*
X65220Y7960D01*
X65060Y7790D01*
X64850Y7670D01*
X64310D01*
G01X66590Y9750D02*
X66750Y10000D01*
X66940Y10130D01*
X67150Y10170D01*
X67420Y10090D01*
X67610Y9880D01*
X67660Y9630D01*
X67630Y9380D01*
X67530Y9170D01*
X66990Y8750D01*
X66750Y8460D01*
X66590Y8040D01*
X66540Y7670D01*
X67660D01*
G01X66310Y27670D02*
Y25880D01*
X66420Y25500D01*
X66630Y25250D01*
X66900Y25170D01*
X67170Y25250D01*
X67380Y25500D01*
X67490Y25880D01*
Y27670D01*
G01X68590Y27250D02*
X68750Y27500D01*
X68940Y27630D01*
X69150Y27670D01*
X69420Y27590D01*
X69610Y27380D01*
X69660Y27130D01*
X69630Y26880D01*
X69530Y26670D01*
X68990Y26250D01*
X68750Y25960D01*
X68590Y25540D01*
X68540Y25170D01*
X69660D01*
G01X66720Y32170D02*
Y34670D01*
X65730Y32880D01*
X67070D01*
G01X68600Y32170D02*
X68790Y32210D01*
X69000Y32340D01*
X69130Y32540D01*
X69190Y32840D01*
X69130Y33130D01*
X68970Y33380D01*
X68730Y33500D01*
X68470D01*
X68310Y33590D01*
X68170Y33790D01*
X68120Y34090D01*
X68200Y34380D01*
X68390Y34590D01*
X68600Y34670D01*
X68810Y34590D01*
X69000Y34380D01*
X69080Y34090D01*
X69030Y33790D01*
X68890Y33590D01*
X68730Y33500D01*
X68470D01*
X68230Y33380D01*
X68070Y33130D01*
X68010Y32840D01*
X68070Y32540D01*
X68200Y32340D01*
X68410Y32210D01*
X68600Y32170D01*
G01X68500Y36670D02*
Y39170D01*
X68180Y38670D01*
G01Y36670D02*
X68820D01*
G01X72270Y42670D02*
Y45170D01*
X72930D01*
X73150Y45040D01*
X73280Y44880D01*
X73330Y44540D01*
X73280Y44210D01*
X73120Y44000D01*
X72930Y43880D01*
X72270D01*
G01X72930D02*
X73330Y42670D01*
G01X74490Y44750D02*
X74650Y45000D01*
X74840Y45130D01*
X75050Y45170D01*
X75320Y45090D01*
X75510Y44880D01*
X75560Y44630D01*
X75530Y44380D01*
X75430Y44170D01*
X74890Y43750D01*
X74650Y43460D01*
X74490Y43040D01*
X74440Y42670D01*
X75560D01*
G01X77150D02*
X77200Y43210D01*
X77280Y43670D01*
X77390Y44090D01*
X77520Y44540D01*
X77730Y45170D01*
X76670D01*
G01X66400Y56670D02*
Y59170D01*
X66080Y58670D01*
G01Y56670D02*
X66720D01*
G01X68090Y58750D02*
X68250Y59000D01*
X68440Y59130D01*
X68650Y59170D01*
X68920Y59090D01*
X69110Y58880D01*
X69160Y58630D01*
X69130Y58380D01*
X69030Y58170D01*
X68490Y57750D01*
X68250Y57460D01*
X68090Y57040D01*
X68040Y56670D01*
X69160D01*
G01X71990Y52460D02*
X71830Y52590D01*
X71640Y52670D01*
X71430D01*
X71190Y52540D01*
X71000Y52340D01*
X70870Y52090D01*
X70760Y51670D01*
X70730Y51290D01*
X70790Y50920D01*
X70870Y50670D01*
X71030Y50420D01*
X71210Y50250D01*
X71400Y50170D01*
X71590D01*
X71770Y50250D01*
X71930Y50380D01*
X72070Y50540D01*
G01X73010D02*
X73170Y50340D01*
X73360Y50210D01*
X73600Y50170D01*
X73840Y50250D01*
X74030Y50420D01*
X74160Y50710D01*
X74190Y51040D01*
X74130Y51380D01*
X74000Y51590D01*
X73810Y51750D01*
X73630Y51790D01*
X73440Y51750D01*
X73200Y51590D01*
X73280Y52670D01*
X74000D01*
G01X70430Y53610D02*
X74370D01*
Y55570D01*
X70430D01*
Y53610D01*
G01X71950Y67590D02*
X71820Y67430D01*
X71740Y67240D01*
Y67030D01*
X71870Y66790D01*
X72070Y66600D01*
X72320Y66470D01*
X72740Y66360D01*
X73120Y66330D01*
X73490Y66390D01*
X73740Y66470D01*
X73990Y66630D01*
X74160Y66810D01*
X74240Y67000D01*
Y67190D01*
X74160Y67370D01*
X74030Y67530D01*
X73870Y67670D01*
G01X74240Y69200D02*
X71740D01*
X72240Y68880D01*
G01X74240D02*
Y69520D01*
G01X83810Y3170D02*
Y5670D01*
X84350D01*
X84560Y5540D01*
X84720Y5380D01*
X84850Y5130D01*
X84960Y4840D01*
X84990Y4420D01*
X84960Y4000D01*
X84850Y3710D01*
X84720Y3460D01*
X84560Y3290D01*
X84350Y3170D01*
X83810D01*
G01X86600D02*
Y5670D01*
X86280Y5170D01*
G01Y3170D02*
X86920D01*
G01X85900Y8150D02*
X87480D01*
G01X85900Y9330D02*
Y6970D01*
G01X82360Y8150D02*
X84720D01*
Y9330D01*
X85900Y8150D01*
X84720Y6970D01*
Y8150D01*
G01X93330Y43270D02*
X90830D01*
Y43930D01*
X90960Y44150D01*
X91120Y44280D01*
X91460Y44330D01*
X91790Y44280D01*
X92000Y44120D01*
X92120Y43930D01*
Y43270D01*
G01Y43930D02*
X93330Y44330D01*
G01Y46000D02*
X90830D01*
X91330Y45680D01*
G01X93330D02*
Y46320D01*
G01X91250Y47690D02*
X91000Y47850D01*
X90870Y48040D01*
X90830Y48250D01*
X90910Y48520D01*
X91120Y48710D01*
X91370Y48760D01*
X91620Y48730D01*
X91830Y48630D01*
X92250Y48090D01*
X92540Y47850D01*
X92960Y47690D01*
X93330Y47640D01*
Y48760D01*
G01X92870Y58170D02*
Y60670D01*
X93530D01*
X93750Y60540D01*
X93880Y60380D01*
X93930Y60040D01*
X93880Y59710D01*
X93720Y59500D01*
X93530Y59380D01*
X92870D01*
G01X93530D02*
X93930Y58170D01*
G01X95920D02*
Y60670D01*
X94930Y58880D01*
X96270D01*
G01X92870Y54170D02*
Y56670D01*
X93530D01*
X93750Y56540D01*
X93880Y56380D01*
X93930Y56040D01*
X93880Y55710D01*
X93720Y55500D01*
X93530Y55380D01*
X92870D01*
G01X93530D02*
X93930Y54170D01*
G01X95010Y54540D02*
X95170Y54340D01*
X95360Y54210D01*
X95600Y54170D01*
X95840Y54250D01*
X96030Y54420D01*
X96160Y54710D01*
X96190Y55040D01*
X96130Y55380D01*
X96000Y55590D01*
X95810Y55750D01*
X95630Y55790D01*
X95440Y55750D01*
X95200Y55590D01*
X95280Y56670D01*
X96000D01*
G01X80530Y46520D02*
X84470D01*
Y48480D01*
X80530D01*
Y46520D01*
G01X85050Y66490D02*
X84920Y66330D01*
X84840Y66140D01*
Y65930D01*
X84970Y65690D01*
X85170Y65500D01*
X85420Y65370D01*
X85840Y65260D01*
X86220Y65230D01*
X86590Y65290D01*
X86840Y65370D01*
X87090Y65530D01*
X87260Y65710D01*
X87340Y65900D01*
Y66090D01*
X87260Y66270D01*
X87130Y66430D01*
X86970Y66570D01*
G01X85260Y67590D02*
X85010Y67750D01*
X84880Y67940D01*
X84840Y68150D01*
X84920Y68420D01*
X85130Y68610D01*
X85380Y68660D01*
X85630Y68630D01*
X85840Y68530D01*
X86260Y67990D01*
X86550Y67750D01*
X86970Y67590D01*
X87340Y67540D01*
Y68660D01*
G01X88840Y76470D02*
X86340D01*
Y77130D01*
X86470Y77350D01*
X86630Y77480D01*
X86970Y77530D01*
X87300Y77480D01*
X87510Y77320D01*
X87630Y77130D01*
Y76470D01*
G01Y77130D02*
X88840Y77530D01*
G01X88340Y78610D02*
X88630Y78770D01*
X88800Y78990D01*
X88840Y79230D01*
X88800Y79440D01*
X88590Y79650D01*
X88340Y79790D01*
X88090Y79810D01*
X87800Y79760D01*
X87590Y79570D01*
X87510Y79390D01*
Y79150D01*
G01Y79390D02*
X87380Y79550D01*
X87170Y79680D01*
X86920Y79730D01*
X86670Y79680D01*
X86470Y79550D01*
X86340Y79310D01*
X86380Y79070D01*
X86550Y78830D01*
G01X84370Y91160D02*
Y93660D01*
X85030D01*
X85250Y93530D01*
X85380Y93370D01*
X85430Y93030D01*
X85380Y92700D01*
X85220Y92490D01*
X85030Y92370D01*
X84370D01*
G01X85030D02*
X85430Y91160D01*
G01X87100D02*
Y93660D01*
X86780Y93160D01*
G01Y91160D02*
X87420D01*
G01X102500Y92500D02*
X94500D01*
Y83500D01*
X102500D01*
Y92500D01*
G01X107720Y7230D02*
Y3880D01*
G01X106660Y7230D02*
X108780D01*
G01X110310Y3880D02*
X112250Y7230D01*
G01X110310D02*
X112250Y3880D01*
G01X113500Y18000D02*
X105500D01*
Y9000D01*
X113500D01*
Y18000D01*
G01X100330Y44870D02*
X97830D01*
Y45530D01*
X97960Y45750D01*
X98120Y45880D01*
X98460Y45930D01*
X98790Y45880D01*
X99000Y45720D01*
X99120Y45530D01*
Y44870D01*
G01Y45530D02*
X100330Y45930D01*
G01X99290Y47090D02*
X99000Y47280D01*
X98830Y47440D01*
X98750Y47650D01*
X98830Y47840D01*
X99000Y47970D01*
X99250Y48080D01*
X99540Y48110D01*
X99790Y48080D01*
X100040Y47970D01*
X100250Y47810D01*
X100330Y47630D01*
X100250Y47410D01*
X100000Y47230D01*
X99620Y47120D01*
X99210Y47090D01*
X98660Y47150D01*
X98370Y47230D01*
X98080Y47360D01*
X97870Y47550D01*
X97830Y47730D01*
X97910Y47920D01*
X98120Y48050D01*
G01X104290Y89730D02*
X105440Y86380D01*
X106590Y89730D01*
G01X107990Y86380D02*
Y89730D01*
X108910D01*
X109280Y89560D01*
X109550Y89340D01*
X109780Y89000D01*
X109970Y88610D01*
X110010Y88050D01*
X109970Y87500D01*
X109780Y87110D01*
X109550Y86770D01*
X109280Y86550D01*
X108910Y86380D01*
X107990D01*
G01X111550D02*
Y89730D01*
X112470D01*
X112840Y89560D01*
X113110Y89340D01*
X113340Y89000D01*
X113530Y88610D01*
X113570Y88050D01*
X113530Y87500D01*
X113340Y87110D01*
X113110Y86770D01*
X112840Y86550D01*
X112470Y86380D01*
X111550D01*
G01X115800Y3880D02*
Y7230D01*
X116950D01*
X117320Y7060D01*
X117550Y6840D01*
X117640Y6390D01*
X117550Y5950D01*
X117270Y5670D01*
X116950Y5500D01*
X115800D01*
G01X116950D02*
X117640Y3880D01*
G01X119310D02*
X121250Y7230D01*
G01X119310D02*
X121250Y3880D01*
G01X123400Y25170D02*
X123190Y25210D01*
X123000Y25380D01*
X122840Y25630D01*
X122730Y25920D01*
X122680Y26250D01*
Y26590D01*
X122730Y26920D01*
X122840Y27210D01*
X123000Y27460D01*
X123190Y27630D01*
X123400Y27670D01*
X123610Y27630D01*
X123800Y27460D01*
X123960Y27210D01*
X124070Y26920D01*
X124120Y26590D01*
Y26250D01*
X124070Y25920D01*
X123960Y25630D01*
X123800Y25380D01*
X123610Y25210D01*
X123400Y25170D01*
G01X123610Y25840D02*
X123930Y25170D01*
G01X125010Y25670D02*
X125170Y25380D01*
X125390Y25210D01*
X125630Y25170D01*
X125840Y25210D01*
X126050Y25420D01*
X126190Y25670D01*
X126210Y25920D01*
X126160Y26210D01*
X125970Y26420D01*
X125790Y26500D01*
X125550D01*
G01X125790D02*
X125950Y26630D01*
X126080Y26840D01*
X126130Y27090D01*
X126080Y27340D01*
X125950Y27540D01*
X125710Y27670D01*
X125470Y27630D01*
X125230Y27460D01*
G01X122500Y18000D02*
X114500D01*
Y9000D01*
X122500D01*
Y18000D01*
G01X123400Y41170D02*
X123190Y41210D01*
X123000Y41380D01*
X122840Y41630D01*
X122730Y41920D01*
X122680Y42250D01*
Y42590D01*
X122730Y42920D01*
X122840Y43210D01*
X123000Y43460D01*
X123190Y43630D01*
X123400Y43670D01*
X123610Y43630D01*
X123800Y43460D01*
X123960Y43210D01*
X124070Y42920D01*
X124120Y42590D01*
Y42250D01*
X124070Y41920D01*
X123960Y41630D01*
X123800Y41380D01*
X123610Y41210D01*
X123400Y41170D01*
G01X123610Y41840D02*
X123930Y41170D01*
G01X125090Y43250D02*
X125250Y43500D01*
X125440Y43630D01*
X125650Y43670D01*
X125920Y43590D01*
X126110Y43380D01*
X126160Y43130D01*
X126130Y42880D01*
X126030Y42670D01*
X125490Y42250D01*
X125250Y41960D01*
X125090Y41540D01*
X125040Y41170D01*
X126160D01*
G01X122900Y58430D02*
X122690Y58470D01*
X122500Y58640D01*
X122340Y58890D01*
X122230Y59180D01*
X122180Y59510D01*
Y59850D01*
X122230Y60180D01*
X122340Y60470D01*
X122500Y60720D01*
X122690Y60890D01*
X122900Y60930D01*
X123110Y60890D01*
X123300Y60720D01*
X123460Y60470D01*
X123570Y60180D01*
X123620Y59850D01*
Y59510D01*
X123570Y59180D01*
X123460Y58890D01*
X123300Y58640D01*
X123110Y58470D01*
X122900Y58430D01*
G01X123110Y59100D02*
X123430Y58430D01*
G01X125100D02*
Y60930D01*
X124780Y60430D01*
G01Y58430D02*
X125420D01*
G54D21*
X56400Y78860D03*
X61400D03*
Y83860D03*
X66400Y78860D03*
X71400D03*
X76400D03*
X66400Y83860D03*
X71400D03*
X76400D03*
X81400Y78860D03*
Y83860D03*
G54D12*
X41680Y37210D03*
Y38790D03*
Y40370D03*
Y41950D03*
Y43530D03*
Y45110D03*
Y46690D03*
Y48270D03*
Y49850D03*
Y51430D03*
Y53010D03*
Y54590D03*
X65500Y43530D03*
Y41950D03*
Y40370D03*
Y38790D03*
Y37210D03*
Y54590D03*
Y53010D03*
Y51430D03*
Y49850D03*
Y48270D03*
Y46690D03*
Y45110D03*
G54D31*
G01X111140Y32120D02*
Y20300D01*
X116660D01*
Y32120D01*
X111140D01*
G01Y48120D02*
Y36300D01*
X116660D01*
Y48120D01*
X111140D01*
G01X105210Y30000D02*
G03I-710J0D01*
G01X106210Y49500D02*
G03I-710J0D01*
G01X110640Y65380D02*
Y53560D01*
X116160D01*
Y65380D01*
X110640D01*
G01X104210Y63260D02*
G03I-710J0D01*
G54D22*
X56400Y83860D03*
G54D13*
X35640Y32030D03*
Y28290D03*
Y42490D03*
X31840Y49970D03*
Y46230D03*
X35640D03*
G54D32*
G01X0Y0D02*
X137800D01*
Y98430D01*
X0D01*
Y0D01*
G01X270Y114880D02*
X3400Y124880D01*
X6530Y114880D01*
G01X5400Y118380D02*
X1400D01*
G01X10770Y116210D02*
X11780Y115380D01*
X12900Y114880D01*
X13900D01*
X14900Y115380D01*
X15650Y116210D01*
X16030Y117380D01*
X15780Y118550D01*
X15150Y119550D01*
X14020Y120210D01*
X12530Y120550D01*
X11650Y121210D01*
X11270Y122380D01*
X11530Y123550D01*
X12150Y124380D01*
X13020Y124880D01*
X13900D01*
X14780Y124550D01*
X15530Y123710D01*
G01X20770Y116210D02*
X21780Y115380D01*
X22900Y114880D01*
X23900D01*
X24900Y115380D01*
X25650Y116210D01*
X26030Y117380D01*
X25780Y118550D01*
X25150Y119550D01*
X24020Y120210D01*
X22530Y120550D01*
X21650Y121210D01*
X21270Y122380D01*
X21530Y123550D01*
X22150Y124380D01*
X23020Y124880D01*
X23900D01*
X24780Y124550D01*
X25530Y123710D01*
G01X35900Y114880D02*
X30900D01*
Y124880D01*
X35900D01*
G01X33900Y120050D02*
X30900D01*
G01X40150Y114880D02*
Y124880D01*
X43400Y116550D01*
X46650Y124880D01*
Y114880D01*
G01X54400Y120210D02*
X54900Y120710D01*
X55270Y121550D01*
X55530Y122710D01*
X55270Y123710D01*
X54780Y124380D01*
X53900Y124880D01*
X50530D01*
Y114880D01*
X54650D01*
X55530Y115550D01*
X56030Y116550D01*
X56270Y117710D01*
X56030Y118880D01*
X55270Y119880D01*
X54400Y120210D01*
X50530D01*
G01X60900Y124880D02*
Y114880D01*
X65900D01*
G01X73400D02*
Y119380D01*
X70900Y124880D01*
G01X75900D02*
X73400Y119380D01*
G01X79650Y111550D02*
X87150D01*
G01X93400Y124880D02*
Y114880D01*
G01X90530Y124880D02*
X96270D01*
G01X103400Y114880D02*
X102400Y115050D01*
X101530Y115710D01*
X100770Y116710D01*
X100270Y117880D01*
X100020Y119210D01*
Y120550D01*
X100270Y121880D01*
X100770Y123050D01*
X101530Y124050D01*
X102400Y124710D01*
X103400Y124880D01*
X104400Y124710D01*
X105270Y124050D01*
X106030Y123050D01*
X106530Y121880D01*
X106780Y120550D01*
Y119210D01*
X106530Y117880D01*
X106030Y116710D01*
X105270Y115710D01*
X104400Y115050D01*
X103400Y114880D01*
G01X110900D02*
Y124880D01*
X113900D01*
X114900Y124380D01*
X115650Y123210D01*
X115900Y121880D01*
X115650Y120550D01*
X115020Y119550D01*
X113900Y119050D01*
X110900D01*
G01X-850Y138380D02*
X900Y128380D01*
X2900Y138380D01*
X4900Y128380D01*
X6650Y138380D01*
G01X11400D02*
X14400D01*
G01X12900D02*
Y128380D01*
G01X11400D02*
X14400D01*
G01X20400D02*
Y138380D01*
X23520D01*
X24520Y137880D01*
X25150Y137210D01*
X25400Y135880D01*
X25150Y134550D01*
X24400Y133710D01*
X23520Y133210D01*
X20400D01*
G01X23520D02*
X25400Y128380D01*
G01X35400D02*
X30400D01*
Y138380D01*
X35400D01*
G01X33400Y133550D02*
X30400D01*
G01X40400Y138380D02*
Y128380D01*
X45400D01*
G01X55400D02*
X50400D01*
Y138380D01*
X55400D01*
G01X53400Y133550D02*
X50400D01*
G01X60270Y129710D02*
X61280Y128880D01*
X62400Y128380D01*
X63400D01*
X64400Y128880D01*
X65150Y129710D01*
X65530Y130880D01*
X65280Y132050D01*
X64650Y133050D01*
X63520Y133710D01*
X62030Y134050D01*
X61150Y134710D01*
X60770Y135880D01*
X61030Y137050D01*
X61650Y137880D01*
X62520Y138380D01*
X63400D01*
X64280Y138050D01*
X65030Y137210D01*
G01X70270Y129710D02*
X71280Y128880D01*
X72400Y128380D01*
X73400D01*
X74400Y128880D01*
X75150Y129710D01*
X75530Y130880D01*
X75280Y132050D01*
X74650Y133050D01*
X73520Y133710D01*
X72030Y134050D01*
X71150Y134710D01*
X70770Y135880D01*
X71030Y137050D01*
X71650Y137880D01*
X72520Y138380D01*
X73400D01*
X74280Y138050D01*
X75030Y137210D01*
G01X79150Y125050D02*
X86650D01*
G01X93900Y133710D02*
X94400Y134210D01*
X94770Y135050D01*
X95030Y136210D01*
X94770Y137210D01*
X94280Y137880D01*
X93400Y138380D01*
X90030D01*
Y128380D01*
X94150D01*
X95030Y129050D01*
X95530Y130050D01*
X95770Y131210D01*
X95530Y132380D01*
X94770Y133380D01*
X93900Y133710D01*
X90030D01*
G01X102900Y128380D02*
X101900Y128550D01*
X101030Y129210D01*
X100270Y130210D01*
X99770Y131380D01*
X99520Y132710D01*
Y134050D01*
X99770Y135380D01*
X100270Y136550D01*
X101030Y137550D01*
X101900Y138210D01*
X102900Y138380D01*
X103900Y138210D01*
X104770Y137550D01*
X105530Y136550D01*
X106030Y135380D01*
X106280Y134050D01*
Y132710D01*
X106030Y131380D01*
X105530Y130210D01*
X104770Y129210D01*
X103900Y128550D01*
X102900Y128380D01*
G01X109770D02*
X112900Y138380D01*
X116030Y128380D01*
G01X114900Y131880D02*
X110900D01*
G01X120400Y128380D02*
Y138380D01*
X123520D01*
X124520Y137880D01*
X125150Y137210D01*
X125400Y135880D01*
X125150Y134550D01*
X124400Y133710D01*
X123520Y133210D01*
X120400D01*
G01X123520D02*
X125400Y128380D01*
G01X130150D02*
Y138380D01*
X132650D01*
X133650Y137880D01*
X134400Y137210D01*
X135030Y136210D01*
X135530Y135050D01*
X135650Y133380D01*
X135530Y131710D01*
X135030Y130550D01*
X134400Y129550D01*
X133650Y128880D01*
X132650Y128380D01*
X130150D01*
G01X139150Y125050D02*
X146650D01*
G01X150400Y128380D02*
Y138380D01*
X153520D01*
X154520Y137880D01*
X155150Y137210D01*
X155400Y135880D01*
X155150Y134550D01*
X154400Y133710D01*
X153520Y133210D01*
X150400D01*
G01X153520D02*
X155400Y128380D01*
G01X161030Y132880D02*
X165030D01*
X164650Y134050D01*
X164030Y134710D01*
X163150Y135050D01*
X162280Y134880D01*
X161520Y134380D01*
X161030Y133210D01*
X160770Y132210D01*
Y131210D01*
X161030Y130210D01*
X161650Y129210D01*
X162400Y128550D01*
X163280Y128380D01*
X164150Y128710D01*
X165030Y129710D01*
G01X170650Y135050D02*
X172900Y128380D01*
X175150Y135050D01*
G01X179150Y125050D02*
X186650D01*
G01X193900Y133710D02*
X194400Y134210D01*
X194770Y135050D01*
X195030Y136210D01*
X194770Y137210D01*
X194280Y137880D01*
X193400Y138380D01*
X190030D01*
Y128380D01*
X194150D01*
X195030Y129050D01*
X195530Y130050D01*
X195770Y131210D01*
X195530Y132380D01*
X194770Y133380D01*
X193900Y133710D01*
X190030D01*
G01X-350Y142880D02*
Y152880D01*
X2150D01*
X3150Y152380D01*
X3900Y151710D01*
X4530Y150710D01*
X5030Y149550D01*
X5150Y147880D01*
X5030Y146210D01*
X4530Y145050D01*
X3900Y144050D01*
X3150Y143380D01*
X2150Y142880D01*
X-350D01*
G01X9270D02*
X12400Y152880D01*
X15530Y142880D01*
G01X14400Y146380D02*
X10400D01*
G01X22400Y152880D02*
Y142880D01*
G01X19530Y152880D02*
X25270D01*
G01X34900Y142880D02*
X29900D01*
Y152880D01*
X34900D01*
G01X32900Y148050D02*
X29900D01*
G01X42400Y142550D02*
X42150Y142710D01*
Y143050D01*
X42400Y143210D01*
X42650Y143050D01*
Y142710D01*
X42400Y142550D01*
G01Y147050D02*
X42150Y147210D01*
Y147550D01*
X42400Y147710D01*
X42650Y147550D01*
Y147210D01*
X42400Y147050D01*
G01X62400Y142880D02*
Y152880D01*
X60900Y150880D01*
G01Y142880D02*
X63900D01*
G01X70270Y144050D02*
X71150Y143210D01*
X72150Y142880D01*
X73150Y143210D01*
X74020Y144210D01*
X74650Y145710D01*
X74900Y147210D01*
Y149050D01*
X74650Y150550D01*
X74020Y151880D01*
X73270Y152550D01*
X72400Y152880D01*
X71400Y152550D01*
X70650Y151880D01*
X70150Y150880D01*
X69900Y149550D01*
X70150Y148380D01*
X70780Y147210D01*
X71530Y146550D01*
X72400Y146380D01*
X73400Y146710D01*
X74150Y147550D01*
X74900Y149050D01*
G01X80150Y142550D02*
X84650Y152880D01*
G01X92400D02*
X91400Y152550D01*
X90650Y151710D01*
X90150Y150710D01*
X89770Y149380D01*
X89650Y147880D01*
X89770Y146380D01*
X90150Y145050D01*
X90650Y144050D01*
X91400Y143210D01*
X92400Y142880D01*
X93400Y143210D01*
X94150Y144050D01*
X94650Y145050D01*
X95030Y146380D01*
X95150Y147880D01*
X95030Y149380D01*
X94650Y150710D01*
X94150Y151710D01*
X93400Y152550D01*
X92400Y152880D01*
G01X99650Y144380D02*
X100400Y143550D01*
X101270Y143050D01*
X102400Y142880D01*
X103530Y143210D01*
X104400Y143880D01*
X105030Y145050D01*
X105150Y146380D01*
X104900Y147710D01*
X104270Y148550D01*
X103400Y149210D01*
X102530Y149380D01*
X101650Y149210D01*
X100530Y148550D01*
X100900Y152880D01*
X104270D01*
G01X110150Y142550D02*
X114650Y152880D01*
G01X122400Y142880D02*
Y152880D01*
X120900Y150880D01*
G01Y142880D02*
X123900D01*
G01X129650Y144380D02*
X130400Y143550D01*
X131270Y143050D01*
X132400Y142880D01*
X133530Y143210D01*
X134400Y143880D01*
X135030Y145050D01*
X135150Y146380D01*
X134900Y147710D01*
X134270Y148550D01*
X133400Y149210D01*
X132530Y149380D01*
X131650Y149210D01*
X130530Y148550D01*
X130900Y152880D01*
X134270D01*
G01X63040Y56920D02*
X42570D01*
Y34880D01*
X63430D01*
X64610Y36060D01*
Y56920D01*
X63040D01*
G01X36430Y28190D02*
X34850D01*
Y32130D01*
X36430D01*
Y28190D01*
G01Y42390D02*
X34850D01*
Y46330D01*
X36430D01*
Y42390D01*
G01X32630Y46130D02*
X31050D01*
Y50070D01*
X32630D01*
Y46130D01*
G01X37000Y75000D02*
Y77000D01*
X41000D01*
Y75000D01*
X37000D01*
G01X50990Y6290D02*
X62810D01*
Y2350D01*
X50990D01*
Y6290D01*
G01X44550Y21270D02*
Y16150D01*
X51250D01*
Y20090D01*
X50070Y21270D01*
X44550D01*
G01X101050Y41360D02*
Y11060D01*
X70750D01*
Y41360D01*
X101050D01*
G01X77380Y69270D02*
X75420D01*
G01Y67300D02*
X77380D01*
G01Y69270D02*
Y69070D01*
G01Y67500D02*
Y67300D01*
G01X75420D02*
Y67500D01*
G01Y69070D02*
Y69270D01*
G01Y66320D02*
Y67300D01*
G01X77380Y66320D02*
X75420D01*
G01X77380Y67300D02*
Y66320D01*
G01X75420Y67500D02*
Y69070D01*
G01X77380D02*
Y67500D01*
G01Y70250D02*
Y69270D01*
G01X75420Y70250D02*
X77380D01*
G01X75420Y69270D02*
Y70250D01*
G01X77430Y91210D02*
Y93210D01*
X81430D01*
Y91210D01*
X77430D01*
G01X84430Y25230D02*
X88370D01*
Y27190D01*
X84430D01*
Y25230D01*
G01X84500Y45000D02*
Y43000D01*
X80500D01*
Y45000D01*
X84500D01*
G01X84400Y58710D02*
Y60710D01*
X88400D01*
Y58710D01*
X84400D01*
G01Y54710D02*
Y56710D01*
X88400D01*
Y54710D01*
X84400D01*
G01X89500Y43970D02*
X87500D01*
Y47970D01*
X89500D01*
Y43970D01*
G01X83700Y71410D02*
Y63010D01*
G01X79100Y71410D02*
Y62910D01*
G01X87000Y73500D02*
X89000D01*
Y69500D01*
X87000D01*
Y73500D01*
G01X102000Y48500D02*
X104000D01*
Y44500D01*
X102000D01*
Y48500D01*
G54D14*
X32510Y35290D03*
X28570D03*
X51430Y26210D03*
X55370D03*
X70430Y54590D03*
X74370D03*
X80530Y47500D03*
X84470D03*
G54D23*
X85900Y26210D03*
G54D15*
X37030Y75950D03*
X40970D03*
X77460Y92160D03*
X84470Y44050D03*
X80530D03*
X84430Y59660D03*
X88370D03*
X84430Y55660D03*
X88370D03*
X81400Y92160D03*
G54D24*
X76400Y69860D03*
Y66710D03*
G54D25*
X88560Y26210D03*
X84240D03*
G54D16*
X42500Y85500D03*
X109500Y13500D03*
X98500Y88000D03*
X118500Y13500D03*
G54D17*
X62810Y3340D03*
X50990D03*
G54D26*
X88550Y44000D03*
Y47940D03*
X87950Y73470D03*
Y69530D03*
X102950Y44530D03*
Y48470D03*
G54D27*
X81400Y69860D03*
Y64560D03*
G54D18*
X58480Y5300D03*
X55320D03*
G54D28*
X109570Y22470D03*
Y38470D03*
Y29950D03*
Y45950D03*
X109070Y55730D03*
Y63210D03*
X118230Y26210D03*
Y42210D03*
X117730Y59470D03*
G54D19*
X53590Y45900D03*
G54D29*
G01X29680Y74970D02*
Y78070D01*
X30640D01*
X30950Y77910D01*
X31140Y77710D01*
X31220Y77290D01*
X31140Y76880D01*
X30910Y76620D01*
X30640Y76470D01*
X29680D01*
G01X30640D02*
X31220Y74970D01*
G01X32820Y77550D02*
X33050Y77860D01*
X33320Y78020D01*
X33630Y78070D01*
X34010Y77970D01*
X34280Y77710D01*
X34360Y77400D01*
X34320Y77090D01*
X34160Y76830D01*
X33400Y76310D01*
X33050Y75950D01*
X32820Y75430D01*
X32740Y74970D01*
X34360D01*
G01X73390Y48460D02*
X73230Y48590D01*
X73040Y48670D01*
X72830D01*
X72590Y48540D01*
X72400Y48340D01*
X72270Y48090D01*
X72160Y47670D01*
X72130Y47290D01*
X72190Y46920D01*
X72270Y46670D01*
X72430Y46420D01*
X72610Y46250D01*
X72800Y46170D01*
X72990D01*
X73170Y46250D01*
X73330Y46380D01*
X73470Y46540D01*
G01X74490Y48250D02*
X74650Y48500D01*
X74840Y48630D01*
X75050Y48670D01*
X75320Y48590D01*
X75510Y48380D01*
X75560Y48130D01*
X75530Y47880D01*
X75430Y47670D01*
X74890Y47250D01*
X74650Y46960D01*
X74490Y46540D01*
X74440Y46170D01*
X75560D01*
G01X76750Y46460D02*
X76930Y46250D01*
X77150Y46170D01*
X77360Y46250D01*
X77550Y46500D01*
X77680Y46880D01*
X77730Y47250D01*
Y47710D01*
X77680Y48090D01*
X77550Y48420D01*
X77390Y48590D01*
X77200Y48670D01*
X76990Y48590D01*
X76830Y48420D01*
X76720Y48170D01*
X76670Y47840D01*
X76720Y47550D01*
X76850Y47250D01*
X77010Y47090D01*
X77200Y47040D01*
X77410Y47130D01*
X77570Y47340D01*
X77730Y47710D01*
M02*
