G04 ================== begin FILE IDENTIFICATION RECORD ==================*
G04 Layout Name:  WIRELESS_BOARD_19may15_1310.brd*
G04 Film Name:    assembly_bottom*
G04 File Format:  Gerber RS274X*
G04 File Origin:  Cadence Allegro 16.6-P004*
G04 Origin Date:  Tue May 19 13:07:29 2015*
G04 *
G04 Layer:  REF DES/ASSEMBLY_BOTTOM*
G04 Layer:  PIN/BOTTOM*
G04 Layer:  PACKAGE GEOMETRY/ASSEMBLY_BOTTOM*
G04 Layer:  DRAWING FORMAT/ASS_BTM*
G04 Layer:  DRAWING FORMAT/FILM_LABEL_OUTLINE*
G04 Layer:  BOARD GEOMETRY/OUTLINE*
G04 *
G04 Offset:    (0.0 0.0)*
G04 Mirror:    No*
G04 Mode:      Positive*
G04 Rotation:  0*
G04 FullContactRelief:  No*
G04 UndefLineWidth:     1.0*
G04 ================== end FILE IDENTIFICATION RECORD ====================*
%FSLAX25Y25*MOIN*%
%IR0*IPPOS*OFA0.00000B0.00000*MIA0B0*SFA1.00000B1.00000*%
%AMMACRO20*
4,1,44,-.0053,-.0108,
.0053,-.0108,
.00622,-.01072,
.007112,-.010482,
.007949,-.010092,
.008705,-.009563,
.009358,-.008911,
.009888,-.008155,
.010279,-.007319,
.010519,-.006427,
.0106,-.005508,
.0106,-.0055,
.0106,.0055,
.01052,.00642,
.010282,.007312,
.009892,.008149,
.009363,.008905,
.008711,.009558,
.007955,.010088,
.007119,.010479,
.006227,.010719,
.005308,.0108,
.0053,.0108,
-.0053,.0108,
-.00622,.01072,
-.007112,.010482,
-.007949,.010092,
-.008705,.009563,
-.009358,.008911,
-.009888,.008155,
-.010279,.007319,
-.010519,.006427,
-.0106,.005508,
-.0106,.0055,
-.0106,-.0055,
-.01052,-.00642,
-.010282,-.007312,
-.009892,-.008149,
-.009363,-.008905,
-.008711,-.009558,
-.007955,-.010088,
-.007119,-.010479,
-.006227,-.010719,
-.005308,-.0108,
-.0053,-.0108,
0.0*
%
%ADD20MACRO20*%
%AMMACRO19*
4,1,44,-.0108,.0053,
-.0108,-.0053,
-.01072,-.00622,
-.010482,-.007112,
-.010092,-.007949,
-.009563,-.008705,
-.008911,-.009358,
-.008155,-.009888,
-.007319,-.010279,
-.006427,-.010519,
-.005508,-.0106,
-.0055,-.0106,
.0055,-.0106,
.00642,-.01052,
.007312,-.010282,
.008149,-.009892,
.008905,-.009363,
.009558,-.008711,
.010088,-.007955,
.010479,-.007119,
.010719,-.006227,
.0108,-.005308,
.0108,-.0053,
.0108,.0053,
.01072,.00622,
.010482,.007112,
.010092,.007949,
.009563,.008705,
.008911,.009358,
.008155,.009888,
.007319,.010279,
.006427,.010519,
.005508,.0106,
.0055,.0106,
-.0055,.0106,
-.00642,.01052,
-.007312,.010282,
-.008149,.009892,
-.008905,.009363,
-.009558,.008711,
-.010088,.007955,
-.010479,.007119,
-.010719,.006227,
-.0108,.005308,
-.0108,.0053,
0.0*
%
%ADD19MACRO19*%
%ADD18R,.0236X.0433*%
%ADD17R,.0217X.0236*%
%ADD23R,.063X.0157*%
%ADD13R,.0236X.0217*%
%ADD15R,.0315X.0295*%
%ADD11C,.0376*%
%ADD22R,.063X.0827*%
%ADD10R,.0295X.0315*%
%ADD21R,.0394X.0551*%
%ADD16R,.0236X.0197*%
%ADD14R,.0197X.0256*%
%ADD12R,.0376X.0376*%
%ADD25R,.0748X.0748*%
%ADD24R,.0299X.0944*%
%ADD26C,.006*%
%ADD27C,.008*%
%ADD28C,.01*%
%ADD29C,.001*%
G75*
%LPD*%
G75*
G54D10*
X58750Y29710D03*
X64050D03*
G54D11*
X56400Y78860D03*
X61400D03*
Y83860D03*
X66400Y78860D03*
X71400D03*
X76400D03*
X66400Y83860D03*
X71400D03*
X76400D03*
X81400Y78860D03*
Y83860D03*
G54D20*
X95200Y24240D03*
Y21090D03*
G54D12*
X56400Y83860D03*
G54D21*
X86400Y44880D03*
X82660Y53540D03*
X90140D03*
G54D22*
X107210Y23440D03*
Y47850D03*
G54D13*
X66530Y8550D03*
X70470D03*
X75870Y24660D03*
X71930D03*
X75970Y20540D03*
X72030D03*
Y15850D03*
X75970D03*
X93370Y10660D03*
X89430D03*
G54D14*
X72100Y41790D03*
Y45530D03*
G54D23*
X107210Y30530D03*
Y33090D03*
Y35650D03*
Y38210D03*
Y40770D03*
G54D24*
X113500Y68320D03*
X108500D03*
X98500D03*
X113500Y83680D03*
X108500D03*
X103500D03*
X98500D03*
X118500Y68320D03*
Y83680D03*
G54D15*
X65410Y40210D03*
Y45530D03*
G54D25*
X117250Y20490D03*
Y40370D03*
Y30920D03*
Y50810D03*
G54D16*
X72100Y35680D03*
X76040D03*
G54D26*
G01X63530Y7770D02*
Y10270D01*
X62870D01*
X62650Y10140D01*
X62520Y9980D01*
X62470Y9640D01*
X62520Y9310D01*
X62680Y9100D01*
X62870Y8980D01*
X63530D01*
G01X62870D02*
X62470Y7770D01*
G01X60850D02*
X60800Y8310D01*
X60720Y8770D01*
X60610Y9190D01*
X60480Y9640D01*
X60270Y10270D01*
X61330D01*
G01X54210Y31460D02*
X54370Y31590D01*
X54560Y31670D01*
X54770D01*
X55010Y31540D01*
X55200Y31340D01*
X55330Y31090D01*
X55440Y30670D01*
X55470Y30290D01*
X55410Y29920D01*
X55330Y29670D01*
X55170Y29420D01*
X54990Y29250D01*
X54800Y29170D01*
X54610D01*
X54430Y29250D01*
X54270Y29380D01*
X54130Y29540D01*
G01X52600Y29170D02*
Y31670D01*
X52920Y31170D01*
G01Y29170D02*
X52280D01*
G01X50990Y29540D02*
X50830Y29340D01*
X50640Y29210D01*
X50400Y29170D01*
X50160Y29250D01*
X49970Y29420D01*
X49840Y29710D01*
X49810Y30040D01*
X49870Y30380D01*
X50000Y30590D01*
X50190Y30750D01*
X50370Y30790D01*
X50560Y30750D01*
X50800Y30590D01*
X50720Y31670D01*
X50000D01*
G01X61830Y44670D02*
Y42170D01*
X60770D01*
G01X59690Y42540D02*
X59530Y42340D01*
X59340Y42210D01*
X59100Y42170D01*
X58860Y42250D01*
X58670Y42420D01*
X58540Y42710D01*
X58510Y43040D01*
X58570Y43380D01*
X58700Y43590D01*
X58890Y43750D01*
X59070Y43790D01*
X59260Y43750D01*
X59500Y43590D01*
X59420Y44670D01*
X58700D01*
G01X57510Y75250D02*
X57350Y75500D01*
X57160Y75630D01*
X56950Y75670D01*
X56680Y75590D01*
X56490Y75380D01*
X56440Y75130D01*
X56470Y74880D01*
X56570Y74670D01*
X57110Y74250D01*
X57350Y73960D01*
X57510Y73540D01*
X57560Y73170D01*
X56440D01*
G01X58000Y87170D02*
Y89670D01*
X58320Y89170D01*
G01Y87170D02*
X57680D01*
G01X79590Y18920D02*
X79400Y19210D01*
X79240Y19380D01*
X79030Y19460D01*
X78840Y19380D01*
X78710Y19210D01*
X78600Y18960D01*
X78570Y18670D01*
X78600Y18420D01*
X78710Y18170D01*
X78870Y17960D01*
X79050Y17880D01*
X79270Y17960D01*
X79450Y18210D01*
X79560Y18590D01*
X79590Y19000D01*
X79530Y19550D01*
X79450Y19840D01*
X79320Y20130D01*
X79130Y20340D01*
X78950Y20380D01*
X78760Y20300D01*
X78630Y20090D01*
G01X76230Y26670D02*
Y29170D01*
X75570D01*
X75350Y29040D01*
X75220Y28880D01*
X75170Y28540D01*
X75220Y28210D01*
X75380Y28000D01*
X75570Y27880D01*
X76230D01*
G01X75570D02*
X75170Y26670D01*
G01X73500D02*
Y29170D01*
X73820Y28670D01*
G01Y26670D02*
X73180D01*
G01X70980D02*
Y29170D01*
X71970Y27380D01*
X70630D01*
G01X67530Y19570D02*
Y22070D01*
X66870D01*
X66650Y21940D01*
X66520Y21780D01*
X66470Y21440D01*
X66520Y21110D01*
X66680Y20900D01*
X66870Y20780D01*
X67530D01*
G01X66870D02*
X66470Y19570D01*
G01X64800D02*
Y22070D01*
X65120Y21570D01*
G01Y19570D02*
X64480D01*
G01X62600D02*
X62410Y19610D01*
X62200Y19740D01*
X62070Y19940D01*
X62010Y20240D01*
X62070Y20530D01*
X62230Y20780D01*
X62470Y20900D01*
X62730D01*
X62890Y20990D01*
X63030Y21190D01*
X63080Y21490D01*
X63000Y21780D01*
X62810Y21990D01*
X62600Y22070D01*
X62390Y21990D01*
X62200Y21780D01*
X62120Y21490D01*
X62170Y21190D01*
X62310Y20990D01*
X62470Y20900D01*
X62730D01*
X62970Y20780D01*
X63130Y20530D01*
X63190Y20240D01*
X63130Y19940D01*
X63000Y19740D01*
X62790Y19610D01*
X62600Y19570D01*
G01X69530Y14460D02*
Y16960D01*
X68870D01*
X68650Y16830D01*
X68520Y16670D01*
X68470Y16330D01*
X68520Y16000D01*
X68680Y15790D01*
X68870Y15670D01*
X69530D01*
G01X68870D02*
X68470Y14460D01*
G01X66800D02*
Y16960D01*
X67120Y16460D01*
G01Y14460D02*
X66480D01*
G01X64650D02*
X64600Y15000D01*
X64520Y15460D01*
X64410Y15880D01*
X64280Y16330D01*
X64070Y16960D01*
X65130D01*
G01X77630Y44670D02*
Y42170D01*
X76570D01*
G01X74580D02*
Y44670D01*
X75570Y42880D01*
X74230D01*
G01X68210Y36960D02*
X68370Y37090D01*
X68560Y37170D01*
X68770D01*
X69010Y37040D01*
X69200Y36840D01*
X69330Y36590D01*
X69440Y36170D01*
X69470Y35790D01*
X69410Y35420D01*
X69330Y35170D01*
X69170Y34920D01*
X68990Y34750D01*
X68800Y34670D01*
X68610D01*
X68430Y34750D01*
X68270Y34880D01*
X68130Y35040D01*
G01X66600Y34670D02*
Y37170D01*
X66920Y36670D01*
G01Y34670D02*
X66280D01*
G01X64080D02*
Y37170D01*
X65070Y35380D01*
X63730D01*
G01X72100Y36660D02*
X76040D01*
Y34700D01*
X72100D01*
Y36660D01*
G01X74730Y55970D02*
Y58470D01*
X74070D01*
X73850Y58340D01*
X73720Y58180D01*
X73670Y57840D01*
X73720Y57510D01*
X73880Y57300D01*
X74070Y57180D01*
X74730D01*
G01X74070D02*
X73670Y55970D01*
G01X72000D02*
Y58470D01*
X72320Y57970D01*
G01Y55970D02*
X71680D01*
G01X69800D02*
Y58470D01*
X70120Y57970D01*
G01Y55970D02*
X69480D01*
G01X71130Y87670D02*
Y90170D01*
X70490D01*
X70280Y90040D01*
X70120Y89750D01*
X70070Y89420D01*
X70120Y89090D01*
X70250Y88840D01*
X70490Y88710D01*
X71130D01*
G01X68400Y87670D02*
Y90170D01*
X68720Y89670D01*
G01Y87670D02*
X68080D01*
G01X88790Y26660D02*
Y24870D01*
X88680Y24490D01*
X88470Y24240D01*
X88200Y24160D01*
X87930Y24240D01*
X87720Y24490D01*
X87610Y24870D01*
Y26660D01*
G01X85680Y24160D02*
Y26660D01*
X86670Y24870D01*
X85330D01*
G01X92180Y17670D02*
Y20170D01*
X93170Y18380D01*
X91830D01*
G01X101330Y9670D02*
Y12170D01*
X100670D01*
X100450Y12040D01*
X100320Y11880D01*
X100270Y11540D01*
X100320Y11210D01*
X100480Y11000D01*
X100670Y10880D01*
X101330D01*
G01X100670D02*
X100270Y9670D01*
G01X98600D02*
Y12170D01*
X98920Y11670D01*
G01Y9670D02*
X98280D01*
G01X96910Y10710D02*
X96720Y11000D01*
X96560Y11170D01*
X96350Y11250D01*
X96160Y11170D01*
X96030Y11000D01*
X95920Y10750D01*
X95890Y10460D01*
X95920Y10210D01*
X96030Y9960D01*
X96190Y9750D01*
X96370Y9670D01*
X96590Y9750D01*
X96770Y10000D01*
X96880Y10380D01*
X96910Y10790D01*
X96850Y11340D01*
X96770Y11630D01*
X96640Y11920D01*
X96450Y12130D01*
X96270Y12170D01*
X96080Y12090D01*
X95950Y11880D01*
G01X92010Y16160D02*
X92170Y16290D01*
X92360Y16370D01*
X92570D01*
X92810Y16240D01*
X93000Y16040D01*
X93130Y15790D01*
X93240Y15370D01*
X93270Y14990D01*
X93210Y14620D01*
X93130Y14370D01*
X92970Y14120D01*
X92790Y13950D01*
X92600Y13870D01*
X92410D01*
X92230Y13950D01*
X92070Y14080D01*
X91930Y14240D01*
G01X90400Y13870D02*
Y16370D01*
X90720Y15870D01*
G01Y13870D02*
X90080D01*
G01X88650Y14160D02*
X88470Y13950D01*
X88250Y13870D01*
X88040Y13950D01*
X87850Y14200D01*
X87720Y14580D01*
X87670Y14950D01*
Y15410D01*
X87720Y15790D01*
X87850Y16120D01*
X88010Y16290D01*
X88200Y16370D01*
X88410Y16290D01*
X88570Y16120D01*
X88680Y15870D01*
X88730Y15540D01*
X88680Y15250D01*
X88550Y14950D01*
X88390Y14790D01*
X88200Y14740D01*
X87990Y14830D01*
X87830Y15040D01*
X87670Y15410D01*
G01X87100Y58660D02*
X87310Y58700D01*
X87500Y58870D01*
X87660Y59120D01*
X87770Y59410D01*
X87820Y59740D01*
Y60080D01*
X87770Y60410D01*
X87660Y60700D01*
X87500Y60950D01*
X87310Y61120D01*
X87100Y61160D01*
X86890Y61120D01*
X86700Y60950D01*
X86540Y60700D01*
X86430Y60410D01*
X86380Y60080D01*
Y59740D01*
X86430Y59410D01*
X86540Y59120D01*
X86700Y58870D01*
X86890Y58700D01*
X87100Y58660D01*
G01X86890Y59330D02*
X86570Y58660D01*
G01X85490Y59030D02*
X85330Y58830D01*
X85140Y58700D01*
X84900Y58660D01*
X84660Y58740D01*
X84470Y58910D01*
X84340Y59200D01*
X84310Y59530D01*
X84370Y59870D01*
X84500Y60080D01*
X84690Y60240D01*
X84870Y60280D01*
X85060Y60240D01*
X85300Y60080D01*
X85220Y61160D01*
X84500D01*
G01X82100Y72670D02*
Y75170D01*
X82420Y74670D01*
G01Y72670D02*
X81780D01*
G01X80410Y74750D02*
X80250Y75000D01*
X80060Y75130D01*
X79850Y75170D01*
X79580Y75090D01*
X79390Y74880D01*
X79340Y74630D01*
X79370Y74380D01*
X79470Y74170D01*
X80010Y73750D01*
X80250Y73460D01*
X80410Y73040D01*
X80460Y72670D01*
X79340D01*
G01X82100Y87670D02*
Y90170D01*
X82420Y89670D01*
G01Y87670D02*
X81780D01*
G01X79900D02*
Y90170D01*
X80220Y89670D01*
G01Y87670D02*
X79580D01*
G01X99460Y19790D02*
X99590Y19630D01*
X99670Y19440D01*
Y19230D01*
X99540Y18990D01*
X99340Y18800D01*
X99090Y18670D01*
X98670Y18560D01*
X98290Y18530D01*
X97920Y18590D01*
X97670Y18670D01*
X97420Y18830D01*
X97250Y19010D01*
X97170Y19200D01*
Y19390D01*
X97250Y19570D01*
X97380Y19730D01*
X97540Y19870D01*
G01X97170Y21400D02*
X99670D01*
X99170Y21080D01*
G01X97170D02*
Y21720D01*
G01Y23550D02*
X97710Y23600D01*
X98170Y23680D01*
X98590Y23790D01*
X99040Y23920D01*
X99670Y24130D01*
Y23070D01*
G01X97460Y28770D02*
X99960D01*
Y29430D01*
X99830Y29650D01*
X99670Y29780D01*
X99330Y29830D01*
X99000Y29780D01*
X98790Y29620D01*
X98670Y29430D01*
Y28770D01*
G01Y29430D02*
X97460Y29830D01*
G01Y31500D02*
X99960D01*
X99460Y31180D01*
G01X97460D02*
Y31820D01*
G01X97960Y33110D02*
X97670Y33270D01*
X97500Y33490D01*
X97460Y33730D01*
X97500Y33940D01*
X97710Y34150D01*
X97960Y34290D01*
X98210Y34310D01*
X98500Y34260D01*
X98710Y34070D01*
X98790Y33890D01*
Y33650D01*
G01Y33890D02*
X98920Y34050D01*
X99130Y34180D01*
X99380Y34230D01*
X99630Y34180D01*
X99830Y34050D01*
X99960Y33810D01*
X99920Y33570D01*
X99750Y33330D01*
G01X98450Y60450D02*
X98270Y60240D01*
X98050Y60160D01*
X97840Y60240D01*
X97650Y60490D01*
X97520Y60870D01*
X97470Y61240D01*
Y61700D01*
X97520Y62080D01*
X97650Y62410D01*
X97810Y62580D01*
X98000Y62660D01*
X98210Y62580D01*
X98370Y62410D01*
X98480Y62160D01*
X98530Y61830D01*
X98480Y61540D01*
X98350Y61240D01*
X98190Y61080D01*
X98000Y61030D01*
X97790Y61120D01*
X97630Y61330D01*
X97470Y61700D01*
G01X111130Y89660D02*
Y92160D01*
X110490D01*
X110280Y92030D01*
X110120Y91740D01*
X110070Y91410D01*
X110120Y91080D01*
X110250Y90830D01*
X110490Y90700D01*
X111130D01*
G01X108910Y91740D02*
X108750Y91990D01*
X108560Y92120D01*
X108350Y92160D01*
X108080Y92080D01*
X107890Y91870D01*
X107840Y91620D01*
X107870Y91370D01*
X107970Y91160D01*
X108510Y90740D01*
X108750Y90450D01*
X108910Y90030D01*
X108960Y89660D01*
X107840D01*
G01X99600Y90160D02*
Y92660D01*
X99920Y92160D01*
G01Y90160D02*
X99280D01*
G01X97400Y92660D02*
X97610Y92580D01*
X97770Y92370D01*
X97880Y92120D01*
X97960Y91780D01*
X97990Y91410D01*
X97960Y91030D01*
X97880Y90700D01*
X97770Y90450D01*
X97610Y90240D01*
X97400Y90160D01*
X97190Y90240D01*
X97030Y90450D01*
X96920Y90700D01*
X96840Y91030D01*
X96810Y91410D01*
X96840Y91780D01*
X96920Y92120D01*
X97030Y92370D01*
X97190Y92580D01*
X97400Y92660D01*
G01X117290Y58660D02*
Y56870D01*
X117180Y56490D01*
X116970Y56240D01*
X116700Y56160D01*
X116430Y56240D01*
X116220Y56490D01*
X116110Y56870D01*
Y58660D01*
G01X115090Y56660D02*
X114930Y56370D01*
X114710Y56200D01*
X114470Y56160D01*
X114260Y56200D01*
X114050Y56410D01*
X113910Y56660D01*
X113890Y56910D01*
X113940Y57200D01*
X114130Y57410D01*
X114310Y57490D01*
X114550D01*
G01X114310D02*
X114150Y57620D01*
X114020Y57830D01*
X113970Y58080D01*
X114020Y58330D01*
X114150Y58530D01*
X114390Y58660D01*
X114630Y58620D01*
X114870Y58450D01*
G01X118000Y60160D02*
Y62660D01*
X118320Y62160D01*
G01Y60160D02*
X117680D01*
G01X119010Y91740D02*
X118850Y91990D01*
X118660Y92120D01*
X118450Y92160D01*
X118180Y92080D01*
X117990Y91870D01*
X117940Y91620D01*
X117970Y91370D01*
X118070Y91160D01*
X118610Y90740D01*
X118850Y90450D01*
X119010Y90030D01*
X119060Y89660D01*
X117940D01*
G54D17*
X76350Y49600D03*
Y53540D03*
X95250Y33180D03*
Y29240D03*
G54D27*
G01X80490Y51970D02*
X92310D01*
Y46450D01*
X80490D01*
Y51970D01*
G01X82710Y58000D02*
G03I-710J0D01*
G54D18*
X82160Y20590D03*
X85900D03*
X89640D03*
Y30830D03*
X82160D03*
X85900D03*
G54D28*
G01X98340Y42900D02*
X100310Y40930D01*
X98340Y38960D01*
Y42900D01*
G54D19*
X85480Y15210D03*
X82330D03*
G54D29*
G01X0Y0D02*
X137800D01*
Y98430D01*
X0D01*
Y0D01*
G01X-230Y114380D02*
X2900Y124380D01*
X6030Y114380D01*
G01X4900Y117880D02*
X900D01*
G01X10270Y115710D02*
X11280Y114880D01*
X12400Y114380D01*
X13400D01*
X14400Y114880D01*
X15150Y115710D01*
X15530Y116880D01*
X15280Y118050D01*
X14650Y119050D01*
X13520Y119710D01*
X12030Y120050D01*
X11150Y120710D01*
X10770Y121880D01*
X11030Y123050D01*
X11650Y123880D01*
X12520Y124380D01*
X13400D01*
X14280Y124050D01*
X15030Y123210D01*
G01X20270Y115710D02*
X21280Y114880D01*
X22400Y114380D01*
X23400D01*
X24400Y114880D01*
X25150Y115710D01*
X25530Y116880D01*
X25280Y118050D01*
X24650Y119050D01*
X23520Y119710D01*
X22030Y120050D01*
X21150Y120710D01*
X20770Y121880D01*
X21030Y123050D01*
X21650Y123880D01*
X22520Y124380D01*
X23400D01*
X24280Y124050D01*
X25030Y123210D01*
G01X35400Y114380D02*
X30400D01*
Y124380D01*
X35400D01*
G01X33400Y119550D02*
X30400D01*
G01X39650Y114380D02*
Y124380D01*
X42900Y116050D01*
X46150Y124380D01*
Y114380D01*
G01X53900Y119710D02*
X54400Y120210D01*
X54770Y121050D01*
X55030Y122210D01*
X54770Y123210D01*
X54280Y123880D01*
X53400Y124380D01*
X50030D01*
Y114380D01*
X54150D01*
X55030Y115050D01*
X55530Y116050D01*
X55770Y117210D01*
X55530Y118380D01*
X54770Y119380D01*
X53900Y119710D01*
X50030D01*
G01X60400Y124380D02*
Y114380D01*
X65400D01*
G01X72900D02*
Y118880D01*
X70400Y124380D01*
G01X75400D02*
X72900Y118880D01*
G01X79150Y111050D02*
X86650D01*
G01X93900Y119710D02*
X94400Y120210D01*
X94770Y121050D01*
X95030Y122210D01*
X94770Y123210D01*
X94280Y123880D01*
X93400Y124380D01*
X90030D01*
Y114380D01*
X94150D01*
X95030Y115050D01*
X95530Y116050D01*
X95770Y117210D01*
X95530Y118380D01*
X94770Y119380D01*
X93900Y119710D01*
X90030D01*
G01X102900Y114380D02*
X101900Y114550D01*
X101030Y115210D01*
X100270Y116210D01*
X99770Y117380D01*
X99520Y118710D01*
Y120050D01*
X99770Y121380D01*
X100270Y122550D01*
X101030Y123550D01*
X101900Y124210D01*
X102900Y124380D01*
X103900Y124210D01*
X104770Y123550D01*
X105530Y122550D01*
X106030Y121380D01*
X106280Y120050D01*
Y118710D01*
X106030Y117380D01*
X105530Y116210D01*
X104770Y115210D01*
X103900Y114550D01*
X102900Y114380D01*
G01X112900Y124380D02*
Y114380D01*
G01X110030Y124380D02*
X115770D01*
G01X122900D02*
Y114380D01*
G01X120030Y124380D02*
X125770D01*
G01X132900Y114380D02*
X131900Y114550D01*
X131030Y115210D01*
X130270Y116210D01*
X129770Y117380D01*
X129520Y118710D01*
Y120050D01*
X129770Y121380D01*
X130270Y122550D01*
X131030Y123550D01*
X131900Y124210D01*
X132900Y124380D01*
X133900Y124210D01*
X134770Y123550D01*
X135530Y122550D01*
X136030Y121380D01*
X136280Y120050D01*
Y118710D01*
X136030Y117380D01*
X135530Y116210D01*
X134770Y115210D01*
X133900Y114550D01*
X132900Y114380D01*
G01X139650D02*
Y124380D01*
X142900Y116050D01*
X146150Y124380D01*
Y114380D01*
G01X-850Y138380D02*
X900Y128380D01*
X2900Y138380D01*
X4900Y128380D01*
X6650Y138380D01*
G01X11400D02*
X14400D01*
G01X12900D02*
Y128380D01*
G01X11400D02*
X14400D01*
G01X20400D02*
Y138380D01*
X23520D01*
X24520Y137880D01*
X25150Y137210D01*
X25400Y135880D01*
X25150Y134550D01*
X24400Y133710D01*
X23520Y133210D01*
X20400D01*
G01X23520D02*
X25400Y128380D01*
G01X35400D02*
X30400D01*
Y138380D01*
X35400D01*
G01X33400Y133550D02*
X30400D01*
G01X40400Y138380D02*
Y128380D01*
X45400D01*
G01X55400D02*
X50400D01*
Y138380D01*
X55400D01*
G01X53400Y133550D02*
X50400D01*
G01X60270Y129710D02*
X61280Y128880D01*
X62400Y128380D01*
X63400D01*
X64400Y128880D01*
X65150Y129710D01*
X65530Y130880D01*
X65280Y132050D01*
X64650Y133050D01*
X63520Y133710D01*
X62030Y134050D01*
X61150Y134710D01*
X60770Y135880D01*
X61030Y137050D01*
X61650Y137880D01*
X62520Y138380D01*
X63400D01*
X64280Y138050D01*
X65030Y137210D01*
G01X70270Y129710D02*
X71280Y128880D01*
X72400Y128380D01*
X73400D01*
X74400Y128880D01*
X75150Y129710D01*
X75530Y130880D01*
X75280Y132050D01*
X74650Y133050D01*
X73520Y133710D01*
X72030Y134050D01*
X71150Y134710D01*
X70770Y135880D01*
X71030Y137050D01*
X71650Y137880D01*
X72520Y138380D01*
X73400D01*
X74280Y138050D01*
X75030Y137210D01*
G01X79150Y125050D02*
X86650D01*
G01X93900Y133710D02*
X94400Y134210D01*
X94770Y135050D01*
X95030Y136210D01*
X94770Y137210D01*
X94280Y137880D01*
X93400Y138380D01*
X90030D01*
Y128380D01*
X94150D01*
X95030Y129050D01*
X95530Y130050D01*
X95770Y131210D01*
X95530Y132380D01*
X94770Y133380D01*
X93900Y133710D01*
X90030D01*
G01X102900Y128380D02*
X101900Y128550D01*
X101030Y129210D01*
X100270Y130210D01*
X99770Y131380D01*
X99520Y132710D01*
Y134050D01*
X99770Y135380D01*
X100270Y136550D01*
X101030Y137550D01*
X101900Y138210D01*
X102900Y138380D01*
X103900Y138210D01*
X104770Y137550D01*
X105530Y136550D01*
X106030Y135380D01*
X106280Y134050D01*
Y132710D01*
X106030Y131380D01*
X105530Y130210D01*
X104770Y129210D01*
X103900Y128550D01*
X102900Y128380D01*
G01X109770D02*
X112900Y138380D01*
X116030Y128380D01*
G01X114900Y131880D02*
X110900D01*
G01X120400Y128380D02*
Y138380D01*
X123520D01*
X124520Y137880D01*
X125150Y137210D01*
X125400Y135880D01*
X125150Y134550D01*
X124400Y133710D01*
X123520Y133210D01*
X120400D01*
G01X123520D02*
X125400Y128380D01*
G01X130150D02*
Y138380D01*
X132650D01*
X133650Y137880D01*
X134400Y137210D01*
X135030Y136210D01*
X135530Y135050D01*
X135650Y133380D01*
X135530Y131710D01*
X135030Y130550D01*
X134400Y129550D01*
X133650Y128880D01*
X132650Y128380D01*
X130150D01*
G01X139150Y125050D02*
X146650D01*
G01X150400Y128380D02*
Y138380D01*
X153520D01*
X154520Y137880D01*
X155150Y137210D01*
X155400Y135880D01*
X155150Y134550D01*
X154400Y133710D01*
X153520Y133210D01*
X150400D01*
G01X153520D02*
X155400Y128380D01*
G01X161030Y132880D02*
X165030D01*
X164650Y134050D01*
X164030Y134710D01*
X163150Y135050D01*
X162280Y134880D01*
X161520Y134380D01*
X161030Y133210D01*
X160770Y132210D01*
Y131210D01*
X161030Y130210D01*
X161650Y129210D01*
X162400Y128550D01*
X163280Y128380D01*
X164150Y128710D01*
X165030Y129710D01*
G01X170650Y135050D02*
X172900Y128380D01*
X175150Y135050D01*
G01X179150Y125050D02*
X186650D01*
G01X193900Y133710D02*
X194400Y134210D01*
X194770Y135050D01*
X195030Y136210D01*
X194770Y137210D01*
X194280Y137880D01*
X193400Y138380D01*
X190030D01*
Y128380D01*
X194150D01*
X195030Y129050D01*
X195530Y130050D01*
X195770Y131210D01*
X195530Y132380D01*
X194770Y133380D01*
X193900Y133710D01*
X190030D01*
G01X-350Y142880D02*
Y152880D01*
X2150D01*
X3150Y152380D01*
X3900Y151710D01*
X4530Y150710D01*
X5030Y149550D01*
X5150Y147880D01*
X5030Y146210D01*
X4530Y145050D01*
X3900Y144050D01*
X3150Y143380D01*
X2150Y142880D01*
X-350D01*
G01X9270D02*
X12400Y152880D01*
X15530Y142880D01*
G01X14400Y146380D02*
X10400D01*
G01X22400Y152880D02*
Y142880D01*
G01X19530Y152880D02*
X25270D01*
G01X34900Y142880D02*
X29900D01*
Y152880D01*
X34900D01*
G01X32900Y148050D02*
X29900D01*
G01X42400Y142550D02*
X42150Y142710D01*
Y143050D01*
X42400Y143210D01*
X42650Y143050D01*
Y142710D01*
X42400Y142550D01*
G01Y147050D02*
X42150Y147210D01*
Y147550D01*
X42400Y147710D01*
X42650Y147550D01*
Y147210D01*
X42400Y147050D01*
G01X62400Y142880D02*
Y152880D01*
X60900Y150880D01*
G01Y142880D02*
X63900D01*
G01X70270Y144050D02*
X71150Y143210D01*
X72150Y142880D01*
X73150Y143210D01*
X74020Y144210D01*
X74650Y145710D01*
X74900Y147210D01*
Y149050D01*
X74650Y150550D01*
X74020Y151880D01*
X73270Y152550D01*
X72400Y152880D01*
X71400Y152550D01*
X70650Y151880D01*
X70150Y150880D01*
X69900Y149550D01*
X70150Y148380D01*
X70780Y147210D01*
X71530Y146550D01*
X72400Y146380D01*
X73400Y146710D01*
X74150Y147550D01*
X74900Y149050D01*
G01X80150Y142550D02*
X84650Y152880D01*
G01X92400D02*
X91400Y152550D01*
X90650Y151710D01*
X90150Y150710D01*
X89770Y149380D01*
X89650Y147880D01*
X89770Y146380D01*
X90150Y145050D01*
X90650Y144050D01*
X91400Y143210D01*
X92400Y142880D01*
X93400Y143210D01*
X94150Y144050D01*
X94650Y145050D01*
X95030Y146380D01*
X95150Y147880D01*
X95030Y149380D01*
X94650Y150710D01*
X94150Y151710D01*
X93400Y152550D01*
X92400Y152880D01*
G01X99650Y144380D02*
X100400Y143550D01*
X101270Y143050D01*
X102400Y142880D01*
X103530Y143210D01*
X104400Y143880D01*
X105030Y145050D01*
X105150Y146380D01*
X104900Y147710D01*
X104270Y148550D01*
X103400Y149210D01*
X102530Y149380D01*
X101650Y149210D01*
X100530Y148550D01*
X100900Y152880D01*
X104270D01*
G01X110150Y142550D02*
X114650Y152880D01*
G01X122400Y142880D02*
Y152880D01*
X120900Y150880D01*
G01Y142880D02*
X123900D01*
G01X129650Y144380D02*
X130400Y143550D01*
X131270Y143050D01*
X132400Y142880D01*
X133530Y143210D01*
X134400Y143880D01*
X135030Y145050D01*
X135150Y146380D01*
X134900Y147710D01*
X134270Y148550D01*
X133400Y149210D01*
X132530Y149380D01*
X131650Y149210D01*
X130530Y148550D01*
X130900Y152880D01*
X134270D01*
G01X65600Y32010D02*
X57200D01*
G01X65600Y27410D02*
X57100D01*
G01X56400Y77110D02*
X81400D01*
Y85610D01*
X56400D01*
Y77110D01*
G01X66500Y9500D02*
X70500D01*
Y7500D01*
X66500D01*
Y9500D01*
G01X75900Y23710D02*
X71900D01*
Y25710D01*
X75900D01*
Y23710D01*
G01X76000Y19590D02*
X72000D01*
Y21590D01*
X76000D01*
Y19590D01*
G01X72000Y16800D02*
X76000D01*
Y14800D01*
X72000D01*
Y16800D01*
G01X71310Y41690D02*
X72890D01*
Y45630D01*
X71310D01*
Y41690D01*
G01X64230Y45630D02*
Y40110D01*
X66590D01*
Y45630D01*
X64230D01*
Y45230D01*
G01X75400Y49570D02*
Y53570D01*
X77400D01*
Y49570D01*
X75400D01*
G01X79990Y22270D02*
X91810D01*
Y29150D01*
X81570D01*
X79990Y27580D01*
Y22270D01*
G01X93400Y9710D02*
X89400D01*
Y11710D01*
X93400D01*
Y9710D01*
G01X84890Y16190D02*
Y14230D01*
G01X82920D02*
Y16190D01*
G01X84890D02*
X84690D01*
G01X83120D02*
X82920D01*
G01Y14230D02*
X83120D01*
G01X84690D02*
X84890D01*
G01X81940D02*
X82920D01*
G01X81940Y16190D02*
Y14230D01*
G01X82920Y16190D02*
X81940D01*
G01X83120Y14230D02*
X84690D01*
G01Y16190D02*
X83120D01*
G01X85870D02*
X84890D01*
G01X85870Y14230D02*
Y16190D01*
G01X84890Y14230D02*
X85870D01*
G01X94220Y23650D02*
X96180D01*
G01Y21680D02*
X94220D01*
G01Y23650D02*
Y23450D01*
G01Y21880D02*
Y21680D01*
G01Y20700D02*
X96180D01*
G01X94220Y21680D02*
Y20700D01*
G01Y23450D02*
Y21880D01*
G01Y24630D02*
Y23650D01*
G01X96180Y24630D02*
X94220D01*
G01X82880Y34500D02*
G03I-877J-1D01*
G01X96200Y33210D02*
Y29210D01*
X94200D01*
Y33210D01*
X96200D01*
G01X103100Y48620D02*
Y20180D01*
X122980D01*
Y51120D01*
X105600D01*
X103100Y48620D01*
G01X96180Y21680D02*
Y21880D01*
G01Y23450D02*
Y23650D01*
G01Y20700D02*
Y21680D01*
G01Y21880D02*
Y23450D01*
G01Y23650D02*
Y24630D01*
G01X120700Y88400D02*
X95900D01*
Y63600D01*
X121100D01*
Y88400D01*
X120310D01*
M02*
