G04 ================== begin FILE IDENTIFICATION RECORD ==================*
G04 Layout Name:  WIRELESS_BOARD_19may15_1310.brd*
G04 Film Name:    bottom*
G04 File Format:  Gerber RS274X*
G04 File Origin:  Cadence Allegro 16.6-P004*
G04 Origin Date:  Tue May 19 13:07:29 2015*
G04 *
G04 Layer:  DRAWING FORMAT/BOTTOM*
G04 Layer:  DRAWING FORMAT/FILM_LABEL_OUTLINE*
G04 Layer:  VIA CLASS/BOTTOM*
G04 Layer:  PIN/BOTTOM*
G04 Layer:  ETCH/BOTTOM*
G04 *
G04 Offset:    (0.0 0.0)*
G04 Mirror:    No*
G04 Mode:      Positive*
G04 Rotation:  0*
G04 FullContactRelief:  No*
G04 UndefLineWidth:     6.0*
G04 ================== end FILE IDENTIFICATION RECORD ====================*
%FSLAX25Y25*MOIN*%
%IR0*IPPOS*OFA0.00000B0.00000*MIA0B0*SFA1.00000B1.00000*%
%AMMACRO22*
4,1,44,-.0053,-.0108,
.0053,-.0108,
.00622,-.01072,
.007112,-.010482,
.007949,-.010092,
.008705,-.009563,
.009358,-.008911,
.009888,-.008155,
.010279,-.007319,
.010519,-.006427,
.0106,-.005508,
.0106,-.0055,
.0106,.0055,
.01052,.00642,
.010282,.007312,
.009892,.008149,
.009363,.008905,
.008711,.009558,
.007955,.010088,
.007119,.010479,
.006227,.010719,
.005308,.0108,
.0053,.0108,
-.0053,.0108,
-.00622,.01072,
-.007112,.010482,
-.007949,.010092,
-.008705,.009563,
-.009358,.008911,
-.009888,.008155,
-.010279,.007319,
-.010519,.006427,
-.0106,.005508,
-.0106,.0055,
-.0106,-.0055,
-.01052,-.00642,
-.010282,-.007312,
-.009892,-.008149,
-.009363,-.008905,
-.008711,-.009558,
-.007955,-.010088,
-.007119,-.010479,
-.006227,-.010719,
-.005308,-.0108,
-.0053,-.0108,
0.0*
%
%ADD22MACRO22*%
%AMMACRO21*
4,1,44,-.0108,.0053,
-.0108,-.0053,
-.01072,-.00622,
-.010482,-.007112,
-.010092,-.007949,
-.009563,-.008705,
-.008911,-.009358,
-.008155,-.009888,
-.007319,-.010279,
-.006427,-.010519,
-.005508,-.0106,
-.0055,-.0106,
.0055,-.0106,
.00642,-.01052,
.007312,-.010282,
.008149,-.009892,
.008905,-.009363,
.009558,-.008711,
.010088,-.007955,
.010479,-.007119,
.010719,-.006227,
.0108,-.005308,
.0108,-.0053,
.0108,.0053,
.01072,.00622,
.010482,.007112,
.010092,.007949,
.009563,.008705,
.008911,.009358,
.008155,.009888,
.007319,.010279,
.006427,.010519,
.005508,.0106,
.0055,.0106,
-.0055,.0106,
-.00642,.01052,
-.007312,.010282,
-.008149,.009892,
-.008905,.009363,
-.009558,.008711,
-.010088,.007955,
-.010479,.007119,
-.010719,.006227,
-.0108,.005308,
-.0108,.0053,
0.0*
%
%ADD21MACRO21*%
%ADD12C,.0236*%
%ADD20R,.0236X.0433*%
%ADD19R,.0217X.0236*%
%ADD25R,.063X.0157*%
%ADD15R,.0236X.0217*%
%ADD17R,.0315X.0295*%
%ADD13C,.0376*%
%ADD24R,.063X.0827*%
%ADD11R,.0295X.0315*%
%ADD10C,.0197*%
%ADD23R,.0394X.0551*%
%ADD18R,.0236X.0197*%
%ADD16R,.0197X.0256*%
%ADD14R,.0376X.0376*%
%ADD27R,.0748X.0748*%
%ADD26R,.0299X.0944*%
%ADD28C,.006*%
%ADD29C,.0059*%
%ADD30C,.01*%
%ADD31C,.02*%
%ADD32C,.015*%
%ADD33C,.016*%
%ADD34C,.018*%
G75*
%LPD*%
G75*
G36*
G01X135540Y2390D02*
G02X135150Y2000I-390J0D01*
G01X27460D01*
G02X27070Y2390I0J390D01*
G01Y20510D01*
G02X27460Y20900I390J0D01*
G01X36640D01*
G03X36910Y21010I-1J390D01*
G01X38890Y22990D01*
G03X39000Y23260I-280J271D01*
G01Y28240D01*
G03X38890Y28510I-390J-1D01*
G01X37110Y30290D01*
G03X36840Y30400I-271J-280D01*
G01X27460D01*
G02X27070Y30790I0J390D01*
G01Y96040D01*
G02X27460Y96430I390J0D01*
G01X135110D01*
G02X135500Y96040I0J-390D01*
G01Y11710D01*
X135540D01*
Y2390D01*
G37*
%LPC*%
G75*
G36*
G01X100210Y63000D02*
X96790D01*
G02X96400Y63390I1J391D01*
G01Y65690D01*
G03X96160Y66050I-388J1D01*
G01X96050Y66100D01*
X95820Y66050D01*
X93130Y63350D01*
G02X92850Y63240I-272J281D01*
G01X51830D01*
G02X51440Y63630I-1J389D01*
G01Y63710D01*
X51380Y63840D01*
X47840Y67390D01*
G03X47550Y67500I-272J-280D01*
G02X46850Y70350I-49J1499D01*
G03X47070Y70700I-171J352D01*
G01Y70710D01*
G03X46680Y71100I-391J-1D01*
G01X46280D01*
G03X46000Y70980I1J-390D01*
G02Y73020I-1100J1020D01*
G03X46280Y72900I281J270D01*
G01X48810D01*
G02X49090Y72790I8J-391D01*
G01X55360Y66510D01*
G03X55630Y66400I272J281D01*
G01X57730D01*
G03X58030Y66530I8J392D01*
G01X58420Y66990D01*
G03X58510Y67290I-294J252D01*
G01Y67300D01*
G02X61100Y68520I1488J201D01*
G03X61380Y68400I281J270D01*
G01X62730D01*
G03X63030Y68530I8J392D01*
G01X63420Y68990D01*
G03X63510Y69290I-294J252D01*
G01Y69300D01*
G02X66100Y70520I1488J201D01*
G03X66380Y70400I281J270D01*
G01X67730D01*
G03X68030Y70530I8J392D01*
G01X68420Y70990D01*
G03X68510Y71290I-294J252D01*
G01Y71300D01*
G02X71100Y72520I1488J201D01*
G03X71380Y72400I281J270D01*
G01X75730D01*
G03X76030Y72530I8J392D01*
G01X76420Y72990D01*
G03X76510Y73290I-294J252D01*
G01Y73300D01*
G02X76540Y73840I1489J188D01*
G03X76470Y74170I-380J92D01*
G01X76080Y74660D01*
G03X75770Y74810I-308J-240D01*
G01X69340D01*
G02X69060Y74920I-8J391D01*
G01X67580Y76400D01*
G03X67190Y76500I-278J-272D01*
G01X67180D01*
G02X64500Y77250I-784J2362D01*
G03X64200Y77390I-300J-251D01*
G01X63600D01*
G03X63300Y77250I0J-391D01*
G02X62520Y76640I-1893J1616D01*
G01X62410Y76580D01*
X62300Y76410D01*
Y76340D01*
X59890Y73920D01*
G02X59610Y73810I-272J281D01*
G01X54190D01*
G02X53910Y73920I-8J391D01*
G01X51610Y76220D01*
G02X51500Y76500I281J272D01*
G01Y86620D01*
G02X51610Y86900I391J8D01*
G01X53500Y88790D01*
G02X53780Y88900I272J-281D01*
G01X61160D01*
G03X61430Y89010I-2J391D01*
G01X64290Y91870D01*
G03X64400Y92160I-280J272D01*
G02X67320Y92680I1498J46D01*
G01X67330D01*
G03X67610Y92420I369J117D01*
G01X68270Y92260D01*
G03X68630Y92370I81J380D01*
G01X69260Y93000D01*
G02X69540Y93110I272J-281D01*
G01X87990D01*
G02X88270Y93000I8J-391D01*
G01X93290Y87980D01*
G02X93400Y87700I-281J-272D01*
G01Y76610D01*
G03X93640Y76250I392J1D01*
G01X93750Y76210D01*
X93980Y76250D01*
X95510Y77790D01*
G02X95790Y77900I272J-281D01*
G01X96010D01*
G03X96400Y78290I1J389D01*
G01Y88610D01*
G02X96790Y89000I391J-1D01*
G01X100210D01*
G02X100600Y88610I-1J-391D01*
G01Y78290D01*
G03X100990Y77900I389J-1D01*
G01X101010D01*
G03X101400Y78290I1J389D01*
G01Y88610D01*
G02X101790Y89000I391J-1D01*
G01X105210D01*
G02X105600Y88610I-1J-391D01*
G01Y78290D01*
G03X105990Y77900I389J-1D01*
G01X106010D01*
G03X106400Y78290I1J389D01*
G01Y88610D01*
G02X106790Y89000I391J-1D01*
G01X110210D01*
G02X110600Y88610I-1J-391D01*
G01Y78290D01*
G03X110990Y77900I389J-1D01*
G01X111010D01*
G03X111400Y78290I1J389D01*
G01Y88610D01*
G02X111790Y89000I391J-1D01*
G01X115210D01*
G02X115600Y88610I-1J-391D01*
G01Y78750D01*
G02X115210Y78360I-391J1D01*
G01X114790D01*
G03X114400Y77970I0J-390D01*
G01Y77890D01*
G02X114290Y77610I-391J-8D01*
G01X113740Y77070D01*
G03X113650Y76640I273J-282D01*
G01X113700Y76530D01*
X113890Y76400D01*
X115470D01*
G03X115740Y76510I-2J391D01*
G01X116920Y77690D01*
G03X117010Y78120I-273J282D01*
G01X116960Y78230D01*
X116770Y78360D01*
X116620D01*
X116400Y78580D01*
Y88610D01*
G02X116790Y89000I391J-1D01*
G01X120210D01*
G02X120600Y88610I-1J-391D01*
G01Y78750D01*
G02X120210Y78360I-391J1D01*
G01X119790D01*
G03X119400Y77970I0J-390D01*
G01Y77790D01*
G02X119290Y77510I-391J-8D01*
G01X119230Y77460D01*
X119180Y77310D01*
X119240Y76600D01*
G03X119410Y76320I387J43D01*
G02X120100Y75000I-918J-1320D01*
G01Y74030D01*
G03X120490Y73640I390J0D01*
G01X120600D01*
Y63390D01*
G02X120210Y63000I-391J1D01*
G01X116790D01*
G02X116400Y63390I1J391D01*
G01Y73250D01*
G02X116790Y73640I391J-1D01*
G01X116900D01*
Y74210D01*
G03X116510Y74600I-390J0D01*
G01X97530D01*
G03X97260Y74490I2J-391D01*
G01X97080Y74310D01*
G03X96990Y73880I273J-282D01*
G01X97040Y73770D01*
X97230Y73640D01*
X100210D01*
G02X100600Y73250I-1J-391D01*
G01Y63390D01*
G02X100210Y63000I-391J1D01*
G37*
G36*
G01X113300Y55150D02*
X121200D01*
G02X121590Y54760I0J-390D01*
G01Y46860D01*
G02X121200Y46470I-390J0D01*
G01X113300D01*
G02X112910Y46860I0J390D01*
G01Y54760D01*
G02X113300Y55150I390J0D01*
G37*
G36*
G01Y24830D02*
X121200D01*
G02X121590Y24440I0J-390D01*
G01Y16540D01*
G02X121200Y16150I-390J0D01*
G01X113300D01*
G02X112910Y16540I0J390D01*
G01Y24440D01*
G02X113300Y24830I390J0D01*
G37*
G36*
G01X106790Y73640D02*
X110210D01*
G02X110600Y73250I-1J-391D01*
G01Y63390D01*
G02X110210Y63000I-391J1D01*
G01X106790D01*
G02X106400Y63390I1J391D01*
G01Y73250D01*
G02X106790Y73640I391J-1D01*
G37*
G36*
G01X111790D02*
X115210D01*
G02X115600Y73250I-1J-391D01*
G01Y63390D01*
G02X115210Y63000I-391J1D01*
G01X111790D01*
G02X111400Y63390I1J391D01*
G01Y73250D01*
G02X111790Y73640I391J-1D01*
G37*
G36*
G01X113290Y44720D02*
X121210D01*
G02X121600Y44330I0J-390D01*
G01Y26960D01*
G02X121210Y26570I-390J0D01*
G01X113290D01*
G02X112900Y26960I0J390D01*
G01Y44330D01*
G02X113290Y44720I390J0D01*
G37*
G36*
G01X126000Y26160D02*
G03X126110Y25870I390J-18D01*
G01X129290Y22700D01*
G02X129400Y22420I-281J-272D01*
G01Y9380D01*
G03X129520Y9100I390J1D01*
G02X127480I-1020J-1100D01*
G03X127600Y9380I-270J281D01*
G01Y21680D01*
G03X127490Y21950I-391J-2D01*
G01X124840Y24600D01*
G03X124550Y24710I-272J-280D01*
G02X126000Y26160I-50J1500D01*
G37*
G36*
G01X127900Y56210D02*
Y32880D01*
G03X128020Y32600I390J1D01*
G02X125980I-1020J-1100D01*
G03X126100Y32880I-270J281D01*
G01Y55470D01*
G03X125990Y55740I-391J-2D01*
G01X123840Y57890D01*
G03X123550Y58000I-272J-280D01*
G02X125000Y59450I-50J1500D01*
G03X125110Y59160I390J-18D01*
G01X127790Y56490D01*
G02X127900Y56210I-281J-272D01*
G37*
G36*
G01X132300Y92470D02*
Y86950D01*
G02X131910Y86560I-389J0D01*
G01X123890D01*
G02X123500Y86950I-1J390D01*
G01Y92170D01*
G02X123610Y92450I391J8D01*
G01X123910Y92750D01*
G02X124190Y92860I272J-281D01*
G01X131910D01*
G02X132300Y92470I1J-390D01*
G37*
G36*
G01X97400Y50950D02*
G02X97290Y50680I-390J1D01*
G01X94290Y47670D01*
G03X94200Y47240I271J-281D01*
G03X94560Y47000I361J151D01*
G01X103070D01*
G03X103460Y47390I0J390D01*
G01Y52200D01*
G02X103850Y52590I390J0D01*
G01X110570D01*
G02X110960Y52200I0J-390D01*
G01Y43500D01*
G02X110570Y43110I-390J0D01*
G01X106890D01*
G03X106500Y42720I0J-390D01*
G01Y42560D01*
G03X106890Y42170I390J0D01*
G01X107320D01*
Y42160D01*
X110580D01*
G02X110970Y41770I0J-390D01*
G01Y29530D01*
G02X110580Y29140I-390J0D01*
G01X106890D01*
G03X106500Y28750I0J-390D01*
G01Y28570D01*
G03X106890Y28180I390J0D01*
G01X110570D01*
G02X110960Y27790I0J-390D01*
G01Y19090D01*
G02X110570Y18700I-390J0D01*
G01X106890D01*
G03X106500Y18310I0J-390D01*
G01Y6890D01*
G02X106110Y6500I-390J0D01*
G01X103440D01*
G03X103170Y6390I1J-390D01*
G01X101210Y4430D01*
G02X101180Y4400I-291J261D01*
G01X101160Y4390D01*
X101130Y4360D01*
X101060Y4330D01*
G02X100910Y4300I-150J360D01*
G01X49190D01*
G02X49040Y4330I0J390D01*
G01X48970Y4360D01*
X48950Y4370D01*
X46430Y6890D01*
G02X46400Y6920I261J291D01*
G01X46390Y6940D01*
X46360Y6970D01*
X46330Y7040D01*
G02X46300Y7190I360J150D01*
G01Y13390D01*
G02X46330Y13540I390J0D01*
G01X46360Y13610D01*
X46370Y13630D01*
X47580Y14830D01*
X49210Y16460D01*
G03X49320Y16730I-280J271D01*
G01Y29330D01*
G03X49200Y29610I-390J-1D01*
G02X48840Y31290I1021J1097D01*
G01X48870Y31360D01*
Y31580D01*
G03X48810Y31790I-390J2D01*
G01X48490Y32310D01*
G03X48160Y32500I-335J-200D01*
G01X38680D01*
G02X38530Y32530I0J390D01*
G01X38480Y32550D01*
X38450Y32570D01*
X33830Y37190D01*
G02X33780Y37250I273J278D01*
G01X33770Y37270D01*
X33760Y37280D01*
G02X33700Y37490I330J208D01*
G01Y53320D01*
G02X33730Y53470I390J0D01*
G01X33750Y53520D01*
X33770Y53550D01*
X41200Y60980D01*
G02X41260Y61030I278J-273D01*
G01X41280Y61040D01*
X41290Y61050D01*
G02X41500Y61110I208J-330D01*
G01X70400D01*
G02Y57910I0J-1600D01*
G01X42820D01*
G03X42550Y57800I1J-390D01*
G01X37010Y52260D01*
G03X36900Y51990I280J-271D01*
G01Y40940D01*
G03X37070Y40620I390J2D01*
G01X37580Y40270D01*
G03X37800Y40200I223J320D01*
G01X37860D01*
X38040Y40220D01*
X38070Y40230D01*
G02X39990Y38990I434J-1434D01*
G01Y38980D01*
G03X40100Y38760I386J56D01*
G01X41150Y37710D01*
G03X41420Y37600I271J280D01*
G01X62840D01*
G03X63230Y37990I0J390D01*
G01Y42290D01*
X63430D01*
G03X63500Y42500I-318J223D01*
G01Y43070D01*
G03X63390Y43340I-390J-1D01*
G01X63340Y43390D01*
G02X63230Y43660I280J271D01*
G01Y47220D01*
G02X63620Y47610I390J0D01*
G01X67200D01*
G02X67580Y47310I0J-391D01*
G03X67680Y47130I379J93D01*
G01X67700Y47110D01*
G03X67970Y47000I271J280D01*
G01X70110D01*
G03X70500Y47390I0J390D01*
G01Y47750D01*
G03X70420Y47990I-390J3D01*
G02X71340Y50380I1185J916D01*
G01X71410Y50390D01*
X71510Y50440D01*
X71900Y50850D01*
G03X72010Y51080I-278J274D01*
G02X73740Y52380I1489J-181D01*
G03X74060Y52470I64J385D01*
G01X74520Y52860D01*
G03X74660Y53160I-250J299D01*
G01Y54940D01*
G02X75040Y55330I390J0D01*
G01X77660D01*
G02X78040Y54940I-10J-390D01*
G01Y54830D01*
G03X78430Y54440I390J0D01*
G01X79700D01*
G03X80090Y54830I0J390D01*
G01Y56510D01*
G02X80480Y56900I391J-1D01*
G01X84840D01*
G02X85230Y56510I-1J-391D01*
G01Y50570D01*
G02X84840Y50180I-391J1D01*
G01X80480D01*
G02X80090Y50570I1J391D01*
G01Y52250D01*
G03X79700Y52640I-390J0D01*
G01X78430D01*
G03X78040Y52250I0J-390D01*
G01Y48200D01*
G02X77660Y47810I-390J0D01*
G01X76080D01*
G03X75720Y47570I0J-390D01*
G01X75670Y47460D01*
X75720Y47230D01*
X75840Y47110D01*
G03X76110Y47000I271J280D01*
G01X83440D01*
X83500D01*
Y48110D01*
G02X83890Y48500I390J0D01*
G01X89110D01*
G02X89500Y48110I0J-390D01*
G01Y47390D01*
G03X89890Y47000I390J0D01*
G01X90290D01*
G03X90580Y47130I-1J390D01*
G01X90970Y47560D01*
G03X91070Y47840I-290J261D01*
G01Y47850D01*
G02X91220Y48590I1498J82D01*
G02X91890Y49270I1346J-656D01*
G01X91950Y49300D01*
X92160Y49510D01*
G03X92250Y49940I-271J281D01*
G01X92200Y50050D01*
X92010Y50180D01*
X87960D01*
G02X87570Y50570I1J391D01*
G01Y56510D01*
G02X87960Y56900I391J-1D01*
G01X92320D01*
G02X92710Y56510I-1J-391D01*
G01Y51000D01*
G03X92950Y50640I390J0D01*
G01X93060Y50590D01*
X93290Y50640D01*
X94490Y51840D01*
G03X94600Y52110I-280J271D01*
G01Y56460D01*
G03X94490Y56730I-390J-1D01*
G01X94390Y56830D01*
X94330Y56860D01*
G02X96340Y58870I670J1340D01*
G01X96370Y58810D01*
X97290Y57890D01*
G02X97400Y57620I-280J-271D01*
G01Y50950D01*
G37*
%LPD*%
G75*
G36*
G01X52510Y29080D02*
X52530Y29100D01*
G02X52800Y29210I272J-281D01*
G01X52810D01*
G03X54300Y30710I-10J1500D01*
G02X54410Y30990I391J8D01*
G01X54810Y31390D01*
G02X55090Y31500I272J-281D01*
G01X56280D01*
G02X56670Y31110I0J-390D01*
G01Y27920D01*
Y27750D01*
X56890Y27530D01*
X57020D01*
X60440D01*
X60610D01*
X60830Y27750D01*
Y27880D01*
Y31110D01*
G02X61220Y31500I390J0D01*
G01X61580D01*
G02X61970Y31110I0J-390D01*
G01Y27750D01*
X62190Y27530D01*
X63110D01*
G02X63500Y27140I0J-390D01*
G01Y9790D01*
G02X63110Y9400I-390J0D01*
G01X62380D01*
G02X62100Y9520I1J390D01*
G03X59620Y9100I-1103J-1019D01*
G01Y9090D01*
G02X59260Y8860I-357J161D01*
G01X56390D01*
G02X56240Y8890I0J390D01*
G01X56000Y8990D01*
G03X55570Y8900I-148J-363D01*
G01X55140Y8460D01*
G02X54860Y8340I-281J270D01*
G01X54000D01*
G03X53720Y8220I1J-390D01*
G02X53480Y8010I-1103J1018D01*
G01X53470Y8000D01*
G03X53290Y7680I210J-329D01*
G01Y7670D01*
G02X52930Y7280I-391J0D01*
G01X50520D01*
G02X50320Y7350I25J392D01*
G01X49570Y8100D01*
G02X49500Y8300I322J225D01*
G01Y12370D01*
G02X49610Y12640I391J-2D01*
G01X49940Y12960D01*
Y12970D01*
X50550Y13570D01*
X52330Y15350D01*
X52340Y15360D01*
Y15370D01*
X52400Y15510D01*
Y28810D01*
G02X52510Y29080I391J-2D01*
G37*
G54D10*
X36280Y3850D03*
X32280D03*
X28280D03*
Y7850D03*
Y11850D03*
Y20150D03*
Y15850D03*
X35640Y16070D03*
X32640D03*
X43400Y26240D03*
X28280Y43550D03*
Y31550D03*
X28040Y38960D03*
X38500Y38800D03*
X28280Y59710D03*
Y55550D03*
Y51550D03*
Y47550D03*
Y71550D03*
Y75550D03*
Y79550D03*
Y67550D03*
Y63550D03*
X44400Y95210D03*
X40400D03*
X36400D03*
X32400D03*
X28400D03*
X28340Y92630D03*
Y88630D03*
Y84630D03*
X61000Y8500D03*
Y15500D03*
X53900Y12210D03*
X55400Y30210D03*
X52800Y30710D03*
X50220D03*
X44900Y72000D03*
X47500Y69000D03*
X60000Y67500D03*
X60400Y95210D03*
X56400D03*
X52400D03*
X48400D03*
X74400Y3210D03*
X78400D03*
X68200Y14200D03*
X65500Y33500D03*
X69400Y38710D03*
X74900Y42710D03*
X67000Y62200D03*
X77500Y56500D03*
X70400Y59510D03*
X71600Y48900D03*
X73500Y50900D03*
X74500Y62250D03*
X65000Y69500D03*
X70000Y71500D03*
X78000Y73500D03*
X78400Y95210D03*
X74400D03*
X70400D03*
X64400D03*
X65900Y92210D03*
X82400Y3210D03*
X86400D03*
X90400D03*
X94400D03*
X83400Y9710D03*
X88400Y24710D03*
X83900D03*
X91500Y44000D03*
X96500Y47500D03*
X95000Y58200D03*
X92570Y47940D03*
X84870Y75710D03*
X82400Y95210D03*
X86400D03*
X90400D03*
X94400D03*
X98400Y3210D03*
X102400D03*
X106400D03*
X110400D03*
X114400D03*
X101670Y10500D03*
X105000Y11000D03*
X97500Y43000D03*
X98400Y95210D03*
X102400D03*
X106400D03*
X110400D03*
X114400D03*
X118400Y3210D03*
X122400D03*
X126400D03*
X130400D03*
X128500Y8000D03*
X125000Y20000D03*
X124500Y26210D03*
X125000Y34500D03*
X124600Y42700D03*
X127000Y31500D03*
X123500Y59500D03*
X118500Y75000D03*
X130400Y95210D03*
X126400D03*
X122400D03*
X118400D03*
X134400Y3210D03*
Y7210D03*
Y11210D03*
Y15210D03*
Y19210D03*
Y23210D03*
Y27210D03*
Y31210D03*
Y35210D03*
Y39210D03*
Y43210D03*
Y47210D03*
Y51210D03*
Y55210D03*
Y59210D03*
Y63210D03*
Y67210D03*
Y71210D03*
Y75210D03*
Y79210D03*
Y83210D03*
Y87210D03*
Y91210D03*
Y95210D03*
G54D11*
X58750Y29710D03*
X64050D03*
G54D20*
X82160Y20590D03*
X85900D03*
X89640D03*
Y30830D03*
X82160D03*
X85900D03*
G54D30*
G01X38500Y38800D02*
X40800Y36500D01*
X69000D01*
X69820Y35680D01*
X72100D01*
G01Y41790D02*
Y35680D01*
G54D12*
X51290Y43500D03*
X46590D03*
X51290Y38800D03*
X46590D03*
X60690Y43500D03*
X55990D03*
Y38800D03*
X60690D03*
X46590Y52900D03*
X51290D03*
Y48200D03*
X46590D03*
X55990Y52900D03*
X60690D03*
Y48200D03*
X55990D03*
G54D21*
X85480Y15210D03*
X82330D03*
G54D31*
G01X70400Y59510D02*
X42000D01*
X35300Y52810D01*
Y37990D01*
X39190Y34100D01*
X64900D01*
X65500Y33500D01*
G01X61000Y15500D02*
X63500D01*
G01X55400Y30210D02*
X55900Y29710D01*
G01D02*
X58750D01*
G01X83400Y9710D02*
X81960Y8270D01*
X70700D01*
X70470Y8500D01*
G01X63500Y15500D02*
X64500Y14500D01*
G01X72030Y20590D02*
X70090D01*
X68200Y18700D01*
Y14200D01*
G01X72030Y20590D02*
Y24610D01*
X71930Y24710D01*
G01X64050Y29710D02*
X69050Y24710D01*
X71930D01*
G01X64050Y29710D02*
Y32050D01*
X65500Y33500D01*
G01X89430Y10710D02*
X84400D01*
X83400Y9710D01*
G01X85480Y15210D02*
X87290D01*
X89430Y13070D01*
Y10710D01*
G01X85480Y15210D02*
X85900Y15630D01*
Y20590D01*
G01X108500Y68320D02*
X106010D01*
G01X108500D02*
Y62610D01*
G01X113500Y68320D02*
Y62500D01*
G01X118500Y68320D02*
Y75000D01*
G54D13*
X56400Y78860D03*
X61400D03*
Y83860D03*
X66400Y78860D03*
X71400D03*
X76400D03*
X66400Y83860D03*
X71400D03*
X76400D03*
X81400Y78860D03*
Y83860D03*
G54D22*
X95200Y24240D03*
Y21090D03*
G54D32*
G01X58750Y27140D02*
Y29710D01*
G01D02*
X61220D01*
G01X72030Y13030D02*
X73560Y11500D01*
X78620D01*
X82330Y15210D01*
G01X72030Y13030D02*
Y15800D01*
G01X64500Y14500D02*
X67500Y11500D01*
X70500D01*
X72030Y13030D01*
G01X90140Y49790D02*
Y53540D01*
G01D02*
Y57290D01*
G01X87180Y53540D02*
X90140D01*
G01D02*
X93100D01*
G01X95000Y58200D02*
X96000Y57200D01*
Y51370D01*
X92570Y47940D01*
G01X98500Y62610D02*
Y68320D01*
G01D02*
X100990D01*
G54D14*
X56400Y83860D03*
G54D23*
X86400Y44880D03*
X82660Y53540D03*
X90140D03*
G54D33*
G01X75970Y20590D02*
Y15800D01*
G01X82160Y20590D02*
X75970D01*
G01X95200Y24240D02*
Y29240D01*
G01X93370Y10710D02*
X97700D01*
X99980Y12990D01*
Y37470D01*
X103280Y40770D01*
X107210D01*
G01X89640Y30830D02*
X91170D01*
X92760Y29240D01*
X95200D01*
G01Y33180D02*
X97000Y34980D01*
Y42500D01*
X97500Y43000D01*
G01X107210Y30530D02*
X111970D01*
G54D24*
X107210Y23440D03*
Y47850D03*
G54D15*
X66530Y8550D03*
X70470D03*
X75870Y24660D03*
X71930D03*
X75970Y20540D03*
X72030D03*
Y15850D03*
X75970D03*
X93370Y10660D03*
X89430D03*
G54D34*
G01X80500Y48500D02*
X77600Y45600D01*
Y37240D01*
X76040Y35680D01*
G01X85900Y30830D02*
Y33100D01*
X87700Y34900D01*
X90920D01*
X94000Y37980D01*
Y45000D01*
X96500Y47500D01*
G54D16*
X72100Y41790D03*
Y45530D03*
G54D25*
X107210Y30530D03*
Y33090D03*
Y35650D03*
Y38210D03*
Y40770D03*
G54D26*
X113500Y68320D03*
X108500D03*
X98500D03*
X113500Y83680D03*
X108500D03*
X103500D03*
X98500D03*
X118500Y68320D03*
Y83680D03*
G54D17*
X65410Y40210D03*
Y45530D03*
G54D27*
X117250Y20490D03*
Y40370D03*
Y30920D03*
Y50810D03*
G54D18*
X72100Y35680D03*
X76040D03*
G54D28*
G01X82160Y30830D02*
Y36660D01*
X84000Y38500D01*
X89000D01*
X91500Y41000D01*
Y44000D01*
G01X126510Y90650D02*
X126350Y90900D01*
X126160Y91030D01*
X125950Y91070D01*
X125680Y90990D01*
X125490Y90780D01*
X125440Y90530D01*
X125470Y90280D01*
X125570Y90070D01*
X126110Y89650D01*
X126350Y89360D01*
X126510Y88940D01*
X126560Y88570D01*
X125440D01*
G01X130130Y91070D02*
Y88570D01*
X129070D01*
G01X127900Y91960D02*
Y87460D01*
G01X124400Y91960D02*
X131400D01*
Y87460D01*
X124400D01*
Y91960D01*
G01X3900Y119710D02*
X4400Y120210D01*
X4770Y121050D01*
X5030Y122210D01*
X4770Y123210D01*
X4280Y123880D01*
X3400Y124380D01*
X30D01*
Y114380D01*
X4150D01*
X5030Y115050D01*
X5530Y116050D01*
X5770Y117210D01*
X5530Y118380D01*
X4770Y119380D01*
X3900Y119710D01*
X30D01*
G01X12900Y114380D02*
X11900Y114550D01*
X11030Y115210D01*
X10270Y116210D01*
X9770Y117380D01*
X9520Y118710D01*
Y120050D01*
X9770Y121380D01*
X10270Y122550D01*
X11030Y123550D01*
X11900Y124210D01*
X12900Y124380D01*
X13900Y124210D01*
X14770Y123550D01*
X15530Y122550D01*
X16030Y121380D01*
X16280Y120050D01*
Y118710D01*
X16030Y117380D01*
X15530Y116210D01*
X14770Y115210D01*
X13900Y114550D01*
X12900Y114380D01*
G01X22900Y124380D02*
Y114380D01*
G01X20030Y124380D02*
X25770D01*
G01X32900D02*
Y114380D01*
G01X30030Y124380D02*
X35770D01*
G01X42900Y114380D02*
X41900Y114550D01*
X41030Y115210D01*
X40270Y116210D01*
X39770Y117380D01*
X39520Y118710D01*
Y120050D01*
X39770Y121380D01*
X40270Y122550D01*
X41030Y123550D01*
X41900Y124210D01*
X42900Y124380D01*
X43900Y124210D01*
X44770Y123550D01*
X45530Y122550D01*
X46030Y121380D01*
X46280Y120050D01*
Y118710D01*
X46030Y117380D01*
X45530Y116210D01*
X44770Y115210D01*
X43900Y114550D01*
X42900Y114380D01*
G01X49650D02*
Y124380D01*
X52900Y116050D01*
X56150Y124380D01*
Y114380D01*
G01X-850Y138380D02*
X900Y128380D01*
X2900Y138380D01*
X4900Y128380D01*
X6650Y138380D01*
G01X11400D02*
X14400D01*
G01X12900D02*
Y128380D01*
G01X11400D02*
X14400D01*
G01X20400D02*
Y138380D01*
X23520D01*
X24520Y137880D01*
X25150Y137210D01*
X25400Y135880D01*
X25150Y134550D01*
X24400Y133710D01*
X23520Y133210D01*
X20400D01*
G01X23520D02*
X25400Y128380D01*
G01X35400D02*
X30400D01*
Y138380D01*
X35400D01*
G01X33400Y133550D02*
X30400D01*
G01X40400Y138380D02*
Y128380D01*
X45400D01*
G01X55400D02*
X50400D01*
Y138380D01*
X55400D01*
G01X53400Y133550D02*
X50400D01*
G01X60270Y129710D02*
X61280Y128880D01*
X62400Y128380D01*
X63400D01*
X64400Y128880D01*
X65150Y129710D01*
X65530Y130880D01*
X65280Y132050D01*
X64650Y133050D01*
X63520Y133710D01*
X62030Y134050D01*
X61150Y134710D01*
X60770Y135880D01*
X61030Y137050D01*
X61650Y137880D01*
X62520Y138380D01*
X63400D01*
X64280Y138050D01*
X65030Y137210D01*
G01X70270Y129710D02*
X71280Y128880D01*
X72400Y128380D01*
X73400D01*
X74400Y128880D01*
X75150Y129710D01*
X75530Y130880D01*
X75280Y132050D01*
X74650Y133050D01*
X73520Y133710D01*
X72030Y134050D01*
X71150Y134710D01*
X70770Y135880D01*
X71030Y137050D01*
X71650Y137880D01*
X72520Y138380D01*
X73400D01*
X74280Y138050D01*
X75030Y137210D01*
G01X79150Y125050D02*
X86650D01*
G01X93900Y133710D02*
X94400Y134210D01*
X94770Y135050D01*
X95030Y136210D01*
X94770Y137210D01*
X94280Y137880D01*
X93400Y138380D01*
X90030D01*
Y128380D01*
X94150D01*
X95030Y129050D01*
X95530Y130050D01*
X95770Y131210D01*
X95530Y132380D01*
X94770Y133380D01*
X93900Y133710D01*
X90030D01*
G01X102900Y128380D02*
X101900Y128550D01*
X101030Y129210D01*
X100270Y130210D01*
X99770Y131380D01*
X99520Y132710D01*
Y134050D01*
X99770Y135380D01*
X100270Y136550D01*
X101030Y137550D01*
X101900Y138210D01*
X102900Y138380D01*
X103900Y138210D01*
X104770Y137550D01*
X105530Y136550D01*
X106030Y135380D01*
X106280Y134050D01*
Y132710D01*
X106030Y131380D01*
X105530Y130210D01*
X104770Y129210D01*
X103900Y128550D01*
X102900Y128380D01*
G01X109770D02*
X112900Y138380D01*
X116030Y128380D01*
G01X114900Y131880D02*
X110900D01*
G01X120400Y128380D02*
Y138380D01*
X123520D01*
X124520Y137880D01*
X125150Y137210D01*
X125400Y135880D01*
X125150Y134550D01*
X124400Y133710D01*
X123520Y133210D01*
X120400D01*
G01X123520D02*
X125400Y128380D01*
G01X130150D02*
Y138380D01*
X132650D01*
X133650Y137880D01*
X134400Y137210D01*
X135030Y136210D01*
X135530Y135050D01*
X135650Y133380D01*
X135530Y131710D01*
X135030Y130550D01*
X134400Y129550D01*
X133650Y128880D01*
X132650Y128380D01*
X130150D01*
G01X139150Y125050D02*
X146650D01*
G01X150400Y128380D02*
Y138380D01*
X153520D01*
X154520Y137880D01*
X155150Y137210D01*
X155400Y135880D01*
X155150Y134550D01*
X154400Y133710D01*
X153520Y133210D01*
X150400D01*
G01X153520D02*
X155400Y128380D01*
G01X161030Y132880D02*
X165030D01*
X164650Y134050D01*
X164030Y134710D01*
X163150Y135050D01*
X162280Y134880D01*
X161520Y134380D01*
X161030Y133210D01*
X160770Y132210D01*
Y131210D01*
X161030Y130210D01*
X161650Y129210D01*
X162400Y128550D01*
X163280Y128380D01*
X164150Y128710D01*
X165030Y129710D01*
G01X170650Y135050D02*
X172900Y128380D01*
X175150Y135050D01*
G01X179150Y125050D02*
X186650D01*
G01X193900Y133710D02*
X194400Y134210D01*
X194770Y135050D01*
X195030Y136210D01*
X194770Y137210D01*
X194280Y137880D01*
X193400Y138380D01*
X190030D01*
Y128380D01*
X194150D01*
X195030Y129050D01*
X195530Y130050D01*
X195770Y131210D01*
X195530Y132380D01*
X194770Y133380D01*
X193900Y133710D01*
X190030D01*
G01X-350Y142880D02*
Y152880D01*
X2150D01*
X3150Y152380D01*
X3900Y151710D01*
X4530Y150710D01*
X5030Y149550D01*
X5150Y147880D01*
X5030Y146210D01*
X4530Y145050D01*
X3900Y144050D01*
X3150Y143380D01*
X2150Y142880D01*
X-350D01*
G01X9270D02*
X12400Y152880D01*
X15530Y142880D01*
G01X14400Y146380D02*
X10400D01*
G01X22400Y152880D02*
Y142880D01*
G01X19530Y152880D02*
X25270D01*
G01X34900Y142880D02*
X29900D01*
Y152880D01*
X34900D01*
G01X32900Y148050D02*
X29900D01*
G01X42400Y142550D02*
X42150Y142710D01*
Y143050D01*
X42400Y143210D01*
X42650Y143050D01*
Y142710D01*
X42400Y142550D01*
G01Y147050D02*
X42150Y147210D01*
Y147550D01*
X42400Y147710D01*
X42650Y147550D01*
Y147210D01*
X42400Y147050D01*
G01X62400Y142880D02*
Y152880D01*
X60900Y150880D01*
G01Y142880D02*
X63900D01*
G01X70270Y144050D02*
X71150Y143210D01*
X72150Y142880D01*
X73150Y143210D01*
X74020Y144210D01*
X74650Y145710D01*
X74900Y147210D01*
Y149050D01*
X74650Y150550D01*
X74020Y151880D01*
X73270Y152550D01*
X72400Y152880D01*
X71400Y152550D01*
X70650Y151880D01*
X70150Y150880D01*
X69900Y149550D01*
X70150Y148380D01*
X70780Y147210D01*
X71530Y146550D01*
X72400Y146380D01*
X73400Y146710D01*
X74150Y147550D01*
X74900Y149050D01*
G01X80150Y142550D02*
X84650Y152880D01*
G01X92400D02*
X91400Y152550D01*
X90650Y151710D01*
X90150Y150710D01*
X89770Y149380D01*
X89650Y147880D01*
X89770Y146380D01*
X90150Y145050D01*
X90650Y144050D01*
X91400Y143210D01*
X92400Y142880D01*
X93400Y143210D01*
X94150Y144050D01*
X94650Y145050D01*
X95030Y146380D01*
X95150Y147880D01*
X95030Y149380D01*
X94650Y150710D01*
X94150Y151710D01*
X93400Y152550D01*
X92400Y152880D01*
G01X99650Y144380D02*
X100400Y143550D01*
X101270Y143050D01*
X102400Y142880D01*
X103530Y143210D01*
X104400Y143880D01*
X105030Y145050D01*
X105150Y146380D01*
X104900Y147710D01*
X104270Y148550D01*
X103400Y149210D01*
X102530Y149380D01*
X101650Y149210D01*
X100530Y148550D01*
X100900Y152880D01*
X104270D01*
G01X110150Y142550D02*
X114650Y152880D01*
G01X122400Y142880D02*
Y152880D01*
X120900Y150880D01*
G01Y142880D02*
X123900D01*
G01X129650Y144380D02*
X130400Y143550D01*
X131270Y143050D01*
X132400Y142880D01*
X133530Y143210D01*
X134400Y143880D01*
X135030Y145050D01*
X135150Y146380D01*
X134900Y147710D01*
X134270Y148550D01*
X133400Y149210D01*
X132530Y149380D01*
X131650Y149210D01*
X130530Y148550D01*
X130900Y152880D01*
X134270D01*
G54D19*
X76350Y49600D03*
Y53540D03*
X95250Y33180D03*
Y29240D03*
G54D29*
G01X66530Y8500D02*
X61000D01*
G01X101670Y10500D02*
X101500D01*
X97380Y6380D01*
X50020D01*
X48600Y7800D01*
Y12900D01*
X51500Y15800D01*
Y29340D01*
X52090Y29930D01*
Y30000D01*
X52800Y30710D01*
G01X105000Y11000D02*
Y9500D01*
X100700Y5200D01*
X49400D01*
X47200Y7400D01*
Y13180D01*
X50220Y16200D01*
Y30710D01*
G01X44900Y72000D02*
X48600D01*
X55100Y65500D01*
X90000D01*
X94000Y69500D01*
Y75000D01*
X96000Y77000D01*
X112400D01*
X113500Y78100D01*
Y83680D01*
G01X47500Y69000D02*
X52340Y64160D01*
Y64140D01*
X92640D01*
X95500Y67000D01*
Y74000D01*
X97000Y75500D01*
X116000D01*
X118500Y78000D01*
Y83680D01*
G01X65900Y92210D02*
X61690Y88000D01*
X53990D01*
X52400Y86410D01*
Y76710D01*
X54400Y74710D01*
X59400D01*
X61400Y76710D01*
Y78860D01*
G01X60000Y67500D02*
X88020D01*
X92500Y71980D01*
Y87490D01*
X87780Y92210D01*
X69750D01*
X61400Y83860D01*
G01X83900Y24710D02*
X75870D01*
G01X69400Y38710D02*
X67900Y40210D01*
X65410D01*
G01X71600Y48900D02*
X72620D01*
X74900Y46620D01*
Y42710D01*
G01X65410Y45530D02*
X72100D01*
G01X76400Y49600D02*
X74800D01*
X73500Y50900D01*
G01X82660Y53540D02*
X76400D01*
G01X66400Y78860D02*
X69550Y75710D01*
X84870D01*
G01X65000Y69500D02*
X87510D01*
X91000Y72990D01*
Y86000D01*
X86790Y90210D01*
X72750D01*
X66400Y83860D01*
G01X70000Y71500D02*
X86990D01*
X89000Y73510D01*
Y85500D01*
X85790Y88710D01*
X76250D01*
X71400Y83860D01*
G01X78000Y73500D02*
X86500D01*
X87500Y74500D01*
Y83010D01*
X83300Y87210D01*
X79750D01*
X76400Y83860D01*
G01X89640Y20590D02*
X92780D01*
X93280Y21090D01*
X95200D01*
G01X86400Y44880D02*
X80570D01*
X79400Y43710D01*
Y28600D01*
X80800Y27200D01*
X87400D01*
X88400Y26200D01*
Y24710D01*
G01X107210Y38210D02*
X103710D01*
X101670Y36170D01*
Y10500D01*
G01X105000Y11000D02*
X103000Y13000D01*
X103080Y34230D01*
Y34550D01*
X104180Y35650D01*
X107210D01*
G01X124500Y26210D02*
X128500Y22210D01*
Y8000D01*
G01X123500Y59500D02*
X127000Y56000D01*
Y31500D01*
M02*
