G04 ================== begin FILE IDENTIFICATION RECORD ==================*
G04 Layout Name:  WIRELESS_BOARD_19may15_1310.brd*
G04 Film Name:    soldmask_top*
G04 File Format:  Gerber RS274X*
G04 File Origin:  Cadence Allegro 16.6-P004*
G04 Origin Date:  Tue May 19 13:07:29 2015*
G04 *
G04 Layer:  DRAWING FORMAT/SMT*
G04 Layer:  DRAWING FORMAT/FILM_LABEL_OUTLINE*
G04 Layer:  PIN/SOLDERMASK_TOP*
G04 Layer:  BOARD GEOMETRY/OUTLINE*
G04 *
G04 Offset:    (0.0 0.0)*
G04 Mirror:    No*
G04 Mode:      Positive*
G04 Rotation:  0*
G04 FullContactRelief:  No*
G04 UndefLineWidth:     6.0*
G04 ================== end FILE IDENTIFICATION RECORD ====================*
%FSLAX25Y25*MOIN*%
%IR0*IPPOS*OFA0.00000B0.00000*MIA0B0*SFA1.00000B1.00000*%
%AMMACRO24*
4,1,40,.0063,-.0128,
-.0063,-.0128,
-.007394,-.012704,
-.008455,-.01242,
-.00945,-.011955,
-.01035,-.011325,
-.011127,-.010548,
-.011756,-.009648,
-.01222,-.008653,
-.012504,-.007592,
-.0126,-.0065,
-.0126,.0065,
-.012504,.007594,
-.01222,.008655,
-.011755,.00965,
-.011125,.01055,
-.010348,.011327,
-.009448,.011956,
-.008453,.01242,
-.007392,.012704,
-.0063,.0128,
.0063,.0128,
.007394,.012704,
.008455,.01242,
.00945,.011955,
.01035,.011325,
.011127,.010548,
.011756,.009648,
.01222,.008653,
.012504,.007592,
.0126,.0065,
.0126,-.0065,
.012504,-.007594,
.01222,-.008655,
.011755,-.00965,
.011125,-.01055,
.010348,-.011327,
.009448,-.011956,
.008453,-.01242,
.007392,-.012704,
.0063,-.0128,
0.0*
%
%ADD24MACRO24*%
%AMMACRO23*
4,1,12,-.1398,-.1398,
.1398,-.1398,
.1398,.0236,
.05,.0236,
.05,-.0315,
-.0512,-.0315,
-.0512,.0315,
.0474,.0315,
.0509,.028,
.1398,.028,
.1398,.1398,
-.1398,.1398,
-.1398,-.1398,
0.0*
%
%ADD23MACRO23*%
%ADD19R,.1889X.1889*%
%ADD18R,.02X.035*%
%ADD21C,.0416*%
%ADD28R,.0611X.0454*%
%ADD12O,.0296X.0116*%
%ADD10R,.0512X.0472*%
%ADD25R,.0316X.0237*%
%ADD20O,.0116X.0296*%
%ADD16R,.0552X.0651*%
%ADD11R,.0236X.0276*%
%ADD22R,.0416X.0416*%
%ADD14R,.0276X.0236*%
%ADD13R,.0236X.0295*%
%ADD27R,.0375X.0355*%
%ADD26R,.0256X.0276*%
%ADD17R,.0434X.0394*%
%ADD15R,.0276X.0256*%
%ADD29C,.006*%
G75*
%LPD*%
G75*
G54D10*
X44550Y15950D03*
Y21470D03*
X51250Y15950D03*
Y21470D03*
G54D11*
X35640Y23900D03*
Y19960D03*
X32640Y23900D03*
Y19960D03*
X39410Y19890D03*
Y15950D03*
X40410Y26240D03*
X35640Y39230D03*
Y35290D03*
X40410Y30180D03*
X31840Y53990D03*
Y57930D03*
X35140Y53990D03*
Y57930D03*
X56410Y17530D03*
Y21470D03*
G54D20*
X60700Y33990D03*
X59120D03*
X57540D03*
X55960D03*
X54380D03*
X52800D03*
X51220D03*
X49640D03*
X48060D03*
X46480D03*
X44900D03*
Y57810D03*
X46480D03*
X48060D03*
X49640D03*
X51220D03*
X52800D03*
X54380D03*
X55960D03*
X57540D03*
X59120D03*
X60700D03*
X62280Y33990D03*
Y57810D03*
G54D12*
X41680Y37210D03*
Y38790D03*
Y40370D03*
Y41950D03*
Y43530D03*
Y45110D03*
Y46690D03*
Y48270D03*
Y49850D03*
Y51430D03*
Y53010D03*
Y54590D03*
X65500Y43530D03*
Y41950D03*
Y40370D03*
Y38790D03*
Y37210D03*
Y54590D03*
Y53010D03*
Y51430D03*
Y49850D03*
Y48270D03*
Y46690D03*
Y45110D03*
G54D21*
X56400Y78860D03*
X61400D03*
Y83860D03*
X66400Y78860D03*
X71400D03*
X76400D03*
X66400Y83860D03*
X71400D03*
X76400D03*
X81400Y78860D03*
Y83860D03*
G54D13*
X35640Y32030D03*
Y28290D03*
Y42490D03*
X31840Y49970D03*
Y46230D03*
X35640D03*
G54D22*
X56400Y83860D03*
G54D14*
X32510Y35290D03*
X28570D03*
X51430Y26210D03*
X55370D03*
X70430Y54590D03*
X74370D03*
X80530Y47500D03*
X84470D03*
G54D23*
X85900Y26210D03*
G54D15*
X37030Y75950D03*
X40970D03*
X77460Y92160D03*
X84470Y44050D03*
X80530D03*
X84430Y59660D03*
X88370D03*
X84430Y55660D03*
X88370D03*
X81400Y92160D03*
G54D24*
X76400Y69860D03*
Y66710D03*
G54D16*
X42500Y85500D03*
X109500Y13500D03*
X98500Y88000D03*
X118500Y13500D03*
G54D25*
X88560Y26210D03*
X84240D03*
G54D17*
X62810Y3340D03*
X50990D03*
G54D26*
X88550Y44000D03*
Y47940D03*
X87950Y73470D03*
Y69530D03*
X102950Y44530D03*
Y48470D03*
G54D27*
X81400Y69860D03*
Y64560D03*
G54D18*
X58480Y5300D03*
X55320D03*
G54D28*
X109570Y22470D03*
Y38470D03*
Y29950D03*
Y45950D03*
X109070Y55730D03*
Y63210D03*
X118230Y26210D03*
Y42210D03*
X117730Y59470D03*
G54D19*
X53590Y45900D03*
G54D29*
G01X0Y0D02*
X137800D01*
Y98430D01*
X0D01*
Y0D01*
G01X270Y115710D02*
X1280Y114880D01*
X2400Y114380D01*
X3400D01*
X4400Y114880D01*
X5150Y115710D01*
X5530Y116880D01*
X5280Y118050D01*
X4650Y119050D01*
X3520Y119710D01*
X2030Y120050D01*
X1150Y120710D01*
X770Y121880D01*
X1030Y123050D01*
X1650Y123880D01*
X2520Y124380D01*
X3400D01*
X4280Y124050D01*
X5030Y123210D01*
G01X12900Y114380D02*
X11900Y114550D01*
X11030Y115210D01*
X10270Y116210D01*
X9770Y117380D01*
X9520Y118710D01*
Y120050D01*
X9770Y121380D01*
X10270Y122550D01*
X11030Y123550D01*
X11900Y124210D01*
X12900Y124380D01*
X13900Y124210D01*
X14770Y123550D01*
X15530Y122550D01*
X16030Y121380D01*
X16280Y120050D01*
Y118710D01*
X16030Y117380D01*
X15530Y116210D01*
X14770Y115210D01*
X13900Y114550D01*
X12900Y114380D01*
G01X20400Y124380D02*
Y114380D01*
X25400D01*
G01X30150D02*
Y124380D01*
X32650D01*
X33650Y123880D01*
X34400Y123210D01*
X35030Y122210D01*
X35530Y121050D01*
X35650Y119380D01*
X35530Y117710D01*
X35030Y116550D01*
X34400Y115550D01*
X33650Y114880D01*
X32650Y114380D01*
X30150D01*
G01X39650D02*
Y124380D01*
X42900Y116050D01*
X46150Y124380D01*
Y114380D01*
G01X49770D02*
X52900Y124380D01*
X56030Y114380D01*
G01X54900Y117880D02*
X50900D01*
G01X60270Y115710D02*
X61280Y114880D01*
X62400Y114380D01*
X63400D01*
X64400Y114880D01*
X65150Y115710D01*
X65530Y116880D01*
X65280Y118050D01*
X64650Y119050D01*
X63520Y119710D01*
X62030Y120050D01*
X61150Y120710D01*
X60770Y121880D01*
X61030Y123050D01*
X61650Y123880D01*
X62520Y124380D01*
X63400D01*
X64280Y124050D01*
X65030Y123210D01*
G01X70150Y114380D02*
Y124380D01*
G01X74900D02*
X70150Y118210D01*
G01X75650Y114380D02*
X72280Y121050D01*
G01X79150Y111050D02*
X86650D01*
G01X92900Y124380D02*
Y114380D01*
G01X90030Y124380D02*
X95770D01*
G01X102900Y114380D02*
X101900Y114550D01*
X101030Y115210D01*
X100270Y116210D01*
X99770Y117380D01*
X99520Y118710D01*
Y120050D01*
X99770Y121380D01*
X100270Y122550D01*
X101030Y123550D01*
X101900Y124210D01*
X102900Y124380D01*
X103900Y124210D01*
X104770Y123550D01*
X105530Y122550D01*
X106030Y121380D01*
X106280Y120050D01*
Y118710D01*
X106030Y117380D01*
X105530Y116210D01*
X104770Y115210D01*
X103900Y114550D01*
X102900Y114380D01*
G01X110400D02*
Y124380D01*
X113400D01*
X114400Y123880D01*
X115150Y122710D01*
X115400Y121380D01*
X115150Y120050D01*
X114520Y119050D01*
X113400Y118550D01*
X110400D01*
G01X-850Y138380D02*
X900Y128380D01*
X2900Y138380D01*
X4900Y128380D01*
X6650Y138380D01*
G01X11400D02*
X14400D01*
G01X12900D02*
Y128380D01*
G01X11400D02*
X14400D01*
G01X20400D02*
Y138380D01*
X23520D01*
X24520Y137880D01*
X25150Y137210D01*
X25400Y135880D01*
X25150Y134550D01*
X24400Y133710D01*
X23520Y133210D01*
X20400D01*
G01X23520D02*
X25400Y128380D01*
G01X35400D02*
X30400D01*
Y138380D01*
X35400D01*
G01X33400Y133550D02*
X30400D01*
G01X40400Y138380D02*
Y128380D01*
X45400D01*
G01X55400D02*
X50400D01*
Y138380D01*
X55400D01*
G01X53400Y133550D02*
X50400D01*
G01X60270Y129710D02*
X61280Y128880D01*
X62400Y128380D01*
X63400D01*
X64400Y128880D01*
X65150Y129710D01*
X65530Y130880D01*
X65280Y132050D01*
X64650Y133050D01*
X63520Y133710D01*
X62030Y134050D01*
X61150Y134710D01*
X60770Y135880D01*
X61030Y137050D01*
X61650Y137880D01*
X62520Y138380D01*
X63400D01*
X64280Y138050D01*
X65030Y137210D01*
G01X70270Y129710D02*
X71280Y128880D01*
X72400Y128380D01*
X73400D01*
X74400Y128880D01*
X75150Y129710D01*
X75530Y130880D01*
X75280Y132050D01*
X74650Y133050D01*
X73520Y133710D01*
X72030Y134050D01*
X71150Y134710D01*
X70770Y135880D01*
X71030Y137050D01*
X71650Y137880D01*
X72520Y138380D01*
X73400D01*
X74280Y138050D01*
X75030Y137210D01*
G01X79150Y125050D02*
X86650D01*
G01X93900Y133710D02*
X94400Y134210D01*
X94770Y135050D01*
X95030Y136210D01*
X94770Y137210D01*
X94280Y137880D01*
X93400Y138380D01*
X90030D01*
Y128380D01*
X94150D01*
X95030Y129050D01*
X95530Y130050D01*
X95770Y131210D01*
X95530Y132380D01*
X94770Y133380D01*
X93900Y133710D01*
X90030D01*
G01X102900Y128380D02*
X101900Y128550D01*
X101030Y129210D01*
X100270Y130210D01*
X99770Y131380D01*
X99520Y132710D01*
Y134050D01*
X99770Y135380D01*
X100270Y136550D01*
X101030Y137550D01*
X101900Y138210D01*
X102900Y138380D01*
X103900Y138210D01*
X104770Y137550D01*
X105530Y136550D01*
X106030Y135380D01*
X106280Y134050D01*
Y132710D01*
X106030Y131380D01*
X105530Y130210D01*
X104770Y129210D01*
X103900Y128550D01*
X102900Y128380D01*
G01X109770D02*
X112900Y138380D01*
X116030Y128380D01*
G01X114900Y131880D02*
X110900D01*
G01X120400Y128380D02*
Y138380D01*
X123520D01*
X124520Y137880D01*
X125150Y137210D01*
X125400Y135880D01*
X125150Y134550D01*
X124400Y133710D01*
X123520Y133210D01*
X120400D01*
G01X123520D02*
X125400Y128380D01*
G01X130150D02*
Y138380D01*
X132650D01*
X133650Y137880D01*
X134400Y137210D01*
X135030Y136210D01*
X135530Y135050D01*
X135650Y133380D01*
X135530Y131710D01*
X135030Y130550D01*
X134400Y129550D01*
X133650Y128880D01*
X132650Y128380D01*
X130150D01*
G01X139150Y125050D02*
X146650D01*
G01X150400Y128380D02*
Y138380D01*
X153520D01*
X154520Y137880D01*
X155150Y137210D01*
X155400Y135880D01*
X155150Y134550D01*
X154400Y133710D01*
X153520Y133210D01*
X150400D01*
G01X153520D02*
X155400Y128380D01*
G01X161030Y132880D02*
X165030D01*
X164650Y134050D01*
X164030Y134710D01*
X163150Y135050D01*
X162280Y134880D01*
X161520Y134380D01*
X161030Y133210D01*
X160770Y132210D01*
Y131210D01*
X161030Y130210D01*
X161650Y129210D01*
X162400Y128550D01*
X163280Y128380D01*
X164150Y128710D01*
X165030Y129710D01*
G01X170650Y135050D02*
X172900Y128380D01*
X175150Y135050D01*
G01X179150Y125050D02*
X186650D01*
G01X193900Y133710D02*
X194400Y134210D01*
X194770Y135050D01*
X195030Y136210D01*
X194770Y137210D01*
X194280Y137880D01*
X193400Y138380D01*
X190030D01*
Y128380D01*
X194150D01*
X195030Y129050D01*
X195530Y130050D01*
X195770Y131210D01*
X195530Y132380D01*
X194770Y133380D01*
X193900Y133710D01*
X190030D01*
G01X-350Y142880D02*
Y152880D01*
X2150D01*
X3150Y152380D01*
X3900Y151710D01*
X4530Y150710D01*
X5030Y149550D01*
X5150Y147880D01*
X5030Y146210D01*
X4530Y145050D01*
X3900Y144050D01*
X3150Y143380D01*
X2150Y142880D01*
X-350D01*
G01X9270D02*
X12400Y152880D01*
X15530Y142880D01*
G01X14400Y146380D02*
X10400D01*
G01X22400Y152880D02*
Y142880D01*
G01X19530Y152880D02*
X25270D01*
G01X34900Y142880D02*
X29900D01*
Y152880D01*
X34900D01*
G01X32900Y148050D02*
X29900D01*
G01X42400Y142550D02*
X42150Y142710D01*
Y143050D01*
X42400Y143210D01*
X42650Y143050D01*
Y142710D01*
X42400Y142550D01*
G01Y147050D02*
X42150Y147210D01*
Y147550D01*
X42400Y147710D01*
X42650Y147550D01*
Y147210D01*
X42400Y147050D01*
G01X62400Y142880D02*
Y152880D01*
X60900Y150880D01*
G01Y142880D02*
X63900D01*
G01X70270Y144050D02*
X71150Y143210D01*
X72150Y142880D01*
X73150Y143210D01*
X74020Y144210D01*
X74650Y145710D01*
X74900Y147210D01*
Y149050D01*
X74650Y150550D01*
X74020Y151880D01*
X73270Y152550D01*
X72400Y152880D01*
X71400Y152550D01*
X70650Y151880D01*
X70150Y150880D01*
X69900Y149550D01*
X70150Y148380D01*
X70780Y147210D01*
X71530Y146550D01*
X72400Y146380D01*
X73400Y146710D01*
X74150Y147550D01*
X74900Y149050D01*
G01X80150Y142550D02*
X84650Y152880D01*
G01X92400D02*
X91400Y152550D01*
X90650Y151710D01*
X90150Y150710D01*
X89770Y149380D01*
X89650Y147880D01*
X89770Y146380D01*
X90150Y145050D01*
X90650Y144050D01*
X91400Y143210D01*
X92400Y142880D01*
X93400Y143210D01*
X94150Y144050D01*
X94650Y145050D01*
X95030Y146380D01*
X95150Y147880D01*
X95030Y149380D01*
X94650Y150710D01*
X94150Y151710D01*
X93400Y152550D01*
X92400Y152880D01*
G01X99650Y144380D02*
X100400Y143550D01*
X101270Y143050D01*
X102400Y142880D01*
X103530Y143210D01*
X104400Y143880D01*
X105030Y145050D01*
X105150Y146380D01*
X104900Y147710D01*
X104270Y148550D01*
X103400Y149210D01*
X102530Y149380D01*
X101650Y149210D01*
X100530Y148550D01*
X100900Y152880D01*
X104270D01*
G01X110150Y142550D02*
X114650Y152880D01*
G01X122400Y142880D02*
Y152880D01*
X120900Y150880D01*
G01Y142880D02*
X123900D01*
G01X129650Y144380D02*
X130400Y143550D01*
X131270Y143050D01*
X132400Y142880D01*
X133530Y143210D01*
X134400Y143880D01*
X135030Y145050D01*
X135150Y146380D01*
X134900Y147710D01*
X134270Y148550D01*
X133400Y149210D01*
X132530Y149380D01*
X131650Y149210D01*
X130530Y148550D01*
X130900Y152880D01*
X134270D01*
M02*
