M48
INCH,LZ
T01C.0079
T02C.0118
T03C.0256
;LEADER: 12 
;HEADER: 
;CODE  : ASCII 
;FILE  : WIRELESS_BOARD_19may15_1310-1-2.drl for  ... layers TOP and BOTTOM
;T01 Holesize 1. = 7.900000 Tolerance = +3.000000/-3.000000 PLATED MILS Quantity = 133
;T02 Holesize 2. = 11.800000 Tolerance = +3.000000/-3.000000 PLATED MILS Quantity = 16
;T03 Holesize 3. = 25.600000 Tolerance = +3.000000/-3.000000 PLATED MILS Quantity = 12
%
G90
T01
X00915Y0044
X00839Y002471
X00884
X005022Y003071
X0105Y0011
X00528Y003071
X010167Y00105
X0078Y00735
X007Y00715
X0065Y00695
X006Y00675
X008487Y007571
X00659Y009221
X01245Y002621
X01285Y0008
X0061Y00085
X01235Y00595
X0127Y00315
X00735Y00509
X00749Y004271
X00716Y00489
X00975Y0043
X00475Y0069
X00385Y00388
X00449Y0072
X00694Y003871
X009257Y004794
X0095Y00582
X01185Y0075
X00704Y005951
X00682Y00142
X00834Y000971
X00655Y00335
X00775Y00565
X00745Y006225
X00434Y002624
X00539Y001221
X003264Y001607
X003564
X002804Y003896
X002828Y003155
Y004355
Y004755
R02Y0004
Y001585
Y002015
Y006355
Y006755
Y007955
R02Y-0004
X002834Y008463
R02Y0004
X00554Y003021
X0061Y00155
X00284Y009521
X002828Y005971
X00324Y009521
R08X0004
X01144
R07X-0004
X01184
R04X0004
Y009121
R22Y-0004
X002828Y001185
R02Y-0004
X003228
X003628
X01304Y000321
R14X-0004
X00704Y009521
R03X0004
X0067Y00622
X01246Y00427
X0125Y00345
Y002
X00965Y00475
T02
X005599Y00482
X006069
Y00529
X005599
X006069Y00388
X005599
Y00435
X006069
X004659Y00482
X005129
Y00529
X004659
Y00388
X005129
X004659Y00435
X005129
T03
X00564Y008386
Y007886
X00614Y008386
Y007886
X00664Y008386
Y007886
X00714Y008386
Y007886
X00764Y008386
Y007886
X00814Y008386
Y007886
M30
