G04 ================== begin FILE IDENTIFICATION RECORD ==================*
G04 Layout Name:  POWER_BOARD_03AUG15_2330.brd*
G04 Film Name:    ASB*
G04 File Format:  Gerber RS274X*
G04 File Origin:  Cadence Allegro 16.6-P004*
G04 Origin Date:  Mon Aug 03 23:32:27 2015*
G04 *
G04 Layer:  BOARD GEOMETRY/ASSEMBLY_DETAIL*
G04 Layer:  DRAWING FORMAT/ASS_BTM*
G04 Layer:  REF DES/ASSEMBLY_BOTTOM*
G04 Layer:  PIN/BOTTOM*
G04 Layer:  PACKAGE GEOMETRY/ASSEMBLY_BOTTOM*
G04 Layer:  DRAWING FORMAT/FILM_LABEL_OUTLINE*
G04 Layer:  BOARD GEOMETRY/OUTLINE*
G04 *
G04 Offset:    (0.00 0.00)*
G04 Mirror:    No*
G04 Mode:      Positive*
G04 Rotation:  0*
G04 FullContactRelief:  No*
G04 UndefLineWidth:     1.00*
G04 ================== end FILE IDENTIFICATION RECORD ====================*
%FSLAX25Y25*MOIN*%
%IR0*IPPOS*OFA0.00000B0.00000*MIA0B0*SFA1.00000B1.00000*%
%ADD12C,.06*%
%ADD33C,.07*%
%ADD23C,.0615*%
%ADD10C,.0435*%
%ADD18R,.06X.06*%
%ADD32R,.07X.07*%
%ADD15C,.05362*%
%ADD36R,.21063X.04528*%
%ADD26R,.0615X.0615*%
%ADD20R,.0435X.0435*%
%ADD34R,.10827X.04921*%
%ADD16R,.05362X.05362*%
%ADD24C,.03759*%
%ADD21R,.05118X.14567*%
%ADD30C,.04984*%
%ADD25R,.03759X.03759*%
%ADD29R,.04984X.04984*%
%ADD28R,.05795X.05795*%
%ADD42R,.05X.04*%
%ADD37R,.05X.06*%
%ADD39R,.05X.067*%
%ADD11R,.11024X.18504*%
%ADD40R,.0236X.0217*%
%ADD13C,.24409*%
%ADD19R,.40551X.35039*%
%ADD17R,.04331X.05709*%
%ADD22R,.05512X.09843*%
%ADD31R,.07677X.05512*%
%ADD41R,.06299X.03543*%
%ADD38R,.06614X.05984*%
%ADD14R,.09449X.05906*%
%ADD27R,.05906X.09449*%
%ADD35R,.06378X.08583*%
%ADD43C,.001*%
%ADD44C,.006*%
%ADD45C,.008*%
%ADD46C,.00591*%
G75*
%LPD*%
G75*
G54D10*
X-18185Y-147500D03*
G54D11*
X-12417Y-41500D03*
X10417D03*
G54D20*
X21185Y-147500D03*
G54D30*
X51500Y65834D03*
X67500Y85520D03*
G54D21*
X38500Y-94942D03*
X58500D03*
G54D12*
X-15500Y41760D03*
Y71760D03*
Y61760D03*
Y51760D03*
Y81760D03*
X-5500Y71760D03*
Y61760D03*
Y51760D03*
Y81760D03*
G54D31*
X78390Y73000D03*
Y83000D03*
X114610D03*
Y73000D03*
G54D22*
X36764Y-71717D03*
Y-36283D03*
X57236Y-71717D03*
Y-36283D03*
G54D13*
X8298Y-96270D03*
Y-65739D03*
X45898Y-8870D03*
Y21661D03*
X83498Y-96270D03*
Y-65739D03*
G54D40*
X118174Y-122365D03*
X122110D03*
G54D14*
X11500Y-17402D03*
Y7402D03*
G54D41*
X121500Y49201D03*
Y61799D03*
G54D32*
X88500Y-142276D03*
G54D23*
X30236Y-70217D03*
G54D42*
X123500Y74000D03*
Y82000D03*
G54D24*
X48398Y76760D03*
Y81760D03*
X43398Y76760D03*
Y81760D03*
X38398Y76760D03*
Y81760D03*
X33398Y76760D03*
X58398D03*
Y81760D03*
X53398Y76760D03*
Y81760D03*
G54D15*
X-6500Y-17843D03*
X35390Y53000D03*
X100000Y-40343D03*
X107675Y-1175D03*
X97675D03*
X87675Y40175D03*
X97675D03*
X107675D03*
X117675Y-1175D03*
Y40175D03*
G54D33*
X108559Y-142276D03*
G54D43*
G01X91083Y6220D02*
Y33780D01*
X113917D01*
Y6220D01*
X91083D01*
G01X-23000Y89500D02*
X127098D01*
Y-158500D01*
X-23000D01*
Y89500D01*
G01X22440Y-96270D02*
G03I-14142J0D01*
G01X-3264Y-19764D02*
Y9764D01*
X26264D01*
Y-19764D01*
X-3264D01*
G01X10768Y45256D02*
X19232D01*
Y39744D01*
X10768D01*
Y45256D01*
G01X60040Y-8870D02*
G03I-14142J0D01*
G01X97640Y-96270D02*
G03I-14142J0D01*
G01X65736Y-19736D02*
X95264D01*
Y-49264D01*
X65736D01*
Y-19736D01*
G01X54650Y61109D02*
Y50873D01*
X48350D01*
Y61109D01*
X54650D01*
G01X76220Y49685D02*
Y53819D01*
X77992D01*
X76220Y56181D01*
X74449Y53819D01*
X76220D01*
G01X77992Y56181D02*
X74449D01*
G01X76220D02*
Y58543D01*
G01X70650Y80795D02*
Y70559D01*
X64350D01*
Y80795D01*
X70650D01*
G01X106445Y-5224D02*
X124555D01*
Y-20776D01*
X106445D01*
Y-5224D01*
G01X109869Y59476D02*
X101209D01*
Y64996D01*
X109869D01*
Y59476D01*
G01X90071Y63555D02*
Y45445D01*
X78929D01*
Y63555D01*
X90071D01*
G01X112091Y67961D02*
X80909D01*
Y88039D01*
X109591D01*
X112091Y85539D01*
Y67961D01*
G01X93579Y54900D02*
Y45700D01*
X112979D01*
Y54900D01*
X93579D01*
G01X122142Y-123315D02*
X118142D01*
Y-121315D01*
X122142D01*
Y-123315D01*
G01X117071Y46543D02*
Y64457D01*
X125929D01*
Y46543D01*
X117071D01*
G01X126260Y82330D02*
Y73670D01*
X120740D01*
Y82330D01*
X126260D01*
G54D25*
X33398Y81760D03*
G54D16*
X-6500Y1842D03*
X21610Y53000D03*
X100000Y-20658D03*
X87675Y-1175D03*
G54D34*
X85500Y-121094D03*
Y-132906D03*
G54D44*
G01X-26375Y101500D02*
X-23250Y111500D01*
X-20125Y101500D01*
G01X-21250Y105000D02*
X-25250D01*
G01X-15875Y102833D02*
X-14875Y102000D01*
X-13750Y101500D01*
X-12750D01*
X-11750Y102000D01*
X-11000Y102833D01*
X-10625Y104000D01*
X-10875Y105166D01*
X-11500Y106167D01*
X-12625Y106833D01*
X-14125Y107167D01*
X-15000Y107833D01*
X-15375Y109000D01*
X-15125Y110167D01*
X-14500Y111000D01*
X-13625Y111500D01*
X-12750D01*
X-11875Y111167D01*
X-11125Y110333D01*
G01X-5875Y102833D02*
X-4875Y102000D01*
X-3750Y101500D01*
X-2750D01*
X-1750Y102000D01*
X-1000Y102833D01*
X-625Y104000D01*
X-875Y105166D01*
X-1500Y106167D01*
X-2625Y106833D01*
X-4125Y107167D01*
X-5000Y107833D01*
X-5375Y109000D01*
X-5125Y110167D01*
X-4500Y111000D01*
X-3625Y111500D01*
X-2750D01*
X-1875Y111167D01*
X-1125Y110333D01*
G01X9250Y101500D02*
X4250D01*
Y111500D01*
X9250D01*
G01X7250Y106667D02*
X4250D01*
G01X13500Y101500D02*
Y111500D01*
X16750Y103167D01*
X20000Y111500D01*
Y101500D01*
G01X27750Y106833D02*
X28250Y107333D01*
X28625Y108166D01*
X28875Y109333D01*
X28625Y110333D01*
X28125Y111000D01*
X27250Y111500D01*
X23875D01*
Y101500D01*
X28000D01*
X28875Y102167D01*
X29375Y103167D01*
X29625Y104333D01*
X29375Y105500D01*
X28625Y106500D01*
X27750Y106833D01*
X23875D01*
G01X34250Y111500D02*
Y101500D01*
X39250D01*
G01X46750D02*
Y106000D01*
X44250Y111500D01*
G01X49250D02*
X46750Y106000D01*
G01X67750Y106833D02*
X68250Y107333D01*
X68625Y108166D01*
X68875Y109333D01*
X68625Y110333D01*
X68125Y111000D01*
X67250Y111500D01*
X63875D01*
Y101500D01*
X68000D01*
X68875Y102167D01*
X69375Y103167D01*
X69625Y104333D01*
X69375Y105500D01*
X68625Y106500D01*
X67750Y106833D01*
X63875D01*
G01X76750Y101500D02*
X75750Y101667D01*
X74875Y102333D01*
X74125Y103333D01*
X73625Y104500D01*
X73375Y105833D01*
Y107167D01*
X73625Y108500D01*
X74125Y109667D01*
X74875Y110667D01*
X75750Y111333D01*
X76750Y111500D01*
X77750Y111333D01*
X78625Y110667D01*
X79375Y109667D01*
X79875Y108500D01*
X80125Y107167D01*
Y105833D01*
X79875Y104500D01*
X79375Y103333D01*
X78625Y102333D01*
X77750Y101667D01*
X76750Y101500D01*
G01X86750Y111500D02*
Y101500D01*
G01X83875Y111500D02*
X89625D01*
G01X96750D02*
Y101500D01*
G01X93875Y111500D02*
X99625D01*
G01X106750Y101500D02*
X105750Y101667D01*
X104875Y102333D01*
X104125Y103333D01*
X103625Y104500D01*
X103375Y105833D01*
Y107167D01*
X103625Y108500D01*
X104125Y109667D01*
X104875Y110667D01*
X105750Y111333D01*
X106750Y111500D01*
X107750Y111333D01*
X108625Y110667D01*
X109375Y109667D01*
X109875Y108500D01*
X110125Y107167D01*
Y105833D01*
X109875Y104500D01*
X109375Y103333D01*
X108625Y102333D01*
X107750Y101667D01*
X106750Y101500D01*
G01X113500D02*
Y111500D01*
X116750Y103167D01*
X120000Y111500D01*
Y101500D01*
G01X-24500Y119500D02*
Y129500D01*
X-22000D01*
X-21000Y129000D01*
X-20250Y128333D01*
X-19625Y127333D01*
X-19125Y126166D01*
X-19000Y124500D01*
X-19125Y122833D01*
X-19625Y121667D01*
X-20250Y120666D01*
X-21000Y120000D01*
X-22000Y119500D01*
X-24500D01*
G01X-14875D02*
X-11750Y129500D01*
X-8625Y119500D01*
G01X-9750Y123000D02*
X-13750D01*
G01X-1750Y129500D02*
Y119500D01*
G01X-4625Y129500D02*
X1125D01*
G01X10750Y119500D02*
X5750D01*
Y129500D01*
X10750D01*
G01X8750Y124667D02*
X5750D01*
G01X18250Y119167D02*
X18000Y119333D01*
Y119667D01*
X18250Y119833D01*
X18500Y119667D01*
Y119333D01*
X18250Y119167D01*
G01Y123666D02*
X18000Y123833D01*
Y124167D01*
X18250Y124333D01*
X18500Y124167D01*
Y123833D01*
X18250Y123666D01*
G01X38250Y129500D02*
X37250Y129167D01*
X36500Y128333D01*
X36000Y127333D01*
X35625Y126000D01*
X35500Y124500D01*
X35625Y123000D01*
X36000Y121667D01*
X36500Y120666D01*
X37250Y119833D01*
X38250Y119500D01*
X39250Y119833D01*
X40000Y120666D01*
X40500Y121667D01*
X40875Y123000D01*
X41000Y124500D01*
X40875Y126000D01*
X40500Y127333D01*
X40000Y128333D01*
X39250Y129167D01*
X38250Y129500D01*
G01X45500Y121500D02*
X46250Y120333D01*
X47250Y119667D01*
X48375Y119500D01*
X49375Y119667D01*
X50375Y120500D01*
X51000Y121500D01*
X51125Y122500D01*
X50875Y123666D01*
X50000Y124500D01*
X49125Y124833D01*
X48000D01*
G01X49125D02*
X49875Y125333D01*
X50500Y126166D01*
X50750Y127167D01*
X50500Y128167D01*
X49875Y129000D01*
X48750Y129500D01*
X47625Y129333D01*
X46500Y128667D01*
G01X56000Y119167D02*
X60500Y129500D01*
G01X68250D02*
X67250Y129167D01*
X66500Y128333D01*
X66000Y127333D01*
X65625Y126000D01*
X65500Y124500D01*
X65625Y123000D01*
X66000Y121667D01*
X66500Y120666D01*
X67250Y119833D01*
X68250Y119500D01*
X69250Y119833D01*
X70000Y120666D01*
X70500Y121667D01*
X70875Y123000D01*
X71000Y124500D01*
X70875Y126000D01*
X70500Y127333D01*
X70000Y128333D01*
X69250Y129167D01*
X68250Y129500D01*
G01X78250Y119500D02*
X79125Y119667D01*
X80125Y120167D01*
X80750Y121000D01*
X81000Y122167D01*
X80750Y123333D01*
X80000Y124333D01*
X78875Y124833D01*
X77625D01*
X76875Y125167D01*
X76250Y126000D01*
X76000Y127167D01*
X76375Y128333D01*
X77250Y129167D01*
X78250Y129500D01*
X79250Y129167D01*
X80125Y128333D01*
X80500Y127167D01*
X80250Y126000D01*
X79625Y125167D01*
X78875Y124833D01*
X77625D01*
X76500Y124333D01*
X75750Y123333D01*
X75500Y122167D01*
X75750Y121000D01*
X76375Y120167D01*
X77375Y119667D01*
X78250Y119500D01*
G01X86000Y119167D02*
X90500Y129500D01*
G01X95875Y127833D02*
X96625Y128833D01*
X97500Y129333D01*
X98500Y129500D01*
X99750Y129167D01*
X100625Y128333D01*
X100875Y127333D01*
X100750Y126333D01*
X100250Y125500D01*
X97750Y123833D01*
X96625Y122667D01*
X95875Y121000D01*
X95625Y119500D01*
X100875D01*
G01X108250Y129500D02*
X107250Y129167D01*
X106500Y128333D01*
X106000Y127333D01*
X105625Y126000D01*
X105500Y124500D01*
X105625Y123000D01*
X106000Y121667D01*
X106500Y120666D01*
X107250Y119833D01*
X108250Y119500D01*
X109250Y119833D01*
X110000Y120666D01*
X110500Y121667D01*
X110875Y123000D01*
X111000Y124500D01*
X110875Y126000D01*
X110500Y127333D01*
X110000Y128333D01*
X109250Y129167D01*
X108250Y129500D01*
G01X118250Y119500D02*
Y129500D01*
X116750Y127500D01*
G01Y119500D02*
X119750D01*
G01X125500Y121000D02*
X126250Y120167D01*
X127125Y119667D01*
X128250Y119500D01*
X129375Y119833D01*
X130250Y120500D01*
X130875Y121667D01*
X131000Y123000D01*
X130750Y124333D01*
X130125Y125167D01*
X129250Y125833D01*
X128375Y126000D01*
X127500Y125833D01*
X126375Y125167D01*
X126750Y129500D01*
X130125D01*
G01X-23900Y140191D02*
Y150191D01*
X-20900D01*
X-19900Y149691D01*
X-19150Y148524D01*
X-18900Y147191D01*
X-19150Y145858D01*
X-19775Y144858D01*
X-20900Y144357D01*
X-23900D01*
G01X-11400Y140191D02*
X-12400Y140358D01*
X-13275Y141024D01*
X-14025Y142024D01*
X-14525Y143191D01*
X-14775Y144524D01*
Y145858D01*
X-14525Y147191D01*
X-14025Y148358D01*
X-13275Y149358D01*
X-12400Y150024D01*
X-11400Y150191D01*
X-10400Y150024D01*
X-9525Y149358D01*
X-8775Y148358D01*
X-8275Y147191D01*
X-8025Y145858D01*
Y144524D01*
X-8275Y143191D01*
X-8775Y142024D01*
X-9525Y141024D01*
X-10400Y140358D01*
X-11400Y140191D01*
G01X-5150Y150191D02*
X-3400Y140191D01*
X-1400Y150191D01*
X600Y140191D01*
X2350Y150191D01*
G01X11100Y140191D02*
X6100D01*
Y150191D01*
X11100D01*
G01X9100Y145358D02*
X6100D01*
G01X16100Y140191D02*
Y150191D01*
X19225D01*
X20225Y149691D01*
X20850Y149024D01*
X21100Y147691D01*
X20850Y146358D01*
X20100Y145524D01*
X19225Y145024D01*
X16100D01*
G01X19225D02*
X21100Y140191D01*
G01X39600Y145524D02*
X40100Y146024D01*
X40475Y146857D01*
X40725Y148024D01*
X40475Y149024D01*
X39975Y149691D01*
X39100Y150191D01*
X35725D01*
Y140191D01*
X39850D01*
X40725Y140858D01*
X41225Y141858D01*
X41475Y143024D01*
X41225Y144191D01*
X40475Y145191D01*
X39600Y145524D01*
X35725D01*
G01X48600Y140191D02*
X47600Y140358D01*
X46725Y141024D01*
X45975Y142024D01*
X45475Y143191D01*
X45225Y144524D01*
Y145858D01*
X45475Y147191D01*
X45975Y148358D01*
X46725Y149358D01*
X47600Y150024D01*
X48600Y150191D01*
X49600Y150024D01*
X50475Y149358D01*
X51225Y148358D01*
X51725Y147191D01*
X51975Y145858D01*
Y144524D01*
X51725Y143191D01*
X51225Y142024D01*
X50475Y141024D01*
X49600Y140358D01*
X48600Y140191D01*
G01X55475D02*
X58600Y150191D01*
X61725Y140191D01*
G01X60600Y143691D02*
X56600D01*
G01X66100Y140191D02*
Y150191D01*
X69225D01*
X70225Y149691D01*
X70850Y149024D01*
X71100Y147691D01*
X70850Y146358D01*
X70100Y145524D01*
X69225Y145024D01*
X66100D01*
G01X69225D02*
X71100Y140191D01*
G01X75850D02*
Y150191D01*
X78350D01*
X79350Y149691D01*
X80100Y149024D01*
X80725Y148024D01*
X81225Y146857D01*
X81350Y145191D01*
X81225Y143524D01*
X80725Y142358D01*
X80100Y141357D01*
X79350Y140691D01*
X78350Y140191D01*
X75850D01*
G01X-7213Y-98000D02*
Y-99792D01*
X-7320Y-100167D01*
X-7533Y-100417D01*
X-7800Y-100500D01*
X-8067Y-100417D01*
X-8280Y-100167D01*
X-8387Y-99792D01*
Y-98000D01*
G01X-9547Y-100208D02*
X-9733Y-100417D01*
X-9947Y-100500D01*
X-10160Y-100417D01*
X-10347Y-100167D01*
X-10480Y-99792D01*
X-10533Y-99417D01*
Y-98958D01*
X-10480Y-98583D01*
X-10347Y-98250D01*
X-10187Y-98083D01*
X-10000Y-98000D01*
X-9787Y-98083D01*
X-9627Y-98250D01*
X-9520Y-98500D01*
X-9467Y-98833D01*
X-9520Y-99125D01*
X-9653Y-99417D01*
X-9813Y-99583D01*
X-10000Y-99625D01*
X-10213Y-99542D01*
X-10373Y-99333D01*
X-10533Y-98958D01*
G01X1233Y-42334D02*
Y-39834D01*
X567D01*
X353Y-39959D01*
X220Y-40126D01*
X167Y-40459D01*
X220Y-40792D01*
X380Y-41001D01*
X567Y-41126D01*
X1233D01*
G01X567D02*
X167Y-42334D01*
G01X-1820D02*
Y-39834D01*
X-833Y-41626D01*
X-2167D01*
G01X-3700Y-42334D02*
Y-39834D01*
X-3380Y-40334D01*
G01Y-42334D02*
X-4020D01*
G01X13233Y-3500D02*
Y-6000D01*
X12167D01*
G01X10500D02*
Y-3500D01*
X10820Y-4000D01*
G01Y-6000D02*
X10180D01*
G01X16633Y49666D02*
Y47166D01*
X15567D01*
G01X14487Y47666D02*
X14327Y47374D01*
X14113Y47208D01*
X13873Y47166D01*
X13660Y47208D01*
X13447Y47416D01*
X13313Y47666D01*
X13287Y47916D01*
X13340Y48208D01*
X13527Y48416D01*
X13713Y48499D01*
X13953D01*
G01X13713D02*
X13553Y48624D01*
X13420Y48833D01*
X13367Y49083D01*
X13420Y49333D01*
X13553Y49541D01*
X13793Y49666D01*
X14033Y49624D01*
X14273Y49458D01*
G01X25867Y-132500D02*
X25200Y-130000D01*
X24533Y-132500D01*
G01X24773Y-131625D02*
X25627D01*
G01X23507Y-130417D02*
X23347Y-130167D01*
X23160Y-130042D01*
X22947Y-130000D01*
X22680Y-130083D01*
X22493Y-130292D01*
X22440Y-130542D01*
X22467Y-130792D01*
X22573Y-131000D01*
X23107Y-131417D01*
X23347Y-131708D01*
X23507Y-132125D01*
X23560Y-132500D01*
X22440D01*
G01X49700Y-112000D02*
X49913Y-111958D01*
X50100Y-111792D01*
X50260Y-111542D01*
X50367Y-111250D01*
X50420Y-110917D01*
Y-110583D01*
X50367Y-110250D01*
X50260Y-109958D01*
X50100Y-109708D01*
X49913Y-109542D01*
X49700Y-109500D01*
X49487Y-109542D01*
X49300Y-109708D01*
X49140Y-109958D01*
X49033Y-110250D01*
X48980Y-110583D01*
Y-110917D01*
X49033Y-111250D01*
X49140Y-111542D01*
X49300Y-111792D01*
X49487Y-111958D01*
X49700Y-112000D01*
G01X49487Y-111333D02*
X49167Y-112000D01*
G01X48087Y-111500D02*
X47927Y-111792D01*
X47713Y-111958D01*
X47473Y-112000D01*
X47260Y-111958D01*
X47047Y-111750D01*
X46913Y-111500D01*
X46887Y-111250D01*
X46940Y-110958D01*
X47127Y-110750D01*
X47313Y-110667D01*
X47553D01*
G01X47313D02*
X47153Y-110542D01*
X47020Y-110333D01*
X46967Y-110083D01*
X47020Y-109833D01*
X47153Y-109625D01*
X47393Y-109500D01*
X47633Y-109542D01*
X47873Y-109708D01*
G01X32867Y-93000D02*
X32200Y-90500D01*
X31533Y-93000D01*
G01X31773Y-92125D02*
X32627D01*
G01X30000Y-93000D02*
Y-90500D01*
X30320Y-91000D01*
G01Y-93000D02*
X29680D01*
G01X38150Y-68200D02*
X37883Y-67366D01*
X37617D01*
X37083Y-69033D01*
X36817D01*
X36550Y-68200D01*
G01X48787Y-54500D02*
Y-52000D01*
X48253D01*
X48040Y-52125D01*
X47880Y-52292D01*
X47747Y-52542D01*
X47640Y-52833D01*
X47613Y-53250D01*
X47640Y-53667D01*
X47747Y-53958D01*
X47880Y-54208D01*
X48040Y-54375D01*
X48253Y-54500D01*
X48787D01*
G01X46000D02*
Y-52000D01*
X46320Y-52500D01*
G01Y-54500D02*
X45680D01*
G01X37143Y-39700D02*
X36503D01*
G01X36850Y-39158D02*
Y-40241D01*
G01X38287Y7500D02*
Y5708D01*
X38180Y5333D01*
X37967Y5083D01*
X37700Y5000D01*
X37433Y5083D01*
X37220Y5333D01*
X37113Y5708D01*
Y7500D01*
G01X35553Y5000D02*
X35500Y5542D01*
X35420Y6000D01*
X35313Y6417D01*
X35180Y6875D01*
X34967Y7500D01*
X36033D01*
G01X65540Y-90250D02*
X65007D01*
Y-91000D01*
X65167Y-91250D01*
X65353Y-91417D01*
X65620Y-91500D01*
X65887Y-91417D01*
X66073Y-91250D01*
X66233Y-91000D01*
X66340Y-90708D01*
X66393Y-90375D01*
Y-90083D01*
X66340Y-89833D01*
X66233Y-89542D01*
X66073Y-89292D01*
X65913Y-89125D01*
X65700Y-89000D01*
X65513D01*
X65300Y-89083D01*
X65140Y-89250D01*
G01X58150Y-67700D02*
X57883Y-66866D01*
X57617D01*
X57083Y-68533D01*
X56817D01*
X56550Y-67700D01*
G01X58197Y-39700D02*
X57503D01*
G01X50500Y53258D02*
X53000D01*
Y53924D01*
X52875Y54138D01*
X52708Y54271D01*
X52375Y54324D01*
X52042Y54271D01*
X51833Y54111D01*
X51708Y53924D01*
Y53258D01*
G01Y53924D02*
X50500Y54324D01*
G01X52583Y55484D02*
X52833Y55644D01*
X52958Y55831D01*
X53000Y56044D01*
X52917Y56311D01*
X52708Y56498D01*
X52458Y56551D01*
X52208Y56524D01*
X52000Y56418D01*
X51583Y55884D01*
X51292Y55644D01*
X50875Y55484D01*
X50500Y55431D01*
Y56551D01*
G01Y58511D02*
X53000D01*
X51208Y57524D01*
Y58858D01*
G01X73787Y71000D02*
X73627Y70708D01*
X73413Y70542D01*
X73173Y70500D01*
X72960Y70542D01*
X72747Y70750D01*
X72613Y71000D01*
X72587Y71250D01*
X72640Y71542D01*
X72827Y71750D01*
X73013Y71833D01*
X73253D01*
G01X73013D02*
X72853Y71958D01*
X72720Y72167D01*
X72667Y72417D01*
X72720Y72667D01*
X72853Y72875D01*
X73093Y73000D01*
X73333Y72958D01*
X73573Y72792D01*
G01X66500Y73267D02*
X69000D01*
Y73933D01*
X68875Y74147D01*
X68708Y74280D01*
X68375Y74333D01*
X68042Y74280D01*
X67833Y74120D01*
X67708Y73933D01*
Y73267D01*
G01Y73933D02*
X66500Y74333D01*
G01X68583Y75493D02*
X68833Y75653D01*
X68958Y75840D01*
X69000Y76053D01*
X68917Y76320D01*
X68708Y76507D01*
X68458Y76560D01*
X68208Y76533D01*
X68000Y76427D01*
X67583Y75893D01*
X67292Y75653D01*
X66875Y75493D01*
X66500Y75440D01*
Y76560D01*
G01X66875Y77613D02*
X66667Y77773D01*
X66542Y77960D01*
X66500Y78200D01*
X66583Y78440D01*
X66750Y78627D01*
X67042Y78760D01*
X67375Y78787D01*
X67708Y78733D01*
X67917Y78600D01*
X68083Y78413D01*
X68125Y78227D01*
X68083Y78040D01*
X67917Y77800D01*
X69000Y77880D01*
Y78600D01*
G01X72380Y83000D02*
Y85500D01*
X73367Y83708D01*
X72033D01*
G01X88233Y-128500D02*
Y-126000D01*
X87567D01*
X87353Y-126125D01*
X87220Y-126292D01*
X87167Y-126625D01*
X87220Y-126958D01*
X87380Y-127167D01*
X87567Y-127292D01*
X88233D01*
G01X87567D02*
X87167Y-128500D01*
G01X86087Y-128000D02*
X85927Y-128292D01*
X85713Y-128458D01*
X85473Y-128500D01*
X85260Y-128458D01*
X85047Y-128250D01*
X84913Y-128000D01*
X84887Y-127750D01*
X84940Y-127458D01*
X85127Y-127250D01*
X85313Y-127167D01*
X85553D01*
G01X85313D02*
X85153Y-127042D01*
X85020Y-126833D01*
X84967Y-126583D01*
X85020Y-126333D01*
X85153Y-126125D01*
X85393Y-126000D01*
X85633Y-126042D01*
X85873Y-126208D01*
G01X83353Y-128500D02*
X83300Y-127958D01*
X83220Y-127500D01*
X83113Y-127083D01*
X82980Y-126625D01*
X82767Y-126000D01*
X83833D01*
G01X90421Y-120701D02*
Y-133299D01*
X80579D01*
Y-120701D01*
X90421D01*
G01X102285Y-93770D02*
Y-95562D01*
X102178Y-95937D01*
X101965Y-96187D01*
X101698Y-96270D01*
X101431Y-96187D01*
X101218Y-95937D01*
X101111Y-95562D01*
Y-93770D01*
G01X99498Y-96270D02*
X99311Y-96228D01*
X99098Y-96103D01*
X98965Y-95895D01*
X98911Y-95603D01*
X98965Y-95312D01*
X99125Y-95062D01*
X99365Y-94937D01*
X99631D01*
X99791Y-94853D01*
X99925Y-94645D01*
X99978Y-94353D01*
X99898Y-94062D01*
X99711Y-93853D01*
X99498Y-93770D01*
X99285Y-93853D01*
X99098Y-94062D01*
X99018Y-94353D01*
X99071Y-94645D01*
X99205Y-94853D01*
X99365Y-94937D01*
X99631D01*
X99871Y-95062D01*
X100031Y-95312D01*
X100085Y-95603D01*
X100031Y-95895D01*
X99898Y-96103D01*
X99685Y-96228D01*
X99498Y-96270D01*
G01X82733Y-32500D02*
Y-35000D01*
X81667D01*
G01X80507Y-32917D02*
X80347Y-32667D01*
X80160Y-32542D01*
X79947Y-32500D01*
X79680Y-32583D01*
X79493Y-32792D01*
X79440Y-33042D01*
X79467Y-33292D01*
X79573Y-33500D01*
X80107Y-33917D01*
X80347Y-34208D01*
X80507Y-34625D01*
X80560Y-35000D01*
X79440D01*
G01X103513Y20959D02*
X103673Y21084D01*
X103860Y21167D01*
X104073D01*
X104313Y21042D01*
X104500Y20834D01*
X104633Y20584D01*
X104740Y20167D01*
X104767Y19792D01*
X104713Y19417D01*
X104633Y19167D01*
X104473Y18917D01*
X104287Y18750D01*
X104100Y18667D01*
X103913D01*
X103727Y18750D01*
X103567Y18875D01*
X103433Y19042D01*
G01X102353Y18959D02*
X102167Y18750D01*
X101953Y18667D01*
X101740Y18750D01*
X101553Y19000D01*
X101420Y19375D01*
X101367Y19750D01*
Y20209D01*
X101420Y20584D01*
X101553Y20917D01*
X101713Y21084D01*
X101900Y21167D01*
X102113Y21084D01*
X102273Y20917D01*
X102380Y20667D01*
X102433Y20334D01*
X102380Y20042D01*
X102247Y19750D01*
X102087Y19584D01*
X101900Y19542D01*
X101687Y19625D01*
X101527Y19834D01*
X101367Y20209D01*
G01X96613Y63459D02*
X96773Y63584D01*
X96960Y63667D01*
X97173D01*
X97413Y63542D01*
X97600Y63334D01*
X97733Y63084D01*
X97840Y62667D01*
X97867Y62292D01*
X97813Y61917D01*
X97733Y61667D01*
X97573Y61417D01*
X97387Y61250D01*
X97200Y61167D01*
X97013D01*
X96827Y61250D01*
X96667Y61375D01*
X96533Y61542D01*
G01X95000Y61167D02*
Y63667D01*
X95320Y63167D01*
G01Y61167D02*
X94680D01*
G01X92800Y63667D02*
X93013Y63584D01*
X93173Y63375D01*
X93280Y63125D01*
X93360Y62792D01*
X93387Y62417D01*
X93360Y62042D01*
X93280Y61709D01*
X93173Y61459D01*
X93013Y61250D01*
X92800Y61167D01*
X92587Y61250D01*
X92427Y61459D01*
X92320Y61709D01*
X92240Y62042D01*
X92213Y62417D01*
X92240Y62792D01*
X92320Y63125D01*
X92427Y63375D01*
X92587Y63584D01*
X92800Y63667D01*
G01X86687Y52667D02*
Y55167D01*
X86153D01*
X85940Y55042D01*
X85780Y54875D01*
X85647Y54625D01*
X85540Y54334D01*
X85513Y53917D01*
X85540Y53500D01*
X85647Y53209D01*
X85780Y52959D01*
X85940Y52792D01*
X86153Y52667D01*
X86687D01*
G01X84407Y53709D02*
X84220Y54000D01*
X84060Y54167D01*
X83847Y54250D01*
X83660Y54167D01*
X83527Y54000D01*
X83420Y53750D01*
X83393Y53459D01*
X83420Y53209D01*
X83527Y52959D01*
X83687Y52750D01*
X83873Y52667D01*
X84087Y52750D01*
X84273Y53000D01*
X84380Y53375D01*
X84407Y53792D01*
X84353Y54334D01*
X84273Y54625D01*
X84140Y54917D01*
X83953Y55125D01*
X83767Y55167D01*
X83580Y55084D01*
X83447Y54875D01*
G01X102205Y47767D02*
X104705D01*
Y48433D01*
X104580Y48647D01*
X104413Y48780D01*
X104080Y48833D01*
X103747Y48780D01*
X103538Y48620D01*
X103413Y48433D01*
Y47767D01*
G01Y48433D02*
X102205Y48833D01*
G01X104288Y49993D02*
X104538Y50153D01*
X104663Y50340D01*
X104705Y50553D01*
X104622Y50820D01*
X104413Y51007D01*
X104163Y51060D01*
X103913Y51033D01*
X103705Y50927D01*
X103288Y50393D01*
X102997Y50153D01*
X102580Y49993D01*
X102205Y49940D01*
Y51060D01*
G01Y52647D02*
X102747Y52700D01*
X103205Y52780D01*
X103622Y52887D01*
X104080Y53020D01*
X104705Y53233D01*
Y52167D01*
G01X97787Y79500D02*
Y77708D01*
X97680Y77333D01*
X97467Y77083D01*
X97200Y77000D01*
X96933Y77083D01*
X96720Y77333D01*
X96613Y77708D01*
Y79500D01*
G01X95000Y77000D02*
Y79500D01*
X95320Y79000D01*
G01Y77000D02*
X94680D01*
G01X92800D02*
Y79500D01*
X93120Y79000D01*
G01Y77000D02*
X92480D01*
G01X122733Y-120000D02*
Y-117500D01*
X122067D01*
X121853Y-117625D01*
X121720Y-117792D01*
X121667Y-118125D01*
X121720Y-118458D01*
X121880Y-118667D01*
X122067Y-118792D01*
X122733D01*
G01X122067D02*
X121667Y-120000D01*
G01X120587Y-119500D02*
X120427Y-119792D01*
X120213Y-119958D01*
X119973Y-120000D01*
X119760Y-119958D01*
X119547Y-119750D01*
X119413Y-119500D01*
X119387Y-119250D01*
X119440Y-118958D01*
X119627Y-118750D01*
X119813Y-118667D01*
X120053D01*
G01X119813D02*
X119653Y-118542D01*
X119520Y-118333D01*
X119467Y-118083D01*
X119520Y-117833D01*
X119653Y-117625D01*
X119893Y-117500D01*
X120133Y-117542D01*
X120373Y-117708D01*
G01X117800Y-120000D02*
X117613Y-119958D01*
X117400Y-119833D01*
X117267Y-119625D01*
X117213Y-119333D01*
X117267Y-119042D01*
X117427Y-118792D01*
X117667Y-118667D01*
X117933D01*
X118093Y-118583D01*
X118227Y-118375D01*
X118280Y-118083D01*
X118200Y-117792D01*
X118013Y-117583D01*
X117800Y-117500D01*
X117587Y-117583D01*
X117400Y-117792D01*
X117320Y-118083D01*
X117373Y-118375D01*
X117507Y-118583D01*
X117667Y-118667D01*
X117933D01*
X118173Y-118792D01*
X118333Y-119042D01*
X118387Y-119333D01*
X118333Y-119625D01*
X118200Y-119833D01*
X117987Y-119958D01*
X117800Y-120000D01*
G01X117287Y-13500D02*
Y-11000D01*
X116753D01*
X116540Y-11125D01*
X116380Y-11292D01*
X116247Y-11542D01*
X116140Y-11833D01*
X116113Y-12250D01*
X116140Y-12667D01*
X116247Y-12958D01*
X116380Y-13208D01*
X116540Y-13375D01*
X116753Y-13500D01*
X117287D01*
G01X115087Y-13125D02*
X114927Y-13333D01*
X114740Y-13458D01*
X114500Y-13500D01*
X114260Y-13417D01*
X114073Y-13250D01*
X113940Y-12958D01*
X113913Y-12625D01*
X113967Y-12292D01*
X114100Y-12083D01*
X114287Y-11917D01*
X114473Y-11875D01*
X114660Y-11917D01*
X114900Y-12083D01*
X114820Y-11000D01*
X114100D01*
G01X117007Y68750D02*
X116847Y69000D01*
X116660Y69125D01*
X116447Y69167D01*
X116180Y69084D01*
X115993Y68875D01*
X115940Y68625D01*
X115967Y68375D01*
X116073Y68167D01*
X116607Y67750D01*
X116847Y67459D01*
X117007Y67042D01*
X117060Y66667D01*
X115940D01*
G01X124257Y56799D02*
X123590Y54299D01*
X122923Y56799D01*
G01X121923Y54299D02*
Y56799D01*
X121257D01*
X121043Y56674D01*
X120910Y56507D01*
X120857Y56174D01*
X120910Y55841D01*
X121070Y55632D01*
X121257Y55507D01*
X121923D01*
G01X121257D02*
X120857Y54299D01*
G01X119697Y56382D02*
X119537Y56632D01*
X119350Y56757D01*
X119137Y56799D01*
X118870Y56716D01*
X118683Y56507D01*
X118630Y56257D01*
X118657Y56007D01*
X118763Y55799D01*
X119297Y55382D01*
X119537Y55091D01*
X119697Y54674D01*
X119750Y54299D01*
X118630D01*
G01X126233Y68167D02*
Y70667D01*
X125567D01*
X125353Y70542D01*
X125220Y70375D01*
X125167Y70042D01*
X125220Y69709D01*
X125380Y69500D01*
X125567Y69375D01*
X126233D01*
G01X125567D02*
X125167Y68167D01*
G01X124007Y70250D02*
X123847Y70500D01*
X123660Y70625D01*
X123447Y70667D01*
X123180Y70584D01*
X122993Y70375D01*
X122940Y70125D01*
X122967Y69875D01*
X123073Y69667D01*
X123607Y69250D01*
X123847Y68959D01*
X124007Y68542D01*
X124060Y68167D01*
X122940D01*
G01X121807Y69209D02*
X121620Y69500D01*
X121460Y69667D01*
X121247Y69750D01*
X121060Y69667D01*
X120927Y69500D01*
X120820Y69250D01*
X120793Y68959D01*
X120820Y68709D01*
X120927Y68459D01*
X121087Y68250D01*
X121273Y68167D01*
X121487Y68250D01*
X121673Y68500D01*
X121780Y68875D01*
X121807Y69292D01*
X121753Y69834D01*
X121673Y70125D01*
X121540Y70417D01*
X121353Y70625D01*
X121167Y70667D01*
X120980Y70584D01*
X120847Y70375D01*
G01X119500Y86167D02*
Y88667D01*
X119820Y88167D01*
G01Y86167D02*
X119180D01*
G54D35*
X108256Y-13000D03*
X122744D03*
G54D17*
X18543Y42500D03*
X11457D03*
G54D26*
X64264Y-70217D03*
G54D45*
G01X13476Y-50268D02*
X-15476D01*
Y-32732D01*
X13476D01*
Y-50268D01*
G01X27496Y-99214D02*
X69504D01*
Y-143426D01*
X27496D01*
Y-99214D01*
G01X59795Y-70752D02*
X34205D01*
Y-37248D01*
X59795D01*
Y-70752D01*
G54D27*
X68098Y-34500D03*
X92902D03*
G54D36*
X102500Y9370D03*
Y30630D03*
G54D18*
X-5500Y41760D03*
G54D46*
G01X12638Y37768D02*
G02X11457Y34815I-1181J-1240D01*
G02X9685Y36587I0J1772D01*
G02X10276Y37768I1476J0D01*
G01X8823D01*
G01X12047Y36587D02*
G02X12638Y37768I1476J0D01*
G01X13819Y34815D02*
G02X12047Y36587I0J1772D01*
G01X15000Y37768D02*
G02X13819Y34815I-1181J-1240D01*
G01X14409Y36587D02*
G02X15000Y37768I1477J-1D01*
G01X16181Y34815D02*
G02X14409Y36587I0J1772D01*
G01X17362Y37768D02*
G02X16181Y34815I-1181J-1240D01*
G01X16772Y36587D02*
G02X17362Y37768I1476J0D01*
G01X18543Y34815D02*
G02X16772Y36587I1J1772D01*
G01X18543Y34815D02*
G03X19724Y37768I0J1713D01*
G01X21087D01*
G54D19*
X48500Y-136674D03*
G54D37*
X101799Y62236D03*
X109279D03*
G54D28*
X70500Y-16600D03*
Y33400D03*
G54D38*
X84500Y46764D03*
Y62236D03*
G54D29*
X51500Y46148D03*
X67500Y65834D03*
G54D39*
X109279Y50300D03*
X97279D03*
M02*
