G04 ================== begin FILE IDENTIFICATION RECORD ==================*
G04 Layout Name:  POWER_BOARD_03AUG15_2330.brd*
G04 Film Name:    AST*
G04 File Format:  Gerber RS274X*
G04 File Origin:  Cadence Allegro 16.6-P004*
G04 Origin Date:  Mon Aug 03 23:32:27 2015*
G04 *
G04 Layer:  DRAWING FORMAT/FILM_LABEL_OUTLINE*
G04 Layer:  REF DES/ASSEMBLY_TOP*
G04 Layer:  PIN/TOP*
G04 Layer:  PACKAGE GEOMETRY/ASSEMBLY_TOP*
G04 Layer:  BOARD GEOMETRY/OUTLINE*
G04 *
G04 Offset:    (0.00 0.00)*
G04 Mirror:    No*
G04 Mode:      Positive*
G04 Rotation:  0*
G04 FullContactRelief:  No*
G04 UndefLineWidth:     1.00*
G04 ================== end FILE IDENTIFICATION RECORD ====================*
%FSLAX25Y25*MOIN*%
%IR0*IPPOS*OFA0.00000B0.00000*MIA0B0*SFA1.00000B1.00000*%
%ADD12C,.06*%
%ADD36C,.07*%
%AMMACRO18*
21,1,.10236,.11417,0.0,0.0,135.*%
%ADD18MACRO18*%
%ADD24C,.0615*%
%ADD10C,.0435*%
%ADD21R,.06X.06*%
%ADD35R,.07X.07*%
%ADD19C,.05362*%
%ADD29R,.0615X.0615*%
%ADD23R,.0435X.0435*%
%ADD37R,.04921X.10827*%
%ADD11R,.10827X.04921*%
%ADD20R,.05362X.05362*%
%ADD25C,.03759*%
%ADD33C,.04984*%
%ADD26R,.03759X.03759*%
%ADD39R,.02756X.00984*%
%ADD32R,.04984X.04984*%
%ADD30R,.05795X.05795*%
%ADD28R,.034X.03*%
%ADD16R,.03X.034*%
%ADD27R,.042X.06*%
%ADD31R,.064X.045*%
%ADD13R,.05X.067*%
%ADD15R,.0236X.0217*%
%ADD17C,.24409*%
%ADD14R,.0551X.0394*%
%ADD38R,.21693X.32087*%
%ADD40R,.06496X.05315*%
%ADD22R,.07087X.05906*%
%ADD34O,.06299X.02756*%
%ADD41C,.001*%
%ADD42C,.006*%
%ADD43C,.008*%
%ADD44C,.00607*%
G75*
%LPD*%
G75*
G36*
G01X126173Y-124587D02*
Y-122224D01*
X124992Y-123406D01*
X126173Y-124587D01*
G37*
G54D10*
X-18185Y-147500D03*
G54D20*
X-6500Y1842D03*
X21610Y53000D03*
X100000Y-20658D03*
X87675Y-1175D03*
G54D11*
X-16500Y-108906D03*
Y-130906D03*
Y-119094D03*
Y-86906D03*
Y-97094D03*
Y-75094D03*
Y-65051D03*
Y-53239D03*
G54D30*
X70500Y-16600D03*
Y33400D03*
G54D21*
X-5500Y41760D03*
G54D12*
X-15500D03*
Y71760D03*
Y61760D03*
Y51760D03*
Y81760D03*
X-5500Y71760D03*
Y61760D03*
Y51760D03*
Y81760D03*
G54D22*
X49020Y-147217D03*
X39020D03*
Y-111783D03*
X49020D03*
X59020Y-147217D03*
Y-111783D03*
G54D40*
X116500Y-118000D03*
G54D13*
X-12441Y29000D03*
Y19500D03*
X-441Y29000D03*
Y19500D03*
G54D31*
X59500Y56750D03*
Y67250D03*
G54D41*
G01X-23000Y89500D02*
X127098D01*
Y-158500D01*
X-23000D01*
Y89500D01*
G01X27091Y-135689D02*
X-24091D01*
Y-159311D01*
X27091D01*
Y-135689D01*
G01X13185Y-8001D02*
G03I-19685J0D01*
G01X-20500Y36760D02*
Y86760D01*
X8500D01*
Y36760D01*
X-20500D01*
G01X3259Y33600D02*
Y24400D01*
X-16141D01*
Y33600D01*
X3259D01*
G01Y24100D02*
Y14900D01*
X-16141D01*
Y24100D01*
X3259D01*
G01X4500Y-120760D02*
Y-122760D01*
X500D01*
Y-120760D01*
X4500D01*
G01X-3300Y-134750D02*
Y-131250D01*
X3300D01*
Y-134750D01*
X-3300D01*
G01X23906Y-65739D02*
G03I-15608J0D01*
G01X44248Y53000D02*
G03I-15748J0D01*
G01X24331Y-79311D02*
Y-65689D01*
X70170D01*
Y-79311D01*
X24331D01*
G01X61506Y21661D02*
G03I-15608J0D01*
G01X33398Y75008D02*
X58398D01*
Y83512D01*
X33398D01*
Y75008D01*
G01X70500Y-158276D02*
X110500D01*
Y-126276D01*
X70500D01*
Y-158276D01*
G01X69800Y-124550D02*
Y-117450D01*
X83200D01*
Y-124550D01*
X69800D01*
G01X57250Y-94200D02*
X60750D01*
Y-100800D01*
X57250D01*
Y-94200D01*
G01X99106Y-65739D02*
G03I-15608J0D01*
G01X66853Y36943D02*
Y-20143D01*
X74530D01*
Y36943D01*
X66853D01*
G01X55950Y68700D02*
X63050D01*
Y55300D01*
X55950D01*
Y68700D01*
G01X119685Y-30501D02*
G03I-19685J0D01*
G01X78050Y-7075D02*
Y46075D01*
X127300D01*
Y-7075D01*
X78050D01*
G01X118000Y88000D02*
X86000D01*
X83000Y85000D01*
Y48000D01*
X118000D01*
Y88000D01*
G01X109512Y-121937D02*
X123488D01*
Y-114063D01*
X109512D01*
Y-121937D01*
G54D14*
X13170Y-121760D03*
Y-129240D03*
X21830Y-125500D03*
G54D32*
X51500Y46148D03*
X67500Y65834D03*
G54D23*
X21185Y-147500D03*
G54D42*
G01X-19233Y-126000D02*
Y-123500D01*
X-18567D01*
X-18353Y-123625D01*
X-18220Y-123792D01*
X-18167Y-124125D01*
X-18220Y-124458D01*
X-18380Y-124667D01*
X-18567Y-124792D01*
X-19233D01*
G01X-18567D02*
X-18167Y-126000D01*
G01X-17087Y-125500D02*
X-16927Y-125792D01*
X-16713Y-125958D01*
X-16473Y-126000D01*
X-16260Y-125958D01*
X-16047Y-125750D01*
X-15913Y-125500D01*
X-15887Y-125250D01*
X-15940Y-124958D01*
X-16127Y-124750D01*
X-16313Y-124667D01*
X-16553D01*
G01X-16313D02*
X-16153Y-124542D01*
X-16020Y-124333D01*
X-15967Y-124083D01*
X-16020Y-123833D01*
X-16153Y-123625D01*
X-16393Y-123500D01*
X-16633Y-123542D01*
X-16873Y-123708D01*
G01X-14887Y-125625D02*
X-14727Y-125833D01*
X-14540Y-125958D01*
X-14300Y-126000D01*
X-14060Y-125917D01*
X-13873Y-125750D01*
X-13740Y-125458D01*
X-13713Y-125125D01*
X-13767Y-124792D01*
X-13900Y-124583D01*
X-14087Y-124417D01*
X-14273Y-124375D01*
X-14460Y-124417D01*
X-14700Y-124583D01*
X-14620Y-123500D01*
X-13900D01*
G01X-11579Y-131299D02*
Y-118701D01*
X-21421D01*
Y-131299D01*
X-11579D01*
G01X-19233Y-82500D02*
Y-80000D01*
X-18567D01*
X-18353Y-80125D01*
X-18220Y-80292D01*
X-18167Y-80625D01*
X-18220Y-80958D01*
X-18380Y-81167D01*
X-18567Y-81292D01*
X-19233D01*
G01X-18567D02*
X-18167Y-82500D01*
G01X-17007Y-80417D02*
X-16847Y-80167D01*
X-16660Y-80042D01*
X-16447Y-80000D01*
X-16180Y-80083D01*
X-15993Y-80292D01*
X-15940Y-80542D01*
X-15967Y-80792D01*
X-16073Y-81000D01*
X-16607Y-81417D01*
X-16847Y-81708D01*
X-17007Y-82125D01*
X-17060Y-82500D01*
X-15940D01*
G01X-14753Y-82208D02*
X-14567Y-82417D01*
X-14353Y-82500D01*
X-14140Y-82417D01*
X-13953Y-82167D01*
X-13820Y-81792D01*
X-13767Y-81417D01*
Y-80958D01*
X-13820Y-80583D01*
X-13953Y-80250D01*
X-14113Y-80083D01*
X-14300Y-80000D01*
X-14513Y-80083D01*
X-14673Y-80250D01*
X-14780Y-80500D01*
X-14833Y-80833D01*
X-14780Y-81125D01*
X-14647Y-81417D01*
X-14487Y-81583D01*
X-14300Y-81625D01*
X-14087Y-81542D01*
X-13927Y-81333D01*
X-13767Y-80958D01*
G01X-11579Y-87299D02*
Y-74701D01*
X-21421D01*
Y-87299D01*
X-11579D01*
G01X-18733Y-104500D02*
Y-102000D01*
X-18067D01*
X-17853Y-102125D01*
X-17720Y-102292D01*
X-17667Y-102625D01*
X-17720Y-102958D01*
X-17880Y-103167D01*
X-18067Y-103292D01*
X-18733D01*
G01X-18067D02*
X-17667Y-104500D01*
G01X-16507Y-102417D02*
X-16347Y-102167D01*
X-16160Y-102042D01*
X-15947Y-102000D01*
X-15680Y-102083D01*
X-15493Y-102292D01*
X-15440Y-102542D01*
X-15467Y-102792D01*
X-15573Y-103000D01*
X-16107Y-103417D01*
X-16347Y-103708D01*
X-16507Y-104125D01*
X-16560Y-104500D01*
X-15440D01*
G01X-13800D02*
X-13613Y-104458D01*
X-13400Y-104333D01*
X-13267Y-104125D01*
X-13213Y-103833D01*
X-13267Y-103542D01*
X-13427Y-103292D01*
X-13667Y-103167D01*
X-13933D01*
X-14093Y-103083D01*
X-14227Y-102875D01*
X-14280Y-102583D01*
X-14200Y-102292D01*
X-14013Y-102083D01*
X-13800Y-102000D01*
X-13587Y-102083D01*
X-13400Y-102292D01*
X-13320Y-102583D01*
X-13373Y-102875D01*
X-13507Y-103083D01*
X-13667Y-103167D01*
X-13933D01*
X-14173Y-103292D01*
X-14333Y-103542D01*
X-14387Y-103833D01*
X-14333Y-104125D01*
X-14200Y-104333D01*
X-13987Y-104458D01*
X-13800Y-104500D01*
G01X-11579Y-109299D02*
Y-96701D01*
X-21421D01*
Y-109299D01*
X-11579D01*
G01X-19233Y-60500D02*
Y-58000D01*
X-18567D01*
X-18353Y-58125D01*
X-18220Y-58292D01*
X-18167Y-58625D01*
X-18220Y-58958D01*
X-18380Y-59167D01*
X-18567Y-59292D01*
X-19233D01*
G01X-18567D02*
X-18167Y-60500D01*
G01X-17087Y-60000D02*
X-16927Y-60292D01*
X-16713Y-60458D01*
X-16473Y-60500D01*
X-16260Y-60458D01*
X-16047Y-60250D01*
X-15913Y-60000D01*
X-15887Y-59750D01*
X-15940Y-59458D01*
X-16127Y-59250D01*
X-16313Y-59167D01*
X-16553D01*
G01X-16313D02*
X-16153Y-59042D01*
X-16020Y-58833D01*
X-15967Y-58583D01*
X-16020Y-58333D01*
X-16153Y-58125D01*
X-16393Y-58000D01*
X-16633Y-58042D01*
X-16873Y-58208D01*
G01X-14753Y-60208D02*
X-14567Y-60417D01*
X-14353Y-60500D01*
X-14140Y-60417D01*
X-13953Y-60167D01*
X-13820Y-59792D01*
X-13767Y-59417D01*
Y-58958D01*
X-13820Y-58583D01*
X-13953Y-58250D01*
X-14113Y-58083D01*
X-14300Y-58000D01*
X-14513Y-58083D01*
X-14673Y-58250D01*
X-14780Y-58500D01*
X-14833Y-58833D01*
X-14780Y-59125D01*
X-14647Y-59417D01*
X-14487Y-59583D01*
X-14300Y-59625D01*
X-14087Y-59542D01*
X-13927Y-59333D01*
X-13767Y-58958D01*
G01X-11579Y-65444D02*
Y-52846D01*
X-21421D01*
Y-65444D01*
X-11579D01*
G01X-22207Y42083D02*
X-22047Y42333D01*
X-21860Y42458D01*
X-21647Y42500D01*
X-21380Y42417D01*
X-21193Y42208D01*
X-21140Y41958D01*
X-21167Y41708D01*
X-21273Y41500D01*
X-21807Y41083D01*
X-22047Y40792D01*
X-22207Y40375D01*
X-22260Y40000D01*
X-21140D01*
G01X-26375Y101500D02*
X-23250Y111500D01*
X-20125Y101500D01*
G01X-21250Y105000D02*
X-25250D01*
G01X-15875Y102833D02*
X-14875Y102000D01*
X-13750Y101500D01*
X-12750D01*
X-11750Y102000D01*
X-11000Y102833D01*
X-10625Y104000D01*
X-10875Y105166D01*
X-11500Y106167D01*
X-12625Y106833D01*
X-14125Y107167D01*
X-15000Y107833D01*
X-15375Y109000D01*
X-15125Y110167D01*
X-14500Y111000D01*
X-13625Y111500D01*
X-12750D01*
X-11875Y111167D01*
X-11125Y110333D01*
G01X-5875Y102833D02*
X-4875Y102000D01*
X-3750Y101500D01*
X-2750D01*
X-1750Y102000D01*
X-1000Y102833D01*
X-625Y104000D01*
X-875Y105166D01*
X-1500Y106167D01*
X-2625Y106833D01*
X-4125Y107167D01*
X-5000Y107833D01*
X-5375Y109000D01*
X-5125Y110167D01*
X-4500Y111000D01*
X-3625Y111500D01*
X-2750D01*
X-1875Y111167D01*
X-1125Y110333D01*
G01X9250Y101500D02*
X4250D01*
Y111500D01*
X9250D01*
G01X7250Y106667D02*
X4250D01*
G01X13500Y101500D02*
Y111500D01*
X16750Y103167D01*
X20000Y111500D01*
Y101500D01*
G01X27750Y106833D02*
X28250Y107333D01*
X28625Y108166D01*
X28875Y109333D01*
X28625Y110333D01*
X28125Y111000D01*
X27250Y111500D01*
X23875D01*
Y101500D01*
X28000D01*
X28875Y102167D01*
X29375Y103167D01*
X29625Y104333D01*
X29375Y105500D01*
X28625Y106500D01*
X27750Y106833D01*
X23875D01*
G01X34250Y111500D02*
Y101500D01*
X39250D01*
G01X46750D02*
Y106000D01*
X44250Y111500D01*
G01X49250D02*
X46750Y106000D01*
G01X66750Y111500D02*
Y101500D01*
G01X63875Y111500D02*
X69625D01*
G01X76750Y101500D02*
X75750Y101667D01*
X74875Y102333D01*
X74125Y103333D01*
X73625Y104500D01*
X73375Y105833D01*
Y107167D01*
X73625Y108500D01*
X74125Y109667D01*
X74875Y110667D01*
X75750Y111333D01*
X76750Y111500D01*
X77750Y111333D01*
X78625Y110667D01*
X79375Y109667D01*
X79875Y108500D01*
X80125Y107167D01*
Y105833D01*
X79875Y104500D01*
X79375Y103333D01*
X78625Y102333D01*
X77750Y101667D01*
X76750Y101500D01*
G01X84250D02*
Y111500D01*
X87250D01*
X88250Y111000D01*
X89000Y109833D01*
X89250Y108500D01*
X89000Y107167D01*
X88375Y106167D01*
X87250Y105666D01*
X84250D01*
G01X-21700Y86500D02*
Y89000D01*
X-22020Y88500D01*
G01Y86500D02*
X-21380D01*
G01X-19500Y89000D02*
X-19713Y88917D01*
X-19873Y88708D01*
X-19980Y88458D01*
X-20060Y88125D01*
X-20087Y87750D01*
X-20060Y87375D01*
X-19980Y87042D01*
X-19873Y86792D01*
X-19713Y86583D01*
X-19500Y86500D01*
X-19287Y86583D01*
X-19127Y86792D01*
X-19020Y87042D01*
X-18940Y87375D01*
X-18913Y87750D01*
X-18940Y88125D01*
X-19020Y88458D01*
X-19127Y88708D01*
X-19287Y88917D01*
X-19500Y89000D01*
G01X-24500Y119500D02*
Y129500D01*
X-22000D01*
X-21000Y129000D01*
X-20250Y128333D01*
X-19625Y127333D01*
X-19125Y126166D01*
X-19000Y124500D01*
X-19125Y122833D01*
X-19625Y121667D01*
X-20250Y120666D01*
X-21000Y120000D01*
X-22000Y119500D01*
X-24500D01*
G01X-14875D02*
X-11750Y129500D01*
X-8625Y119500D01*
G01X-9750Y123000D02*
X-13750D01*
G01X-1750Y129500D02*
Y119500D01*
G01X-4625Y129500D02*
X1125D01*
G01X10750Y119500D02*
X5750D01*
Y129500D01*
X10750D01*
G01X8750Y124667D02*
X5750D01*
G01X18250Y119167D02*
X18000Y119333D01*
Y119667D01*
X18250Y119833D01*
X18500Y119667D01*
Y119333D01*
X18250Y119167D01*
G01Y123666D02*
X18000Y123833D01*
Y124167D01*
X18250Y124333D01*
X18500Y124167D01*
Y123833D01*
X18250Y123666D01*
G01X38250Y129500D02*
X37250Y129167D01*
X36500Y128333D01*
X36000Y127333D01*
X35625Y126000D01*
X35500Y124500D01*
X35625Y123000D01*
X36000Y121667D01*
X36500Y120666D01*
X37250Y119833D01*
X38250Y119500D01*
X39250Y119833D01*
X40000Y120666D01*
X40500Y121667D01*
X40875Y123000D01*
X41000Y124500D01*
X40875Y126000D01*
X40500Y127333D01*
X40000Y128333D01*
X39250Y129167D01*
X38250Y129500D01*
G01X45500Y121500D02*
X46250Y120333D01*
X47250Y119667D01*
X48375Y119500D01*
X49375Y119667D01*
X50375Y120500D01*
X51000Y121500D01*
X51125Y122500D01*
X50875Y123666D01*
X50000Y124500D01*
X49125Y124833D01*
X48000D01*
G01X49125D02*
X49875Y125333D01*
X50500Y126166D01*
X50750Y127167D01*
X50500Y128167D01*
X49875Y129000D01*
X48750Y129500D01*
X47625Y129333D01*
X46500Y128667D01*
G01X56000Y119167D02*
X60500Y129500D01*
G01X68250D02*
X67250Y129167D01*
X66500Y128333D01*
X66000Y127333D01*
X65625Y126000D01*
X65500Y124500D01*
X65625Y123000D01*
X66000Y121667D01*
X66500Y120666D01*
X67250Y119833D01*
X68250Y119500D01*
X69250Y119833D01*
X70000Y120666D01*
X70500Y121667D01*
X70875Y123000D01*
X71000Y124500D01*
X70875Y126000D01*
X70500Y127333D01*
X70000Y128333D01*
X69250Y129167D01*
X68250Y129500D01*
G01X78250Y119500D02*
X79125Y119667D01*
X80125Y120167D01*
X80750Y121000D01*
X81000Y122167D01*
X80750Y123333D01*
X80000Y124333D01*
X78875Y124833D01*
X77625D01*
X76875Y125167D01*
X76250Y126000D01*
X76000Y127167D01*
X76375Y128333D01*
X77250Y129167D01*
X78250Y129500D01*
X79250Y129167D01*
X80125Y128333D01*
X80500Y127167D01*
X80250Y126000D01*
X79625Y125167D01*
X78875Y124833D01*
X77625D01*
X76500Y124333D01*
X75750Y123333D01*
X75500Y122167D01*
X75750Y121000D01*
X76375Y120167D01*
X77375Y119667D01*
X78250Y119500D01*
G01X86000Y119167D02*
X90500Y129500D01*
G01X95875Y127833D02*
X96625Y128833D01*
X97500Y129333D01*
X98500Y129500D01*
X99750Y129167D01*
X100625Y128333D01*
X100875Y127333D01*
X100750Y126333D01*
X100250Y125500D01*
X97750Y123833D01*
X96625Y122667D01*
X95875Y121000D01*
X95625Y119500D01*
X100875D01*
G01X108250Y129500D02*
X107250Y129167D01*
X106500Y128333D01*
X106000Y127333D01*
X105625Y126000D01*
X105500Y124500D01*
X105625Y123000D01*
X106000Y121667D01*
X106500Y120666D01*
X107250Y119833D01*
X108250Y119500D01*
X109250Y119833D01*
X110000Y120666D01*
X110500Y121667D01*
X110875Y123000D01*
X111000Y124500D01*
X110875Y126000D01*
X110500Y127333D01*
X110000Y128333D01*
X109250Y129167D01*
X108250Y129500D01*
G01X118250Y119500D02*
Y129500D01*
X116750Y127500D01*
G01Y119500D02*
X119750D01*
G01X125500Y121000D02*
X126250Y120167D01*
X127125Y119667D01*
X128250Y119500D01*
X129375Y119833D01*
X130250Y120500D01*
X130875Y121667D01*
X131000Y123000D01*
X130750Y124333D01*
X130125Y125167D01*
X129250Y125833D01*
X128375Y126000D01*
X127500Y125833D01*
X126375Y125167D01*
X126750Y129500D01*
X130125D01*
G01X-23900Y140191D02*
Y150191D01*
X-20900D01*
X-19900Y149691D01*
X-19150Y148524D01*
X-18900Y147191D01*
X-19150Y145858D01*
X-19775Y144858D01*
X-20900Y144357D01*
X-23900D01*
G01X-11400Y140191D02*
X-12400Y140358D01*
X-13275Y141024D01*
X-14025Y142024D01*
X-14525Y143191D01*
X-14775Y144524D01*
Y145858D01*
X-14525Y147191D01*
X-14025Y148358D01*
X-13275Y149358D01*
X-12400Y150024D01*
X-11400Y150191D01*
X-10400Y150024D01*
X-9525Y149358D01*
X-8775Y148358D01*
X-8275Y147191D01*
X-8025Y145858D01*
Y144524D01*
X-8275Y143191D01*
X-8775Y142024D01*
X-9525Y141024D01*
X-10400Y140358D01*
X-11400Y140191D01*
G01X-5150Y150191D02*
X-3400Y140191D01*
X-1400Y150191D01*
X600Y140191D01*
X2350Y150191D01*
G01X11100Y140191D02*
X6100D01*
Y150191D01*
X11100D01*
G01X9100Y145358D02*
X6100D01*
G01X16100Y140191D02*
Y150191D01*
X19225D01*
X20225Y149691D01*
X20850Y149024D01*
X21100Y147691D01*
X20850Y146358D01*
X20100Y145524D01*
X19225Y145024D01*
X16100D01*
G01X19225D02*
X21100Y140191D01*
G01X39600Y145524D02*
X40100Y146024D01*
X40475Y146857D01*
X40725Y148024D01*
X40475Y149024D01*
X39975Y149691D01*
X39100Y150191D01*
X35725D01*
Y140191D01*
X39850D01*
X40725Y140858D01*
X41225Y141858D01*
X41475Y143024D01*
X41225Y144191D01*
X40475Y145191D01*
X39600Y145524D01*
X35725D01*
G01X48600Y140191D02*
X47600Y140358D01*
X46725Y141024D01*
X45975Y142024D01*
X45475Y143191D01*
X45225Y144524D01*
Y145858D01*
X45475Y147191D01*
X45975Y148358D01*
X46725Y149358D01*
X47600Y150024D01*
X48600Y150191D01*
X49600Y150024D01*
X50475Y149358D01*
X51225Y148358D01*
X51725Y147191D01*
X51975Y145858D01*
Y144524D01*
X51725Y143191D01*
X51225Y142024D01*
X50475Y141024D01*
X49600Y140358D01*
X48600Y140191D01*
G01X55475D02*
X58600Y150191D01*
X61725Y140191D01*
G01X60600Y143691D02*
X56600D01*
G01X66100Y140191D02*
Y150191D01*
X69225D01*
X70225Y149691D01*
X70850Y149024D01*
X71100Y147691D01*
X70850Y146358D01*
X70100Y145524D01*
X69225Y145024D01*
X66100D01*
G01X69225D02*
X71100Y140191D01*
G01X75850D02*
Y150191D01*
X78350D01*
X79350Y149691D01*
X80100Y149024D01*
X80725Y148024D01*
X81225Y146857D01*
X81350Y145191D01*
X81225Y143524D01*
X80725Y142358D01*
X80100Y141357D01*
X79350Y140691D01*
X78350Y140191D01*
X75850D01*
G01X-2113Y-147208D02*
X-2273Y-147083D01*
X-2460Y-147000D01*
X-2673D01*
X-2913Y-147125D01*
X-3100Y-147333D01*
X-3233Y-147583D01*
X-3340Y-148000D01*
X-3367Y-148375D01*
X-3313Y-148750D01*
X-3233Y-149000D01*
X-3073Y-149250D01*
X-2887Y-149417D01*
X-2700Y-149500D01*
X-2513D01*
X-2327Y-149417D01*
X-2167Y-149292D01*
X-2033Y-149125D01*
G01X-500Y-149500D02*
Y-147000D01*
X-820Y-147500D01*
G01Y-149500D02*
X-180D01*
G01X1700D02*
Y-147000D01*
X1380Y-147500D01*
G01Y-149500D02*
X2020D01*
G01X8513Y-121667D02*
X8620Y-121542D01*
X8700Y-121333D01*
X8753Y-121042D01*
X8700Y-120792D01*
X8593Y-120625D01*
X8407Y-120500D01*
X7687D01*
Y-123000D01*
X8567D01*
X8753Y-122833D01*
X8860Y-122583D01*
X8913Y-122292D01*
X8860Y-122000D01*
X8700Y-121750D01*
X8513Y-121667D01*
X7687D01*
G01X8833Y-130500D02*
X7767D01*
Y-128000D01*
X8833D01*
G01X8407Y-129208D02*
X7767D01*
G01X16400Y-117000D02*
X16187Y-116958D01*
X16000Y-116792D01*
X15840Y-116542D01*
X15733Y-116250D01*
X15680Y-115917D01*
Y-115583D01*
X15733Y-115250D01*
X15840Y-114958D01*
X16000Y-114708D01*
X16187Y-114542D01*
X16400Y-114500D01*
X16613Y-114542D01*
X16800Y-114708D01*
X16960Y-114958D01*
X17067Y-115250D01*
X17120Y-115583D01*
Y-115917D01*
X17067Y-116250D01*
X16960Y-116542D01*
X16800Y-116792D01*
X16613Y-116958D01*
X16400Y-117000D01*
G01X16613Y-116333D02*
X16933Y-117000D01*
G01X18013Y-116625D02*
X18173Y-116833D01*
X18360Y-116958D01*
X18600Y-117000D01*
X18840Y-116917D01*
X19027Y-116750D01*
X19160Y-116458D01*
X19187Y-116125D01*
X19133Y-115792D01*
X19000Y-115583D01*
X18813Y-115417D01*
X18627Y-115375D01*
X18440Y-115417D01*
X18200Y-115583D01*
X18280Y-114500D01*
X19000D01*
G01X-233Y-119000D02*
Y-116500D01*
X433D01*
X647Y-116625D01*
X780Y-116792D01*
X833Y-117125D01*
X780Y-117458D01*
X620Y-117667D01*
X433Y-117792D01*
X-233D01*
G01X433D02*
X833Y-119000D01*
G01X1913Y-118500D02*
X2073Y-118792D01*
X2287Y-118958D01*
X2527Y-119000D01*
X2740Y-118958D01*
X2953Y-118750D01*
X3087Y-118500D01*
X3113Y-118250D01*
X3060Y-117958D01*
X2873Y-117750D01*
X2687Y-117667D01*
X2447D01*
G01X2687D02*
X2847Y-117542D01*
X2980Y-117333D01*
X3033Y-117083D01*
X2980Y-116833D01*
X2847Y-116625D01*
X2607Y-116500D01*
X2367Y-116542D01*
X2127Y-116708D01*
G01X4700Y-116500D02*
X4487Y-116583D01*
X4327Y-116792D01*
X4220Y-117042D01*
X4140Y-117375D01*
X4113Y-117750D01*
X4140Y-118125D01*
X4220Y-118458D01*
X4327Y-118708D01*
X4487Y-118917D01*
X4700Y-119000D01*
X4913Y-118917D01*
X5073Y-118708D01*
X5180Y-118458D01*
X5260Y-118125D01*
X5287Y-117750D01*
X5260Y-117375D01*
X5180Y-117042D01*
X5073Y-116792D01*
X4913Y-116583D01*
X4700Y-116500D01*
G01X-2233Y-130000D02*
Y-127500D01*
X-1567D01*
X-1353Y-127625D01*
X-1220Y-127792D01*
X-1167Y-128125D01*
X-1220Y-128458D01*
X-1380Y-128667D01*
X-1567Y-128792D01*
X-2233D01*
G01X-1567D02*
X-1167Y-130000D01*
G01X-87Y-129500D02*
X73Y-129792D01*
X287Y-129958D01*
X527Y-130000D01*
X740Y-129958D01*
X953Y-129750D01*
X1087Y-129500D01*
X1113Y-129250D01*
X1060Y-128958D01*
X873Y-128750D01*
X687Y-128667D01*
X447D01*
G01X687D02*
X847Y-128542D01*
X980Y-128333D01*
X1033Y-128083D01*
X980Y-127833D01*
X847Y-127625D01*
X607Y-127500D01*
X367Y-127542D01*
X127Y-127708D01*
G01X2193Y-127917D02*
X2353Y-127667D01*
X2540Y-127542D01*
X2753Y-127500D01*
X3020Y-127583D01*
X3207Y-127792D01*
X3260Y-128042D01*
X3233Y-128292D01*
X3127Y-128500D01*
X2593Y-128917D01*
X2353Y-129208D01*
X2193Y-129625D01*
X2140Y-130000D01*
X3260D01*
G01X2813Y-46500D02*
Y-48292D01*
X2920Y-48667D01*
X3133Y-48917D01*
X3400Y-49000D01*
X3667Y-48917D01*
X3880Y-48667D01*
X3987Y-48292D01*
Y-46500D01*
G01X5920Y-49000D02*
Y-46500D01*
X4933Y-48292D01*
X6267D01*
G01X-8113Y-7208D02*
X-8273Y-7083D01*
X-8460Y-7000D01*
X-8673D01*
X-8913Y-7125D01*
X-9100Y-7333D01*
X-9233Y-7583D01*
X-9340Y-8000D01*
X-9367Y-8375D01*
X-9313Y-8750D01*
X-9233Y-9000D01*
X-9073Y-9250D01*
X-8887Y-9417D01*
X-8700Y-9500D01*
X-8513D01*
X-8327Y-9417D01*
X-8167Y-9292D01*
X-8033Y-9125D01*
G01X-6500Y-9500D02*
Y-7000D01*
X-6820Y-7500D01*
G01Y-9500D02*
X-6180D01*
G01X-3980D02*
Y-7000D01*
X-4967Y-8792D01*
X-3633D01*
G01X9000Y6793D02*
Y6153D01*
G01X9542Y6500D02*
X8459D01*
G01X9300Y40000D02*
Y42500D01*
X8980Y42000D01*
G01Y40000D02*
X9620D01*
G01X-7459Y27887D02*
X-7584Y27727D01*
X-7667Y27540D01*
Y27327D01*
X-7542Y27087D01*
X-7334Y26900D01*
X-7084Y26767D01*
X-6667Y26660D01*
X-6292Y26633D01*
X-5917Y26687D01*
X-5667Y26767D01*
X-5417Y26927D01*
X-5250Y27113D01*
X-5167Y27300D01*
Y27487D01*
X-5250Y27673D01*
X-5375Y27833D01*
X-5542Y27967D01*
G01X-5167Y29500D02*
X-7667D01*
X-7167Y29180D01*
G01X-5167D02*
Y29820D01*
G01Y31700D02*
X-5209Y31887D01*
X-5334Y32100D01*
X-5542Y32233D01*
X-5834Y32287D01*
X-6125Y32233D01*
X-6375Y32073D01*
X-6500Y31833D01*
Y31567D01*
X-6584Y31407D01*
X-6792Y31273D01*
X-7084Y31220D01*
X-7375Y31300D01*
X-7584Y31487D01*
X-7667Y31700D01*
X-7584Y31913D01*
X-7375Y32100D01*
X-7084Y32180D01*
X-6792Y32127D01*
X-6584Y31993D01*
X-6500Y31833D01*
Y31567D01*
X-6375Y31327D01*
X-6125Y31167D01*
X-5834Y31113D01*
X-5542Y31167D01*
X-5334Y31300D01*
X-5209Y31513D01*
X-5167Y31700D01*
G01X-7459Y18387D02*
X-7584Y18227D01*
X-7667Y18040D01*
Y17827D01*
X-7542Y17587D01*
X-7334Y17400D01*
X-7084Y17267D01*
X-6667Y17160D01*
X-6292Y17133D01*
X-5917Y17187D01*
X-5667Y17267D01*
X-5417Y17427D01*
X-5250Y17613D01*
X-5167Y17800D01*
Y17987D01*
X-5250Y18173D01*
X-5375Y18333D01*
X-5542Y18467D01*
G01X-5167Y20000D02*
X-7667D01*
X-7167Y19680D01*
G01X-5167D02*
Y20320D01*
G01Y22147D02*
X-5709Y22200D01*
X-6167Y22280D01*
X-6584Y22387D01*
X-7042Y22520D01*
X-7667Y22733D01*
Y21667D01*
G01X5000Y59492D02*
X5250Y59625D01*
X5417Y59785D01*
X5500Y59972D01*
X5417Y60185D01*
X5250Y60345D01*
X5000Y60505D01*
X4667Y60558D01*
X3000D01*
G01X3417Y61718D02*
X3167Y61878D01*
X3042Y62065D01*
X3000Y62278D01*
X3083Y62545D01*
X3292Y62732D01*
X3542Y62785D01*
X3792Y62758D01*
X4000Y62652D01*
X4417Y62118D01*
X4708Y61878D01*
X5125Y61718D01*
X5500Y61665D01*
Y62785D01*
G01X9347Y81292D02*
X9533Y81083D01*
X9747Y81000D01*
X9960Y81083D01*
X10147Y81333D01*
X10280Y81708D01*
X10333Y82083D01*
Y82542D01*
X10280Y82917D01*
X10147Y83250D01*
X9987Y83417D01*
X9800Y83500D01*
X9587Y83417D01*
X9427Y83250D01*
X9320Y83000D01*
X9267Y82667D01*
X9320Y82375D01*
X9453Y82083D01*
X9613Y81917D01*
X9800Y81875D01*
X10013Y81958D01*
X10173Y82167D01*
X10333Y82542D01*
G01X66509Y-142492D02*
X66520Y-116508D01*
X31520D01*
Y-139492D01*
X34520Y-142492D01*
X66520D01*
G01X27387Y-124208D02*
X27227Y-124083D01*
X27040Y-124000D01*
X26827D01*
X26587Y-124125D01*
X26400Y-124333D01*
X26267Y-124583D01*
X26160Y-125000D01*
X26133Y-125375D01*
X26187Y-125750D01*
X26267Y-126000D01*
X26427Y-126250D01*
X26613Y-126417D01*
X26800Y-126500D01*
X26987D01*
X27173Y-126417D01*
X27333Y-126292D01*
X27467Y-126125D01*
G01X45767Y-77333D02*
Y-74833D01*
X46433D01*
X46647Y-74958D01*
X46780Y-75125D01*
X46833Y-75458D01*
X46780Y-75791D01*
X46620Y-76000D01*
X46433Y-76125D01*
X45767D01*
G01X46433D02*
X46833Y-77333D01*
G01X47833Y-74833D02*
X48500Y-77333D01*
X49167Y-74833D01*
G01X50700Y-77333D02*
Y-74833D01*
X50380Y-75333D01*
G01Y-77333D02*
X51020D01*
G01X35189Y-44189D02*
X36956Y-42421D01*
X37428Y-42892D01*
X37490Y-43131D01*
X37467Y-43344D01*
X37269Y-43617D01*
X36995Y-43815D01*
X36735Y-43849D01*
X36514Y-43806D01*
X36043Y-43334D01*
G01X36514Y-43806D02*
X35943Y-44943D01*
G01X37122Y-46122D02*
X38889Y-44354D01*
X38310Y-44481D01*
G01X36895Y-45895D02*
X37348Y-46348D01*
G01X38563Y-47151D02*
X38548Y-47430D01*
X38640Y-47640D01*
X38850Y-47732D01*
X39158Y-47687D01*
X39518Y-47516D01*
X39821Y-47289D01*
X40145Y-46965D01*
X40372Y-46662D01*
X40514Y-46332D01*
X40519Y-46101D01*
X40445Y-45910D01*
X40236Y-45818D01*
X40005Y-45823D01*
X39752Y-45924D01*
X39479Y-46122D01*
X39311Y-46366D01*
X39199Y-46667D01*
X39194Y-46898D01*
X39296Y-47059D01*
X39506Y-47151D01*
X39767Y-47117D01*
X40145Y-46965D01*
G01X44313Y41000D02*
Y39208D01*
X44420Y38833D01*
X44633Y38583D01*
X44900Y38500D01*
X45167Y38583D01*
X45380Y38833D01*
X45487Y39208D01*
Y41000D01*
G01X47100Y38500D02*
Y41000D01*
X46780Y40500D01*
G01Y38500D02*
X47420D01*
G01X18707D02*
X19347D01*
G01X19000Y39042D02*
Y37959D01*
G01X25887Y45959D02*
X25727Y46084D01*
X25540Y46167D01*
X25327D01*
X25087Y46042D01*
X24900Y45834D01*
X24767Y45584D01*
X24660Y45167D01*
X24633Y44792D01*
X24687Y44417D01*
X24767Y44167D01*
X24927Y43917D01*
X25113Y43750D01*
X25300Y43667D01*
X25487D01*
X25673Y43750D01*
X25833Y43875D01*
X25967Y44042D01*
G01X27500Y43667D02*
Y46167D01*
X27180Y45667D01*
G01Y43667D02*
X27820D01*
G01X29193Y44709D02*
X29380Y45000D01*
X29540Y45167D01*
X29753Y45250D01*
X29940Y45167D01*
X30073Y45000D01*
X30180Y44750D01*
X30207Y44459D01*
X30180Y44209D01*
X30073Y43959D01*
X29913Y43750D01*
X29727Y43667D01*
X29513Y43750D01*
X29327Y44000D01*
X29220Y44375D01*
X29193Y44792D01*
X29247Y45334D01*
X29327Y45625D01*
X29460Y45917D01*
X29647Y46125D01*
X29833Y46167D01*
X30020Y46084D01*
X30153Y45875D01*
G01X27793Y77583D02*
X27953Y77833D01*
X28140Y77958D01*
X28353Y78000D01*
X28620Y77917D01*
X28807Y77708D01*
X28860Y77458D01*
X28833Y77208D01*
X28727Y77000D01*
X28193Y76583D01*
X27953Y76292D01*
X27793Y75875D01*
X27740Y75500D01*
X28860D01*
G01X28800Y80500D02*
Y83000D01*
X28480Y82500D01*
G01Y80500D02*
X29120D01*
G01X44267Y85000D02*
Y87500D01*
X44907D01*
X45120Y87375D01*
X45280Y87083D01*
X45333Y86750D01*
X45280Y86417D01*
X45147Y86167D01*
X44907Y86042D01*
X44267D01*
G01X47000Y85000D02*
Y87500D01*
X46680Y87000D01*
G01Y85000D02*
X47320D01*
G01X74267Y-115834D02*
Y-113334D01*
X74933D01*
X75147Y-113459D01*
X75280Y-113626D01*
X75333Y-113959D01*
X75280Y-114292D01*
X75120Y-114501D01*
X74933Y-114626D01*
X74267D01*
G01X74933D02*
X75333Y-115834D01*
G01X76413Y-115334D02*
X76573Y-115626D01*
X76787Y-115792D01*
X77027Y-115834D01*
X77240Y-115792D01*
X77453Y-115584D01*
X77587Y-115334D01*
X77613Y-115084D01*
X77560Y-114792D01*
X77373Y-114584D01*
X77187Y-114501D01*
X76947D01*
G01X77187D02*
X77347Y-114376D01*
X77480Y-114167D01*
X77533Y-113917D01*
X77480Y-113667D01*
X77347Y-113459D01*
X77107Y-113334D01*
X76867Y-113376D01*
X76627Y-113542D01*
G01X79200Y-115834D02*
Y-113334D01*
X78880Y-113834D01*
G01Y-115834D02*
X79520D01*
G01X49400Y-129500D02*
X49187Y-129458D01*
X49000Y-129292D01*
X48840Y-129042D01*
X48733Y-128750D01*
X48680Y-128417D01*
Y-128083D01*
X48733Y-127750D01*
X48840Y-127458D01*
X49000Y-127208D01*
X49187Y-127042D01*
X49400Y-127000D01*
X49613Y-127042D01*
X49800Y-127208D01*
X49960Y-127458D01*
X50067Y-127750D01*
X50120Y-128083D01*
Y-128417D01*
X50067Y-128750D01*
X49960Y-129042D01*
X49800Y-129292D01*
X49613Y-129458D01*
X49400Y-129500D01*
G01X49613Y-128833D02*
X49933Y-129500D01*
G01X51600D02*
Y-127000D01*
X51280Y-127500D01*
G01Y-129500D02*
X51920D01*
G01X55500Y-100233D02*
X53000D01*
Y-99567D01*
X53125Y-99353D01*
X53292Y-99220D01*
X53625Y-99167D01*
X53958Y-99220D01*
X54167Y-99380D01*
X54292Y-99567D01*
Y-100233D01*
G01Y-99567D02*
X55500Y-99167D01*
G01X53417Y-98007D02*
X53167Y-97847D01*
X53042Y-97660D01*
X53000Y-97447D01*
X53083Y-97180D01*
X53292Y-96993D01*
X53542Y-96940D01*
X53792Y-96967D01*
X54000Y-97073D01*
X54417Y-97607D01*
X54708Y-97847D01*
X55125Y-98007D01*
X55500Y-98060D01*
Y-96940D01*
G01X53000Y-95300D02*
X53083Y-95513D01*
X53292Y-95673D01*
X53542Y-95780D01*
X53875Y-95860D01*
X54250Y-95887D01*
X54625Y-95860D01*
X54958Y-95780D01*
X55208Y-95673D01*
X55417Y-95513D01*
X55500Y-95300D01*
X55417Y-95087D01*
X55208Y-94927D01*
X54958Y-94820D01*
X54625Y-94740D01*
X54250Y-94713D01*
X53875Y-94740D01*
X53542Y-94820D01*
X53292Y-94927D01*
X53083Y-95087D01*
X53000Y-95300D01*
G01X69213Y7400D02*
Y9900D01*
X69747D01*
X69960Y9775D01*
X70120Y9608D01*
X70253Y9358D01*
X70360Y9067D01*
X70387Y8650D01*
X70360Y8233D01*
X70253Y7942D01*
X70120Y7692D01*
X69960Y7525D01*
X69747Y7400D01*
X69213D01*
G01X71493Y9483D02*
X71653Y9733D01*
X71840Y9858D01*
X72053Y9900D01*
X72320Y9817D01*
X72507Y9608D01*
X72560Y9358D01*
X72533Y9108D01*
X72427Y8900D01*
X71893Y8483D01*
X71653Y8192D01*
X71493Y7775D01*
X71440Y7400D01*
X72560D01*
G01X58987Y62959D02*
X58827Y63084D01*
X58640Y63167D01*
X58427D01*
X58187Y63042D01*
X58000Y62834D01*
X57867Y62584D01*
X57760Y62167D01*
X57733Y61792D01*
X57787Y61417D01*
X57867Y61167D01*
X58027Y60917D01*
X58213Y60750D01*
X58400Y60667D01*
X58587D01*
X58773Y60750D01*
X58933Y60875D01*
X59067Y61042D01*
G01X60600Y60667D02*
X60787Y60709D01*
X61000Y60834D01*
X61133Y61042D01*
X61187Y61334D01*
X61133Y61625D01*
X60973Y61875D01*
X60733Y62000D01*
X60467D01*
X60307Y62084D01*
X60173Y62292D01*
X60120Y62584D01*
X60200Y62875D01*
X60387Y63084D01*
X60600Y63167D01*
X60813Y63084D01*
X61000Y62875D01*
X61080Y62584D01*
X61027Y62292D01*
X60893Y62084D01*
X60733Y62000D01*
X60467D01*
X60227Y61875D01*
X60067Y61625D01*
X60013Y61334D01*
X60067Y61042D01*
X60200Y60834D01*
X60413Y60709D01*
X60600Y60667D01*
G01X73293Y51542D02*
X73480Y51833D01*
X73640Y52000D01*
X73853Y52083D01*
X74040Y52000D01*
X74173Y51833D01*
X74280Y51583D01*
X74307Y51292D01*
X74280Y51042D01*
X74173Y50792D01*
X74013Y50583D01*
X73827Y50500D01*
X73613Y50583D01*
X73427Y50833D01*
X73320Y51208D01*
X73293Y51625D01*
X73347Y52167D01*
X73427Y52458D01*
X73560Y52750D01*
X73747Y52958D01*
X73933Y53000D01*
X74120Y52917D01*
X74253Y52708D01*
G01X61800Y75000D02*
Y77500D01*
X61480Y77000D01*
G01Y75000D02*
X62120D01*
G01X63493Y77083D02*
X63653Y77333D01*
X63840Y77458D01*
X64053Y77500D01*
X64320Y77417D01*
X64507Y77208D01*
X64560Y76958D01*
X64533Y76708D01*
X64427Y76500D01*
X63893Y76083D01*
X63653Y75792D01*
X63493Y75375D01*
X63440Y75000D01*
X64560D01*
G01X61800Y81000D02*
Y83500D01*
X61480Y83000D01*
G01Y81000D02*
X62120D01*
G01X64000D02*
Y83500D01*
X63680Y83000D01*
G01Y81000D02*
X64320D01*
G01X74300Y84500D02*
Y87000D01*
X73980Y86500D01*
G01Y84500D02*
X74620D01*
G01X96267Y-142834D02*
Y-140334D01*
X96933D01*
X97147Y-140459D01*
X97280Y-140626D01*
X97333Y-140959D01*
X97280Y-141292D01*
X97120Y-141501D01*
X96933Y-141626D01*
X96267D01*
G01X96933D02*
X97333Y-142834D01*
G01X98493Y-140751D02*
X98653Y-140501D01*
X98840Y-140376D01*
X99053Y-140334D01*
X99320Y-140417D01*
X99507Y-140626D01*
X99560Y-140876D01*
X99533Y-141126D01*
X99427Y-141334D01*
X98893Y-141751D01*
X98653Y-142042D01*
X98493Y-142459D01*
X98440Y-142834D01*
X99560D01*
G01X101200D02*
Y-140334D01*
X100880Y-140834D01*
G01Y-142834D02*
X101520D01*
G01X81800Y-143000D02*
Y-140500D01*
X81480Y-141000D01*
G01Y-143000D02*
X82120D01*
G01X107320Y-113834D02*
Y-111334D01*
X106333Y-113126D01*
X107667D01*
G01X106493Y-123292D02*
X106680Y-123001D01*
X106840Y-122834D01*
X107053Y-122751D01*
X107240Y-122834D01*
X107373Y-123001D01*
X107480Y-123251D01*
X107507Y-123542D01*
X107480Y-123792D01*
X107373Y-124042D01*
X107213Y-124251D01*
X107027Y-124334D01*
X106813Y-124251D01*
X106627Y-124001D01*
X106520Y-123626D01*
X106493Y-123209D01*
X106547Y-122667D01*
X106627Y-122376D01*
X106760Y-122084D01*
X106947Y-121876D01*
X107133Y-121834D01*
X107320Y-121917D01*
X107453Y-122126D01*
G01X81313Y-46000D02*
Y-47792D01*
X81420Y-48167D01*
X81633Y-48417D01*
X81900Y-48500D01*
X82167Y-48417D01*
X82380Y-48167D01*
X82487Y-47792D01*
Y-46000D01*
G01X83513Y-48125D02*
X83673Y-48333D01*
X83860Y-48458D01*
X84100Y-48500D01*
X84340Y-48417D01*
X84527Y-48250D01*
X84660Y-47958D01*
X84687Y-47625D01*
X84633Y-47292D01*
X84500Y-47083D01*
X84313Y-46917D01*
X84127Y-46875D01*
X83940Y-46917D01*
X83700Y-47083D01*
X83780Y-46000D01*
X84500D01*
G01X98387Y-29542D02*
X98227Y-29417D01*
X98040Y-29334D01*
X97827D01*
X97587Y-29459D01*
X97400Y-29667D01*
X97267Y-29917D01*
X97160Y-30334D01*
X97133Y-30709D01*
X97187Y-31084D01*
X97267Y-31334D01*
X97427Y-31584D01*
X97613Y-31751D01*
X97800Y-31834D01*
X97987D01*
X98173Y-31751D01*
X98333Y-31626D01*
X98467Y-31459D01*
G01X100000Y-31834D02*
Y-29334D01*
X99680Y-29834D01*
G01Y-31834D02*
X100320D01*
G01X101613Y-31459D02*
X101773Y-31667D01*
X101960Y-31792D01*
X102200Y-31834D01*
X102440Y-31751D01*
X102627Y-31584D01*
X102760Y-31292D01*
X102787Y-30959D01*
X102733Y-30626D01*
X102600Y-30417D01*
X102413Y-30251D01*
X102227Y-30209D01*
X102040Y-30251D01*
X101800Y-30417D01*
X101880Y-29334D01*
X102600D01*
G01X102400Y20000D02*
Y17500D01*
G01X101787Y20000D02*
X103013D01*
G01X104093Y19583D02*
X104253Y19833D01*
X104440Y19958D01*
X104653Y20000D01*
X104920Y19917D01*
X105107Y19708D01*
X105160Y19458D01*
X105133Y19208D01*
X105027Y19000D01*
X104493Y18583D01*
X104253Y18292D01*
X104093Y17875D01*
X104040Y17500D01*
X105160D01*
G01X97713Y87167D02*
Y85375D01*
X97820Y85000D01*
X98033Y84750D01*
X98300Y84667D01*
X98567Y84750D01*
X98780Y85000D01*
X98887Y85375D01*
Y87167D01*
G01X100500Y84667D02*
Y87167D01*
X100180Y86667D01*
G01Y84667D02*
X100820D01*
G01X102193Y86750D02*
X102353Y87000D01*
X102540Y87125D01*
X102753Y87167D01*
X103020Y87084D01*
X103207Y86875D01*
X103260Y86625D01*
X103233Y86375D01*
X103127Y86167D01*
X102593Y85750D01*
X102353Y85459D01*
X102193Y85042D01*
X102140Y84667D01*
X103260D01*
G01X115293Y-141417D02*
X115453Y-141167D01*
X115640Y-141042D01*
X115853Y-141000D01*
X116120Y-141083D01*
X116307Y-141292D01*
X116360Y-141542D01*
X116333Y-141792D01*
X116227Y-142000D01*
X115693Y-142417D01*
X115453Y-142708D01*
X115293Y-143125D01*
X115240Y-143500D01*
X116360D01*
G01X113713Y-125334D02*
Y-127126D01*
X113820Y-127501D01*
X114033Y-127751D01*
X114300Y-127834D01*
X114567Y-127751D01*
X114780Y-127501D01*
X114887Y-127126D01*
Y-125334D01*
G01X116500Y-127834D02*
Y-125334D01*
X116180Y-125834D01*
G01Y-127834D02*
X116820D01*
G01X118113Y-127334D02*
X118273Y-127626D01*
X118487Y-127792D01*
X118727Y-127834D01*
X118940Y-127792D01*
X119153Y-127584D01*
X119287Y-127334D01*
X119313Y-127084D01*
X119260Y-126792D01*
X119073Y-126584D01*
X118887Y-126501D01*
X118647D01*
G01X118887D02*
X119047Y-126376D01*
X119180Y-126167D01*
X119233Y-125917D01*
X119180Y-125667D01*
X119047Y-125459D01*
X118807Y-125334D01*
X118567Y-125376D01*
X118327Y-125542D01*
G01X124713Y-113000D02*
X124873Y-113292D01*
X125087Y-113458D01*
X125327Y-113500D01*
X125540Y-113458D01*
X125753Y-113250D01*
X125887Y-113000D01*
X125913Y-112750D01*
X125860Y-112458D01*
X125673Y-112250D01*
X125487Y-112167D01*
X125247D01*
G01X125487D02*
X125647Y-112042D01*
X125780Y-111833D01*
X125833Y-111583D01*
X125780Y-111333D01*
X125647Y-111125D01*
X125407Y-111000D01*
X125167Y-111042D01*
X124927Y-111208D01*
G01X116500Y-91233D02*
X114000D01*
Y-90567D01*
X114125Y-90353D01*
X114292Y-90220D01*
X114625Y-90167D01*
X114958Y-90220D01*
X115167Y-90380D01*
X115292Y-90567D01*
Y-91233D01*
G01Y-90567D02*
X116500Y-90167D01*
G01X116000Y-89087D02*
X116292Y-88927D01*
X116458Y-88713D01*
X116500Y-88473D01*
X116458Y-88260D01*
X116250Y-88047D01*
X116000Y-87913D01*
X115750Y-87887D01*
X115458Y-87940D01*
X115250Y-88127D01*
X115167Y-88313D01*
Y-88553D01*
G01Y-88313D02*
X115042Y-88153D01*
X114833Y-88020D01*
X114583Y-87967D01*
X114333Y-88020D01*
X114125Y-88153D01*
X114000Y-88393D01*
X114042Y-88633D01*
X114208Y-88873D01*
G01X116000Y-86887D02*
X116292Y-86727D01*
X116458Y-86513D01*
X116500Y-86273D01*
X116458Y-86060D01*
X116250Y-85847D01*
X116000Y-85713D01*
X115750Y-85687D01*
X115458Y-85740D01*
X115250Y-85927D01*
X115167Y-86113D01*
Y-86353D01*
G01Y-86113D02*
X115042Y-85953D01*
X114833Y-85820D01*
X114583Y-85767D01*
X114333Y-85820D01*
X114125Y-85953D01*
X114000Y-86193D01*
X114042Y-86433D01*
X114208Y-86673D01*
G01X121799Y-83753D02*
X109201D01*
Y-93595D01*
X121799D01*
Y-83753D01*
G01X116500Y-105233D02*
X114000D01*
Y-104567D01*
X114125Y-104353D01*
X114292Y-104220D01*
X114625Y-104167D01*
X114958Y-104220D01*
X115167Y-104380D01*
X115292Y-104567D01*
Y-105233D01*
G01Y-104567D02*
X116500Y-104167D01*
G01X116000Y-103087D02*
X116292Y-102927D01*
X116458Y-102713D01*
X116500Y-102473D01*
X116458Y-102260D01*
X116250Y-102047D01*
X116000Y-101913D01*
X115750Y-101887D01*
X115458Y-101940D01*
X115250Y-102127D01*
X115167Y-102313D01*
Y-102553D01*
G01Y-102313D02*
X115042Y-102153D01*
X114833Y-102020D01*
X114583Y-101967D01*
X114333Y-102020D01*
X114125Y-102153D01*
X114000Y-102393D01*
X114042Y-102633D01*
X114208Y-102873D01*
G01X115458Y-100807D02*
X115167Y-100620D01*
X115000Y-100460D01*
X114917Y-100247D01*
X115000Y-100060D01*
X115167Y-99927D01*
X115417Y-99820D01*
X115708Y-99793D01*
X115958Y-99820D01*
X116208Y-99927D01*
X116417Y-100087D01*
X116500Y-100273D01*
X116417Y-100487D01*
X116167Y-100673D01*
X115792Y-100780D01*
X115375Y-100807D01*
X114833Y-100753D01*
X114542Y-100673D01*
X114250Y-100540D01*
X114042Y-100353D01*
X114000Y-100167D01*
X114083Y-99980D01*
X114292Y-99847D01*
G01X109201Y-107421D02*
X121799D01*
Y-97579D01*
X109201D01*
Y-107421D01*
G01X117000Y-76733D02*
X114500D01*
Y-76067D01*
X114625Y-75853D01*
X114792Y-75720D01*
X115125Y-75667D01*
X115458Y-75720D01*
X115667Y-75880D01*
X115792Y-76067D01*
Y-76733D01*
G01Y-76067D02*
X117000Y-75667D01*
G01X116500Y-74587D02*
X116792Y-74427D01*
X116958Y-74213D01*
X117000Y-73973D01*
X116958Y-73760D01*
X116750Y-73547D01*
X116500Y-73413D01*
X116250Y-73387D01*
X115958Y-73440D01*
X115750Y-73627D01*
X115667Y-73813D01*
Y-74053D01*
G01Y-73813D02*
X115542Y-73653D01*
X115333Y-73520D01*
X115083Y-73467D01*
X114833Y-73520D01*
X114625Y-73653D01*
X114500Y-73893D01*
X114542Y-74133D01*
X114708Y-74373D01*
G01X117000Y-71480D02*
X114500D01*
X116292Y-72467D01*
Y-71133D01*
G01X109201Y-79300D02*
X121799D01*
Y-69458D01*
X109201D01*
Y-79300D01*
G01X117000Y-62733D02*
X114500D01*
Y-62067D01*
X114625Y-61853D01*
X114792Y-61720D01*
X115125Y-61667D01*
X115458Y-61720D01*
X115667Y-61880D01*
X115792Y-62067D01*
Y-62733D01*
G01Y-62067D02*
X117000Y-61667D01*
G01Y-59680D02*
X114500D01*
X116292Y-60667D01*
Y-59333D01*
G01X114500Y-57800D02*
X114583Y-58013D01*
X114792Y-58173D01*
X115042Y-58280D01*
X115375Y-58360D01*
X115750Y-58387D01*
X116125Y-58360D01*
X116458Y-58280D01*
X116708Y-58173D01*
X116917Y-58013D01*
X117000Y-57800D01*
X116917Y-57587D01*
X116708Y-57427D01*
X116458Y-57320D01*
X116125Y-57240D01*
X115750Y-57213D01*
X115375Y-57240D01*
X115042Y-57320D01*
X114792Y-57427D01*
X114583Y-57587D01*
X114500Y-57800D01*
G01X121799Y-55163D02*
X109201D01*
Y-65005D01*
X121799D01*
Y-55163D01*
G01X113500Y-13207D02*
Y-13847D01*
G01X114042Y-13500D02*
X112959D01*
G01X126247Y49000D02*
X126300Y49542D01*
X126380Y50000D01*
X126487Y50417D01*
X126620Y50875D01*
X126833Y51500D01*
X125767D01*
G01X122300Y86500D02*
Y89000D01*
X121980Y88500D01*
G01Y86500D02*
X122620D01*
G01X123993Y88583D02*
X124153Y88833D01*
X124340Y88958D01*
X124553Y89000D01*
X124820Y88917D01*
X125007Y88708D01*
X125060Y88458D01*
X125033Y88208D01*
X124927Y88000D01*
X124393Y87583D01*
X124153Y87292D01*
X123993Y86875D01*
X123940Y86500D01*
X125060D01*
G54D15*
X532Y-121710D03*
X4468D03*
G54D33*
X51500Y65834D03*
X67500Y85520D03*
G54D24*
X30236Y-70217D03*
G54D43*
G01X14740Y-119590D02*
Y-131410D01*
X20260D01*
Y-119590D01*
X14740D01*
G54D34*
X79043Y65441D03*
Y52055D03*
Y85520D03*
Y78827D03*
Y72134D03*
X121957Y50480D03*
Y57173D03*
Y63866D03*
Y70559D03*
Y77252D03*
Y83945D03*
G54D16*
X2700Y-133000D03*
X-2700D03*
G54D25*
X48398Y76760D03*
Y81760D03*
X43398Y76760D03*
Y81760D03*
X38398Y76760D03*
Y81760D03*
X33398Y76760D03*
X58398D03*
Y81760D03*
X53398Y76760D03*
Y81760D03*
G54D44*
G01X12405Y-46262D02*
X37738Y-71595D01*
X48595Y-60738D01*
X23262Y-35405D01*
X12405Y-46262D01*
G54D17*
X8298Y-96270D03*
Y-65739D03*
X45898Y-8870D03*
Y21661D03*
X83498Y-96270D03*
Y-65739D03*
G54D26*
X33398Y81760D03*
G54D35*
X88500Y-142276D03*
G54D27*
X71400Y-121000D03*
X81600D03*
G54D18*
X22844Y-45844D03*
X38156Y-61156D03*
G54D36*
X108559Y-142276D03*
G54D28*
X59000Y-100200D03*
Y-94800D03*
G54D37*
X109594Y-88674D03*
Y-102500D03*
Y-74379D03*
Y-60084D03*
X121406Y-88674D03*
Y-102500D03*
Y-74379D03*
Y-60084D03*
G54D19*
X-6500Y-17843D03*
X35390Y53000D03*
X100000Y-40343D03*
X107675Y-1175D03*
X97675D03*
X87675Y40175D03*
X97675D03*
X107675D03*
X117675Y-1175D03*
Y40175D03*
G54D38*
X100500Y68000D03*
G54D29*
X64264Y-70217D03*
G54D39*
X122110Y-123315D03*
Y-118000D03*
Y-112685D03*
X110890D03*
Y-118000D03*
Y-123315D03*
M02*
