G04 ================== begin FILE IDENTIFICATION RECORD ==================*
G04 Layout Name:  POWER_BOARD_03AUG15_2330.brd*
G04 Film Name:    L02_SIG1*
G04 File Format:  Gerber RS274X*
G04 File Origin:  Cadence Allegro 16.6-P004*
G04 Origin Date:  Mon Aug 03 23:32:27 2015*
G04 *
G04 Layer:  VIA CLASS/L02_SIG1*
G04 Layer:  PIN/L02_SIG1*
G04 Layer:  ETCH/L02_SIG1*
G04 Layer:  DRAWING FORMAT/FILM_LABEL_OUTLINE*
G04 Layer:  BOARD GEOMETRY/OUTLINE*
G04 *
G04 Offset:    (0.00 0.00)*
G04 Mirror:    No*
G04 Mode:      Positive*
G04 Rotation:  0*
G04 FullContactRelief:  No*
G04 UndefLineWidth:     6.00*
G04 ================== end FILE IDENTIFICATION RECORD ====================*
%FSLAX25Y25*MOIN*%
%IR0*IPPOS*OFA0.00000B0.00000*MIA0B0*SFA1.00000B1.00000*%
%ADD13C,.02*%
%ADD11C,.032*%
%ADD12C,.06*%
%ADD27C,.07*%
%ADD19C,.0615*%
%ADD10C,.0435*%
%ADD17R,.06X.06*%
%ADD26R,.07X.07*%
%ADD15C,.05362*%
%ADD22R,.0615X.0615*%
%ADD18R,.0435X.0435*%
%ADD16R,.05362X.05362*%
%ADD20C,.03759*%
%ADD25C,.04984*%
%ADD21R,.03759X.03759*%
%ADD24R,.04984X.04984*%
%ADD23R,.05795X.05795*%
%ADD14C,.24409*%
%ADD28C,.04*%
%ADD29C,.006*%
G75*
%LPD*%
G75*
G36*
G01X70500Y-96000D02*
X47000D01*
Y-101500D01*
X46500Y-102000D01*
X44653D01*
X-3029Y-149682D01*
X-20500D01*
Y-145270D01*
X-4465D01*
X41500Y-99305D01*
Y-85701D01*
X78996D01*
G02X72086Y-97586I4502J-10569D01*
G01X70500Y-96000D01*
G37*
G36*
G01X126157Y47673D02*
X86307D01*
Y87394D01*
X126157D01*
Y47673D01*
G37*
G54D10*
X-18185Y-147500D03*
G54D20*
X48398Y76760D03*
Y81760D03*
X43398Y76760D03*
Y81760D03*
X38398Y76760D03*
Y81760D03*
X33398Y76760D03*
X58398D03*
Y81760D03*
X53398Y76760D03*
Y81760D03*
G54D11*
X-16500Y-30500D03*
X-20500Y-38500D03*
Y-34500D03*
Y-30500D03*
X22500Y16000D03*
X46000Y59500D03*
X76000Y-153000D03*
X63000Y-44500D03*
X88000Y69500D03*
X108000Y86000D03*
X92000D03*
X96000D03*
X100000D03*
X104000D03*
X88000Y85500D03*
Y73500D03*
G54D21*
X33398Y81760D03*
G54D12*
X-15500Y41760D03*
Y71760D03*
Y61760D03*
Y51760D03*
Y81760D03*
X-5500Y71760D03*
Y61760D03*
Y51760D03*
Y81760D03*
G54D22*
X64264Y-70217D03*
G54D13*
G01X532Y-118500D02*
X-6000D01*
X-20500Y-104000D01*
Y-60500D01*
X-7500Y-47500D01*
Y-29000D01*
X-20500Y-16000D01*
Y4500D01*
X11500Y36500D01*
Y59000D01*
X23500Y71000D01*
X51398D01*
X53398Y73000D01*
Y76760D01*
G01X-12441Y34559D02*
X1059D01*
X6500Y40000D01*
Y75000D01*
X-260Y81760D01*
X-5500D01*
G01X46000Y59500D02*
X28110D01*
X21610Y53000D01*
G01X95000Y-118000D02*
X125000D01*
X-12441Y34559D03*
X6984Y-129240D03*
X-6500Y-133000D03*
X532Y-118500D03*
X-7000Y-122000D03*
X-6500Y-128000D03*
X-441Y15000D03*
X16000Y58000D03*
X43000Y-98500D03*
X46000D03*
X43000Y-88500D03*
X46000D03*
X43000Y-91500D03*
X46000D03*
Y-94500D03*
X43000D03*
X59020Y-105020D03*
X94500Y-131000D03*
X95000Y-118000D03*
X94500Y-124000D03*
X122500Y-130500D03*
X123500Y-126500D03*
X125000Y-118000D03*
G54D14*
X8298Y-96270D03*
Y-65739D03*
X45898Y-8870D03*
Y21661D03*
X83498Y-96270D03*
Y-65739D03*
G54D23*
X70500Y-16600D03*
Y33400D03*
G54D24*
X51500Y46148D03*
X67500Y65834D03*
G54D15*
X-6500Y-17843D03*
X35390Y53000D03*
X100000Y-40343D03*
X107675Y-1175D03*
X97675D03*
X87675Y40175D03*
X97675D03*
X107675D03*
X117675Y-1175D03*
Y40175D03*
G54D25*
X51500Y65834D03*
X67500Y85520D03*
G54D16*
X-6500Y1842D03*
X21610Y53000D03*
X100000Y-20658D03*
X87675Y-1175D03*
G54D26*
X88500Y-142276D03*
G54D17*
X-5500Y41760D03*
G54D18*
X21185Y-147500D03*
G54D27*
X108559Y-142276D03*
G54D28*
G01X63000Y-44500D02*
X39001D01*
X12344Y-17843D01*
X-6500D01*
G01X21185Y-147500D02*
X26409Y-142276D01*
X88500D01*
G01X87675Y-1175D02*
Y16225D01*
X70500Y33400D01*
G01X51500Y46148D02*
X57752D01*
X70500Y33400D01*
G54D19*
X30236Y-70217D03*
G54D29*
G01X-23000Y89500D02*
X127098D01*
Y-158500D01*
X-23000D01*
Y89500D01*
G01X-25250Y111500D02*
Y101500D01*
X-20250D01*
G01X-12750Y111500D02*
X-13750Y111167D01*
X-14500Y110333D01*
X-15000Y109333D01*
X-15375Y108000D01*
X-15500Y106500D01*
X-15375Y105000D01*
X-15000Y103667D01*
X-14500Y102666D01*
X-13750Y101833D01*
X-12750Y101500D01*
X-11750Y101833D01*
X-11000Y102666D01*
X-10500Y103667D01*
X-10125Y105000D01*
X-10000Y106500D01*
X-10125Y108000D01*
X-10500Y109333D01*
X-11000Y110333D01*
X-11750Y111167D01*
X-12750Y111500D01*
G01X-5125Y109833D02*
X-4375Y110833D01*
X-3500Y111333D01*
X-2500Y111500D01*
X-1250Y111167D01*
X-375Y110333D01*
X-125Y109333D01*
X-250Y108333D01*
X-750Y107500D01*
X-3250Y105833D01*
X-4375Y104667D01*
X-5125Y103000D01*
X-5375Y101500D01*
X-125D01*
G01X3500Y98167D02*
X11000D01*
G01X14625Y102833D02*
X15625Y102000D01*
X16750Y101500D01*
X17750D01*
X18750Y102000D01*
X19500Y102833D01*
X19875Y104000D01*
X19625Y105166D01*
X19000Y106167D01*
X17875Y106833D01*
X16375Y107167D01*
X15500Y107833D01*
X15125Y109000D01*
X15375Y110167D01*
X16000Y111000D01*
X16875Y111500D01*
X17750D01*
X18625Y111167D01*
X19375Y110333D01*
G01X25750Y111500D02*
X28750D01*
G01X27250D02*
Y101500D01*
G01X25750D02*
X28750D01*
G01X38000Y106500D02*
X40500D01*
Y103500D01*
X39750Y102500D01*
X38875Y101833D01*
X37625Y101500D01*
X36375Y101833D01*
X35500Y102500D01*
X34750Y103500D01*
X34250Y104667D01*
X34000Y106000D01*
Y107167D01*
X34250Y108166D01*
X34750Y109333D01*
X35500Y110333D01*
X36250Y111000D01*
X37250Y111500D01*
X38125D01*
X39125Y111167D01*
X39875Y110500D01*
G01X47250Y101500D02*
Y111500D01*
X45750Y109500D01*
G01Y101500D02*
X48750D01*
G01X-24500Y119500D02*
Y129500D01*
X-22000D01*
X-21000Y129000D01*
X-20250Y128333D01*
X-19625Y127333D01*
X-19125Y126166D01*
X-19000Y124500D01*
X-19125Y122833D01*
X-19625Y121667D01*
X-20250Y120666D01*
X-21000Y120000D01*
X-22000Y119500D01*
X-24500D01*
G01X-14875D02*
X-11750Y129500D01*
X-8625Y119500D01*
G01X-9750Y123000D02*
X-13750D01*
G01X-1750Y129500D02*
Y119500D01*
G01X-4625Y129500D02*
X1125D01*
G01X10750Y119500D02*
X5750D01*
Y129500D01*
X10750D01*
G01X8750Y124667D02*
X5750D01*
G01X18250Y119167D02*
X18000Y119333D01*
Y119667D01*
X18250Y119833D01*
X18500Y119667D01*
Y119333D01*
X18250Y119167D01*
G01Y123666D02*
X18000Y123833D01*
Y124167D01*
X18250Y124333D01*
X18500Y124167D01*
Y123833D01*
X18250Y123666D01*
G01X38250Y129500D02*
X37250Y129167D01*
X36500Y128333D01*
X36000Y127333D01*
X35625Y126000D01*
X35500Y124500D01*
X35625Y123000D01*
X36000Y121667D01*
X36500Y120666D01*
X37250Y119833D01*
X38250Y119500D01*
X39250Y119833D01*
X40000Y120666D01*
X40500Y121667D01*
X40875Y123000D01*
X41000Y124500D01*
X40875Y126000D01*
X40500Y127333D01*
X40000Y128333D01*
X39250Y129167D01*
X38250Y129500D01*
G01X45500Y121500D02*
X46250Y120333D01*
X47250Y119667D01*
X48375Y119500D01*
X49375Y119667D01*
X50375Y120500D01*
X51000Y121500D01*
X51125Y122500D01*
X50875Y123666D01*
X50000Y124500D01*
X49125Y124833D01*
X48000D01*
G01X49125D02*
X49875Y125333D01*
X50500Y126166D01*
X50750Y127167D01*
X50500Y128167D01*
X49875Y129000D01*
X48750Y129500D01*
X47625Y129333D01*
X46500Y128667D01*
G01X56000Y119167D02*
X60500Y129500D01*
G01X68250D02*
X67250Y129167D01*
X66500Y128333D01*
X66000Y127333D01*
X65625Y126000D01*
X65500Y124500D01*
X65625Y123000D01*
X66000Y121667D01*
X66500Y120666D01*
X67250Y119833D01*
X68250Y119500D01*
X69250Y119833D01*
X70000Y120666D01*
X70500Y121667D01*
X70875Y123000D01*
X71000Y124500D01*
X70875Y126000D01*
X70500Y127333D01*
X70000Y128333D01*
X69250Y129167D01*
X68250Y129500D01*
G01X78250Y119500D02*
X79125Y119667D01*
X80125Y120167D01*
X80750Y121000D01*
X81000Y122167D01*
X80750Y123333D01*
X80000Y124333D01*
X78875Y124833D01*
X77625D01*
X76875Y125167D01*
X76250Y126000D01*
X76000Y127167D01*
X76375Y128333D01*
X77250Y129167D01*
X78250Y129500D01*
X79250Y129167D01*
X80125Y128333D01*
X80500Y127167D01*
X80250Y126000D01*
X79625Y125167D01*
X78875Y124833D01*
X77625D01*
X76500Y124333D01*
X75750Y123333D01*
X75500Y122167D01*
X75750Y121000D01*
X76375Y120167D01*
X77375Y119667D01*
X78250Y119500D01*
G01X86000Y119167D02*
X90500Y129500D01*
G01X95875Y127833D02*
X96625Y128833D01*
X97500Y129333D01*
X98500Y129500D01*
X99750Y129167D01*
X100625Y128333D01*
X100875Y127333D01*
X100750Y126333D01*
X100250Y125500D01*
X97750Y123833D01*
X96625Y122667D01*
X95875Y121000D01*
X95625Y119500D01*
X100875D01*
G01X108250Y129500D02*
X107250Y129167D01*
X106500Y128333D01*
X106000Y127333D01*
X105625Y126000D01*
X105500Y124500D01*
X105625Y123000D01*
X106000Y121667D01*
X106500Y120666D01*
X107250Y119833D01*
X108250Y119500D01*
X109250Y119833D01*
X110000Y120666D01*
X110500Y121667D01*
X110875Y123000D01*
X111000Y124500D01*
X110875Y126000D01*
X110500Y127333D01*
X110000Y128333D01*
X109250Y129167D01*
X108250Y129500D01*
G01X118250Y119500D02*
Y129500D01*
X116750Y127500D01*
G01Y119500D02*
X119750D01*
G01X125500Y121000D02*
X126250Y120167D01*
X127125Y119667D01*
X128250Y119500D01*
X129375Y119833D01*
X130250Y120500D01*
X130875Y121667D01*
X131000Y123000D01*
X130750Y124333D01*
X130125Y125167D01*
X129250Y125833D01*
X128375Y126000D01*
X127500Y125833D01*
X126375Y125167D01*
X126750Y129500D01*
X130125D01*
G01X-23900Y140191D02*
Y150191D01*
X-20900D01*
X-19900Y149691D01*
X-19150Y148524D01*
X-18900Y147191D01*
X-19150Y145858D01*
X-19775Y144858D01*
X-20900Y144357D01*
X-23900D01*
G01X-11400Y140191D02*
X-12400Y140358D01*
X-13275Y141024D01*
X-14025Y142024D01*
X-14525Y143191D01*
X-14775Y144524D01*
Y145858D01*
X-14525Y147191D01*
X-14025Y148358D01*
X-13275Y149358D01*
X-12400Y150024D01*
X-11400Y150191D01*
X-10400Y150024D01*
X-9525Y149358D01*
X-8775Y148358D01*
X-8275Y147191D01*
X-8025Y145858D01*
Y144524D01*
X-8275Y143191D01*
X-8775Y142024D01*
X-9525Y141024D01*
X-10400Y140358D01*
X-11400Y140191D01*
G01X-5150Y150191D02*
X-3400Y140191D01*
X-1400Y150191D01*
X600Y140191D01*
X2350Y150191D01*
G01X11100Y140191D02*
X6100D01*
Y150191D01*
X11100D01*
G01X9100Y145358D02*
X6100D01*
G01X16100Y140191D02*
Y150191D01*
X19225D01*
X20225Y149691D01*
X20850Y149024D01*
X21100Y147691D01*
X20850Y146358D01*
X20100Y145524D01*
X19225Y145024D01*
X16100D01*
G01X19225D02*
X21100Y140191D01*
G01X39600Y145524D02*
X40100Y146024D01*
X40475Y146857D01*
X40725Y148024D01*
X40475Y149024D01*
X39975Y149691D01*
X39100Y150191D01*
X35725D01*
Y140191D01*
X39850D01*
X40725Y140858D01*
X41225Y141858D01*
X41475Y143024D01*
X41225Y144191D01*
X40475Y145191D01*
X39600Y145524D01*
X35725D01*
G01X48600Y140191D02*
X47600Y140358D01*
X46725Y141024D01*
X45975Y142024D01*
X45475Y143191D01*
X45225Y144524D01*
Y145858D01*
X45475Y147191D01*
X45975Y148358D01*
X46725Y149358D01*
X47600Y150024D01*
X48600Y150191D01*
X49600Y150024D01*
X50475Y149358D01*
X51225Y148358D01*
X51725Y147191D01*
X51975Y145858D01*
Y144524D01*
X51725Y143191D01*
X51225Y142024D01*
X50475Y141024D01*
X49600Y140358D01*
X48600Y140191D01*
G01X55475D02*
X58600Y150191D01*
X61725Y140191D01*
G01X60600Y143691D02*
X56600D01*
G01X66100Y140191D02*
Y150191D01*
X69225D01*
X70225Y149691D01*
X70850Y149024D01*
X71100Y147691D01*
X70850Y146358D01*
X70100Y145524D01*
X69225Y145024D01*
X66100D01*
G01X69225D02*
X71100Y140191D01*
G01X75850D02*
Y150191D01*
X78350D01*
X79350Y149691D01*
X80100Y149024D01*
X80725Y148024D01*
X81225Y146857D01*
X81350Y145191D01*
X81225Y143524D01*
X80725Y142358D01*
X80100Y141357D01*
X79350Y140691D01*
X78350Y140191D01*
X75850D01*
G01X11517Y77500D02*
Y75000D01*
X12583D01*
G01X9634Y78674D02*
X28384D01*
Y73674D01*
X9634D01*
Y78674D01*
G01X13384Y73674D02*
Y78674D01*
G01X17134Y73674D02*
Y78674D01*
G01X18685Y77094D02*
X18845Y77344D01*
X19032Y77469D01*
X19245Y77511D01*
X19512Y77428D01*
X19699Y77219D01*
X19752Y76969D01*
X19725Y76719D01*
X19619Y76511D01*
X19085Y76094D01*
X18845Y75803D01*
X18685Y75386D01*
X18632Y75011D01*
X19752D01*
G01X24634Y73674D02*
Y78674D01*
G01X20884Y73674D02*
Y78674D01*
M02*
