G04 ================== begin FILE IDENTIFICATION RECORD ==================*
G04 Layout Name:  POWER_BOARD_03AUG15_2330.brd*
G04 Film Name:    L04_BOTTOM*
G04 File Format:  Gerber RS274X*
G04 File Origin:  Cadence Allegro 16.6-P004*
G04 Origin Date:  Mon Aug 03 23:32:27 2015*
G04 *
G04 Layer:  DRAWING FORMAT/FILM_LABEL_OUTLINE*
G04 Layer:  BOARD GEOMETRY/OUTLINE*
G04 Layer:  ETCH/BOTTOM*
G04 Layer:  PIN/BOTTOM*
G04 Layer:  VIA CLASS/BOTTOM*
G04 *
G04 Offset:    (0.00 0.00)*
G04 Mirror:    No*
G04 Mode:      Positive*
G04 Rotation:  0*
G04 FullContactRelief:  No*
G04 UndefLineWidth:     6.00*
G04 ================== end FILE IDENTIFICATION RECORD ====================*
%FSLAX25Y25*MOIN*%
%IR0*IPPOS*OFA0.00000B0.00000*MIA0B0*SFA1.00000B1.00000*%
%ADD14C,.02*%
%ADD12C,.032*%
%ADD13C,.06*%
%ADD35C,.07*%
%ADD25C,.0615*%
%ADD10C,.0435*%
%ADD20R,.06X.06*%
%ADD34R,.07X.07*%
%ADD17C,.05362*%
%ADD38R,.21063X.04528*%
%ADD28R,.0615X.0615*%
%ADD22R,.0435X.0435*%
%ADD36R,.10827X.04921*%
%ADD18R,.05362X.05362*%
%ADD26C,.03759*%
%ADD23R,.05118X.14567*%
%ADD32C,.04984*%
%ADD27R,.03759X.03759*%
%ADD31R,.04984X.04984*%
%ADD30R,.05795X.05795*%
%ADD44R,.05X.04*%
%ADD39R,.05X.06*%
%ADD41R,.05X.067*%
%ADD11R,.11024X.18504*%
%ADD42R,.0236X.0217*%
%ADD15C,.24409*%
%ADD21R,.40551X.35039*%
%ADD19R,.04331X.05709*%
%ADD24R,.05512X.09843*%
%ADD33R,.07677X.05512*%
%ADD43R,.06299X.03543*%
%ADD40R,.06614X.05984*%
%ADD16R,.09449X.05906*%
%ADD29R,.05906X.09449*%
%ADD37R,.06378X.08583*%
%ADD45C,.04*%
%ADD46C,.006*%
G75*
%LPD*%
G75*
G36*
G01X12500Y-85500D02*
X18500Y-91500D01*
Y-102000D01*
X13500Y-107000D01*
X-8492D01*
X-22279Y-93213D01*
Y-28841D01*
X-14500D01*
Y-32246D01*
X-6808D01*
Y-50494D01*
X-14500Y-58186D01*
Y-84000D01*
X-13000Y-85500D01*
X12500D01*
G37*
G36*
G01X19490Y-96270D02*
G02I-11192J0D01*
G37*
G36*
G01X4888Y-32266D02*
X16012D01*
Y-46551D01*
X20128Y-50667D01*
Y-69372D01*
X12382Y-77118D01*
X4118D01*
X-2444Y-70556D01*
Y-58968D01*
X4888Y-51636D01*
Y-32266D01*
G37*
G36*
G01X33970Y-41281D02*
Y-38092D01*
X16234Y-20356D01*
X6776D01*
Y-10359D01*
X-2742Y-841D01*
X-9180D01*
Y4527D01*
X-2765D01*
X33120Y-31358D01*
X39500D01*
Y-41281D01*
X33970D01*
G37*
G36*
G01X113094Y-154406D02*
X110038Y-157462D01*
X34462D01*
X30000Y-153000D01*
Y-119500D01*
X68500D01*
X70000Y-121000D01*
Y-148280D01*
X73050Y-151330D01*
X100448D01*
X103500Y-148278D01*
Y-80379D01*
X99793Y-76672D01*
X54476D01*
Y-66783D01*
X63717D01*
X77000Y-53500D01*
X99966D01*
X113094Y-66628D01*
Y-154406D01*
G37*
G36*
G01X35939Y-102221D02*
Y-87663D01*
X47000D01*
Y-102221D01*
X35939D01*
G37*
G36*
G01X29218Y-66788D02*
X39521D01*
Y-76641D01*
X28145D01*
X27229Y-75725D01*
Y-68777D01*
X29218Y-66788D01*
G37*
G36*
G01X36487Y28000D02*
X55500D01*
Y-16000D01*
X36487D01*
Y28000D01*
G37*
G36*
G01X95139Y-96270D02*
G02I-11641J0D01*
G37*
G36*
G01X54480Y-41375D02*
Y-31357D01*
X62898D01*
X64755Y-29500D01*
X71052D01*
Y-40343D01*
X64815Y-46580D01*
X59685D01*
X54480Y-41375D01*
G37*
G36*
G01X95855Y-29778D02*
Y-32561D01*
X102701Y-39407D01*
Y-40674D01*
X100500Y-42875D01*
X98839D01*
X95208Y-39244D01*
X89949D01*
Y-29778D01*
X95855D01*
G37*
G36*
G01X99779Y46950D02*
X94706D01*
X90000Y42244D01*
Y39000D01*
X88705Y37705D01*
X87232D01*
X81193Y43744D01*
Y49755D01*
X90755D01*
X94687Y53687D01*
X99779D01*
Y46950D01*
G37*
G54D10*
X-18185Y-147500D03*
G54D11*
X-12417Y-41500D03*
X10417D03*
G54D20*
X-5500Y41760D03*
G54D21*
X48500Y-136674D03*
G54D30*
X70500Y-16600D03*
Y33400D03*
G54D12*
X-16500Y-30500D03*
X-20500Y-38500D03*
Y-34500D03*
Y-30500D03*
X22500Y16000D03*
X46000Y59500D03*
X76000Y-153000D03*
X63000Y-44500D03*
X88000Y69500D03*
X108000Y86000D03*
X92000D03*
X96000D03*
X100000D03*
X104000D03*
X88000Y85500D03*
Y73500D03*
G54D40*
X84500Y46764D03*
Y62236D03*
G54D31*
X51500Y46148D03*
X67500Y65834D03*
G54D22*
X21185Y-147500D03*
G54D13*
X-15500Y41760D03*
Y71760D03*
Y61760D03*
Y51760D03*
Y81760D03*
X-5500Y71760D03*
Y61760D03*
Y51760D03*
Y81760D03*
G54D41*
X109279Y50300D03*
X97279D03*
G54D32*
X51500Y65834D03*
X67500Y85520D03*
G54D23*
X38500Y-94942D03*
X58500D03*
G54D14*
G01X-20500Y-30500D02*
Y36760D01*
X-15500Y41760D01*
G01X-441Y15000D02*
Y24559D01*
X11457Y36457D01*
Y42500D01*
G01X16000Y58000D02*
X29000Y71000D01*
X56398D01*
X58398Y73000D01*
Y76760D01*
G01X11457Y42500D02*
Y53457D01*
X16000Y58000D01*
G01X84500Y62236D02*
X76736D01*
X74000Y59500D01*
X46000D01*
G01X18543Y42500D02*
Y49933D01*
X21610Y53000D01*
G01X58500Y-94942D02*
Y-104500D01*
X59020Y-105020D01*
G01X67500Y85520D02*
X70020Y83000D01*
X78390D01*
G01X94500Y-131000D02*
X92594Y-132906D01*
X85500D01*
G01X94500Y-124000D02*
X91594Y-121094D01*
X85500D01*
G01X101799Y62236D02*
Y75799D01*
X107500Y81500D01*
X113110D01*
X114610Y83000D01*
G01X84500Y62236D02*
X101799D01*
G01X78390Y73000D02*
X87500D01*
X88000Y73500D01*
G01X122500Y-130500D02*
X118174Y-126174D01*
Y-122315D01*
G01X122110D02*
Y-125110D01*
X123500Y-126500D01*
G01X121500Y61799D02*
Y66000D01*
X123500Y68000D01*
Y74000D01*
G01X109279Y50300D02*
Y62236D01*
G01X114610Y83000D02*
X119000D01*
X120000Y82000D01*
X123500D01*
G01Y74000D02*
X120500D01*
X119500Y73000D01*
X114610D01*
X-12441Y34559D03*
X6984Y-129240D03*
X-6500Y-133000D03*
X532Y-118500D03*
X-7000Y-122000D03*
X-6500Y-128000D03*
X-441Y15000D03*
X16000Y58000D03*
X43000Y-98500D03*
X46000D03*
X43000Y-88500D03*
X46000D03*
X43000Y-91500D03*
X46000D03*
Y-94500D03*
X43000D03*
X59020Y-105020D03*
X94500Y-131000D03*
X95000Y-118000D03*
X94500Y-124000D03*
X122500Y-130500D03*
X123500Y-126500D03*
X125000Y-118000D03*
G54D33*
X78390Y73000D03*
Y83000D03*
X114610D03*
Y73000D03*
G54D24*
X36764Y-71717D03*
Y-36283D03*
X57236Y-71717D03*
Y-36283D03*
G54D15*
X8298Y-96270D03*
Y-65739D03*
X45898Y-8870D03*
Y21661D03*
X83498Y-96270D03*
Y-65739D03*
G54D42*
X118174Y-122365D03*
X122110D03*
G54D16*
X11500Y-17402D03*
Y7402D03*
G54D43*
X121500Y49201D03*
Y61799D03*
G54D34*
X88500Y-142276D03*
G54D25*
X30236Y-70217D03*
G54D44*
X123500Y74000D03*
Y82000D03*
G54D26*
X48398Y76760D03*
Y81760D03*
X43398Y76760D03*
Y81760D03*
X38398Y76760D03*
Y81760D03*
X33398Y76760D03*
X58398D03*
Y81760D03*
X53398Y76760D03*
Y81760D03*
G54D17*
X-6500Y-17843D03*
X35390Y53000D03*
X100000Y-40343D03*
X107675Y-1175D03*
X97675D03*
X87675Y40175D03*
X97675D03*
X107675D03*
X117675Y-1175D03*
Y40175D03*
G54D35*
X108559Y-142276D03*
G54D45*
G01X22500Y16000D02*
X13500D01*
X11500Y14000D01*
Y7402D01*
G01X108256Y-13000D02*
X105256Y-10000D01*
X77100D01*
X70500Y-16600D01*
G01X87675Y-1175D02*
X87500Y-1000D01*
Y6500D01*
X90370Y9370D01*
X102500D01*
G01X117675Y40175D02*
X117959Y39891D01*
Y33459D01*
X115130Y30630D01*
X102500D01*
G01X122744Y-13000D02*
Y-6244D01*
X117675Y-1175D01*
G01X121500Y49201D02*
Y44000D01*
X117675Y40175D01*
G54D27*
X33398Y81760D03*
G54D18*
X-6500Y1842D03*
X21610Y53000D03*
X100000Y-20658D03*
X87675Y-1175D03*
G54D36*
X85500Y-121094D03*
Y-132906D03*
G54D46*
G01X-23000Y89500D02*
X127098D01*
Y-158500D01*
X-23000D01*
Y89500D01*
G01X-25250Y111500D02*
Y101500D01*
X-20250D01*
G01X-12750Y111500D02*
X-13750Y111167D01*
X-14500Y110333D01*
X-15000Y109333D01*
X-15375Y108000D01*
X-15500Y106500D01*
X-15375Y105000D01*
X-15000Y103667D01*
X-14500Y102666D01*
X-13750Y101833D01*
X-12750Y101500D01*
X-11750Y101833D01*
X-11000Y102666D01*
X-10500Y103667D01*
X-10125Y105000D01*
X-10000Y106500D01*
X-10125Y108000D01*
X-10500Y109333D01*
X-11000Y110333D01*
X-11750Y111167D01*
X-12750Y111500D01*
G01X-1250Y101500D02*
Y111500D01*
X-5875Y104333D01*
X375D01*
G01X3500Y98167D02*
X11000D01*
G01X18250Y106833D02*
X18750Y107333D01*
X19125Y108166D01*
X19375Y109333D01*
X19125Y110333D01*
X18625Y111000D01*
X17750Y111500D01*
X14375D01*
Y101500D01*
X18500D01*
X19375Y102167D01*
X19875Y103167D01*
X20125Y104333D01*
X19875Y105500D01*
X19125Y106500D01*
X18250Y106833D01*
X14375D01*
G01X27250Y101500D02*
X26250Y101667D01*
X25375Y102333D01*
X24625Y103333D01*
X24125Y104500D01*
X23875Y105833D01*
Y107167D01*
X24125Y108500D01*
X24625Y109667D01*
X25375Y110667D01*
X26250Y111333D01*
X27250Y111500D01*
X28250Y111333D01*
X29125Y110667D01*
X29875Y109667D01*
X30375Y108500D01*
X30625Y107167D01*
Y105833D01*
X30375Y104500D01*
X29875Y103333D01*
X29125Y102333D01*
X28250Y101667D01*
X27250Y101500D01*
G01X37250Y111500D02*
Y101500D01*
G01X34375Y111500D02*
X40125D01*
G01X47250D02*
Y101500D01*
G01X44375Y111500D02*
X50125D01*
G01X57250Y101500D02*
X56250Y101667D01*
X55375Y102333D01*
X54625Y103333D01*
X54125Y104500D01*
X53875Y105833D01*
Y107167D01*
X54125Y108500D01*
X54625Y109667D01*
X55375Y110667D01*
X56250Y111333D01*
X57250Y111500D01*
X58250Y111333D01*
X59125Y110667D01*
X59875Y109667D01*
X60375Y108500D01*
X60625Y107167D01*
Y105833D01*
X60375Y104500D01*
X59875Y103333D01*
X59125Y102333D01*
X58250Y101667D01*
X57250Y101500D01*
G01X64000D02*
Y111500D01*
X67250Y103167D01*
X70500Y111500D01*
Y101500D01*
G01X-24500Y119500D02*
Y129500D01*
X-22000D01*
X-21000Y129000D01*
X-20250Y128333D01*
X-19625Y127333D01*
X-19125Y126166D01*
X-19000Y124500D01*
X-19125Y122833D01*
X-19625Y121667D01*
X-20250Y120666D01*
X-21000Y120000D01*
X-22000Y119500D01*
X-24500D01*
G01X-14875D02*
X-11750Y129500D01*
X-8625Y119500D01*
G01X-9750Y123000D02*
X-13750D01*
G01X-1750Y129500D02*
Y119500D01*
G01X-4625Y129500D02*
X1125D01*
G01X10750Y119500D02*
X5750D01*
Y129500D01*
X10750D01*
G01X8750Y124667D02*
X5750D01*
G01X18250Y119167D02*
X18000Y119333D01*
Y119667D01*
X18250Y119833D01*
X18500Y119667D01*
Y119333D01*
X18250Y119167D01*
G01Y123666D02*
X18000Y123833D01*
Y124167D01*
X18250Y124333D01*
X18500Y124167D01*
Y123833D01*
X18250Y123666D01*
G01X38250Y129500D02*
X37250Y129167D01*
X36500Y128333D01*
X36000Y127333D01*
X35625Y126000D01*
X35500Y124500D01*
X35625Y123000D01*
X36000Y121667D01*
X36500Y120666D01*
X37250Y119833D01*
X38250Y119500D01*
X39250Y119833D01*
X40000Y120666D01*
X40500Y121667D01*
X40875Y123000D01*
X41000Y124500D01*
X40875Y126000D01*
X40500Y127333D01*
X40000Y128333D01*
X39250Y129167D01*
X38250Y129500D01*
G01X45500Y121500D02*
X46250Y120333D01*
X47250Y119667D01*
X48375Y119500D01*
X49375Y119667D01*
X50375Y120500D01*
X51000Y121500D01*
X51125Y122500D01*
X50875Y123666D01*
X50000Y124500D01*
X49125Y124833D01*
X48000D01*
G01X49125D02*
X49875Y125333D01*
X50500Y126166D01*
X50750Y127167D01*
X50500Y128167D01*
X49875Y129000D01*
X48750Y129500D01*
X47625Y129333D01*
X46500Y128667D01*
G01X56000Y119167D02*
X60500Y129500D01*
G01X68250D02*
X67250Y129167D01*
X66500Y128333D01*
X66000Y127333D01*
X65625Y126000D01*
X65500Y124500D01*
X65625Y123000D01*
X66000Y121667D01*
X66500Y120666D01*
X67250Y119833D01*
X68250Y119500D01*
X69250Y119833D01*
X70000Y120666D01*
X70500Y121667D01*
X70875Y123000D01*
X71000Y124500D01*
X70875Y126000D01*
X70500Y127333D01*
X70000Y128333D01*
X69250Y129167D01*
X68250Y129500D01*
G01X78250Y119500D02*
X79125Y119667D01*
X80125Y120167D01*
X80750Y121000D01*
X81000Y122167D01*
X80750Y123333D01*
X80000Y124333D01*
X78875Y124833D01*
X77625D01*
X76875Y125167D01*
X76250Y126000D01*
X76000Y127167D01*
X76375Y128333D01*
X77250Y129167D01*
X78250Y129500D01*
X79250Y129167D01*
X80125Y128333D01*
X80500Y127167D01*
X80250Y126000D01*
X79625Y125167D01*
X78875Y124833D01*
X77625D01*
X76500Y124333D01*
X75750Y123333D01*
X75500Y122167D01*
X75750Y121000D01*
X76375Y120167D01*
X77375Y119667D01*
X78250Y119500D01*
G01X86000Y119167D02*
X90500Y129500D01*
G01X95875Y127833D02*
X96625Y128833D01*
X97500Y129333D01*
X98500Y129500D01*
X99750Y129167D01*
X100625Y128333D01*
X100875Y127333D01*
X100750Y126333D01*
X100250Y125500D01*
X97750Y123833D01*
X96625Y122667D01*
X95875Y121000D01*
X95625Y119500D01*
X100875D01*
G01X108250Y129500D02*
X107250Y129167D01*
X106500Y128333D01*
X106000Y127333D01*
X105625Y126000D01*
X105500Y124500D01*
X105625Y123000D01*
X106000Y121667D01*
X106500Y120666D01*
X107250Y119833D01*
X108250Y119500D01*
X109250Y119833D01*
X110000Y120666D01*
X110500Y121667D01*
X110875Y123000D01*
X111000Y124500D01*
X110875Y126000D01*
X110500Y127333D01*
X110000Y128333D01*
X109250Y129167D01*
X108250Y129500D01*
G01X118250Y119500D02*
Y129500D01*
X116750Y127500D01*
G01Y119500D02*
X119750D01*
G01X125500Y121000D02*
X126250Y120167D01*
X127125Y119667D01*
X128250Y119500D01*
X129375Y119833D01*
X130250Y120500D01*
X130875Y121667D01*
X131000Y123000D01*
X130750Y124333D01*
X130125Y125167D01*
X129250Y125833D01*
X128375Y126000D01*
X127500Y125833D01*
X126375Y125167D01*
X126750Y129500D01*
X130125D01*
G01X-23900Y140191D02*
Y150191D01*
X-20900D01*
X-19900Y149691D01*
X-19150Y148524D01*
X-18900Y147191D01*
X-19150Y145858D01*
X-19775Y144858D01*
X-20900Y144357D01*
X-23900D01*
G01X-11400Y140191D02*
X-12400Y140358D01*
X-13275Y141024D01*
X-14025Y142024D01*
X-14525Y143191D01*
X-14775Y144524D01*
Y145858D01*
X-14525Y147191D01*
X-14025Y148358D01*
X-13275Y149358D01*
X-12400Y150024D01*
X-11400Y150191D01*
X-10400Y150024D01*
X-9525Y149358D01*
X-8775Y148358D01*
X-8275Y147191D01*
X-8025Y145858D01*
Y144524D01*
X-8275Y143191D01*
X-8775Y142024D01*
X-9525Y141024D01*
X-10400Y140358D01*
X-11400Y140191D01*
G01X-5150Y150191D02*
X-3400Y140191D01*
X-1400Y150191D01*
X600Y140191D01*
X2350Y150191D01*
G01X11100Y140191D02*
X6100D01*
Y150191D01*
X11100D01*
G01X9100Y145358D02*
X6100D01*
G01X16100Y140191D02*
Y150191D01*
X19225D01*
X20225Y149691D01*
X20850Y149024D01*
X21100Y147691D01*
X20850Y146358D01*
X20100Y145524D01*
X19225Y145024D01*
X16100D01*
G01X19225D02*
X21100Y140191D01*
G01X39600Y145524D02*
X40100Y146024D01*
X40475Y146857D01*
X40725Y148024D01*
X40475Y149024D01*
X39975Y149691D01*
X39100Y150191D01*
X35725D01*
Y140191D01*
X39850D01*
X40725Y140858D01*
X41225Y141858D01*
X41475Y143024D01*
X41225Y144191D01*
X40475Y145191D01*
X39600Y145524D01*
X35725D01*
G01X48600Y140191D02*
X47600Y140358D01*
X46725Y141024D01*
X45975Y142024D01*
X45475Y143191D01*
X45225Y144524D01*
Y145858D01*
X45475Y147191D01*
X45975Y148358D01*
X46725Y149358D01*
X47600Y150024D01*
X48600Y150191D01*
X49600Y150024D01*
X50475Y149358D01*
X51225Y148358D01*
X51725Y147191D01*
X51975Y145858D01*
Y144524D01*
X51725Y143191D01*
X51225Y142024D01*
X50475Y141024D01*
X49600Y140358D01*
X48600Y140191D01*
G01X55475D02*
X58600Y150191D01*
X61725Y140191D01*
G01X60600Y143691D02*
X56600D01*
G01X66100Y140191D02*
Y150191D01*
X69225D01*
X70225Y149691D01*
X70850Y149024D01*
X71100Y147691D01*
X70850Y146358D01*
X70100Y145524D01*
X69225Y145024D01*
X66100D01*
G01X69225D02*
X71100Y140191D01*
G01X75850D02*
Y150191D01*
X78350D01*
X79350Y149691D01*
X80100Y149024D01*
X80725Y148024D01*
X81225Y146857D01*
X81350Y145191D01*
X81225Y143524D01*
X80725Y142358D01*
X80100Y141357D01*
X79350Y140691D01*
X78350Y140191D01*
X75850D01*
G01X11314Y74940D02*
Y77440D01*
X12301Y75648D01*
X10967D01*
G01X13384Y73674D02*
Y78674D01*
G01X9634D02*
X28384D01*
Y73674D01*
X9634D01*
Y78674D01*
G01X17134Y73674D02*
Y78674D01*
G01X26817Y77540D02*
Y75040D01*
X25751D01*
G01X20884Y73674D02*
Y78674D01*
G01X24634Y73674D02*
Y78674D01*
G54D37*
X108256Y-13000D03*
X122744D03*
G54D19*
X18543Y42500D03*
X11457D03*
G54D28*
X64264Y-70217D03*
G54D29*
X68098Y-34500D03*
X92902D03*
G54D38*
X102500Y9370D03*
Y30630D03*
G54D39*
X101799Y62236D03*
X109279D03*
M02*
