G04 ================== begin FILE IDENTIFICATION RECORD ==================*
G04 Layout Name:  POWER_BOARD_03AUG15_2330.brd*
G04 Film Name:    PMB*
G04 File Format:  Gerber RS274X*
G04 File Origin:  Cadence Allegro 16.6-P004*
G04 Origin Date:  Mon Aug 03 23:32:27 2015*
G04 *
G04 Layer:  DRAWING FORMAT/FILM_LABEL_OUTLINE*
G04 Layer:  PIN/PASTEMASK_BOTTOM*
G04 Layer:  PACKAGE GEOMETRY/PASTEMASK_BOTTOM*
G04 Layer:  BOARD GEOMETRY/OUTLINE*
G04 *
G04 Offset:    (0.00 0.00)*
G04 Mirror:    No*
G04 Mode:      Positive*
G04 Rotation:  0*
G04 FullContactRelief:  No*
G04 UndefLineWidth:     6.00*
G04 ================== end FILE IDENTIFICATION RECORD ====================*
%FSLAX25Y25*MOIN*%
%IR0*IPPOS*OFA0.00000B0.00000*MIA0B0*SFA1.00000B1.00000*%
%ADD20R,.21063X.04528*%
%ADD18R,.10827X.04921*%
%ADD14R,.05118X.14567*%
%ADD26R,.05X.04*%
%ADD21R,.05X.06*%
%ADD23R,.05X.067*%
%ADD10R,.11024X.18504*%
%ADD24R,.0236X.0217*%
%ADD13R,.40551X.35039*%
%ADD12R,.04331X.05709*%
%ADD15R,.05512X.09843*%
%ADD17R,.07677X.05512*%
%ADD25R,.06299X.03543*%
%ADD22R,.06614X.05984*%
%ADD11R,.09449X.05906*%
%ADD16R,.05906X.09449*%
%ADD19R,.06378X.08583*%
%ADD27C,.006*%
%ADD28C,.16614*%
G75*
%LPD*%
G75*
G36*
G01X20503Y-96270D02*
G03I-12205J0D01*
G37*
G36*
G01X58103Y-8870D02*
G03I-12205J0D01*
G37*
G36*
G01X95703Y-96270D02*
G03I-12205J0D01*
G37*
%LPC*%
G75*
G54D28*
X8298Y-96270D03*
X45898Y-8870D03*
X83498Y-96270D03*
%LPD*%
G75*
G54D10*
X-12417Y-41500D03*
X10417D03*
G54D11*
X11500Y-17402D03*
Y7402D03*
G54D20*
X102500Y9370D03*
Y30630D03*
G54D12*
X18543Y42500D03*
X11457D03*
G54D21*
X101799Y62236D03*
X109279D03*
G54D22*
X84500Y46764D03*
Y62236D03*
G54D13*
X48500Y-136674D03*
G54D23*
X109279Y50300D03*
X97279D03*
G54D14*
X38500Y-94942D03*
X58500D03*
G54D15*
X36764Y-71717D03*
Y-36283D03*
X57236Y-71717D03*
Y-36283D03*
G54D24*
X118174Y-122365D03*
X122110D03*
G54D16*
X68098Y-34500D03*
X92902D03*
G54D25*
X121500Y49201D03*
Y61799D03*
G54D17*
X78390Y73000D03*
Y83000D03*
X114610D03*
Y73000D03*
G54D26*
X123500Y74000D03*
Y82000D03*
G54D27*
G01X-23000Y89500D02*
X127098D01*
Y-158500D01*
X-23000D01*
Y89500D01*
G01X-25250Y101000D02*
Y111000D01*
X-22250D01*
X-21250Y110500D01*
X-20500Y109333D01*
X-20250Y108000D01*
X-20500Y106667D01*
X-21125Y105667D01*
X-22250Y105166D01*
X-25250D01*
G01X-15875Y101000D02*
X-12750Y111000D01*
X-9625Y101000D01*
G01X-10750Y104500D02*
X-14750D01*
G01X-5375Y102333D02*
X-4375Y101500D01*
X-3250Y101000D01*
X-2250D01*
X-1250Y101500D01*
X-500Y102333D01*
X-125Y103500D01*
X-375Y104666D01*
X-1000Y105667D01*
X-2125Y106333D01*
X-3625Y106667D01*
X-4500Y107333D01*
X-4875Y108500D01*
X-4625Y109667D01*
X-4000Y110500D01*
X-3125Y111000D01*
X-2250D01*
X-1375Y110667D01*
X-625Y109833D01*
G01X7250Y111000D02*
Y101000D01*
G01X4375Y111000D02*
X10125D01*
G01X19750Y101000D02*
X14750D01*
Y111000D01*
X19750D01*
G01X17750Y106167D02*
X14750D01*
G01X24000Y101000D02*
Y111000D01*
X27250Y102667D01*
X30500Y111000D01*
Y101000D01*
G01X34125D02*
X37250Y111000D01*
X40375Y101000D01*
G01X39250Y104500D02*
X35250D01*
G01X44625Y102333D02*
X45625Y101500D01*
X46750Y101000D01*
X47750D01*
X48750Y101500D01*
X49500Y102333D01*
X49875Y103500D01*
X49625Y104666D01*
X49000Y105667D01*
X47875Y106333D01*
X46375Y106667D01*
X45500Y107333D01*
X45125Y108500D01*
X45375Y109667D01*
X46000Y110500D01*
X46875Y111000D01*
X47750D01*
X48625Y110667D01*
X49375Y109833D01*
G01X54500Y101000D02*
Y111000D01*
G01X59250D02*
X54500Y104833D01*
G01X60000Y101000D02*
X56625Y107666D01*
G01X78250Y106333D02*
X78750Y106833D01*
X79125Y107666D01*
X79375Y108833D01*
X79125Y109833D01*
X78625Y110500D01*
X77750Y111000D01*
X74375D01*
Y101000D01*
X78500D01*
X79375Y101667D01*
X79875Y102667D01*
X80125Y103833D01*
X79875Y105000D01*
X79125Y106000D01*
X78250Y106333D01*
X74375D01*
G01X87250Y101000D02*
X86250Y101167D01*
X85375Y101833D01*
X84625Y102833D01*
X84125Y104000D01*
X83875Y105333D01*
Y106667D01*
X84125Y108000D01*
X84625Y109167D01*
X85375Y110167D01*
X86250Y110833D01*
X87250Y111000D01*
X88250Y110833D01*
X89125Y110167D01*
X89875Y109167D01*
X90375Y108000D01*
X90625Y106667D01*
Y105333D01*
X90375Y104000D01*
X89875Y102833D01*
X89125Y101833D01*
X88250Y101167D01*
X87250Y101000D01*
G01X97250Y111000D02*
Y101000D01*
G01X94375Y111000D02*
X100125D01*
G01X107250D02*
Y101000D01*
G01X104375Y111000D02*
X110125D01*
G01X117250Y101000D02*
X116250Y101167D01*
X115375Y101833D01*
X114625Y102833D01*
X114125Y104000D01*
X113875Y105333D01*
Y106667D01*
X114125Y108000D01*
X114625Y109167D01*
X115375Y110167D01*
X116250Y110833D01*
X117250Y111000D01*
X118250Y110833D01*
X119125Y110167D01*
X119875Y109167D01*
X120375Y108000D01*
X120625Y106667D01*
Y105333D01*
X120375Y104000D01*
X119875Y102833D01*
X119125Y101833D01*
X118250Y101167D01*
X117250Y101000D01*
G01X124000D02*
Y111000D01*
X127250Y102667D01*
X130500Y111000D01*
Y101000D01*
G01X-24500Y119500D02*
Y129500D01*
X-22000D01*
X-21000Y129000D01*
X-20250Y128333D01*
X-19625Y127333D01*
X-19125Y126166D01*
X-19000Y124500D01*
X-19125Y122833D01*
X-19625Y121667D01*
X-20250Y120666D01*
X-21000Y120000D01*
X-22000Y119500D01*
X-24500D01*
G01X-14875D02*
X-11750Y129500D01*
X-8625Y119500D01*
G01X-9750Y123000D02*
X-13750D01*
G01X-1750Y129500D02*
Y119500D01*
G01X-4625Y129500D02*
X1125D01*
G01X10750Y119500D02*
X5750D01*
Y129500D01*
X10750D01*
G01X8750Y124667D02*
X5750D01*
G01X18250Y119167D02*
X18000Y119333D01*
Y119667D01*
X18250Y119833D01*
X18500Y119667D01*
Y119333D01*
X18250Y119167D01*
G01Y123666D02*
X18000Y123833D01*
Y124167D01*
X18250Y124333D01*
X18500Y124167D01*
Y123833D01*
X18250Y123666D01*
G01X38250Y129500D02*
X37250Y129167D01*
X36500Y128333D01*
X36000Y127333D01*
X35625Y126000D01*
X35500Y124500D01*
X35625Y123000D01*
X36000Y121667D01*
X36500Y120666D01*
X37250Y119833D01*
X38250Y119500D01*
X39250Y119833D01*
X40000Y120666D01*
X40500Y121667D01*
X40875Y123000D01*
X41000Y124500D01*
X40875Y126000D01*
X40500Y127333D01*
X40000Y128333D01*
X39250Y129167D01*
X38250Y129500D01*
G01X45500Y121500D02*
X46250Y120333D01*
X47250Y119667D01*
X48375Y119500D01*
X49375Y119667D01*
X50375Y120500D01*
X51000Y121500D01*
X51125Y122500D01*
X50875Y123666D01*
X50000Y124500D01*
X49125Y124833D01*
X48000D01*
G01X49125D02*
X49875Y125333D01*
X50500Y126166D01*
X50750Y127167D01*
X50500Y128167D01*
X49875Y129000D01*
X48750Y129500D01*
X47625Y129333D01*
X46500Y128667D01*
G01X56000Y119167D02*
X60500Y129500D01*
G01X68250D02*
X67250Y129167D01*
X66500Y128333D01*
X66000Y127333D01*
X65625Y126000D01*
X65500Y124500D01*
X65625Y123000D01*
X66000Y121667D01*
X66500Y120666D01*
X67250Y119833D01*
X68250Y119500D01*
X69250Y119833D01*
X70000Y120666D01*
X70500Y121667D01*
X70875Y123000D01*
X71000Y124500D01*
X70875Y126000D01*
X70500Y127333D01*
X70000Y128333D01*
X69250Y129167D01*
X68250Y129500D01*
G01X78250Y119500D02*
X79125Y119667D01*
X80125Y120167D01*
X80750Y121000D01*
X81000Y122167D01*
X80750Y123333D01*
X80000Y124333D01*
X78875Y124833D01*
X77625D01*
X76875Y125167D01*
X76250Y126000D01*
X76000Y127167D01*
X76375Y128333D01*
X77250Y129167D01*
X78250Y129500D01*
X79250Y129167D01*
X80125Y128333D01*
X80500Y127167D01*
X80250Y126000D01*
X79625Y125167D01*
X78875Y124833D01*
X77625D01*
X76500Y124333D01*
X75750Y123333D01*
X75500Y122167D01*
X75750Y121000D01*
X76375Y120167D01*
X77375Y119667D01*
X78250Y119500D01*
G01X86000Y119167D02*
X90500Y129500D01*
G01X95875Y127833D02*
X96625Y128833D01*
X97500Y129333D01*
X98500Y129500D01*
X99750Y129167D01*
X100625Y128333D01*
X100875Y127333D01*
X100750Y126333D01*
X100250Y125500D01*
X97750Y123833D01*
X96625Y122667D01*
X95875Y121000D01*
X95625Y119500D01*
X100875D01*
G01X108250Y129500D02*
X107250Y129167D01*
X106500Y128333D01*
X106000Y127333D01*
X105625Y126000D01*
X105500Y124500D01*
X105625Y123000D01*
X106000Y121667D01*
X106500Y120666D01*
X107250Y119833D01*
X108250Y119500D01*
X109250Y119833D01*
X110000Y120666D01*
X110500Y121667D01*
X110875Y123000D01*
X111000Y124500D01*
X110875Y126000D01*
X110500Y127333D01*
X110000Y128333D01*
X109250Y129167D01*
X108250Y129500D01*
G01X118250Y119500D02*
Y129500D01*
X116750Y127500D01*
G01Y119500D02*
X119750D01*
G01X125500Y121000D02*
X126250Y120167D01*
X127125Y119667D01*
X128250Y119500D01*
X129375Y119833D01*
X130250Y120500D01*
X130875Y121667D01*
X131000Y123000D01*
X130750Y124333D01*
X130125Y125167D01*
X129250Y125833D01*
X128375Y126000D01*
X127500Y125833D01*
X126375Y125167D01*
X126750Y129500D01*
X130125D01*
G01X-23900Y140191D02*
Y150191D01*
X-20900D01*
X-19900Y149691D01*
X-19150Y148524D01*
X-18900Y147191D01*
X-19150Y145858D01*
X-19775Y144858D01*
X-20900Y144357D01*
X-23900D01*
G01X-11400Y140191D02*
X-12400Y140358D01*
X-13275Y141024D01*
X-14025Y142024D01*
X-14525Y143191D01*
X-14775Y144524D01*
Y145858D01*
X-14525Y147191D01*
X-14025Y148358D01*
X-13275Y149358D01*
X-12400Y150024D01*
X-11400Y150191D01*
X-10400Y150024D01*
X-9525Y149358D01*
X-8775Y148358D01*
X-8275Y147191D01*
X-8025Y145858D01*
Y144524D01*
X-8275Y143191D01*
X-8775Y142024D01*
X-9525Y141024D01*
X-10400Y140358D01*
X-11400Y140191D01*
G01X-5150Y150191D02*
X-3400Y140191D01*
X-1400Y150191D01*
X600Y140191D01*
X2350Y150191D01*
G01X11100Y140191D02*
X6100D01*
Y150191D01*
X11100D01*
G01X9100Y145358D02*
X6100D01*
G01X16100Y140191D02*
Y150191D01*
X19225D01*
X20225Y149691D01*
X20850Y149024D01*
X21100Y147691D01*
X20850Y146358D01*
X20100Y145524D01*
X19225Y145024D01*
X16100D01*
G01X19225D02*
X21100Y140191D01*
G01X39600Y145524D02*
X40100Y146024D01*
X40475Y146857D01*
X40725Y148024D01*
X40475Y149024D01*
X39975Y149691D01*
X39100Y150191D01*
X35725D01*
Y140191D01*
X39850D01*
X40725Y140858D01*
X41225Y141858D01*
X41475Y143024D01*
X41225Y144191D01*
X40475Y145191D01*
X39600Y145524D01*
X35725D01*
G01X48600Y140191D02*
X47600Y140358D01*
X46725Y141024D01*
X45975Y142024D01*
X45475Y143191D01*
X45225Y144524D01*
Y145858D01*
X45475Y147191D01*
X45975Y148358D01*
X46725Y149358D01*
X47600Y150024D01*
X48600Y150191D01*
X49600Y150024D01*
X50475Y149358D01*
X51225Y148358D01*
X51725Y147191D01*
X51975Y145858D01*
Y144524D01*
X51725Y143191D01*
X51225Y142024D01*
X50475Y141024D01*
X49600Y140358D01*
X48600Y140191D01*
G01X55475D02*
X58600Y150191D01*
X61725Y140191D01*
G01X60600Y143691D02*
X56600D01*
G01X66100Y140191D02*
Y150191D01*
X69225D01*
X70225Y149691D01*
X70850Y149024D01*
X71100Y147691D01*
X70850Y146358D01*
X70100Y145524D01*
X69225Y145024D01*
X66100D01*
G01X69225D02*
X71100Y140191D01*
G01X75850D02*
Y150191D01*
X78350D01*
X79350Y149691D01*
X80100Y149024D01*
X80725Y148024D01*
X81225Y146857D01*
X81350Y145191D01*
X81225Y143524D01*
X80725Y142358D01*
X80100Y141357D01*
X79350Y140691D01*
X78350Y140191D01*
X75850D01*
G54D18*
X85500Y-121094D03*
Y-132906D03*
G54D19*
X108256Y-13000D03*
X122744D03*
M02*
