M48
INCH,LZ
T01C.01
T02C.016
T03C.02362
T04C.02559
T05C.02984
T06C.03362
T07C.03795
T08C.04
T09C.0415
T10C.05
T11C.125
T12C.16535
;LEADER: 12 
;HEADER: 
;CODE  : ASCII 
;FILE  : POWER_BOARD_03AUG15_2330-1-4.drl for  ... layers TOP and BOTTOM
;T01 Holesize 1. = 10.000000 Tolerance = +3.000000/-3.000000 PLATED MILS Quantity = 23
;T02 Holesize 2. = 16.000000 Tolerance = +3.000000/-3.000000 PLATED MILS Quantity = 16
;T03 Holesize 3. = 23.620000 Tolerance = +3.000000/-3.000000 PLATED MILS Quantity = 2
;T04 Holesize 4. = 25.590000 Tolerance = +3.000000/-3.000000 PLATED MILS Quantity = 12
;T05 Holesize 5. = 29.840000 Tolerance = +3.000000/-3.000000 PLATED MILS Quantity = 4
;T06 Holesize 6. = 33.620000 Tolerance = +0.000000/-0.000000 PLATED MILS Quantity = 14
;T07 Holesize 7. = 37.950000 Tolerance = +3.000000/-3.000000 PLATED MILS Quantity = 2
;T08 Holesize 8. = 40.000000 Tolerance = +3.000000/-3.000000 PLATED MILS Quantity = 10
;T09 Holesize 9. = 41.500000 Tolerance = +3.000000/-3.000000 PLATED MILS Quantity = 2
;T10 Holesize 10. = 50.000000 Tolerance = +3.000000/-3.000000 PLATED MILS Quantity = 2
;T11 Holesize 11. = 125.000000 Tolerance = +3.000000/-3.000000 PLATED MILS Quantity = 3
;T12 Holesize 12. = 165.350000 Tolerance = +3.000000/-3.000000 PLATED MILS Quantity = 3
%
G90
T01
X00945Y-0124
X-00065Y-0128
X-0007Y-0122
X0125Y-0118
X0095
X01235Y-01265
X0000532Y-01185
X-00065Y-0133
X01225Y-01305
X0016Y0058
X-0000441Y0015
X005902Y-010502
X0006984Y-012924
X00945Y-0131
X-0012441Y0034559
X0043Y-00945
X0046
Y-00915
X0043
X0046Y-00885
X0043
X0046Y-00985
X0043
T02
X0088Y00695
Y00735
Y00855
X0104Y0086
R03X-0004
X0108
X0063Y-00445
X00225Y0016
X0046Y00595
X0076Y-0153
X-00205Y-00305
R02Y-0004
X-00165Y-00305
T03
X0021185Y-01475
X-0018185
T04
X0033398Y008176
Y007676
X0038398Y008176
Y007676
X0043398Y008176
Y007676
X0048398Y008176
Y007676
X0053398Y008176
Y007676
X0058398Y008176
Y007676
T05
X00515Y0046148
Y0065834
X00675
Y008552
T06
X-00065Y0001842
Y-0017843
X002161Y0053
X003539
X01Y-0020658
Y-0040343
X0087675Y-0001175
R03X001
Y0040175
R03X-001
T07
X00705Y00334
Y-00166
T08
X-00055Y004176
X-00155
X-00055Y005176
X-00155
X-00055Y006176
X-00155
X-00055Y007176
X-00155
X-00055Y008176
X-00155
T09
X0064264Y-0070217
X0030236
T10
X00885Y-0142276
X0108559
T11
X0008298Y-0065739
X0045898Y0021661
X0083498Y-0065739
T12
X0008298Y-009627
X0045898Y-000887
X0083498Y-009627
M30
