G04 ================== begin FILE IDENTIFICATION RECORD ==================*
G04 Layout Name:  POWER_BOARD_03AUG15_2330.brd*
G04 Film Name:    SMT*
G04 File Format:  Gerber RS274X*
G04 File Origin:  Cadence Allegro 16.6-P004*
G04 Origin Date:  Mon Aug 03 23:32:27 2015*
G04 *
G04 Layer:  DRAWING FORMAT/FILM_LABEL_OUTLINE*
G04 Layer:  VIA CLASS/SOLDERMASK_TOP*
G04 Layer:  PIN/SOLDERMASK_TOP*
G04 Layer:  PACKAGE GEOMETRY/SOLDERMASK_TOP*
G04 Layer:  BOARD GEOMETRY/OUTLINE*
G04 *
G04 Offset:    (0.00 0.00)*
G04 Mirror:    No*
G04 Mode:      Positive*
G04 Rotation:  0*
G04 FullContactRelief:  No*
G04 UndefLineWidth:     6.00*
G04 ================== end FILE IDENTIFICATION RECORD ====================*
%FSLAX25Y25*MOIN*%
%IR0*IPPOS*OFA0.00000B0.00000*MIA0B0*SFA1.00000B1.00000*%
%ADD36C,.074*%
%ADD12C,.065*%
%ADD37R,.05521X.11427*%
%AMMACRO18*
21,1,.10636,.11817,0.0,0.0,135.*%
%ADD18MACRO18*%
%ADD11R,.11427X.05521*%
%ADD24C,.0655*%
%ADD10C,.0475*%
%ADD35R,.074X.074*%
%ADD21R,.065X.065*%
%ADD25C,.04159*%
%ADD33C,.05384*%
%ADD19C,.05762*%
%ADD29R,.0655X.0655*%
%ADD23R,.0475X.0475*%
%ADD26R,.04159X.04159*%
%ADD32R,.05384X.05384*%
%ADD20R,.05762X.05762*%
%ADD30R,.06187X.06187*%
%ADD28R,.038X.034*%
%ADD13R,.054X.071*%
%ADD16R,.034X.038*%
%ADD27R,.046X.064*%
%ADD14R,.0611X.0454*%
%ADD31R,.068X.049*%
%ADD39R,.03156X.01384*%
%ADD17C,.24809*%
%ADD38R,.22093X.32487*%
%ADD15R,.02754X.02564*%
%ADD34O,.06699X.03156*%
%ADD22R,.07687X.06506*%
%ADD40R,.06896X.05715*%
%ADD41C,.006*%
G75*
%LPD*%
G75*
G54D10*
X-18185Y-147500D03*
G54D20*
X-6500Y1842D03*
X21610Y53000D03*
X100000Y-20658D03*
X87675Y-1175D03*
G54D11*
X-16500Y-108906D03*
Y-130906D03*
Y-119094D03*
Y-86906D03*
Y-97094D03*
Y-75094D03*
Y-65051D03*
Y-53239D03*
G54D30*
X70500Y-16600D03*
Y33400D03*
G54D21*
X-5500Y41760D03*
G54D12*
X-15500D03*
Y71760D03*
Y61760D03*
Y51760D03*
Y81760D03*
X-5500Y71760D03*
Y61760D03*
Y51760D03*
Y81760D03*
G54D40*
X116500Y-118000D03*
G54D22*
X49020Y-147217D03*
X39020D03*
Y-111783D03*
X49020D03*
X59020Y-147217D03*
Y-111783D03*
G54D31*
X59500Y56750D03*
Y67250D03*
G54D13*
X-12441Y29000D03*
Y19500D03*
X-441Y29000D03*
Y19500D03*
G54D41*
G01X-23000Y89500D02*
X127098D01*
Y-158500D01*
X-23000D01*
Y89500D01*
G01X-25375Y102333D02*
X-24375Y101500D01*
X-23250Y101000D01*
X-22250D01*
X-21250Y101500D01*
X-20500Y102333D01*
X-20125Y103500D01*
X-20375Y104666D01*
X-21000Y105667D01*
X-22125Y106333D01*
X-23625Y106667D01*
X-24500Y107333D01*
X-24875Y108500D01*
X-24625Y109667D01*
X-24000Y110500D01*
X-23125Y111000D01*
X-22250D01*
X-21375Y110667D01*
X-20625Y109833D01*
G01X-12750Y101000D02*
X-13750Y101167D01*
X-14625Y101833D01*
X-15375Y102833D01*
X-15875Y104000D01*
X-16125Y105333D01*
Y106667D01*
X-15875Y108000D01*
X-15375Y109167D01*
X-14625Y110167D01*
X-13750Y110833D01*
X-12750Y111000D01*
X-11750Y110833D01*
X-10875Y110167D01*
X-10125Y109167D01*
X-9625Y108000D01*
X-9375Y106667D01*
Y105333D01*
X-9625Y104000D01*
X-10125Y102833D01*
X-10875Y101833D01*
X-11750Y101167D01*
X-12750Y101000D01*
G01X-5250Y111000D02*
Y101000D01*
X-250D01*
G01X4500D02*
Y111000D01*
X7000D01*
X8000Y110500D01*
X8750Y109833D01*
X9375Y108833D01*
X9875Y107666D01*
X10000Y106000D01*
X9875Y104333D01*
X9375Y103167D01*
X8750Y102166D01*
X8000Y101500D01*
X7000Y101000D01*
X4500D01*
G01X19750D02*
X14750D01*
Y111000D01*
X19750D01*
G01X17750Y106167D02*
X14750D01*
G01X24750Y101000D02*
Y111000D01*
X27875D01*
X28875Y110500D01*
X29500Y109833D01*
X29750Y108500D01*
X29500Y107167D01*
X28750Y106333D01*
X27875Y105833D01*
X24750D01*
G01X27875D02*
X29750Y101000D01*
G01X34000D02*
Y111000D01*
X37250Y102667D01*
X40500Y111000D01*
Y101000D01*
G01X44125D02*
X47250Y111000D01*
X50375Y101000D01*
G01X49250Y104500D02*
X45250D01*
G01X54625Y102333D02*
X55625Y101500D01*
X56750Y101000D01*
X57750D01*
X58750Y101500D01*
X59500Y102333D01*
X59875Y103500D01*
X59625Y104666D01*
X59000Y105667D01*
X57875Y106333D01*
X56375Y106667D01*
X55500Y107333D01*
X55125Y108500D01*
X55375Y109667D01*
X56000Y110500D01*
X56875Y111000D01*
X57750D01*
X58625Y110667D01*
X59375Y109833D01*
G01X64500Y101000D02*
Y111000D01*
G01X69250D02*
X64500Y104833D01*
G01X70000Y101000D02*
X66625Y107666D01*
G01X87250Y111000D02*
Y101000D01*
G01X84375Y111000D02*
X90125D01*
G01X97250Y101000D02*
X96250Y101167D01*
X95375Y101833D01*
X94625Y102833D01*
X94125Y104000D01*
X93875Y105333D01*
Y106667D01*
X94125Y108000D01*
X94625Y109167D01*
X95375Y110167D01*
X96250Y110833D01*
X97250Y111000D01*
X98250Y110833D01*
X99125Y110167D01*
X99875Y109167D01*
X100375Y108000D01*
X100625Y106667D01*
Y105333D01*
X100375Y104000D01*
X99875Y102833D01*
X99125Y101833D01*
X98250Y101167D01*
X97250Y101000D01*
G01X104750D02*
Y111000D01*
X107750D01*
X108750Y110500D01*
X109500Y109333D01*
X109750Y108000D01*
X109500Y106667D01*
X108875Y105667D01*
X107750Y105166D01*
X104750D01*
G01X-24500Y119500D02*
Y129500D01*
X-22000D01*
X-21000Y129000D01*
X-20250Y128333D01*
X-19625Y127333D01*
X-19125Y126166D01*
X-19000Y124500D01*
X-19125Y122833D01*
X-19625Y121667D01*
X-20250Y120666D01*
X-21000Y120000D01*
X-22000Y119500D01*
X-24500D01*
G01X-14875D02*
X-11750Y129500D01*
X-8625Y119500D01*
G01X-9750Y123000D02*
X-13750D01*
G01X-1750Y129500D02*
Y119500D01*
G01X-4625Y129500D02*
X1125D01*
G01X10750Y119500D02*
X5750D01*
Y129500D01*
X10750D01*
G01X8750Y124667D02*
X5750D01*
G01X18250Y119167D02*
X18000Y119333D01*
Y119667D01*
X18250Y119833D01*
X18500Y119667D01*
Y119333D01*
X18250Y119167D01*
G01Y123666D02*
X18000Y123833D01*
Y124167D01*
X18250Y124333D01*
X18500Y124167D01*
Y123833D01*
X18250Y123666D01*
G01X38250Y129500D02*
X37250Y129167D01*
X36500Y128333D01*
X36000Y127333D01*
X35625Y126000D01*
X35500Y124500D01*
X35625Y123000D01*
X36000Y121667D01*
X36500Y120666D01*
X37250Y119833D01*
X38250Y119500D01*
X39250Y119833D01*
X40000Y120666D01*
X40500Y121667D01*
X40875Y123000D01*
X41000Y124500D01*
X40875Y126000D01*
X40500Y127333D01*
X40000Y128333D01*
X39250Y129167D01*
X38250Y129500D01*
G01X45500Y121500D02*
X46250Y120333D01*
X47250Y119667D01*
X48375Y119500D01*
X49375Y119667D01*
X50375Y120500D01*
X51000Y121500D01*
X51125Y122500D01*
X50875Y123666D01*
X50000Y124500D01*
X49125Y124833D01*
X48000D01*
G01X49125D02*
X49875Y125333D01*
X50500Y126166D01*
X50750Y127167D01*
X50500Y128167D01*
X49875Y129000D01*
X48750Y129500D01*
X47625Y129333D01*
X46500Y128667D01*
G01X56000Y119167D02*
X60500Y129500D01*
G01X68250D02*
X67250Y129167D01*
X66500Y128333D01*
X66000Y127333D01*
X65625Y126000D01*
X65500Y124500D01*
X65625Y123000D01*
X66000Y121667D01*
X66500Y120666D01*
X67250Y119833D01*
X68250Y119500D01*
X69250Y119833D01*
X70000Y120666D01*
X70500Y121667D01*
X70875Y123000D01*
X71000Y124500D01*
X70875Y126000D01*
X70500Y127333D01*
X70000Y128333D01*
X69250Y129167D01*
X68250Y129500D01*
G01X78250Y119500D02*
X79125Y119667D01*
X80125Y120167D01*
X80750Y121000D01*
X81000Y122167D01*
X80750Y123333D01*
X80000Y124333D01*
X78875Y124833D01*
X77625D01*
X76875Y125167D01*
X76250Y126000D01*
X76000Y127167D01*
X76375Y128333D01*
X77250Y129167D01*
X78250Y129500D01*
X79250Y129167D01*
X80125Y128333D01*
X80500Y127167D01*
X80250Y126000D01*
X79625Y125167D01*
X78875Y124833D01*
X77625D01*
X76500Y124333D01*
X75750Y123333D01*
X75500Y122167D01*
X75750Y121000D01*
X76375Y120167D01*
X77375Y119667D01*
X78250Y119500D01*
G01X86000Y119167D02*
X90500Y129500D01*
G01X95875Y127833D02*
X96625Y128833D01*
X97500Y129333D01*
X98500Y129500D01*
X99750Y129167D01*
X100625Y128333D01*
X100875Y127333D01*
X100750Y126333D01*
X100250Y125500D01*
X97750Y123833D01*
X96625Y122667D01*
X95875Y121000D01*
X95625Y119500D01*
X100875D01*
G01X108250Y129500D02*
X107250Y129167D01*
X106500Y128333D01*
X106000Y127333D01*
X105625Y126000D01*
X105500Y124500D01*
X105625Y123000D01*
X106000Y121667D01*
X106500Y120666D01*
X107250Y119833D01*
X108250Y119500D01*
X109250Y119833D01*
X110000Y120666D01*
X110500Y121667D01*
X110875Y123000D01*
X111000Y124500D01*
X110875Y126000D01*
X110500Y127333D01*
X110000Y128333D01*
X109250Y129167D01*
X108250Y129500D01*
G01X118250Y119500D02*
Y129500D01*
X116750Y127500D01*
G01Y119500D02*
X119750D01*
G01X125500Y121000D02*
X126250Y120167D01*
X127125Y119667D01*
X128250Y119500D01*
X129375Y119833D01*
X130250Y120500D01*
X130875Y121667D01*
X131000Y123000D01*
X130750Y124333D01*
X130125Y125167D01*
X129250Y125833D01*
X128375Y126000D01*
X127500Y125833D01*
X126375Y125167D01*
X126750Y129500D01*
X130125D01*
G01X-23900Y140191D02*
Y150191D01*
X-20900D01*
X-19900Y149691D01*
X-19150Y148524D01*
X-18900Y147191D01*
X-19150Y145858D01*
X-19775Y144858D01*
X-20900Y144357D01*
X-23900D01*
G01X-11400Y140191D02*
X-12400Y140358D01*
X-13275Y141024D01*
X-14025Y142024D01*
X-14525Y143191D01*
X-14775Y144524D01*
Y145858D01*
X-14525Y147191D01*
X-14025Y148358D01*
X-13275Y149358D01*
X-12400Y150024D01*
X-11400Y150191D01*
X-10400Y150024D01*
X-9525Y149358D01*
X-8775Y148358D01*
X-8275Y147191D01*
X-8025Y145858D01*
Y144524D01*
X-8275Y143191D01*
X-8775Y142024D01*
X-9525Y141024D01*
X-10400Y140358D01*
X-11400Y140191D01*
G01X-5150Y150191D02*
X-3400Y140191D01*
X-1400Y150191D01*
X600Y140191D01*
X2350Y150191D01*
G01X11100Y140191D02*
X6100D01*
Y150191D01*
X11100D01*
G01X9100Y145358D02*
X6100D01*
G01X16100Y140191D02*
Y150191D01*
X19225D01*
X20225Y149691D01*
X20850Y149024D01*
X21100Y147691D01*
X20850Y146358D01*
X20100Y145524D01*
X19225Y145024D01*
X16100D01*
G01X19225D02*
X21100Y140191D01*
G01X39600Y145524D02*
X40100Y146024D01*
X40475Y146857D01*
X40725Y148024D01*
X40475Y149024D01*
X39975Y149691D01*
X39100Y150191D01*
X35725D01*
Y140191D01*
X39850D01*
X40725Y140858D01*
X41225Y141858D01*
X41475Y143024D01*
X41225Y144191D01*
X40475Y145191D01*
X39600Y145524D01*
X35725D01*
G01X48600Y140191D02*
X47600Y140358D01*
X46725Y141024D01*
X45975Y142024D01*
X45475Y143191D01*
X45225Y144524D01*
Y145858D01*
X45475Y147191D01*
X45975Y148358D01*
X46725Y149358D01*
X47600Y150024D01*
X48600Y150191D01*
X49600Y150024D01*
X50475Y149358D01*
X51225Y148358D01*
X51725Y147191D01*
X51975Y145858D01*
Y144524D01*
X51725Y143191D01*
X51225Y142024D01*
X50475Y141024D01*
X49600Y140358D01*
X48600Y140191D01*
G01X55475D02*
X58600Y150191D01*
X61725Y140191D01*
G01X60600Y143691D02*
X56600D01*
G01X66100Y140191D02*
Y150191D01*
X69225D01*
X70225Y149691D01*
X70850Y149024D01*
X71100Y147691D01*
X70850Y146358D01*
X70100Y145524D01*
X69225Y145024D01*
X66100D01*
G01X69225D02*
X71100Y140191D01*
G01X75850D02*
Y150191D01*
X78350D01*
X79350Y149691D01*
X80100Y149024D01*
X80725Y148024D01*
X81225Y146857D01*
X81350Y145191D01*
X81225Y143524D01*
X80725Y142358D01*
X80100Y141357D01*
X79350Y140691D01*
X78350Y140191D01*
X75850D01*
G54D14*
X13170Y-121760D03*
Y-129240D03*
X21830Y-125500D03*
G54D32*
X51500Y46148D03*
X67500Y65834D03*
G54D23*
X21185Y-147500D03*
G54D15*
X532Y-121710D03*
X4468D03*
G54D33*
X51500Y65834D03*
X67500Y85520D03*
G54D24*
X30236Y-70217D03*
G54D34*
X79043Y65441D03*
Y52055D03*
Y85520D03*
Y78827D03*
Y72134D03*
X121957Y50480D03*
Y57173D03*
Y63866D03*
Y70559D03*
Y77252D03*
Y83945D03*
G54D16*
X2700Y-133000D03*
X-2700D03*
G54D25*
X48398Y76760D03*
Y81760D03*
X43398Y76760D03*
Y81760D03*
X38398Y76760D03*
Y81760D03*
X33398Y76760D03*
X58398D03*
Y81760D03*
X53398Y76760D03*
Y81760D03*
G54D17*
X8298Y-96270D03*
Y-65739D03*
X45898Y-8870D03*
Y21661D03*
X83498Y-96270D03*
Y-65739D03*
G54D26*
X33398Y81760D03*
G54D35*
X88500Y-142276D03*
G54D27*
X71400Y-121000D03*
X81600D03*
G54D18*
X22844Y-45844D03*
X38156Y-61156D03*
G54D36*
X108559Y-142276D03*
G54D28*
X59000Y-100200D03*
Y-94800D03*
G54D19*
X-6500Y-17843D03*
X35390Y53000D03*
X100000Y-40343D03*
X107675Y-1175D03*
X97675D03*
X87675Y40175D03*
X97675D03*
X107675D03*
X117675Y-1175D03*
Y40175D03*
G54D37*
X109594Y-88674D03*
Y-102500D03*
Y-74379D03*
Y-60084D03*
X121406Y-88674D03*
Y-102500D03*
Y-74379D03*
Y-60084D03*
G54D38*
X100500Y68000D03*
G54D29*
X64264Y-70217D03*
G54D39*
X122110Y-123315D03*
Y-118000D03*
Y-112685D03*
X110890D03*
Y-118000D03*
Y-123315D03*
M02*
