G04 ================== begin FILE IDENTIFICATION RECORD ==================*
G04 Layout Name:  POWER_BOARD_03AUG15_2330.brd*
G04 Film Name:    SSB*
G04 File Format:  Gerber RS274X*
G04 File Origin:  Cadence Allegro 16.6-P004*
G04 Origin Date:  Mon Aug 03 23:32:27 2015*
G04 *
G04 Layer:  BOARD GEOMETRY/SILKSCREEN_BOTTOM*
G04 Layer:  DRAWING FORMAT/FILM_LABEL_OUTLINE*
G04 Layer:  REF DES/SILKSCREEN_BOTTOM*
G04 Layer:  PACKAGE GEOMETRY/SILKSCREEN_BOTTOM*
G04 Layer:  BOARD GEOMETRY/OUTLINE*
G04 *
G04 Offset:    (0.00 0.00)*
G04 Mirror:    No*
G04 Mode:      Positive*
G04 Rotation:  0*
G04 FullContactRelief:  No*
G04 UndefLineWidth:     6.00*
G04 ================== end FILE IDENTIFICATION RECORD ====================*
%FSLAX25Y25*MOIN*%
%IR0*IPPOS*OFA0.00000B0.00000*MIA0B0*SFA1.00000B1.00000*%
%ADD10C,.00015*%
%ADD11C,.006*%
%ADD12C,.008*%
%ADD13C,.00591*%
%ADD14C,.00598*%
G75*
%LPD*%
G75*
G54D10*
G01X22440Y-96270D02*
G03I-14142J0D01*
G01X60040Y-8870D02*
G03I-14142J0D01*
G01X97640Y-96270D02*
G03I-14142J0D01*
G54D11*
G01X-23000Y89500D02*
X127098D01*
Y-158500D01*
X-23000D01*
Y89500D01*
G01X112139Y66036D02*
X98939D01*
G03X98539Y65636I0J-400D01*
G01Y58836D01*
G03X98939Y58436I400J0D01*
G01X112139D01*
G03X112539Y58836I0J400D01*
G01Y65636D01*
G03X112139Y66036I-400J0D01*
G01X-6133Y-59667D02*
Y-54667D01*
X-7717D01*
X-8223Y-54917D01*
X-8540Y-55250D01*
X-8667Y-55917D01*
X-8540Y-56584D01*
X-8160Y-57000D01*
X-7717Y-57250D01*
X-6133D01*
G01X-7717D02*
X-8667Y-59667D01*
G01X-13260D02*
Y-54667D01*
X-10917Y-58250D01*
X-14083D01*
G01X-17600Y-59667D02*
Y-54667D01*
X-16840Y-55667D01*
G01Y-59667D02*
X-18360D01*
G01X-25875Y102333D02*
X-24875Y101500D01*
X-23750Y101000D01*
X-22750D01*
X-21750Y101500D01*
X-21000Y102333D01*
X-20625Y103500D01*
X-20875Y104666D01*
X-21500Y105667D01*
X-22625Y106333D01*
X-24125Y106667D01*
X-25000Y107333D01*
X-25375Y108500D01*
X-25125Y109667D01*
X-24500Y110500D01*
X-23625Y111000D01*
X-22750D01*
X-21875Y110667D01*
X-21125Y109833D01*
G01X-14750Y111000D02*
X-11750D01*
G01X-13250D02*
Y101000D01*
G01X-14750D02*
X-11750D01*
G01X-5750Y111000D02*
Y101000D01*
X-750D01*
G01X4000D02*
Y111000D01*
G01X8750D02*
X4000Y104833D01*
G01X9500Y101000D02*
X6125Y107666D01*
G01X14125Y102333D02*
X15125Y101500D01*
X16250Y101000D01*
X17250D01*
X18250Y101500D01*
X19000Y102333D01*
X19375Y103500D01*
X19125Y104666D01*
X18500Y105667D01*
X17375Y106333D01*
X15875Y106667D01*
X15000Y107333D01*
X14625Y108500D01*
X14875Y109667D01*
X15500Y110500D01*
X16375Y111000D01*
X17250D01*
X18125Y110667D01*
X18875Y109833D01*
G01X29500Y110167D02*
X28750Y110667D01*
X27875Y111000D01*
X26875D01*
X25750Y110500D01*
X24875Y109667D01*
X24250Y108667D01*
X23750Y107000D01*
X23625Y105500D01*
X23875Y104000D01*
X24250Y103000D01*
X25000Y102000D01*
X25875Y101333D01*
X26750Y101000D01*
X27625D01*
X28500Y101333D01*
X29250Y101833D01*
X29875Y102500D01*
G01X34250Y101000D02*
Y111000D01*
X37375D01*
X38375Y110500D01*
X39000Y109833D01*
X39250Y108500D01*
X39000Y107167D01*
X38250Y106333D01*
X37375Y105833D01*
X34250D01*
G01X37375D02*
X39250Y101000D01*
G01X49250D02*
X44250D01*
Y111000D01*
X49250D01*
G01X47250Y106167D02*
X44250D01*
G01X59250Y101000D02*
X54250D01*
Y111000D01*
X59250D01*
G01X57250Y106167D02*
X54250D01*
G01X63875Y101000D02*
Y111000D01*
X69625Y101000D01*
Y111000D01*
G01X87750Y106333D02*
X88250Y106833D01*
X88625Y107666D01*
X88875Y108833D01*
X88625Y109833D01*
X88125Y110500D01*
X87250Y111000D01*
X83875D01*
Y101000D01*
X88000D01*
X88875Y101667D01*
X89375Y102667D01*
X89625Y103833D01*
X89375Y105000D01*
X88625Y106000D01*
X87750Y106333D01*
X83875D01*
G01X96750Y101000D02*
X95750Y101167D01*
X94875Y101833D01*
X94125Y102833D01*
X93625Y104000D01*
X93375Y105333D01*
Y106667D01*
X93625Y108000D01*
X94125Y109167D01*
X94875Y110167D01*
X95750Y110833D01*
X96750Y111000D01*
X97750Y110833D01*
X98625Y110167D01*
X99375Y109167D01*
X99875Y108000D01*
X100125Y106667D01*
Y105333D01*
X99875Y104000D01*
X99375Y102833D01*
X98625Y101833D01*
X97750Y101167D01*
X96750Y101000D01*
G01X106750Y111000D02*
Y101000D01*
G01X103875Y111000D02*
X109625D01*
G01X116750D02*
Y101000D01*
G01X113875Y111000D02*
X119625D01*
G01X126750Y101000D02*
X125750Y101167D01*
X124875Y101833D01*
X124125Y102833D01*
X123625Y104000D01*
X123375Y105333D01*
Y106667D01*
X123625Y108000D01*
X124125Y109167D01*
X124875Y110167D01*
X125750Y110833D01*
X126750Y111000D01*
X127750Y110833D01*
X128625Y110167D01*
X129375Y109167D01*
X129875Y108000D01*
X130125Y106667D01*
Y105333D01*
X129875Y104000D01*
X129375Y102833D01*
X128625Y101833D01*
X127750Y101167D01*
X126750Y101000D01*
G01X133500D02*
Y111000D01*
X136750Y102667D01*
X140000Y111000D01*
Y101000D01*
G01X-24500Y119500D02*
Y129500D01*
X-22000D01*
X-21000Y129000D01*
X-20250Y128333D01*
X-19625Y127333D01*
X-19125Y126166D01*
X-19000Y124500D01*
X-19125Y122833D01*
X-19625Y121667D01*
X-20250Y120666D01*
X-21000Y120000D01*
X-22000Y119500D01*
X-24500D01*
G01X-14875D02*
X-11750Y129500D01*
X-8625Y119500D01*
G01X-9750Y123000D02*
X-13750D01*
G01X-1750Y129500D02*
Y119500D01*
G01X-4625Y129500D02*
X1125D01*
G01X10750Y119500D02*
X5750D01*
Y129500D01*
X10750D01*
G01X8750Y124667D02*
X5750D01*
G01X18250Y119167D02*
X18000Y119333D01*
Y119667D01*
X18250Y119833D01*
X18500Y119667D01*
Y119333D01*
X18250Y119167D01*
G01Y123666D02*
X18000Y123833D01*
Y124167D01*
X18250Y124333D01*
X18500Y124167D01*
Y123833D01*
X18250Y123666D01*
G01X38250Y129500D02*
X37250Y129167D01*
X36500Y128333D01*
X36000Y127333D01*
X35625Y126000D01*
X35500Y124500D01*
X35625Y123000D01*
X36000Y121667D01*
X36500Y120666D01*
X37250Y119833D01*
X38250Y119500D01*
X39250Y119833D01*
X40000Y120666D01*
X40500Y121667D01*
X40875Y123000D01*
X41000Y124500D01*
X40875Y126000D01*
X40500Y127333D01*
X40000Y128333D01*
X39250Y129167D01*
X38250Y129500D01*
G01X45500Y121500D02*
X46250Y120333D01*
X47250Y119667D01*
X48375Y119500D01*
X49375Y119667D01*
X50375Y120500D01*
X51000Y121500D01*
X51125Y122500D01*
X50875Y123666D01*
X50000Y124500D01*
X49125Y124833D01*
X48000D01*
G01X49125D02*
X49875Y125333D01*
X50500Y126166D01*
X50750Y127167D01*
X50500Y128167D01*
X49875Y129000D01*
X48750Y129500D01*
X47625Y129333D01*
X46500Y128667D01*
G01X56000Y119167D02*
X60500Y129500D01*
G01X68250D02*
X67250Y129167D01*
X66500Y128333D01*
X66000Y127333D01*
X65625Y126000D01*
X65500Y124500D01*
X65625Y123000D01*
X66000Y121667D01*
X66500Y120666D01*
X67250Y119833D01*
X68250Y119500D01*
X69250Y119833D01*
X70000Y120666D01*
X70500Y121667D01*
X70875Y123000D01*
X71000Y124500D01*
X70875Y126000D01*
X70500Y127333D01*
X70000Y128333D01*
X69250Y129167D01*
X68250Y129500D01*
G01X78250Y119500D02*
X79125Y119667D01*
X80125Y120167D01*
X80750Y121000D01*
X81000Y122167D01*
X80750Y123333D01*
X80000Y124333D01*
X78875Y124833D01*
X77625D01*
X76875Y125167D01*
X76250Y126000D01*
X76000Y127167D01*
X76375Y128333D01*
X77250Y129167D01*
X78250Y129500D01*
X79250Y129167D01*
X80125Y128333D01*
X80500Y127167D01*
X80250Y126000D01*
X79625Y125167D01*
X78875Y124833D01*
X77625D01*
X76500Y124333D01*
X75750Y123333D01*
X75500Y122167D01*
X75750Y121000D01*
X76375Y120167D01*
X77375Y119667D01*
X78250Y119500D01*
G01X86000Y119167D02*
X90500Y129500D01*
G01X95875Y127833D02*
X96625Y128833D01*
X97500Y129333D01*
X98500Y129500D01*
X99750Y129167D01*
X100625Y128333D01*
X100875Y127333D01*
X100750Y126333D01*
X100250Y125500D01*
X97750Y123833D01*
X96625Y122667D01*
X95875Y121000D01*
X95625Y119500D01*
X100875D01*
G01X108250Y129500D02*
X107250Y129167D01*
X106500Y128333D01*
X106000Y127333D01*
X105625Y126000D01*
X105500Y124500D01*
X105625Y123000D01*
X106000Y121667D01*
X106500Y120666D01*
X107250Y119833D01*
X108250Y119500D01*
X109250Y119833D01*
X110000Y120666D01*
X110500Y121667D01*
X110875Y123000D01*
X111000Y124500D01*
X110875Y126000D01*
X110500Y127333D01*
X110000Y128333D01*
X109250Y129167D01*
X108250Y129500D01*
G01X118250Y119500D02*
Y129500D01*
X116750Y127500D01*
G01Y119500D02*
X119750D01*
G01X125500Y121000D02*
X126250Y120167D01*
X127125Y119667D01*
X128250Y119500D01*
X129375Y119833D01*
X130250Y120500D01*
X130875Y121667D01*
X131000Y123000D01*
X130750Y124333D01*
X130125Y125167D01*
X129250Y125833D01*
X128375Y126000D01*
X127500Y125833D01*
X126375Y125167D01*
X126750Y129500D01*
X130125D01*
G01X-23900Y140191D02*
Y150191D01*
X-20900D01*
X-19900Y149691D01*
X-19150Y148524D01*
X-18900Y147191D01*
X-19150Y145858D01*
X-19775Y144858D01*
X-20900Y144357D01*
X-23900D01*
G01X-11400Y140191D02*
X-12400Y140358D01*
X-13275Y141024D01*
X-14025Y142024D01*
X-14525Y143191D01*
X-14775Y144524D01*
Y145858D01*
X-14525Y147191D01*
X-14025Y148358D01*
X-13275Y149358D01*
X-12400Y150024D01*
X-11400Y150191D01*
X-10400Y150024D01*
X-9525Y149358D01*
X-8775Y148358D01*
X-8275Y147191D01*
X-8025Y145858D01*
Y144524D01*
X-8275Y143191D01*
X-8775Y142024D01*
X-9525Y141024D01*
X-10400Y140358D01*
X-11400Y140191D01*
G01X-5150Y150191D02*
X-3400Y140191D01*
X-1400Y150191D01*
X600Y140191D01*
X2350Y150191D01*
G01X11100Y140191D02*
X6100D01*
Y150191D01*
X11100D01*
G01X9100Y145358D02*
X6100D01*
G01X16100Y140191D02*
Y150191D01*
X19225D01*
X20225Y149691D01*
X20850Y149024D01*
X21100Y147691D01*
X20850Y146358D01*
X20100Y145524D01*
X19225Y145024D01*
X16100D01*
G01X19225D02*
X21100Y140191D01*
G01X39600Y145524D02*
X40100Y146024D01*
X40475Y146857D01*
X40725Y148024D01*
X40475Y149024D01*
X39975Y149691D01*
X39100Y150191D01*
X35725D01*
Y140191D01*
X39850D01*
X40725Y140858D01*
X41225Y141858D01*
X41475Y143024D01*
X41225Y144191D01*
X40475Y145191D01*
X39600Y145524D01*
X35725D01*
G01X48600Y140191D02*
X47600Y140358D01*
X46725Y141024D01*
X45975Y142024D01*
X45475Y143191D01*
X45225Y144524D01*
Y145858D01*
X45475Y147191D01*
X45975Y148358D01*
X46725Y149358D01*
X47600Y150024D01*
X48600Y150191D01*
X49600Y150024D01*
X50475Y149358D01*
X51225Y148358D01*
X51725Y147191D01*
X51975Y145858D01*
Y144524D01*
X51725Y143191D01*
X51225Y142024D01*
X50475Y141024D01*
X49600Y140358D01*
X48600Y140191D01*
G01X55475D02*
X58600Y150191D01*
X61725Y140191D01*
G01X60600Y143691D02*
X56600D01*
G01X66100Y140191D02*
Y150191D01*
X69225D01*
X70225Y149691D01*
X70850Y149024D01*
X71100Y147691D01*
X70850Y146358D01*
X70100Y145524D01*
X69225Y145024D01*
X66100D01*
G01X69225D02*
X71100Y140191D01*
G01X75850D02*
Y150191D01*
X78350D01*
X79350Y149691D01*
X80100Y149024D01*
X80725Y148024D01*
X81225Y146857D01*
X81350Y145191D01*
X81225Y143524D01*
X80725Y142358D01*
X80100Y141357D01*
X79350Y140691D01*
X78350Y140191D01*
X75850D01*
G01X21550Y-121167D02*
X22057Y-121084D01*
X22500Y-120750D01*
X22880Y-120250D01*
X23133Y-119667D01*
X23260Y-119000D01*
Y-118334D01*
X23133Y-117667D01*
X22880Y-117084D01*
X22500Y-116584D01*
X22057Y-116250D01*
X21550Y-116167D01*
X21043Y-116250D01*
X20600Y-116584D01*
X20220Y-117084D01*
X19967Y-117667D01*
X19840Y-118334D01*
Y-119000D01*
X19967Y-119667D01*
X20220Y-120250D01*
X20600Y-120750D01*
X21043Y-121084D01*
X21550Y-121167D01*
G01X21043Y-119834D02*
X20283Y-121167D01*
G01X17843Y-120167D02*
X17463Y-120750D01*
X16957Y-121084D01*
X16387Y-121167D01*
X15880Y-121084D01*
X15373Y-120667D01*
X15057Y-120167D01*
X14993Y-119667D01*
X15120Y-119084D01*
X15563Y-118667D01*
X16007Y-118500D01*
X16577D01*
G01X16007D02*
X15627Y-118250D01*
X15310Y-117834D01*
X15183Y-117334D01*
X15310Y-116834D01*
X15627Y-116417D01*
X16197Y-116167D01*
X16767Y-116250D01*
X17337Y-116584D01*
G01X23183Y-135000D02*
X21600Y-130000D01*
X20017Y-135000D01*
G01X20587Y-133250D02*
X22613D01*
G01X17703Y-130833D02*
X17323Y-130333D01*
X16880Y-130083D01*
X16373Y-130000D01*
X15740Y-130167D01*
X15297Y-130583D01*
X15170Y-131083D01*
X15233Y-131583D01*
X15487Y-132000D01*
X16753Y-132833D01*
X17323Y-133417D01*
X17703Y-134250D01*
X17830Y-135000D01*
X15170D01*
G01X-2557Y-108667D02*
Y-112250D01*
X-2810Y-113000D01*
X-3317Y-113500D01*
X-3950Y-113667D01*
X-4583Y-113500D01*
X-5090Y-113000D01*
X-5343Y-112250D01*
Y-108667D01*
G01X-7973Y-113084D02*
X-8417Y-113500D01*
X-8923Y-113667D01*
X-9430Y-113500D01*
X-9873Y-113000D01*
X-10190Y-112250D01*
X-10317Y-111500D01*
Y-110584D01*
X-10190Y-109834D01*
X-9873Y-109167D01*
X-9493Y-108834D01*
X-9050Y-108667D01*
X-8543Y-108834D01*
X-8163Y-109167D01*
X-7910Y-109667D01*
X-7783Y-110334D01*
X-7910Y-110917D01*
X-8227Y-111500D01*
X-8607Y-111834D01*
X-9050Y-111917D01*
X-9557Y-111750D01*
X-9937Y-111334D01*
X-10317Y-110584D01*
G01X4650Y-19764D02*
X-3264D01*
G01D02*
Y9764D01*
X4650D01*
G01X15317Y18333D02*
Y13333D01*
X12783D01*
G01X8950D02*
Y18333D01*
X9710Y17333D01*
G01Y13333D02*
X8190D01*
G01X16817Y53333D02*
Y48333D01*
X14283D01*
G01X11843Y49333D02*
X11463Y48750D01*
X10957Y48416D01*
X10387Y48333D01*
X9880Y48416D01*
X9373Y48833D01*
X9057Y49333D01*
X8993Y49833D01*
X9120Y50416D01*
X9563Y50833D01*
X10007Y51000D01*
X10577D01*
G01X10007D02*
X9627Y51250D01*
X9310Y51666D01*
X9183Y52166D01*
X9310Y52666D01*
X9627Y53083D01*
X10197Y53333D01*
X10767Y53250D01*
X11337Y52916D01*
G01X28683Y-84000D02*
X27100Y-79000D01*
X25517Y-84000D01*
G01X26087Y-82250D02*
X28113D01*
G01X22000Y-84000D02*
Y-79000D01*
X22760Y-80000D01*
G01Y-84000D02*
X21240D01*
G01X37900Y-81500D02*
X37267Y-79834D01*
X36633D01*
X35367Y-83167D01*
X34733D01*
X34100Y-81500D01*
G01X29943Y-55667D02*
Y-50667D01*
X28677D01*
X28170Y-50917D01*
X27790Y-51250D01*
X27473Y-51750D01*
X27220Y-52334D01*
X27157Y-53167D01*
X27220Y-54000D01*
X27473Y-54584D01*
X27790Y-55084D01*
X28170Y-55417D01*
X28677Y-55667D01*
X29943D01*
G01X23450D02*
Y-50667D01*
X24210Y-51667D01*
G01Y-55667D02*
X22690D01*
G01X36297Y-27333D02*
X34777D01*
G01X35600Y-26250D02*
Y-28417D01*
G01X18350Y9764D02*
X26264D01*
Y-19764D01*
X18350D01*
G01X57367Y35824D02*
Y40824D01*
X55783D01*
X55277Y40574D01*
X54960Y40241D01*
X54833Y39574D01*
X54960Y38907D01*
X55340Y38491D01*
X55783Y38241D01*
X57367D01*
G01X55783D02*
X54833Y35824D01*
G01X52203Y39991D02*
X51823Y40491D01*
X51380Y40741D01*
X50873Y40824D01*
X50240Y40657D01*
X49797Y40241D01*
X49670Y39741D01*
X49733Y39241D01*
X49987Y38824D01*
X51253Y37991D01*
X51823Y37407D01*
X52203Y36574D01*
X52330Y35824D01*
X49670D01*
G01X45140D02*
Y40824D01*
X47483Y37241D01*
X44317D01*
G01X65620Y-82167D02*
X64353D01*
Y-83667D01*
X64733Y-84167D01*
X65177Y-84500D01*
X65810Y-84667D01*
X66443Y-84500D01*
X66887Y-84167D01*
X67267Y-83667D01*
X67520Y-83084D01*
X67647Y-82417D01*
Y-81834D01*
X67520Y-81334D01*
X67267Y-80750D01*
X66887Y-80250D01*
X66507Y-79917D01*
X66000Y-79667D01*
X65557D01*
X65050Y-79834D01*
X64670Y-80167D01*
G01X58400Y-81000D02*
X57767Y-79334D01*
X57133D01*
X55867Y-82667D01*
X55233D01*
X54600Y-81000D01*
G01X95264Y-41350D02*
Y-49264D01*
X65736D01*
Y-41350D01*
G01Y-27650D02*
Y-19736D01*
G01X57423Y-27333D02*
X55777D01*
G01X62943Y6833D02*
Y3250D01*
X62690Y2500D01*
X62183Y2000D01*
X61550Y1833D01*
X60917Y2000D01*
X60410Y2500D01*
X60157Y3250D01*
Y6833D01*
G01X56577Y1833D02*
X56450Y2916D01*
X56260Y3833D01*
X56007Y4666D01*
X55690Y5583D01*
X55183Y6833D01*
X57717D01*
G01X65736Y-19736D02*
X95264D01*
Y-27650D01*
G01X82943Y35833D02*
Y40833D01*
X81677D01*
X81170Y40583D01*
X80790Y40250D01*
X80473Y39750D01*
X80220Y39166D01*
X80157Y38333D01*
X80220Y37500D01*
X80473Y36916D01*
X80790Y36416D01*
X81170Y36083D01*
X81677Y35833D01*
X82943D01*
G01X77653Y37916D02*
X77210Y38500D01*
X76830Y38833D01*
X76323Y39000D01*
X75880Y38833D01*
X75563Y38500D01*
X75310Y38000D01*
X75247Y37416D01*
X75310Y36916D01*
X75563Y36416D01*
X75943Y36000D01*
X76387Y35833D01*
X76893Y36000D01*
X77337Y36500D01*
X77590Y37250D01*
X77653Y38083D01*
X77527Y39166D01*
X77337Y39750D01*
X77020Y40333D01*
X76577Y40750D01*
X76133Y40833D01*
X75690Y40666D01*
X75373Y40250D01*
G01X73367Y55333D02*
Y60333D01*
X71783D01*
X71277Y60083D01*
X70960Y59750D01*
X70833Y59083D01*
X70960Y58416D01*
X71340Y58000D01*
X71783Y57750D01*
X73367D01*
G01X71783D02*
X70833Y55333D01*
G01X68203Y59500D02*
X67823Y60000D01*
X67380Y60250D01*
X66873Y60333D01*
X66240Y60166D01*
X65797Y59750D01*
X65670Y59250D01*
X65733Y58750D01*
X65987Y58333D01*
X67253Y57500D01*
X67823Y56916D01*
X68203Y56083D01*
X68330Y55333D01*
X65670D01*
G01X63293Y56083D02*
X62913Y55666D01*
X62470Y55416D01*
X61900Y55333D01*
X61330Y55500D01*
X60887Y55833D01*
X60570Y56416D01*
X60507Y57083D01*
X60633Y57750D01*
X60950Y58166D01*
X61393Y58500D01*
X61837Y58583D01*
X62280Y58500D01*
X62850Y58166D01*
X62660Y60333D01*
X60950D01*
G01X75343Y67087D02*
X75113Y66725D01*
X74807Y66519D01*
X74462Y66467D01*
X74155Y66519D01*
X73848Y66777D01*
X73657Y67087D01*
X73618Y67397D01*
X73695Y67759D01*
X73963Y68017D01*
X74232Y68120D01*
X74577D01*
G01X74232D02*
X74002Y68275D01*
X73810Y68534D01*
X73733Y68844D01*
X73810Y69154D01*
X74002Y69412D01*
X74347Y69567D01*
X74692Y69515D01*
X75037Y69309D01*
G01X74540Y86467D02*
Y89567D01*
X75958Y87345D01*
X74042D01*
G01X96333Y-132367D02*
X101333D01*
Y-130783D01*
X101083Y-130277D01*
X100750Y-129960D01*
X100083Y-129833D01*
X99416Y-129960D01*
X99000Y-130340D01*
X98750Y-130783D01*
Y-132367D01*
G01Y-130783D02*
X96333Y-129833D01*
G01X97333Y-127393D02*
X96750Y-127013D01*
X96416Y-126507D01*
X96333Y-125937D01*
X96416Y-125430D01*
X96833Y-124923D01*
X97333Y-124607D01*
X97833Y-124543D01*
X98416Y-124670D01*
X98833Y-125113D01*
X99000Y-125557D01*
Y-126127D01*
G01Y-125557D02*
X99250Y-125177D01*
X99666Y-124860D01*
X100166Y-124733D01*
X100666Y-124860D01*
X101083Y-125177D01*
X101333Y-125747D01*
X101250Y-126317D01*
X100916Y-126887D01*
G01X96333Y-121027D02*
X97416Y-120900D01*
X98333Y-120710D01*
X99166Y-120457D01*
X100083Y-120140D01*
X101333Y-119633D01*
Y-122167D01*
G01X78587Y-116642D02*
X92413D01*
Y-137358D01*
X78587D01*
Y-116642D01*
G01X104443Y-84667D02*
Y-88250D01*
X104190Y-89000D01*
X103683Y-89500D01*
X103050Y-89667D01*
X102417Y-89500D01*
X101910Y-89000D01*
X101657Y-88250D01*
Y-84667D01*
G01X97950Y-89667D02*
X97507Y-89584D01*
X97000Y-89334D01*
X96683Y-88917D01*
X96557Y-88334D01*
X96683Y-87750D01*
X97063Y-87250D01*
X97633Y-87000D01*
X98267D01*
X98647Y-86834D01*
X98963Y-86417D01*
X99090Y-85834D01*
X98900Y-85250D01*
X98457Y-84834D01*
X97950Y-84667D01*
X97443Y-84834D01*
X97000Y-85250D01*
X96810Y-85834D01*
X96937Y-86417D01*
X97253Y-86834D01*
X97633Y-87000D01*
X98267D01*
X98837Y-87250D01*
X99217Y-87750D01*
X99343Y-88334D01*
X99217Y-88917D01*
X98900Y-89334D01*
X98393Y-89584D01*
X97950Y-89667D01*
G01X87317Y-12667D02*
Y-17667D01*
X84783D01*
G01X82153Y-13500D02*
X81773Y-13000D01*
X81330Y-12750D01*
X80823Y-12667D01*
X80190Y-12834D01*
X79747Y-13250D01*
X79620Y-13750D01*
X79683Y-14250D01*
X79937Y-14667D01*
X81203Y-15500D01*
X81773Y-16084D01*
X82153Y-16917D01*
X82280Y-17667D01*
X79620D01*
G01X91083Y6220D02*
Y33780D01*
X113917D01*
Y6220D01*
X91083D01*
G01X84500Y33000D02*
Y36000D01*
X103000D01*
Y44500D01*
X104000Y43500D01*
X102000D01*
X103000Y44500D01*
G01X86257Y25809D02*
X86487Y25964D01*
X86755Y26067D01*
X87062D01*
X87407Y25912D01*
X87675Y25654D01*
X87867Y25344D01*
X88020Y24827D01*
X88058Y24362D01*
X87982Y23897D01*
X87867Y23587D01*
X87637Y23277D01*
X87368Y23070D01*
X87100Y22967D01*
X86832D01*
X86563Y23070D01*
X86333Y23225D01*
X86142Y23432D01*
G01X84000Y22967D02*
Y26067D01*
X84460Y25447D01*
G01Y22967D02*
X83540D01*
G01X80900Y26067D02*
X81207Y25964D01*
X81437Y25705D01*
X81590Y25395D01*
X81705Y24982D01*
X81743Y24517D01*
X81705Y24052D01*
X81590Y23639D01*
X81437Y23329D01*
X81207Y23070D01*
X80900Y22967D01*
X80593Y23070D01*
X80363Y23329D01*
X80210Y23639D01*
X80095Y24052D01*
X80057Y24517D01*
X80095Y24982D01*
X80210Y25395D01*
X80363Y25705D01*
X80593Y25964D01*
X80900Y26067D01*
G01X87943Y31067D02*
Y28845D01*
X87790Y28380D01*
X87483Y28070D01*
X87100Y27967D01*
X86717Y28070D01*
X86410Y28380D01*
X86257Y28845D01*
Y31067D01*
G01X84000Y27967D02*
Y31067D01*
X84460Y30447D01*
G01Y27967D02*
X83540D01*
G01X80900D02*
Y31067D01*
X81360Y30447D01*
G01Y27967D02*
X80440D01*
G01X87867Y17967D02*
Y21067D01*
X86908D01*
X86602Y20912D01*
X86410Y20705D01*
X86333Y20292D01*
X86410Y19879D01*
X86640Y19620D01*
X86908Y19465D01*
X87867D01*
G01X86908D02*
X86333Y17967D01*
G01X84728Y20550D02*
X84498Y20860D01*
X84230Y21015D01*
X83923Y21067D01*
X83540Y20964D01*
X83272Y20705D01*
X83195Y20395D01*
X83233Y20085D01*
X83387Y19827D01*
X84153Y19310D01*
X84498Y18949D01*
X84728Y18432D01*
X84805Y17967D01*
X83195D01*
G01X80977D02*
X80900Y18639D01*
X80785Y19207D01*
X80632Y19724D01*
X80440Y20292D01*
X80133Y21067D01*
X81667D01*
G01X109492Y68945D02*
X83508D01*
Y87055D01*
X106992D01*
X109492Y84555D01*
Y68945D01*
G01X93579Y54900D02*
Y45700D01*
X112979D01*
Y54900D01*
X93579D01*
G01X122867Y-119167D02*
Y-114167D01*
X121283D01*
X120777Y-114417D01*
X120460Y-114750D01*
X120333Y-115417D01*
X120460Y-116084D01*
X120840Y-116500D01*
X121283Y-116750D01*
X122867D01*
G01X121283D02*
X120333Y-119167D01*
G01X117893Y-118167D02*
X117513Y-118750D01*
X117007Y-119084D01*
X116437Y-119167D01*
X115930Y-119084D01*
X115423Y-118667D01*
X115107Y-118167D01*
X115043Y-117667D01*
X115170Y-117084D01*
X115613Y-116667D01*
X116057Y-116500D01*
X116627D01*
G01X116057D02*
X115677Y-116250D01*
X115360Y-115834D01*
X115233Y-115334D01*
X115360Y-114834D01*
X115677Y-114417D01*
X116247Y-114167D01*
X116817Y-114250D01*
X117387Y-114584D01*
G01X111400Y-119167D02*
X110957Y-119084D01*
X110450Y-118834D01*
X110133Y-118417D01*
X110007Y-117834D01*
X110133Y-117250D01*
X110513Y-116750D01*
X111083Y-116500D01*
X111717D01*
X112097Y-116334D01*
X112413Y-115917D01*
X112540Y-115334D01*
X112350Y-114750D01*
X111907Y-114334D01*
X111400Y-114167D01*
X110893Y-114334D01*
X110450Y-114750D01*
X110260Y-115334D01*
X110387Y-115917D01*
X110703Y-116334D01*
X111083Y-116500D01*
X111717D01*
X112287Y-116750D01*
X112667Y-117250D01*
X112793Y-117834D01*
X112667Y-118417D01*
X112350Y-118834D01*
X111843Y-119084D01*
X111400Y-119167D01*
G01X121442Y-120715D02*
X123842D01*
Y-124015D01*
X121342D01*
G01X118842D02*
X116442D01*
Y-120715D01*
X118942D01*
G01X119443Y-28167D02*
Y-23167D01*
X118177D01*
X117670Y-23417D01*
X117290Y-23750D01*
X116973Y-24250D01*
X116720Y-24834D01*
X116657Y-25667D01*
X116720Y-26500D01*
X116973Y-27084D01*
X117290Y-27584D01*
X117670Y-27917D01*
X118177Y-28167D01*
X119443D01*
G01X114343Y-27417D02*
X113963Y-27834D01*
X113520Y-28084D01*
X112950Y-28167D01*
X112380Y-28000D01*
X111937Y-27667D01*
X111620Y-27084D01*
X111557Y-26417D01*
X111683Y-25750D01*
X112000Y-25334D01*
X112443Y-25000D01*
X112887Y-24917D01*
X113330Y-25000D01*
X113900Y-25334D01*
X113710Y-23167D01*
X112000D01*
G01X120657Y9416D02*
X121037Y9666D01*
X121480Y9833D01*
X121987D01*
X122557Y9583D01*
X123000Y9166D01*
X123317Y8666D01*
X123570Y7833D01*
X123633Y7083D01*
X123507Y6333D01*
X123317Y5833D01*
X122937Y5333D01*
X122493Y5000D01*
X122050Y4833D01*
X121607D01*
X121163Y5000D01*
X120783Y5250D01*
X120467Y5583D01*
G01X118027Y5416D02*
X117583Y5000D01*
X117077Y4833D01*
X116570Y5000D01*
X116127Y5500D01*
X115810Y6250D01*
X115683Y7000D01*
Y7916D01*
X115810Y8666D01*
X116127Y9333D01*
X116507Y9666D01*
X116950Y9833D01*
X117457Y9666D01*
X117837Y9333D01*
X118090Y8833D01*
X118217Y8166D01*
X118090Y7583D01*
X117773Y7000D01*
X117393Y6666D01*
X116950Y6583D01*
X116443Y6750D01*
X116063Y7166D01*
X115683Y7916D01*
G01X123000Y37000D02*
Y45000D01*
X124000Y44000D01*
X122000D01*
X123000Y45000D01*
G01X125558Y35567D02*
X124600Y32467D01*
X123642Y35567D01*
G01X122267Y32467D02*
Y35567D01*
X121308D01*
X121002Y35412D01*
X120810Y35205D01*
X120733Y34792D01*
X120810Y34379D01*
X121040Y34120D01*
X121308Y33965D01*
X122267D01*
G01X121308D02*
X120733Y32467D01*
G01X119128Y35050D02*
X118898Y35360D01*
X118630Y35515D01*
X118323Y35567D01*
X117940Y35464D01*
X117672Y35205D01*
X117595Y34895D01*
X117633Y34585D01*
X117787Y34327D01*
X118553Y33810D01*
X118898Y33449D01*
X119128Y32932D01*
X119205Y32467D01*
X117595D01*
G01X125367Y27467D02*
Y30567D01*
X124408D01*
X124102Y30412D01*
X123910Y30205D01*
X123833Y29792D01*
X123910Y29379D01*
X124140Y29120D01*
X124408Y28965D01*
X125367D01*
G01X124408D02*
X123833Y27467D01*
G01X122228Y30050D02*
X121998Y30360D01*
X121730Y30515D01*
X121423Y30567D01*
X121040Y30464D01*
X120772Y30205D01*
X120695Y29895D01*
X120733Y29585D01*
X120887Y29327D01*
X121653Y28810D01*
X121998Y28449D01*
X122228Y27932D01*
X122305Y27467D01*
X120695D01*
G01X119128Y28759D02*
X118860Y29120D01*
X118630Y29327D01*
X118323Y29430D01*
X118055Y29327D01*
X117863Y29120D01*
X117710Y28810D01*
X117672Y28449D01*
X117710Y28139D01*
X117863Y27829D01*
X118093Y27570D01*
X118362Y27467D01*
X118668Y27570D01*
X118937Y27880D01*
X119090Y28345D01*
X119128Y28862D01*
X119052Y29534D01*
X118937Y29895D01*
X118745Y30257D01*
X118477Y30515D01*
X118208Y30567D01*
X117940Y30464D01*
X117748Y30205D01*
G01X120728Y69050D02*
X120498Y69360D01*
X120230Y69515D01*
X119923Y69567D01*
X119540Y69464D01*
X119272Y69205D01*
X119195Y68895D01*
X119233Y68585D01*
X119387Y68327D01*
X120153Y67810D01*
X120498Y67449D01*
X120728Y66932D01*
X120805Y66467D01*
X119195D01*
G01X120000Y85967D02*
Y89067D01*
X120460Y88447D01*
G01Y85967D02*
X119540D01*
G01X127000Y71500D02*
Y84500D01*
G01X120000D02*
Y71500D01*
G54D12*
G01X17500Y-30500D02*
X-19500D01*
Y-52500D01*
X17500D01*
Y-30500D01*
G01X25000Y-156820D02*
X72000D01*
Y-85820D01*
X25000D01*
Y-156820D01*
G01X60500Y-78000D02*
X32500D01*
Y-30000D01*
X61500D01*
Y-78000D01*
X60500D01*
G54D13*
G01X8307Y46437D02*
X21693D01*
Y38563D01*
X8307D01*
Y46437D01*
G01X14500Y36768D02*
G02X13319Y33815I-1181J-1240D01*
G01D02*
G02X11547Y35587I0J1772D01*
G01D02*
G02X12138Y36768I1476J0D01*
G01D02*
G02X10957Y33815I-1181J-1240D01*
G02X9185Y35587I0J1772D01*
G02X9776Y36768I1476J0D01*
G01X7823D01*
G01X18043Y33815D02*
G02X16272Y35587I1J1772D01*
G01D02*
G02X16862Y36768I1476J0D01*
G01D02*
G02X15681Y33815I-1181J-1240D01*
G01D02*
G02X13909Y35587I0J1772D01*
G01D02*
G02X14500Y36768I1477J-1D01*
G01X18043Y33815D02*
G03X19224Y36768I0J1713D01*
G01X20587D01*
G01X56618Y69771D02*
Y42211D01*
X46382D01*
Y69771D01*
X56618D01*
G01X72618Y89457D02*
Y61897D01*
X62382D01*
Y89457D01*
X72618D01*
G01X92374Y66311D02*
Y42689D01*
X76626D01*
Y66311D01*
X92374D01*
G01X73720Y45185D02*
Y49319D01*
X75492D01*
X73720Y51681D01*
X71949Y49319D01*
X73720D01*
G01Y51681D02*
Y54043D01*
G01X75492Y51681D02*
X71949D01*
G01X125343Y-18315D02*
Y-21661D01*
X105657D01*
Y-18315D01*
G01Y-4339D02*
X125343D01*
Y-7685D01*
G01X105657D02*
Y-4339D01*
G54D14*
G01X117071Y46543D02*
Y64457D01*
X125929D01*
Y46543D01*
X117071D01*
M02*
