G04 ================== begin FILE IDENTIFICATION RECORD ==================*
G04 Layout Name:  POWER_BOARD_03AUG15_2330.brd*
G04 Film Name:    SST*
G04 File Format:  Gerber RS274X*
G04 File Origin:  Cadence Allegro 16.6-P004*
G04 Origin Date:  Mon Aug 03 23:32:27 2015*
G04 *
G04 Layer:  REF DES/SILKSCREEN_TOP*
G04 Layer:  PACKAGE GEOMETRY/SILKSCREEN_TOP*
G04 Layer:  DRAWING FORMAT/FILM_LABEL_OUTLINE*
G04 Layer:  BOARD GEOMETRY/OUTLINE*
G04 Layer:  BOARD GEOMETRY/SILKSCREEN_TOP*
G04 *
G04 Offset:    (0.00 0.00)*
G04 Mirror:    No*
G04 Mode:      Positive*
G04 Rotation:  0*
G04 FullContactRelief:  No*
G04 UndefLineWidth:     6.00*
G04 ================== end FILE IDENTIFICATION RECORD ====================*
%FSLAX25Y25*MOIN*%
%IR0*IPPOS*OFA0.00000B0.00000*MIA0B0*SFA1.00000B1.00000*%
%ADD10C,.00015*%
%ADD11C,.006*%
%ADD12C,.008*%
%ADD13C,.00607*%
%ADD14C,.00591*%
G75*
%LPD*%
G75*
G36*
G01X126173Y-124587D02*
Y-122224D01*
X124992Y-123406D01*
X126173Y-124587D01*
G37*
G54D10*
G01X23909Y-65739D02*
G03I-15611J0D01*
G01X61509Y21661D02*
G03I-15611J0D01*
G01X99109Y-65739D02*
G03I-15611J0D01*
G54D11*
G01X-23000Y89500D02*
X127098D01*
Y-158500D01*
X-23000D01*
Y89500D01*
G01X-3300Y-135100D02*
X3300D01*
G01X-3300Y-130900D02*
X3300D01*
G01X110500Y-158276D02*
Y-126276D01*
X70500D01*
Y-158276D01*
X110500D01*
G01X68700Y-125100D02*
Y-117000D01*
X84300D01*
Y-125100D01*
X68700D01*
G01X56900Y-94200D02*
Y-100800D01*
G01X61100Y-94200D02*
Y-100800D01*
G01X55250Y69500D02*
Y54500D01*
G01X63750Y69500D02*
Y54500D01*
G01X27091Y-159311D02*
X-24091D01*
Y-135689D01*
X27091D01*
Y-159311D01*
G01X-23413Y-113358D02*
X-9587D01*
Y-92642D01*
X-23413D01*
Y-113358D01*
G01Y-135358D02*
X-9587D01*
Y-114642D01*
X-23413D01*
Y-135358D01*
G01Y-91358D02*
X-9587D01*
Y-70642D01*
X-23413D01*
Y-91358D01*
G01Y-69503D02*
X-9587D01*
Y-48787D01*
X-23413D01*
Y-69503D01*
G01X-21867Y-46667D02*
Y-41667D01*
X-20283D01*
X-19777Y-41917D01*
X-19460Y-42250D01*
X-19333Y-42917D01*
X-19460Y-43584D01*
X-19840Y-44000D01*
X-20283Y-44250D01*
X-21867D01*
G01X-20283D02*
X-19333Y-46667D01*
G01X-16893Y-45667D02*
X-16513Y-46250D01*
X-16007Y-46584D01*
X-15437Y-46667D01*
X-14930Y-46584D01*
X-14423Y-46167D01*
X-14107Y-45667D01*
X-14043Y-45167D01*
X-14170Y-44584D01*
X-14613Y-44167D01*
X-15057Y-44000D01*
X-15627D01*
G01X-15057D02*
X-14677Y-43750D01*
X-14360Y-43334D01*
X-14233Y-42834D01*
X-14360Y-42334D01*
X-14677Y-41917D01*
X-15247Y-41667D01*
X-15817Y-41750D01*
X-16387Y-42084D01*
G01X-11477Y-46084D02*
X-11033Y-46500D01*
X-10527Y-46667D01*
X-10020Y-46500D01*
X-9577Y-46000D01*
X-9260Y-45250D01*
X-9133Y-44500D01*
Y-43584D01*
X-9260Y-42834D01*
X-9577Y-42167D01*
X-9957Y-41834D01*
X-10400Y-41667D01*
X-10907Y-41834D01*
X-11287Y-42167D01*
X-11540Y-42667D01*
X-11667Y-43334D01*
X-11540Y-43917D01*
X-11223Y-44500D01*
X-10843Y-44834D01*
X-10400Y-44917D01*
X-9893Y-44750D01*
X-9513Y-44334D01*
X-9133Y-43584D01*
G01X14169Y-8001D02*
G03I-20669J0D01*
G01X-22728Y41550D02*
X-22498Y41860D01*
X-22230Y42015D01*
X-21923Y42067D01*
X-21540Y41964D01*
X-21272Y41705D01*
X-21195Y41395D01*
X-21233Y41085D01*
X-21387Y40827D01*
X-22153Y40310D01*
X-22498Y39949D01*
X-22728Y39432D01*
X-22805Y38967D01*
X-21195D01*
G01X-20500Y36760D02*
Y86760D01*
X8500D01*
Y36760D01*
X-20500D01*
G01X3259Y33600D02*
Y24400D01*
X-16141D01*
Y33600D01*
X3259D01*
G01X-21916Y17293D02*
X-22166Y16913D01*
X-22333Y16470D01*
Y15963D01*
X-22083Y15393D01*
X-21666Y14950D01*
X-21166Y14633D01*
X-20333Y14380D01*
X-19583Y14317D01*
X-18833Y14443D01*
X-18333Y14633D01*
X-17833Y15013D01*
X-17500Y15457D01*
X-17333Y15900D01*
Y16343D01*
X-17500Y16787D01*
X-17750Y17167D01*
X-18083Y17483D01*
G01X-17333Y21000D02*
X-22333D01*
X-21333Y20240D01*
G01X-17333D02*
Y21760D01*
G01Y25973D02*
X-18416Y26100D01*
X-19333Y26290D01*
X-20166Y26543D01*
X-21083Y26860D01*
X-22333Y27367D01*
Y24833D01*
G01X3259Y24100D02*
Y14900D01*
X-16141D01*
Y24100D01*
X3259D01*
G01X-25875Y102333D02*
X-24875Y101500D01*
X-23750Y101000D01*
X-22750D01*
X-21750Y101500D01*
X-21000Y102333D01*
X-20625Y103500D01*
X-20875Y104666D01*
X-21500Y105667D01*
X-22625Y106333D01*
X-24125Y106667D01*
X-25000Y107333D01*
X-25375Y108500D01*
X-25125Y109667D01*
X-24500Y110500D01*
X-23625Y111000D01*
X-22750D01*
X-21875Y110667D01*
X-21125Y109833D01*
G01X-14750Y111000D02*
X-11750D01*
G01X-13250D02*
Y101000D01*
G01X-14750D02*
X-11750D01*
G01X-5750Y111000D02*
Y101000D01*
X-750D01*
G01X4000D02*
Y111000D01*
G01X8750D02*
X4000Y104833D01*
G01X9500Y101000D02*
X6125Y107666D01*
G01X14125Y102333D02*
X15125Y101500D01*
X16250Y101000D01*
X17250D01*
X18250Y101500D01*
X19000Y102333D01*
X19375Y103500D01*
X19125Y104666D01*
X18500Y105667D01*
X17375Y106333D01*
X15875Y106667D01*
X15000Y107333D01*
X14625Y108500D01*
X14875Y109667D01*
X15500Y110500D01*
X16375Y111000D01*
X17250D01*
X18125Y110667D01*
X18875Y109833D01*
G01X29500Y110167D02*
X28750Y110667D01*
X27875Y111000D01*
X26875D01*
X25750Y110500D01*
X24875Y109667D01*
X24250Y108667D01*
X23750Y107000D01*
X23625Y105500D01*
X23875Y104000D01*
X24250Y103000D01*
X25000Y102000D01*
X25875Y101333D01*
X26750Y101000D01*
X27625D01*
X28500Y101333D01*
X29250Y101833D01*
X29875Y102500D01*
G01X34250Y101000D02*
Y111000D01*
X37375D01*
X38375Y110500D01*
X39000Y109833D01*
X39250Y108500D01*
X39000Y107167D01*
X38250Y106333D01*
X37375Y105833D01*
X34250D01*
G01X37375D02*
X39250Y101000D01*
G01X49250D02*
X44250D01*
Y111000D01*
X49250D01*
G01X47250Y106167D02*
X44250D01*
G01X59250Y101000D02*
X54250D01*
Y111000D01*
X59250D01*
G01X57250Y106167D02*
X54250D01*
G01X63875Y101000D02*
Y111000D01*
X69625Y101000D01*
Y111000D01*
G01X86750D02*
Y101000D01*
G01X83875Y111000D02*
X89625D01*
G01X96750Y101000D02*
X95750Y101167D01*
X94875Y101833D01*
X94125Y102833D01*
X93625Y104000D01*
X93375Y105333D01*
Y106667D01*
X93625Y108000D01*
X94125Y109167D01*
X94875Y110167D01*
X95750Y110833D01*
X96750Y111000D01*
X97750Y110833D01*
X98625Y110167D01*
X99375Y109167D01*
X99875Y108000D01*
X100125Y106667D01*
Y105333D01*
X99875Y104000D01*
X99375Y102833D01*
X98625Y101833D01*
X97750Y101167D01*
X96750Y101000D01*
G01X104250D02*
Y111000D01*
X107250D01*
X108250Y110500D01*
X109000Y109333D01*
X109250Y108000D01*
X109000Y106667D01*
X108375Y105667D01*
X107250Y105166D01*
X104250D01*
G01X-22050Y86467D02*
Y89567D01*
X-22510Y88947D01*
G01Y86467D02*
X-21590D01*
G01X-18950Y89567D02*
X-19257Y89464D01*
X-19487Y89205D01*
X-19640Y88895D01*
X-19755Y88482D01*
X-19793Y88017D01*
X-19755Y87552D01*
X-19640Y87139D01*
X-19487Y86829D01*
X-19257Y86570D01*
X-18950Y86467D01*
X-18643Y86570D01*
X-18413Y86829D01*
X-18260Y87139D01*
X-18145Y87552D01*
X-18107Y88017D01*
X-18145Y88482D01*
X-18260Y88895D01*
X-18413Y89205D01*
X-18643Y89464D01*
X-18950Y89567D01*
G01X-24500Y119500D02*
Y129500D01*
X-22000D01*
X-21000Y129000D01*
X-20250Y128333D01*
X-19625Y127333D01*
X-19125Y126166D01*
X-19000Y124500D01*
X-19125Y122833D01*
X-19625Y121667D01*
X-20250Y120666D01*
X-21000Y120000D01*
X-22000Y119500D01*
X-24500D01*
G01X-14875D02*
X-11750Y129500D01*
X-8625Y119500D01*
G01X-9750Y123000D02*
X-13750D01*
G01X-1750Y129500D02*
Y119500D01*
G01X-4625Y129500D02*
X1125D01*
G01X10750Y119500D02*
X5750D01*
Y129500D01*
X10750D01*
G01X8750Y124667D02*
X5750D01*
G01X18250Y119167D02*
X18000Y119333D01*
Y119667D01*
X18250Y119833D01*
X18500Y119667D01*
Y119333D01*
X18250Y119167D01*
G01Y123666D02*
X18000Y123833D01*
Y124167D01*
X18250Y124333D01*
X18500Y124167D01*
Y123833D01*
X18250Y123666D01*
G01X38250Y129500D02*
X37250Y129167D01*
X36500Y128333D01*
X36000Y127333D01*
X35625Y126000D01*
X35500Y124500D01*
X35625Y123000D01*
X36000Y121667D01*
X36500Y120666D01*
X37250Y119833D01*
X38250Y119500D01*
X39250Y119833D01*
X40000Y120666D01*
X40500Y121667D01*
X40875Y123000D01*
X41000Y124500D01*
X40875Y126000D01*
X40500Y127333D01*
X40000Y128333D01*
X39250Y129167D01*
X38250Y129500D01*
G01X45500Y121500D02*
X46250Y120333D01*
X47250Y119667D01*
X48375Y119500D01*
X49375Y119667D01*
X50375Y120500D01*
X51000Y121500D01*
X51125Y122500D01*
X50875Y123666D01*
X50000Y124500D01*
X49125Y124833D01*
X48000D01*
G01X49125D02*
X49875Y125333D01*
X50500Y126166D01*
X50750Y127167D01*
X50500Y128167D01*
X49875Y129000D01*
X48750Y129500D01*
X47625Y129333D01*
X46500Y128667D01*
G01X56000Y119167D02*
X60500Y129500D01*
G01X68250D02*
X67250Y129167D01*
X66500Y128333D01*
X66000Y127333D01*
X65625Y126000D01*
X65500Y124500D01*
X65625Y123000D01*
X66000Y121667D01*
X66500Y120666D01*
X67250Y119833D01*
X68250Y119500D01*
X69250Y119833D01*
X70000Y120666D01*
X70500Y121667D01*
X70875Y123000D01*
X71000Y124500D01*
X70875Y126000D01*
X70500Y127333D01*
X70000Y128333D01*
X69250Y129167D01*
X68250Y129500D01*
G01X78250Y119500D02*
X79125Y119667D01*
X80125Y120167D01*
X80750Y121000D01*
X81000Y122167D01*
X80750Y123333D01*
X80000Y124333D01*
X78875Y124833D01*
X77625D01*
X76875Y125167D01*
X76250Y126000D01*
X76000Y127167D01*
X76375Y128333D01*
X77250Y129167D01*
X78250Y129500D01*
X79250Y129167D01*
X80125Y128333D01*
X80500Y127167D01*
X80250Y126000D01*
X79625Y125167D01*
X78875Y124833D01*
X77625D01*
X76500Y124333D01*
X75750Y123333D01*
X75500Y122167D01*
X75750Y121000D01*
X76375Y120167D01*
X77375Y119667D01*
X78250Y119500D01*
G01X86000Y119167D02*
X90500Y129500D01*
G01X95875Y127833D02*
X96625Y128833D01*
X97500Y129333D01*
X98500Y129500D01*
X99750Y129167D01*
X100625Y128333D01*
X100875Y127333D01*
X100750Y126333D01*
X100250Y125500D01*
X97750Y123833D01*
X96625Y122667D01*
X95875Y121000D01*
X95625Y119500D01*
X100875D01*
G01X108250Y129500D02*
X107250Y129167D01*
X106500Y128333D01*
X106000Y127333D01*
X105625Y126000D01*
X105500Y124500D01*
X105625Y123000D01*
X106000Y121667D01*
X106500Y120666D01*
X107250Y119833D01*
X108250Y119500D01*
X109250Y119833D01*
X110000Y120666D01*
X110500Y121667D01*
X110875Y123000D01*
X111000Y124500D01*
X110875Y126000D01*
X110500Y127333D01*
X110000Y128333D01*
X109250Y129167D01*
X108250Y129500D01*
G01X118250Y119500D02*
Y129500D01*
X116750Y127500D01*
G01Y119500D02*
X119750D01*
G01X125500Y121000D02*
X126250Y120167D01*
X127125Y119667D01*
X128250Y119500D01*
X129375Y119833D01*
X130250Y120500D01*
X130875Y121667D01*
X131000Y123000D01*
X130750Y124333D01*
X130125Y125167D01*
X129250Y125833D01*
X128375Y126000D01*
X127500Y125833D01*
X126375Y125167D01*
X126750Y129500D01*
X130125D01*
G01X-23900Y140191D02*
Y150191D01*
X-20900D01*
X-19900Y149691D01*
X-19150Y148524D01*
X-18900Y147191D01*
X-19150Y145858D01*
X-19775Y144858D01*
X-20900Y144357D01*
X-23900D01*
G01X-11400Y140191D02*
X-12400Y140358D01*
X-13275Y141024D01*
X-14025Y142024D01*
X-14525Y143191D01*
X-14775Y144524D01*
Y145858D01*
X-14525Y147191D01*
X-14025Y148358D01*
X-13275Y149358D01*
X-12400Y150024D01*
X-11400Y150191D01*
X-10400Y150024D01*
X-9525Y149358D01*
X-8775Y148358D01*
X-8275Y147191D01*
X-8025Y145858D01*
Y144524D01*
X-8275Y143191D01*
X-8775Y142024D01*
X-9525Y141024D01*
X-10400Y140358D01*
X-11400Y140191D01*
G01X-5150Y150191D02*
X-3400Y140191D01*
X-1400Y150191D01*
X600Y140191D01*
X2350Y150191D01*
G01X11100Y140191D02*
X6100D01*
Y150191D01*
X11100D01*
G01X9100Y145358D02*
X6100D01*
G01X16100Y140191D02*
Y150191D01*
X19225D01*
X20225Y149691D01*
X20850Y149024D01*
X21100Y147691D01*
X20850Y146358D01*
X20100Y145524D01*
X19225Y145024D01*
X16100D01*
G01X19225D02*
X21100Y140191D01*
G01X39600Y145524D02*
X40100Y146024D01*
X40475Y146857D01*
X40725Y148024D01*
X40475Y149024D01*
X39975Y149691D01*
X39100Y150191D01*
X35725D01*
Y140191D01*
X39850D01*
X40725Y140858D01*
X41225Y141858D01*
X41475Y143024D01*
X41225Y144191D01*
X40475Y145191D01*
X39600Y145524D01*
X35725D01*
G01X48600Y140191D02*
X47600Y140358D01*
X46725Y141024D01*
X45975Y142024D01*
X45475Y143191D01*
X45225Y144524D01*
Y145858D01*
X45475Y147191D01*
X45975Y148358D01*
X46725Y149358D01*
X47600Y150024D01*
X48600Y150191D01*
X49600Y150024D01*
X50475Y149358D01*
X51225Y148358D01*
X51725Y147191D01*
X51975Y145858D01*
Y144524D01*
X51725Y143191D01*
X51225Y142024D01*
X50475Y141024D01*
X49600Y140358D01*
X48600Y140191D01*
G01X55475D02*
X58600Y150191D01*
X61725Y140191D01*
G01X60600Y143691D02*
X56600D01*
G01X66100Y140191D02*
Y150191D01*
X69225D01*
X70225Y149691D01*
X70850Y149024D01*
X71100Y147691D01*
X70850Y146358D01*
X70100Y145524D01*
X69225Y145024D01*
X66100D01*
G01X69225D02*
X71100Y140191D01*
G01X75850D02*
Y150191D01*
X78350D01*
X79350Y149691D01*
X80100Y149024D01*
X80725Y148024D01*
X81225Y146857D01*
X81350Y145191D01*
X81225Y143524D01*
X80725Y142358D01*
X80100Y141357D01*
X79350Y140691D01*
X78350Y140191D01*
X75850D01*
G01X7767Y-134034D02*
X6233D01*
Y-130934D01*
X7767D01*
G01X7153Y-132432D02*
X6233D01*
G01X9957Y-115347D02*
X10110Y-115192D01*
X10225Y-114933D01*
X10302Y-114572D01*
X10225Y-114262D01*
X10072Y-114055D01*
X9803Y-113900D01*
X8768D01*
Y-117000D01*
X10033D01*
X10302Y-116793D01*
X10455Y-116483D01*
X10532Y-116122D01*
X10455Y-115760D01*
X10225Y-115450D01*
X9957Y-115347D01*
X8768D01*
G01X18450Y-116667D02*
X17943Y-116584D01*
X17500Y-116250D01*
X17120Y-115750D01*
X16867Y-115167D01*
X16740Y-114500D01*
Y-113834D01*
X16867Y-113167D01*
X17120Y-112584D01*
X17500Y-112084D01*
X17943Y-111750D01*
X18450Y-111667D01*
X18957Y-111750D01*
X19400Y-112084D01*
X19780Y-112584D01*
X20033Y-113167D01*
X20160Y-113834D01*
Y-114500D01*
X20033Y-115167D01*
X19780Y-115750D01*
X19400Y-116250D01*
X18957Y-116584D01*
X18450Y-116667D01*
G01X18957Y-115334D02*
X19717Y-116667D01*
G01X22157Y-115917D02*
X22537Y-116334D01*
X22980Y-116584D01*
X23550Y-116667D01*
X24120Y-116500D01*
X24563Y-116167D01*
X24880Y-115584D01*
X24943Y-114917D01*
X24817Y-114250D01*
X24500Y-113834D01*
X24057Y-113500D01*
X23613Y-113417D01*
X23170Y-113500D01*
X22600Y-113834D01*
X22790Y-111667D01*
X24500D01*
G01X-1867Y-117000D02*
Y-113900D01*
X-908D01*
X-602Y-114055D01*
X-410Y-114262D01*
X-333Y-114675D01*
X-410Y-115088D01*
X-640Y-115347D01*
X-908Y-115502D01*
X-1867D01*
G01X-908D02*
X-333Y-117000D01*
G01X1157Y-116380D02*
X1387Y-116742D01*
X1693Y-116948D01*
X2038Y-117000D01*
X2345Y-116948D01*
X2652Y-116690D01*
X2843Y-116380D01*
X2882Y-116070D01*
X2805Y-115708D01*
X2537Y-115450D01*
X2268Y-115347D01*
X1923D01*
G01X2268D02*
X2498Y-115192D01*
X2690Y-114933D01*
X2767Y-114623D01*
X2690Y-114313D01*
X2498Y-114055D01*
X2153Y-113900D01*
X1808Y-113952D01*
X1463Y-114158D01*
G01X5100Y-113900D02*
X4793Y-114003D01*
X4563Y-114262D01*
X4410Y-114572D01*
X4295Y-114985D01*
X4257Y-115450D01*
X4295Y-115915D01*
X4410Y-116328D01*
X4563Y-116638D01*
X4793Y-116897D01*
X5100Y-117000D01*
X5407Y-116897D01*
X5637Y-116638D01*
X5790Y-116328D01*
X5905Y-115915D01*
X5943Y-115450D01*
X5905Y-114985D01*
X5790Y-114572D01*
X5637Y-114262D01*
X5407Y-114003D01*
X5100Y-113900D01*
G01X3800Y-123360D02*
X6200D01*
Y-120060D01*
X3700D01*
G01X1200D02*
X-1200D01*
Y-123360D01*
X1300D01*
G01X-3867Y-130034D02*
Y-126934D01*
X-2908D01*
X-2602Y-127089D01*
X-2410Y-127296D01*
X-2333Y-127709D01*
X-2410Y-128122D01*
X-2640Y-128381D01*
X-2908Y-128536D01*
X-3867D01*
G01X-2908D02*
X-2333Y-130034D01*
G01X-843Y-129414D02*
X-613Y-129776D01*
X-307Y-129982D01*
X38Y-130034D01*
X345Y-129982D01*
X652Y-129724D01*
X843Y-129414D01*
X882Y-129104D01*
X805Y-128742D01*
X537Y-128484D01*
X268Y-128381D01*
X-77D01*
G01X268D02*
X498Y-128226D01*
X690Y-127967D01*
X767Y-127657D01*
X690Y-127347D01*
X498Y-127089D01*
X153Y-126934D01*
X-192Y-126986D01*
X-537Y-127192D01*
G01X2372Y-127451D02*
X2602Y-127141D01*
X2870Y-126986D01*
X3177Y-126934D01*
X3560Y-127037D01*
X3828Y-127296D01*
X3905Y-127606D01*
X3867Y-127916D01*
X3713Y-128174D01*
X2947Y-128691D01*
X2602Y-129052D01*
X2372Y-129569D01*
X2295Y-130034D01*
X3905D01*
G01X-5467Y-119867D02*
X-8567D01*
Y-118908D01*
X-8412Y-118602D01*
X-8205Y-118410D01*
X-7792Y-118333D01*
X-7379Y-118410D01*
X-7120Y-118640D01*
X-6965Y-118908D01*
Y-119867D01*
G01Y-118908D02*
X-5467Y-118333D01*
G01X-6087Y-116843D02*
X-5725Y-116613D01*
X-5519Y-116307D01*
X-5467Y-115962D01*
X-5519Y-115655D01*
X-5777Y-115348D01*
X-6087Y-115157D01*
X-6397Y-115118D01*
X-6759Y-115195D01*
X-7017Y-115463D01*
X-7120Y-115732D01*
Y-116077D01*
G01Y-115732D02*
X-7275Y-115502D01*
X-7534Y-115310D01*
X-7844Y-115233D01*
X-8154Y-115310D01*
X-8412Y-115502D01*
X-8567Y-115847D01*
X-8515Y-116192D01*
X-8309Y-116537D01*
G01X-5932Y-113743D02*
X-5674Y-113513D01*
X-5519Y-113245D01*
X-5467Y-112900D01*
X-5570Y-112555D01*
X-5777Y-112287D01*
X-6139Y-112095D01*
X-6552Y-112057D01*
X-6965Y-112133D01*
X-7224Y-112325D01*
X-7430Y-112593D01*
X-7482Y-112862D01*
X-7430Y-113130D01*
X-7224Y-113475D01*
X-8567Y-113360D01*
Y-112325D01*
G01X-3333Y-88867D02*
X-8333D01*
Y-87283D01*
X-8083Y-86777D01*
X-7750Y-86460D01*
X-7083Y-86333D01*
X-6416Y-86460D01*
X-6000Y-86840D01*
X-5750Y-87283D01*
Y-88867D01*
G01Y-87283D02*
X-3333Y-86333D01*
G01X-7500Y-83703D02*
X-8000Y-83323D01*
X-8250Y-82880D01*
X-8333Y-82373D01*
X-8166Y-81740D01*
X-7750Y-81297D01*
X-7250Y-81170D01*
X-6750Y-81233D01*
X-6333Y-81487D01*
X-5500Y-82753D01*
X-4916Y-83323D01*
X-4083Y-83703D01*
X-3333Y-83830D01*
Y-81170D01*
G01X-3916Y-78477D02*
X-3500Y-78033D01*
X-3333Y-77527D01*
X-3500Y-77020D01*
X-4000Y-76577D01*
X-4750Y-76260D01*
X-5500Y-76133D01*
X-6416D01*
X-7166Y-76260D01*
X-7833Y-76577D01*
X-8166Y-76957D01*
X-8333Y-77400D01*
X-8166Y-77907D01*
X-7833Y-78287D01*
X-7333Y-78540D01*
X-6666Y-78667D01*
X-6083Y-78540D01*
X-5500Y-78223D01*
X-5166Y-77843D01*
X-5083Y-77400D01*
X-5250Y-76893D01*
X-5666Y-76513D01*
X-6416Y-76133D01*
G01X-5467Y-107867D02*
X-8567D01*
Y-106908D01*
X-8412Y-106602D01*
X-8205Y-106410D01*
X-7792Y-106333D01*
X-7379Y-106410D01*
X-7120Y-106640D01*
X-6965Y-106908D01*
Y-107867D01*
G01Y-106908D02*
X-5467Y-106333D01*
G01X-8050Y-104728D02*
X-8360Y-104498D01*
X-8515Y-104230D01*
X-8567Y-103923D01*
X-8464Y-103540D01*
X-8205Y-103272D01*
X-7895Y-103195D01*
X-7585Y-103233D01*
X-7327Y-103387D01*
X-6810Y-104153D01*
X-6449Y-104498D01*
X-5932Y-104728D01*
X-5467Y-104805D01*
Y-103195D01*
G01Y-100900D02*
X-5519Y-100632D01*
X-5674Y-100325D01*
X-5932Y-100133D01*
X-6294Y-100057D01*
X-6655Y-100133D01*
X-6965Y-100363D01*
X-7120Y-100708D01*
Y-101092D01*
X-7224Y-101322D01*
X-7482Y-101513D01*
X-7844Y-101590D01*
X-8205Y-101475D01*
X-8464Y-101207D01*
X-8567Y-100900D01*
X-8464Y-100593D01*
X-8205Y-100325D01*
X-7844Y-100210D01*
X-7482Y-100287D01*
X-7224Y-100478D01*
X-7120Y-100708D01*
Y-101092D01*
X-6965Y-101437D01*
X-6655Y-101667D01*
X-6294Y-101743D01*
X-5932Y-101667D01*
X-5674Y-101475D01*
X-5519Y-101168D01*
X-5467Y-100900D01*
G01X557Y-44167D02*
Y-47750D01*
X810Y-48500D01*
X1317Y-49000D01*
X1950Y-49167D01*
X2583Y-49000D01*
X3090Y-48500D01*
X3343Y-47750D01*
Y-44167D01*
G01X7810Y-49167D02*
Y-44167D01*
X5467Y-47750D01*
X8633D01*
G01X-7207Y-30084D02*
X-7587Y-29834D01*
X-8030Y-29667D01*
X-8537D01*
X-9107Y-29917D01*
X-9550Y-30334D01*
X-9867Y-30834D01*
X-10120Y-31667D01*
X-10183Y-32417D01*
X-10057Y-33167D01*
X-9867Y-33667D01*
X-9487Y-34167D01*
X-9043Y-34500D01*
X-8600Y-34667D01*
X-8157D01*
X-7713Y-34500D01*
X-7333Y-34250D01*
X-7017Y-33917D01*
G01X-3500Y-34667D02*
Y-29667D01*
X-4260Y-30667D01*
G01Y-34667D02*
X-2740D01*
G01X2360D02*
Y-29667D01*
X17Y-33250D01*
X3183D01*
G01X6000Y11697D02*
Y10177D01*
G01X7083Y11000D02*
X4916D01*
G01X10500Y38467D02*
Y41567D01*
X10040Y40947D01*
G01Y38467D02*
X10960D01*
G01X19793Y34416D02*
X19413Y34666D01*
X18970Y34833D01*
X18463D01*
X17893Y34583D01*
X17450Y34166D01*
X17133Y33666D01*
X16880Y32833D01*
X16817Y32083D01*
X16943Y31333D01*
X17133Y30833D01*
X17513Y30333D01*
X17957Y30000D01*
X18400Y29833D01*
X18843D01*
X19287Y30000D01*
X19667Y30250D01*
X19983Y30583D01*
G01X23500Y29833D02*
Y34833D01*
X22740Y33833D01*
G01Y29833D02*
X24260D01*
G01X27397Y31916D02*
X27840Y32500D01*
X28220Y32833D01*
X28727Y33000D01*
X29170Y32833D01*
X29487Y32500D01*
X29740Y32000D01*
X29803Y31416D01*
X29740Y30916D01*
X29487Y30416D01*
X29107Y30000D01*
X28663Y29833D01*
X28157Y30000D01*
X27713Y30500D01*
X27460Y31250D01*
X27397Y32083D01*
X27523Y33166D01*
X27713Y33750D01*
X28030Y34333D01*
X28473Y34750D01*
X28917Y34833D01*
X29360Y34666D01*
X29677Y34250D01*
G01X5584Y24793D02*
X5334Y24413D01*
X5167Y23970D01*
Y23463D01*
X5417Y22893D01*
X5834Y22450D01*
X6334Y22133D01*
X7167Y21880D01*
X7917Y21817D01*
X8667Y21943D01*
X9167Y22133D01*
X9667Y22513D01*
X10000Y22957D01*
X10167Y23400D01*
Y23843D01*
X10000Y24287D01*
X9750Y24667D01*
X9417Y24983D01*
G01X10167Y28500D02*
X5167D01*
X6167Y27740D01*
G01X10167D02*
Y29260D01*
G01Y33600D02*
X10084Y34043D01*
X9834Y34550D01*
X9417Y34867D01*
X8834Y34993D01*
X8250Y34867D01*
X7750Y34487D01*
X7500Y33917D01*
Y33283D01*
X7334Y32903D01*
X6917Y32587D01*
X6334Y32460D01*
X5750Y32650D01*
X5334Y33093D01*
X5167Y33600D01*
X5334Y34107D01*
X5750Y34550D01*
X6334Y34740D01*
X6917Y34613D01*
X7334Y34297D01*
X7500Y33917D01*
Y33283D01*
X7750Y32713D01*
X8250Y32333D01*
X8834Y32207D01*
X9417Y32333D01*
X9834Y32650D01*
X10084Y33157D01*
X10167Y33600D01*
G01X9683Y67833D02*
X10000Y67333D01*
X10380Y67000D01*
X10823Y66833D01*
X11330Y67000D01*
X11710Y67333D01*
X12090Y67833D01*
X12217Y68500D01*
Y71833D01*
G01X14847Y71000D02*
X15227Y71500D01*
X15670Y71750D01*
X16177Y71833D01*
X16810Y71666D01*
X17253Y71250D01*
X17380Y70750D01*
X17317Y70250D01*
X17063Y69833D01*
X15797Y69000D01*
X15227Y68416D01*
X14847Y67583D01*
X14720Y66833D01*
X17380D01*
G01X10803Y45000D02*
X12323D01*
G01X11500Y46083D02*
Y43916D01*
G01X45232Y53000D02*
G03I-16732J0D01*
G01X9348Y83329D02*
X9617Y83070D01*
X9923Y82967D01*
X10230Y83070D01*
X10498Y83380D01*
X10690Y83845D01*
X10767Y84310D01*
Y84879D01*
X10690Y85344D01*
X10498Y85757D01*
X10268Y85964D01*
X10000Y86067D01*
X9693Y85964D01*
X9463Y85757D01*
X9310Y85447D01*
X9233Y85034D01*
X9310Y84672D01*
X9502Y84310D01*
X9732Y84104D01*
X10000Y84052D01*
X10307Y84155D01*
X10537Y84414D01*
X10767Y84879D01*
G01X28750Y-146667D02*
Y-143567D01*
X28290Y-144187D01*
G01Y-146667D02*
X29210D01*
G01X31020Y-149217D02*
Y-107283D01*
X67020D01*
Y-151500D01*
X33520Y-151717D01*
X31020Y-149218D01*
G01X31293Y-153084D02*
X30913Y-152834D01*
X30470Y-152667D01*
X29963D01*
X29393Y-152917D01*
X28950Y-153334D01*
X28633Y-153834D01*
X28380Y-154667D01*
X28317Y-155417D01*
X28443Y-156167D01*
X28633Y-156667D01*
X29013Y-157167D01*
X29457Y-157500D01*
X29900Y-157667D01*
X30343D01*
X30787Y-157500D01*
X31167Y-157250D01*
X31483Y-156917D01*
G01X35000Y-157667D02*
Y-152667D01*
X34240Y-153667D01*
G01Y-157667D02*
X35760D01*
G01X40100D02*
Y-152667D01*
X39340Y-153667D01*
G01Y-157667D02*
X40860D01*
G01X28843Y-123692D02*
X28613Y-123537D01*
X28345Y-123434D01*
X28038D01*
X27693Y-123589D01*
X27425Y-123847D01*
X27233Y-124157D01*
X27080Y-124674D01*
X27042Y-125139D01*
X27118Y-125604D01*
X27233Y-125914D01*
X27463Y-126224D01*
X27732Y-126431D01*
X28000Y-126534D01*
X28268D01*
X28537Y-126431D01*
X28767Y-126276D01*
X28958Y-126069D01*
G01X38772Y-104742D02*
X39040Y-104381D01*
X39270Y-104174D01*
X39577Y-104071D01*
X39845Y-104174D01*
X40037Y-104381D01*
X40190Y-104691D01*
X40228Y-105052D01*
X40190Y-105362D01*
X40037Y-105672D01*
X39807Y-105931D01*
X39538Y-106034D01*
X39232Y-105931D01*
X38963Y-105621D01*
X38810Y-105156D01*
X38772Y-104639D01*
X38848Y-103967D01*
X38963Y-103606D01*
X39155Y-103244D01*
X39423Y-102986D01*
X39692Y-102934D01*
X39960Y-103037D01*
X40152Y-103296D01*
G01X43633Y-85667D02*
Y-80667D01*
X45217D01*
X45723Y-80917D01*
X46040Y-81250D01*
X46167Y-81917D01*
X46040Y-82584D01*
X45660Y-83000D01*
X45217Y-83250D01*
X43633D01*
G01X45217D02*
X46167Y-85667D01*
G01X48417Y-80667D02*
X50000Y-85667D01*
X51583Y-80667D01*
G01X55100Y-85667D02*
Y-80667D01*
X54340Y-81667D01*
G01Y-85667D02*
X55860D01*
G01X32320Y-41677D02*
X35855Y-38141D01*
X36975Y-39261D01*
X37156Y-39796D01*
X37145Y-40256D01*
X36763Y-40817D01*
X36202Y-41198D01*
X35639Y-41224D01*
X35148Y-41088D01*
X34029Y-39968D01*
G01X35148Y-41088D02*
X34111Y-43468D01*
G01X36821Y-46178D02*
X40357Y-42643D01*
X39113Y-42813D01*
G01X36284Y-45641D02*
X37359Y-46716D01*
G01X40079Y-48611D02*
X40097Y-49219D01*
X40338Y-49695D01*
X40814Y-49935D01*
X41481Y-49895D01*
X42235Y-49589D01*
X42855Y-49148D01*
X43503Y-48500D01*
X43944Y-47880D01*
X44192Y-47185D01*
X44159Y-46680D01*
X43963Y-46249D01*
X43487Y-46008D01*
X42982Y-45976D01*
X42450Y-46150D01*
X41889Y-46532D01*
X41566Y-47034D01*
X41377Y-47670D01*
X41410Y-48175D01*
X41665Y-48547D01*
X42141Y-48788D01*
X42704Y-48762D01*
X43503Y-48500D01*
G01X24331Y-79311D02*
Y-65689D01*
X70170D01*
Y-79311D01*
X24331D01*
G01X22057Y26833D02*
Y23250D01*
X22310Y22500D01*
X22817Y22000D01*
X23450Y21833D01*
X24083Y22000D01*
X24590Y22500D01*
X24843Y23250D01*
Y26833D01*
G01X28550Y21833D02*
Y26833D01*
X27790Y25833D01*
G01Y21833D02*
X29310D01*
G01X38272Y70050D02*
X38502Y70360D01*
X38770Y70515D01*
X39077Y70567D01*
X39460Y70464D01*
X39728Y70205D01*
X39805Y69895D01*
X39767Y69585D01*
X39613Y69327D01*
X38847Y68810D01*
X38502Y68449D01*
X38272Y67932D01*
X38195Y67467D01*
X39805D01*
G01X29000Y85967D02*
Y89067D01*
X28540Y88447D01*
G01Y85967D02*
X29460D01*
G01X19683Y80833D02*
Y85833D01*
X21203D01*
X21710Y85583D01*
X22090Y85000D01*
X22217Y84333D01*
X22090Y83666D01*
X21773Y83166D01*
X21203Y82916D01*
X19683D01*
G01X26050Y80833D02*
Y85833D01*
X25290Y84833D01*
G01Y80833D02*
X26810D01*
G01X62335Y71071D02*
Y87449D01*
X32461D01*
X29461Y84449D01*
Y71071D01*
X62335D01*
G01X52450Y-157667D02*
X51943Y-157584D01*
X51500Y-157250D01*
X51120Y-156750D01*
X50867Y-156167D01*
X50740Y-155500D01*
Y-154834D01*
X50867Y-154167D01*
X51120Y-153584D01*
X51500Y-153084D01*
X51943Y-152750D01*
X52450Y-152667D01*
X52957Y-152750D01*
X53400Y-153084D01*
X53780Y-153584D01*
X54033Y-154167D01*
X54160Y-154834D01*
Y-155500D01*
X54033Y-156167D01*
X53780Y-156750D01*
X53400Y-157250D01*
X52957Y-157584D01*
X52450Y-157667D01*
G01X52957Y-156334D02*
X53717Y-157667D01*
G01X57550D02*
Y-152667D01*
X56790Y-153667D01*
G01Y-157667D02*
X58310D01*
G01X68750Y-142167D02*
Y-139067D01*
X68290Y-139687D01*
G01Y-142167D02*
X69210D01*
G01X71133Y-115500D02*
Y-110500D01*
X72717D01*
X73223Y-110750D01*
X73540Y-111083D01*
X73667Y-111750D01*
X73540Y-112417D01*
X73160Y-112833D01*
X72717Y-113083D01*
X71133D01*
G01X72717D02*
X73667Y-115500D01*
G01X76107Y-114500D02*
X76487Y-115083D01*
X76993Y-115417D01*
X77563Y-115500D01*
X78070Y-115417D01*
X78577Y-115000D01*
X78893Y-114500D01*
X78957Y-114000D01*
X78830Y-113417D01*
X78387Y-113000D01*
X77943Y-112833D01*
X77373D01*
G01X77943D02*
X78323Y-112583D01*
X78640Y-112167D01*
X78767Y-111667D01*
X78640Y-111167D01*
X78323Y-110750D01*
X77753Y-110500D01*
X77183Y-110583D01*
X76613Y-110917D01*
G01X82600Y-115500D02*
Y-110500D01*
X81840Y-111500D01*
G01Y-115500D02*
X83360D01*
G01X55667Y-102367D02*
X50667D01*
Y-100783D01*
X50917Y-100277D01*
X51250Y-99960D01*
X51917Y-99833D01*
X52584Y-99960D01*
X53000Y-100340D01*
X53250Y-100783D01*
Y-102367D01*
G01Y-100783D02*
X55667Y-99833D01*
G01X51500Y-97203D02*
X51000Y-96823D01*
X50750Y-96380D01*
X50667Y-95873D01*
X50834Y-95240D01*
X51250Y-94797D01*
X51750Y-94670D01*
X52250Y-94733D01*
X52667Y-94987D01*
X53500Y-96253D01*
X54084Y-96823D01*
X54917Y-97203D01*
X55667Y-97330D01*
Y-94670D01*
G01X50667Y-90900D02*
X50834Y-91407D01*
X51250Y-91787D01*
X51750Y-92040D01*
X52417Y-92230D01*
X53167Y-92293D01*
X53917Y-92230D01*
X54584Y-92040D01*
X55084Y-91787D01*
X55500Y-91407D01*
X55667Y-90900D01*
X55500Y-90393D01*
X55084Y-90013D01*
X54584Y-89760D01*
X53917Y-89570D01*
X53167Y-89507D01*
X52417Y-89570D01*
X51750Y-89760D01*
X51250Y-90013D01*
X50834Y-90393D01*
X50667Y-90900D01*
G01X62960Y-106034D02*
Y-102934D01*
X61542Y-105156D01*
X63458D01*
G01X72557Y-44167D02*
Y-47750D01*
X72810Y-48500D01*
X73317Y-49000D01*
X73950Y-49167D01*
X74583Y-49000D01*
X75090Y-48500D01*
X75343Y-47750D01*
Y-44167D01*
G01X77657Y-48417D02*
X78037Y-48834D01*
X78480Y-49084D01*
X79050Y-49167D01*
X79620Y-49000D01*
X80063Y-48667D01*
X80380Y-48084D01*
X80443Y-47417D01*
X80317Y-46750D01*
X80000Y-46334D01*
X79557Y-46000D01*
X79113Y-45917D01*
X78670Y-46000D01*
X78100Y-46334D01*
X78290Y-44167D01*
X80000D01*
G01X73084Y-33707D02*
X72834Y-34087D01*
X72667Y-34530D01*
Y-35037D01*
X72917Y-35607D01*
X73334Y-36050D01*
X73834Y-36367D01*
X74667Y-36620D01*
X75417Y-36683D01*
X76167Y-36557D01*
X76667Y-36367D01*
X77167Y-35987D01*
X77500Y-35543D01*
X77667Y-35100D01*
Y-34657D01*
X77500Y-34213D01*
X77250Y-33833D01*
X76917Y-33517D01*
G01X77667Y-30000D02*
X72667D01*
X73667Y-30760D01*
G01X77667D02*
Y-29240D01*
G01X76917Y-26293D02*
X77334Y-25913D01*
X77584Y-25470D01*
X77667Y-24900D01*
X77500Y-24330D01*
X77167Y-23887D01*
X76584Y-23570D01*
X75917Y-23507D01*
X75250Y-23633D01*
X74834Y-23950D01*
X74500Y-24393D01*
X74417Y-24837D01*
X74500Y-25280D01*
X74834Y-25850D01*
X72667Y-25660D01*
Y-23950D01*
G01X64167Y-3043D02*
X59167D01*
Y-1777D01*
X59417Y-1270D01*
X59750Y-890D01*
X60250Y-573D01*
X60834Y-320D01*
X61667Y-257D01*
X62500Y-320D01*
X63084Y-573D01*
X63584Y-890D01*
X63917Y-1270D01*
X64167Y-1777D01*
Y-3043D01*
G01X60000Y2247D02*
X59500Y2627D01*
X59250Y3070D01*
X59167Y3577D01*
X59334Y4210D01*
X59750Y4653D01*
X60250Y4780D01*
X60750Y4717D01*
X61167Y4463D01*
X62000Y3197D01*
X62584Y2627D01*
X63417Y2247D01*
X64167Y2120D01*
Y4780D01*
G01X77950Y-9667D02*
Y-14667D01*
G01X76493Y-9667D02*
X79407D01*
G01X81847Y-10500D02*
X82227Y-10000D01*
X82670Y-9750D01*
X83177Y-9667D01*
X83810Y-9834D01*
X84253Y-10250D01*
X84380Y-10750D01*
X84317Y-11250D01*
X84063Y-11667D01*
X82797Y-12500D01*
X82227Y-13084D01*
X81847Y-13917D01*
X81720Y-14667D01*
X84380D01*
G01X69167Y69507D02*
X72750D01*
X73500Y69760D01*
X74000Y70267D01*
X74167Y70900D01*
X74000Y71533D01*
X73500Y72040D01*
X72750Y72293D01*
X69167D01*
G01X74167Y76000D02*
X69167D01*
X70167Y75240D01*
G01X74167D02*
Y76760D01*
G01X70000Y79897D02*
X69500Y80277D01*
X69250Y80720D01*
X69167Y81227D01*
X69334Y81860D01*
X69750Y82303D01*
X70250Y82430D01*
X70750Y82367D01*
X71167Y82113D01*
X72000Y80847D01*
X72584Y80277D01*
X73417Y79897D01*
X74167Y79770D01*
Y82430D01*
G01X72772Y51759D02*
X73040Y52120D01*
X73270Y52327D01*
X73577Y52430D01*
X73845Y52327D01*
X74037Y52120D01*
X74190Y51810D01*
X74228Y51449D01*
X74190Y51139D01*
X74037Y50829D01*
X73807Y50570D01*
X73538Y50467D01*
X73232Y50570D01*
X72963Y50880D01*
X72810Y51345D01*
X72772Y51862D01*
X72848Y52534D01*
X72963Y52895D01*
X73155Y53257D01*
X73423Y53515D01*
X73692Y53567D01*
X73960Y53464D01*
X74152Y53205D01*
G01X74000Y84467D02*
Y87567D01*
X73540Y86947D01*
G01Y84467D02*
X74460D01*
G01X106460Y-114534D02*
Y-111434D01*
X105042Y-113656D01*
X106958D01*
G01X105272Y-123242D02*
X105540Y-122881D01*
X105770Y-122674D01*
X106077Y-122571D01*
X106345Y-122674D01*
X106537Y-122881D01*
X106690Y-123191D01*
X106728Y-123552D01*
X106690Y-123862D01*
X106537Y-124172D01*
X106307Y-124431D01*
X106038Y-124534D01*
X105732Y-124431D01*
X105463Y-124121D01*
X105310Y-123656D01*
X105272Y-123139D01*
X105348Y-122467D01*
X105463Y-122106D01*
X105655Y-121744D01*
X105923Y-121486D01*
X106192Y-121434D01*
X106460Y-121537D01*
X106652Y-121796D01*
G01X105142Y-67466D02*
Y-81292D01*
X125858D01*
Y-67466D01*
X105142D01*
G01X103534Y-106367D02*
X100434D01*
Y-105408D01*
X100589Y-105102D01*
X100796Y-104910D01*
X101209Y-104833D01*
X101622Y-104910D01*
X101881Y-105140D01*
X102036Y-105408D01*
Y-106367D01*
G01Y-105408D02*
X103534Y-104833D01*
G01X102914Y-103343D02*
X103276Y-103113D01*
X103482Y-102807D01*
X103534Y-102462D01*
X103482Y-102155D01*
X103224Y-101848D01*
X102914Y-101657D01*
X102604Y-101618D01*
X102242Y-101695D01*
X101984Y-101963D01*
X101881Y-102232D01*
Y-102577D01*
G01Y-102232D02*
X101726Y-102002D01*
X101467Y-101810D01*
X101157Y-101733D01*
X100847Y-101810D01*
X100589Y-102002D01*
X100434Y-102347D01*
X100486Y-102692D01*
X100692Y-103037D01*
G01X102914Y-100243D02*
X103276Y-100013D01*
X103482Y-99707D01*
X103534Y-99362D01*
X103482Y-99055D01*
X103224Y-98748D01*
X102914Y-98557D01*
X102604Y-98518D01*
X102242Y-98595D01*
X101984Y-98863D01*
X101881Y-99132D01*
Y-99477D01*
G01Y-99132D02*
X101726Y-98902D01*
X101467Y-98710D01*
X101157Y-98633D01*
X100847Y-98710D01*
X100589Y-98902D01*
X100434Y-99247D01*
X100486Y-99592D01*
X100692Y-99937D01*
G01X125858Y-95587D02*
Y-81761D01*
X105142D01*
Y-95587D01*
X125858D01*
G01X103534Y-91867D02*
X100434D01*
Y-90908D01*
X100589Y-90602D01*
X100796Y-90410D01*
X101209Y-90333D01*
X101622Y-90410D01*
X101881Y-90640D01*
X102036Y-90908D01*
Y-91867D01*
G01Y-90908D02*
X103534Y-90333D01*
G01X102914Y-88843D02*
X103276Y-88613D01*
X103482Y-88307D01*
X103534Y-87962D01*
X103482Y-87655D01*
X103224Y-87348D01*
X102914Y-87157D01*
X102604Y-87118D01*
X102242Y-87195D01*
X101984Y-87463D01*
X101881Y-87732D01*
Y-88077D01*
G01Y-87732D02*
X101726Y-87502D01*
X101467Y-87310D01*
X101157Y-87233D01*
X100847Y-87310D01*
X100589Y-87502D01*
X100434Y-87847D01*
X100486Y-88192D01*
X100692Y-88537D01*
G01X102242Y-85628D02*
X101881Y-85360D01*
X101674Y-85130D01*
X101571Y-84823D01*
X101674Y-84555D01*
X101881Y-84363D01*
X102191Y-84210D01*
X102552Y-84172D01*
X102862Y-84210D01*
X103172Y-84363D01*
X103431Y-84593D01*
X103534Y-84862D01*
X103431Y-85168D01*
X103121Y-85437D01*
X102656Y-85590D01*
X102139Y-85628D01*
X101467Y-85552D01*
X101106Y-85437D01*
X100744Y-85245D01*
X100486Y-84977D01*
X100434Y-84708D01*
X100537Y-84440D01*
X100796Y-84248D01*
G01X105142Y-95587D02*
Y-109413D01*
X125858D01*
Y-95587D01*
X105142D01*
G01X103534Y-77367D02*
X100434D01*
Y-76408D01*
X100589Y-76102D01*
X100796Y-75910D01*
X101209Y-75833D01*
X101622Y-75910D01*
X101881Y-76140D01*
X102036Y-76408D01*
Y-77367D01*
G01Y-76408D02*
X103534Y-75833D01*
G01X102914Y-74343D02*
X103276Y-74113D01*
X103482Y-73807D01*
X103534Y-73462D01*
X103482Y-73155D01*
X103224Y-72848D01*
X102914Y-72657D01*
X102604Y-72618D01*
X102242Y-72695D01*
X101984Y-72963D01*
X101881Y-73232D01*
Y-73577D01*
G01Y-73232D02*
X101726Y-73002D01*
X101467Y-72810D01*
X101157Y-72733D01*
X100847Y-72810D01*
X100589Y-73002D01*
X100434Y-73347D01*
X100486Y-73692D01*
X100692Y-74037D01*
G01X103534Y-69940D02*
X100434D01*
X102656Y-71358D01*
Y-69442D01*
G01X103534Y-63867D02*
X100434D01*
Y-62908D01*
X100589Y-62602D01*
X100796Y-62410D01*
X101209Y-62333D01*
X101622Y-62410D01*
X101881Y-62640D01*
X102036Y-62908D01*
Y-63867D01*
G01Y-62908D02*
X103534Y-62333D01*
G01Y-59540D02*
X100434D01*
X102656Y-60958D01*
Y-59042D01*
G01X100434Y-56900D02*
X100537Y-57207D01*
X100796Y-57437D01*
X101106Y-57590D01*
X101519Y-57705D01*
X101984Y-57743D01*
X102449Y-57705D01*
X102862Y-57590D01*
X103172Y-57437D01*
X103431Y-57207D01*
X103534Y-56900D01*
X103431Y-56593D01*
X103172Y-56363D01*
X102862Y-56210D01*
X102449Y-56095D01*
X101984Y-56057D01*
X101519Y-56095D01*
X101106Y-56210D01*
X100796Y-56363D01*
X100537Y-56593D01*
X100434Y-56900D01*
G01X125858Y-66997D02*
Y-53171D01*
X105142D01*
Y-66997D01*
X125858D01*
G01X120669Y-30501D02*
G03I-20669J0D01*
G01X87584Y57343D02*
X87334Y56963D01*
X87167Y56520D01*
Y56013D01*
X87417Y55443D01*
X87834Y55000D01*
X88334Y54683D01*
X89167Y54430D01*
X89917Y54367D01*
X90667Y54493D01*
X91167Y54683D01*
X91667Y55063D01*
X92000Y55507D01*
X92167Y55950D01*
Y56393D01*
X92000Y56837D01*
X91750Y57217D01*
X91417Y57533D01*
G01X92167Y61050D02*
X92084Y61493D01*
X91834Y62000D01*
X91417Y62317D01*
X90834Y62443D01*
X90250Y62317D01*
X89750Y61937D01*
X89500Y61367D01*
Y60733D01*
X89334Y60353D01*
X88917Y60037D01*
X88334Y59910D01*
X87750Y60100D01*
X87334Y60543D01*
X87167Y61050D01*
X87334Y61557D01*
X87750Y62000D01*
X88334Y62190D01*
X88917Y62063D01*
X89334Y61747D01*
X89500Y61367D01*
Y60733D01*
X89750Y60163D01*
X90250Y59783D01*
X90834Y59657D01*
X91417Y59783D01*
X91834Y60100D01*
X92084Y60607D01*
X92167Y61050D01*
G01X114133Y-157667D02*
Y-152667D01*
X115717D01*
X116223Y-152917D01*
X116540Y-153250D01*
X116667Y-153917D01*
X116540Y-154584D01*
X116160Y-155000D01*
X115717Y-155250D01*
X114133D01*
G01X115717D02*
X116667Y-157667D01*
G01X119297Y-153500D02*
X119677Y-153000D01*
X120120Y-152750D01*
X120627Y-152667D01*
X121260Y-152834D01*
X121703Y-153250D01*
X121830Y-153750D01*
X121767Y-154250D01*
X121513Y-154667D01*
X120247Y-155500D01*
X119677Y-156084D01*
X119297Y-156917D01*
X119170Y-157667D01*
X121830D01*
G01X125600D02*
Y-152667D01*
X124840Y-153667D01*
G01Y-157667D02*
X126360D01*
G01X116022Y-142584D02*
X116252Y-142274D01*
X116520Y-142119D01*
X116827Y-142067D01*
X117210Y-142170D01*
X117478Y-142429D01*
X117555Y-142739D01*
X117517Y-143049D01*
X117363Y-143307D01*
X116597Y-143824D01*
X116252Y-144185D01*
X116022Y-144702D01*
X115945Y-145167D01*
X117555D01*
G01X112507Y-128167D02*
Y-131750D01*
X112760Y-132500D01*
X113267Y-133000D01*
X113900Y-133167D01*
X114533Y-133000D01*
X115040Y-132500D01*
X115293Y-131750D01*
Y-128167D01*
G01X119000Y-133167D02*
Y-128167D01*
X118240Y-129167D01*
G01Y-133167D02*
X119760D01*
G01X122707Y-132167D02*
X123087Y-132750D01*
X123593Y-133084D01*
X124163Y-133167D01*
X124670Y-133084D01*
X125177Y-132667D01*
X125493Y-132167D01*
X125557Y-131667D01*
X125430Y-131084D01*
X124987Y-130667D01*
X124543Y-130500D01*
X123973D01*
G01X124543D02*
X124923Y-130250D01*
X125240Y-129834D01*
X125367Y-129334D01*
X125240Y-128834D01*
X124923Y-128417D01*
X124353Y-128167D01*
X123783Y-128250D01*
X123213Y-128584D01*
G01X125157Y-113914D02*
X125387Y-114276D01*
X125693Y-114482D01*
X126038Y-114534D01*
X126345Y-114482D01*
X126652Y-114224D01*
X126843Y-113914D01*
X126882Y-113604D01*
X126805Y-113242D01*
X126537Y-112984D01*
X126268Y-112881D01*
X125923D01*
G01X126268D02*
X126498Y-112726D01*
X126690Y-112467D01*
X126767Y-112157D01*
X126690Y-111847D01*
X126498Y-111589D01*
X126153Y-111434D01*
X125808Y-111486D01*
X125463Y-111692D01*
G01X115000Y-11803D02*
Y-13323D01*
G01X116083Y-12500D02*
X113916D01*
G01X126423Y48967D02*
X126500Y49639D01*
X126615Y50207D01*
X126768Y50724D01*
X126960Y51292D01*
X127267Y52067D01*
X125733D01*
G01X122950Y86467D02*
Y89567D01*
X122490Y88947D01*
G01Y86467D02*
X123410D01*
G01X125322Y89050D02*
X125552Y89360D01*
X125820Y89515D01*
X126127Y89567D01*
X126510Y89464D01*
X126778Y89205D01*
X126855Y88895D01*
X126817Y88585D01*
X126663Y88327D01*
X125897Y87810D01*
X125552Y87449D01*
X125322Y86932D01*
X125245Y86467D01*
X126855D01*
G54D12*
G01X9110Y-120000D02*
Y-132500D01*
X25890D01*
Y-118500D01*
X9110D01*
Y-120000D01*
G01X78050Y-7075D02*
Y46075D01*
X127300D01*
Y-7075D01*
X78050D01*
G54D13*
G01X12405Y-46262D02*
X37738Y-71595D01*
X48595Y-60738D01*
X23262Y-35405D01*
X12405Y-46262D01*
G54D14*
G01X65776Y37534D02*
Y-20931D01*
X75224D01*
Y37534D01*
X65776D01*
G01X117528Y88079D02*
X86472D01*
X83472Y85079D01*
Y47921D01*
X117528D01*
Y88079D01*
G01X108626Y-124299D02*
X108823D01*
G01X124177D02*
X124374D01*
Y-111701D01*
X124087D01*
G01X108823D02*
X108626D01*
Y-124299D01*
M02*
