G04 ================== begin FILE IDENTIFICATION RECORD ==================*
G04 Layout Name:  Touch_Board_03AUG15_1930.brd*
G04 Film Name:    AST*
G04 File Format:  Gerber RS274X*
G04 File Origin:  Cadence Allegro 16.6-P004*
G04 Origin Date:  Mon Aug 03 19:44:12 2015*
G04 *
G04 Layer:  BOARD GEOMETRY/ASSEMBLY_NOTES*
G04 Layer:  REF DES/ASSEMBLY_TOP*
G04 Layer:  PIN/TOP*
G04 Layer:  PACKAGE GEOMETRY/ASSEMBLY_TOP*
G04 Layer:  DRAWING FORMAT/ASS_TOP*
G04 Layer:  DRAWING FORMAT/FILM_LABEL_OUTLINE*
G04 Layer:  BOARD GEOMETRY/OUTLINE*
G04 *
G04 Offset:    (0.000 0.000)*
G04 Mirror:    No*
G04 Mode:      Positive*
G04 Rotation:  0*
G04 FullContactRelief:  No*
G04 UndefLineWidth:     1.000*
G04 ================== end FILE IDENTIFICATION RECORD ====================*
%FSLAX25Y25*MOIN*%
%IR0*IPPOS*OFA0.00000B0.00000*MIA0B0*SFA1.00000B1.00000*%
%ADD10R,.15X.15*%
%ADD26R,.185X.185*%
%ADD11R,.3937X.3937*%
%ADD28O,.049531X.005909*%
%ADD29O,.005909X.049531*%
%ADD23O,.025598X.007598*%
%ADD25O,.007598X.025598*%
%ADD24R,.0315X.0295*%
%ADD12R,.0295X.0315*%
%ADD13R,.043311X.023618*%
%ADD20R,.04328X.04724*%
%ADD18R,.04724X.023618*%
%ADD14R,.021701X.023598*%
%ADD17R,.023598X.021701*%
%ADD19R,.055118X.03937*%
%ADD16R,.019701X.023598*%
%ADD15R,.023598X.019701*%
%ADD22R,.025598X.019701*%
%ADD27R,.094449X.029902*%
%ADD21R,.049209X.059059*%
%ADD30C,.006*%
%ADD31C,.003941*%
%ADD32C,.005909*%
%ADD33C,.007988*%
%ADD34C,.001*%
G75*
%LPD*%
G75*
G54D10*
X14350Y97391D03*
X129885D03*
G54D20*
X193120Y93245D03*
Y86553D03*
X198628D03*
Y93245D03*
G54D11*
X41811Y31811D03*
X138110D03*
X224409D03*
G54D30*
G01X62811Y52811D02*
X20811D01*
Y10811D01*
X62811D01*
Y52811D01*
G01X3858Y107441D02*
X23858D01*
Y87441D01*
X3858D01*
Y107441D01*
G01X74415Y52799D02*
X70477D01*
Y50831D01*
X74415D01*
Y52799D01*
G01X91016Y32814D02*
Y36752D01*
X89048D01*
Y32814D01*
X91016D01*
G01X159110Y52811D02*
X117110D01*
Y10811D01*
X159110D01*
Y52811D01*
G01X119392Y107441D02*
X139392D01*
Y87441D01*
X119392D01*
Y107441D01*
G01X142161Y90831D02*
X146099D01*
Y92799D01*
X142161D01*
Y90831D01*
G01X152693Y99441D02*
X156630D01*
Y101409D01*
X158599Y99441D01*
X156630Y97472D01*
Y99441D01*
G01X158599Y101409D02*
Y99441D01*
X162536D01*
G01X158599D02*
Y97472D01*
G01Y117158D02*
Y115189D01*
X162536D01*
G01X158599D02*
Y113221D01*
G01X152693Y115189D02*
X156630D01*
Y117158D01*
X158599Y115189D01*
X156630Y113221D01*
Y115189D01*
G01X170714Y52799D02*
X166776D01*
Y50831D01*
X170714D01*
Y52799D01*
G01X187315Y32814D02*
Y36752D01*
X185347D01*
Y32814D01*
X187315D01*
G01X194691Y80401D02*
X198629D01*
Y82369D01*
X194691D01*
Y80401D01*
G01X187230Y96615D02*
X179230D01*
Y87615D01*
X187230D01*
Y96615D01*
G01X187330Y86515D02*
X179330D01*
Y77515D01*
X187330D01*
Y86515D01*
G01X197045Y99369D02*
X193107D01*
Y97401D01*
X197045D01*
Y99369D01*
G01X203409Y10811D02*
X245409D01*
Y52811D01*
X203409D01*
Y10811D01*
G01X201414Y63846D02*
Y67784D01*
X199446D01*
Y63846D01*
X201414D01*
G01X202384Y86362D02*
Y82424D01*
X204352D01*
Y86362D01*
X202384D01*
G01X206799Y99299D02*
X202861D01*
Y97331D01*
X206799D01*
Y99299D01*
G01X216389Y103139D02*
X212451D01*
Y101171D01*
X216389D01*
Y103139D01*
G01X213432Y105284D02*
Y109222D01*
X211464D01*
Y105284D01*
X213432D01*
G01X201055Y103139D02*
X197117D01*
Y101171D01*
X201055D01*
Y103139D01*
G01Y106139D02*
X197117D01*
Y104171D01*
X201055D01*
Y106139D01*
G01X233761Y67331D02*
X237699D01*
Y69299D01*
X233761D01*
Y67331D01*
G01X231147Y101671D02*
X235085D01*
Y103639D01*
X231147D01*
Y101671D01*
G01Y104971D02*
X235085D01*
Y106939D01*
X231147D01*
Y104971D01*
G01X257013Y52799D02*
X253075D01*
Y50831D01*
X257013D01*
Y52799D01*
G01X248146Y74799D02*
Y71846D01*
X250115Y73814D01*
X248146Y75784D01*
Y74799D01*
G01X263862Y76547D02*
X257898D01*
X255398Y74047D01*
Y68083D01*
X263862D01*
Y76547D01*
G01X273614Y32814D02*
Y36752D01*
X271646D01*
Y32814D01*
X273614D01*
G01X273814Y67689D02*
Y71627D01*
X271846D01*
Y67689D01*
X273814D01*
G01X270214D02*
Y71627D01*
X268246D01*
Y67689D01*
X270214D01*
G54D21*
X183230Y92115D03*
X183330Y82015D03*
G54D12*
X68032Y22815D03*
X73342D03*
X141975Y96815D03*
X147285D03*
X164331Y22815D03*
X169641D03*
X209785Y67515D03*
X204475D03*
X250630Y22815D03*
X255940D03*
G54D31*
G01X19369Y81167D02*
X19502Y80917D01*
X19662Y80750D01*
X19849Y80667D01*
X20062Y80750D01*
X20222Y80917D01*
X20381Y81167D01*
X20435Y81500D01*
Y83167D01*
G01X22098Y80667D02*
Y83167D01*
X21778Y82667D01*
G01Y80667D02*
X22418D01*
G01X11138Y111667D02*
X11804Y109167D01*
X12470Y111667D01*
G01X14586Y111458D02*
X14426Y111583D01*
X14240Y111667D01*
X14027D01*
X13787Y111542D01*
X13600Y111333D01*
X13467Y111083D01*
X13361Y110667D01*
X13334Y110292D01*
X13387Y109917D01*
X13467Y109667D01*
X13627Y109417D01*
X13814Y109250D01*
X14000Y109167D01*
X14186D01*
X14373Y109250D01*
X14533Y109375D01*
X14666Y109542D01*
G01X16782Y111458D02*
X16622Y111583D01*
X16436Y111667D01*
X16223D01*
X15983Y111542D01*
X15796Y111333D01*
X15663Y111083D01*
X15557Y110667D01*
X15530Y110292D01*
X15583Y109917D01*
X15663Y109667D01*
X15823Y109417D01*
X16010Y109250D01*
X16196Y109167D01*
X16382D01*
X16569Y109250D01*
X16729Y109375D01*
X16862Y109542D01*
G01X39446Y8482D02*
Y6690D01*
X39553Y6315D01*
X39766Y6065D01*
X40032Y5982D01*
X40298Y6065D01*
X40511Y6315D01*
X40618Y6690D01*
Y8482D01*
G01X42175Y5982D02*
X42228Y6523D01*
X42308Y6982D01*
X42414Y7398D01*
X42548Y7857D01*
X42761Y8482D01*
X41695D01*
G01X69020Y19773D02*
X68860Y19898D01*
X68674Y19982D01*
X68461D01*
X68221Y19857D01*
X68035Y19648D01*
X67901Y19398D01*
X67795Y18982D01*
X67768Y18607D01*
X67821Y18232D01*
X67901Y17982D01*
X68061Y17732D01*
X68248Y17565D01*
X68434Y17482D01*
X68620D01*
X68807Y17565D01*
X68967Y17690D01*
X69100Y17857D01*
G01X70124Y19565D02*
X70284Y19815D01*
X70470Y19940D01*
X70683Y19982D01*
X70950Y19898D01*
X71136Y19690D01*
X71189Y19440D01*
X71163Y19190D01*
X71056Y18982D01*
X70524Y18565D01*
X70284Y18273D01*
X70124Y17857D01*
X70071Y17482D01*
X71189D01*
G01X73146D02*
Y19982D01*
X72160Y18190D01*
X73492D01*
G01X70544Y29482D02*
X70704Y29190D01*
X70917Y29023D01*
X71157Y28982D01*
X71370Y29023D01*
X71583Y29232D01*
X71716Y29482D01*
X71743Y29732D01*
X71689Y30023D01*
X71503Y30232D01*
X71316Y30315D01*
X71077D01*
G01X71316D02*
X71476Y30440D01*
X71609Y30648D01*
X71663Y30898D01*
X71609Y31148D01*
X71476Y31357D01*
X71236Y31482D01*
X70997Y31440D01*
X70757Y31273D01*
G01X66463Y27086D02*
X63963D01*
Y27752D01*
X64088Y27965D01*
X64255Y28098D01*
X64588Y28152D01*
X64922Y28098D01*
X65130Y27939D01*
X65255Y27752D01*
Y27086D01*
G01Y27752D02*
X66463Y28152D01*
G01Y29815D02*
X63963D01*
X64463Y29495D01*
G01X66463D02*
Y30135D01*
G01X66172Y31558D02*
X66380Y31745D01*
X66463Y31958D01*
X66380Y32171D01*
X66130Y32357D01*
X65755Y32490D01*
X65380Y32544D01*
X64922D01*
X64547Y32490D01*
X64213Y32357D01*
X64047Y32197D01*
X63963Y32011D01*
X64047Y31798D01*
X64213Y31638D01*
X64463Y31532D01*
X64797Y31478D01*
X65088Y31532D01*
X65380Y31665D01*
X65547Y31825D01*
X65588Y32011D01*
X65505Y32224D01*
X65297Y32384D01*
X64922Y32544D01*
G01X67963Y42086D02*
X65463D01*
Y42752D01*
X65588Y42965D01*
X65755Y43098D01*
X66088Y43152D01*
X66422Y43098D01*
X66630Y42939D01*
X66755Y42752D01*
Y42086D01*
G01Y42752D02*
X67963Y43152D01*
G01Y44815D02*
X65463D01*
X65963Y44495D01*
G01X67963D02*
Y45135D01*
G01X65463Y47011D02*
X65547Y46798D01*
X65755Y46638D01*
X66005Y46532D01*
X66338Y46452D01*
X66713Y46425D01*
X67088Y46452D01*
X67422Y46532D01*
X67672Y46638D01*
X67880Y46798D01*
X67963Y47011D01*
X67880Y47224D01*
X67672Y47384D01*
X67422Y47490D01*
X67088Y47570D01*
X66713Y47597D01*
X66338Y47570D01*
X66005Y47490D01*
X65755Y47384D01*
X65547Y47224D01*
X65463Y47011D01*
G01X77946Y25982D02*
Y24190D01*
X78053Y23815D01*
X78266Y23565D01*
X78532Y23482D01*
X78798Y23565D01*
X79011Y23815D01*
X79118Y24190D01*
Y25982D01*
G01X81048Y23482D02*
Y25982D01*
X80062Y24190D01*
X81394D01*
G01X87124Y38523D02*
X87310Y38815D01*
X87470Y38982D01*
X87683Y39065D01*
X87870Y38982D01*
X88003Y38815D01*
X88109Y38565D01*
X88136Y38273D01*
X88109Y38023D01*
X88003Y37773D01*
X87843Y37565D01*
X87657Y37482D01*
X87444Y37565D01*
X87257Y37815D01*
X87151Y38190D01*
X87124Y38607D01*
X87177Y39148D01*
X87257Y39440D01*
X87390Y39732D01*
X87577Y39940D01*
X87763Y39982D01*
X87950Y39898D01*
X88083Y39690D01*
G01X87950Y24982D02*
Y27482D01*
X86964Y25690D01*
X88296D01*
G01X83901Y44482D02*
Y46982D01*
X84567D01*
X84780Y46857D01*
X84913Y46690D01*
X84967Y46357D01*
X84913Y46023D01*
X84754Y45815D01*
X84567Y45690D01*
X83901D01*
G01X84567D02*
X84967Y44482D01*
G01X86630D02*
Y46982D01*
X86310Y46482D01*
G01Y44482D02*
X86950D01*
G01X88320Y45523D02*
X88506Y45815D01*
X88666Y45982D01*
X88879Y46065D01*
X89066Y45982D01*
X89199Y45815D01*
X89305Y45565D01*
X89332Y45273D01*
X89305Y45023D01*
X89199Y44773D01*
X89039Y44565D01*
X88853Y44482D01*
X88640Y44565D01*
X88453Y44815D01*
X88347Y45190D01*
X88320Y45607D01*
X88373Y46148D01*
X88453Y46440D01*
X88586Y46732D01*
X88773Y46940D01*
X88959Y46982D01*
X89146Y46898D01*
X89279Y46690D01*
G01X78963Y42086D02*
X76463D01*
Y42752D01*
X76588Y42965D01*
X76755Y43098D01*
X77088Y43152D01*
X77422Y43098D01*
X77630Y42939D01*
X77755Y42752D01*
Y42086D01*
G01Y42752D02*
X78963Y43152D01*
G01Y44815D02*
X76463D01*
X76963Y44495D01*
G01X78963D02*
Y45135D01*
G01Y47011D02*
X76463D01*
X76963Y46691D01*
G01X78963D02*
Y47331D01*
G01X78890Y52958D02*
X78730Y53083D01*
X78544Y53167D01*
X78331D01*
X78091Y53042D01*
X77904Y52833D01*
X77771Y52583D01*
X77665Y52167D01*
X77638Y51792D01*
X77691Y51417D01*
X77771Y51167D01*
X77931Y50917D01*
X78118Y50750D01*
X78304Y50667D01*
X78490D01*
X78677Y50750D01*
X78837Y50875D01*
X78970Y51042D01*
G01X80500Y50667D02*
Y53167D01*
X80180Y52667D01*
G01Y50667D02*
X80820D01*
G01X82696D02*
X82882Y50708D01*
X83096Y50833D01*
X83229Y51042D01*
X83282Y51333D01*
X83229Y51625D01*
X83069Y51875D01*
X82829Y52000D01*
X82563D01*
X82403Y52083D01*
X82270Y52292D01*
X82217Y52583D01*
X82296Y52875D01*
X82483Y53083D01*
X82696Y53167D01*
X82909Y53083D01*
X83096Y52875D01*
X83175Y52583D01*
X83122Y52292D01*
X82989Y52083D01*
X82829Y52000D01*
X82563D01*
X82323Y51875D01*
X82163Y51625D01*
X82110Y51333D01*
X82163Y51042D01*
X82296Y50833D01*
X82510Y50708D01*
X82696Y50667D01*
G01X92672Y33205D02*
X92547Y33045D01*
X92463Y32859D01*
Y32646D01*
X92588Y32406D01*
X92797Y32220D01*
X93047Y32086D01*
X93463Y31980D01*
X93838Y31953D01*
X94213Y32006D01*
X94463Y32086D01*
X94714Y32246D01*
X94880Y32433D01*
X94963Y32619D01*
Y32805D01*
X94880Y32992D01*
X94755Y33152D01*
X94588Y33285D01*
G01X92880Y34309D02*
X92630Y34469D01*
X92505Y34655D01*
X92463Y34868D01*
X92547Y35135D01*
X92755Y35321D01*
X93005Y35374D01*
X93255Y35348D01*
X93463Y35241D01*
X93880Y34708D01*
X94172Y34469D01*
X94588Y34309D01*
X94963Y34256D01*
Y35374D01*
G01Y37011D02*
X92463D01*
X92963Y36691D01*
G01X94963D02*
Y37331D01*
G01X135446Y7482D02*
Y5690D01*
X135553Y5315D01*
X135766Y5065D01*
X136032Y4982D01*
X136298Y5065D01*
X136511Y5315D01*
X136618Y5690D01*
Y7482D01*
G01X138228Y4982D02*
X138414Y5023D01*
X138628Y5148D01*
X138761Y5357D01*
X138814Y5648D01*
X138761Y5940D01*
X138601Y6190D01*
X138361Y6315D01*
X138095D01*
X137935Y6398D01*
X137802Y6607D01*
X137749Y6898D01*
X137829Y7190D01*
X138015Y7398D01*
X138228Y7482D01*
X138441Y7398D01*
X138628Y7190D01*
X138707Y6898D01*
X138654Y6607D01*
X138521Y6398D01*
X138361Y6315D01*
X138095D01*
X137855Y6190D01*
X137695Y5940D01*
X137642Y5648D01*
X137695Y5357D01*
X137829Y5148D01*
X138042Y5023D01*
X138228Y4982D01*
G01X143390Y88958D02*
X143230Y89083D01*
X143044Y89167D01*
X142831D01*
X142591Y89042D01*
X142404Y88833D01*
X142271Y88583D01*
X142165Y88167D01*
X142138Y87792D01*
X142191Y87417D01*
X142271Y87167D01*
X142431Y86917D01*
X142618Y86750D01*
X142804Y86667D01*
X142990D01*
X143177Y86750D01*
X143337Y86875D01*
X143470Y87042D01*
G01X145000Y86667D02*
Y89167D01*
X144680Y88667D01*
G01Y86667D02*
X145320D01*
G01X147196Y89167D02*
X146983Y89083D01*
X146823Y88875D01*
X146717Y88625D01*
X146637Y88292D01*
X146610Y87917D01*
X146637Y87542D01*
X146717Y87208D01*
X146823Y86958D01*
X146983Y86750D01*
X147196Y86667D01*
X147409Y86750D01*
X147569Y86958D01*
X147675Y87208D01*
X147755Y87542D01*
X147782Y87917D01*
X147755Y88292D01*
X147675Y88625D01*
X147569Y88875D01*
X147409Y89083D01*
X147196Y89167D01*
G01X126138Y111167D02*
X126804Y108667D01*
X127470Y111167D01*
G01X129586Y110958D02*
X129426Y111083D01*
X129240Y111167D01*
X129027D01*
X128787Y111042D01*
X128600Y110833D01*
X128467Y110583D01*
X128361Y110167D01*
X128334Y109792D01*
X128387Y109417D01*
X128467Y109167D01*
X128627Y108917D01*
X128814Y108750D01*
X129000Y108667D01*
X129186D01*
X129373Y108750D01*
X129533Y108875D01*
X129666Y109042D01*
G01X131782Y110958D02*
X131622Y111083D01*
X131436Y111167D01*
X131223D01*
X130983Y111042D01*
X130796Y110833D01*
X130663Y110583D01*
X130557Y110167D01*
X130530Y109792D01*
X130583Y109417D01*
X130663Y109167D01*
X130823Y108917D01*
X131010Y108750D01*
X131196Y108667D01*
X131382D01*
X131569Y108750D01*
X131729Y108875D01*
X131862Y109042D01*
G01X143488Y102458D02*
X143328Y102583D01*
X143142Y102667D01*
X142929D01*
X142689Y102542D01*
X142503Y102333D01*
X142369Y102083D01*
X142263Y101667D01*
X142236Y101292D01*
X142289Y100917D01*
X142369Y100667D01*
X142529Y100417D01*
X142716Y100250D01*
X142902Y100167D01*
X143088D01*
X143275Y100250D01*
X143435Y100375D01*
X143568Y100542D01*
G01X144645Y100458D02*
X144832Y100250D01*
X145045Y100167D01*
X145258Y100250D01*
X145444Y100500D01*
X145577Y100875D01*
X145631Y101250D01*
Y101708D01*
X145577Y102083D01*
X145444Y102417D01*
X145284Y102583D01*
X145098Y102667D01*
X144885Y102583D01*
X144725Y102417D01*
X144619Y102167D01*
X144565Y101833D01*
X144619Y101542D01*
X144752Y101250D01*
X144912Y101083D01*
X145098Y101042D01*
X145311Y101125D01*
X145471Y101333D01*
X145631Y101708D01*
G01X162463Y27086D02*
X159963D01*
Y27752D01*
X160088Y27965D01*
X160255Y28098D01*
X160588Y28152D01*
X160922Y28098D01*
X161130Y27939D01*
X161255Y27752D01*
Y27086D01*
G01Y27752D02*
X162463Y28152D01*
G01X160380Y29309D02*
X160130Y29469D01*
X160005Y29655D01*
X159963Y29868D01*
X160047Y30135D01*
X160255Y30321D01*
X160505Y30374D01*
X160755Y30348D01*
X160963Y30241D01*
X161380Y29708D01*
X161672Y29469D01*
X162088Y29309D01*
X162463Y29256D01*
Y30374D01*
G01X159963Y32011D02*
X160047Y31798D01*
X160255Y31638D01*
X160505Y31532D01*
X160838Y31452D01*
X161213Y31425D01*
X161588Y31452D01*
X161922Y31532D01*
X162172Y31638D01*
X162380Y31798D01*
X162463Y32011D01*
X162380Y32224D01*
X162172Y32384D01*
X161922Y32490D01*
X161588Y32570D01*
X161213Y32597D01*
X160838Y32570D01*
X160505Y32490D01*
X160255Y32384D01*
X160047Y32224D01*
X159963Y32011D01*
G01X161216Y89773D02*
X161056Y89898D01*
X160870Y89982D01*
X160657D01*
X160417Y89857D01*
X160230Y89648D01*
X160097Y89398D01*
X159991Y88982D01*
X159964Y88607D01*
X160017Y88232D01*
X160097Y87982D01*
X160257Y87732D01*
X160444Y87565D01*
X160630Y87482D01*
X160816D01*
X161003Y87565D01*
X161163Y87690D01*
X161296Y87857D01*
G01X153663Y86684D02*
X151163D01*
Y87350D01*
X151288Y87563D01*
X151455Y87696D01*
X151788Y87750D01*
X152122Y87696D01*
X152330Y87537D01*
X152455Y87350D01*
Y86684D01*
G01Y87350D02*
X153663Y87750D01*
G01Y89413D02*
X151163D01*
X151663Y89093D01*
G01X153663D02*
Y89733D01*
G01X148652Y108647D02*
X148647Y111147D01*
X147665Y109353D01*
X148997Y109356D01*
G01X148333Y103647D02*
X148327Y106147D01*
X148009Y105646D01*
G01X148013Y103646D02*
X148652Y103647D01*
G01X155939Y121478D02*
X155943Y119686D01*
X156051Y119311D01*
X156264Y119062D01*
X156531Y118979D01*
X156797Y119063D01*
X157010Y119314D01*
X157115Y119689D01*
X157111Y121481D01*
G01X158727Y118984D02*
X158721Y121484D01*
X158403Y120983D01*
G01X158407Y118983D02*
X159046Y118985D01*
G01X165020Y19273D02*
X164860Y19398D01*
X164674Y19482D01*
X164461D01*
X164221Y19357D01*
X164035Y19148D01*
X163901Y18898D01*
X163795Y18482D01*
X163768Y18107D01*
X163821Y17732D01*
X163901Y17482D01*
X164061Y17232D01*
X164248Y17065D01*
X164434Y16982D01*
X164620D01*
X164807Y17065D01*
X164967Y17190D01*
X165100Y17357D01*
G01X166124Y19065D02*
X166284Y19315D01*
X166470Y19440D01*
X166683Y19482D01*
X166950Y19398D01*
X167136Y19190D01*
X167189Y18940D01*
X167163Y18690D01*
X167056Y18482D01*
X166524Y18065D01*
X166284Y17773D01*
X166124Y17357D01*
X166071Y16982D01*
X167189D01*
G01X168240Y17357D02*
X168400Y17148D01*
X168586Y17023D01*
X168826Y16982D01*
X169066Y17065D01*
X169252Y17232D01*
X169385Y17523D01*
X169412Y17857D01*
X169359Y18190D01*
X169226Y18398D01*
X169039Y18565D01*
X168853Y18607D01*
X168666Y18565D01*
X168426Y18398D01*
X168506Y19482D01*
X169226D01*
G01X175946Y24482D02*
Y22690D01*
X176053Y22315D01*
X176266Y22065D01*
X176532Y21982D01*
X176798Y22065D01*
X177011Y22315D01*
X177118Y22690D01*
Y24482D01*
G01X178142Y22357D02*
X178302Y22148D01*
X178488Y22023D01*
X178728Y21982D01*
X178968Y22065D01*
X179154Y22232D01*
X179287Y22523D01*
X179314Y22857D01*
X179261Y23190D01*
X179128Y23398D01*
X178941Y23565D01*
X178755Y23607D01*
X178568Y23565D01*
X178328Y23398D01*
X178408Y24482D01*
X179128D01*
G01X166201Y28591D02*
X166361Y28299D01*
X166574Y28133D01*
X166814Y28091D01*
X167027Y28133D01*
X167240Y28341D01*
X167373Y28591D01*
X167400Y28841D01*
X167346Y29133D01*
X167160Y29341D01*
X166974Y29424D01*
X166734D01*
G01X166974D02*
X167133Y29549D01*
X167266Y29758D01*
X167320Y30008D01*
X167266Y30258D01*
X167133Y30466D01*
X166894Y30591D01*
X166654Y30549D01*
X166414Y30383D01*
G01X174963Y42086D02*
X172463D01*
Y42752D01*
X172588Y42965D01*
X172755Y43098D01*
X173088Y43152D01*
X173422Y43098D01*
X173630Y42939D01*
X173755Y42752D01*
Y42086D01*
G01Y42752D02*
X174963Y43152D01*
G01Y44815D02*
X172463D01*
X172963Y44495D01*
G01X174963D02*
Y45135D01*
G01X174463Y46425D02*
X174755Y46585D01*
X174922Y46798D01*
X174963Y47038D01*
X174922Y47251D01*
X174714Y47464D01*
X174463Y47597D01*
X174213Y47624D01*
X173922Y47570D01*
X173713Y47384D01*
X173630Y47197D01*
Y46958D01*
G01Y47197D02*
X173505Y47357D01*
X173297Y47490D01*
X173047Y47544D01*
X172797Y47490D01*
X172588Y47357D01*
X172463Y47118D01*
X172505Y46878D01*
X172672Y46638D01*
G01X163963Y42086D02*
X161463D01*
Y42752D01*
X161588Y42965D01*
X161755Y43098D01*
X162088Y43152D01*
X162422Y43098D01*
X162630Y42939D01*
X162755Y42752D01*
Y42086D01*
G01Y42752D02*
X163963Y43152D01*
G01Y44815D02*
X161463D01*
X161963Y44495D01*
G01X163963D02*
Y45135D01*
G01X161880Y46505D02*
X161630Y46665D01*
X161505Y46851D01*
X161463Y47064D01*
X161547Y47331D01*
X161755Y47517D01*
X162005Y47570D01*
X162255Y47544D01*
X162463Y47437D01*
X162880Y46905D01*
X163172Y46665D01*
X163588Y46505D01*
X163963Y46452D01*
Y47570D01*
G01X167020Y56773D02*
X166860Y56898D01*
X166674Y56982D01*
X166461D01*
X166221Y56857D01*
X166034Y56648D01*
X165901Y56398D01*
X165795Y55982D01*
X165768Y55607D01*
X165821Y55232D01*
X165901Y54982D01*
X166061Y54732D01*
X166248Y54565D01*
X166434Y54482D01*
X166620D01*
X166807Y54565D01*
X166967Y54690D01*
X167100Y54857D01*
G01X168630Y54482D02*
Y56982D01*
X168310Y56482D01*
G01Y54482D02*
X168950D01*
G01X170373Y54773D02*
X170560Y54565D01*
X170773Y54482D01*
X170986Y54565D01*
X171172Y54815D01*
X171305Y55190D01*
X171359Y55565D01*
Y56023D01*
X171305Y56398D01*
X171172Y56732D01*
X171012Y56898D01*
X170826Y56982D01*
X170613Y56898D01*
X170453Y56732D01*
X170347Y56482D01*
X170293Y56148D01*
X170347Y55857D01*
X170480Y55565D01*
X170640Y55398D01*
X170826Y55357D01*
X171039Y55440D01*
X171199Y55648D01*
X171359Y56023D01*
G01X178343Y69315D02*
X178450Y69440D01*
X178530Y69648D01*
X178583Y69940D01*
X178530Y70190D01*
X178423Y70357D01*
X178236Y70482D01*
X177517D01*
Y67982D01*
X178396D01*
X178583Y68148D01*
X178689Y68398D01*
X178743Y68690D01*
X178689Y68982D01*
X178530Y69232D01*
X178343Y69315D01*
X177517D01*
G01X161716Y73773D02*
X161556Y73898D01*
X161370Y73982D01*
X161157D01*
X160917Y73857D01*
X160731Y73648D01*
X160597Y73398D01*
X160491Y72982D01*
X160464Y72607D01*
X160517Y72232D01*
X160597Y71982D01*
X160757Y71732D01*
X160944Y71565D01*
X161130Y71482D01*
X161316D01*
X161503Y71565D01*
X161663Y71690D01*
X161796Y71857D01*
G01X178663Y75482D02*
X177597D01*
Y77982D01*
X178663D01*
G01X178236Y76773D02*
X177597D01*
G01X168032Y61982D02*
X167819Y62023D01*
X167632Y62190D01*
X167473Y62440D01*
X167366Y62732D01*
X167313Y63065D01*
Y63398D01*
X167366Y63732D01*
X167473Y64023D01*
X167632Y64273D01*
X167819Y64440D01*
X168032Y64482D01*
X168245Y64440D01*
X168432Y64273D01*
X168591Y64023D01*
X168698Y63732D01*
X168751Y63398D01*
Y63065D01*
X168698Y62732D01*
X168591Y62440D01*
X168432Y62190D01*
X168245Y62023D01*
X168032Y61982D01*
G01X168245Y62648D02*
X168565Y61982D01*
G01X169722Y64065D02*
X169882Y64315D01*
X170068Y64440D01*
X170281Y64482D01*
X170548Y64398D01*
X170734Y64190D01*
X170787Y63940D01*
X170761Y63690D01*
X170654Y63482D01*
X170122Y63065D01*
X169882Y62773D01*
X169722Y62357D01*
X169669Y61982D01*
X170787D01*
G01X178663Y91482D02*
X177597D01*
Y93982D01*
X178663D01*
G01X178236Y92773D02*
X177597D01*
G01X178343Y84815D02*
X178450Y84940D01*
X178530Y85148D01*
X178583Y85440D01*
X178530Y85690D01*
X178423Y85857D01*
X178236Y85982D01*
X177517D01*
Y83482D01*
X178396D01*
X178583Y83648D01*
X178689Y83898D01*
X178743Y84190D01*
X178689Y84482D01*
X178530Y84732D01*
X178343Y84815D01*
X177517D01*
G01X164246Y108645D02*
X164406Y108354D01*
X164619Y108188D01*
X164859Y108147D01*
X165072Y108189D01*
X165285Y108397D01*
X165417Y108648D01*
X165444Y108898D01*
X165390Y109189D01*
X165203Y109397D01*
X165016Y109480D01*
X164776Y109480D01*
G01X165016Y109480D02*
X165176Y109606D01*
X165308Y109814D01*
X165361Y110064D01*
X165307Y110314D01*
X165174Y110522D01*
X164934Y110647D01*
X164694Y110605D01*
X164455Y110437D01*
G01X163716Y105229D02*
X163875Y105479D01*
X164062Y105605D01*
X164274Y105647D01*
X164541Y105564D01*
X164728Y105356D01*
X164782Y105106D01*
X164756Y104856D01*
X164649Y104647D01*
X164118Y104230D01*
X163879Y103938D01*
X163720Y103520D01*
X163667Y103145D01*
X164786Y103148D01*
G01X169032Y96482D02*
X168819Y96523D01*
X168632Y96690D01*
X168473Y96940D01*
X168366Y97232D01*
X168313Y97565D01*
Y97898D01*
X168366Y98232D01*
X168473Y98523D01*
X168632Y98773D01*
X168819Y98940D01*
X169032Y98982D01*
X169245Y98940D01*
X169432Y98773D01*
X169591Y98523D01*
X169698Y98232D01*
X169751Y97898D01*
Y97565D01*
X169698Y97232D01*
X169591Y96940D01*
X169432Y96690D01*
X169245Y96523D01*
X169032Y96482D01*
G01X169245Y97148D02*
X169565Y96482D01*
G01X171228D02*
Y98982D01*
X170908Y98482D01*
G01Y96482D02*
X171548D01*
G01X183624Y38523D02*
X183810Y38815D01*
X183970Y38982D01*
X184183Y39065D01*
X184370Y38982D01*
X184503Y38815D01*
X184609Y38565D01*
X184636Y38273D01*
X184609Y38023D01*
X184503Y37773D01*
X184343Y37565D01*
X184157Y37482D01*
X183944Y37565D01*
X183757Y37815D01*
X183651Y38190D01*
X183624Y38607D01*
X183677Y39148D01*
X183757Y39440D01*
X183890Y39732D01*
X184077Y39940D01*
X184263Y39982D01*
X184450Y39898D01*
X184583Y39690D01*
G01X184450Y26482D02*
Y28982D01*
X183464Y27190D01*
X184796D01*
G01X188672Y33205D02*
X188547Y33045D01*
X188463Y32859D01*
Y32646D01*
X188588Y32406D01*
X188797Y32220D01*
X189047Y32086D01*
X189463Y31980D01*
X189838Y31953D01*
X190213Y32006D01*
X190463Y32086D01*
X190714Y32246D01*
X190880Y32433D01*
X190963Y32619D01*
Y32805D01*
X190880Y32992D01*
X190755Y33152D01*
X190588Y33285D01*
G01X188880Y34309D02*
X188630Y34469D01*
X188505Y34655D01*
X188463Y34868D01*
X188547Y35135D01*
X188755Y35321D01*
X189005Y35374D01*
X189255Y35348D01*
X189463Y35241D01*
X189880Y34708D01*
X190172Y34469D01*
X190588Y34309D01*
X190963Y34256D01*
Y35374D01*
G01X188880Y36505D02*
X188630Y36665D01*
X188505Y36851D01*
X188463Y37064D01*
X188547Y37331D01*
X188755Y37517D01*
X189005Y37570D01*
X189255Y37544D01*
X189463Y37437D01*
X189880Y36904D01*
X190172Y36665D01*
X190588Y36505D01*
X190963Y36452D01*
Y37570D01*
G01X180188Y43815D02*
Y46315D01*
X180854D01*
X181067Y46190D01*
X181201Y46023D01*
X181254Y45690D01*
X181201Y45357D01*
X181041Y45148D01*
X180854Y45023D01*
X180188D01*
G01X180854D02*
X181254Y43815D01*
G01X182917D02*
Y46315D01*
X182598Y45815D01*
G01Y43815D02*
X183237D01*
G01X185060D02*
X185113Y44357D01*
X185193Y44815D01*
X185300Y45232D01*
X185433Y45690D01*
X185646Y46315D01*
X184580D01*
G01X188499Y68482D02*
Y70982D01*
X189165D01*
X189378Y70857D01*
X189511Y70690D01*
X189565Y70357D01*
X189511Y70023D01*
X189352Y69815D01*
X189165Y69690D01*
X188499D01*
G01X189165D02*
X189565Y68482D01*
G01X190642Y68857D02*
X190802Y68648D01*
X190988Y68523D01*
X191228Y68482D01*
X191468Y68565D01*
X191654Y68732D01*
X191787Y69023D01*
X191814Y69357D01*
X191761Y69690D01*
X191628Y69898D01*
X191441Y70065D01*
X191255Y70107D01*
X191068Y70065D01*
X190829Y69898D01*
X190908Y70982D01*
X191628D01*
G01X188499Y72482D02*
Y74982D01*
X189165D01*
X189378Y74857D01*
X189511Y74690D01*
X189565Y74357D01*
X189511Y74023D01*
X189352Y73815D01*
X189165Y73690D01*
X188499D01*
G01X189165D02*
X189565Y72482D01*
G01X191548D02*
Y74982D01*
X190562Y73190D01*
X191894D01*
G01X195172Y64700D02*
X195047Y64540D01*
X194963Y64354D01*
Y64141D01*
X195088Y63901D01*
X195297Y63714D01*
X195547Y63581D01*
X195963Y63475D01*
X196338Y63448D01*
X196713Y63501D01*
X196963Y63581D01*
X197214Y63741D01*
X197380Y63928D01*
X197463Y64114D01*
Y64300D01*
X197380Y64487D01*
X197255Y64647D01*
X197088Y64780D01*
G01X197463Y66310D02*
X194963D01*
X195463Y65990D01*
G01X197463D02*
Y66630D01*
G01Y68453D02*
X196922Y68506D01*
X196464Y68586D01*
X196047Y68692D01*
X195588Y68826D01*
X194963Y69039D01*
Y67973D01*
G01X195515Y77273D02*
X195355Y77398D01*
X195169Y77482D01*
X194956D01*
X194716Y77357D01*
X194530Y77148D01*
X194396Y76898D01*
X194290Y76482D01*
X194263Y76107D01*
X194316Y75732D01*
X194396Y75482D01*
X194556Y75232D01*
X194743Y75065D01*
X194929Y74982D01*
X195115D01*
X195302Y75065D01*
X195462Y75190D01*
X195595Y75357D01*
G01X197125Y74982D02*
Y77482D01*
X196805Y76982D01*
G01Y74982D02*
X197445D01*
G01X198815Y77065D02*
X198975Y77315D01*
X199161Y77440D01*
X199374Y77482D01*
X199641Y77398D01*
X199827Y77190D01*
X199880Y76940D01*
X199854Y76690D01*
X199747Y76482D01*
X199214Y76065D01*
X198975Y75773D01*
X198815Y75357D01*
X198762Y74982D01*
X199880D01*
G01X188499Y77482D02*
Y79982D01*
X189165D01*
X189378Y79857D01*
X189511Y79690D01*
X189565Y79357D01*
X189511Y79023D01*
X189352Y78815D01*
X189165Y78690D01*
X188499D01*
G01X189165D02*
X189565Y77482D01*
G01X190669D02*
X191787Y79982D01*
G01X190669D02*
X191787Y77482D01*
G01X188615Y100273D02*
X188455Y100398D01*
X188269Y100482D01*
X188056D01*
X187816Y100357D01*
X187630Y100148D01*
X187496Y99898D01*
X187390Y99482D01*
X187363Y99107D01*
X187416Y98732D01*
X187496Y98482D01*
X187656Y98232D01*
X187843Y98065D01*
X188029Y97982D01*
X188215D01*
X188402Y98065D01*
X188562Y98190D01*
X188695Y98356D01*
G01X190172Y97982D02*
X190225Y98523D01*
X190305Y98982D01*
X190411Y99398D01*
X190545Y99857D01*
X190758Y100482D01*
X189692D01*
G01X192615Y103273D02*
X192455Y103398D01*
X192269Y103482D01*
X192056D01*
X191816Y103357D01*
X191630Y103148D01*
X191496Y102898D01*
X191390Y102482D01*
X191363Y102107D01*
X191416Y101732D01*
X191496Y101482D01*
X191656Y101232D01*
X191843Y101065D01*
X192029Y100982D01*
X192215D01*
X192402Y101065D01*
X192562Y101190D01*
X192695Y101357D01*
G01X193639D02*
X193799Y101148D01*
X193985Y101023D01*
X194225Y100982D01*
X194465Y101065D01*
X194651Y101232D01*
X194784Y101523D01*
X194811Y101857D01*
X194758Y102190D01*
X194624Y102398D01*
X194438Y102565D01*
X194252Y102607D01*
X194065Y102565D01*
X193826Y102398D01*
X193905Y103482D01*
X194624D01*
G01X192615Y106773D02*
X192455Y106898D01*
X192269Y106982D01*
X192056D01*
X191816Y106857D01*
X191630Y106648D01*
X191496Y106398D01*
X191390Y105982D01*
X191363Y105607D01*
X191416Y105232D01*
X191496Y104982D01*
X191656Y104732D01*
X191843Y104565D01*
X192029Y104482D01*
X192215D01*
X192402Y104565D01*
X192562Y104690D01*
X192695Y104857D01*
G01X193639Y104982D02*
X193799Y104690D01*
X194012Y104523D01*
X194252Y104482D01*
X194465Y104523D01*
X194678Y104732D01*
X194811Y104982D01*
X194838Y105232D01*
X194784Y105523D01*
X194598Y105732D01*
X194411Y105815D01*
X194172D01*
G01X194411D02*
X194571Y105940D01*
X194704Y106148D01*
X194758Y106398D01*
X194704Y106648D01*
X194571Y106857D01*
X194332Y106982D01*
X194092Y106940D01*
X193852Y106773D01*
G01X180032Y99982D02*
Y97482D01*
G01X179419Y99982D02*
X180645D01*
G01X181669Y97482D02*
X182787Y99982D01*
G01X181669D02*
X182787Y97482D01*
G01X206996Y58482D02*
Y55982D01*
X208062D01*
G01X209139Y56357D02*
X209299Y56148D01*
X209485Y56023D01*
X209725Y55982D01*
X209965Y56065D01*
X210151Y56232D01*
X210284Y56523D01*
X210311Y56857D01*
X210258Y57190D01*
X210124Y57398D01*
X209938Y57565D01*
X209752Y57607D01*
X209565Y57565D01*
X209326Y57398D01*
X209405Y58482D01*
X210124D01*
G01X202015Y73273D02*
X201855Y73398D01*
X201669Y73482D01*
X201456D01*
X201216Y73357D01*
X201030Y73148D01*
X200896Y72898D01*
X200790Y72482D01*
X200763Y72107D01*
X200816Y71732D01*
X200896Y71482D01*
X201056Y71232D01*
X201243Y71065D01*
X201429Y70982D01*
X201615D01*
X201802Y71065D01*
X201962Y71190D01*
X202095Y71357D01*
G01X203625Y70982D02*
Y73482D01*
X203305Y72982D01*
G01Y70982D02*
X203945D01*
G01X205315Y72023D02*
X205501Y72315D01*
X205661Y72482D01*
X205874Y72565D01*
X206061Y72482D01*
X206194Y72315D01*
X206300Y72065D01*
X206327Y71773D01*
X206300Y71523D01*
X206194Y71273D01*
X206034Y71065D01*
X205848Y70982D01*
X205635Y71065D01*
X205448Y71315D01*
X205342Y71690D01*
X205315Y72107D01*
X205368Y72648D01*
X205448Y72940D01*
X205581Y73232D01*
X205768Y73440D01*
X205954Y73482D01*
X206141Y73398D01*
X206274Y73190D01*
G01X206852Y74482D02*
Y76982D01*
X205866Y75190D01*
X207198D01*
G01X208728Y74482D02*
X208914Y74523D01*
X209128Y74648D01*
X209261Y74856D01*
X209314Y75148D01*
X209261Y75440D01*
X209101Y75690D01*
X208861Y75815D01*
X208595D01*
X208435Y75898D01*
X208302Y76107D01*
X208249Y76398D01*
X208328Y76690D01*
X208515Y76898D01*
X208728Y76982D01*
X208941Y76898D01*
X209128Y76690D01*
X209207Y76398D01*
X209154Y76107D01*
X209021Y75898D01*
X208861Y75815D01*
X208595D01*
X208355Y75690D01*
X208195Y75440D01*
X208142Y75148D01*
X208195Y74856D01*
X208328Y74648D01*
X208542Y74523D01*
X208728Y74482D01*
G01X202015Y80273D02*
X201855Y80398D01*
X201669Y80482D01*
X201456D01*
X201216Y80357D01*
X201030Y80148D01*
X200896Y79898D01*
X200790Y79482D01*
X200763Y79107D01*
X200816Y78732D01*
X200896Y78482D01*
X201056Y78232D01*
X201243Y78065D01*
X201429Y77982D01*
X201615D01*
X201802Y78065D01*
X201962Y78190D01*
X202095Y78357D01*
G01X203625Y77982D02*
Y80482D01*
X203305Y79982D01*
G01Y77982D02*
X203945D01*
G01X205821D02*
Y80482D01*
X205501Y79982D01*
G01Y77982D02*
X206141D01*
G01X202470Y89982D02*
X203588Y92482D01*
G01X202470D02*
X203588Y89982D01*
G01X205225D02*
Y92482D01*
X204905Y91982D01*
G01Y89982D02*
X205545D01*
G01X206129Y85482D02*
Y87982D01*
X205809Y87482D01*
G01Y85482D02*
X206449D01*
G01X206446Y93482D02*
X206606Y93190D01*
X206819Y93023D01*
X207059Y92982D01*
X207272Y93023D01*
X207485Y93232D01*
X207618Y93482D01*
X207645Y93732D01*
X207591Y94023D01*
X207405Y94232D01*
X207218Y94315D01*
X206979D01*
G01X207218D02*
X207378Y94440D01*
X207511Y94648D01*
X207565Y94898D01*
X207511Y95148D01*
X207378Y95357D01*
X207139Y95482D01*
X206899Y95440D01*
X206659Y95273D01*
G01X209175Y92982D02*
X209228Y93523D01*
X209308Y93982D01*
X209414Y94398D01*
X209548Y94857D01*
X209761Y95482D01*
X208695D01*
G01X202672Y107300D02*
X202547Y107140D01*
X202463Y106954D01*
Y106741D01*
X202588Y106501D01*
X202797Y106314D01*
X203047Y106181D01*
X203463Y106075D01*
X203838Y106048D01*
X204213Y106101D01*
X204463Y106181D01*
X204714Y106341D01*
X204880Y106528D01*
X204963Y106714D01*
Y106900D01*
X204880Y107087D01*
X204755Y107247D01*
X204589Y107380D01*
G01X204963Y108910D02*
X204922Y109096D01*
X204797Y109310D01*
X204589Y109443D01*
X204297Y109496D01*
X204005Y109443D01*
X203755Y109283D01*
X203630Y109043D01*
Y108777D01*
X203547Y108617D01*
X203338Y108484D01*
X203047Y108431D01*
X202755Y108510D01*
X202547Y108697D01*
X202463Y108910D01*
X202547Y109123D01*
X202755Y109310D01*
X203047Y109389D01*
X203338Y109336D01*
X203547Y109203D01*
X203630Y109043D01*
Y108777D01*
X203755Y108537D01*
X204005Y108377D01*
X204297Y108324D01*
X204589Y108377D01*
X204797Y108510D01*
X204922Y108724D01*
X204963Y108910D01*
G01X206463Y106181D02*
X208963D01*
Y107247D01*
G01X206880Y108404D02*
X206630Y108564D01*
X206505Y108750D01*
X206463Y108963D01*
X206547Y109230D01*
X206755Y109416D01*
X207005Y109469D01*
X207255Y109443D01*
X207463Y109336D01*
X207880Y108804D01*
X208172Y108564D01*
X208589Y108404D01*
X208963Y108351D01*
Y109469D01*
G01X199624Y98565D02*
X199784Y98815D01*
X199970Y98940D01*
X200183Y98982D01*
X200450Y98898D01*
X200636Y98690D01*
X200689Y98440D01*
X200663Y98190D01*
X200556Y97982D01*
X200024Y97565D01*
X199784Y97273D01*
X199624Y96857D01*
X199571Y96482D01*
X200689D01*
G01X210943Y98482D02*
X211103Y98190D01*
X211316Y98023D01*
X211556Y97982D01*
X211769Y98023D01*
X211982Y98232D01*
X212115Y98482D01*
X212142Y98732D01*
X212088Y99023D01*
X211902Y99232D01*
X211715Y99315D01*
X211476D01*
G01X211715D02*
X211875Y99440D01*
X212008Y99648D01*
X212062Y99898D01*
X212008Y100148D01*
X211875Y100357D01*
X211636Y100482D01*
X211396Y100440D01*
X211156Y100273D01*
G01X213219Y99023D02*
X213405Y99315D01*
X213565Y99482D01*
X213778Y99565D01*
X213965Y99482D01*
X214098Y99315D01*
X214204Y99065D01*
X214231Y98773D01*
X214204Y98523D01*
X214098Y98273D01*
X213938Y98065D01*
X213752Y97982D01*
X213539Y98065D01*
X213352Y98315D01*
X213246Y98690D01*
X213219Y99107D01*
X213272Y99648D01*
X213352Y99940D01*
X213485Y100232D01*
X213672Y100440D01*
X213858Y100482D01*
X214045Y100398D01*
X214178Y100190D01*
G01X211172Y112800D02*
X211047Y112640D01*
X210963Y112454D01*
Y112241D01*
X211088Y112001D01*
X211297Y111814D01*
X211547Y111681D01*
X211963Y111575D01*
X212338Y111548D01*
X212713Y111601D01*
X212963Y111681D01*
X213214Y111841D01*
X213380Y112028D01*
X213463Y112214D01*
Y112400D01*
X213380Y112587D01*
X213255Y112747D01*
X213088Y112880D01*
G01X213463Y114410D02*
X210963D01*
X211463Y114090D01*
G01X213463D02*
Y114730D01*
G01X222946Y7982D02*
Y6190D01*
X223053Y5815D01*
X223266Y5565D01*
X223532Y5482D01*
X223798Y5565D01*
X224011Y5815D01*
X224118Y6190D01*
Y7982D01*
G01X225275Y5773D02*
X225462Y5565D01*
X225675Y5482D01*
X225888Y5565D01*
X226074Y5815D01*
X226207Y6190D01*
X226261Y6565D01*
Y7023D01*
X226207Y7398D01*
X226074Y7732D01*
X225914Y7898D01*
X225728Y7982D01*
X225515Y7898D01*
X225355Y7732D01*
X225249Y7482D01*
X225195Y7148D01*
X225249Y6857D01*
X225382Y6565D01*
X225542Y6398D01*
X225728Y6357D01*
X225941Y6440D01*
X226101Y6648D01*
X226261Y7023D01*
G01X218463Y62681D02*
X220963D01*
Y63747D01*
G01Y65730D02*
X218463D01*
X220255Y64744D01*
Y66076D01*
G01X215463Y69814D02*
X212963D01*
X213463Y69494D01*
G01X215463D02*
Y70134D01*
G01X230963Y67214D02*
X228463D01*
X228963Y66894D01*
G01X230963D02*
Y67534D01*
G01X228880Y68904D02*
X228630Y69064D01*
X228505Y69250D01*
X228463Y69463D01*
X228547Y69730D01*
X228755Y69916D01*
X229005Y69969D01*
X229255Y69943D01*
X229463Y69836D01*
X229880Y69304D01*
X230172Y69064D01*
X230589Y68904D01*
X230963Y68851D01*
Y69969D01*
G01X221943Y69982D02*
Y68190D01*
X222050Y67815D01*
X222263Y67565D01*
X222529Y67482D01*
X222795Y67565D01*
X223008Y67815D01*
X223115Y68190D01*
Y69982D01*
G01X224219Y69565D02*
X224379Y69815D01*
X224565Y69940D01*
X224778Y69982D01*
X225045Y69898D01*
X225231Y69690D01*
X225284Y69440D01*
X225258Y69190D01*
X225151Y68982D01*
X224618Y68565D01*
X224379Y68273D01*
X224219Y67857D01*
X224166Y67482D01*
X225284D01*
G01X215172Y106800D02*
X215047Y106640D01*
X214963Y106454D01*
Y106241D01*
X215088Y106001D01*
X215297Y105815D01*
X215547Y105681D01*
X215963Y105575D01*
X216338Y105548D01*
X216713Y105601D01*
X216963Y105681D01*
X217214Y105841D01*
X217380Y106028D01*
X217463Y106214D01*
Y106400D01*
X217380Y106587D01*
X217255Y106747D01*
X217089Y106880D01*
G01X216422Y107904D02*
X216130Y108090D01*
X215963Y108250D01*
X215880Y108463D01*
X215963Y108650D01*
X216130Y108783D01*
X216380Y108889D01*
X216672Y108916D01*
X216922Y108889D01*
X217172Y108783D01*
X217380Y108623D01*
X217463Y108437D01*
X217380Y108224D01*
X217130Y108037D01*
X216755Y107931D01*
X216338Y107904D01*
X215797Y107957D01*
X215505Y108037D01*
X215213Y108170D01*
X215005Y108357D01*
X214963Y108543D01*
X215047Y108730D01*
X215255Y108863D01*
G01X223496Y110482D02*
Y107982D01*
X224562D01*
G01X226225D02*
Y110482D01*
X225905Y109982D01*
G01Y107982D02*
X226545D01*
G01X218963Y105681D02*
X221463D01*
Y106747D01*
G01X220963Y107824D02*
X221255Y107984D01*
X221422Y108197D01*
X221463Y108437D01*
X221422Y108650D01*
X221214Y108863D01*
X220963Y108996D01*
X220713Y109023D01*
X220422Y108969D01*
X220213Y108783D01*
X220130Y108596D01*
Y108357D01*
G01Y108596D02*
X220005Y108756D01*
X219797Y108889D01*
X219547Y108943D01*
X219297Y108889D01*
X219088Y108756D01*
X218963Y108516D01*
X219005Y108277D01*
X219172Y108037D01*
G01X232999Y55282D02*
Y57782D01*
X233665D01*
X233878Y57657D01*
X234011Y57490D01*
X234065Y57157D01*
X234011Y56823D01*
X233852Y56615D01*
X233665Y56490D01*
X232999D01*
G01X233665D02*
X234065Y55282D01*
G01X235275Y55573D02*
X235462Y55365D01*
X235675Y55282D01*
X235888Y55365D01*
X236074Y55615D01*
X236207Y55990D01*
X236261Y56365D01*
Y56823D01*
X236207Y57198D01*
X236074Y57532D01*
X235914Y57698D01*
X235728Y57782D01*
X235515Y57698D01*
X235355Y57532D01*
X235249Y57282D01*
X235195Y56948D01*
X235249Y56657D01*
X235382Y56365D01*
X235542Y56198D01*
X235728Y56157D01*
X235941Y56240D01*
X236101Y56448D01*
X236261Y56823D01*
G01X232999Y59282D02*
Y61782D01*
X233665D01*
X233878Y61657D01*
X234011Y61490D01*
X234065Y61157D01*
X234011Y60823D01*
X233852Y60615D01*
X233665Y60490D01*
X232999D01*
G01X233665D02*
X234065Y59282D01*
G01X235728D02*
X235914Y59323D01*
X236128Y59448D01*
X236261Y59656D01*
X236314Y59948D01*
X236261Y60240D01*
X236101Y60490D01*
X235861Y60615D01*
X235595D01*
X235435Y60698D01*
X235302Y60907D01*
X235249Y61198D01*
X235328Y61490D01*
X235515Y61698D01*
X235728Y61782D01*
X235941Y61698D01*
X236128Y61490D01*
X236207Y61198D01*
X236154Y60907D01*
X236021Y60698D01*
X235861Y60615D01*
X235595D01*
X235355Y60490D01*
X235195Y60240D01*
X235142Y59948D01*
X235195Y59656D01*
X235328Y59448D01*
X235542Y59323D01*
X235728Y59282D01*
G01X246663Y69684D02*
X244163D01*
Y70350D01*
X244288Y70563D01*
X244455Y70696D01*
X244788Y70750D01*
X245122Y70696D01*
X245330Y70537D01*
X245455Y70350D01*
Y69684D01*
G01Y70350D02*
X246663Y70750D01*
G01X245622Y71907D02*
X245330Y72093D01*
X245163Y72253D01*
X245080Y72466D01*
X245163Y72653D01*
X245330Y72786D01*
X245580Y72892D01*
X245872Y72919D01*
X246122Y72892D01*
X246372Y72786D01*
X246580Y72626D01*
X246663Y72440D01*
X246580Y72227D01*
X246330Y72040D01*
X245955Y71934D01*
X245538Y71907D01*
X244997Y71960D01*
X244705Y72040D01*
X244413Y72173D01*
X244205Y72360D01*
X244163Y72546D01*
X244247Y72733D01*
X244455Y72866D01*
G01X233015Y65773D02*
X232855Y65898D01*
X232669Y65982D01*
X232456D01*
X232216Y65857D01*
X232030Y65648D01*
X231896Y65398D01*
X231790Y64982D01*
X231763Y64607D01*
X231816Y64232D01*
X231896Y63982D01*
X232056Y63732D01*
X232243Y63565D01*
X232429Y63482D01*
X232615D01*
X232802Y63565D01*
X232962Y63690D01*
X233095Y63857D01*
G01X234625Y63482D02*
Y65982D01*
X234305Y65482D01*
G01Y63482D02*
X234945D01*
G01X236235Y63857D02*
X236395Y63648D01*
X236581Y63523D01*
X236821Y63482D01*
X237061Y63565D01*
X237247Y63732D01*
X237380Y64023D01*
X237407Y64357D01*
X237354Y64690D01*
X237220Y64898D01*
X237034Y65065D01*
X236848Y65107D01*
X236661Y65065D01*
X236422Y64898D01*
X236501Y65982D01*
X237220D01*
G01X238029Y74982D02*
Y77482D01*
X237709Y76982D01*
G01Y74982D02*
X238349D01*
G01X239639Y75482D02*
X239799Y75190D01*
X240012Y75023D01*
X240252Y74982D01*
X240465Y75023D01*
X240678Y75232D01*
X240811Y75482D01*
X240838Y75732D01*
X240784Y76023D01*
X240598Y76232D01*
X240411Y76315D01*
X240172D01*
G01X240411D02*
X240571Y76440D01*
X240704Y76648D01*
X240758Y76898D01*
X240704Y77148D01*
X240571Y77357D01*
X240332Y77482D01*
X240092Y77440D01*
X239852Y77273D01*
G01X239499Y79282D02*
Y81782D01*
X240165D01*
X240378Y81657D01*
X240511Y81490D01*
X240565Y81157D01*
X240511Y80823D01*
X240352Y80615D01*
X240165Y80490D01*
X239499D01*
G01X240165D02*
X240565Y79282D01*
G01X241642Y79782D02*
X241802Y79490D01*
X242015Y79323D01*
X242255Y79282D01*
X242468Y79323D01*
X242681Y79532D01*
X242814Y79782D01*
X242841Y80032D01*
X242787Y80323D01*
X242601Y80532D01*
X242414Y80615D01*
X242175D01*
G01X242414D02*
X242574Y80740D01*
X242707Y80948D01*
X242761Y81198D01*
X242707Y81448D01*
X242574Y81657D01*
X242334Y81782D01*
X242095Y81740D01*
X241855Y81573D01*
G01X242123Y86565D02*
X242283Y86815D01*
X242469Y86940D01*
X242682Y86982D01*
X242949Y86898D01*
X243135Y86690D01*
X243188Y86440D01*
X243162Y86190D01*
X243055Y85982D01*
X242522Y85565D01*
X242283Y85273D01*
X242123Y84857D01*
X242070Y84482D01*
X243188D01*
G01X237380Y93208D02*
X237130Y93368D01*
X237005Y93554D01*
X236963Y93767D01*
X237047Y94034D01*
X237255Y94220D01*
X237505Y94273D01*
X237755Y94247D01*
X237963Y94140D01*
X238380Y93608D01*
X238672Y93368D01*
X239088Y93208D01*
X239463Y93155D01*
Y94273D01*
G01Y96230D02*
X236963D01*
X238755Y95244D01*
Y96576D01*
G01X244163Y100184D02*
X241663D01*
Y100850D01*
X241788Y101063D01*
X241955Y101196D01*
X242288Y101250D01*
X242622Y101196D01*
X242830Y101037D01*
X242955Y100850D01*
Y100184D01*
G01Y100850D02*
X244163Y101250D01*
G01X242080Y102407D02*
X241830Y102567D01*
X241705Y102753D01*
X241663Y102966D01*
X241747Y103233D01*
X241955Y103419D01*
X242205Y103472D01*
X242455Y103446D01*
X242663Y103339D01*
X243080Y102806D01*
X243372Y102567D01*
X243788Y102407D01*
X244163Y102354D01*
Y103472D01*
G01X238501Y103946D02*
X238341Y104071D01*
X238155Y104155D01*
X237942D01*
X237702Y104030D01*
X237516Y103821D01*
X237382Y103571D01*
X237276Y103155D01*
X237249Y102780D01*
X237302Y102405D01*
X237382Y102155D01*
X237542Y101905D01*
X237729Y101738D01*
X237915Y101655D01*
X238101D01*
X238288Y101738D01*
X238448Y101863D01*
X238581Y102030D01*
G01X240431Y101655D02*
Y104155D01*
X239445Y102363D01*
X240777D01*
G01X238501Y107246D02*
X238341Y107372D01*
X238155Y107455D01*
X237942D01*
X237702Y107330D01*
X237516Y107122D01*
X237382Y106871D01*
X237276Y106455D01*
X237249Y106080D01*
X237302Y105705D01*
X237382Y105455D01*
X237542Y105205D01*
X237729Y105038D01*
X237915Y104955D01*
X238101D01*
X238288Y105038D01*
X238448Y105163D01*
X238581Y105330D01*
G01X239605Y107038D02*
X239765Y107288D01*
X239951Y107413D01*
X240164Y107455D01*
X240431Y107372D01*
X240617Y107163D01*
X240670Y106913D01*
X240644Y106663D01*
X240537Y106455D01*
X240004Y106038D01*
X239765Y105746D01*
X239605Y105330D01*
X239552Y104955D01*
X240670D01*
G01X231023Y100065D02*
X231183Y100315D01*
X231369Y100440D01*
X231582Y100482D01*
X231849Y100398D01*
X232035Y100190D01*
X232088Y99940D01*
X232062Y99690D01*
X231955Y99482D01*
X231422Y99065D01*
X231183Y98773D01*
X231023Y98357D01*
X230970Y97982D01*
X232088D01*
G01X233139Y98357D02*
X233299Y98148D01*
X233485Y98023D01*
X233725Y97982D01*
X233965Y98065D01*
X234151Y98232D01*
X234284Y98523D01*
X234311Y98857D01*
X234258Y99190D01*
X234124Y99398D01*
X233938Y99565D01*
X233752Y99607D01*
X233565Y99565D01*
X233326Y99398D01*
X233405Y100482D01*
X234124D01*
G01X251520Y19273D02*
X251360Y19398D01*
X251174Y19482D01*
X250961D01*
X250721Y19357D01*
X250534Y19148D01*
X250401Y18898D01*
X250295Y18482D01*
X250268Y18107D01*
X250321Y17732D01*
X250401Y17482D01*
X250561Y17232D01*
X250748Y17065D01*
X250934Y16982D01*
X251120D01*
X251307Y17065D01*
X251467Y17190D01*
X251600Y17357D01*
G01X252624Y19065D02*
X252784Y19315D01*
X252970Y19440D01*
X253183Y19482D01*
X253450Y19398D01*
X253636Y19190D01*
X253689Y18940D01*
X253663Y18690D01*
X253556Y18482D01*
X253024Y18065D01*
X252784Y17773D01*
X252624Y17357D01*
X252571Y16982D01*
X253689D01*
G01X254820Y18023D02*
X255006Y18315D01*
X255166Y18482D01*
X255379Y18565D01*
X255566Y18482D01*
X255699Y18315D01*
X255805Y18065D01*
X255832Y17773D01*
X255805Y17523D01*
X255699Y17273D01*
X255539Y17065D01*
X255353Y16982D01*
X255140Y17065D01*
X254953Y17315D01*
X254847Y17690D01*
X254820Y18107D01*
X254873Y18648D01*
X254953Y18940D01*
X255086Y19232D01*
X255273Y19440D01*
X255459Y19482D01*
X255646Y19398D01*
X255779Y19190D01*
G01X261446Y25482D02*
Y23690D01*
X261553Y23315D01*
X261766Y23065D01*
X262032Y22982D01*
X262298Y23065D01*
X262511Y23315D01*
X262618Y23690D01*
Y25482D01*
G01X263722Y24023D02*
X263908Y24315D01*
X264068Y24482D01*
X264281Y24565D01*
X264468Y24482D01*
X264601Y24315D01*
X264707Y24065D01*
X264734Y23773D01*
X264707Y23523D01*
X264601Y23273D01*
X264441Y23065D01*
X264255Y22982D01*
X264042Y23065D01*
X263855Y23315D01*
X263749Y23690D01*
X263722Y24107D01*
X263775Y24648D01*
X263855Y24940D01*
X263988Y25232D01*
X264175Y25440D01*
X264361Y25482D01*
X264548Y25398D01*
X264681Y25190D01*
G01X252500Y28591D02*
X252660Y28299D01*
X252873Y28133D01*
X253113Y28091D01*
X253326Y28133D01*
X253539Y28341D01*
X253672Y28591D01*
X253699Y28841D01*
X253645Y29133D01*
X253459Y29341D01*
X253272Y29424D01*
X253033D01*
G01X253272D02*
X253432Y29549D01*
X253566Y29758D01*
X253619Y30008D01*
X253566Y30258D01*
X253432Y30466D01*
X253193Y30591D01*
X252953Y30549D01*
X252713Y30383D01*
G01X249963Y34086D02*
X247463D01*
Y34752D01*
X247588Y34965D01*
X247755Y35098D01*
X248088Y35152D01*
X248422Y35098D01*
X248630Y34939D01*
X248755Y34752D01*
Y34086D01*
G01Y34752D02*
X249963Y35152D01*
G01X247880Y36309D02*
X247630Y36469D01*
X247505Y36655D01*
X247463Y36868D01*
X247547Y37135D01*
X247755Y37321D01*
X248005Y37374D01*
X248255Y37348D01*
X248463Y37241D01*
X248880Y36708D01*
X249172Y36469D01*
X249588Y36309D01*
X249963Y36256D01*
Y37374D01*
G01Y39011D02*
X247463D01*
X247963Y38691D01*
G01X249963D02*
Y39331D01*
G01X249963Y42086D02*
X247463D01*
Y42752D01*
X247588Y42965D01*
X247755Y43098D01*
X248088Y43152D01*
X248422Y43098D01*
X248630Y42939D01*
X248755Y42752D01*
Y42086D01*
G01Y42752D02*
X249963Y43152D01*
G01Y44815D02*
X247463D01*
X247963Y44495D01*
G01X249963D02*
Y45135D01*
G01Y47331D02*
X247463D01*
X249255Y46345D01*
Y47677D01*
G01X261463Y42086D02*
X258963D01*
Y42752D01*
X259088Y42965D01*
X259255Y43098D01*
X259588Y43152D01*
X259922Y43098D01*
X260130Y42939D01*
X260255Y42752D01*
Y42086D01*
G01Y42752D02*
X261463Y43152D01*
G01Y44815D02*
X258963D01*
X259463Y44495D01*
G01X261463D02*
Y45135D01*
G01X261088Y46425D02*
X261297Y46585D01*
X261422Y46771D01*
X261463Y47011D01*
X261380Y47251D01*
X261214Y47437D01*
X260922Y47570D01*
X260588Y47597D01*
X260255Y47544D01*
X260047Y47411D01*
X259880Y47224D01*
X259838Y47038D01*
X259880Y46851D01*
X260047Y46612D01*
X258963Y46691D01*
Y47411D01*
G01X260515Y52773D02*
X260355Y52898D01*
X260169Y52982D01*
X259956D01*
X259716Y52857D01*
X259530Y52648D01*
X259396Y52398D01*
X259290Y51982D01*
X259263Y51607D01*
X259316Y51232D01*
X259396Y50982D01*
X259556Y50731D01*
X259743Y50565D01*
X259929Y50482D01*
X260115D01*
X260302Y50565D01*
X260462Y50690D01*
X260595Y50857D01*
G01X261619Y52565D02*
X261779Y52815D01*
X261965Y52940D01*
X262178Y52982D01*
X262445Y52898D01*
X262631Y52690D01*
X262684Y52440D01*
X262658Y52190D01*
X262551Y51982D01*
X262019Y51565D01*
X261779Y51273D01*
X261619Y50857D01*
X261566Y50482D01*
X262684D01*
G01X264321Y52982D02*
X264108Y52898D01*
X263948Y52690D01*
X263842Y52440D01*
X263762Y52107D01*
X263735Y51732D01*
X263762Y51357D01*
X263842Y51023D01*
X263948Y50773D01*
X264108Y50565D01*
X264321Y50482D01*
X264534Y50565D01*
X264694Y50773D01*
X264800Y51023D01*
X264880Y51357D01*
X264907Y51732D01*
X264880Y52107D01*
X264800Y52440D01*
X264694Y52690D01*
X264534Y52898D01*
X264321Y52982D01*
G01X250663Y59184D02*
X248163D01*
Y59850D01*
X248288Y60063D01*
X248455Y60196D01*
X248788Y60250D01*
X249122Y60196D01*
X249330Y60037D01*
X249455Y59850D01*
Y59184D01*
G01Y59850D02*
X250663Y60250D01*
G01Y61860D02*
X250122Y61913D01*
X249663Y61993D01*
X249247Y62099D01*
X248788Y62233D01*
X248163Y62446D01*
Y61380D01*
G01X258443Y61982D02*
Y60190D01*
X258550Y59815D01*
X258763Y59565D01*
X259029Y59482D01*
X259295Y59565D01*
X259508Y59815D01*
X259615Y60190D01*
Y61982D01*
G01X260639Y59982D02*
X260799Y59690D01*
X261012Y59523D01*
X261252Y59482D01*
X261465Y59523D01*
X261678Y59732D01*
X261811Y59982D01*
X261838Y60232D01*
X261784Y60523D01*
X261598Y60732D01*
X261411Y60815D01*
X261172D01*
G01X261411D02*
X261571Y60940D01*
X261704Y61148D01*
X261758Y61398D01*
X261704Y61648D01*
X261571Y61857D01*
X261332Y61982D01*
X261092Y61940D01*
X260852Y61773D01*
G01X253451Y66482D02*
Y68982D01*
X252465Y67190D01*
X253797D01*
G01X256045Y63357D02*
X256205Y63148D01*
X256391Y63023D01*
X256631Y62982D01*
X256871Y63065D01*
X257057Y63232D01*
X257190Y63523D01*
X257217Y63857D01*
X257164Y64190D01*
X257030Y64398D01*
X256844Y64565D01*
X256658Y64607D01*
X256471Y64565D01*
X256232Y64398D01*
X256311Y65482D01*
X257030D01*
G01X263078Y62982D02*
X263131Y63523D01*
X263211Y63982D01*
X263317Y64398D01*
X263451Y64857D01*
X263664Y65482D01*
X262598D01*
G01X254032Y78482D02*
Y80982D01*
X253712Y80482D01*
G01Y78482D02*
X254352D01*
G01X256548D02*
Y80982D01*
X255562Y79190D01*
X256894D01*
G01X263032Y78982D02*
Y81482D01*
X262712Y80982D01*
G01Y78982D02*
X263352D01*
G01X264722Y81065D02*
X264882Y81315D01*
X265068Y81440D01*
X265281Y81482D01*
X265548Y81398D01*
X265734Y81190D01*
X265787Y80940D01*
X265761Y80690D01*
X265654Y80482D01*
X265122Y80065D01*
X264882Y79773D01*
X264722Y79357D01*
X264669Y78982D01*
X265787D01*
G01X255996Y109482D02*
Y111982D01*
X256636D01*
X256849Y111857D01*
X257008Y111565D01*
X257062Y111232D01*
X257008Y110898D01*
X256875Y110648D01*
X256636Y110523D01*
X255996D01*
G01X258725Y109482D02*
Y111982D01*
X258405Y111482D01*
G01Y109482D02*
X259045D01*
G01X264677Y109273D02*
X264864Y109065D01*
X265077Y108982D01*
X265290Y109065D01*
X265476Y109315D01*
X265609Y109690D01*
X265663Y110065D01*
Y110523D01*
X265609Y110898D01*
X265476Y111232D01*
X265316Y111398D01*
X265130Y111482D01*
X264917Y111398D01*
X264757Y111232D01*
X264651Y110982D01*
X264597Y110648D01*
X264651Y110357D01*
X264784Y110065D01*
X264944Y109898D01*
X265130Y109857D01*
X265343Y109940D01*
X265503Y110148D01*
X265663Y110523D01*
G01X248532Y107982D02*
Y110482D01*
X248212Y109982D01*
G01Y107982D02*
X248852D01*
G01X250728Y110482D02*
X250515Y110398D01*
X250355Y110190D01*
X250249Y109940D01*
X250169Y109607D01*
X250142Y109232D01*
X250169Y108857D01*
X250249Y108523D01*
X250355Y108273D01*
X250515Y108065D01*
X250728Y107982D01*
X250941Y108065D01*
X251101Y108273D01*
X251207Y108523D01*
X251287Y108857D01*
X251314Y109232D01*
X251287Y109607D01*
X251207Y109940D01*
X251101Y110190D01*
X250941Y110398D01*
X250728Y110482D01*
G01X268450Y23982D02*
Y26482D01*
X267464Y24690D01*
X268796D01*
G01X269624Y39023D02*
X269810Y39315D01*
X269970Y39482D01*
X270183Y39565D01*
X270370Y39482D01*
X270503Y39315D01*
X270609Y39065D01*
X270636Y38773D01*
X270609Y38523D01*
X270503Y38273D01*
X270343Y38065D01*
X270157Y37982D01*
X269944Y38065D01*
X269757Y38315D01*
X269651Y38690D01*
X269624Y39107D01*
X269677Y39648D01*
X269757Y39940D01*
X269890Y40232D01*
X270077Y40440D01*
X270263Y40482D01*
X270450Y40398D01*
X270583Y40190D01*
G01X271672Y25705D02*
X271547Y25545D01*
X271463Y25359D01*
Y25146D01*
X271588Y24906D01*
X271797Y24720D01*
X272047Y24586D01*
X272463Y24480D01*
X272838Y24453D01*
X273213Y24506D01*
X273463Y24586D01*
X273714Y24746D01*
X273880Y24933D01*
X273963Y25119D01*
Y25305D01*
X273880Y25492D01*
X273755Y25652D01*
X273588Y25785D01*
G01X271880Y26809D02*
X271630Y26969D01*
X271505Y27155D01*
X271463Y27368D01*
X271547Y27635D01*
X271755Y27821D01*
X272005Y27874D01*
X272255Y27848D01*
X272463Y27741D01*
X272880Y27208D01*
X273172Y26969D01*
X273588Y26809D01*
X273963Y26756D01*
Y27874D01*
G01X273463Y28925D02*
X273755Y29085D01*
X273922Y29298D01*
X273963Y29538D01*
X273922Y29751D01*
X273714Y29964D01*
X273463Y30097D01*
X273213Y30124D01*
X272922Y30070D01*
X272713Y29884D01*
X272630Y29697D01*
Y29458D01*
G01Y29697D02*
X272505Y29857D01*
X272297Y29990D01*
X272047Y30044D01*
X271797Y29990D01*
X271588Y29857D01*
X271463Y29618D01*
X271505Y29378D01*
X271672Y29138D01*
G01X265901Y44482D02*
Y46982D01*
X266567D01*
X266780Y46857D01*
X266913Y46690D01*
X266967Y46357D01*
X266913Y46023D01*
X266754Y45815D01*
X266567Y45690D01*
X265901D01*
G01X266567D02*
X266967Y44482D01*
G01X268630D02*
Y46982D01*
X268310Y46482D01*
G01Y44482D02*
X268950D01*
G01X270826D02*
X271012Y44523D01*
X271226Y44648D01*
X271359Y44856D01*
X271412Y45148D01*
X271359Y45440D01*
X271199Y45690D01*
X270959Y45815D01*
X270693D01*
X270533Y45898D01*
X270400Y46107D01*
X270347Y46398D01*
X270426Y46690D01*
X270613Y46898D01*
X270826Y46982D01*
X271039Y46898D01*
X271226Y46690D01*
X271305Y46398D01*
X271252Y46107D01*
X271119Y45898D01*
X270959Y45815D01*
X270693D01*
X270453Y45690D01*
X270293Y45440D01*
X270240Y45148D01*
X270293Y44856D01*
X270426Y44648D01*
X270640Y44523D01*
X270826Y44482D01*
G01X271672Y60700D02*
X271547Y60540D01*
X271463Y60354D01*
Y60141D01*
X271588Y59901D01*
X271797Y59715D01*
X272047Y59581D01*
X272463Y59475D01*
X272838Y59448D01*
X273213Y59501D01*
X273463Y59581D01*
X273714Y59741D01*
X273880Y59928D01*
X273963Y60114D01*
Y60300D01*
X273880Y60487D01*
X273755Y60647D01*
X273588Y60780D01*
G01X273963Y62310D02*
X271463D01*
X271963Y61990D01*
G01X273963D02*
Y62630D01*
G01Y64826D02*
X271463D01*
X273255Y63840D01*
Y65172D01*
G01X268172Y60700D02*
X268047Y60540D01*
X267963Y60354D01*
Y60141D01*
X268088Y59901D01*
X268297Y59715D01*
X268547Y59581D01*
X268963Y59475D01*
X269338Y59448D01*
X269713Y59501D01*
X269963Y59581D01*
X270214Y59741D01*
X270380Y59928D01*
X270463Y60114D01*
Y60300D01*
X270380Y60487D01*
X270255Y60647D01*
X270089Y60780D01*
G01X270463Y62310D02*
X267963D01*
X268463Y61990D01*
G01X270463D02*
Y62630D01*
G01X269963Y63920D02*
X270255Y64080D01*
X270422Y64293D01*
X270463Y64533D01*
X270422Y64746D01*
X270214Y64959D01*
X269963Y65092D01*
X269713Y65119D01*
X269422Y65065D01*
X269213Y64879D01*
X269130Y64692D01*
Y64453D01*
G01Y64692D02*
X269005Y64852D01*
X268797Y64985D01*
X268547Y65039D01*
X268297Y64985D01*
X268088Y64852D01*
X267963Y64613D01*
X268005Y64373D01*
X268172Y64133D01*
G01X266130Y65982D02*
X266316Y66023D01*
X266530Y66148D01*
X266663Y66357D01*
X266716Y66648D01*
X266663Y66940D01*
X266503Y67190D01*
X266263Y67315D01*
X265997D01*
X265837Y67398D01*
X265704Y67607D01*
X265651Y67898D01*
X265730Y68190D01*
X265917Y68398D01*
X266130Y68482D01*
X266343Y68398D01*
X266530Y68190D01*
X266609Y67898D01*
X266556Y67607D01*
X266423Y67398D01*
X266263Y67315D01*
X265997D01*
X265757Y67190D01*
X265597Y66940D01*
X265544Y66648D01*
X265597Y66357D01*
X265730Y66148D01*
X265944Y66023D01*
X266130Y65982D01*
G01X268032Y74482D02*
Y76982D01*
X267712Y76482D01*
G01Y74482D02*
X268352D01*
G01X270228D02*
Y76982D01*
X269908Y76482D01*
G01Y74482D02*
X270548D01*
G01X271129Y82982D02*
Y85482D01*
X270809Y84982D01*
G01Y82982D02*
X271449D01*
G54D22*
X206360Y61155D03*
X210100D03*
X205448Y102155D03*
X209188D03*
X223388Y105955D03*
X227128D03*
X219648Y102155D03*
X223388D03*
G54D13*
X74414Y29075D03*
Y36555D03*
Y32815D03*
X84650Y36555D03*
Y32815D03*
Y29075D03*
X170713D03*
Y36555D03*
Y32815D03*
X180949Y36555D03*
Y32815D03*
Y29075D03*
X257012D03*
Y36555D03*
Y32815D03*
X267248Y36555D03*
Y32815D03*
Y29075D03*
G54D32*
G01X5703Y125669D02*
X5887Y125836D01*
X6025Y126115D01*
X6117Y126506D01*
X6025Y126840D01*
X5841Y127063D01*
X5520Y127231D01*
X4280D01*
Y123885D01*
X5795D01*
X6117Y124108D01*
X6301Y124442D01*
X6392Y124833D01*
X6301Y125223D01*
X6025Y125558D01*
X5703Y125669D01*
X4280D01*
G01X7742Y123885D02*
X8891Y127231D01*
X10039Y123885D01*
G01X9626Y125056D02*
X8156D01*
G01X12445Y127231D02*
Y123885D01*
G01X11389Y127231D02*
X13502D01*
G01X16000D02*
Y123885D01*
G01X14944Y127231D02*
X17056D01*
G01X20473Y123885D02*
X18636D01*
Y127231D01*
X20473D01*
G01X19738Y125614D02*
X18636D01*
G01X22191Y123885D02*
Y127231D01*
X23339D01*
X23707Y127063D01*
X23936Y126840D01*
X24028Y126394D01*
X23936Y125948D01*
X23661Y125669D01*
X23339Y125502D01*
X22191D01*
G01X23339D02*
X24028Y123885D01*
G01X26664D02*
Y125390D01*
X25746Y127231D01*
G01X27583D02*
X26664Y125390D01*
G54D14*
X67982Y31811D03*
Y27875D03*
X69582Y42847D03*
Y46783D03*
X74464Y42847D03*
Y46783D03*
X153080Y93347D03*
Y97283D03*
X164281Y31811D03*
Y27875D03*
X170763Y42847D03*
Y46783D03*
X165881Y42847D03*
Y46783D03*
X242180Y67647D03*
Y71583D03*
X241680Y92897D03*
Y96833D03*
X250580Y31811D03*
Y27875D03*
X252180Y42847D03*
Y46783D03*
X257062Y42847D03*
Y46783D03*
X249680Y69583D03*
Y65647D03*
G54D23*
X211150Y75513D03*
Y92897D03*
Y91316D03*
Y89736D03*
Y88156D03*
Y86575D03*
Y84995D03*
Y83415D03*
Y81835D03*
Y80254D03*
Y78674D03*
Y77094D03*
X234970Y75513D03*
Y77094D03*
Y78674D03*
Y80254D03*
Y81835D03*
Y83415D03*
Y84995D03*
Y86575D03*
Y88156D03*
Y89736D03*
Y91316D03*
Y92897D03*
G54D33*
G01X175839Y64315D02*
G03I-709J0D01*
G01X172386Y66909D02*
Y78721D01*
X166874D01*
Y66909D01*
X172386D01*
G01X175339Y81315D02*
G03I-709J0D01*
G01X172386Y82909D02*
Y94721D01*
X166874D01*
Y82909D01*
X172386D01*
G54D15*
X74414Y51815D03*
X70478D03*
X142162Y91815D03*
X146098D03*
X170713Y51815D03*
X166777D03*
X194692Y81385D03*
X193108Y98385D03*
X198628Y81385D03*
X197044Y98385D03*
X206798Y98315D03*
X202862D03*
X212452Y102155D03*
X201054D03*
X197118D03*
X201054Y105155D03*
X197118D03*
X231148Y102655D03*
X216388Y102155D03*
X231148Y105955D03*
X233762Y68315D03*
X237698D03*
X235084Y102655D03*
Y105955D03*
X257012Y51815D03*
X253076D03*
G54D24*
X215949Y66475D03*
Y61155D03*
G54D34*
G01X0Y0D02*
X275590D01*
Y137795D01*
X109747D01*
X109747Y97441D01*
G02X29038I-40354J0D01*
G01Y137795D01*
X0Y137795D01*
Y0D01*
G01X505Y174982D02*
X3630Y184982D01*
X6755Y174982D01*
G01X5630Y178482D02*
X1630D01*
G01X11005Y176315D02*
X12005Y175482D01*
X13130Y174982D01*
X14130D01*
X15130Y175482D01*
X15880Y176315D01*
X16255Y177482D01*
X16005Y178648D01*
X15380Y179648D01*
X14255Y180315D01*
X12755Y180648D01*
X11880Y181315D01*
X11505Y182482D01*
X11755Y183648D01*
X12380Y184482D01*
X13255Y184982D01*
X14130D01*
X15005Y184648D01*
X15755Y183815D01*
G01X21005Y176315D02*
X22005Y175482D01*
X23130Y174982D01*
X24130D01*
X25130Y175482D01*
X25880Y176315D01*
X26255Y177482D01*
X26005Y178648D01*
X25380Y179648D01*
X24255Y180315D01*
X22755Y180648D01*
X21880Y181315D01*
X21505Y182482D01*
X21755Y183648D01*
X22380Y184482D01*
X23255Y184982D01*
X24130D01*
X25005Y184648D01*
X25755Y183815D01*
G01X36130Y174982D02*
X31130D01*
Y184982D01*
X36130D01*
G01X34130Y180148D02*
X31130D01*
G01X40380Y174982D02*
Y184982D01*
X43630Y176648D01*
X46880Y184982D01*
Y174982D01*
G01X54630Y180315D02*
X55130Y180815D01*
X55505Y181648D01*
X55755Y182815D01*
X55505Y183815D01*
X55005Y184482D01*
X54130Y184982D01*
X50755D01*
Y174982D01*
X54880D01*
X55755Y175648D01*
X56255Y176648D01*
X56505Y177815D01*
X56255Y178982D01*
X55505Y179982D01*
X54630Y180315D01*
X50755D01*
G01X61130Y184982D02*
Y174982D01*
X66130D01*
G01X73630D02*
Y179482D01*
X71130Y184982D01*
G01X76130D02*
X73630Y179482D01*
G01X79880Y171648D02*
X87380D01*
G01X93630Y184982D02*
Y174982D01*
G01X90755Y184982D02*
X96505D01*
G01X103630Y174982D02*
X102630Y175148D01*
X101755Y175815D01*
X101005Y176815D01*
X100505Y177982D01*
X100255Y179315D01*
Y180648D01*
X100505Y181982D01*
X101005Y183148D01*
X101755Y184148D01*
X102630Y184815D01*
X103630Y184982D01*
X104630Y184815D01*
X105505Y184148D01*
X106255Y183148D01*
X106755Y181982D01*
X107005Y180648D01*
Y179315D01*
X106755Y177982D01*
X106255Y176815D01*
X105505Y175815D01*
X104630Y175148D01*
X103630Y174982D01*
G01X111130D02*
Y184982D01*
X114130D01*
X115130Y184482D01*
X115880Y183315D01*
X116130Y181982D01*
X115880Y180648D01*
X115255Y179648D01*
X114130Y179148D01*
X111130D01*
G01X1375Y196500D02*
X2375Y195667D01*
X3500Y195167D01*
X4500D01*
X5500Y195667D01*
X6250Y196500D01*
X6625Y197667D01*
X6375Y198833D01*
X5750Y199833D01*
X4625Y200500D01*
X3125Y200833D01*
X2250Y201500D01*
X1875Y202667D01*
X2125Y203833D01*
X2750Y204666D01*
X3625Y205167D01*
X4500D01*
X5375Y204833D01*
X6125Y204000D01*
G01X16500Y195167D02*
X11500D01*
Y205167D01*
X16500D01*
G01X14500Y200334D02*
X11500D01*
G01X21125Y195167D02*
Y205167D01*
X26875Y195167D01*
Y205167D01*
G01X31375Y196500D02*
X32375Y195667D01*
X33500Y195167D01*
X34500D01*
X35500Y195667D01*
X36250Y196500D01*
X36625Y197667D01*
X36375Y198833D01*
X35750Y199833D01*
X34625Y200500D01*
X33125Y200833D01*
X32250Y201500D01*
X31875Y202667D01*
X32125Y203833D01*
X32750Y204666D01*
X33625Y205167D01*
X34500D01*
X35375Y204833D01*
X36125Y204000D01*
G01X46500Y195167D02*
X41500D01*
Y205167D01*
X46500D01*
G01X44500Y200334D02*
X41500D01*
G01X50250Y191834D02*
X57750D01*
G01X64000Y205167D02*
Y195167D01*
G01X61125Y205167D02*
X66875D01*
G01X74000Y195167D02*
X73000Y195333D01*
X72125Y196000D01*
X71375Y197000D01*
X70875Y198167D01*
X70625Y199500D01*
Y200833D01*
X70875Y202167D01*
X71375Y203334D01*
X72125Y204333D01*
X73000Y205000D01*
X74000Y205167D01*
X75000Y205000D01*
X75875Y204333D01*
X76625Y203334D01*
X77125Y202167D01*
X77375Y200833D01*
Y199500D01*
X77125Y198167D01*
X76625Y197000D01*
X75875Y196000D01*
X75000Y195333D01*
X74000Y195167D01*
G01X81250Y205167D02*
Y198000D01*
X81750Y196500D01*
X82750Y195500D01*
X84000Y195167D01*
X85250Y195500D01*
X86250Y196500D01*
X86750Y198000D01*
Y205167D01*
G01X96750Y204333D02*
X96000Y204833D01*
X95125Y205167D01*
X94125D01*
X93000Y204666D01*
X92125Y203833D01*
X91500Y202833D01*
X91000Y201167D01*
X90875Y199667D01*
X91125Y198167D01*
X91500Y197167D01*
X92250Y196166D01*
X93125Y195500D01*
X94000Y195167D01*
X94875D01*
X95750Y195500D01*
X96500Y196000D01*
X97125Y196666D01*
G01X101375Y195167D02*
Y205167D01*
G01X106625D02*
Y195167D01*
G01Y200166D02*
X101375D01*
G01X125000Y200500D02*
X125500Y201000D01*
X125875Y201833D01*
X126125Y203000D01*
X125875Y204000D01*
X125375Y204666D01*
X124500Y205167D01*
X121125D01*
Y195167D01*
X125250D01*
X126125Y195833D01*
X126625Y196833D01*
X126875Y198000D01*
X126625Y199166D01*
X125875Y200166D01*
X125000Y200500D01*
X121125D01*
G01X134000Y195167D02*
X133000Y195333D01*
X132125Y196000D01*
X131375Y197000D01*
X130875Y198167D01*
X130625Y199500D01*
Y200833D01*
X130875Y202167D01*
X131375Y203334D01*
X132125Y204333D01*
X133000Y205000D01*
X134000Y205167D01*
X135000Y205000D01*
X135875Y204333D01*
X136625Y203334D01*
X137125Y202167D01*
X137375Y200833D01*
Y199500D01*
X137125Y198167D01*
X136625Y197000D01*
X135875Y196000D01*
X135000Y195333D01*
X134000Y195167D01*
G01X140875D02*
X144000Y205167D01*
X147125Y195167D01*
G01X146000Y198667D02*
X142000D01*
G01X151500Y195167D02*
Y205167D01*
X154625D01*
X155625Y204666D01*
X156250Y204000D01*
X156500Y202667D01*
X156250Y201333D01*
X155500Y200500D01*
X154625Y200000D01*
X151500D01*
G01X154625D02*
X156500Y195167D01*
G01X161250D02*
Y205167D01*
X163750D01*
X164750Y204666D01*
X165500Y204000D01*
X166125Y203000D01*
X166625Y201833D01*
X166750Y200166D01*
X166625Y198500D01*
X166125Y197333D01*
X165500Y196333D01*
X164750Y195667D01*
X163750Y195167D01*
X161250D01*
G01X2250Y214167D02*
Y224167D01*
X4750D01*
X5750Y223666D01*
X6500Y223000D01*
X7125Y222000D01*
X7625Y220833D01*
X7750Y219166D01*
X7625Y217500D01*
X7125Y216333D01*
X6500Y215333D01*
X5750Y214667D01*
X4750Y214167D01*
X2250D01*
G01X11875D02*
X15000Y224167D01*
X18125Y214167D01*
G01X17000Y217667D02*
X13000D01*
G01X25000Y224167D02*
Y214167D01*
G01X22125Y224167D02*
X27875D01*
G01X37500Y214167D02*
X32500D01*
Y224167D01*
X37500D01*
G01X35500Y219334D02*
X32500D01*
G01X45000Y213833D02*
X44750Y214000D01*
Y214333D01*
X45000Y214500D01*
X45250Y214333D01*
Y214000D01*
X45000Y213833D01*
G01Y218333D02*
X44750Y218500D01*
Y218833D01*
X45000Y219000D01*
X45250Y218833D01*
Y218500D01*
X45000Y218333D01*
G01X55000Y224167D02*
X54000Y223833D01*
X53250Y223000D01*
X52750Y222000D01*
X52375Y220666D01*
X52250Y219166D01*
X52375Y217667D01*
X52750Y216333D01*
X53250Y215333D01*
X54000Y214500D01*
X55000Y214167D01*
X56000Y214500D01*
X56750Y215333D01*
X57250Y216333D01*
X57625Y217667D01*
X57750Y219166D01*
X57625Y220666D01*
X57250Y222000D01*
X56750Y223000D01*
X56000Y223833D01*
X55000Y224167D01*
G01X62250Y216167D02*
X63000Y215000D01*
X64000Y214333D01*
X65125Y214167D01*
X66125Y214333D01*
X67125Y215166D01*
X67750Y216167D01*
X67875Y217167D01*
X67625Y218333D01*
X66750Y219166D01*
X65875Y219500D01*
X64750D01*
G01X65875D02*
X66625Y220000D01*
X67250Y220833D01*
X67500Y221833D01*
X67250Y222833D01*
X66625Y223666D01*
X65500Y224167D01*
X64375Y224000D01*
X63250Y223333D01*
G01X72750Y213833D02*
X77250Y224167D01*
G01X85000D02*
X84000Y223833D01*
X83250Y223000D01*
X82750Y222000D01*
X82375Y220666D01*
X82250Y219166D01*
X82375Y217667D01*
X82750Y216333D01*
X83250Y215333D01*
X84000Y214500D01*
X85000Y214167D01*
X86000Y214500D01*
X86750Y215333D01*
X87250Y216333D01*
X87625Y217667D01*
X87750Y219166D01*
X87625Y220666D01*
X87250Y222000D01*
X86750Y223000D01*
X86000Y223833D01*
X85000Y224167D01*
G01X95000Y214167D02*
X95875Y214333D01*
X96875Y214833D01*
X97500Y215666D01*
X97750Y216833D01*
X97500Y218000D01*
X96750Y219000D01*
X95625Y219500D01*
X94375D01*
X93625Y219833D01*
X93000Y220666D01*
X92750Y221833D01*
X93125Y223000D01*
X94000Y223833D01*
X95000Y224167D01*
X96000Y223833D01*
X96875Y223000D01*
X97250Y221833D01*
X97000Y220666D01*
X96375Y219833D01*
X95625Y219500D01*
X94375D01*
X93250Y219000D01*
X92500Y218000D01*
X92250Y216833D01*
X92500Y215666D01*
X93125Y214833D01*
X94125Y214333D01*
X95000Y214167D01*
G01X102750Y213833D02*
X107250Y224167D01*
G01X112625Y222500D02*
X113375Y223500D01*
X114250Y224000D01*
X115250Y224167D01*
X116500Y223833D01*
X117375Y223000D01*
X117625Y222000D01*
X117500Y221000D01*
X117000Y220167D01*
X114500Y218500D01*
X113375Y217333D01*
X112625Y215666D01*
X112375Y214167D01*
X117625D01*
G01X125000Y224167D02*
X124000Y223833D01*
X123250Y223000D01*
X122750Y222000D01*
X122375Y220666D01*
X122250Y219166D01*
X122375Y217667D01*
X122750Y216333D01*
X123250Y215333D01*
X124000Y214500D01*
X125000Y214167D01*
X126000Y214500D01*
X126750Y215333D01*
X127250Y216333D01*
X127625Y217667D01*
X127750Y219166D01*
X127625Y220666D01*
X127250Y222000D01*
X126750Y223000D01*
X126000Y223833D01*
X125000Y224167D01*
G01X135000Y214167D02*
Y224167D01*
X133500Y222167D01*
G01Y214167D02*
X136500D01*
G01X142250Y215666D02*
X143000Y214833D01*
X143875Y214333D01*
X145000Y214167D01*
X146125Y214500D01*
X147000Y215166D01*
X147625Y216333D01*
X147750Y217667D01*
X147500Y219000D01*
X146875Y219833D01*
X146000Y220500D01*
X145125Y220666D01*
X144250Y220500D01*
X143125Y219833D01*
X143500Y224167D01*
X146875D01*
G01X66487Y20515D02*
X74987D01*
G01X66487Y25115D02*
X74887D01*
G01X70963Y36752D02*
G03I-880J0D01*
G01X67032Y31843D02*
X69032D01*
Y27843D01*
X67032D01*
Y31843D01*
G01X70532Y42815D02*
X68532D01*
Y46815D01*
X70532D01*
Y42815D01*
G01X82977Y38721D02*
Y26909D01*
X76087D01*
Y37146D01*
X77662Y38721D01*
X82977D01*
G01X88618Y43315D02*
Y41315D01*
X84618D01*
Y43315D01*
X88618D01*
G01X75414Y42815D02*
X73414D01*
Y46815D01*
X75414D01*
Y42815D01*
G01X140430Y99115D02*
X148830D01*
G01X140430Y94515D02*
X148930D01*
G01X152130Y97315D02*
X154130D01*
Y93315D01*
X152130D01*
Y97315D01*
G01X152693Y104854D02*
X160567D01*
Y109776D01*
X152693D01*
Y104854D01*
G01X162786Y20515D02*
X171286D01*
G01X162786Y25115D02*
X171186D01*
G01X167262Y36752D02*
G03I-880J0D01*
G01X179276Y38721D02*
Y26909D01*
X172386D01*
Y37146D01*
X173961Y38721D01*
X179276D01*
G01X163331Y31843D02*
X165331D01*
Y27843D01*
X163331D01*
Y31843D01*
G01X171713Y42815D02*
X169713D01*
Y46815D01*
X171713D01*
Y42815D01*
G01X166831D02*
X164831D01*
Y46815D01*
X166831D01*
Y42815D01*
G01X180917Y41315D02*
Y43315D01*
X184917D01*
Y41315D01*
X180917D01*
G01X185630Y71315D02*
Y69315D01*
X181630D01*
Y71315D01*
X185630D01*
G01Y75815D02*
Y73815D01*
X181630D01*
Y75815D01*
X185630D01*
G01X198433Y93245D02*
X193315D01*
Y86553D01*
X197252D01*
X198433Y87734D01*
Y93245D01*
G01X211330Y65215D02*
X202930D01*
G01X211330Y69815D02*
X202830D01*
G01X206262Y60368D02*
Y61942D01*
X210198D01*
Y60368D01*
X206262D01*
G01X234084Y74756D02*
Y95229D01*
X212036D01*
Y74363D01*
X213218Y73181D01*
X234084D01*
Y74756D01*
G01X205350Y101368D02*
Y102942D01*
X209286D01*
Y101368D01*
X205350D01*
G01X214768Y61059D02*
Y66571D01*
X217130D01*
Y61059D01*
X214768D01*
Y61453D01*
G01X223290Y105168D02*
Y106742D01*
X227226D01*
Y105168D01*
X223290D01*
G01X219550Y101368D02*
Y102942D01*
X223486D01*
Y101368D01*
X219550D01*
G01X243230Y59015D02*
Y57015D01*
X239230D01*
Y59015D01*
X243230D01*
G01X243130Y63315D02*
Y61315D01*
X239130D01*
Y63315D01*
X243130D01*
G01Y67615D02*
X241130D01*
Y71615D01*
X243130D01*
Y67615D01*
G01X245030Y76515D02*
Y78515D01*
X249030D01*
Y76515D01*
X245030D01*
G01Y82310D02*
Y107113D01*
X269830D01*
Y81917D01*
X245030D01*
Y82704D01*
G01X240730Y96865D02*
X242730D01*
Y92865D01*
X240730D01*
Y96865D01*
G01X249085Y20515D02*
X257585D01*
G01X249085Y25115D02*
X257485D01*
G01X253561Y36752D02*
G03I-880J0D01*
G01X265575Y38721D02*
Y26909D01*
X258685D01*
Y37146D01*
X260260Y38721D01*
X265575D01*
G01X249630Y31843D02*
X251630D01*
Y27843D01*
X249630D01*
Y31843D01*
G01X253130Y42815D02*
X251130D01*
Y46815D01*
X253130D01*
Y42815D01*
G01X258012D02*
X256012D01*
Y46815D01*
X258012D01*
Y42815D01*
G01X248730Y69615D02*
X250730D01*
Y65615D01*
X248730D01*
Y69615D01*
G01X271216Y43315D02*
Y41315D01*
X267216D01*
Y43315D01*
X271216D01*
G54D16*
X90032Y32815D03*
Y36751D03*
X186331Y32815D03*
Y36751D03*
X200430Y63847D03*
Y67783D03*
X203368Y86361D03*
Y82425D03*
X212448Y105285D03*
Y109221D03*
X272630Y32815D03*
Y36751D03*
X272830Y67690D03*
Y71626D03*
X269230Y67690D03*
Y71626D03*
G54D25*
X214368Y72295D03*
X215949D03*
X217529D03*
X219109D03*
X220690D03*
X222270D03*
X223850D03*
X225430D03*
X227011D03*
X228591D03*
X230171D03*
Y96115D03*
X228591D03*
X227011D03*
X225430D03*
X223850D03*
X222270D03*
X220690D03*
X219109D03*
X217529D03*
X215949D03*
X214368D03*
X231752Y72295D03*
Y96115D03*
G54D17*
X88586Y42365D03*
X84650D03*
X180949Y42265D03*
X184885D03*
X185598Y70365D03*
X181662D03*
X185598Y74865D03*
X181662D03*
X243198Y58065D03*
X239262D03*
X243098Y62365D03*
X239162D03*
X245062Y77465D03*
X248998D03*
X271184Y42365D03*
X267248D03*
G54D26*
X223060Y84205D03*
G54D27*
X249752Y84515D03*
Y89515D03*
Y94515D03*
Y99515D03*
Y104515D03*
X265108Y84515D03*
Y89515D03*
Y94515D03*
Y104515D03*
G54D18*
X160173Y109185D03*
X153087D03*
Y105445D03*
X160173D03*
G54D19*
X173961Y76555D03*
X165299Y72815D03*
X173961Y69075D03*
Y92555D03*
X165299Y88815D03*
X173961Y85075D03*
G54D28*
X254693Y73004D03*
Y74382D03*
Y71626D03*
Y70248D03*
X264567D03*
Y71626D03*
Y73004D03*
Y74382D03*
G54D29*
X259630Y77252D03*
X261008D03*
X258252D03*
X259630Y67378D03*
X261008D03*
X258252D03*
M02*
