G04 ================== begin FILE IDENTIFICATION RECORD ==================*
G04 Layout Name:  Touch_Board_03AUG15_1930.brd*
G04 Film Name:    L02_BOTTOM*
G04 File Format:  Gerber RS274X*
G04 File Origin:  Cadence Allegro 16.6-P004*
G04 Origin Date:  Mon Aug 03 19:44:12 2015*
G04 *
G04 Layer:  BOARD GEOMETRY/OUTLINE*
G04 Layer:  DRAWING FORMAT/BOTTOM*
G04 Layer:  DRAWING FORMAT/FILM_LABEL_OUTLINE*
G04 Layer:  VIA CLASS/BOTTOM*
G04 Layer:  PIN/BOTTOM*
G04 Layer:  ETCH/BOTTOM*
G04 *
G04 Offset:    (0.000 0.000)*
G04 Mirror:    No*
G04 Mode:      Positive*
G04 Rotation:  0*
G04 FullContactRelief:  No*
G04 UndefLineWidth:     6.000*
G04 ================== end FILE IDENTIFICATION RECORD ====================*
%FSLAX25Y25*MOIN*%
%IR0*IPPOS*OFA0.00000B0.00000*MIA0B0*SFA1.00000B1.00000*%
%ADD10R,.15X.15*%
%ADD11C,.02*%
%ADD12C,.023598*%
%ADD13C,.006*%
%ADD14C,.008*%
%ADD15C,.003941*%
G75*
%LPD*%
G75*
G36*
G01X243497Y80682D02*
X244130Y81315D01*
X246630D01*
X247796Y80149D01*
Y64481D01*
X245630Y62315D01*
X176731D01*
X174630Y60214D01*
Y38315D01*
X180630Y32315D01*
X186130D01*
X188630Y29815D01*
Y10315D01*
X192946Y5999D01*
X262814D01*
X270130Y13315D01*
Y33815D01*
X267630Y36315D01*
X257434D01*
X247427Y46322D01*
Y47612D01*
X248130Y48315D01*
X248954D01*
X257954Y39315D01*
X268130D01*
X270630Y41815D01*
Y62315D01*
X267630D01*
X266630Y63315D01*
Y65315D01*
X267630Y66315D01*
X270630D01*
Y85315D01*
X271630Y86315D01*
X273630D01*
X274630Y85315D01*
Y7815D01*
X269431Y2616D01*
X94668D01*
X87630Y9654D01*
Y27553D01*
X86368Y28815D01*
X80485D01*
X64984Y44316D01*
Y47299D01*
X65678Y47993D01*
X67952D01*
X81130Y34815D01*
X91130D01*
X92630Y33315D01*
Y11315D01*
X97862Y6083D01*
X181398D01*
X185630Y10315D01*
Y26832D01*
X184148Y28315D01*
X178630D01*
X170630Y36315D01*
Y42315D01*
X168630Y44315D01*
X163052D01*
X161338Y46029D01*
Y47174D01*
X162979Y48815D01*
X167130D01*
X170630Y52315D01*
Y60235D01*
X169447Y61418D01*
X167802D01*
X167734Y61485D01*
X161460D01*
X151130Y71815D01*
X142630D01*
X135630Y78815D01*
Y84325D01*
X141120Y89815D01*
X152883D01*
X154630Y88068D01*
Y78315D01*
X167630Y65315D01*
X219630D01*
X223820Y69505D01*
X226663D01*
X228783Y67385D01*
X243497D01*
Y80682D01*
G37*
G36*
G01X211730Y84895D02*
X200050Y73215D01*
X198172D01*
X198114Y73235D01*
G03X196391Y72661I-484J-1420D01*
G02X195247Y72555I-617J421D01*
G01X190368Y77433D01*
X174012D01*
X156130Y95315D01*
X135130D01*
X130130Y90315D01*
Y78662D01*
X149306Y59485D01*
X166905D01*
X168091Y58299D01*
Y54767D01*
X167371Y54047D01*
X166130D01*
X163270Y56907D01*
X146722D01*
X138814Y64815D01*
X114630D01*
X94431Y44616D01*
X79829D01*
X74194Y50251D01*
X66244D01*
X65488Y51007D01*
Y52443D01*
X65881Y52836D01*
X91673D01*
X119130Y80293D01*
Y107815D01*
X122130Y110815D01*
X196677D01*
X197664Y109828D01*
Y100323D01*
X199162Y98825D01*
X206140D01*
X208574Y101259D01*
Y109787D01*
X209602Y110815D01*
X273630D01*
X274630Y109815D01*
Y89974D01*
X273038Y88382D01*
X269031D01*
X264630Y83981D01*
Y45049D01*
X264170Y44588D01*
X259857D01*
X246997Y57448D01*
X196170D01*
X186630Y47908D01*
Y45315D01*
X185630Y44315D01*
X184130D01*
X183130Y45315D01*
Y48105D01*
X194658Y59633D01*
X250312D01*
X259630Y50315D01*
X260630D01*
X261630Y51315D01*
Y77815D01*
X252630Y86815D01*
X237630D01*
X232630Y81815D01*
Y77861D01*
X230197Y75429D01*
X218744D01*
X214130Y70815D01*
X203413D01*
G02X202885Y72090I0J747D01*
G01X214530Y83735D01*
Y95395D01*
X212503Y97422D01*
X212476Y97477D01*
G03X210468Y95469I-1346J-662D01*
G01X210523Y95442D01*
X211730Y94235D01*
Y84895D01*
G37*
%LPC*%
G75*
G36*
G01X201110Y80615D02*
X189772D01*
X189714Y80595D01*
G02Y83435I-484J1420D01*
G01X189772Y83415D01*
X199950D01*
X203200Y86665D01*
X199150Y90715D01*
X189472D01*
X189414Y90695D01*
G02Y93535I-484J1420D01*
G01X189472Y93515D01*
X200310D01*
X204850Y88975D01*
X207326D01*
X207384Y88995D01*
G02X208956Y86542I484J-1420D01*
G03Y86028I271J-257D01*
G02X207384Y83575I-1088J-1033D01*
G01X207326Y83595D01*
X204090D01*
X201110Y80615D01*
G37*
%LPD*%
G75*
G54D10*
X14350Y97441D03*
X129885D03*
G54D11*
X66630Y51815D03*
X66064Y46783D03*
X90032Y28815D03*
X88586Y45761D03*
X122630Y68315D03*
X118630D03*
X130630D03*
X126630D03*
X141130Y87815D03*
X137130Y83815D03*
X141130D03*
X153130Y87815D03*
X147130Y101815D03*
Y105315D03*
Y109315D03*
X166777Y55261D03*
X162363Y46783D03*
X186331Y28815D03*
X184885Y45761D03*
X179630Y54315D03*
X185630Y59315D03*
X189130Y70315D03*
X189630Y75315D03*
X191130Y78315D03*
X189130Y86815D03*
X189230Y82015D03*
X188930Y92115D03*
X189008Y109515D03*
X193008D03*
X193228Y102155D03*
Y105155D03*
X181008Y101515D03*
Y105515D03*
Y109515D03*
X185008D03*
X204630Y71815D03*
X209785Y64315D03*
X197630Y71815D03*
X207868Y84995D03*
Y87575D03*
X209630Y109315D03*
X211130Y96815D03*
X225630Y68215D03*
X216118Y109755D03*
X220708Y109515D03*
X224708D03*
X228708D03*
X246430Y66415D03*
X233762Y65583D03*
X238330Y75215D03*
X245062Y80215D03*
X238330Y78674D03*
X238528Y83415D03*
X232708Y109515D03*
X236868D03*
X240708D03*
X244708D03*
X239730Y100315D03*
X262576Y45761D03*
X253076Y55261D03*
X248662Y46783D03*
X257012Y56815D03*
X263630Y80315D03*
X256708Y109515D03*
X252708D03*
X248708D03*
X261788Y109455D03*
X272630Y28815D03*
X268730Y63915D03*
X272368Y93395D03*
Y89395D03*
X271930Y84515D03*
X265788Y109455D03*
X269788D03*
X272368Y109395D03*
Y105395D03*
Y101395D03*
Y97395D03*
G54D12*
X220660Y86505D03*
Y91205D03*
X215960Y86505D03*
Y91205D03*
X230060D03*
Y86505D03*
X225360D03*
Y91205D03*
X220660Y77105D03*
Y81805D03*
X215960D03*
Y77105D03*
X230060Y81805D03*
Y77105D03*
X225360D03*
Y81805D03*
G54D13*
G01X115630Y126465D02*
X122630D01*
G01X119130D02*
Y121965D01*
G01X115630D02*
Y126465D01*
G01X122630Y121965D02*
X115630D01*
G01X122630Y126465D02*
Y121965D01*
G01X0Y0D02*
X275590D01*
Y137795D01*
X109747D01*
X109747Y97441D01*
G02X29038I-40354J0D01*
G01Y137795D01*
X0Y137795D01*
Y0D01*
G01X1130Y184982D02*
Y174982D01*
X6130D01*
G01X13630Y184982D02*
X12630Y184648D01*
X11880Y183815D01*
X11380Y182815D01*
X11005Y181482D01*
X10880Y179982D01*
X11005Y178482D01*
X11380Y177148D01*
X11880Y176148D01*
X12630Y175315D01*
X13630Y174982D01*
X14630Y175315D01*
X15380Y176148D01*
X15880Y177148D01*
X16255Y178482D01*
X16380Y179982D01*
X16255Y181482D01*
X15880Y182815D01*
X15380Y183815D01*
X14630Y184648D01*
X13630Y184982D01*
G01X21255Y183315D02*
X22005Y184315D01*
X22880Y184815D01*
X23880Y184982D01*
X25130Y184648D01*
X26005Y183815D01*
X26255Y182815D01*
X26130Y181815D01*
X25630Y180982D01*
X23130Y179315D01*
X22005Y178148D01*
X21255Y176481D01*
X21005Y174982D01*
X26255D01*
G01X29880Y171648D02*
X37380D01*
G01X44630Y180315D02*
X45130Y180815D01*
X45505Y181648D01*
X45755Y182815D01*
X45505Y183815D01*
X45005Y184482D01*
X44130Y184982D01*
X40755D01*
Y174982D01*
X44880D01*
X45755Y175648D01*
X46255Y176648D01*
X46505Y177815D01*
X46255Y178982D01*
X45505Y179982D01*
X44630Y180315D01*
X40755D01*
G01X53630Y174982D02*
X52630Y175148D01*
X51755Y175815D01*
X51005Y176815D01*
X50505Y177982D01*
X50255Y179315D01*
Y180648D01*
X50505Y181982D01*
X51005Y183148D01*
X51755Y184148D01*
X52630Y184815D01*
X53630Y184982D01*
X54630Y184815D01*
X55505Y184148D01*
X56255Y183148D01*
X56755Y181982D01*
X57005Y180648D01*
Y179315D01*
X56755Y177982D01*
X56255Y176815D01*
X55505Y175815D01*
X54630Y175148D01*
X53630Y174982D01*
G01X63630Y184982D02*
Y174982D01*
G01X60755Y184982D02*
X66505D01*
G01X73630D02*
Y174982D01*
G01X70755Y184982D02*
X76505D01*
G01X83630Y174982D02*
X82630Y175148D01*
X81755Y175815D01*
X81005Y176815D01*
X80505Y177982D01*
X80255Y179315D01*
Y180648D01*
X80505Y181982D01*
X81005Y183148D01*
X81755Y184148D01*
X82630Y184815D01*
X83630Y184982D01*
X84630Y184815D01*
X85505Y184148D01*
X86255Y183148D01*
X86755Y181982D01*
X87005Y180648D01*
Y179315D01*
X86755Y177982D01*
X86255Y176815D01*
X85505Y175815D01*
X84630Y175148D01*
X83630Y174982D01*
G01X90380D02*
Y184982D01*
X93630Y176648D01*
X96880Y184982D01*
Y174982D01*
G01X1375Y196500D02*
X2375Y195667D01*
X3500Y195167D01*
X4500D01*
X5500Y195667D01*
X6250Y196500D01*
X6625Y197667D01*
X6375Y198833D01*
X5750Y199833D01*
X4625Y200500D01*
X3125Y200833D01*
X2250Y201500D01*
X1875Y202667D01*
X2125Y203833D01*
X2750Y204666D01*
X3625Y205167D01*
X4500D01*
X5375Y204833D01*
X6125Y204000D01*
G01X16500Y195167D02*
X11500D01*
Y205167D01*
X16500D01*
G01X14500Y200334D02*
X11500D01*
G01X21125Y195167D02*
Y205167D01*
X26875Y195167D01*
Y205167D01*
G01X31375Y196500D02*
X32375Y195667D01*
X33500Y195167D01*
X34500D01*
X35500Y195667D01*
X36250Y196500D01*
X36625Y197667D01*
X36375Y198833D01*
X35750Y199833D01*
X34625Y200500D01*
X33125Y200833D01*
X32250Y201500D01*
X31875Y202667D01*
X32125Y203833D01*
X32750Y204666D01*
X33625Y205167D01*
X34500D01*
X35375Y204833D01*
X36125Y204000D01*
G01X46500Y195167D02*
X41500D01*
Y205167D01*
X46500D01*
G01X44500Y200334D02*
X41500D01*
G01X50250Y191834D02*
X57750D01*
G01X64000Y205167D02*
Y195167D01*
G01X61125Y205167D02*
X66875D01*
G01X74000Y195167D02*
X73000Y195333D01*
X72125Y196000D01*
X71375Y197000D01*
X70875Y198167D01*
X70625Y199500D01*
Y200833D01*
X70875Y202167D01*
X71375Y203334D01*
X72125Y204333D01*
X73000Y205000D01*
X74000Y205167D01*
X75000Y205000D01*
X75875Y204333D01*
X76625Y203334D01*
X77125Y202167D01*
X77375Y200833D01*
Y199500D01*
X77125Y198167D01*
X76625Y197000D01*
X75875Y196000D01*
X75000Y195333D01*
X74000Y195167D01*
G01X81250Y205167D02*
Y198000D01*
X81750Y196500D01*
X82750Y195500D01*
X84000Y195167D01*
X85250Y195500D01*
X86250Y196500D01*
X86750Y198000D01*
Y205167D01*
G01X96750Y204333D02*
X96000Y204833D01*
X95125Y205167D01*
X94125D01*
X93000Y204666D01*
X92125Y203833D01*
X91500Y202833D01*
X91000Y201167D01*
X90875Y199667D01*
X91125Y198167D01*
X91500Y197167D01*
X92250Y196166D01*
X93125Y195500D01*
X94000Y195167D01*
X94875D01*
X95750Y195500D01*
X96500Y196000D01*
X97125Y196666D01*
G01X101375Y195167D02*
Y205167D01*
G01X106625D02*
Y195167D01*
G01Y200166D02*
X101375D01*
G01X125000Y200500D02*
X125500Y201000D01*
X125875Y201833D01*
X126125Y203000D01*
X125875Y204000D01*
X125375Y204666D01*
X124500Y205167D01*
X121125D01*
Y195167D01*
X125250D01*
X126125Y195833D01*
X126625Y196833D01*
X126875Y198000D01*
X126625Y199166D01*
X125875Y200166D01*
X125000Y200500D01*
X121125D01*
G01X134000Y195167D02*
X133000Y195333D01*
X132125Y196000D01*
X131375Y197000D01*
X130875Y198167D01*
X130625Y199500D01*
Y200833D01*
X130875Y202167D01*
X131375Y203334D01*
X132125Y204333D01*
X133000Y205000D01*
X134000Y205167D01*
X135000Y205000D01*
X135875Y204333D01*
X136625Y203334D01*
X137125Y202167D01*
X137375Y200833D01*
Y199500D01*
X137125Y198167D01*
X136625Y197000D01*
X135875Y196000D01*
X135000Y195333D01*
X134000Y195167D01*
G01X140875D02*
X144000Y205167D01*
X147125Y195167D01*
G01X146000Y198667D02*
X142000D01*
G01X151500Y195167D02*
Y205167D01*
X154625D01*
X155625Y204666D01*
X156250Y204000D01*
X156500Y202667D01*
X156250Y201333D01*
X155500Y200500D01*
X154625Y200000D01*
X151500D01*
G01X154625D02*
X156500Y195167D01*
G01X161250D02*
Y205167D01*
X163750D01*
X164750Y204666D01*
X165500Y204000D01*
X166125Y203000D01*
X166625Y201833D01*
X166750Y200166D01*
X166625Y198500D01*
X166125Y197333D01*
X165500Y196333D01*
X164750Y195667D01*
X163750Y195167D01*
X161250D01*
G01X2250Y214167D02*
Y224167D01*
X4750D01*
X5750Y223666D01*
X6500Y223000D01*
X7125Y222000D01*
X7625Y220833D01*
X7750Y219166D01*
X7625Y217500D01*
X7125Y216333D01*
X6500Y215333D01*
X5750Y214667D01*
X4750Y214167D01*
X2250D01*
G01X11875D02*
X15000Y224167D01*
X18125Y214167D01*
G01X17000Y217667D02*
X13000D01*
G01X25000Y224167D02*
Y214167D01*
G01X22125Y224167D02*
X27875D01*
G01X37500Y214167D02*
X32500D01*
Y224167D01*
X37500D01*
G01X35500Y219334D02*
X32500D01*
G01X45000Y213833D02*
X44750Y214000D01*
Y214333D01*
X45000Y214500D01*
X45250Y214333D01*
Y214000D01*
X45000Y213833D01*
G01Y218333D02*
X44750Y218500D01*
Y218833D01*
X45000Y219000D01*
X45250Y218833D01*
Y218500D01*
X45000Y218333D01*
G01X55000Y224167D02*
X54000Y223833D01*
X53250Y223000D01*
X52750Y222000D01*
X52375Y220666D01*
X52250Y219166D01*
X52375Y217667D01*
X52750Y216333D01*
X53250Y215333D01*
X54000Y214500D01*
X55000Y214167D01*
X56000Y214500D01*
X56750Y215333D01*
X57250Y216333D01*
X57625Y217667D01*
X57750Y219166D01*
X57625Y220666D01*
X57250Y222000D01*
X56750Y223000D01*
X56000Y223833D01*
X55000Y224167D01*
G01X62250Y216167D02*
X63000Y215000D01*
X64000Y214333D01*
X65125Y214167D01*
X66125Y214333D01*
X67125Y215166D01*
X67750Y216167D01*
X67875Y217167D01*
X67625Y218333D01*
X66750Y219166D01*
X65875Y219500D01*
X64750D01*
G01X65875D02*
X66625Y220000D01*
X67250Y220833D01*
X67500Y221833D01*
X67250Y222833D01*
X66625Y223666D01*
X65500Y224167D01*
X64375Y224000D01*
X63250Y223333D01*
G01X72750Y213833D02*
X77250Y224167D01*
G01X85000D02*
X84000Y223833D01*
X83250Y223000D01*
X82750Y222000D01*
X82375Y220666D01*
X82250Y219166D01*
X82375Y217667D01*
X82750Y216333D01*
X83250Y215333D01*
X84000Y214500D01*
X85000Y214167D01*
X86000Y214500D01*
X86750Y215333D01*
X87250Y216333D01*
X87625Y217667D01*
X87750Y219166D01*
X87625Y220666D01*
X87250Y222000D01*
X86750Y223000D01*
X86000Y223833D01*
X85000Y224167D01*
G01X95000Y214167D02*
X95875Y214333D01*
X96875Y214833D01*
X97500Y215666D01*
X97750Y216833D01*
X97500Y218000D01*
X96750Y219000D01*
X95625Y219500D01*
X94375D01*
X93625Y219833D01*
X93000Y220666D01*
X92750Y221833D01*
X93125Y223000D01*
X94000Y223833D01*
X95000Y224167D01*
X96000Y223833D01*
X96875Y223000D01*
X97250Y221833D01*
X97000Y220666D01*
X96375Y219833D01*
X95625Y219500D01*
X94375D01*
X93250Y219000D01*
X92500Y218000D01*
X92250Y216833D01*
X92500Y215666D01*
X93125Y214833D01*
X94125Y214333D01*
X95000Y214167D01*
G01X102750Y213833D02*
X107250Y224167D01*
G01X112625Y222500D02*
X113375Y223500D01*
X114250Y224000D01*
X115250Y224167D01*
X116500Y223833D01*
X117375Y223000D01*
X117625Y222000D01*
X117500Y221000D01*
X117000Y220167D01*
X114500Y218500D01*
X113375Y217333D01*
X112625Y215666D01*
X112375Y214167D01*
X117625D01*
G01X125000Y224167D02*
X124000Y223833D01*
X123250Y223000D01*
X122750Y222000D01*
X122375Y220666D01*
X122250Y219166D01*
X122375Y217667D01*
X122750Y216333D01*
X123250Y215333D01*
X124000Y214500D01*
X125000Y214167D01*
X126000Y214500D01*
X126750Y215333D01*
X127250Y216333D01*
X127625Y217667D01*
X127750Y219166D01*
X127625Y220666D01*
X127250Y222000D01*
X126750Y223000D01*
X126000Y223833D01*
X125000Y224167D01*
G01X135000Y214167D02*
Y224167D01*
X133500Y222167D01*
G01Y214167D02*
X136500D01*
G01X142250Y215666D02*
X143000Y214833D01*
X143875Y214333D01*
X145000Y214167D01*
X146125Y214500D01*
X147000Y215166D01*
X147625Y216333D01*
X147750Y217667D01*
X147500Y219000D01*
X146875Y219833D01*
X146000Y220500D01*
X145125Y220666D01*
X144250Y220500D01*
X143125Y219833D01*
X143500Y224167D01*
X146875D01*
G54D14*
G01X179630Y54315D02*
X180630D01*
X185630Y59315D01*
G01X238330Y78674D02*
X231471Y71815D01*
X220630D01*
X216130Y67315D01*
X192130D01*
X189130Y70315D01*
G01X189630Y75315D02*
X196130Y68815D01*
X215130D01*
X220130Y73815D01*
X231130D01*
X235130Y77815D01*
Y80017D01*
X238528Y83415D01*
G01X189230Y82015D02*
X200530D01*
X203510Y84995D01*
X207868D01*
G01X188930Y92115D02*
X199730D01*
X204270Y87575D01*
X207868D01*
G01X211130Y96815D02*
X213130Y94815D01*
Y84315D01*
X200630Y71815D01*
X197630D01*
G01X257012Y56815D02*
Y77433D01*
X250130Y84315D01*
X244130D01*
X241130Y81315D01*
Y76815D01*
X239530Y75215D01*
X238330D01*
G54D15*
G01X121364Y125575D02*
Y123075D01*
X120298D01*
G01X117737Y125159D02*
X117577Y125409D01*
X117391Y125534D01*
X117178Y125575D01*
X116911Y125492D01*
X116725Y125284D01*
X116672Y125034D01*
X116698Y124784D01*
X116805Y124575D01*
X117337Y124159D01*
X117577Y123867D01*
X117737Y123450D01*
X117790Y123075D01*
X116672D01*
M02*
