G04 ================== begin FILE IDENTIFICATION RECORD ==================*
G04 Layout Name:  Touch_Board_03AUG15_1930.brd*
G04 Film Name:    SMB*
G04 File Format:  Gerber RS274X*
G04 File Origin:  Cadence Allegro 16.6-P004*
G04 Origin Date:  Mon Aug 03 19:44:12 2015*
G04 *
G04 Layer:  DRAWING FORMAT/SMB*
G04 Layer:  DRAWING FORMAT/FILM_LABEL_OUTLINE*
G04 Layer:  VIA CLASS/SOLDERMASK_BOTTOM*
G04 Layer:  PIN/SOLDERMASK_BOTTOM*
G04 Layer:  BOARD GEOMETRY/OUTLINE*
G04 *
G04 Offset:    (0.000 0.000)*
G04 Mirror:    No*
G04 Mode:      Positive*
G04 Rotation:  0*
G04 FullContactRelief:  No*
G04 UndefLineWidth:     6.000*
G04 ================== end FILE IDENTIFICATION RECORD ====================*
%FSLAX25Y25*MOIN*%
%IR0*IPPOS*OFA0.00000B0.00000*MIA0B0*SFA1.00000B1.00000*%
%ADD10R,.154X.154*%
%ADD11C,.027598*%
%ADD12C,.006*%
G75*
%LPD*%
G75*
G54D10*
X14350Y97441D03*
X129885D03*
G54D11*
X220660Y86505D03*
Y91205D03*
X215960Y86505D03*
Y91205D03*
X230060D03*
Y86505D03*
X225360D03*
Y91205D03*
X220660Y77105D03*
Y81805D03*
X215960D03*
Y77105D03*
X230060Y81805D03*
Y77105D03*
X225360D03*
Y81805D03*
G54D12*
G01X0Y0D02*
X275590D01*
Y137795D01*
X109747D01*
X109747Y97441D01*
G02X29038I-40354J0D01*
G01Y137795D01*
X0Y137795D01*
Y0D01*
G01X2005Y176315D02*
X3005Y175482D01*
X4130Y174982D01*
X5130D01*
X6130Y175482D01*
X6880Y176315D01*
X7255Y177482D01*
X7005Y178648D01*
X6380Y179648D01*
X5255Y180315D01*
X3755Y180648D01*
X2880Y181315D01*
X2505Y182482D01*
X2755Y183648D01*
X3380Y184482D01*
X4255Y184982D01*
X5130D01*
X6005Y184648D01*
X6755Y183815D01*
G01X14630Y174982D02*
X13630Y175148D01*
X12755Y175815D01*
X12005Y176815D01*
X11505Y177982D01*
X11255Y179315D01*
Y180648D01*
X11505Y181982D01*
X12005Y183148D01*
X12755Y184148D01*
X13630Y184815D01*
X14630Y184982D01*
X15630Y184815D01*
X16505Y184148D01*
X17255Y183148D01*
X17755Y181982D01*
X18005Y180648D01*
Y179315D01*
X17755Y177982D01*
X17255Y176815D01*
X16505Y175815D01*
X15630Y175148D01*
X14630Y174982D01*
G01X22130Y184982D02*
Y174982D01*
X27130D01*
G01X31880D02*
Y184982D01*
X34380D01*
X35380Y184482D01*
X36130Y183815D01*
X36755Y182815D01*
X37255Y181648D01*
X37380Y179982D01*
X37255Y178315D01*
X36755Y177148D01*
X36130Y176148D01*
X35380Y175482D01*
X34380Y174982D01*
X31880D01*
G01X41380D02*
Y184982D01*
X44630Y176648D01*
X47880Y184982D01*
Y174982D01*
G01X51505D02*
X54630Y184982D01*
X57755Y174982D01*
G01X56630Y178482D02*
X52630D01*
G01X62005Y176315D02*
X63005Y175482D01*
X64130Y174982D01*
X65130D01*
X66130Y175482D01*
X66880Y176315D01*
X67255Y177482D01*
X67005Y178648D01*
X66380Y179648D01*
X65255Y180315D01*
X63755Y180648D01*
X62880Y181315D01*
X62505Y182482D01*
X62755Y183648D01*
X63380Y184482D01*
X64255Y184982D01*
X65130D01*
X66005Y184648D01*
X66755Y183815D01*
G01X71880Y174982D02*
Y184982D01*
G01X76630D02*
X71880Y178815D01*
G01X77380Y174982D02*
X74005Y181648D01*
G01X80880Y171648D02*
X88380D01*
G01X95630Y180315D02*
X96130Y180815D01*
X96505Y181648D01*
X96755Y182815D01*
X96505Y183815D01*
X96005Y184482D01*
X95130Y184982D01*
X91755D01*
Y174982D01*
X95880D01*
X96755Y175648D01*
X97255Y176648D01*
X97505Y177815D01*
X97255Y178982D01*
X96505Y179982D01*
X95630Y180315D01*
X91755D01*
G01X104630Y174982D02*
X103630Y175148D01*
X102755Y175815D01*
X102005Y176815D01*
X101505Y177982D01*
X101255Y179315D01*
Y180648D01*
X101505Y181982D01*
X102005Y183148D01*
X102755Y184148D01*
X103630Y184815D01*
X104630Y184982D01*
X105630Y184815D01*
X106505Y184148D01*
X107255Y183148D01*
X107755Y181982D01*
X108005Y180648D01*
Y179315D01*
X107755Y177982D01*
X107255Y176815D01*
X106505Y175815D01*
X105630Y175148D01*
X104630Y174982D01*
G01X114630Y184982D02*
Y174982D01*
G01X111755Y184982D02*
X117505D01*
G01X124630D02*
Y174982D01*
G01X121755Y184982D02*
X127505D01*
G01X134630Y174982D02*
X133630Y175148D01*
X132755Y175815D01*
X132005Y176815D01*
X131505Y177982D01*
X131255Y179315D01*
Y180648D01*
X131505Y181982D01*
X132005Y183148D01*
X132755Y184148D01*
X133630Y184815D01*
X134630Y184982D01*
X135630Y184815D01*
X136505Y184148D01*
X137255Y183148D01*
X137755Y181982D01*
X138005Y180648D01*
Y179315D01*
X137755Y177982D01*
X137255Y176815D01*
X136505Y175815D01*
X135630Y175148D01*
X134630Y174982D01*
G01X141380D02*
Y184982D01*
X144630Y176648D01*
X147880Y184982D01*
Y174982D01*
G01X1375Y196500D02*
X2375Y195667D01*
X3500Y195167D01*
X4500D01*
X5500Y195667D01*
X6250Y196500D01*
X6625Y197667D01*
X6375Y198833D01*
X5750Y199833D01*
X4625Y200500D01*
X3125Y200833D01*
X2250Y201500D01*
X1875Y202667D01*
X2125Y203833D01*
X2750Y204666D01*
X3625Y205167D01*
X4500D01*
X5375Y204833D01*
X6125Y204000D01*
G01X16500Y195167D02*
X11500D01*
Y205167D01*
X16500D01*
G01X14500Y200334D02*
X11500D01*
G01X21125Y195167D02*
Y205167D01*
X26875Y195167D01*
Y205167D01*
G01X31375Y196500D02*
X32375Y195667D01*
X33500Y195167D01*
X34500D01*
X35500Y195667D01*
X36250Y196500D01*
X36625Y197667D01*
X36375Y198833D01*
X35750Y199833D01*
X34625Y200500D01*
X33125Y200833D01*
X32250Y201500D01*
X31875Y202667D01*
X32125Y203833D01*
X32750Y204666D01*
X33625Y205167D01*
X34500D01*
X35375Y204833D01*
X36125Y204000D01*
G01X46500Y195167D02*
X41500D01*
Y205167D01*
X46500D01*
G01X44500Y200334D02*
X41500D01*
G01X50250Y191834D02*
X57750D01*
G01X64000Y205167D02*
Y195167D01*
G01X61125Y205167D02*
X66875D01*
G01X74000Y195167D02*
X73000Y195333D01*
X72125Y196000D01*
X71375Y197000D01*
X70875Y198167D01*
X70625Y199500D01*
Y200833D01*
X70875Y202167D01*
X71375Y203334D01*
X72125Y204333D01*
X73000Y205000D01*
X74000Y205167D01*
X75000Y205000D01*
X75875Y204333D01*
X76625Y203334D01*
X77125Y202167D01*
X77375Y200833D01*
Y199500D01*
X77125Y198167D01*
X76625Y197000D01*
X75875Y196000D01*
X75000Y195333D01*
X74000Y195167D01*
G01X81250Y205167D02*
Y198000D01*
X81750Y196500D01*
X82750Y195500D01*
X84000Y195167D01*
X85250Y195500D01*
X86250Y196500D01*
X86750Y198000D01*
Y205167D01*
G01X96750Y204333D02*
X96000Y204833D01*
X95125Y205167D01*
X94125D01*
X93000Y204666D01*
X92125Y203833D01*
X91500Y202833D01*
X91000Y201167D01*
X90875Y199667D01*
X91125Y198167D01*
X91500Y197167D01*
X92250Y196166D01*
X93125Y195500D01*
X94000Y195167D01*
X94875D01*
X95750Y195500D01*
X96500Y196000D01*
X97125Y196666D01*
G01X101375Y195167D02*
Y205167D01*
G01X106625D02*
Y195167D01*
G01Y200166D02*
X101375D01*
G01X125000Y200500D02*
X125500Y201000D01*
X125875Y201833D01*
X126125Y203000D01*
X125875Y204000D01*
X125375Y204666D01*
X124500Y205167D01*
X121125D01*
Y195167D01*
X125250D01*
X126125Y195833D01*
X126625Y196833D01*
X126875Y198000D01*
X126625Y199166D01*
X125875Y200166D01*
X125000Y200500D01*
X121125D01*
G01X134000Y195167D02*
X133000Y195333D01*
X132125Y196000D01*
X131375Y197000D01*
X130875Y198167D01*
X130625Y199500D01*
Y200833D01*
X130875Y202167D01*
X131375Y203334D01*
X132125Y204333D01*
X133000Y205000D01*
X134000Y205167D01*
X135000Y205000D01*
X135875Y204333D01*
X136625Y203334D01*
X137125Y202167D01*
X137375Y200833D01*
Y199500D01*
X137125Y198167D01*
X136625Y197000D01*
X135875Y196000D01*
X135000Y195333D01*
X134000Y195167D01*
G01X140875D02*
X144000Y205167D01*
X147125Y195167D01*
G01X146000Y198667D02*
X142000D01*
G01X151500Y195167D02*
Y205167D01*
X154625D01*
X155625Y204666D01*
X156250Y204000D01*
X156500Y202667D01*
X156250Y201333D01*
X155500Y200500D01*
X154625Y200000D01*
X151500D01*
G01X154625D02*
X156500Y195167D01*
G01X161250D02*
Y205167D01*
X163750D01*
X164750Y204666D01*
X165500Y204000D01*
X166125Y203000D01*
X166625Y201833D01*
X166750Y200166D01*
X166625Y198500D01*
X166125Y197333D01*
X165500Y196333D01*
X164750Y195667D01*
X163750Y195167D01*
X161250D01*
G01X2250Y214167D02*
Y224167D01*
X4750D01*
X5750Y223666D01*
X6500Y223000D01*
X7125Y222000D01*
X7625Y220833D01*
X7750Y219166D01*
X7625Y217500D01*
X7125Y216333D01*
X6500Y215333D01*
X5750Y214667D01*
X4750Y214167D01*
X2250D01*
G01X11875D02*
X15000Y224167D01*
X18125Y214167D01*
G01X17000Y217667D02*
X13000D01*
G01X25000Y224167D02*
Y214167D01*
G01X22125Y224167D02*
X27875D01*
G01X37500Y214167D02*
X32500D01*
Y224167D01*
X37500D01*
G01X35500Y219334D02*
X32500D01*
G01X45000Y213833D02*
X44750Y214000D01*
Y214333D01*
X45000Y214500D01*
X45250Y214333D01*
Y214000D01*
X45000Y213833D01*
G01Y218333D02*
X44750Y218500D01*
Y218833D01*
X45000Y219000D01*
X45250Y218833D01*
Y218500D01*
X45000Y218333D01*
G01X55000Y224167D02*
X54000Y223833D01*
X53250Y223000D01*
X52750Y222000D01*
X52375Y220666D01*
X52250Y219166D01*
X52375Y217667D01*
X52750Y216333D01*
X53250Y215333D01*
X54000Y214500D01*
X55000Y214167D01*
X56000Y214500D01*
X56750Y215333D01*
X57250Y216333D01*
X57625Y217667D01*
X57750Y219166D01*
X57625Y220666D01*
X57250Y222000D01*
X56750Y223000D01*
X56000Y223833D01*
X55000Y224167D01*
G01X62250Y216167D02*
X63000Y215000D01*
X64000Y214333D01*
X65125Y214167D01*
X66125Y214333D01*
X67125Y215166D01*
X67750Y216167D01*
X67875Y217167D01*
X67625Y218333D01*
X66750Y219166D01*
X65875Y219500D01*
X64750D01*
G01X65875D02*
X66625Y220000D01*
X67250Y220833D01*
X67500Y221833D01*
X67250Y222833D01*
X66625Y223666D01*
X65500Y224167D01*
X64375Y224000D01*
X63250Y223333D01*
G01X72750Y213833D02*
X77250Y224167D01*
G01X85000D02*
X84000Y223833D01*
X83250Y223000D01*
X82750Y222000D01*
X82375Y220666D01*
X82250Y219166D01*
X82375Y217667D01*
X82750Y216333D01*
X83250Y215333D01*
X84000Y214500D01*
X85000Y214167D01*
X86000Y214500D01*
X86750Y215333D01*
X87250Y216333D01*
X87625Y217667D01*
X87750Y219166D01*
X87625Y220666D01*
X87250Y222000D01*
X86750Y223000D01*
X86000Y223833D01*
X85000Y224167D01*
G01X95000Y214167D02*
X95875Y214333D01*
X96875Y214833D01*
X97500Y215666D01*
X97750Y216833D01*
X97500Y218000D01*
X96750Y219000D01*
X95625Y219500D01*
X94375D01*
X93625Y219833D01*
X93000Y220666D01*
X92750Y221833D01*
X93125Y223000D01*
X94000Y223833D01*
X95000Y224167D01*
X96000Y223833D01*
X96875Y223000D01*
X97250Y221833D01*
X97000Y220666D01*
X96375Y219833D01*
X95625Y219500D01*
X94375D01*
X93250Y219000D01*
X92500Y218000D01*
X92250Y216833D01*
X92500Y215666D01*
X93125Y214833D01*
X94125Y214333D01*
X95000Y214167D01*
G01X102750Y213833D02*
X107250Y224167D01*
G01X112625Y222500D02*
X113375Y223500D01*
X114250Y224000D01*
X115250Y224167D01*
X116500Y223833D01*
X117375Y223000D01*
X117625Y222000D01*
X117500Y221000D01*
X117000Y220167D01*
X114500Y218500D01*
X113375Y217333D01*
X112625Y215666D01*
X112375Y214167D01*
X117625D01*
G01X125000Y224167D02*
X124000Y223833D01*
X123250Y223000D01*
X122750Y222000D01*
X122375Y220666D01*
X122250Y219166D01*
X122375Y217667D01*
X122750Y216333D01*
X123250Y215333D01*
X124000Y214500D01*
X125000Y214167D01*
X126000Y214500D01*
X126750Y215333D01*
X127250Y216333D01*
X127625Y217667D01*
X127750Y219166D01*
X127625Y220666D01*
X127250Y222000D01*
X126750Y223000D01*
X126000Y223833D01*
X125000Y224167D01*
G01X135000Y214167D02*
Y224167D01*
X133500Y222167D01*
G01Y214167D02*
X136500D01*
G01X142250Y215666D02*
X143000Y214833D01*
X143875Y214333D01*
X145000Y214167D01*
X146125Y214500D01*
X147000Y215166D01*
X147625Y216333D01*
X147750Y217667D01*
X147500Y219000D01*
X146875Y219833D01*
X146000Y220500D01*
X145125Y220666D01*
X144250Y220500D01*
X143125Y219833D01*
X143500Y224167D01*
X146875D01*
M02*
