G04 ================== begin FILE IDENTIFICATION RECORD ==================*
G04 Layout Name:  Touch_Board_03AUG15_1930.brd*
G04 Film Name:    SMT*
G04 File Format:  Gerber RS274X*
G04 File Origin:  Cadence Allegro 16.6-P004*
G04 Origin Date:  Mon Aug 03 19:44:12 2015*
G04 *
G04 Layer:  DRAWING FORMAT/SMT*
G04 Layer:  DRAWING FORMAT/FILM_LABEL_OUTLINE*
G04 Layer:  PIN/SOLDERMASK_TOP*
G04 Layer:  BOARD GEOMETRY/OUTLINE*
G04 *
G04 Offset:    (0.000 0.000)*
G04 Mirror:    No*
G04 Mode:      Positive*
G04 Rotation:  0*
G04 FullContactRelief:  No*
G04 UndefLineWidth:     6.000*
G04 ================== end FILE IDENTIFICATION RECORD ====================*
%FSLAX25Y25*MOIN*%
%IR0*IPPOS*OFA0.00000B0.00000*MIA0B0*SFA1.00000B1.00000*%
%ADD10R,.154X.154*%
%ADD28O,.051098X.00748*%
%ADD29O,.00748X.051098*%
%ADD11R,.3977X.3977*%
%ADD26R,.188941X.188941*%
%ADD12R,.0355X.0375*%
%ADD18R,.05124X.027618*%
%ADD24R,.035429X.033441*%
%ADD13R,.047311X.027618*%
%ADD19R,.061098X.04535*%
%ADD16R,.023642X.027539*%
%ADD20R,.047209X.051169*%
%ADD15R,.027539X.023642*%
%ADD14R,.025642X.027539*%
%ADD22R,.029539X.023642*%
%ADD21R,.055209X.065059*%
%ADD17R,.027539X.025642*%
%ADD23O,.029598X.011598*%
%ADD27R,.09839X.033839*%
%ADD25O,.011598X.029598*%
%ADD30C,.006*%
G75*
%LPD*%
G75*
G54D10*
X14350Y97391D03*
X129885D03*
G54D20*
X193120Y93245D03*
Y86553D03*
X198628D03*
Y93245D03*
G54D11*
X41811Y31811D03*
X138110D03*
X224409D03*
G54D30*
G01X0Y0D02*
X275590D01*
Y137795D01*
X109747D01*
X109747Y97441D01*
G02X29038I-40354J0D01*
G01Y137795D01*
X0Y137795D01*
Y0D01*
G01X1005Y176315D02*
X2005Y175482D01*
X3130Y174982D01*
X4130D01*
X5130Y175482D01*
X5880Y176315D01*
X6255Y177482D01*
X6005Y178648D01*
X5380Y179648D01*
X4255Y180315D01*
X2755Y180648D01*
X1880Y181315D01*
X1505Y182482D01*
X1755Y183648D01*
X2380Y184482D01*
X3255Y184982D01*
X4130D01*
X5005Y184648D01*
X5755Y183815D01*
G01X13630Y174982D02*
X12630Y175148D01*
X11755Y175815D01*
X11005Y176815D01*
X10505Y177982D01*
X10255Y179315D01*
Y180648D01*
X10505Y181982D01*
X11005Y183148D01*
X11755Y184148D01*
X12630Y184815D01*
X13630Y184982D01*
X14630Y184815D01*
X15505Y184148D01*
X16255Y183148D01*
X16755Y181982D01*
X17005Y180648D01*
Y179315D01*
X16755Y177982D01*
X16255Y176815D01*
X15505Y175815D01*
X14630Y175148D01*
X13630Y174982D01*
G01X21130Y184982D02*
Y174982D01*
X26130D01*
G01X30880D02*
Y184982D01*
X33380D01*
X34380Y184482D01*
X35130Y183815D01*
X35755Y182815D01*
X36255Y181648D01*
X36380Y179982D01*
X36255Y178315D01*
X35755Y177148D01*
X35130Y176148D01*
X34380Y175482D01*
X33380Y174982D01*
X30880D01*
G01X40380D02*
Y184982D01*
X43630Y176648D01*
X46880Y184982D01*
Y174982D01*
G01X50505D02*
X53630Y184982D01*
X56755Y174982D01*
G01X55630Y178482D02*
X51630D01*
G01X61005Y176315D02*
X62005Y175482D01*
X63130Y174982D01*
X64130D01*
X65130Y175482D01*
X65880Y176315D01*
X66255Y177482D01*
X66005Y178648D01*
X65380Y179648D01*
X64255Y180315D01*
X62755Y180648D01*
X61880Y181315D01*
X61505Y182482D01*
X61755Y183648D01*
X62380Y184482D01*
X63255Y184982D01*
X64130D01*
X65005Y184648D01*
X65755Y183815D01*
G01X70880Y174982D02*
Y184982D01*
G01X75630D02*
X70880Y178815D01*
G01X76380Y174982D02*
X73005Y181648D01*
G01X79880Y171648D02*
X87380D01*
G01X93630Y184982D02*
Y174982D01*
G01X90755Y184982D02*
X96505D01*
G01X103630Y174982D02*
X102630Y175148D01*
X101755Y175815D01*
X101005Y176815D01*
X100505Y177982D01*
X100255Y179315D01*
Y180648D01*
X100505Y181982D01*
X101005Y183148D01*
X101755Y184148D01*
X102630Y184815D01*
X103630Y184982D01*
X104630Y184815D01*
X105505Y184148D01*
X106255Y183148D01*
X106755Y181982D01*
X107005Y180648D01*
Y179315D01*
X106755Y177982D01*
X106255Y176815D01*
X105505Y175815D01*
X104630Y175148D01*
X103630Y174982D01*
G01X111130D02*
Y184982D01*
X114130D01*
X115130Y184482D01*
X115880Y183315D01*
X116130Y181982D01*
X115880Y180648D01*
X115255Y179648D01*
X114130Y179148D01*
X111130D01*
G01X1375Y196500D02*
X2375Y195667D01*
X3500Y195167D01*
X4500D01*
X5500Y195667D01*
X6250Y196500D01*
X6625Y197667D01*
X6375Y198833D01*
X5750Y199833D01*
X4625Y200500D01*
X3125Y200833D01*
X2250Y201500D01*
X1875Y202667D01*
X2125Y203833D01*
X2750Y204666D01*
X3625Y205167D01*
X4500D01*
X5375Y204833D01*
X6125Y204000D01*
G01X16500Y195167D02*
X11500D01*
Y205167D01*
X16500D01*
G01X14500Y200334D02*
X11500D01*
G01X21125Y195167D02*
Y205167D01*
X26875Y195167D01*
Y205167D01*
G01X31375Y196500D02*
X32375Y195667D01*
X33500Y195167D01*
X34500D01*
X35500Y195667D01*
X36250Y196500D01*
X36625Y197667D01*
X36375Y198833D01*
X35750Y199833D01*
X34625Y200500D01*
X33125Y200833D01*
X32250Y201500D01*
X31875Y202667D01*
X32125Y203833D01*
X32750Y204666D01*
X33625Y205167D01*
X34500D01*
X35375Y204833D01*
X36125Y204000D01*
G01X46500Y195167D02*
X41500D01*
Y205167D01*
X46500D01*
G01X44500Y200334D02*
X41500D01*
G01X50250Y191834D02*
X57750D01*
G01X64000Y205167D02*
Y195167D01*
G01X61125Y205167D02*
X66875D01*
G01X74000Y195167D02*
X73000Y195333D01*
X72125Y196000D01*
X71375Y197000D01*
X70875Y198167D01*
X70625Y199500D01*
Y200833D01*
X70875Y202167D01*
X71375Y203334D01*
X72125Y204333D01*
X73000Y205000D01*
X74000Y205167D01*
X75000Y205000D01*
X75875Y204333D01*
X76625Y203334D01*
X77125Y202167D01*
X77375Y200833D01*
Y199500D01*
X77125Y198167D01*
X76625Y197000D01*
X75875Y196000D01*
X75000Y195333D01*
X74000Y195167D01*
G01X81250Y205167D02*
Y198000D01*
X81750Y196500D01*
X82750Y195500D01*
X84000Y195167D01*
X85250Y195500D01*
X86250Y196500D01*
X86750Y198000D01*
Y205167D01*
G01X96750Y204333D02*
X96000Y204833D01*
X95125Y205167D01*
X94125D01*
X93000Y204666D01*
X92125Y203833D01*
X91500Y202833D01*
X91000Y201167D01*
X90875Y199667D01*
X91125Y198167D01*
X91500Y197167D01*
X92250Y196166D01*
X93125Y195500D01*
X94000Y195167D01*
X94875D01*
X95750Y195500D01*
X96500Y196000D01*
X97125Y196666D01*
G01X101375Y195167D02*
Y205167D01*
G01X106625D02*
Y195167D01*
G01Y200166D02*
X101375D01*
G01X125000Y200500D02*
X125500Y201000D01*
X125875Y201833D01*
X126125Y203000D01*
X125875Y204000D01*
X125375Y204666D01*
X124500Y205167D01*
X121125D01*
Y195167D01*
X125250D01*
X126125Y195833D01*
X126625Y196833D01*
X126875Y198000D01*
X126625Y199166D01*
X125875Y200166D01*
X125000Y200500D01*
X121125D01*
G01X134000Y195167D02*
X133000Y195333D01*
X132125Y196000D01*
X131375Y197000D01*
X130875Y198167D01*
X130625Y199500D01*
Y200833D01*
X130875Y202167D01*
X131375Y203334D01*
X132125Y204333D01*
X133000Y205000D01*
X134000Y205167D01*
X135000Y205000D01*
X135875Y204333D01*
X136625Y203334D01*
X137125Y202167D01*
X137375Y200833D01*
Y199500D01*
X137125Y198167D01*
X136625Y197000D01*
X135875Y196000D01*
X135000Y195333D01*
X134000Y195167D01*
G01X140875D02*
X144000Y205167D01*
X147125Y195167D01*
G01X146000Y198667D02*
X142000D01*
G01X151500Y195167D02*
Y205167D01*
X154625D01*
X155625Y204666D01*
X156250Y204000D01*
X156500Y202667D01*
X156250Y201333D01*
X155500Y200500D01*
X154625Y200000D01*
X151500D01*
G01X154625D02*
X156500Y195167D01*
G01X161250D02*
Y205167D01*
X163750D01*
X164750Y204666D01*
X165500Y204000D01*
X166125Y203000D01*
X166625Y201833D01*
X166750Y200166D01*
X166625Y198500D01*
X166125Y197333D01*
X165500Y196333D01*
X164750Y195667D01*
X163750Y195167D01*
X161250D01*
G01X2250Y214167D02*
Y224167D01*
X4750D01*
X5750Y223666D01*
X6500Y223000D01*
X7125Y222000D01*
X7625Y220833D01*
X7750Y219166D01*
X7625Y217500D01*
X7125Y216333D01*
X6500Y215333D01*
X5750Y214667D01*
X4750Y214167D01*
X2250D01*
G01X11875D02*
X15000Y224167D01*
X18125Y214167D01*
G01X17000Y217667D02*
X13000D01*
G01X25000Y224167D02*
Y214167D01*
G01X22125Y224167D02*
X27875D01*
G01X37500Y214167D02*
X32500D01*
Y224167D01*
X37500D01*
G01X35500Y219334D02*
X32500D01*
G01X45000Y213833D02*
X44750Y214000D01*
Y214333D01*
X45000Y214500D01*
X45250Y214333D01*
Y214000D01*
X45000Y213833D01*
G01Y218333D02*
X44750Y218500D01*
Y218833D01*
X45000Y219000D01*
X45250Y218833D01*
Y218500D01*
X45000Y218333D01*
G01X55000Y224167D02*
X54000Y223833D01*
X53250Y223000D01*
X52750Y222000D01*
X52375Y220666D01*
X52250Y219166D01*
X52375Y217667D01*
X52750Y216333D01*
X53250Y215333D01*
X54000Y214500D01*
X55000Y214167D01*
X56000Y214500D01*
X56750Y215333D01*
X57250Y216333D01*
X57625Y217667D01*
X57750Y219166D01*
X57625Y220666D01*
X57250Y222000D01*
X56750Y223000D01*
X56000Y223833D01*
X55000Y224167D01*
G01X62250Y216167D02*
X63000Y215000D01*
X64000Y214333D01*
X65125Y214167D01*
X66125Y214333D01*
X67125Y215166D01*
X67750Y216167D01*
X67875Y217167D01*
X67625Y218333D01*
X66750Y219166D01*
X65875Y219500D01*
X64750D01*
G01X65875D02*
X66625Y220000D01*
X67250Y220833D01*
X67500Y221833D01*
X67250Y222833D01*
X66625Y223666D01*
X65500Y224167D01*
X64375Y224000D01*
X63250Y223333D01*
G01X72750Y213833D02*
X77250Y224167D01*
G01X85000D02*
X84000Y223833D01*
X83250Y223000D01*
X82750Y222000D01*
X82375Y220666D01*
X82250Y219166D01*
X82375Y217667D01*
X82750Y216333D01*
X83250Y215333D01*
X84000Y214500D01*
X85000Y214167D01*
X86000Y214500D01*
X86750Y215333D01*
X87250Y216333D01*
X87625Y217667D01*
X87750Y219166D01*
X87625Y220666D01*
X87250Y222000D01*
X86750Y223000D01*
X86000Y223833D01*
X85000Y224167D01*
G01X95000Y214167D02*
X95875Y214333D01*
X96875Y214833D01*
X97500Y215666D01*
X97750Y216833D01*
X97500Y218000D01*
X96750Y219000D01*
X95625Y219500D01*
X94375D01*
X93625Y219833D01*
X93000Y220666D01*
X92750Y221833D01*
X93125Y223000D01*
X94000Y223833D01*
X95000Y224167D01*
X96000Y223833D01*
X96875Y223000D01*
X97250Y221833D01*
X97000Y220666D01*
X96375Y219833D01*
X95625Y219500D01*
X94375D01*
X93250Y219000D01*
X92500Y218000D01*
X92250Y216833D01*
X92500Y215666D01*
X93125Y214833D01*
X94125Y214333D01*
X95000Y214167D01*
G01X102750Y213833D02*
X107250Y224167D01*
G01X112625Y222500D02*
X113375Y223500D01*
X114250Y224000D01*
X115250Y224167D01*
X116500Y223833D01*
X117375Y223000D01*
X117625Y222000D01*
X117500Y221000D01*
X117000Y220167D01*
X114500Y218500D01*
X113375Y217333D01*
X112625Y215666D01*
X112375Y214167D01*
X117625D01*
G01X125000Y224167D02*
X124000Y223833D01*
X123250Y223000D01*
X122750Y222000D01*
X122375Y220666D01*
X122250Y219166D01*
X122375Y217667D01*
X122750Y216333D01*
X123250Y215333D01*
X124000Y214500D01*
X125000Y214167D01*
X126000Y214500D01*
X126750Y215333D01*
X127250Y216333D01*
X127625Y217667D01*
X127750Y219166D01*
X127625Y220666D01*
X127250Y222000D01*
X126750Y223000D01*
X126000Y223833D01*
X125000Y224167D01*
G01X135000Y214167D02*
Y224167D01*
X133500Y222167D01*
G01Y214167D02*
X136500D01*
G01X142250Y215666D02*
X143000Y214833D01*
X143875Y214333D01*
X145000Y214167D01*
X146125Y214500D01*
X147000Y215166D01*
X147625Y216333D01*
X147750Y217667D01*
X147500Y219000D01*
X146875Y219833D01*
X146000Y220500D01*
X145125Y220666D01*
X144250Y220500D01*
X143125Y219833D01*
X143500Y224167D01*
X146875D01*
G54D21*
X183230Y92115D03*
X183330Y82015D03*
G54D12*
X68032Y22815D03*
X73342D03*
X141975Y96815D03*
X147285D03*
X164331Y22815D03*
X169641D03*
X209785Y67515D03*
X204475D03*
X250630Y22815D03*
X255940D03*
G54D22*
X206360Y61155D03*
X210100D03*
X205448Y102155D03*
X209188D03*
X223388Y105955D03*
X227128D03*
X219648Y102155D03*
X223388D03*
G54D13*
X74414Y29075D03*
Y36555D03*
Y32815D03*
X84650Y36555D03*
Y32815D03*
Y29075D03*
X170713D03*
Y36555D03*
Y32815D03*
X180949Y36555D03*
Y32815D03*
Y29075D03*
X257012D03*
Y36555D03*
Y32815D03*
X267248Y36555D03*
Y32815D03*
Y29075D03*
G54D23*
X211150Y75513D03*
Y92897D03*
Y91316D03*
Y89736D03*
Y88156D03*
Y86575D03*
Y84995D03*
Y83415D03*
Y81835D03*
Y80254D03*
Y78674D03*
Y77094D03*
X234970Y75513D03*
Y77094D03*
Y78674D03*
Y80254D03*
Y81835D03*
Y83415D03*
Y84995D03*
Y86575D03*
Y88156D03*
Y89736D03*
Y91316D03*
Y92897D03*
G54D14*
X67982Y31811D03*
Y27875D03*
X69582Y42847D03*
Y46783D03*
X74464Y42847D03*
Y46783D03*
X153080Y93347D03*
Y97283D03*
X164281Y31811D03*
Y27875D03*
X170763Y42847D03*
Y46783D03*
X165881Y42847D03*
Y46783D03*
X242180Y67647D03*
Y71583D03*
X241680Y92897D03*
Y96833D03*
X250580Y31811D03*
Y27875D03*
X252180Y42847D03*
Y46783D03*
X257062Y42847D03*
Y46783D03*
X249680Y69583D03*
Y65647D03*
G54D15*
X74414Y51815D03*
X70478D03*
X142162Y91815D03*
X146098D03*
X170713Y51815D03*
X166777D03*
X194692Y81385D03*
X193108Y98385D03*
X198628Y81385D03*
X197044Y98385D03*
X206798Y98315D03*
X202862D03*
X212452Y102155D03*
X201054D03*
X197118D03*
X201054Y105155D03*
X197118D03*
X231148Y102655D03*
X216388Y102155D03*
X231148Y105955D03*
X233762Y68315D03*
X237698D03*
X235084Y102655D03*
Y105955D03*
X257012Y51815D03*
X253076D03*
G54D24*
X215949Y66475D03*
Y61155D03*
G54D25*
X214368Y72295D03*
X215949D03*
X217529D03*
X219109D03*
X220690D03*
X222270D03*
X223850D03*
X225430D03*
X227011D03*
X228591D03*
X230171D03*
Y96115D03*
X228591D03*
X227011D03*
X225430D03*
X223850D03*
X222270D03*
X220690D03*
X219109D03*
X217529D03*
X215949D03*
X214368D03*
X231752Y72295D03*
Y96115D03*
G54D16*
X90032Y32815D03*
Y36751D03*
X186331Y32815D03*
Y36751D03*
X200430Y63847D03*
Y67783D03*
X203368Y86361D03*
Y82425D03*
X212448Y105285D03*
Y109221D03*
X272630Y32815D03*
Y36751D03*
X272830Y67690D03*
Y71626D03*
X269230Y67690D03*
Y71626D03*
G54D17*
X88586Y42365D03*
X84650D03*
X180949Y42265D03*
X184885D03*
X185598Y70365D03*
X181662D03*
X185598Y74865D03*
X181662D03*
X243198Y58065D03*
X239262D03*
X243098Y62365D03*
X239162D03*
X245062Y77465D03*
X248998D03*
X271184Y42365D03*
X267248D03*
G54D26*
X223060Y84205D03*
G54D27*
X249752Y84515D03*
Y89515D03*
Y94515D03*
Y99515D03*
Y104515D03*
X265108Y84515D03*
Y89515D03*
Y94515D03*
Y104515D03*
G54D18*
X160173Y109185D03*
X153087D03*
Y105445D03*
X160173D03*
G54D19*
X173961Y76555D03*
X165299Y72815D03*
X173961Y69075D03*
Y92555D03*
X165299Y88815D03*
X173961Y85075D03*
G54D28*
X254693Y73004D03*
Y74382D03*
Y71626D03*
Y70248D03*
X264567D03*
Y71626D03*
Y73004D03*
Y74382D03*
G54D29*
X259630Y77252D03*
X261008D03*
X258252D03*
X259630Y67378D03*
X261008D03*
X258252D03*
M02*
