G04 ================== begin FILE IDENTIFICATION RECORD ==================*
G04 Layout Name:  Touch_Board_03AUG15_1930.brd*
G04 Film Name:    SST*
G04 File Format:  Gerber RS274X*
G04 File Origin:  Cadence Allegro 16.6-P004*
G04 Origin Date:  Mon Aug 03 19:44:12 2015*
G04 *
G04 Layer:  BOARD GEOMETRY/SILKSCREEN_TOP*
G04 Layer:  DRAWING FORMAT/SILK_T*
G04 Layer:  DRAWING FORMAT/FILM_LABEL_OUTLINE*
G04 Layer:  BOARD GEOMETRY/SOLDERMASK_TOP*
G04 Layer:  REF DES/SILKSCREEN_TOP*
G04 Layer:  PACKAGE GEOMETRY/SILKSCREEN_TOP*
G04 Layer:  MANUFACTURING/AUTOSILK_TOP*
G04 Layer:  BOARD GEOMETRY/OUTLINE*
G04 *
G04 Offset:    (0.000 0.000)*
G04 Mirror:    No*
G04 Mode:      Positive*
G04 Rotation:  0*
G04 FullContactRelief:  No*
G04 UndefLineWidth:     6.000*
G04 ================== end FILE IDENTIFICATION RECORD ====================*
%FSLAX25Y25*MOIN*%
%IR0*IPPOS*OFA0.00000B0.00000*MIA0B0*SFA1.00000B1.00000*%
%ADD10C,.006*%
%ADD11C,.003941*%
%ADD12C,.005909*%
%ADD13C,.007988*%
G75*
%LPD*%
G75*
G54D10*
G01X63811Y53811D02*
X19811D01*
Y9811D01*
X63811D01*
Y53811D01*
G01X3858Y105441D02*
Y107441D01*
X23858D01*
Y87441D01*
X3858D01*
Y105441D01*
G01X68987Y24765D02*
X65987D01*
Y20865D01*
X69087D01*
G01X72287Y24765D02*
X75287D01*
Y20865D01*
X72287D01*
G01X71010Y35815D02*
G03I-880J0D01*
G01X66332Y28543D02*
Y26143D01*
X69632D01*
Y28643D01*
G01Y31143D02*
Y33543D01*
X66332D01*
Y31043D01*
G01X76114Y46115D02*
Y48515D01*
X72814D01*
Y46015D01*
G01Y43515D02*
Y41115D01*
X76114D01*
Y43615D01*
G01X71232Y46115D02*
Y48515D01*
X67932D01*
Y46015D01*
G01Y43515D02*
Y41115D01*
X71232D01*
Y43615D01*
G01X71346Y53195D02*
X68866D01*
Y50435D01*
X71346D01*
G01X81205Y38524D02*
Y27106D01*
X77859D01*
Y36949D01*
X79434Y38524D01*
X81205D01*
G01X85318Y44015D02*
X82918D01*
Y40715D01*
X85418D01*
G01X87918D02*
X90318D01*
Y44015D01*
X87818D01*
G01X91412Y35883D02*
Y38363D01*
X88652D01*
Y35883D01*
G01Y33683D02*
Y31203D01*
X91412D01*
Y33683D01*
G01X73546Y50435D02*
X76026D01*
Y53195D01*
X73546D01*
G01X160110Y53811D02*
X116110D01*
Y9811D01*
X160110D01*
Y53811D01*
G01X119392Y105441D02*
Y107441D01*
X139392D01*
Y87441D01*
X119392D01*
Y105441D01*
G01X143030Y93195D02*
X140550D01*
Y90435D01*
X143030D01*
G01X142930Y98765D02*
X139930D01*
Y94865D01*
X143030D01*
G01X151430Y94015D02*
Y91615D01*
X154730D01*
Y94115D01*
G01X145230Y90435D02*
X147710D01*
Y93195D01*
X145230D01*
G01X146230Y98765D02*
X149230D01*
Y94865D01*
X146230D01*
G01X154730Y96615D02*
Y99015D01*
X151430D01*
Y96515D01*
G01X149543Y103181D02*
X163717D01*
Y111449D01*
X149543D01*
Y103575D01*
G01X158599Y102409D02*
Y100441D01*
X162536D01*
G01X158599D02*
Y98472D01*
G01X152693Y100441D02*
X156630D01*
Y102409D01*
X158599Y100441D01*
X156630Y98472D01*
Y100441D01*
G01X152693Y115189D02*
X156630D01*
Y117158D01*
X158599Y115189D01*
X156630Y113221D01*
Y115189D01*
G01X158599D02*
Y113221D01*
G01Y117158D02*
Y115189D01*
X162536D01*
G01X165286Y24765D02*
X162286D01*
Y20865D01*
X165386D01*
G01X168586Y24765D02*
X171586D01*
Y20865D01*
X168586D01*
G01X167010Y35815D02*
G03I-880J0D01*
G01X177504Y38524D02*
Y27106D01*
X174158D01*
Y36949D01*
X175733Y38524D01*
X177504D01*
G01X162631Y28543D02*
Y26143D01*
X165931D01*
Y28643D01*
G01Y31143D02*
Y33543D01*
X162631D01*
Y31043D01*
G01X172413Y46115D02*
Y48515D01*
X169113D01*
Y46015D01*
G01Y43515D02*
Y41115D01*
X172413D01*
Y43615D01*
G01X167531Y46115D02*
Y48515D01*
X164231D01*
Y46015D01*
G01Y43515D02*
Y41115D01*
X167531D01*
Y43615D01*
G01X167645Y53195D02*
X165165D01*
Y50435D01*
X167645D01*
G01X169845D02*
X172325D01*
Y53195D01*
X169845D01*
G01X184217Y40615D02*
X186617D01*
Y43915D01*
X184117D01*
G01X181617D02*
X179217D01*
Y40615D01*
X181717D01*
G01X187711Y35883D02*
Y38363D01*
X184951D01*
Y35883D01*
G01Y33683D02*
Y31203D01*
X187711D01*
Y33683D01*
G01X203130Y70315D02*
X196130D01*
Y71315D01*
X195130Y70315D01*
X196130Y69315D01*
Y70315D01*
X195130D01*
G01X191130Y76315D02*
Y69315D01*
X190130D01*
X191130Y68315D01*
X192130Y69315D01*
X191130D01*
Y68315D01*
G01X182330Y72015D02*
X179930D01*
Y68715D01*
X182430D01*
G01X184930D02*
X187330D01*
Y72015D01*
X184830D01*
G01X182330Y76515D02*
X179930D01*
Y73215D01*
X182430D01*
G01X184930D02*
X187330D01*
Y76515D01*
X184830D01*
G01X195560Y82765D02*
X193080D01*
Y80005D01*
X195560D01*
G01X190664Y84249D02*
Y95549D01*
G01X187230Y96615D02*
X179230D01*
Y87615D01*
X187230D01*
Y96615D01*
G01X187330Y86515D02*
X179330D01*
Y77515D01*
X187330D01*
Y86515D01*
G01X191130Y114315D02*
Y107315D01*
X190130D01*
X191130Y106315D01*
X192130Y107315D01*
X191130D01*
Y106315D01*
G01X193976Y99765D02*
X191496D01*
Y97005D01*
X193976D01*
G01X202409Y9811D02*
X246409D01*
Y53811D01*
X202409D01*
Y9811D01*
G01X208830Y65565D02*
X211830D01*
Y69465D01*
X208730D01*
G01X205530Y65565D02*
X202530D01*
Y69465D01*
X205530D01*
G01X201810Y66915D02*
Y69395D01*
X199050D01*
Y66915D01*
G01Y64715D02*
Y62235D01*
X201810D01*
Y64715D01*
G01X207230Y62535D02*
X204693D01*
G01X209230Y59775D02*
X211767D01*
Y62535D01*
X209230D01*
G01X204693D02*
Y59775D01*
X207230D01*
G01X211249Y74363D02*
X213218Y72394D01*
G01X197760Y80005D02*
X200240D01*
Y82765D01*
X197760D01*
G01X201988Y83293D02*
Y80813D01*
X204748D01*
Y83293D01*
G01Y85493D02*
Y87973D01*
X201988D01*
Y85493D01*
G01X201084Y84209D02*
Y95508D01*
G01X196176Y97005D02*
X198656D01*
Y99765D01*
X196176D01*
G01X203730Y99695D02*
X201250D01*
Y96935D01*
X203730D01*
G01X205930D02*
X208410D01*
Y99695D01*
X205930D01*
G01X213320Y103535D02*
X210840D01*
Y100775D01*
X213320D01*
G01X213828Y108353D02*
Y110833D01*
X211068D01*
Y108353D01*
G01Y106153D02*
Y103673D01*
X213828D01*
Y106153D01*
G01X197986Y103535D02*
X195506D01*
Y100775D01*
X197986D01*
G01X200186D02*
X202666D01*
Y103535D01*
X200186D01*
G01X197986Y106535D02*
X195506D01*
Y103775D01*
X197986D01*
G01X200186D02*
X202666D01*
Y106535D01*
X200186D01*
G01X206318Y103535D02*
X203781D01*
G01X208318Y100775D02*
X210855D01*
Y103535D01*
X208318D01*
G01X203781D02*
Y100775D01*
X206318D01*
G01X212824Y96212D02*
X211447D01*
Y94639D01*
G01X213193Y59484D02*
Y68146D01*
G01X218705D02*
Y59484D01*
G01X232016Y104035D02*
X229536D01*
Y101275D01*
X232016D01*
G01X215520Y100775D02*
X218000D01*
Y103535D01*
X215520D01*
G01X232016Y107335D02*
X229536D01*
Y104575D01*
X232016D01*
G01X224258Y107335D02*
X221721D01*
G01X226258Y104575D02*
X228795D01*
Y107335D01*
X226258D01*
G01X221721D02*
Y104575D01*
X224258D01*
G01X220518Y103535D02*
X217981D01*
G01X222518Y100775D02*
X225055D01*
Y103535D01*
X222518D01*
G01X217981D02*
Y100775D01*
X220518D01*
G01X239930Y59715D02*
X237530D01*
Y56415D01*
X240030D01*
G01X242530D02*
X244930D01*
Y59715D01*
X242430D01*
G01X239830Y64015D02*
X237430D01*
Y60715D01*
X239930D01*
G01X242430D02*
X244830D01*
Y64015D01*
X242330D01*
G01X243830Y70915D02*
Y73315D01*
X240530D01*
Y70815D01*
G01Y68315D02*
Y65915D01*
X243830D01*
Y68415D01*
G01X236830Y66935D02*
X239310D01*
Y69695D01*
X236830D01*
G01X234630D02*
X232150D01*
Y66935D01*
X234630D01*
G01X235067Y73969D02*
Y72592D01*
X233296D01*
G01X240030Y93565D02*
Y91165D01*
X243330D01*
Y93665D01*
G01X245730Y79115D02*
X243330D01*
Y75815D01*
X245830D01*
G01X245817Y82015D02*
X270530Y81915D01*
Y107015D01*
X244430Y106915D01*
Y82015D01*
X245817D01*
G01X243330Y96165D02*
Y98565D01*
X240030D01*
Y96065D01*
G01X234216Y101275D02*
X236696D01*
Y104035D01*
X234216D01*
G01Y104575D02*
X236696D01*
Y107335D01*
X234216D01*
G01X235067Y94835D02*
Y96212D01*
X233296D01*
G01X259130Y25815D02*
Y18815D01*
X258130D01*
X259130Y17815D01*
X260130Y18815D01*
X259130D01*
Y17815D01*
G01X251585Y24765D02*
X248585D01*
Y20865D01*
X251685D01*
G01X254885Y24765D02*
X257885D01*
Y20865D01*
X254885D01*
G01X253561Y36752D02*
G03I-880J0D01*
G01X263803Y38524D02*
Y27106D01*
X260457D01*
Y36949D01*
X262032Y38524D01*
X263803D01*
G01X248930Y28543D02*
Y26143D01*
X252230D01*
Y28643D01*
G01Y31143D02*
Y33543D01*
X248930D01*
Y31043D01*
G01X253830Y46115D02*
Y48515D01*
X250530D01*
Y46015D01*
G01Y43515D02*
Y41115D01*
X253830D01*
Y43615D01*
G01X258712Y46115D02*
Y48515D01*
X255412D01*
Y46015D01*
G01Y43515D02*
Y41115D01*
X258712D01*
Y43615D01*
G01X253944Y53195D02*
X251464D01*
Y50435D01*
X253944D01*
G01X256144D02*
X258624D01*
Y53195D01*
X256144D01*
G01X248030Y66315D02*
Y63915D01*
X251330D01*
Y66415D01*
G01Y68915D02*
Y71315D01*
X248030D01*
Y68815D01*
G01X253134Y69315D02*
Y65819D01*
X257130D01*
G01X262130D02*
X266126D01*
Y69315D01*
G01X257130Y78811D02*
X255634D01*
X253134Y76311D01*
Y75315D01*
G01X248330Y75815D02*
X250730D01*
Y79115D01*
X248230D01*
G01X254114Y80299D02*
X251162D01*
X253129Y78330D01*
X255099Y80299D01*
X254114D01*
G01X266126Y78811D02*
X262130D01*
G01X267916Y44015D02*
X265516D01*
Y40715D01*
X268016D01*
G01X270516D02*
X272916D01*
Y44015D01*
X270416D01*
G01X274010Y35883D02*
Y38363D01*
X271250D01*
Y35883D01*
G01Y33683D02*
Y31203D01*
X274010D01*
Y33683D01*
G01X274210Y70758D02*
Y73238D01*
X271450D01*
Y70758D01*
G01Y68558D02*
Y66078D01*
X274210D01*
Y68558D01*
G01X270610Y70758D02*
Y73238D01*
X267850D01*
Y70758D01*
G01Y68558D02*
Y66078D01*
X270610D01*
Y68558D01*
G01X266126Y75315D02*
Y78811D01*
G01X0Y0D02*
X275590D01*
Y137795D01*
X109747D01*
X109747Y97441D01*
G02X29038I-40354J0D01*
G01Y137795D01*
X0Y137795D01*
Y0D01*
G01X1005Y176315D02*
X2005Y175482D01*
X3130Y174982D01*
X4130D01*
X5130Y175482D01*
X5880Y176315D01*
X6255Y177482D01*
X6005Y178648D01*
X5380Y179648D01*
X4255Y180315D01*
X2755Y180648D01*
X1880Y181315D01*
X1505Y182482D01*
X1755Y183648D01*
X2380Y184482D01*
X3255Y184982D01*
X4130D01*
X5005Y184648D01*
X5755Y183815D01*
G01X12130Y184982D02*
X15130D01*
G01X13630D02*
Y174982D01*
G01X12130D02*
X15130D01*
G01X21130Y184982D02*
Y174982D01*
X26130D01*
G01X30880D02*
Y184982D01*
G01X35630D02*
X30880Y178815D01*
G01X36380Y174982D02*
X33005Y181648D01*
G01X39880Y171648D02*
X47380D01*
G01X53630Y184982D02*
Y174982D01*
G01X50755Y184982D02*
X56505D01*
G01X63630Y174982D02*
X62630Y175148D01*
X61755Y175815D01*
X61005Y176815D01*
X60505Y177982D01*
X60255Y179315D01*
Y180648D01*
X60505Y181982D01*
X61005Y183148D01*
X61755Y184148D01*
X62630Y184815D01*
X63630Y184982D01*
X64630Y184815D01*
X65505Y184148D01*
X66255Y183148D01*
X66755Y181982D01*
X67005Y180648D01*
Y179315D01*
X66755Y177982D01*
X66255Y176815D01*
X65505Y175815D01*
X64630Y175148D01*
X63630Y174982D01*
G01X71130D02*
Y184982D01*
X74130D01*
X75130Y184482D01*
X75880Y183315D01*
X76130Y181982D01*
X75880Y180648D01*
X75255Y179648D01*
X74130Y179148D01*
X71130D01*
G01X1375Y196500D02*
X2375Y195667D01*
X3500Y195167D01*
X4500D01*
X5500Y195667D01*
X6250Y196500D01*
X6625Y197667D01*
X6375Y198833D01*
X5750Y199833D01*
X4625Y200500D01*
X3125Y200833D01*
X2250Y201500D01*
X1875Y202667D01*
X2125Y203833D01*
X2750Y204666D01*
X3625Y205167D01*
X4500D01*
X5375Y204833D01*
X6125Y204000D01*
G01X16500Y195167D02*
X11500D01*
Y205167D01*
X16500D01*
G01X14500Y200334D02*
X11500D01*
G01X21125Y195167D02*
Y205167D01*
X26875Y195167D01*
Y205167D01*
G01X31375Y196500D02*
X32375Y195667D01*
X33500Y195167D01*
X34500D01*
X35500Y195667D01*
X36250Y196500D01*
X36625Y197667D01*
X36375Y198833D01*
X35750Y199833D01*
X34625Y200500D01*
X33125Y200833D01*
X32250Y201500D01*
X31875Y202667D01*
X32125Y203833D01*
X32750Y204666D01*
X33625Y205167D01*
X34500D01*
X35375Y204833D01*
X36125Y204000D01*
G01X46500Y195167D02*
X41500D01*
Y205167D01*
X46500D01*
G01X44500Y200334D02*
X41500D01*
G01X50250Y191834D02*
X57750D01*
G01X64000Y205167D02*
Y195167D01*
G01X61125Y205167D02*
X66875D01*
G01X74000Y195167D02*
X73000Y195333D01*
X72125Y196000D01*
X71375Y197000D01*
X70875Y198167D01*
X70625Y199500D01*
Y200833D01*
X70875Y202167D01*
X71375Y203334D01*
X72125Y204333D01*
X73000Y205000D01*
X74000Y205167D01*
X75000Y205000D01*
X75875Y204333D01*
X76625Y203334D01*
X77125Y202167D01*
X77375Y200833D01*
Y199500D01*
X77125Y198167D01*
X76625Y197000D01*
X75875Y196000D01*
X75000Y195333D01*
X74000Y195167D01*
G01X81250Y205167D02*
Y198000D01*
X81750Y196500D01*
X82750Y195500D01*
X84000Y195167D01*
X85250Y195500D01*
X86250Y196500D01*
X86750Y198000D01*
Y205167D01*
G01X96750Y204333D02*
X96000Y204833D01*
X95125Y205167D01*
X94125D01*
X93000Y204666D01*
X92125Y203833D01*
X91500Y202833D01*
X91000Y201167D01*
X90875Y199667D01*
X91125Y198167D01*
X91500Y197167D01*
X92250Y196166D01*
X93125Y195500D01*
X94000Y195167D01*
X94875D01*
X95750Y195500D01*
X96500Y196000D01*
X97125Y196666D01*
G01X101375Y195167D02*
Y205167D01*
G01X106625D02*
Y195167D01*
G01Y200166D02*
X101375D01*
G01X125000Y200500D02*
X125500Y201000D01*
X125875Y201833D01*
X126125Y203000D01*
X125875Y204000D01*
X125375Y204666D01*
X124500Y205167D01*
X121125D01*
Y195167D01*
X125250D01*
X126125Y195833D01*
X126625Y196833D01*
X126875Y198000D01*
X126625Y199166D01*
X125875Y200166D01*
X125000Y200500D01*
X121125D01*
G01X134000Y195167D02*
X133000Y195333D01*
X132125Y196000D01*
X131375Y197000D01*
X130875Y198167D01*
X130625Y199500D01*
Y200833D01*
X130875Y202167D01*
X131375Y203334D01*
X132125Y204333D01*
X133000Y205000D01*
X134000Y205167D01*
X135000Y205000D01*
X135875Y204333D01*
X136625Y203334D01*
X137125Y202167D01*
X137375Y200833D01*
Y199500D01*
X137125Y198167D01*
X136625Y197000D01*
X135875Y196000D01*
X135000Y195333D01*
X134000Y195167D01*
G01X140875D02*
X144000Y205167D01*
X147125Y195167D01*
G01X146000Y198667D02*
X142000D01*
G01X151500Y195167D02*
Y205167D01*
X154625D01*
X155625Y204666D01*
X156250Y204000D01*
X156500Y202667D01*
X156250Y201333D01*
X155500Y200500D01*
X154625Y200000D01*
X151500D01*
G01X154625D02*
X156500Y195167D01*
G01X161250D02*
Y205167D01*
X163750D01*
X164750Y204666D01*
X165500Y204000D01*
X166125Y203000D01*
X166625Y201833D01*
X166750Y200166D01*
X166625Y198500D01*
X166125Y197333D01*
X165500Y196333D01*
X164750Y195667D01*
X163750Y195167D01*
X161250D01*
G01X2250Y214167D02*
Y224167D01*
X4750D01*
X5750Y223666D01*
X6500Y223000D01*
X7125Y222000D01*
X7625Y220833D01*
X7750Y219166D01*
X7625Y217500D01*
X7125Y216333D01*
X6500Y215333D01*
X5750Y214667D01*
X4750Y214167D01*
X2250D01*
G01X11875D02*
X15000Y224167D01*
X18125Y214167D01*
G01X17000Y217667D02*
X13000D01*
G01X25000Y224167D02*
Y214167D01*
G01X22125Y224167D02*
X27875D01*
G01X37500Y214167D02*
X32500D01*
Y224167D01*
X37500D01*
G01X35500Y219334D02*
X32500D01*
G01X45000Y213833D02*
X44750Y214000D01*
Y214333D01*
X45000Y214500D01*
X45250Y214333D01*
Y214000D01*
X45000Y213833D01*
G01Y218333D02*
X44750Y218500D01*
Y218833D01*
X45000Y219000D01*
X45250Y218833D01*
Y218500D01*
X45000Y218333D01*
G01X55000Y224167D02*
X54000Y223833D01*
X53250Y223000D01*
X52750Y222000D01*
X52375Y220666D01*
X52250Y219166D01*
X52375Y217667D01*
X52750Y216333D01*
X53250Y215333D01*
X54000Y214500D01*
X55000Y214167D01*
X56000Y214500D01*
X56750Y215333D01*
X57250Y216333D01*
X57625Y217667D01*
X57750Y219166D01*
X57625Y220666D01*
X57250Y222000D01*
X56750Y223000D01*
X56000Y223833D01*
X55000Y224167D01*
G01X62250Y216167D02*
X63000Y215000D01*
X64000Y214333D01*
X65125Y214167D01*
X66125Y214333D01*
X67125Y215166D01*
X67750Y216167D01*
X67875Y217167D01*
X67625Y218333D01*
X66750Y219166D01*
X65875Y219500D01*
X64750D01*
G01X65875D02*
X66625Y220000D01*
X67250Y220833D01*
X67500Y221833D01*
X67250Y222833D01*
X66625Y223666D01*
X65500Y224167D01*
X64375Y224000D01*
X63250Y223333D01*
G01X72750Y213833D02*
X77250Y224167D01*
G01X85000D02*
X84000Y223833D01*
X83250Y223000D01*
X82750Y222000D01*
X82375Y220666D01*
X82250Y219166D01*
X82375Y217667D01*
X82750Y216333D01*
X83250Y215333D01*
X84000Y214500D01*
X85000Y214167D01*
X86000Y214500D01*
X86750Y215333D01*
X87250Y216333D01*
X87625Y217667D01*
X87750Y219166D01*
X87625Y220666D01*
X87250Y222000D01*
X86750Y223000D01*
X86000Y223833D01*
X85000Y224167D01*
G01X95000Y214167D02*
X95875Y214333D01*
X96875Y214833D01*
X97500Y215666D01*
X97750Y216833D01*
X97500Y218000D01*
X96750Y219000D01*
X95625Y219500D01*
X94375D01*
X93625Y219833D01*
X93000Y220666D01*
X92750Y221833D01*
X93125Y223000D01*
X94000Y223833D01*
X95000Y224167D01*
X96000Y223833D01*
X96875Y223000D01*
X97250Y221833D01*
X97000Y220666D01*
X96375Y219833D01*
X95625Y219500D01*
X94375D01*
X93250Y219000D01*
X92500Y218000D01*
X92250Y216833D01*
X92500Y215666D01*
X93125Y214833D01*
X94125Y214333D01*
X95000Y214167D01*
G01X102750Y213833D02*
X107250Y224167D01*
G01X112625Y222500D02*
X113375Y223500D01*
X114250Y224000D01*
X115250Y224167D01*
X116500Y223833D01*
X117375Y223000D01*
X117625Y222000D01*
X117500Y221000D01*
X117000Y220167D01*
X114500Y218500D01*
X113375Y217333D01*
X112625Y215666D01*
X112375Y214167D01*
X117625D01*
G01X125000Y224167D02*
X124000Y223833D01*
X123250Y223000D01*
X122750Y222000D01*
X122375Y220666D01*
X122250Y219166D01*
X122375Y217667D01*
X122750Y216333D01*
X123250Y215333D01*
X124000Y214500D01*
X125000Y214167D01*
X126000Y214500D01*
X126750Y215333D01*
X127250Y216333D01*
X127625Y217667D01*
X127750Y219166D01*
X127625Y220666D01*
X127250Y222000D01*
X126750Y223000D01*
X126000Y223833D01*
X125000Y224167D01*
G01X135000Y214167D02*
Y224167D01*
X133500Y222167D01*
G01Y214167D02*
X136500D01*
G01X142250Y215666D02*
X143000Y214833D01*
X143875Y214333D01*
X145000Y214167D01*
X146125Y214500D01*
X147000Y215166D01*
X147625Y216333D01*
X147750Y217667D01*
X147500Y219000D01*
X146875Y219833D01*
X146000Y220500D01*
X145125Y220666D01*
X144250Y220500D01*
X143125Y219833D01*
X143500Y224167D01*
X146875D01*
G54D11*
G01X64901Y37482D02*
Y39982D01*
X65567D01*
X65780Y39857D01*
X65913Y39690D01*
X65967Y39357D01*
X65913Y39023D01*
X65754Y38815D01*
X65567Y38690D01*
X64901D01*
G01X65567D02*
X65967Y37482D01*
G01X67630D02*
Y39982D01*
X67310Y39482D01*
G01Y37482D02*
X67950D01*
G01X69826Y39982D02*
X69613Y39898D01*
X69453Y39690D01*
X69347Y39440D01*
X69267Y39107D01*
X69240Y38732D01*
X69267Y38357D01*
X69347Y38023D01*
X69453Y37773D01*
X69613Y37565D01*
X69826Y37482D01*
X70039Y37565D01*
X70199Y37773D01*
X70305Y38023D01*
X70385Y38357D01*
X70412Y38732D01*
X70385Y39107D01*
X70305Y39440D01*
X70199Y39690D01*
X70039Y39898D01*
X69826Y39982D01*
G01X190871Y79700D02*
Y82200D01*
X189885Y80408D01*
X191217D01*
G01X187965Y95700D02*
X188125Y95408D01*
X188338Y95241D01*
X188578Y95200D01*
X188791Y95241D01*
X189004Y95450D01*
X189137Y95700D01*
X189164Y95950D01*
X189110Y96241D01*
X188924Y96450D01*
X188738Y96533D01*
X188498D01*
G01X188738D02*
X188897Y96658D01*
X189030Y96866D01*
X189084Y97116D01*
X189030Y97366D01*
X188897Y97575D01*
X188658Y97700D01*
X188418Y97658D01*
X188178Y97491D01*
G01X206852Y70982D02*
Y73482D01*
X205866Y71690D01*
X207198D01*
G01X208728Y70982D02*
X208914Y71023D01*
X209128Y71148D01*
X209261Y71357D01*
X209314Y71648D01*
X209261Y71940D01*
X209101Y72190D01*
X208861Y72315D01*
X208595D01*
X208435Y72398D01*
X208302Y72607D01*
X208249Y72898D01*
X208328Y73190D01*
X208515Y73398D01*
X208728Y73482D01*
X208941Y73398D01*
X209128Y73190D01*
X209207Y72898D01*
X209154Y72607D01*
X209021Y72398D01*
X208861Y72315D01*
X208595D01*
X208355Y72190D01*
X208195Y71940D01*
X208142Y71648D01*
X208195Y71357D01*
X208328Y71148D01*
X208542Y71023D01*
X208728Y70982D01*
G01X199417Y78493D02*
X196917D01*
X197417Y78173D01*
G01X199417D02*
Y78812D01*
G01X208463Y92131D02*
X208755Y92291D01*
X208922Y92504D01*
X208963Y92744D01*
X208922Y92957D01*
X208714Y93170D01*
X208463Y93303D01*
X208213Y93330D01*
X207922Y93276D01*
X207713Y93090D01*
X207630Y92903D01*
Y92664D01*
G01Y92903D02*
X207505Y93063D01*
X207297Y93196D01*
X207047Y93250D01*
X206797Y93196D01*
X206588Y93063D01*
X206463Y92824D01*
X206505Y92584D01*
X206672Y92344D01*
G01X208963Y94860D02*
X208422Y94913D01*
X207964Y94993D01*
X207547Y95099D01*
X207088Y95233D01*
X206463Y95446D01*
Y94380D01*
G01X211946Y98482D02*
X212106Y98190D01*
X212319Y98023D01*
X212559Y97982D01*
X212772Y98023D01*
X212985Y98232D01*
X213118Y98482D01*
X213145Y98732D01*
X213091Y99023D01*
X212905Y99232D01*
X212718Y99315D01*
X212479D01*
G01X212718D02*
X212878Y99440D01*
X213011Y99648D01*
X213065Y99898D01*
X213011Y100148D01*
X212878Y100357D01*
X212639Y100482D01*
X212399Y100440D01*
X212159Y100273D01*
G01X214222Y99023D02*
X214408Y99315D01*
X214568Y99482D01*
X214781Y99565D01*
X214968Y99482D01*
X215101Y99315D01*
X215207Y99065D01*
X215234Y98773D01*
X215207Y98523D01*
X215101Y98273D01*
X214941Y98065D01*
X214755Y97982D01*
X214542Y98065D01*
X214355Y98315D01*
X214249Y98690D01*
X214222Y99107D01*
X214275Y99648D01*
X214355Y99940D01*
X214488Y100232D01*
X214675Y100440D01*
X214861Y100482D01*
X215048Y100398D01*
X215181Y100190D01*
G01X216745Y69236D02*
X214245D01*
X214745Y68916D01*
G01X216745D02*
Y69556D01*
G01X228532Y67482D02*
Y69982D01*
X228212Y69482D01*
G01Y67482D02*
X228852D01*
G01X230222Y69565D02*
X230382Y69815D01*
X230568Y69940D01*
X230781Y69982D01*
X231048Y69898D01*
X231234Y69690D01*
X231287Y69440D01*
X231261Y69190D01*
X231154Y68982D01*
X230622Y68565D01*
X230382Y68273D01*
X230222Y67857D01*
X230169Y67482D01*
X231287D01*
G01X245999Y56482D02*
Y58982D01*
X246665D01*
X246878Y58857D01*
X247011Y58690D01*
X247065Y58357D01*
X247011Y58023D01*
X246852Y57815D01*
X246665Y57690D01*
X245999D01*
G01X246665D02*
X247065Y56482D01*
G01X248275Y56773D02*
X248462Y56565D01*
X248675Y56482D01*
X248888Y56565D01*
X249074Y56815D01*
X249207Y57190D01*
X249261Y57565D01*
Y58023D01*
X249207Y58398D01*
X249074Y58732D01*
X248914Y58898D01*
X248728Y58982D01*
X248515Y58898D01*
X248355Y58732D01*
X248249Y58482D01*
X248195Y58148D01*
X248249Y57857D01*
X248382Y57565D01*
X248542Y57398D01*
X248728Y57357D01*
X248941Y57440D01*
X249101Y57648D01*
X249261Y58023D01*
G01X245999Y60482D02*
Y62982D01*
X246665D01*
X246878Y62857D01*
X247011Y62690D01*
X247065Y62357D01*
X247011Y62023D01*
X246852Y61815D01*
X246665Y61690D01*
X245999D01*
G01X246665D02*
X247065Y60482D01*
G01X248728D02*
X248914Y60523D01*
X249128Y60648D01*
X249261Y60857D01*
X249314Y61148D01*
X249261Y61440D01*
X249101Y61690D01*
X248861Y61815D01*
X248595D01*
X248435Y61898D01*
X248302Y62107D01*
X248249Y62398D01*
X248328Y62690D01*
X248515Y62898D01*
X248728Y62982D01*
X248941Y62898D01*
X249128Y62690D01*
X249207Y62398D01*
X249154Y62107D01*
X249021Y61898D01*
X248861Y61815D01*
X248595D01*
X248355Y61690D01*
X248195Y61440D01*
X248142Y61148D01*
X248195Y60857D01*
X248328Y60648D01*
X248542Y60523D01*
X248728Y60482D01*
G01X247499Y72482D02*
Y74982D01*
X248165D01*
X248378Y74857D01*
X248511Y74690D01*
X248565Y74357D01*
X248511Y74023D01*
X248352Y73815D01*
X248165Y73690D01*
X247499D01*
G01X248165D02*
X248565Y72482D01*
G01X250175D02*
X250228Y73023D01*
X250308Y73482D01*
X250414Y73898D01*
X250548Y74357D01*
X250761Y74982D01*
X249695D01*
G01X246963Y68684D02*
X244463D01*
Y69350D01*
X244588Y69563D01*
X244755Y69696D01*
X245088Y69750D01*
X245422Y69696D01*
X245630Y69537D01*
X245755Y69350D01*
Y68684D01*
G01Y69350D02*
X246963Y69750D01*
G01X245922Y70907D02*
X245630Y71093D01*
X245463Y71253D01*
X245380Y71466D01*
X245463Y71653D01*
X245630Y71786D01*
X245880Y71892D01*
X246172Y71919D01*
X246422Y71892D01*
X246672Y71786D01*
X246880Y71626D01*
X246963Y71440D01*
X246880Y71227D01*
X246630Y71040D01*
X246255Y70934D01*
X245838Y70907D01*
X245297Y70960D01*
X245005Y71040D01*
X244713Y71173D01*
X244505Y71360D01*
X244463Y71546D01*
X244547Y71733D01*
X244755Y71866D01*
G01X231526Y100065D02*
X231686Y100315D01*
X231872Y100440D01*
X232085Y100482D01*
X232352Y100398D01*
X232538Y100190D01*
X232591Y99940D01*
X232565Y99690D01*
X232458Y99482D01*
X231926Y99065D01*
X231686Y98773D01*
X231526Y98357D01*
X231473Y97982D01*
X232591D01*
G01X233642Y98357D02*
X233802Y98148D01*
X233988Y98023D01*
X234228Y97982D01*
X234468Y98065D01*
X234654Y98232D01*
X234787Y98523D01*
X234814Y98857D01*
X234761Y99190D01*
X234628Y99398D01*
X234441Y99565D01*
X234255Y99607D01*
X234068Y99565D01*
X233828Y99398D01*
X233908Y100482D01*
X234628D01*
G01X245774Y111700D02*
Y114200D01*
X245454Y113700D01*
G01Y111700D02*
X246093D01*
G01X247970Y114200D02*
X247757Y114116D01*
X247597Y113908D01*
X247490Y113658D01*
X247410Y113325D01*
X247384Y112950D01*
X247410Y112575D01*
X247490Y112241D01*
X247597Y111991D01*
X247757Y111783D01*
X247970Y111700D01*
X248183Y111783D01*
X248343Y111991D01*
X248449Y112241D01*
X248529Y112575D01*
X248556Y112950D01*
X248529Y113325D01*
X248449Y113658D01*
X248343Y113908D01*
X248183Y114116D01*
X247970Y114200D01*
G01X252020Y60273D02*
X251860Y60398D01*
X251674Y60482D01*
X251461D01*
X251221Y60357D01*
X251034Y60148D01*
X250901Y59898D01*
X250795Y59482D01*
X250768Y59107D01*
X250821Y58732D01*
X250901Y58482D01*
X251061Y58232D01*
X251248Y58065D01*
X251434Y57982D01*
X251620D01*
X251807Y58065D01*
X251967Y58190D01*
X252100Y58357D01*
G01X253124Y60065D02*
X253284Y60315D01*
X253470Y60440D01*
X253683Y60482D01*
X253950Y60398D01*
X254136Y60190D01*
X254189Y59940D01*
X254163Y59690D01*
X254056Y59482D01*
X253524Y59065D01*
X253284Y58773D01*
X253124Y58357D01*
X253071Y57982D01*
X254189D01*
G01X255826Y60482D02*
X255613Y60398D01*
X255453Y60190D01*
X255347Y59940D01*
X255267Y59607D01*
X255240Y59232D01*
X255267Y58857D01*
X255347Y58523D01*
X255453Y58273D01*
X255613Y58065D01*
X255826Y57982D01*
X256039Y58065D01*
X256199Y58273D01*
X256305Y58523D01*
X256385Y58857D01*
X256412Y59232D01*
X256385Y59607D01*
X256305Y59940D01*
X256199Y60190D01*
X256039Y60398D01*
X255826Y60482D01*
G01X256044Y61857D02*
X256204Y61648D01*
X256390Y61523D01*
X256630Y61482D01*
X256870Y61565D01*
X257056Y61732D01*
X257189Y62023D01*
X257216Y62357D01*
X257163Y62690D01*
X257030Y62898D01*
X256843Y63065D01*
X256657Y63107D01*
X256470Y63065D01*
X256230Y62898D01*
X256310Y63982D01*
X257030D01*
G01X264598Y111491D02*
X264785Y111283D01*
X264998Y111200D01*
X265211Y111283D01*
X265397Y111533D01*
X265530Y111908D01*
X265584Y112283D01*
Y112741D01*
X265530Y113116D01*
X265397Y113450D01*
X265238Y113616D01*
X265051Y113700D01*
X264838Y113616D01*
X264678Y113450D01*
X264572Y113200D01*
X264518Y112866D01*
X264572Y112575D01*
X264705Y112283D01*
X264865Y112116D01*
X265051Y112075D01*
X265264Y112158D01*
X265424Y112366D01*
X265584Y112741D01*
G01X273051Y82700D02*
Y85200D01*
X272732Y84700D01*
G01Y82700D02*
X273371D01*
G01X269032Y76982D02*
Y79482D01*
X268712Y78982D01*
G01Y76982D02*
X269352D01*
G01X271228D02*
Y79482D01*
X270908Y78982D01*
G01Y76982D02*
X271548D01*
G54D12*
G01X8981Y82169D02*
X9164Y82336D01*
X9302Y82615D01*
X9394Y83006D01*
X9302Y83340D01*
X9118Y83563D01*
X8797Y83731D01*
X7557D01*
Y80385D01*
X9073D01*
X9394Y80608D01*
X9578Y80942D01*
X9670Y81333D01*
X9578Y81723D01*
X9302Y82058D01*
X8981Y82169D01*
X7557D01*
G01X11020Y80385D02*
X12168Y83731D01*
X13316Y80385D01*
G01X12903Y81556D02*
X11433D01*
G01X15723Y83731D02*
Y80385D01*
G01X14666Y83731D02*
X16779D01*
G01X19277D02*
Y80385D01*
G01X18221Y83731D02*
X20334D01*
G01X21913Y80385D02*
Y83731D01*
X23062D01*
X23429Y83563D01*
X23659Y83340D01*
X23751Y82894D01*
X23659Y82448D01*
X23383Y82169D01*
X23062Y82002D01*
X21913D01*
G01X23062D02*
X23751Y80385D01*
G01X26387D02*
Y81890D01*
X25468Y83731D01*
G01X27305D02*
X26387Y81890D01*
G01X8297Y113231D02*
X9445Y109885D01*
X10594Y113231D01*
G01X14010Y112952D02*
X13735Y113119D01*
X13414Y113231D01*
X13046D01*
X12632Y113063D01*
X12311Y112784D01*
X12081Y112450D01*
X11898Y111892D01*
X11852Y111390D01*
X11944Y110888D01*
X12081Y110554D01*
X12357Y110219D01*
X12679Y109996D01*
X13000Y109885D01*
X13322D01*
X13643Y109996D01*
X13919Y110163D01*
X14148Y110386D01*
G01X17565Y112952D02*
X17290Y113119D01*
X16968Y113231D01*
X16601D01*
X16187Y113063D01*
X15866Y112784D01*
X15636Y112450D01*
X15452Y111892D01*
X15406Y111390D01*
X15498Y110888D01*
X15636Y110554D01*
X15912Y110219D01*
X16233Y109996D01*
X16555Y109885D01*
X16876D01*
X17198Y109996D01*
X17473Y110163D01*
X17703Y110386D01*
G01X10804Y117554D02*
X11034Y117219D01*
X11309Y116996D01*
X11631Y116885D01*
X11998Y116996D01*
X12274Y117219D01*
X12550Y117554D01*
X12641Y118000D01*
Y120231D01*
G01X15277Y116885D02*
Y120231D01*
X14726Y119562D01*
G01Y116885D02*
X15828D01*
G01X38842Y6546D02*
Y4148D01*
X39026Y3646D01*
X39393Y3311D01*
X39853Y3200D01*
X40312Y3311D01*
X40680Y3646D01*
X40863Y4148D01*
Y6546D01*
G01X43315Y3200D02*
X43407Y3924D01*
X43545Y4538D01*
X43729Y5096D01*
X43958Y5709D01*
X44326Y6546D01*
X42489D01*
G01X67586Y12767D02*
X67310Y12934D01*
X66989Y13046D01*
X66621D01*
X66208Y12878D01*
X65886Y12600D01*
X65657Y12265D01*
X65473Y11707D01*
X65427Y11205D01*
X65519Y10703D01*
X65657Y10369D01*
X65932Y10034D01*
X66254Y9811D01*
X66575Y9700D01*
X66897D01*
X67218Y9811D01*
X67494Y9978D01*
X67724Y10201D01*
G01X69257Y12488D02*
X69533Y12823D01*
X69854Y12990D01*
X70222Y13046D01*
X70681Y12934D01*
X71003Y12655D01*
X71095Y12321D01*
X71049Y11986D01*
X70865Y11707D01*
X69946Y11150D01*
X69533Y10759D01*
X69257Y10201D01*
X69166Y9700D01*
X71095D01*
G01X74236D02*
Y13046D01*
X72536Y10648D01*
X74833D01*
G01X66157Y14700D02*
Y18046D01*
X67305D01*
X67672Y17878D01*
X67902Y17655D01*
X67994Y17209D01*
X67902Y16763D01*
X67626Y16484D01*
X67305Y16317D01*
X66157D01*
G01X67305D02*
X67994Y14700D01*
G01X70630D02*
Y18046D01*
X70079Y17376D01*
G01Y14700D02*
X71181D01*
G01X73404Y15090D02*
X73725Y14811D01*
X74093Y14700D01*
X74460Y14811D01*
X74782Y15146D01*
X75012Y15648D01*
X75103Y16150D01*
Y16763D01*
X75012Y17265D01*
X74782Y17711D01*
X74506Y17934D01*
X74185Y18046D01*
X73817Y17934D01*
X73542Y17711D01*
X73358Y17376D01*
X73266Y16930D01*
X73358Y16540D01*
X73588Y16150D01*
X73863Y15926D01*
X74185Y15871D01*
X74552Y15982D01*
X74828Y16261D01*
X75103Y16763D01*
G01X81342Y25546D02*
Y23148D01*
X81526Y22646D01*
X81893Y22311D01*
X82353Y22200D01*
X82812Y22311D01*
X83180Y22646D01*
X83363Y23148D01*
Y25546D01*
G01X86458Y22200D02*
Y25546D01*
X84759Y23148D01*
X87056D01*
G01X80245Y40842D02*
X76899D01*
Y41990D01*
X77067Y42358D01*
X77290Y42587D01*
X77736Y42679D01*
X78182Y42587D01*
X78461Y42312D01*
X78628Y41990D01*
Y40842D01*
G01Y41990D02*
X80245Y42679D01*
G01Y45315D02*
X76899D01*
X77568Y44764D01*
G01X80245D02*
Y45866D01*
G01Y48870D02*
X76899D01*
X77568Y48319D01*
G01X80245D02*
Y49421D01*
G01X79586Y53267D02*
X79310Y53434D01*
X78989Y53546D01*
X78621D01*
X78208Y53378D01*
X77886Y53100D01*
X77657Y52765D01*
X77473Y52207D01*
X77427Y51705D01*
X77519Y51203D01*
X77657Y50869D01*
X77932Y50534D01*
X78254Y50311D01*
X78575Y50200D01*
X78897D01*
X79218Y50311D01*
X79494Y50478D01*
X79724Y50701D01*
G01X82130Y50200D02*
Y53546D01*
X81579Y52877D01*
G01Y50200D02*
X82681D01*
G01X85685D02*
X86006Y50255D01*
X86374Y50423D01*
X86603Y50701D01*
X86695Y51092D01*
X86603Y51482D01*
X86328Y51817D01*
X85914Y51984D01*
X85455D01*
X85179Y52096D01*
X84950Y52374D01*
X84858Y52765D01*
X84996Y53155D01*
X85317Y53434D01*
X85685Y53546D01*
X86052Y53434D01*
X86374Y53155D01*
X86512Y52765D01*
X86420Y52374D01*
X86190Y52096D01*
X85914Y51984D01*
X85455D01*
X85042Y51817D01*
X84766Y51482D01*
X84674Y51092D01*
X84766Y50701D01*
X84996Y50423D01*
X85363Y50255D01*
X85685Y50200D01*
G01X93157Y40700D02*
Y44046D01*
X94305D01*
X94672Y43878D01*
X94902Y43655D01*
X94994Y43209D01*
X94902Y42763D01*
X94626Y42484D01*
X94305Y42317D01*
X93157D01*
G01X94305D02*
X94994Y40700D01*
G01X97630D02*
Y44046D01*
X97079Y43376D01*
G01Y40700D02*
X98181D01*
G01X100312Y42094D02*
X100634Y42484D01*
X100909Y42707D01*
X101276Y42819D01*
X101598Y42707D01*
X101828Y42484D01*
X102012Y42150D01*
X102057Y41759D01*
X102012Y41424D01*
X101828Y41090D01*
X101552Y40811D01*
X101231Y40700D01*
X100863Y40811D01*
X100542Y41146D01*
X100358Y41648D01*
X100312Y42205D01*
X100404Y42930D01*
X100542Y43321D01*
X100771Y43711D01*
X101093Y43990D01*
X101414Y44046D01*
X101736Y43934D01*
X101966Y43655D01*
G01X93178Y32771D02*
X93011Y32495D01*
X92899Y32174D01*
Y31806D01*
X93067Y31393D01*
X93346Y31071D01*
X93680Y30842D01*
X94238Y30658D01*
X94740Y30612D01*
X95242Y30704D01*
X95576Y30842D01*
X95911Y31117D01*
X96134Y31439D01*
X96245Y31760D01*
Y32082D01*
X96134Y32403D01*
X95967Y32679D01*
X95744Y32909D01*
G01X93457Y34442D02*
X93122Y34718D01*
X92955Y35040D01*
X92899Y35407D01*
X93011Y35866D01*
X93290Y36188D01*
X93624Y36280D01*
X93959Y36234D01*
X94238Y36050D01*
X94795Y35131D01*
X95186Y34718D01*
X95744Y34442D01*
X96245Y34350D01*
Y36280D01*
G01Y38870D02*
X92899D01*
X93568Y38319D01*
G01X96245D02*
Y39421D01*
G01X125797Y113231D02*
X126945Y109885D01*
X128094Y113231D01*
G01X131510Y112952D02*
X131235Y113119D01*
X130914Y113231D01*
X130546D01*
X130132Y113063D01*
X129811Y112784D01*
X129581Y112450D01*
X129398Y111892D01*
X129352Y111390D01*
X129444Y110888D01*
X129581Y110554D01*
X129857Y110219D01*
X130179Y109996D01*
X130500Y109885D01*
X130821D01*
X131143Y109996D01*
X131419Y110163D01*
X131648Y110386D01*
G01X135065Y112952D02*
X134790Y113119D01*
X134468Y113231D01*
X134101D01*
X133687Y113063D01*
X133366Y112784D01*
X133136Y112450D01*
X132952Y111892D01*
X132906Y111390D01*
X132998Y110888D01*
X133136Y110554D01*
X133412Y110219D01*
X133733Y109996D01*
X134055Y109885D01*
X134376D01*
X134698Y109996D01*
X134973Y110163D01*
X135203Y110386D01*
G01X136342Y7046D02*
Y4648D01*
X136526Y4146D01*
X136893Y3811D01*
X137353Y3700D01*
X137812Y3811D01*
X138180Y4146D01*
X138363Y4648D01*
Y7046D01*
G01X140907Y3700D02*
X141229Y3755D01*
X141596Y3923D01*
X141826Y4201D01*
X141918Y4592D01*
X141826Y4982D01*
X141550Y5317D01*
X141137Y5484D01*
X140678D01*
X140402Y5596D01*
X140172Y5874D01*
X140080Y6265D01*
X140218Y6655D01*
X140540Y6934D01*
X140907Y7046D01*
X141275Y6934D01*
X141596Y6655D01*
X141734Y6265D01*
X141642Y5874D01*
X141413Y5596D01*
X141137Y5484D01*
X140678D01*
X140264Y5317D01*
X139989Y4982D01*
X139897Y4592D01*
X139989Y4201D01*
X140218Y3923D01*
X140586Y3755D01*
X140907Y3700D01*
G01X142233Y102952D02*
X141958Y103119D01*
X141636Y103231D01*
X141269D01*
X140855Y103063D01*
X140534Y102785D01*
X140304Y102450D01*
X140120Y101892D01*
X140074Y101390D01*
X140166Y100888D01*
X140304Y100554D01*
X140580Y100219D01*
X140901Y99996D01*
X141223Y99885D01*
X141544D01*
X141866Y99996D01*
X142141Y100163D01*
X142371Y100386D01*
G01X143996Y100275D02*
X144318Y99996D01*
X144686Y99885D01*
X145053Y99996D01*
X145374Y100331D01*
X145604Y100833D01*
X145696Y101335D01*
Y101948D01*
X145604Y102450D01*
X145374Y102896D01*
X145099Y103119D01*
X144777Y103231D01*
X144410Y103119D01*
X144134Y102896D01*
X143950Y102562D01*
X143859Y102115D01*
X143950Y101725D01*
X144180Y101335D01*
X144456Y101111D01*
X144777Y101056D01*
X145145Y101167D01*
X145420Y101446D01*
X145696Y101948D01*
G01X159207Y73620D02*
X158932Y73788D01*
X158610Y73899D01*
X158243D01*
X157829Y73732D01*
X157508Y73453D01*
X157278Y73118D01*
X157094Y72561D01*
X157048Y72059D01*
X157140Y71557D01*
X157278Y71222D01*
X157554Y70888D01*
X157875Y70665D01*
X158197Y70553D01*
X158518D01*
X158840Y70665D01*
X159116Y70832D01*
X159345Y71055D01*
G01X153745Y80619D02*
X150399D01*
Y81767D01*
X150567Y82135D01*
X150790Y82364D01*
X151236Y82456D01*
X151682Y82364D01*
X151961Y82089D01*
X152128Y81767D01*
Y80619D01*
G01Y81767D02*
X153745Y82456D01*
G01Y85092D02*
X150399D01*
X151068Y84541D01*
G01X153745D02*
Y85644D01*
G01X144548Y80956D02*
X144381Y80680D01*
X144269Y80359D01*
Y79991D01*
X144437Y79578D01*
X144716Y79256D01*
X145050Y79027D01*
X145608Y78843D01*
X146110Y78797D01*
X146612Y78889D01*
X146946Y79027D01*
X147281Y79302D01*
X147504Y79624D01*
X147615Y79945D01*
Y80267D01*
X147504Y80588D01*
X147337Y80864D01*
X147114Y81094D01*
G01X147615Y83500D02*
X144269D01*
X144938Y82949D01*
G01X147615D02*
Y84051D01*
G01X144269Y87055D02*
X144381Y86687D01*
X144660Y86412D01*
X144994Y86228D01*
X145440Y86090D01*
X145942Y86044D01*
X146444Y86090D01*
X146890Y86228D01*
X147225Y86412D01*
X147504Y86687D01*
X147615Y87055D01*
X147504Y87422D01*
X147225Y87698D01*
X146890Y87882D01*
X146444Y88019D01*
X145942Y88065D01*
X145440Y88019D01*
X144994Y87882D01*
X144660Y87698D01*
X144381Y87422D01*
X144269Y87055D01*
G01X159207Y89620D02*
X158932Y89788D01*
X158610Y89899D01*
X158243D01*
X157829Y89732D01*
X157508Y89453D01*
X157278Y89118D01*
X157094Y88561D01*
X157048Y88059D01*
X157140Y87557D01*
X157278Y87222D01*
X157554Y86888D01*
X157875Y86665D01*
X158197Y86553D01*
X158518D01*
X158840Y86665D01*
X159116Y86832D01*
X159345Y87055D01*
G01X145308Y108582D02*
X145301Y111928D01*
X143607Y109527D01*
X145903Y109532D01*
G01X144503Y104385D02*
X144495Y107731D01*
X143945Y107060D01*
G01X143951Y104383D02*
X145054Y104386D01*
G01X154837Y122039D02*
X154843Y119642D01*
X155027Y119140D01*
X155396Y118806D01*
X155855Y118696D01*
X156314Y118808D01*
X156681Y119144D01*
X156864Y119646D01*
X156858Y122044D01*
G01X159410Y118704D02*
X159402Y122050D01*
X158853Y121379D01*
G01X158859Y118702D02*
X159961Y118705D01*
G01X163956Y8452D02*
X163680Y8619D01*
X163359Y8731D01*
X162991D01*
X162578Y8563D01*
X162256Y8284D01*
X162027Y7950D01*
X161843Y7392D01*
X161797Y6890D01*
X161889Y6388D01*
X162027Y6054D01*
X162302Y5719D01*
X162624Y5496D01*
X162945Y5385D01*
X163267D01*
X163588Y5496D01*
X163864Y5663D01*
X164094Y5886D01*
G01X165627Y8173D02*
X165903Y8508D01*
X166224Y8675D01*
X166592Y8731D01*
X167051Y8619D01*
X167373Y8340D01*
X167465Y8006D01*
X167419Y7671D01*
X167235Y7392D01*
X166316Y6835D01*
X165903Y6444D01*
X165627Y5886D01*
X165536Y5385D01*
X167465D01*
G01X169044Y5886D02*
X169320Y5608D01*
X169641Y5440D01*
X170055Y5385D01*
X170468Y5496D01*
X170790Y5719D01*
X171019Y6110D01*
X171065Y6556D01*
X170973Y7002D01*
X170744Y7281D01*
X170422Y7504D01*
X170101Y7560D01*
X169779Y7504D01*
X169366Y7281D01*
X169504Y8731D01*
X170744D01*
G01X174712Y25231D02*
Y22833D01*
X174896Y22331D01*
X175263Y21996D01*
X175723Y21885D01*
X176182Y21996D01*
X176550Y22331D01*
X176733Y22833D01*
Y25231D01*
G01X178267Y22386D02*
X178542Y22108D01*
X178864Y21940D01*
X179277Y21885D01*
X179691Y21996D01*
X180012Y22219D01*
X180242Y22610D01*
X180288Y23056D01*
X180196Y23502D01*
X179966Y23781D01*
X179645Y24004D01*
X179323Y24060D01*
X179002Y24004D01*
X178588Y23781D01*
X178726Y25231D01*
X179966D01*
G01X162527Y14885D02*
Y18231D01*
X163675D01*
X164042Y18063D01*
X164272Y17840D01*
X164364Y17394D01*
X164272Y16948D01*
X163996Y16669D01*
X163675Y16502D01*
X162527D01*
G01X163675D02*
X164364Y14885D01*
G01X167000D02*
Y18231D01*
X166449Y17562D01*
G01Y14885D02*
X167551D01*
G01X169682Y17673D02*
X169958Y18008D01*
X170279Y18175D01*
X170647Y18231D01*
X171106Y18119D01*
X171428Y17840D01*
X171519Y17506D01*
X171473Y17171D01*
X171290Y16892D01*
X170371Y16335D01*
X169958Y15944D01*
X169682Y15386D01*
X169590Y14885D01*
X171519D01*
G01X162527Y10385D02*
Y13731D01*
X163675D01*
X164042Y13563D01*
X164272Y13340D01*
X164364Y12894D01*
X164272Y12448D01*
X163996Y12169D01*
X163675Y12002D01*
X162527D01*
G01X163675D02*
X164364Y10385D01*
G01X166127Y13173D02*
X166403Y13508D01*
X166724Y13675D01*
X167092Y13731D01*
X167551Y13619D01*
X167873Y13340D01*
X167965Y13006D01*
X167919Y12671D01*
X167735Y12392D01*
X166816Y11835D01*
X166403Y11444D01*
X166127Y10886D01*
X166036Y10385D01*
X167965D01*
G01X170555Y13731D02*
X170187Y13619D01*
X169912Y13340D01*
X169728Y13006D01*
X169590Y12560D01*
X169544Y12058D01*
X169590Y11556D01*
X169728Y11110D01*
X169912Y10775D01*
X170187Y10496D01*
X170555Y10385D01*
X170922Y10496D01*
X171198Y10775D01*
X171382Y11110D01*
X171519Y11556D01*
X171565Y12058D01*
X171519Y12560D01*
X171382Y13006D01*
X171198Y13340D01*
X170922Y13619D01*
X170555Y13731D01*
G01X177245Y41842D02*
X173899D01*
Y42990D01*
X174067Y43358D01*
X174290Y43587D01*
X174736Y43679D01*
X175182Y43587D01*
X175461Y43312D01*
X175628Y42990D01*
Y41842D01*
G01Y42990D02*
X177245Y43679D01*
G01Y46315D02*
X173899D01*
X174568Y45764D01*
G01X177245D02*
Y46866D01*
G01X176576Y48859D02*
X176967Y49135D01*
X177190Y49502D01*
X177245Y49916D01*
X177190Y50283D01*
X176911Y50651D01*
X176576Y50880D01*
X176242Y50926D01*
X175851Y50834D01*
X175572Y50513D01*
X175461Y50191D01*
Y49778D01*
G01Y50191D02*
X175294Y50467D01*
X175015Y50697D01*
X174680Y50788D01*
X174346Y50697D01*
X174067Y50467D01*
X173899Y50054D01*
X173955Y49640D01*
X174178Y49227D01*
G01X170956Y57952D02*
X170680Y58119D01*
X170359Y58231D01*
X169991D01*
X169578Y58063D01*
X169256Y57785D01*
X169027Y57450D01*
X168843Y56892D01*
X168797Y56390D01*
X168889Y55888D01*
X169027Y55554D01*
X169302Y55219D01*
X169624Y54996D01*
X169945Y54885D01*
X170267D01*
X170588Y54996D01*
X170864Y55163D01*
X171094Y55386D01*
G01X173500Y54885D02*
Y58231D01*
X172949Y57562D01*
G01Y54885D02*
X174051D01*
G01X176274Y55275D02*
X176595Y54996D01*
X176963Y54885D01*
X177330Y54996D01*
X177652Y55331D01*
X177882Y55833D01*
X177973Y56335D01*
Y56948D01*
X177882Y57450D01*
X177652Y57896D01*
X177376Y58119D01*
X177055Y58231D01*
X176687Y58119D01*
X176412Y57896D01*
X176228Y57562D01*
X176136Y57115D01*
X176228Y56725D01*
X176458Y56335D01*
X176733Y56111D01*
X177055Y56056D01*
X177422Y56167D01*
X177698Y56446D01*
X177973Y56948D01*
G01X164353Y60700D02*
X163985Y60755D01*
X163664Y60978D01*
X163388Y61313D01*
X163204Y61703D01*
X163112Y62150D01*
Y62596D01*
X163204Y63042D01*
X163388Y63432D01*
X163664Y63767D01*
X163985Y63990D01*
X164353Y64046D01*
X164720Y63990D01*
X165042Y63767D01*
X165317Y63432D01*
X165501Y63042D01*
X165593Y62596D01*
Y62150D01*
X165501Y61703D01*
X165317Y61313D01*
X165042Y60978D01*
X164720Y60755D01*
X164353Y60700D01*
G01X164720Y61592D02*
X165271Y60700D01*
G01X167035Y63488D02*
X167310Y63823D01*
X167632Y63990D01*
X167999Y64046D01*
X168458Y63934D01*
X168780Y63655D01*
X168872Y63321D01*
X168826Y62986D01*
X168642Y62707D01*
X167724Y62150D01*
X167310Y61759D01*
X167035Y61201D01*
X166943Y60700D01*
X168872D01*
G01X176368Y62669D02*
X176551Y62837D01*
X176689Y63115D01*
X176781Y63506D01*
X176689Y63840D01*
X176505Y64063D01*
X176184Y64231D01*
X174944D01*
Y60885D01*
X176459D01*
X176781Y61108D01*
X176965Y61442D01*
X177057Y61833D01*
X176965Y62223D01*
X176689Y62558D01*
X176368Y62669D01*
X174944D01*
G01X165121Y108867D02*
X165397Y108477D01*
X165765Y108255D01*
X166178Y108200D01*
X166546Y108256D01*
X166913Y108536D01*
X167142Y108871D01*
X167187Y109206D01*
X167094Y109596D01*
X166772Y109874D01*
X166450Y109985D01*
X166037Y109984D01*
G01X166450Y109985D02*
X166725Y110153D01*
X166954Y110432D01*
X167046Y110767D01*
X166953Y111101D01*
X166723Y111380D01*
X166309Y111546D01*
X165896Y111490D01*
X165483Y111265D01*
G01X165272Y105868D02*
X165547Y106203D01*
X165868Y106371D01*
X166236Y106427D01*
X166695Y106317D01*
X167017Y106039D01*
X167110Y105704D01*
X167065Y105370D01*
X166882Y105090D01*
X165964Y104531D01*
X165552Y104139D01*
X165277Y103581D01*
X165186Y103079D01*
X167116Y103083D01*
G01X165853Y97200D02*
X165485Y97255D01*
X165164Y97478D01*
X164888Y97813D01*
X164704Y98203D01*
X164612Y98650D01*
Y99096D01*
X164704Y99542D01*
X164888Y99932D01*
X165164Y100267D01*
X165485Y100490D01*
X165853Y100546D01*
X166220Y100490D01*
X166542Y100267D01*
X166817Y99932D01*
X167001Y99542D01*
X167093Y99096D01*
Y98650D01*
X167001Y98203D01*
X166817Y97813D01*
X166542Y97478D01*
X166220Y97255D01*
X165853Y97200D01*
G01X166220Y98092D02*
X166771Y97200D01*
G01X169407D02*
Y100546D01*
X168856Y99876D01*
G01Y97200D02*
X169958D01*
G01X177049Y97700D02*
X175211D01*
Y101046D01*
X177049D01*
G01X176314Y99428D02*
X175211D01*
G01X188027Y41385D02*
Y44731D01*
X189175D01*
X189542Y44563D01*
X189772Y44340D01*
X189864Y43894D01*
X189772Y43448D01*
X189496Y43169D01*
X189175Y43002D01*
X188027D01*
G01X189175D02*
X189864Y41385D01*
G01X192500D02*
Y44731D01*
X191949Y44062D01*
G01Y41385D02*
X193051D01*
G01X195963D02*
X196055Y42110D01*
X196193Y42723D01*
X196376Y43281D01*
X196606Y43894D01*
X196973Y44731D01*
X195136D01*
G01X189678Y32271D02*
X189511Y31995D01*
X189399Y31674D01*
Y31306D01*
X189567Y30893D01*
X189846Y30571D01*
X190180Y30342D01*
X190738Y30158D01*
X191240Y30112D01*
X191742Y30204D01*
X192076Y30342D01*
X192411Y30617D01*
X192634Y30939D01*
X192745Y31260D01*
Y31582D01*
X192634Y31903D01*
X192467Y32179D01*
X192244Y32409D01*
G01X189957Y33942D02*
X189622Y34218D01*
X189455Y34540D01*
X189399Y34907D01*
X189511Y35366D01*
X189790Y35688D01*
X190124Y35780D01*
X190459Y35734D01*
X190738Y35550D01*
X191295Y34631D01*
X191686Y34218D01*
X192244Y33942D01*
X192745Y33850D01*
Y35780D01*
G01X189957Y37497D02*
X189622Y37773D01*
X189455Y38094D01*
X189399Y38462D01*
X189511Y38921D01*
X189790Y39242D01*
X190124Y39334D01*
X190459Y39288D01*
X190738Y39105D01*
X191295Y38186D01*
X191686Y37773D01*
X192244Y37497D01*
X192745Y37405D01*
Y39334D01*
G01X194178Y58271D02*
X194011Y57995D01*
X193899Y57674D01*
Y57306D01*
X194067Y56893D01*
X194346Y56571D01*
X194680Y56342D01*
X195238Y56158D01*
X195740Y56112D01*
X196242Y56204D01*
X196576Y56342D01*
X196911Y56617D01*
X197134Y56939D01*
X197245Y57260D01*
Y57582D01*
X197134Y57903D01*
X196967Y58179D01*
X196744Y58409D01*
G01X197245Y60815D02*
X193899D01*
X194568Y60264D01*
G01X197245D02*
Y61366D01*
G01X195851Y63497D02*
X195461Y63818D01*
X195238Y64094D01*
X195126Y64462D01*
X195238Y64783D01*
X195461Y65013D01*
X195795Y65196D01*
X196186Y65242D01*
X196520Y65196D01*
X196855Y65013D01*
X197134Y64737D01*
X197245Y64416D01*
X197134Y64048D01*
X196799Y63727D01*
X196297Y63543D01*
X195740Y63497D01*
X195015Y63589D01*
X194624Y63727D01*
X194234Y63956D01*
X193955Y64278D01*
X193899Y64599D01*
X194011Y64921D01*
X194290Y65150D01*
G01X180934Y49200D02*
Y52546D01*
X182082D01*
X182450Y52378D01*
X182680Y52155D01*
X182771Y51709D01*
X182680Y51263D01*
X182404Y50984D01*
X182082Y50817D01*
X180934D01*
G01X182082D02*
X182771Y49200D01*
G01X184397Y49701D02*
X184672Y49423D01*
X184994Y49255D01*
X185407Y49200D01*
X185821Y49311D01*
X186142Y49534D01*
X186372Y49924D01*
X186418Y50371D01*
X186326Y50817D01*
X186096Y51096D01*
X185775Y51319D01*
X185453Y51374D01*
X185132Y51319D01*
X184718Y51096D01*
X184856Y52546D01*
X186096D01*
G01X180934Y54200D02*
Y57546D01*
X182082D01*
X182450Y57378D01*
X182680Y57155D01*
X182771Y56709D01*
X182680Y56263D01*
X182404Y55984D01*
X182082Y55817D01*
X180934D01*
G01X182082D02*
X182771Y54200D01*
G01X185958D02*
Y57546D01*
X184259Y55148D01*
X186556D01*
G01X189678Y58271D02*
X189511Y57995D01*
X189399Y57674D01*
Y57306D01*
X189567Y56893D01*
X189846Y56571D01*
X190180Y56342D01*
X190738Y56158D01*
X191240Y56112D01*
X191742Y56204D01*
X192076Y56342D01*
X192411Y56617D01*
X192634Y56939D01*
X192745Y57260D01*
Y57582D01*
X192634Y57903D01*
X192467Y58179D01*
X192244Y58409D01*
G01X192745Y60815D02*
X189399D01*
X190068Y60264D01*
G01X192745D02*
Y61366D01*
G01Y64278D02*
X192020Y64370D01*
X191407Y64508D01*
X190849Y64691D01*
X190236Y64921D01*
X189399Y65288D01*
Y63451D01*
G01X194086Y77267D02*
X193810Y77434D01*
X193489Y77546D01*
X193121D01*
X192708Y77378D01*
X192386Y77100D01*
X192157Y76765D01*
X191973Y76207D01*
X191927Y75705D01*
X192019Y75203D01*
X192157Y74869D01*
X192432Y74534D01*
X192754Y74311D01*
X193075Y74200D01*
X193397D01*
X193718Y74311D01*
X193994Y74478D01*
X194224Y74701D01*
G01X196630Y74200D02*
Y77546D01*
X196079Y76876D01*
G01Y74200D02*
X197181D01*
G01X199312Y76988D02*
X199588Y77323D01*
X199909Y77490D01*
X200277Y77546D01*
X200736Y77434D01*
X201058Y77155D01*
X201149Y76821D01*
X201103Y76486D01*
X200920Y76207D01*
X200001Y75650D01*
X199588Y75259D01*
X199312Y74701D01*
X199220Y74200D01*
X201149D01*
G01X182308Y67128D02*
Y63782D01*
G01X181252Y67128D02*
X183364D01*
G01X184898Y63782D02*
X186827Y67128D01*
G01X184898D02*
X186827Y63782D01*
G01X179259Y59967D02*
Y63313D01*
X180408D01*
X180775Y63145D01*
X181005Y62922D01*
X181097Y62476D01*
X181005Y62030D01*
X180729Y61751D01*
X180408Y61584D01*
X179259D01*
G01X180408D02*
X181097Y59967D01*
G01X182768D02*
X184697Y63313D01*
G01X182768D02*
X184697Y59967D01*
G01X187363Y102767D02*
X187088Y102934D01*
X186766Y103046D01*
X186399D01*
X185985Y102878D01*
X185664Y102600D01*
X185434Y102265D01*
X185250Y101707D01*
X185204Y101205D01*
X185296Y100703D01*
X185434Y100369D01*
X185710Y100034D01*
X186031Y99811D01*
X186353Y99700D01*
X186674D01*
X186996Y99811D01*
X187271Y99978D01*
X187501Y100201D01*
G01X189816Y99700D02*
X189907Y100424D01*
X190045Y101038D01*
X190229Y101596D01*
X190458Y102209D01*
X190826Y103046D01*
X188989D01*
G01X197164Y110991D02*
X196888Y111159D01*
X196567Y111270D01*
X196199D01*
X195786Y111103D01*
X195464Y110824D01*
X195235Y110489D01*
X195051Y109932D01*
X195005Y109430D01*
X195097Y108928D01*
X195235Y108593D01*
X195510Y108259D01*
X195832Y108036D01*
X196153Y107924D01*
X196475D01*
X196796Y108036D01*
X197072Y108203D01*
X197302Y108426D01*
G01X198698D02*
X198973Y108147D01*
X199295Y107980D01*
X199708Y107924D01*
X200121Y108036D01*
X200443Y108259D01*
X200673Y108649D01*
X200718Y109095D01*
X200627Y109541D01*
X200397Y109820D01*
X200076Y110043D01*
X199754Y110099D01*
X199432Y110043D01*
X199019Y109820D01*
X199157Y111270D01*
X200397D01*
G01X196863Y115267D02*
X196588Y115434D01*
X196266Y115546D01*
X195899D01*
X195485Y115378D01*
X195164Y115100D01*
X194934Y114765D01*
X194750Y114207D01*
X194704Y113705D01*
X194796Y113203D01*
X194934Y112869D01*
X195210Y112534D01*
X195531Y112311D01*
X195853Y112200D01*
X196174D01*
X196496Y112311D01*
X196771Y112478D01*
X197001Y112701D01*
G01X198397Y112869D02*
X198672Y112478D01*
X199040Y112255D01*
X199453Y112200D01*
X199821Y112255D01*
X200188Y112534D01*
X200418Y112869D01*
X200464Y113203D01*
X200372Y113594D01*
X200050Y113873D01*
X199729Y113984D01*
X199316D01*
G01X199729D02*
X200004Y114152D01*
X200234Y114430D01*
X200326Y114765D01*
X200234Y115100D01*
X200004Y115378D01*
X199591Y115546D01*
X199178Y115490D01*
X198764Y115267D01*
G01X205804Y58231D02*
Y54885D01*
X207641D01*
G01X209267Y55386D02*
X209542Y55108D01*
X209864Y54940D01*
X210277Y54885D01*
X210691Y54996D01*
X211012Y55219D01*
X211242Y55610D01*
X211288Y56056D01*
X211196Y56502D01*
X210966Y56781D01*
X210645Y57004D01*
X210323Y57060D01*
X210002Y57004D01*
X209588Y56781D01*
X209726Y58231D01*
X210966D01*
G01X206178Y76771D02*
X206011Y76495D01*
X205899Y76174D01*
Y75806D01*
X206067Y75393D01*
X206345Y75071D01*
X206680Y74842D01*
X207238Y74658D01*
X207740Y74612D01*
X208242Y74704D01*
X208576Y74842D01*
X208911Y75117D01*
X209134Y75439D01*
X209245Y75760D01*
Y76082D01*
X209134Y76403D01*
X208967Y76679D01*
X208744Y76909D01*
G01X209245Y79315D02*
X205899D01*
X206568Y78764D01*
G01X209245D02*
Y79866D01*
G01Y82870D02*
X205899D01*
X206568Y82318D01*
G01X209245D02*
Y83421D01*
G01X205245Y89573D02*
X201899Y91502D01*
G01Y89573D02*
X205245Y91502D01*
G01Y94092D02*
X201899D01*
X202569Y93541D01*
G01X205245D02*
Y94643D01*
G01X202178Y110048D02*
X202011Y109772D01*
X201899Y109451D01*
Y109084D01*
X202067Y108670D01*
X202345Y108349D01*
X202680Y108119D01*
X203238Y107935D01*
X203740Y107889D01*
X204242Y107981D01*
X204576Y108119D01*
X204911Y108395D01*
X205134Y108716D01*
X205245Y109038D01*
Y109359D01*
X205134Y109681D01*
X204967Y109956D01*
X204744Y110186D01*
G01X205245Y112592D02*
X205190Y112914D01*
X205022Y113281D01*
X204744Y113511D01*
X204353Y113603D01*
X203963Y113511D01*
X203628Y113235D01*
X203461Y112822D01*
Y112363D01*
X203349Y112087D01*
X203070Y111857D01*
X202680Y111766D01*
X202290Y111903D01*
X202011Y112225D01*
X201899Y112592D01*
X202011Y112960D01*
X202290Y113281D01*
X202680Y113419D01*
X203070Y113327D01*
X203349Y113098D01*
X203461Y112822D01*
Y112363D01*
X203628Y111949D01*
X203963Y111674D01*
X204353Y111582D01*
X204744Y111674D01*
X205022Y111903D01*
X205190Y112271D01*
X205245Y112592D01*
G01X210678Y115048D02*
X210511Y114772D01*
X210399Y114451D01*
Y114084D01*
X210567Y113670D01*
X210846Y113349D01*
X211180Y113119D01*
X211738Y112935D01*
X212240Y112889D01*
X212742Y112981D01*
X213076Y113119D01*
X213411Y113395D01*
X213634Y113716D01*
X213745Y114038D01*
Y114359D01*
X213634Y114681D01*
X213467Y114956D01*
X213244Y115186D01*
G01X213745Y117592D02*
X210399D01*
X211068Y117041D01*
G01X213745D02*
Y118144D01*
G01X205899Y113119D02*
X209245D01*
Y114956D01*
G01X206457Y116720D02*
X206122Y116995D01*
X205955Y117317D01*
X205899Y117684D01*
X206011Y118144D01*
X206290Y118465D01*
X206624Y118557D01*
X206959Y118511D01*
X207238Y118327D01*
X207795Y117409D01*
X208186Y116995D01*
X208744Y116720D01*
X209245Y116628D01*
Y118557D01*
G01X218842Y7046D02*
Y4648D01*
X219026Y4146D01*
X219393Y3811D01*
X219853Y3700D01*
X220312Y3811D01*
X220680Y4146D01*
X220863Y4648D01*
Y7046D01*
G01X222626Y4090D02*
X222948Y3811D01*
X223316Y3700D01*
X223683Y3811D01*
X224005Y4146D01*
X224234Y4648D01*
X224326Y5150D01*
Y5763D01*
X224234Y6265D01*
X224005Y6711D01*
X223729Y6934D01*
X223407Y7046D01*
X223040Y6934D01*
X222764Y6711D01*
X222580Y6376D01*
X222489Y5930D01*
X222580Y5540D01*
X222810Y5150D01*
X223086Y4926D01*
X223407Y4871D01*
X223775Y4982D01*
X224050Y5261D01*
X224326Y5763D01*
G01X229548Y58456D02*
X229381Y58180D01*
X229269Y57859D01*
Y57491D01*
X229437Y57078D01*
X229716Y56756D01*
X230050Y56527D01*
X230608Y56343D01*
X231110Y56297D01*
X231612Y56389D01*
X231946Y56527D01*
X232281Y56802D01*
X232504Y57124D01*
X232615Y57445D01*
Y57767D01*
X232504Y58088D01*
X232337Y58364D01*
X232114Y58594D01*
G01X232615Y61000D02*
X229269D01*
X229939Y60449D01*
G01X232615D02*
Y61551D01*
G01X232114Y63544D02*
X232392Y63820D01*
X232560Y64141D01*
X232615Y64555D01*
X232504Y64968D01*
X232281Y65290D01*
X231891Y65519D01*
X231444Y65565D01*
X230998Y65473D01*
X230719Y65244D01*
X230496Y64922D01*
X230440Y64601D01*
X230496Y64279D01*
X230719Y63866D01*
X229269Y64004D01*
Y65244D01*
G01X213304Y58231D02*
Y54885D01*
X215141D01*
G01X218328D02*
Y58231D01*
X216629Y55833D01*
X218926D01*
G01X220712Y66231D02*
Y63833D01*
X220896Y63331D01*
X221263Y62996D01*
X221723Y62885D01*
X222182Y62996D01*
X222550Y63331D01*
X222733Y63833D01*
Y66231D01*
G01X224405Y65673D02*
X224680Y66008D01*
X225002Y66175D01*
X225369Y66231D01*
X225828Y66119D01*
X226150Y65840D01*
X226242Y65506D01*
X226196Y65171D01*
X226012Y64892D01*
X225094Y64335D01*
X224680Y63944D01*
X224405Y63386D01*
X224313Y62885D01*
X226242D01*
G01X231863Y114267D02*
X231588Y114434D01*
X231266Y114546D01*
X230899D01*
X230485Y114378D01*
X230164Y114100D01*
X229934Y113765D01*
X229750Y113207D01*
X229704Y112705D01*
X229796Y112203D01*
X229934Y111869D01*
X230210Y111534D01*
X230531Y111311D01*
X230853Y111200D01*
X231174D01*
X231496Y111311D01*
X231771Y111478D01*
X232001Y111701D01*
G01X234959Y111200D02*
Y114546D01*
X233259Y112148D01*
X235556D01*
G01X215178Y115048D02*
X215011Y114772D01*
X214899Y114451D01*
Y114084D01*
X215067Y113670D01*
X215346Y113349D01*
X215680Y113119D01*
X216238Y112935D01*
X216740Y112889D01*
X217242Y112981D01*
X217576Y113119D01*
X217911Y113395D01*
X218134Y113716D01*
X218245Y114038D01*
Y114359D01*
X218134Y114681D01*
X217967Y114956D01*
X217744Y115186D01*
G01X216851Y116720D02*
X216461Y117041D01*
X216238Y117317D01*
X216126Y117684D01*
X216238Y118006D01*
X216461Y118235D01*
X216795Y118419D01*
X217186Y118465D01*
X217520Y118419D01*
X217855Y118235D01*
X218134Y117960D01*
X218245Y117638D01*
X218134Y117271D01*
X217799Y116949D01*
X217297Y116765D01*
X216740Y116720D01*
X216015Y116812D01*
X215624Y116949D01*
X215234Y117179D01*
X214955Y117501D01*
X214899Y117822D01*
X215011Y118144D01*
X215290Y118373D01*
G01X231863Y118267D02*
X231588Y118434D01*
X231266Y118546D01*
X230899D01*
X230485Y118378D01*
X230164Y118100D01*
X229934Y117765D01*
X229750Y117207D01*
X229704Y116705D01*
X229796Y116203D01*
X229934Y115869D01*
X230210Y115534D01*
X230531Y115311D01*
X230853Y115200D01*
X231174D01*
X231496Y115311D01*
X231771Y115478D01*
X232001Y115701D01*
G01X233535Y117988D02*
X233810Y118323D01*
X234132Y118490D01*
X234499Y118546D01*
X234959Y118434D01*
X235280Y118155D01*
X235372Y117821D01*
X235326Y117486D01*
X235142Y117207D01*
X234224Y116650D01*
X233810Y116259D01*
X233535Y115701D01*
X233443Y115200D01*
X235372D01*
G01X223899Y113119D02*
X227245D01*
Y114956D01*
G01Y117592D02*
X223899D01*
X224568Y117041D01*
G01X227245D02*
Y118144D01*
G01X219399Y113119D02*
X222745D01*
Y114956D01*
G01X222076Y116582D02*
X222467Y116857D01*
X222690Y117225D01*
X222745Y117638D01*
X222690Y118006D01*
X222411Y118373D01*
X222076Y118603D01*
X221742Y118649D01*
X221351Y118557D01*
X221072Y118235D01*
X220961Y117914D01*
Y117501D01*
G01Y117914D02*
X220794Y118189D01*
X220515Y118419D01*
X220180Y118511D01*
X219846Y118419D01*
X219567Y118189D01*
X219399Y117776D01*
X219455Y117363D01*
X219678Y116949D01*
G01X243245Y80119D02*
X239899D01*
Y81267D01*
X240067Y81635D01*
X240290Y81864D01*
X240736Y81956D01*
X241182Y81864D01*
X241461Y81589D01*
X241628Y81267D01*
Y80119D01*
G01Y81267D02*
X243245Y81956D01*
G01X242576Y83582D02*
X242967Y83857D01*
X243190Y84225D01*
X243245Y84638D01*
X243190Y85006D01*
X242911Y85373D01*
X242576Y85603D01*
X242242Y85649D01*
X241851Y85557D01*
X241572Y85235D01*
X241461Y84914D01*
Y84500D01*
G01Y84914D02*
X241294Y85190D01*
X241015Y85419D01*
X240680Y85511D01*
X240346Y85419D01*
X240067Y85190D01*
X239899Y84776D01*
X239955Y84363D01*
X240178Y83949D01*
G01X243115Y102304D02*
X239769D01*
Y103452D01*
X239937Y103820D01*
X240160Y104050D01*
X240606Y104141D01*
X241052Y104050D01*
X241331Y103774D01*
X241498Y103452D01*
Y102304D01*
G01Y103452D02*
X243115Y104141D01*
G01X240327Y105905D02*
X239992Y106180D01*
X239825Y106502D01*
X239769Y106869D01*
X239881Y107328D01*
X240160Y107650D01*
X240494Y107742D01*
X240829Y107696D01*
X241108Y107512D01*
X241665Y106594D01*
X242056Y106180D01*
X242614Y105905D01*
X243115Y105813D01*
Y107742D01*
G01X250456Y9952D02*
X250180Y10119D01*
X249859Y10231D01*
X249491D01*
X249078Y10063D01*
X248756Y9784D01*
X248527Y9450D01*
X248343Y8892D01*
X248297Y8390D01*
X248389Y7888D01*
X248527Y7554D01*
X248802Y7219D01*
X249124Y6996D01*
X249445Y6885D01*
X249767D01*
X250088Y6996D01*
X250364Y7163D01*
X250594Y7386D01*
G01X252127Y9673D02*
X252403Y10008D01*
X252724Y10175D01*
X253092Y10231D01*
X253551Y10119D01*
X253873Y9840D01*
X253965Y9506D01*
X253919Y9171D01*
X253735Y8892D01*
X252816Y8335D01*
X252403Y7944D01*
X252127Y7386D01*
X252036Y6885D01*
X253965D01*
G01X255682Y8279D02*
X256004Y8669D01*
X256279Y8892D01*
X256647Y9004D01*
X256968Y8892D01*
X257198Y8669D01*
X257382Y8335D01*
X257428Y7944D01*
X257382Y7610D01*
X257198Y7275D01*
X256922Y6996D01*
X256601Y6885D01*
X256233Y6996D01*
X255912Y7331D01*
X255728Y7833D01*
X255682Y8390D01*
X255774Y9115D01*
X255912Y9506D01*
X256141Y9896D01*
X256463Y10175D01*
X256784Y10231D01*
X257106Y10119D01*
X257336Y9840D01*
G01X260342Y25046D02*
Y22648D01*
X260526Y22146D01*
X260893Y21811D01*
X261353Y21700D01*
X261812Y21811D01*
X262180Y22146D01*
X262363Y22648D01*
Y25046D01*
G01X264035Y23094D02*
X264356Y23484D01*
X264632Y23707D01*
X264999Y23819D01*
X265321Y23707D01*
X265550Y23484D01*
X265734Y23150D01*
X265780Y22759D01*
X265734Y22424D01*
X265550Y22090D01*
X265275Y21811D01*
X264953Y21700D01*
X264586Y21811D01*
X264264Y22146D01*
X264080Y22648D01*
X264035Y23205D01*
X264126Y23930D01*
X264264Y24321D01*
X264494Y24711D01*
X264816Y24990D01*
X265137Y25046D01*
X265458Y24934D01*
X265688Y24655D01*
G01X248527Y11385D02*
Y14731D01*
X249675D01*
X250043Y14563D01*
X250272Y14340D01*
X250364Y13894D01*
X250272Y13448D01*
X249996Y13169D01*
X249675Y13002D01*
X248527D01*
G01X249675D02*
X250364Y11385D01*
G01X252127Y14173D02*
X252403Y14508D01*
X252724Y14675D01*
X253092Y14731D01*
X253551Y14619D01*
X253873Y14340D01*
X253965Y14006D01*
X253919Y13671D01*
X253735Y13392D01*
X252816Y12835D01*
X252403Y12444D01*
X252127Y11886D01*
X252036Y11385D01*
X253965D01*
G01X256555D02*
Y14731D01*
X256004Y14062D01*
G01Y11385D02*
X257106D01*
G01X248527Y15885D02*
Y19231D01*
X249675D01*
X250043Y19063D01*
X250272Y18840D01*
X250364Y18394D01*
X250272Y17948D01*
X249996Y17669D01*
X249675Y17502D01*
X248527D01*
G01X249675D02*
X250364Y15885D01*
G01X253000D02*
Y19231D01*
X252449Y18562D01*
G01Y15885D02*
X253551D01*
G01X257106D02*
Y19231D01*
X255406Y16833D01*
X257703D01*
G01X264657Y45700D02*
Y49046D01*
X265805D01*
X266172Y48878D01*
X266402Y48655D01*
X266494Y48209D01*
X266402Y47763D01*
X266126Y47484D01*
X265805Y47317D01*
X264657D01*
G01X265805D02*
X266494Y45700D01*
G01X269130D02*
Y49046D01*
X268579Y48376D01*
G01Y45700D02*
X269681D01*
G01X272685D02*
X273006Y45755D01*
X273374Y45923D01*
X273603Y46201D01*
X273695Y46592D01*
X273603Y46982D01*
X273328Y47317D01*
X272914Y47484D01*
X272455D01*
X272179Y47596D01*
X271950Y47874D01*
X271858Y48265D01*
X271996Y48655D01*
X272317Y48934D01*
X272685Y49046D01*
X273052Y48934D01*
X273374Y48655D01*
X273512Y48265D01*
X273420Y47874D01*
X273190Y47596D01*
X272914Y47484D01*
X272455D01*
X272042Y47317D01*
X271766Y46982D01*
X271674Y46592D01*
X271766Y46201D01*
X271996Y45923D01*
X272363Y45755D01*
X272685Y45700D01*
G01X263115Y47527D02*
X259769D01*
Y48675D01*
X259937Y49042D01*
X260160Y49272D01*
X260606Y49364D01*
X261052Y49272D01*
X261331Y48996D01*
X261498Y48675D01*
Y47527D01*
G01Y48675D02*
X263115Y49364D01*
G01Y52000D02*
X259769D01*
X260439Y51449D01*
G01X263115D02*
Y52551D01*
G01X262614Y54544D02*
X262892Y54820D01*
X263060Y55141D01*
X263115Y55555D01*
X263004Y55968D01*
X262781Y56290D01*
X262390Y56519D01*
X261944Y56565D01*
X261498Y56473D01*
X261219Y56244D01*
X260996Y55922D01*
X260941Y55601D01*
X260996Y55279D01*
X261219Y54866D01*
X259769Y55004D01*
Y56244D01*
G01X259842Y63046D02*
Y60648D01*
X260026Y60146D01*
X260393Y59811D01*
X260853Y59700D01*
X261312Y59811D01*
X261680Y60146D01*
X261863Y60648D01*
Y63046D01*
G01X263397Y60369D02*
X263672Y59978D01*
X264040Y59755D01*
X264453Y59700D01*
X264821Y59755D01*
X265188Y60034D01*
X265418Y60369D01*
X265464Y60703D01*
X265372Y61094D01*
X265050Y61373D01*
X264729Y61484D01*
X264316D01*
G01X264729D02*
X265004Y61652D01*
X265234Y61930D01*
X265326Y62265D01*
X265234Y62600D01*
X265004Y62878D01*
X264591Y63046D01*
X264178Y62990D01*
X263764Y62767D01*
G01X255434Y111700D02*
Y115046D01*
X256536D01*
X256904Y114878D01*
X257180Y114488D01*
X257271Y114042D01*
X257180Y113596D01*
X256950Y113261D01*
X256536Y113094D01*
X255434D01*
G01X259907Y111700D02*
Y115046D01*
X259356Y114377D01*
G01Y111700D02*
X260459D01*
G01X271548Y19456D02*
X271381Y19180D01*
X271269Y18859D01*
Y18491D01*
X271437Y18078D01*
X271716Y17756D01*
X272050Y17527D01*
X272608Y17343D01*
X273110Y17297D01*
X273612Y17389D01*
X273946Y17527D01*
X274281Y17802D01*
X274504Y18124D01*
X274615Y18445D01*
Y18767D01*
X274504Y19088D01*
X274337Y19364D01*
X274114Y19594D01*
G01X271827Y21127D02*
X271492Y21403D01*
X271325Y21725D01*
X271269Y22092D01*
X271381Y22551D01*
X271660Y22873D01*
X271994Y22965D01*
X272329Y22919D01*
X272608Y22735D01*
X273165Y21816D01*
X273556Y21403D01*
X274114Y21127D01*
X274615Y21036D01*
Y22965D01*
G01X273946Y24544D02*
X274337Y24820D01*
X274560Y25187D01*
X274615Y25601D01*
X274560Y25968D01*
X274281Y26336D01*
X273946Y26565D01*
X273612Y26611D01*
X273221Y26519D01*
X272942Y26198D01*
X272831Y25876D01*
Y25463D01*
G01Y25876D02*
X272664Y26152D01*
X272385Y26382D01*
X272050Y26473D01*
X271716Y26382D01*
X271437Y26152D01*
X271269Y25738D01*
X271325Y25325D01*
X271548Y24912D01*
G01X272178Y54271D02*
X272011Y53995D01*
X271899Y53674D01*
Y53306D01*
X272067Y52893D01*
X272346Y52571D01*
X272680Y52342D01*
X273238Y52158D01*
X273740Y52112D01*
X274242Y52204D01*
X274576Y52342D01*
X274911Y52617D01*
X275134Y52939D01*
X275245Y53260D01*
Y53582D01*
X275134Y53903D01*
X274967Y54179D01*
X274744Y54409D01*
G01X275245Y56815D02*
X271899D01*
X272568Y56264D01*
G01X275245D02*
Y57366D01*
G01Y60921D02*
X271899D01*
X274297Y59221D01*
Y61518D01*
G01X267678Y54271D02*
X267511Y53995D01*
X267399Y53674D01*
Y53306D01*
X267567Y52893D01*
X267846Y52571D01*
X268180Y52342D01*
X268738Y52158D01*
X269240Y52112D01*
X269742Y52204D01*
X270076Y52342D01*
X270411Y52617D01*
X270634Y52939D01*
X270745Y53260D01*
Y53582D01*
X270634Y53903D01*
X270467Y54179D01*
X270244Y54409D01*
G01X270745Y56815D02*
X267399D01*
X268068Y56264D01*
G01X270745D02*
Y57366D01*
G01X270076Y59359D02*
X270467Y59635D01*
X270690Y60002D01*
X270745Y60416D01*
X270690Y60783D01*
X270411Y61151D01*
X270076Y61380D01*
X269742Y61426D01*
X269351Y61334D01*
X269072Y61013D01*
X268961Y60691D01*
Y60278D01*
G01Y60691D02*
X268794Y60967D01*
X268515Y61197D01*
X268180Y61288D01*
X267846Y61197D01*
X267567Y60967D01*
X267399Y60553D01*
X267455Y60140D01*
X267678Y59727D01*
G54D13*
G01X178024Y67315D02*
Y79815D01*
X161236D01*
Y65815D01*
X178024D01*
Y67315D01*
G01Y83315D02*
Y95815D01*
X161236D01*
Y81815D01*
X178024D01*
Y83315D01*
M02*
