M48
INCH,LZ
T01C.01
T02C.011799
;LEADER: 12 
;HEADER: 
;CODE  : ASCII 
;FILE  : Touch_Board_03AUG15_1930-1-2.drl for  ... layers TOP and BOTTOM
;T01 Holesize 1. = 10.000000 Tolerance = +3.000000/-3.000000 PLATED MILS Quantity = 78
;T02 Holesize 2. = 11.799000 Tolerance = +3.000000/-3.000000 PLATED MILS Quantity = 16
%
G90
T01
X0238528Y0083415
X018963Y0075315
X018913Y0070315
X023833Y0078674
X018893Y0092115
X0207868Y0087575
X018923Y0082015
X0207868Y0084995
X023833Y0075215
X0257012Y0056815
X017963Y0054315
X018563Y0059315
X019763Y0071815
X021113Y0096815
X0090032Y0028815
X027263
X0248662Y0046783
X026873Y0063915
X015313Y0087815
X027193Y0084515
X0209785Y0064315
X0245062Y0080215
X0233762Y0065583
X024643Y0066415
X022563Y0068215
X014113Y0083815
X013713
X014113Y0087815
X0162363Y0046783
X0066064
X0186331Y0028815
X011863Y0068315
X0185008Y0109515
X0181008
Y0105515
Y0101515
X0193228Y0105155
Y0102155
X0193008Y0109515
X0189008
X012263Y0068315
R02X0004
X014713Y0109315
X0272368Y0089395
Y0093395
X020963Y0109315
X0228708Y0109515
R02X-0004
X0216118Y0109755
X023973Y0100315
X0244708Y0109515
X0240708
X0236868
X0232708
X0261788Y0109455
X0248708Y0109515
R02X0004
X0272368Y0097395
R03Y0004
X0269788Y0109455
X0265788
X0253076Y0055261
X0262576Y0045761
X020463Y0071815
X026363Y0080315
X018913Y0086815
X019113Y0078315
X014713Y0105315
Y0101815
X006663Y0051815
X0088586Y0045761
X0166777Y0055261
X0184885Y0045761
T02
X022536Y0081805
Y0077105
X023006
Y0081805
X021596Y0077105
Y0081805
X022066
Y0077105
X022536Y0091205
Y0086505
X023006
Y0091205
X021596
Y0086505
X022066Y0091205
Y0086505
M30
