  0
SECTION
  2
HEADER
  9
$ACADVER
  1
AC1009
  9
$INSBASE
 10
0.000000
 20
0.000000
  9
$LIMMIN
 10
-635.000000
 20
-635.000000
  9
$LIMMAX
 10
635.000000
 20
635.000000
  9
$EXTMIN
 10
-635.000000
 20
-635.000000
  9
$EXTMAX
 10
635.000000
 20
635.000000
  9
$ATTMODE
 70
0
  9
$LUNITS
 70
2
  9
$LUPREC
 70
3
  9
$THICKNESS
 40
1.599994
  0
ENDSEC
  0
SECTION
  2
TABLES
  0
TABLE
  2
LTYPE
 70
1
  0
LTYPE
  3
Solid Line
  2
CONTINUOUS
 70
0
 72
65
 73
0
 40
0.000000
  0
ENDTAB
  0
TABLE
  2
LAYER
 70
6
  0
LAYER
  2
BG_OUTLINE
 70
0
 62
1
  6
CONTINUOUS
  0
LAYER
  2
DF_FILM_LABEL_OUTLINE
 70
0
 62
2
  6
CONTINUOUS
  0
LAYER
  2
DF_ASS_TOP
 70
0
 62
3
  6
CONTINUOUS
  0
LAYER
  2
PG_ASSEMBLY_TOP
 70
0
 62
4
  6
CONTINUOUS
  0
LAYER
  2
PIN_TOP
 70
0
 62
5
  6
CONTINUOUS
  0
LAYER
  2
RD_ASSEMBLY_TOP
 70
0
 62
6
  6
CONTINUOUS
  0
ENDTAB
  0
TABLE
  2
STYLE
 70
1
  0
STYLE
  2
STANDARD
 70
0
 40
0.000000
 41
1.000000
 50
0.000000
 71
0
 42
0.200000
  3
txt
  0
ENDTAB
  0
ENDSEC
  0
SECTION
  2
BLOCKS
  0
BLOCK
  8
0
  2
FIGURE_CIRCLE
 70
0
 10
0.000000
 20
0.000000
  0
CIRCLE
  8
0
 10
0.000000
 20
0.000000
 40
0.500000
  0
ENDBLK
  0
BLOCK
  8
0
  2
FIGURE_SQUARE
 70
0
 10
0.000000
 20
0.000000
  0
POLYLINE
  8
0
 66
1
 70
1
 40
0.000000
 41
0.000000
 39
0.000000
  0
VERTEX
  8
0
 10
-0.500000
 20
-0.500000
 40
0.000000
 41
0.000000
 42
0.000000
  0
VERTEX
  8
0
 10
-0.500000
 20
0.500000
 40
0.000000
 41
0.000000
 42
0.000000
  0
VERTEX
  8
0
 10
0.500000
 20
0.500000
 40
0.000000
 41
0.000000
 42
0.000000
  0
VERTEX
  8
0
 10
0.500000
 20
-0.500000
 40
0.000000
 41
0.000000
 42
0.000000
  0
SEQEND
  0
ENDBLK
  0
BLOCK
  8
0
  2
FIGURE_HEX
 70
0
 10
0.000000
 20
0.000000
  0
POLYLINE
  8
0
 66
1
 70
1
 40
0.000000
 41
0.000000
 39
0.000000
  0
VERTEX
  8
0
 10
-0.500000
 20
0.000000
 40
0.000000
 41
0.000000
 42
0.000000
  0
VERTEX
  8
0
 10
-0.250000
 20
0.500000
 40
0.000000
 41
0.000000
 42
0.000000
  0
VERTEX
  8
0
 10
0.250000
 20
0.500000
 40
0.000000
 41
0.000000
 42
0.000000
  0
VERTEX
  8
0
 10
0.500000
 20
0.000000
 40
0.000000
 41
0.000000
 42
0.000000
  0
VERTEX
  8
0
 10
0.250000
 20
-0.500000
 40
0.000000
 41
0.000000
 42
0.000000
  0
VERTEX
  8
0
 10
-0.250000
 20
-0.500000
 40
0.000000
 41
0.000000
 42
0.000000
  0
SEQEND
  0
ENDBLK
  0
BLOCK
  8
0
  2
FIGURE_OCT
 70
0
 10
0.000000
 20
0.000000
  0
POLYLINE
  8
0
 66
1
 70
1
 40
0.000000
 41
0.000000
 39
0.000000
  0
VERTEX
  8
0
 10
-0.500000
 20
-0.207100
 40
0.000000
 41
0.000000
 42
0.000000
  0
VERTEX
  8
0
 10
-0.500000
 20
0.207100
 40
0.000000
 41
0.000000
 42
0.000000
  0
VERTEX
  8
0
 10
-0.207100
 20
0.500000
 40
0.000000
 41
0.000000
 42
0.000000
  0
VERTEX
  8
0
 10
0.207100
 20
0.500000
 40
0.000000
 41
0.000000
 42
0.000000
  0
VERTEX
  8
0
 10
0.500000
 20
0.207100
 40
0.000000
 41
0.000000
 42
0.000000
  0
VERTEX
  8
0
 10
0.500000
 20
-0.207100
 40
0.000000
 41
0.000000
 42
0.000000
  0
VERTEX
  8
0
 10
0.207100
 20
-0.500000
 40
0.000000
 41
0.000000
 42
0.000000
  0
VERTEX
  8
0
 10
-0.207100
 20
-0.500000
 40
0.000000
 41
0.000000
 42
0.000000
  0
SEQEND
  0
ENDBLK
  0
BLOCK
  8
0
  2
FIGURE_OBLONG
 70
0
 10
0.000000
 20
0.000000
  0
POLYLINE
  8
0
 66
1
 70
1
 40
0.000000
 41
0.000000
 39
0.000000
  0
VERTEX
  8
0
 10
-0.500000
 20
-0.125000
 40
0.000000
 41
0.000000
 42
0.000000
  0
VERTEX
  8
0
 10
-0.500000
 20
0.125000
 40
0.000000
 41
0.000000
 42
0.000000
  0
VERTEX
  8
0
 10
-0.416000
 20
0.375000
 40
0.000000
 41
0.000000
 42
0.000000
  0
VERTEX
  8
0
 10
-0.250000
 20
0.500000
 40
0.000000
 41
0.000000
 42
0.000000
  0
VERTEX
  8
0
 10
0.250000
 20
0.500000
 40
0.000000
 41
0.000000
 42
0.000000
  0
VERTEX
  8
0
 10
0.416000
 20
0.375000
 40
0.000000
 41
0.000000
 42
0.000000
  0
VERTEX
  8
0
 10
0.500000
 20
0.125000
 40
0.000000
 41
0.000000
 42
0.000000
  0
VERTEX
  8
0
 10
0.500000
 20
-0.125000
 40
0.000000
 41
0.000000
 42
0.000000
  0
VERTEX
  8
0
 10
0.416000
 20
-0.375000
 40
0.000000
 41
0.000000
 42
0.000000
  0
VERTEX
  8
0
 10
0.250000
 20
-0.500000
 40
0.000000
 41
0.000000
 42
0.000000
  0
VERTEX
  8
0
 10
-0.250000
 20
-0.500000
 40
0.000000
 41
0.000000
 42
0.000000
  0
VERTEX
  8
0
 10
-0.416000
 20
-0.375000
 40
0.000000
 41
0.000000
 42
0.000000
  0
SEQEND
  0
ENDBLK
  0
BLOCK
  8
0
  2
FIGURE_TRI
 70
0
 10
0.000000
 20
0.000000
  0
POLYLINE
  8
0
 66
1
 70
1
 40
0.000000
 41
0.000000
 39
0.000000
  0
VERTEX
  8
0
 10
-0.500000
 20
-0.500000
 40
0.000000
 41
0.000000
 42
0.000000
  0
VERTEX
  8
0
 10
0.000000
 20
0.500000
 40
0.000000
 41
0.000000
 42
0.000000
  0
VERTEX
  8
0
 10
0.500000
 20
-0.500000
 40
0.000000
 41
0.000000
 42
0.000000
  0
SEQEND
  0
ENDBLK
  0
BLOCK
  8
0
  2
FIGURE_CROSS
 70
0
 10
0.000000
 20
0.000000
  0
POLYLINE
  8
0
 66
1
 70
0
 40
0.000000
 41
0.000000
 39
0.000000
  0
VERTEX
  8
0
 10
-0.500000
 20
0.000000
 40
0.000000
 41
0.000000
 42
0.000000
  0
VERTEX
  8
0
 10
0.500000
 20
0.000000
 40
0.000000
 41
0.000000
 42
0.000000
  0
SEQEND
  0
POLYLINE
  8
0
 66
1
 70
0
 40
0.000000
 41
0.000000
 39
0.000000
  0
VERTEX
  8
0
 10
0.000000
 20
0.500000
 40
0.000000
 41
0.000000
 42
0.000000
  0
VERTEX
  8
0
 10
0.000000
 20
-0.500000
 40
0.000000
 41
0.000000
 42
0.000000
  0
SEQEND
  0
ENDBLK
  0
BLOCK
  8
0
  2
FIGURE_DIAMOND
 70
0
 10
0.000000
 20
0.000000
  0
POLYLINE
  8
0
 66
1
 70
1
 40
0.000000
 41
0.000000
 39
0.000000
  0
VERTEX
  8
0
 10
-0.500000
 20
0.000000
 40
0.000000
 41
0.000000
 42
0.000000
  0
VERTEX
  8
0
 10
0.000000
 20
0.500000
 40
0.000000
 41
0.000000
 42
0.000000
  0
VERTEX
  8
0
 10
0.500000
 20
0.000000
 40
0.000000
 41
0.000000
 42
0.000000
  0
VERTEX
  8
0
 10
0.000000
 20
-0.500000
 40
0.000000
 41
0.000000
 42
0.000000
  0
SEQEND
  0
ENDBLK
  0
ENDSEC
  0
SECTION
  2
ENTITIES
  0
POLYLINE
  8
PIN_TOP
 66
1
 70
1
 40
0.000000
 41
0.000000
 39
0.000000
  0
VERTEX
  8
PIN_TOP
 10
28.437840
 20
2.678430
 40
0.000000
 41
0.000000
 42
0.000000
  0
VERTEX
  8
PIN_TOP
 10
27.188160
 20
2.678430
 40
0.000000
 41
0.000000
 42
0.000000
  0
VERTEX
  8
PIN_TOP
 10
27.188160
 20
4.179570
 40
0.000000
 41
0.000000
 42
0.000000
  0
VERTEX
  8
PIN_TOP
 10
28.437840
 20
4.179570
 40
0.000000
 41
0.000000
 42
0.000000
  0
SEQEND
  0
POLYLINE
  8
PG_ASSEMBLY_TOP
 66
1
 70
1
 40
0.000000
 41
0.000000
 39
0.000000
  0
VERTEX
  8
PG_ASSEMBLY_TOP
 10
28.829000
 20
4.572000
 40
0.152400
 41
0.152400
 42
0.000000
  0
VERTEX
  8
PG_ASSEMBLY_TOP
 10
26.797000
 20
4.572000
 40
0.152400
 41
0.152400
 42
0.000000
  0
VERTEX
  8
PG_ASSEMBLY_TOP
 10
26.797000
 20
2.286000
 40
0.152400
 41
0.152400
 42
0.000000
  0
VERTEX
  8
PG_ASSEMBLY_TOP
 10
28.829000
 20
2.286000
 40
0.152400
 41
0.152400
 42
0.000000
  0
SEQEND
  0
TEXT
  8
RD_ASSEMBLY_TOP
 10
27.010360
 20
0.985520
 11
0.000000
 21
0.000000
 40
0.850900
 41
1.062687
 50
0.000000
  7
STANDARD
 71
0
 72
0
  1
TX
 73
0
  0
POLYLINE
  8
PIN_TOP
 66
1
 70
1
 40
0.000000
 41
0.000000
 39
0.000000
  0
VERTEX
  8
PIN_TOP
 10
30.723840
 20
2.678430
 40
0.000000
 41
0.000000
 42
0.000000
  0
VERTEX
  8
PIN_TOP
 10
29.474160
 20
2.678430
 40
0.000000
 41
0.000000
 42
0.000000
  0
VERTEX
  8
PIN_TOP
 10
29.474160
 20
4.179570
 40
0.000000
 41
0.000000
 42
0.000000
  0
VERTEX
  8
PIN_TOP
 10
30.723840
 20
4.179570
 40
0.000000
 41
0.000000
 42
0.000000
  0
SEQEND
  0
POLYLINE
  8
PG_ASSEMBLY_TOP
 66
1
 70
1
 40
0.000000
 41
0.000000
 39
0.000000
  0
VERTEX
  8
PG_ASSEMBLY_TOP
 10
31.115000
 20
4.572000
 40
0.152400
 41
0.152400
 42
0.000000
  0
VERTEX
  8
PG_ASSEMBLY_TOP
 10
29.083000
 20
4.572000
 40
0.152400
 41
0.152400
 42
0.000000
  0
VERTEX
  8
PG_ASSEMBLY_TOP
 10
29.083000
 20
2.286000
 40
0.152400
 41
0.152400
 42
0.000000
  0
VERTEX
  8
PG_ASSEMBLY_TOP
 10
31.115000
 20
2.286000
 40
0.152400
 41
0.152400
 42
0.000000
  0
SEQEND
  0
TEXT
  8
RD_ASSEMBLY_TOP
 10
29.296360
 20
0.985520
 11
0.000000
 21
0.000000
 40
0.850900
 41
1.062687
 50
0.000000
  7
STANDARD
 71
0
 72
0
  1
RX
 73
0
  0
POLYLINE
  8
PIN_TOP
 66
1
 70
1
 40
0.000000
 41
0.000000
 39
0.000000
  0
VERTEX
  8
PIN_TOP
 10
11.419840
 20
20.966430
 40
0.000000
 41
0.000000
 42
0.000000
  0
VERTEX
  8
PIN_TOP
 10
10.170160
 20
20.966430
 40
0.000000
 41
0.000000
 42
0.000000
  0
VERTEX
  8
PIN_TOP
 10
10.170160
 20
22.467570
 40
0.000000
 41
0.000000
 42
0.000000
  0
VERTEX
  8
PIN_TOP
 10
11.419840
 20
22.467570
 40
0.000000
 41
0.000000
 42
0.000000
  0
SEQEND
  0
POLYLINE
  8
PG_ASSEMBLY_TOP
 66
1
 70
1
 40
0.000000
 41
0.000000
 39
0.000000
  0
VERTEX
  8
PG_ASSEMBLY_TOP
 10
11.811000
 20
22.860000
 40
0.152400
 41
0.152400
 42
0.000000
  0
VERTEX
  8
PG_ASSEMBLY_TOP
 10
9.779000
 20
22.860000
 40
0.152400
 41
0.152400
 42
0.000000
  0
VERTEX
  8
PG_ASSEMBLY_TOP
 10
9.779000
 20
20.574000
 40
0.152400
 41
0.152400
 42
0.000000
  0
VERTEX
  8
PG_ASSEMBLY_TOP
 10
11.811000
 20
20.574000
 40
0.152400
 41
0.152400
 42
0.000000
  0
SEQEND
  0
TEXT
  8
RD_ASSEMBLY_TOP
 10
6.873240
 20
21.178520
 11
0.000000
 21
0.000000
 40
0.850900
 41
1.062687
 50
0.000000
  7
STANDARD
 71
0
 72
0
  1
GND
 73
0
  0
POLYLINE
  8
PIN_TOP
 66
1
 70
1
 40
0.000000
 41
0.000000
 39
0.000000
  0
VERTEX
  8
PIN_TOP
 10
25.643840
 20
21.601430
 40
0.000000
 41
0.000000
 42
0.000000
  0
VERTEX
  8
PIN_TOP
 10
24.394160
 20
21.601430
 40
0.000000
 41
0.000000
 42
0.000000
  0
VERTEX
  8
PIN_TOP
 10
24.394160
 20
23.102570
 40
0.000000
 41
0.000000
 42
0.000000
  0
VERTEX
  8
PIN_TOP
 10
25.643840
 20
23.102570
 40
0.000000
 41
0.000000
 42
0.000000
  0
SEQEND
  0
POLYLINE
  8
PG_ASSEMBLY_TOP
 66
1
 70
1
 40
0.000000
 41
0.000000
 39
0.000000
  0
VERTEX
  8
PG_ASSEMBLY_TOP
 10
26.035000
 20
23.495000
 40
0.152400
 41
0.152400
 42
0.000000
  0
VERTEX
  8
PG_ASSEMBLY_TOP
 10
24.003000
 20
23.495000
 40
0.152400
 41
0.152400
 42
0.000000
  0
VERTEX
  8
PG_ASSEMBLY_TOP
 10
24.003000
 20
21.209000
 40
0.152400
 41
0.152400
 42
0.000000
  0
VERTEX
  8
PG_ASSEMBLY_TOP
 10
26.035000
 20
21.209000
 40
0.152400
 41
0.152400
 42
0.000000
  0
SEQEND
  0
TEXT
  8
RD_ASSEMBLY_TOP
 10
26.431240
 20
21.940520
 11
0.000000
 21
0.000000
 40
0.850900
 41
1.062687
 50
0.000000
  7
STANDARD
 71
0
 72
0
  1
VDD
 73
0
  0
CIRCLE
  8
PIN_TOP
 10
20.675600
 20
20.030440
 40
0.477520
  0
CIRCLE
  8
PIN_TOP
 10
20.675600
 20
21.300440
 40
0.477520
  0
CIRCLE
  8
PIN_TOP
 10
19.405600
 20
20.030440
 40
0.477520
  0
CIRCLE
  8
PIN_TOP
 10
19.405600
 20
21.300440
 40
0.477520
  0
CIRCLE
  8
PIN_TOP
 10
18.135600
 20
20.030440
 40
0.477520
  0
CIRCLE
  8
PIN_TOP
 10
18.135600
 20
21.300440
 40
0.477520
  0
CIRCLE
  8
PIN_TOP
 10
16.865600
 20
20.030440
 40
0.477520
  0
CIRCLE
  8
PIN_TOP
 10
16.865600
 20
21.300440
 40
0.477520
  0
CIRCLE
  8
PIN_TOP
 10
15.595600
 20
20.030440
 40
0.477520
  0
CIRCLE
  8
PIN_TOP
 10
15.595600
 20
21.300440
 40
0.477520
  0
CIRCLE
  8
PIN_TOP
 10
14.325600
 20
20.030440
 40
0.477520
  0
POLYLINE
  8
PIN_TOP
 66
1
 70
1
 40
0.000000
 41
0.000000
 39
0.000000
  0
VERTEX
  8
PIN_TOP
 10
13.848080
 20
20.822920
 40
0.000000
 41
0.000000
 42
0.000000
  0
VERTEX
  8
PIN_TOP
 10
13.848080
 20
21.777960
 40
0.000000
 41
0.000000
 42
0.000000
  0
VERTEX
  8
PIN_TOP
 10
14.803120
 20
21.777960
 40
0.000000
 41
0.000000
 42
0.000000
  0
VERTEX
  8
PIN_TOP
 10
14.803120
 20
20.822920
 40
0.000000
 41
0.000000
 42
0.000000
  0
SEQEND
  0
POLYLINE
  8
PIN_TOP
 66
1
 70
1
 40
0.000000
 41
0.000000
 39
0.000000
  0
VERTEX
  8
PIN_TOP
 10
19.540220
 20
16.670020
 40
0.000000
 41
0.000000
 42
0.000000
  0
VERTEX
  8
PIN_TOP
 10
19.270980
 20
16.670020
 40
0.000000
 41
0.000000
 42
-0.414648
  0
VERTEX
  8
PIN_TOP
 10
19.136360
 20
16.804640
 40
0.000000
 41
0.000000
 42
0.000000
  0
VERTEX
  8
PIN_TOP
 10
19.136360
 20
17.084040
 40
0.000000
 41
0.000000
 42
-0.414648
  0
VERTEX
  8
PIN_TOP
 10
19.270980
 20
17.218660
 40
0.000000
 41
0.000000
 42
0.000000
  0
VERTEX
  8
PIN_TOP
 10
19.540220
 20
17.218660
 40
0.000000
 41
0.000000
 42
-0.414648
  0
VERTEX
  8
PIN_TOP
 10
19.674840
 20
17.084040
 40
0.000000
 41
0.000000
 42
0.000000
  0
VERTEX
  8
PIN_TOP
 10
19.674840
 20
16.804640
 40
0.000000
 41
0.000000
 42
-0.414648
  0
SEQEND
  0
POLYLINE
  8
PIN_TOP
 66
1
 70
1
 40
0.000000
 41
0.000000
 39
0.000000
  0
VERTEX
  8
PIN_TOP
 10
19.540220
 20
17.470120
 40
0.000000
 41
0.000000
 42
0.000000
  0
VERTEX
  8
PIN_TOP
 10
19.270980
 20
17.470120
 40
0.000000
 41
0.000000
 42
-0.414648
  0
VERTEX
  8
PIN_TOP
 10
19.136360
 20
17.604740
 40
0.000000
 41
0.000000
 42
0.000000
  0
VERTEX
  8
PIN_TOP
 10
19.136360
 20
17.884140
 40
0.000000
 41
0.000000
 42
-0.414648
  0
VERTEX
  8
PIN_TOP
 10
19.270980
 20
18.018760
 40
0.000000
 41
0.000000
 42
0.000000
  0
VERTEX
  8
PIN_TOP
 10
19.540220
 20
18.018760
 40
0.000000
 41
0.000000
 42
-0.414648
  0
VERTEX
  8
PIN_TOP
 10
19.674840
 20
17.884140
 40
0.000000
 41
0.000000
 42
0.000000
  0
VERTEX
  8
PIN_TOP
 10
19.674840
 20
17.604740
 40
0.000000
 41
0.000000
 42
-0.414648
  0
SEQEND
  0
POLYLINE
  8
PG_ASSEMBLY_TOP
 66
1
 70
0
 40
0.000000
 41
0.000000
 39
0.000000
  0
VERTEX
  8
PG_ASSEMBLY_TOP
 10
19.156680
 20
17.594580
 40
0.000000
 41
0.000000
 42
0.000000
  0
VERTEX
  8
PG_ASSEMBLY_TOP
 10
19.156680
 20
17.843500
 40
0.000000
 41
0.000000
 42
0.000000
  0
SEQEND
  0
POLYLINE
  8
PG_ASSEMBLY_TOP
 66
1
 70
0
 40
0.000000
 41
0.000000
 39
0.000000
  0
VERTEX
  8
PG_ASSEMBLY_TOP
 10
19.156680
 20
17.843500
 40
0.000000
 41
0.000000
 42
0.000000
  0
VERTEX
  8
PG_ASSEMBLY_TOP
 10
19.654520
 20
17.843500
 40
0.000000
 41
0.000000
 42
0.000000
  0
SEQEND
  0
POLYLINE
  8
PG_ASSEMBLY_TOP
 66
1
 70
0
 40
0.000000
 41
0.000000
 39
0.000000
  0
VERTEX
  8
PG_ASSEMBLY_TOP
 10
19.654520
 20
17.843500
 40
0.000000
 41
0.000000
 42
0.000000
  0
VERTEX
  8
PG_ASSEMBLY_TOP
 10
19.654520
 20
17.594580
 40
0.000000
 41
0.000000
 42
0.000000
  0
SEQEND
  0
POLYLINE
  8
PG_ASSEMBLY_TOP
 66
1
 70
0
 40
0.000000
 41
0.000000
 39
0.000000
  0
VERTEX
  8
PG_ASSEMBLY_TOP
 10
19.654520
 20
17.543780
 40
0.000000
 41
0.000000
 42
0.000000
  0
VERTEX
  8
PG_ASSEMBLY_TOP
 10
19.654520
 20
17.145000
 40
0.000000
 41
0.000000
 42
0.000000
  0
SEQEND
  0
POLYLINE
  8
PG_ASSEMBLY_TOP
 66
1
 70
0
 40
0.000000
 41
0.000000
 39
0.000000
  0
VERTEX
  8
PG_ASSEMBLY_TOP
 10
19.156680
 20
17.145000
 40
0.000000
 41
0.000000
 42
0.000000
  0
VERTEX
  8
PG_ASSEMBLY_TOP
 10
19.156680
 20
17.543780
 40
0.000000
 41
0.000000
 42
0.000000
  0
SEQEND
  0
POLYLINE
  8
PG_ASSEMBLY_TOP
 66
1
 70
0
 40
0.000000
 41
0.000000
 39
0.000000
  0
VERTEX
  8
PG_ASSEMBLY_TOP
 10
19.654520
 20
17.094200
 40
0.000000
 41
0.000000
 42
0.000000
  0
VERTEX
  8
PG_ASSEMBLY_TOP
 10
19.654520
 20
16.845280
 40
0.000000
 41
0.000000
 42
0.000000
  0
SEQEND
  0
POLYLINE
  8
PG_ASSEMBLY_TOP
 66
1
 70
0
 40
0.000000
 41
0.000000
 39
0.000000
  0
VERTEX
  8
PG_ASSEMBLY_TOP
 10
19.654520
 20
16.845280
 40
0.000000
 41
0.000000
 42
0.000000
  0
VERTEX
  8
PG_ASSEMBLY_TOP
 10
19.156680
 20
16.845280
 40
0.000000
 41
0.000000
 42
0.000000
  0
SEQEND
  0
POLYLINE
  8
PG_ASSEMBLY_TOP
 66
1
 70
0
 40
0.000000
 41
0.000000
 39
0.000000
  0
VERTEX
  8
PG_ASSEMBLY_TOP
 10
19.156680
 20
16.845280
 40
0.000000
 41
0.000000
 42
0.000000
  0
VERTEX
  8
PG_ASSEMBLY_TOP
 10
19.156680
 20
17.094200
 40
0.000000
 41
0.000000
 42
0.000000
  0
SEQEND
  0
POLYLINE
  8
PG_ASSEMBLY_TOP
 66
1
 70
0
 40
0.000000
 41
0.000000
 39
0.000000
  0
VERTEX
  8
PG_ASSEMBLY_TOP
 10
19.156680
 20
17.543780
 40
0.000000
 41
0.000000
 42
0.000000
  0
VERTEX
  8
PG_ASSEMBLY_TOP
 10
19.156680
 20
17.594580
 40
0.000000
 41
0.000000
 42
0.000000
  0
SEQEND
  0
POLYLINE
  8
PG_ASSEMBLY_TOP
 66
1
 70
0
 40
0.000000
 41
0.000000
 39
0.000000
  0
VERTEX
  8
PG_ASSEMBLY_TOP
 10
19.156680
 20
17.094200
 40
0.000000
 41
0.000000
 42
0.000000
  0
VERTEX
  8
PG_ASSEMBLY_TOP
 10
19.156680
 20
17.145000
 40
0.000000
 41
0.000000
 42
0.000000
  0
SEQEND
  0
POLYLINE
  8
PG_ASSEMBLY_TOP
 66
1
 70
0
 40
0.000000
 41
0.000000
 39
0.000000
  0
VERTEX
  8
PG_ASSEMBLY_TOP
 10
19.654520
 20
17.145000
 40
0.000000
 41
0.000000
 42
0.000000
  0
VERTEX
  8
PG_ASSEMBLY_TOP
 10
19.654520
 20
17.094200
 40
0.000000
 41
0.000000
 42
0.000000
  0
SEQEND
  0
POLYLINE
  8
PG_ASSEMBLY_TOP
 66
1
 70
0
 40
0.000000
 41
0.000000
 39
0.000000
  0
VERTEX
  8
PG_ASSEMBLY_TOP
 10
19.654520
 20
17.594580
 40
0.000000
 41
0.000000
 42
0.000000
  0
VERTEX
  8
PG_ASSEMBLY_TOP
 10
19.654520
 20
17.543780
 40
0.000000
 41
0.000000
 42
0.000000
  0
SEQEND
  0
POLYLINE
  8
PG_ASSEMBLY_TOP
 66
1
 70
0
 40
0.000000
 41
0.000000
 39
0.000000
  0
VERTEX
  8
PG_ASSEMBLY_TOP
 10
19.156680
 20
17.094200
 40
0.000000
 41
0.000000
 42
0.000000
  0
VERTEX
  8
PG_ASSEMBLY_TOP
 10
19.654520
 20
17.094200
 40
0.000000
 41
0.000000
 42
0.000000
  0
SEQEND
  0
POLYLINE
  8
PG_ASSEMBLY_TOP
 66
1
 70
0
 40
0.000000
 41
0.000000
 39
0.000000
  0
VERTEX
  8
PG_ASSEMBLY_TOP
 10
19.654520
 20
17.594580
 40
0.000000
 41
0.000000
 42
0.000000
  0
VERTEX
  8
PG_ASSEMBLY_TOP
 10
19.156680
 20
17.594580
 40
0.000000
 41
0.000000
 42
0.000000
  0
SEQEND
  0
TEXT
  8
RD_ASSEMBLY_TOP
 10
18.856960
 20
16.814800
 11
0.000000
 21
0.000000
 40
0.635000
 41
0.880000
 50
90.000000
  7
STANDARD
 71
0
 72
0
  1
C1
 73
0
  0
POLYLINE
  8
PIN_TOP
 66
1
 70
1
 40
0.000000
 41
0.000000
 39
0.000000
  0
VERTEX
  8
PIN_TOP
 10
27.129740
 20
5.207000
 40
0.000000
 41
0.000000
 42
0.000000
  0
VERTEX
  8
PIN_TOP
 10
27.129740
 20
6.207760
 40
0.000000
 41
0.000000
 42
0.000000
  0
VERTEX
  8
PIN_TOP
 10
28.529280
 20
6.207760
 40
0.000000
 41
0.000000
 42
0.000000
  0
VERTEX
  8
PIN_TOP
 10
28.529280
 20
5.207000
 40
0.000000
 41
0.000000
 42
0.000000
  0
SEQEND
  0
POLYLINE
  8
PIN_TOP
 66
1
 70
1
 40
0.000000
 41
0.000000
 39
0.000000
  0
VERTEX
  8
PIN_TOP
 10
29.329380
 20
6.156960
 40
0.000000
 41
0.000000
 42
0.000000
  0
VERTEX
  8
PIN_TOP
 10
29.329380
 20
7.157720
 40
0.000000
 41
0.000000
 42
0.000000
  0
VERTEX
  8
PIN_TOP
 10
30.728920
 20
7.157720
 40
0.000000
 41
0.000000
 42
0.000000
  0
VERTEX
  8
PIN_TOP
 10
30.728920
 20
6.156960
 40
0.000000
 41
0.000000
 42
0.000000
  0
SEQEND
  0
POLYLINE
  8
PIN_TOP
 66
1
 70
1
 40
0.000000
 41
0.000000
 39
0.000000
  0
VERTEX
  8
PIN_TOP
 10
27.129740
 20
7.106920
 40
0.000000
 41
0.000000
 42
0.000000
  0
VERTEX
  8
PIN_TOP
 10
27.129740
 20
8.107680
 40
0.000000
 41
0.000000
 42
0.000000
  0
VERTEX
  8
PIN_TOP
 10
28.529280
 20
8.107680
 40
0.000000
 41
0.000000
 42
0.000000
  0
VERTEX
  8
PIN_TOP
 10
28.529280
 20
7.106920
 40
0.000000
 41
0.000000
 42
0.000000
  0
SEQEND
  0
POLYLINE
  8
PG_ASSEMBLY_TOP
 66
1
 70
1
 40
0.000000
 41
0.000000
 39
0.000000
  0
VERTEX
  8
PG_ASSEMBLY_TOP
 10
26.723340
 20
7.620000
 40
0.203200
 41
0.203200
 42
1.000000
  0
VERTEX
  8
PG_ASSEMBLY_TOP
 10
26.362660
 20
7.620000
 40
0.203200
 41
0.203200
 42
1.000000
  0
SEQEND
  0
POLYLINE
  8
PG_ASSEMBLY_TOP
 66
1
 70
1
 40
0.000000
 41
0.000000
 39
0.000000
  0
VERTEX
  8
PG_ASSEMBLY_TOP
 10
28.229560
 20
8.158480
 40
0.203200
 41
0.203200
 42
0.000000
  0
VERTEX
  8
PG_ASSEMBLY_TOP
 10
28.229560
 20
5.156200
 40
0.203200
 41
0.203200
 42
0.000000
  0
VERTEX
  8
PG_ASSEMBLY_TOP
 10
29.631640
 20
5.156200
 40
0.203200
 41
0.203200
 42
0.000000
  0
VERTEX
  8
PG_ASSEMBLY_TOP
 10
29.631640
 20
8.158480
 40
0.203200
 41
0.203200
 42
0.000000
  0
SEQEND
  0
TEXT
  8
RD_ASSEMBLY_TOP
 10
31.411333
 20
6.393180
 11
31.623000
 21
6.393180
 40
0.635000
 41
0.880000
 50
0.000000
  7
STANDARD
 71
0
 72
1
  1
Q3
 73
0
  0
POLYLINE
  8
PIN_TOP
 66
1
 70
1
 40
0.000000
 41
0.000000
 39
0.000000
  0
VERTEX
  8
PIN_TOP
 10
27.002740
 20
13.655040
 40
0.000000
 41
0.000000
 42
0.000000
  0
VERTEX
  8
PIN_TOP
 10
27.002740
 20
14.655800
 40
0.000000
 41
0.000000
 42
0.000000
  0
VERTEX
  8
PIN_TOP
 10
28.402280
 20
14.655800
 40
0.000000
 41
0.000000
 42
0.000000
  0
VERTEX
  8
PIN_TOP
 10
28.402280
 20
13.655040
 40
0.000000
 41
0.000000
 42
0.000000
  0
SEQEND
  0
POLYLINE
  8
PIN_TOP
 66
1
 70
1
 40
0.000000
 41
0.000000
 39
0.000000
  0
VERTEX
  8
PIN_TOP
 10
29.202380
 20
14.605000
 40
0.000000
 41
0.000000
 42
0.000000
  0
VERTEX
  8
PIN_TOP
 10
29.202380
 20
15.605760
 40
0.000000
 41
0.000000
 42
0.000000
  0
VERTEX
  8
PIN_TOP
 10
30.601920
 20
15.605760
 40
0.000000
 41
0.000000
 42
0.000000
  0
VERTEX
  8
PIN_TOP
 10
30.601920
 20
14.605000
 40
0.000000
 41
0.000000
 42
0.000000
  0
SEQEND
  0
POLYLINE
  8
PIN_TOP
 66
1
 70
1
 40
0.000000
 41
0.000000
 39
0.000000
  0
VERTEX
  8
PIN_TOP
 10
27.002740
 20
15.554960
 40
0.000000
 41
0.000000
 42
0.000000
  0
VERTEX
  8
PIN_TOP
 10
27.002740
 20
16.555720
 40
0.000000
 41
0.000000
 42
0.000000
  0
VERTEX
  8
PIN_TOP
 10
28.402280
 20
16.555720
 40
0.000000
 41
0.000000
 42
0.000000
  0
VERTEX
  8
PIN_TOP
 10
28.402280
 20
15.554960
 40
0.000000
 41
0.000000
 42
0.000000
  0
SEQEND
  0
POLYLINE
  8
PG_ASSEMBLY_TOP
 66
1
 70
1
 40
0.000000
 41
0.000000
 39
0.000000
  0
VERTEX
  8
PG_ASSEMBLY_TOP
 10
26.469340
 20
16.068040
 40
0.203200
 41
0.203200
 42
1.000000
  0
VERTEX
  8
PG_ASSEMBLY_TOP
 10
26.108660
 20
16.068040
 40
0.203200
 41
0.203200
 42
1.000000
  0
SEQEND
  0
POLYLINE
  8
PG_ASSEMBLY_TOP
 66
1
 70
1
 40
0.000000
 41
0.000000
 39
0.000000
  0
VERTEX
  8
PG_ASSEMBLY_TOP
 10
28.102560
 20
16.606520
 40
0.203200
 41
0.203200
 42
0.000000
  0
VERTEX
  8
PG_ASSEMBLY_TOP
 10
28.102560
 20
13.604240
 40
0.203200
 41
0.203200
 42
0.000000
  0
VERTEX
  8
PG_ASSEMBLY_TOP
 10
29.504640
 20
13.604240
 40
0.203200
 41
0.203200
 42
0.000000
  0
VERTEX
  8
PG_ASSEMBLY_TOP
 10
29.504640
 20
16.606520
 40
0.203200
 41
0.203200
 42
0.000000
  0
SEQEND
  0
TEXT
  8
RD_ASSEMBLY_TOP
 10
31.284333
 20
14.841220
 11
31.496000
 21
14.841220
 40
0.635000
 41
0.880000
 50
0.000000
  7
STANDARD
 71
0
 72
1
  1
Q1
 73
0
  0
POLYLINE
  8
PIN_TOP
 66
1
 70
1
 40
0.000000
 41
0.000000
 39
0.000000
  0
VERTEX
  8
PIN_TOP
 10
27.129740
 20
9.271000
 40
0.000000
 41
0.000000
 42
0.000000
  0
VERTEX
  8
PIN_TOP
 10
27.129740
 20
10.271760
 40
0.000000
 41
0.000000
 42
0.000000
  0
VERTEX
  8
PIN_TOP
 10
28.529280
 20
10.271760
 40
0.000000
 41
0.000000
 42
0.000000
  0
VERTEX
  8
PIN_TOP
 10
28.529280
 20
9.271000
 40
0.000000
 41
0.000000
 42
0.000000
  0
SEQEND
  0
POLYLINE
  8
PIN_TOP
 66
1
 70
1
 40
0.000000
 41
0.000000
 39
0.000000
  0
VERTEX
  8
PIN_TOP
 10
29.329380
 20
10.220960
 40
0.000000
 41
0.000000
 42
0.000000
  0
VERTEX
  8
PIN_TOP
 10
29.329380
 20
11.221720
 40
0.000000
 41
0.000000
 42
0.000000
  0
VERTEX
  8
PIN_TOP
 10
30.728920
 20
11.221720
 40
0.000000
 41
0.000000
 42
0.000000
  0
VERTEX
  8
PIN_TOP
 10
30.728920
 20
10.220960
 40
0.000000
 41
0.000000
 42
0.000000
  0
SEQEND
  0
POLYLINE
  8
PIN_TOP
 66
1
 70
1
 40
0.000000
 41
0.000000
 39
0.000000
  0
VERTEX
  8
PIN_TOP
 10
27.129740
 20
11.170920
 40
0.000000
 41
0.000000
 42
0.000000
  0
VERTEX
  8
PIN_TOP
 10
27.129740
 20
12.171680
 40
0.000000
 41
0.000000
 42
0.000000
  0
VERTEX
  8
PIN_TOP
 10
28.529280
 20
12.171680
 40
0.000000
 41
0.000000
 42
0.000000
  0
VERTEX
  8
PIN_TOP
 10
28.529280
 20
11.170920
 40
0.000000
 41
0.000000
 42
0.000000
  0
SEQEND
  0
POLYLINE
  8
PG_ASSEMBLY_TOP
 66
1
 70
1
 40
0.000000
 41
0.000000
 39
0.000000
  0
VERTEX
  8
PG_ASSEMBLY_TOP
 10
26.977340
 20
12.573000
 40
0.203200
 41
0.203200
 42
1.000000
  0
VERTEX
  8
PG_ASSEMBLY_TOP
 10
26.616660
 20
12.573000
 40
0.203200
 41
0.203200
 42
1.000000
  0
SEQEND
  0
POLYLINE
  8
PG_ASSEMBLY_TOP
 66
1
 70
1
 40
0.000000
 41
0.000000
 39
0.000000
  0
VERTEX
  8
PG_ASSEMBLY_TOP
 10
28.229560
 20
12.222480
 40
0.203200
 41
0.203200
 42
0.000000
  0
VERTEX
  8
PG_ASSEMBLY_TOP
 10
28.229560
 20
9.220200
 40
0.203200
 41
0.203200
 42
0.000000
  0
VERTEX
  8
PG_ASSEMBLY_TOP
 10
29.631640
 20
9.220200
 40
0.203200
 41
0.203200
 42
0.000000
  0
VERTEX
  8
PG_ASSEMBLY_TOP
 10
29.631640
 20
12.222480
 40
0.203200
 41
0.203200
 42
0.000000
  0
SEQEND
  0
TEXT
  8
RD_ASSEMBLY_TOP
 10
31.411333
 20
10.457180
 11
31.623000
 21
10.457180
 40
0.635000
 41
0.880000
 50
0.000000
  7
STANDARD
 71
0
 72
1
  1
Q2
 73
0
  0
POLYLINE
  8
PIN_TOP
 66
1
 70
1
 40
0.000000
 41
0.000000
 39
0.000000
  0
VERTEX
  8
PIN_TOP
 10
21.155660
 20
11.813540
 40
0.000000
 41
0.000000
 42
0.000000
  0
VERTEX
  8
PIN_TOP
 10
21.155660
 20
12.313920
 40
0.000000
 41
0.000000
 42
0.000000
  0
VERTEX
  8
PIN_TOP
 10
21.755100
 20
12.313920
 40
0.000000
 41
0.000000
 42
0.000000
  0
VERTEX
  8
PIN_TOP
 10
21.755100
 20
11.813540
 40
0.000000
 41
0.000000
 42
0.000000
  0
SEQEND
  0
POLYLINE
  8
PIN_TOP
 66
1
 70
1
 40
0.000000
 41
0.000000
 39
0.000000
  0
VERTEX
  8
PIN_TOP
 10
20.154900
 20
11.813540
 40
0.000000
 41
0.000000
 42
0.000000
  0
VERTEX
  8
PIN_TOP
 10
20.154900
 20
12.313920
 40
0.000000
 41
0.000000
 42
0.000000
  0
VERTEX
  8
PIN_TOP
 10
20.754340
 20
12.313920
 40
0.000000
 41
0.000000
 42
0.000000
  0
VERTEX
  8
PIN_TOP
 10
20.754340
 20
11.813540
 40
0.000000
 41
0.000000
 42
0.000000
  0
SEQEND
  0
POLYLINE
  8
PG_ASSEMBLY_TOP
 66
1
 70
1
 40
0.000000
 41
0.000000
 39
0.000000
  0
VERTEX
  8
PG_ASSEMBLY_TOP
 10
20.454620
 20
11.816080
 40
0.152400
 41
0.152400
 42
0.000000
  0
VERTEX
  8
PG_ASSEMBLY_TOP
 10
21.455380
 20
11.816080
 40
0.152400
 41
0.152400
 42
0.000000
  0
VERTEX
  8
PG_ASSEMBLY_TOP
 10
21.455380
 20
12.313920
 40
0.152400
 41
0.152400
 42
0.000000
  0
VERTEX
  8
PG_ASSEMBLY_TOP
 10
20.454620
 20
12.313920
 40
0.152400
 41
0.152400
 42
0.000000
  0
SEQEND
  0
TEXT
  8
RD_ASSEMBLY_TOP
 10
18.288000
 20
11.727180
 11
0.000000
 21
0.000000
 40
0.635000
 41
0.880000
 50
0.000000
  7
STANDARD
 71
0
 72
0
  1
C29
 73
0
  0
POLYLINE
  8
PIN_TOP
 66
1
 70
1
 40
0.000000
 41
0.000000
 39
0.000000
  0
VERTEX
  8
PIN_TOP
 10
14.578330
 20
5.153660
 40
0.000000
 41
0.000000
 42
0.000000
  0
VERTEX
  8
PIN_TOP
 10
14.077950
 20
5.153660
 40
0.000000
 41
0.000000
 42
0.000000
  0
VERTEX
  8
PIN_TOP
 10
14.077950
 20
5.753100
 40
0.000000
 41
0.000000
 42
0.000000
  0
VERTEX
  8
PIN_TOP
 10
14.578330
 20
5.753100
 40
0.000000
 41
0.000000
 42
0.000000
  0
SEQEND
  0
POLYLINE
  8
PIN_TOP
 66
1
 70
1
 40
0.000000
 41
0.000000
 39
0.000000
  0
VERTEX
  8
PIN_TOP
 10
14.578330
 20
4.152900
 40
0.000000
 41
0.000000
 42
0.000000
  0
VERTEX
  8
PIN_TOP
 10
14.077950
 20
4.152900
 40
0.000000
 41
0.000000
 42
0.000000
  0
VERTEX
  8
PIN_TOP
 10
14.077950
 20
4.752340
 40
0.000000
 41
0.000000
 42
0.000000
  0
VERTEX
  8
PIN_TOP
 10
14.578330
 20
4.752340
 40
0.000000
 41
0.000000
 42
0.000000
  0
SEQEND
  0
POLYLINE
  8
PG_ASSEMBLY_TOP
 66
1
 70
1
 40
0.000000
 41
0.000000
 39
0.000000
  0
VERTEX
  8
PG_ASSEMBLY_TOP
 10
14.577060
 20
4.452620
 40
0.152400
 41
0.152400
 42
0.000000
  0
VERTEX
  8
PG_ASSEMBLY_TOP
 10
14.577060
 20
5.453380
 40
0.152400
 41
0.152400
 42
0.000000
  0
VERTEX
  8
PG_ASSEMBLY_TOP
 10
14.079220
 20
5.453380
 40
0.152400
 41
0.152400
 42
0.000000
  0
VERTEX
  8
PG_ASSEMBLY_TOP
 10
14.079220
 20
4.452620
 40
0.152400
 41
0.152400
 42
0.000000
  0
SEQEND
  0
TEXT
  8
RD_ASSEMBLY_TOP
 10
14.579600
 20
3.472180
 11
0.000000
 21
0.000000
 40
0.635000
 41
0.880000
 50
0.000000
  7
STANDARD
 71
0
 72
0
  1
C12
 73
0
  0
POLYLINE
  8
PIN_TOP
 66
1
 70
1
 40
0.000000
 41
0.000000
 39
0.000000
  0
VERTEX
  8
PIN_TOP
 10
13.764260
 20
6.405880
 40
0.000000
 41
0.000000
 42
0.000000
  0
VERTEX
  8
PIN_TOP
 10
13.764260
 20
6.906260
 40
0.000000
 41
0.000000
 42
0.000000
  0
VERTEX
  8
PIN_TOP
 10
14.363700
 20
6.906260
 40
0.000000
 41
0.000000
 42
0.000000
  0
VERTEX
  8
PIN_TOP
 10
14.363700
 20
6.405880
 40
0.000000
 41
0.000000
 42
0.000000
  0
SEQEND
  0
POLYLINE
  8
PIN_TOP
 66
1
 70
1
 40
0.000000
 41
0.000000
 39
0.000000
  0
VERTEX
  8
PIN_TOP
 10
12.763500
 20
6.405880
 40
0.000000
 41
0.000000
 42
0.000000
  0
VERTEX
  8
PIN_TOP
 10
12.763500
 20
6.906260
 40
0.000000
 41
0.000000
 42
0.000000
  0
VERTEX
  8
PIN_TOP
 10
13.362940
 20
6.906260
 40
0.000000
 41
0.000000
 42
0.000000
  0
VERTEX
  8
PIN_TOP
 10
13.362940
 20
6.405880
 40
0.000000
 41
0.000000
 42
0.000000
  0
SEQEND
  0
POLYLINE
  8
PG_ASSEMBLY_TOP
 66
1
 70
1
 40
0.000000
 41
0.000000
 39
0.000000
  0
VERTEX
  8
PG_ASSEMBLY_TOP
 10
13.063220
 20
6.408420
 40
0.152400
 41
0.152400
 42
0.000000
  0
VERTEX
  8
PG_ASSEMBLY_TOP
 10
14.063980
 20
6.408420
 40
0.152400
 41
0.152400
 42
0.000000
  0
VERTEX
  8
PG_ASSEMBLY_TOP
 10
14.063980
 20
6.906260
 40
0.152400
 41
0.152400
 42
0.000000
  0
VERTEX
  8
PG_ASSEMBLY_TOP
 10
13.063220
 20
6.906260
 40
0.152400
 41
0.152400
 42
0.000000
  0
SEQEND
  0
TEXT
  8
RD_ASSEMBLY_TOP
 10
12.674600
 20
7.282180
 11
0.000000
 21
0.000000
 40
0.635000
 41
0.880000
 50
0.000000
  7
STANDARD
 71
0
 72
0
  1
C9
 73
0
  0
POLYLINE
  8
PIN_TOP
 66
1
 70
1
 40
0.000000
 41
0.000000
 39
0.000000
  0
VERTEX
  8
PIN_TOP
 10
18.590260
 20
13.614400
 40
0.000000
 41
0.000000
 42
0.000000
  0
VERTEX
  8
PIN_TOP
 10
18.590260
 20
14.114780
 40
0.000000
 41
0.000000
 42
0.000000
  0
VERTEX
  8
PIN_TOP
 10
19.189700
 20
14.114780
 40
0.000000
 41
0.000000
 42
0.000000
  0
VERTEX
  8
PIN_TOP
 10
19.189700
 20
13.614400
 40
0.000000
 41
0.000000
 42
0.000000
  0
SEQEND
  0
POLYLINE
  8
PIN_TOP
 66
1
 70
1
 40
0.000000
 41
0.000000
 39
0.000000
  0
VERTEX
  8
PIN_TOP
 10
17.589500
 20
13.614400
 40
0.000000
 41
0.000000
 42
0.000000
  0
VERTEX
  8
PIN_TOP
 10
17.589500
 20
14.114780
 40
0.000000
 41
0.000000
 42
0.000000
  0
VERTEX
  8
PIN_TOP
 10
18.188940
 20
14.114780
 40
0.000000
 41
0.000000
 42
0.000000
  0
VERTEX
  8
PIN_TOP
 10
18.188940
 20
13.614400
 40
0.000000
 41
0.000000
 42
0.000000
  0
SEQEND
  0
POLYLINE
  8
PG_ASSEMBLY_TOP
 66
1
 70
1
 40
0.000000
 41
0.000000
 39
0.000000
  0
VERTEX
  8
PG_ASSEMBLY_TOP
 10
17.889220
 20
13.616940
 40
0.152400
 41
0.152400
 42
0.000000
  0
VERTEX
  8
PG_ASSEMBLY_TOP
 10
18.889980
 20
13.616940
 40
0.152400
 41
0.152400
 42
0.000000
  0
VERTEX
  8
PG_ASSEMBLY_TOP
 10
18.889980
 20
14.114780
 40
0.152400
 41
0.152400
 42
0.000000
  0
VERTEX
  8
PG_ASSEMBLY_TOP
 10
17.889220
 20
14.114780
 40
0.152400
 41
0.152400
 42
0.000000
  0
SEQEND
  0
TEXT
  8
RD_ASSEMBLY_TOP
 10
17.932400
 20
12.743180
 11
0.000000
 21
0.000000
 40
0.635000
 41
0.880000
 50
0.000000
  7
STANDARD
 71
0
 72
0
  1
C5
 73
0
  0
POLYLINE
  8
PIN_TOP
 66
1
 70
1
 40
0.000000
 41
0.000000
 39
0.000000
  0
VERTEX
  8
PIN_TOP
 10
10.013950
 20
6.964680
 40
0.000000
 41
0.000000
 42
0.000000
  0
VERTEX
  8
PIN_TOP
 10
10.514330
 20
6.964680
 40
0.000000
 41
0.000000
 42
0.000000
  0
VERTEX
  8
PIN_TOP
 10
10.514330
 20
6.365240
 40
0.000000
 41
0.000000
 42
0.000000
  0
VERTEX
  8
PIN_TOP
 10
10.013950
 20
6.365240
 40
0.000000
 41
0.000000
 42
0.000000
  0
SEQEND
  0
POLYLINE
  8
PIN_TOP
 66
1
 70
1
 40
0.000000
 41
0.000000
 39
0.000000
  0
VERTEX
  8
PIN_TOP
 10
10.013950
 20
7.965440
 40
0.000000
 41
0.000000
 42
0.000000
  0
VERTEX
  8
PIN_TOP
 10
10.514330
 20
7.965440
 40
0.000000
 41
0.000000
 42
0.000000
  0
VERTEX
  8
PIN_TOP
 10
10.514330
 20
7.366000
 40
0.000000
 41
0.000000
 42
0.000000
  0
VERTEX
  8
PIN_TOP
 10
10.013950
 20
7.366000
 40
0.000000
 41
0.000000
 42
0.000000
  0
SEQEND
  0
POLYLINE
  8
PG_ASSEMBLY_TOP
 66
1
 70
1
 40
0.000000
 41
0.000000
 39
0.000000
  0
VERTEX
  8
PG_ASSEMBLY_TOP
 10
10.015220
 20
7.665720
 40
0.152400
 41
0.152400
 42
0.000000
  0
VERTEX
  8
PG_ASSEMBLY_TOP
 10
10.015220
 20
6.664960
 40
0.152400
 41
0.152400
 42
0.000000
  0
VERTEX
  8
PG_ASSEMBLY_TOP
 10
10.513060
 20
6.664960
 40
0.152400
 41
0.152400
 42
0.000000
  0
VERTEX
  8
PG_ASSEMBLY_TOP
 10
10.513060
 20
7.665720
 40
0.152400
 41
0.152400
 42
0.000000
  0
SEQEND
  0
TEXT
  8
RD_ASSEMBLY_TOP
 10
10.373360
 20
8.153400
 11
0.000000
 21
0.000000
 40
0.635000
 41
0.880000
 50
90.000000
  7
STANDARD
 71
0
 72
0
  1
C8
 73
0
  0
POLYLINE
  8
PIN_TOP
 66
1
 70
1
 40
0.000000
 41
0.000000
 39
0.000000
  0
VERTEX
  8
PIN_TOP
 10
8.802370
 20
9.263380
 40
0.000000
 41
0.000000
 42
0.000000
  0
VERTEX
  8
PIN_TOP
 10
9.302750
 20
9.263380
 40
0.000000
 41
0.000000
 42
0.000000
  0
VERTEX
  8
PIN_TOP
 10
9.302750
 20
8.663940
 40
0.000000
 41
0.000000
 42
0.000000
  0
VERTEX
  8
PIN_TOP
 10
8.802370
 20
8.663940
 40
0.000000
 41
0.000000
 42
0.000000
  0
SEQEND
  0
POLYLINE
  8
PIN_TOP
 66
1
 70
1
 40
0.000000
 41
0.000000
 39
0.000000
  0
VERTEX
  8
PIN_TOP
 10
8.802370
 20
10.264140
 40
0.000000
 41
0.000000
 42
0.000000
  0
VERTEX
  8
PIN_TOP
 10
9.302750
 20
10.264140
 40
0.000000
 41
0.000000
 42
0.000000
  0
VERTEX
  8
PIN_TOP
 10
9.302750
 20
9.664700
 40
0.000000
 41
0.000000
 42
0.000000
  0
VERTEX
  8
PIN_TOP
 10
8.802370
 20
9.664700
 40
0.000000
 41
0.000000
 42
0.000000
  0
SEQEND
  0
POLYLINE
  8
PG_ASSEMBLY_TOP
 66
1
 70
1
 40
0.000000
 41
0.000000
 39
0.000000
  0
VERTEX
  8
PG_ASSEMBLY_TOP
 10
8.803640
 20
9.964420
 40
0.152400
 41
0.152400
 42
0.000000
  0
VERTEX
  8
PG_ASSEMBLY_TOP
 10
8.803640
 20
8.963660
 40
0.152400
 41
0.152400
 42
0.000000
  0
VERTEX
  8
PG_ASSEMBLY_TOP
 10
9.301480
 20
8.963660
 40
0.152400
 41
0.152400
 42
0.000000
  0
VERTEX
  8
PG_ASSEMBLY_TOP
 10
9.301480
 20
9.964420
 40
0.152400
 41
0.152400
 42
0.000000
  0
SEQEND
  0
TEXT
  8
RD_ASSEMBLY_TOP
 10
7.264400
 20
9.568180
 11
0.000000
 21
0.000000
 40
0.635000
 41
0.880000
 50
0.000000
  7
STANDARD
 71
0
 72
0
  1
C6
 73
0
  0
POLYLINE
  8
PIN_TOP
 66
1
 70
1
 40
0.000000
 41
0.000000
 39
0.000000
  0
VERTEX
  8
PIN_TOP
 10
7.556500
 20
9.213850
 40
0.000000
 41
0.000000
 42
0.000000
  0
VERTEX
  8
PIN_TOP
 10
7.556500
 20
8.713470
 40
0.000000
 41
0.000000
 42
0.000000
  0
VERTEX
  8
PIN_TOP
 10
6.957060
 20
8.713470
 40
0.000000
 41
0.000000
 42
0.000000
  0
VERTEX
  8
PIN_TOP
 10
6.957060
 20
9.213850
 40
0.000000
 41
0.000000
 42
0.000000
  0
SEQEND
  0
POLYLINE
  8
PIN_TOP
 66
1
 70
1
 40
0.000000
 41
0.000000
 39
0.000000
  0
VERTEX
  8
PIN_TOP
 10
8.557260
 20
9.213850
 40
0.000000
 41
0.000000
 42
0.000000
  0
VERTEX
  8
PIN_TOP
 10
8.557260
 20
8.713470
 40
0.000000
 41
0.000000
 42
0.000000
  0
VERTEX
  8
PIN_TOP
 10
7.957820
 20
8.713470
 40
0.000000
 41
0.000000
 42
0.000000
  0
VERTEX
  8
PIN_TOP
 10
7.957820
 20
9.213850
 40
0.000000
 41
0.000000
 42
0.000000
  0
SEQEND
  0
POLYLINE
  8
PG_ASSEMBLY_TOP
 66
1
 70
1
 40
0.000000
 41
0.000000
 39
0.000000
  0
VERTEX
  8
PG_ASSEMBLY_TOP
 10
8.257540
 20
9.212580
 40
0.152400
 41
0.152400
 42
0.000000
  0
VERTEX
  8
PG_ASSEMBLY_TOP
 10
7.256780
 20
9.212580
 40
0.152400
 41
0.152400
 42
0.000000
  0
VERTEX
  8
PG_ASSEMBLY_TOP
 10
7.256780
 20
8.714740
 40
0.152400
 41
0.152400
 42
0.000000
  0
VERTEX
  8
PG_ASSEMBLY_TOP
 10
8.257540
 20
8.714740
 40
0.152400
 41
0.152400
 42
0.000000
  0
SEQEND
  0
TEXT
  8
RD_ASSEMBLY_TOP
 10
5.740400
 20
8.610600
 11
0.000000
 21
0.000000
 40
0.635000
 41
0.880000
 50
0.000000
  7
STANDARD
 71
0
 72
0
  1
C7
 73
0
  0
POLYLINE
  8
PIN_TOP
 66
1
 70
1
 40
0.000000
 41
0.000000
 39
0.000000
  0
VERTEX
  8
PIN_TOP
 10
9.759950
 20
4.351020
 40
0.000000
 41
0.000000
 42
0.000000
  0
VERTEX
  8
PIN_TOP
 10
10.260330
 20
4.351020
 40
0.000000
 41
0.000000
 42
0.000000
  0
VERTEX
  8
PIN_TOP
 10
10.260330
 20
3.751580
 40
0.000000
 41
0.000000
 42
0.000000
  0
VERTEX
  8
PIN_TOP
 10
9.759950
 20
3.751580
 40
0.000000
 41
0.000000
 42
0.000000
  0
SEQEND
  0
POLYLINE
  8
PIN_TOP
 66
1
 70
1
 40
0.000000
 41
0.000000
 39
0.000000
  0
VERTEX
  8
PIN_TOP
 10
9.759950
 20
5.351780
 40
0.000000
 41
0.000000
 42
0.000000
  0
VERTEX
  8
PIN_TOP
 10
10.260330
 20
5.351780
 40
0.000000
 41
0.000000
 42
0.000000
  0
VERTEX
  8
PIN_TOP
 10
10.260330
 20
4.752340
 40
0.000000
 41
0.000000
 42
0.000000
  0
VERTEX
  8
PIN_TOP
 10
9.759950
 20
4.752340
 40
0.000000
 41
0.000000
 42
0.000000
  0
SEQEND
  0
POLYLINE
  8
PG_ASSEMBLY_TOP
 66
1
 70
1
 40
0.000000
 41
0.000000
 39
0.000000
  0
VERTEX
  8
PG_ASSEMBLY_TOP
 10
9.761220
 20
5.052060
 40
0.152400
 41
0.152400
 42
0.000000
  0
VERTEX
  8
PG_ASSEMBLY_TOP
 10
9.761220
 20
4.051300
 40
0.152400
 41
0.152400
 42
0.000000
  0
VERTEX
  8
PG_ASSEMBLY_TOP
 10
10.259060
 20
4.051300
 40
0.152400
 41
0.152400
 42
0.000000
  0
VERTEX
  8
PG_ASSEMBLY_TOP
 10
10.259060
 20
5.052060
 40
0.152400
 41
0.152400
 42
0.000000
  0
SEQEND
  0
TEXT
  8
RD_ASSEMBLY_TOP
 10
10.243820
 20
1.905000
 11
0.000000
 21
0.000000
 40
0.635000
 41
0.880000
 50
90.000000
  7
STANDARD
 71
0
 72
0
  1
C13
 73
0
  0
POLYLINE
  8
PIN_TOP
 66
1
 70
1
 40
0.000000
 41
0.000000
 39
0.000000
  0
VERTEX
  8
PIN_TOP
 10
8.040370
 20
5.369560
 40
0.000000
 41
0.000000
 42
0.000000
  0
VERTEX
  8
PIN_TOP
 10
8.540750
 20
5.369560
 40
0.000000
 41
0.000000
 42
0.000000
  0
VERTEX
  8
PIN_TOP
 10
8.540750
 20
4.770120
 40
0.000000
 41
0.000000
 42
0.000000
  0
VERTEX
  8
PIN_TOP
 10
8.040370
 20
4.770120
 40
0.000000
 41
0.000000
 42
0.000000
  0
SEQEND
  0
POLYLINE
  8
PIN_TOP
 66
1
 70
1
 40
0.000000
 41
0.000000
 39
0.000000
  0
VERTEX
  8
PIN_TOP
 10
8.040370
 20
6.370320
 40
0.000000
 41
0.000000
 42
0.000000
  0
VERTEX
  8
PIN_TOP
 10
8.540750
 20
6.370320
 40
0.000000
 41
0.000000
 42
0.000000
  0
VERTEX
  8
PIN_TOP
 10
8.540750
 20
5.770880
 40
0.000000
 41
0.000000
 42
0.000000
  0
VERTEX
  8
PIN_TOP
 10
8.040370
 20
5.770880
 40
0.000000
 41
0.000000
 42
0.000000
  0
SEQEND
  0
POLYLINE
  8
PG_ASSEMBLY_TOP
 66
1
 70
1
 40
0.000000
 41
0.000000
 39
0.000000
  0
VERTEX
  8
PG_ASSEMBLY_TOP
 10
8.041640
 20
6.070600
 40
0.152400
 41
0.152400
 42
0.000000
  0
VERTEX
  8
PG_ASSEMBLY_TOP
 10
8.041640
 20
5.069840
 40
0.152400
 41
0.152400
 42
0.000000
  0
VERTEX
  8
PG_ASSEMBLY_TOP
 10
8.539480
 20
5.069840
 40
0.152400
 41
0.152400
 42
0.000000
  0
VERTEX
  8
PG_ASSEMBLY_TOP
 10
8.539480
 20
6.070600
 40
0.152400
 41
0.152400
 42
0.000000
  0
SEQEND
  0
TEXT
  8
RD_ASSEMBLY_TOP
 10
8.468360
 20
3.048000
 11
0.000000
 21
0.000000
 40
0.635000
 41
0.880000
 50
90.000000
  7
STANDARD
 71
0
 72
0
  1
C10
 73
0
  0
POLYLINE
  8
PIN_TOP
 66
1
 70
1
 40
0.000000
 41
0.000000
 39
0.000000
  0
VERTEX
  8
PIN_TOP
 10
8.802370
 20
5.369560
 40
0.000000
 41
0.000000
 42
0.000000
  0
VERTEX
  8
PIN_TOP
 10
9.302750
 20
5.369560
 40
0.000000
 41
0.000000
 42
0.000000
  0
VERTEX
  8
PIN_TOP
 10
9.302750
 20
4.770120
 40
0.000000
 41
0.000000
 42
0.000000
  0
VERTEX
  8
PIN_TOP
 10
8.802370
 20
4.770120
 40
0.000000
 41
0.000000
 42
0.000000
  0
SEQEND
  0
POLYLINE
  8
PIN_TOP
 66
1
 70
1
 40
0.000000
 41
0.000000
 39
0.000000
  0
VERTEX
  8
PIN_TOP
 10
8.802370
 20
6.370320
 40
0.000000
 41
0.000000
 42
0.000000
  0
VERTEX
  8
PIN_TOP
 10
9.302750
 20
6.370320
 40
0.000000
 41
0.000000
 42
0.000000
  0
VERTEX
  8
PIN_TOP
 10
9.302750
 20
5.770880
 40
0.000000
 41
0.000000
 42
0.000000
  0
VERTEX
  8
PIN_TOP
 10
8.802370
 20
5.770880
 40
0.000000
 41
0.000000
 42
0.000000
  0
SEQEND
  0
POLYLINE
  8
PG_ASSEMBLY_TOP
 66
1
 70
1
 40
0.000000
 41
0.000000
 39
0.000000
  0
VERTEX
  8
PG_ASSEMBLY_TOP
 10
8.803640
 20
6.070600
 40
0.152400
 41
0.152400
 42
0.000000
  0
VERTEX
  8
PG_ASSEMBLY_TOP
 10
8.803640
 20
5.069840
 40
0.152400
 41
0.152400
 42
0.000000
  0
VERTEX
  8
PG_ASSEMBLY_TOP
 10
9.301480
 20
5.069840
 40
0.152400
 41
0.152400
 42
0.000000
  0
VERTEX
  8
PG_ASSEMBLY_TOP
 10
9.301480
 20
6.070600
 40
0.152400
 41
0.152400
 42
0.000000
  0
SEQEND
  0
TEXT
  8
RD_ASSEMBLY_TOP
 10
9.357360
 20
3.048000
 11
0.000000
 21
0.000000
 40
0.635000
 41
0.880000
 50
90.000000
  7
STANDARD
 71
0
 72
0
  1
C11
 73
0
  0
POLYLINE
  8
PIN_TOP
 66
1
 70
1
 40
0.000000
 41
0.000000
 39
0.000000
  0
VERTEX
  8
PIN_TOP
 10
9.175750
 20
14.414500
 40
0.000000
 41
0.000000
 42
0.000000
  0
VERTEX
  8
PIN_TOP
 10
8.675370
 20
14.414500
 40
0.000000
 41
0.000000
 42
0.000000
  0
VERTEX
  8
PIN_TOP
 10
8.675370
 20
15.013940
 40
0.000000
 41
0.000000
 42
0.000000
  0
VERTEX
  8
PIN_TOP
 10
9.175750
 20
15.013940
 40
0.000000
 41
0.000000
 42
0.000000
  0
SEQEND
  0
POLYLINE
  8
PIN_TOP
 66
1
 70
1
 40
0.000000
 41
0.000000
 39
0.000000
  0
VERTEX
  8
PIN_TOP
 10
9.175750
 20
13.413740
 40
0.000000
 41
0.000000
 42
0.000000
  0
VERTEX
  8
PIN_TOP
 10
8.675370
 20
13.413740
 40
0.000000
 41
0.000000
 42
0.000000
  0
VERTEX
  8
PIN_TOP
 10
8.675370
 20
14.013180
 40
0.000000
 41
0.000000
 42
0.000000
  0
VERTEX
  8
PIN_TOP
 10
9.175750
 20
14.013180
 40
0.000000
 41
0.000000
 42
0.000000
  0
SEQEND
  0
POLYLINE
  8
PG_ASSEMBLY_TOP
 66
1
 70
1
 40
0.000000
 41
0.000000
 39
0.000000
  0
VERTEX
  8
PG_ASSEMBLY_TOP
 10
9.174480
 20
13.713460
 40
0.152400
 41
0.152400
 42
0.000000
  0
VERTEX
  8
PG_ASSEMBLY_TOP
 10
9.174480
 20
14.714220
 40
0.152400
 41
0.152400
 42
0.000000
  0
VERTEX
  8
PG_ASSEMBLY_TOP
 10
8.676640
 20
14.714220
 40
0.152400
 41
0.152400
 42
0.000000
  0
VERTEX
  8
PG_ASSEMBLY_TOP
 10
8.676640
 20
13.713460
 40
0.152400
 41
0.152400
 42
0.000000
  0
SEQEND
  0
TEXT
  8
RD_ASSEMBLY_TOP
 10
9.230360
 20
15.341600
 11
0.000000
 21
0.000000
 40
0.635000
 41
0.880000
 50
90.000000
  7
STANDARD
 71
0
 72
0
  1
C4
 73
0
  0
POLYLINE
  8
PIN_TOP
 66
1
 70
1
 40
0.000000
 41
0.000000
 39
0.000000
  0
VERTEX
  8
PIN_TOP
 10
8.337550
 20
14.414500
 40
0.000000
 41
0.000000
 42
0.000000
  0
VERTEX
  8
PIN_TOP
 10
7.837170
 20
14.414500
 40
0.000000
 41
0.000000
 42
0.000000
  0
VERTEX
  8
PIN_TOP
 10
7.837170
 20
15.013940
 40
0.000000
 41
0.000000
 42
0.000000
  0
VERTEX
  8
PIN_TOP
 10
8.337550
 20
15.013940
 40
0.000000
 41
0.000000
 42
0.000000
  0
SEQEND
  0
POLYLINE
  8
PIN_TOP
 66
1
 70
1
 40
0.000000
 41
0.000000
 39
0.000000
  0
VERTEX
  8
PIN_TOP
 10
8.337550
 20
13.413740
 40
0.000000
 41
0.000000
 42
0.000000
  0
VERTEX
  8
PIN_TOP
 10
7.837170
 20
13.413740
 40
0.000000
 41
0.000000
 42
0.000000
  0
VERTEX
  8
PIN_TOP
 10
7.837170
 20
14.013180
 40
0.000000
 41
0.000000
 42
0.000000
  0
VERTEX
  8
PIN_TOP
 10
8.337550
 20
14.013180
 40
0.000000
 41
0.000000
 42
0.000000
  0
SEQEND
  0
POLYLINE
  8
PG_ASSEMBLY_TOP
 66
1
 70
1
 40
0.000000
 41
0.000000
 39
0.000000
  0
VERTEX
  8
PG_ASSEMBLY_TOP
 10
8.336280
 20
13.713460
 40
0.152400
 41
0.152400
 42
0.000000
  0
VERTEX
  8
PG_ASSEMBLY_TOP
 10
8.336280
 20
14.714220
 40
0.152400
 41
0.152400
 42
0.000000
  0
VERTEX
  8
PG_ASSEMBLY_TOP
 10
7.838440
 20
14.714220
 40
0.152400
 41
0.152400
 42
0.000000
  0
VERTEX
  8
PG_ASSEMBLY_TOP
 10
7.838440
 20
13.713460
 40
0.152400
 41
0.152400
 42
0.000000
  0
SEQEND
  0
TEXT
  8
RD_ASSEMBLY_TOP
 10
8.214360
 20
15.341600
 11
0.000000
 21
0.000000
 40
0.635000
 41
0.880000
 50
90.000000
  7
STANDARD
 71
0
 72
0
  1
C3
 73
0
  0
POLYLINE
  8
PIN_TOP
 66
1
 70
1
 40
0.000000
 41
0.000000
 39
0.000000
  0
VERTEX
  8
PIN_TOP
 10
8.802370
 20
11.117580
 40
0.000000
 41
0.000000
 42
0.000000
  0
VERTEX
  8
PIN_TOP
 10
9.302750
 20
11.117580
 40
0.000000
 41
0.000000
 42
0.000000
  0
VERTEX
  8
PIN_TOP
 10
9.302750
 20
10.467340
 40
0.000000
 41
0.000000
 42
0.000000
  0
VERTEX
  8
PIN_TOP
 10
8.802370
 20
10.467340
 40
0.000000
 41
0.000000
 42
0.000000
  0
SEQEND
  0
POLYLINE
  8
PIN_TOP
 66
1
 70
1
 40
0.000000
 41
0.000000
 39
0.000000
  0
VERTEX
  8
PIN_TOP
 10
8.802370
 20
12.067540
 40
0.000000
 41
0.000000
 42
0.000000
  0
VERTEX
  8
PIN_TOP
 10
9.302750
 20
12.067540
 40
0.000000
 41
0.000000
 42
0.000000
  0
VERTEX
  8
PIN_TOP
 10
9.302750
 20
11.417300
 40
0.000000
 41
0.000000
 42
0.000000
  0
VERTEX
  8
PIN_TOP
 10
8.802370
 20
11.417300
 40
0.000000
 41
0.000000
 42
0.000000
  0
SEQEND
  0
POLYLINE
  8
PG_ASSEMBLY_TOP
 66
1
 70
1
 40
0.000000
 41
0.000000
 39
0.000000
  0
VERTEX
  8
PG_ASSEMBLY_TOP
 10
9.253220
 20
10.767060
 40
0.000000
 41
0.000000
 42
0.000000
  0
VERTEX
  8
PG_ASSEMBLY_TOP
 10
8.851900
 20
10.767060
 40
0.000000
 41
0.000000
 42
0.000000
  0
VERTEX
  8
PG_ASSEMBLY_TOP
 10
8.851900
 20
11.767820
 40
0.000000
 41
0.000000
 42
0.000000
  0
VERTEX
  8
PG_ASSEMBLY_TOP
 10
9.253220
 20
11.767820
 40
0.000000
 41
0.000000
 42
0.000000
  0
SEQEND
  0
TEXT
  8
RD_ASSEMBLY_TOP
 10
7.264400
 20
10.584180
 11
0.000000
 21
0.000000
 40
0.635000
 41
0.880000
 50
0.000000
  7
STANDARD
 71
0
 72
0
  1
L2
 73
0
  0
POLYLINE
  8
PIN_TOP
 66
1
 70
1
 40
0.000000
 41
0.000000
 39
0.000000
  0
VERTEX
  8
PIN_TOP
 10
7.837170
 20
12.067540
 40
0.000000
 41
0.000000
 42
0.000000
  0
VERTEX
  8
PIN_TOP
 10
8.337550
 20
12.067540
 40
0.000000
 41
0.000000
 42
0.000000
  0
VERTEX
  8
PIN_TOP
 10
8.337550
 20
11.417300
 40
0.000000
 41
0.000000
 42
0.000000
  0
VERTEX
  8
PIN_TOP
 10
7.837170
 20
11.417300
 40
0.000000
 41
0.000000
 42
0.000000
  0
SEQEND
  0
POLYLINE
  8
PIN_TOP
 66
1
 70
1
 40
0.000000
 41
0.000000
 39
0.000000
  0
VERTEX
  8
PIN_TOP
 10
7.837170
 20
13.017500
 40
0.000000
 41
0.000000
 42
0.000000
  0
VERTEX
  8
PIN_TOP
 10
8.337550
 20
13.017500
 40
0.000000
 41
0.000000
 42
0.000000
  0
VERTEX
  8
PIN_TOP
 10
8.337550
 20
12.367260
 40
0.000000
 41
0.000000
 42
0.000000
  0
VERTEX
  8
PIN_TOP
 10
7.837170
 20
12.367260
 40
0.000000
 41
0.000000
 42
0.000000
  0
SEQEND
  0
POLYLINE
  8
PG_ASSEMBLY_TOP
 66
1
 70
1
 40
0.000000
 41
0.000000
 39
0.000000
  0
VERTEX
  8
PG_ASSEMBLY_TOP
 10
8.288020
 20
11.717020
 40
0.000000
 41
0.000000
 42
0.000000
  0
VERTEX
  8
PG_ASSEMBLY_TOP
 10
7.886700
 20
11.717020
 40
0.000000
 41
0.000000
 42
0.000000
  0
VERTEX
  8
PG_ASSEMBLY_TOP
 10
7.886700
 20
12.717780
 40
0.000000
 41
0.000000
 42
0.000000
  0
VERTEX
  8
PG_ASSEMBLY_TOP
 10
8.288020
 20
12.717780
 40
0.000000
 41
0.000000
 42
0.000000
  0
SEQEND
  0
TEXT
  8
RD_ASSEMBLY_TOP
 10
7.579360
 20
11.836400
 11
0.000000
 21
0.000000
 40
0.635000
 41
0.880000
 50
90.000000
  7
STANDARD
 71
0
 72
0
  1
L1
 73
0
  0
POLYLINE
  8
PIN_TOP
 66
1
 70
1
 40
0.000000
 41
0.000000
 39
0.000000
  0
VERTEX
  8
PIN_TOP
 10
8.802370
 20
7.510780
 40
0.000000
 41
0.000000
 42
0.000000
  0
VERTEX
  8
PIN_TOP
 10
9.302750
 20
7.510780
 40
0.000000
 41
0.000000
 42
0.000000
  0
VERTEX
  8
PIN_TOP
 10
9.302750
 20
6.860540
 40
0.000000
 41
0.000000
 42
0.000000
  0
VERTEX
  8
PIN_TOP
 10
8.802370
 20
6.860540
 40
0.000000
 41
0.000000
 42
0.000000
  0
SEQEND
  0
POLYLINE
  8
PIN_TOP
 66
1
 70
1
 40
0.000000
 41
0.000000
 39
0.000000
  0
VERTEX
  8
PIN_TOP
 10
8.802370
 20
8.460740
 40
0.000000
 41
0.000000
 42
0.000000
  0
VERTEX
  8
PIN_TOP
 10
9.302750
 20
8.460740
 40
0.000000
 41
0.000000
 42
0.000000
  0
VERTEX
  8
PIN_TOP
 10
9.302750
 20
7.810500
 40
0.000000
 41
0.000000
 42
0.000000
  0
VERTEX
  8
PIN_TOP
 10
8.802370
 20
7.810500
 40
0.000000
 41
0.000000
 42
0.000000
  0
SEQEND
  0
POLYLINE
  8
PG_ASSEMBLY_TOP
 66
1
 70
1
 40
0.000000
 41
0.000000
 39
0.000000
  0
VERTEX
  8
PG_ASSEMBLY_TOP
 10
9.253220
 20
7.160260
 40
0.000000
 41
0.000000
 42
0.000000
  0
VERTEX
  8
PG_ASSEMBLY_TOP
 10
8.851900
 20
7.160260
 40
0.000000
 41
0.000000
 42
0.000000
  0
VERTEX
  8
PG_ASSEMBLY_TOP
 10
8.851900
 20
8.161020
 40
0.000000
 41
0.000000
 42
0.000000
  0
VERTEX
  8
PG_ASSEMBLY_TOP
 10
9.253220
 20
8.161020
 40
0.000000
 41
0.000000
 42
0.000000
  0
SEQEND
  0
TEXT
  8
RD_ASSEMBLY_TOP
 10
7.518400
 20
7.282180
 11
0.000000
 21
0.000000
 40
0.635000
 41
0.880000
 50
0.000000
  7
STANDARD
 71
0
 72
0
  1
L3
 73
0
  0
POLYLINE
  8
PIN_TOP
 66
1
 70
1
 40
0.000000
 41
0.000000
 39
0.000000
  0
VERTEX
  8
PIN_TOP
 10
13.616940
 20
6.003290
 40
0.000000
 41
0.000000
 42
0.000000
  0
VERTEX
  8
PIN_TOP
 10
13.616940
 20
4.903470
 40
0.000000
 41
0.000000
 42
0.000000
  0
VERTEX
  8
PIN_TOP
 10
12.418060
 20
4.903470
 40
0.000000
 41
0.000000
 42
0.000000
  0
VERTEX
  8
PIN_TOP
 10
12.418060
 20
6.003290
 40
0.000000
 41
0.000000
 42
0.000000
  0
SEQEND
  0
POLYLINE
  8
PIN_TOP
 66
1
 70
1
 40
0.000000
 41
0.000000
 39
0.000000
  0
VERTEX
  8
PIN_TOP
 10
11.915140
 20
6.003290
 40
0.000000
 41
0.000000
 42
0.000000
  0
VERTEX
  8
PIN_TOP
 10
11.915140
 20
4.903470
 40
0.000000
 41
0.000000
 42
0.000000
  0
VERTEX
  8
PIN_TOP
 10
10.716260
 20
4.903470
 40
0.000000
 41
0.000000
 42
0.000000
  0
VERTEX
  8
PIN_TOP
 10
10.716260
 20
6.003290
 40
0.000000
 41
0.000000
 42
0.000000
  0
SEQEND
  0
POLYLINE
  8
PIN_TOP
 66
1
 70
1
 40
0.000000
 41
0.000000
 39
0.000000
  0
VERTEX
  8
PIN_TOP
 10
11.915140
 20
4.601210
 40
0.000000
 41
0.000000
 42
0.000000
  0
VERTEX
  8
PIN_TOP
 10
11.915140
 20
3.501390
 40
0.000000
 41
0.000000
 42
0.000000
  0
VERTEX
  8
PIN_TOP
 10
10.716260
 20
3.501390
 40
0.000000
 41
0.000000
 42
0.000000
  0
VERTEX
  8
PIN_TOP
 10
10.716260
 20
4.601210
 40
0.000000
 41
0.000000
 42
0.000000
  0
SEQEND
  0
POLYLINE
  8
PIN_TOP
 66
1
 70
1
 40
0.000000
 41
0.000000
 39
0.000000
  0
VERTEX
  8
PIN_TOP
 10
13.616940
 20
4.601210
 40
0.000000
 41
0.000000
 42
0.000000
  0
VERTEX
  8
PIN_TOP
 10
13.616940
 20
3.501390
 40
0.000000
 41
0.000000
 42
0.000000
  0
VERTEX
  8
PIN_TOP
 10
12.418060
 20
3.501390
 40
0.000000
 41
0.000000
 42
0.000000
  0
VERTEX
  8
PIN_TOP
 10
12.418060
 20
4.601210
 40
0.000000
 41
0.000000
 42
0.000000
  0
SEQEND
  0
POLYLINE
  8
PG_ASSEMBLY_TOP
 66
1
 70
1
 40
0.000000
 41
0.000000
 39
0.000000
  0
VERTEX
  8
PG_ASSEMBLY_TOP
 10
11.315700
 20
5.402580
 40
0.000000
 41
0.000000
 42
0.000000
  0
VERTEX
  8
PG_ASSEMBLY_TOP
 10
11.315700
 20
4.102100
 40
0.000000
 41
0.000000
 42
0.000000
  0
VERTEX
  8
PG_ASSEMBLY_TOP
 10
13.017500
 20
4.102100
 40
0.000000
 41
0.000000
 42
0.000000
  0
VERTEX
  8
PG_ASSEMBLY_TOP
 10
13.017500
 20
5.102860
 40
0.000000
 41
0.000000
 42
0.000000
  0
VERTEX
  8
PG_ASSEMBLY_TOP
 10
12.717780
 20
5.402580
 40
0.000000
 41
0.000000
 42
0.000000
  0
SEQEND
  0
TEXT
  8
RD_ASSEMBLY_TOP
 10
11.455400
 20
6.263640
 11
0.000000
 21
0.000000
 40
0.635000
 41
0.880000
 50
0.000000
  7
STANDARD
 71
0
 72
0
  1
X2
 73
0
  0
TEXT
  8
PG_ASSEMBLY_TOP
 10
12.750800
 20
2.580640
 11
0.000000
 21
0.000000
 40
0.635000
 41
0.880000
 50
0.000000
  7
STANDARD
 71
0
 72
0
  1
4
 73
0
  0
TEXT
  8
PG_ASSEMBLY_TOP
 10
13.639800
 20
5.628640
 11
0.000000
 21
0.000000
 40
0.635000
 41
0.880000
 50
0.000000
  7
STANDARD
 71
0
 72
0
  1
1
 73
0
  0
TEXT
  8
PG_ASSEMBLY_TOP
 10
10.210800
 20
5.501640
 11
0.000000
 21
0.000000
 40
0.635000
 41
0.880000
 50
0.000000
  7
STANDARD
 71
0
 72
0
  1
2
 73
0
  0
TEXT
  8
PG_ASSEMBLY_TOP
 10
11.480800
 20
2.580640
 11
0.000000
 21
0.000000
 40
0.635000
 41
0.880000
 50
0.000000
  7
STANDARD
 71
0
 72
0
  1
3
 73
0
  0
POLYLINE
  8
PIN_TOP
 66
1
 70
1
 40
0.000000
 41
0.000000
 39
0.000000
  0
VERTEX
  8
PIN_TOP
 10
20.754340
 20
11.464290
 40
0.000000
 41
0.000000
 42
0.000000
  0
VERTEX
  8
PIN_TOP
 10
20.754340
 20
10.913110
 40
0.000000
 41
0.000000
 42
0.000000
  0
VERTEX
  8
PIN_TOP
 10
20.154900
 20
10.913110
 40
0.000000
 41
0.000000
 42
0.000000
  0
VERTEX
  8
PIN_TOP
 10
20.154900
 20
11.464290
 40
0.000000
 41
0.000000
 42
0.000000
  0
SEQEND
  0
POLYLINE
  8
PIN_TOP
 66
1
 70
1
 40
0.000000
 41
0.000000
 39
0.000000
  0
VERTEX
  8
PIN_TOP
 10
21.755100
 20
11.464290
 40
0.000000
 41
0.000000
 42
0.000000
  0
VERTEX
  8
PIN_TOP
 10
21.755100
 20
10.913110
 40
0.000000
 41
0.000000
 42
0.000000
  0
VERTEX
  8
PIN_TOP
 10
21.155660
 20
10.913110
 40
0.000000
 41
0.000000
 42
0.000000
  0
VERTEX
  8
PIN_TOP
 10
21.155660
 20
11.464290
 40
0.000000
 41
0.000000
 42
0.000000
  0
SEQEND
  0
POLYLINE
  8
PG_ASSEMBLY_TOP
 66
1
 70
1
 40
0.000000
 41
0.000000
 39
0.000000
  0
VERTEX
  8
PG_ASSEMBLY_TOP
 10
21.463000
 20
11.430000
 40
0.000000
 41
0.000000
 42
0.000000
  0
VERTEX
  8
PG_ASSEMBLY_TOP
 10
21.463000
 20
10.922000
 40
0.000000
 41
0.000000
 42
0.000000
  0
VERTEX
  8
PG_ASSEMBLY_TOP
 10
20.447000
 20
10.922000
 40
0.000000
 41
0.000000
 42
0.000000
  0
VERTEX
  8
PG_ASSEMBLY_TOP
 10
20.447000
 20
11.430000
 40
0.000000
 41
0.000000
 42
0.000000
  0
SEQEND
  0
TEXT
  8
RD_ASSEMBLY_TOP
 10
18.838333
 20
10.838180
 11
19.050000
 21
10.838180
 40
0.635000
 41
0.880000
 50
0.000000
  7
STANDARD
 71
0
 72
1
  1
R27
 73
0
  0
POLYLINE
  8
PIN_TOP
 66
1
 70
1
 40
0.000000
 41
0.000000
 39
0.000000
  0
VERTEX
  8
PIN_TOP
 10
10.106660
 20
19.014440
 40
0.000000
 41
0.000000
 42
0.000000
  0
VERTEX
  8
PIN_TOP
 10
10.106660
 20
19.565620
 40
0.000000
 41
0.000000
 42
0.000000
  0
VERTEX
  8
PIN_TOP
 10
10.706100
 20
19.565620
 40
0.000000
 41
0.000000
 42
0.000000
  0
VERTEX
  8
PIN_TOP
 10
10.706100
 20
19.014440
 40
0.000000
 41
0.000000
 42
0.000000
  0
SEQEND
  0
POLYLINE
  8
PIN_TOP
 66
1
 70
1
 40
0.000000
 41
0.000000
 39
0.000000
  0
VERTEX
  8
PIN_TOP
 10
9.105900
 20
19.014440
 40
0.000000
 41
0.000000
 42
0.000000
  0
VERTEX
  8
PIN_TOP
 10
9.105900
 20
19.565620
 40
0.000000
 41
0.000000
 42
0.000000
  0
VERTEX
  8
PIN_TOP
 10
9.705340
 20
19.565620
 40
0.000000
 41
0.000000
 42
0.000000
  0
VERTEX
  8
PIN_TOP
 10
9.705340
 20
19.014440
 40
0.000000
 41
0.000000
 42
0.000000
  0
SEQEND
  0
POLYLINE
  8
PG_ASSEMBLY_TOP
 66
1
 70
1
 40
0.000000
 41
0.000000
 39
0.000000
  0
VERTEX
  8
PG_ASSEMBLY_TOP
 10
9.398000
 20
19.050000
 40
0.000000
 41
0.000000
 42
0.000000
  0
VERTEX
  8
PG_ASSEMBLY_TOP
 10
9.398000
 20
19.558000
 40
0.000000
 41
0.000000
 42
0.000000
  0
VERTEX
  8
PG_ASSEMBLY_TOP
 10
10.414000
 20
19.558000
 40
0.000000
 41
0.000000
 42
0.000000
  0
VERTEX
  8
PG_ASSEMBLY_TOP
 10
10.414000
 20
19.050000
 40
0.000000
 41
0.000000
 42
0.000000
  0
SEQEND
  0
TEXT
  8
RD_ASSEMBLY_TOP
 10
7.865533
 20
19.042380
 11
8.128000
 21
19.042380
 40
0.787400
 41
1.000000
 50
0.000000
  7
STANDARD
 71
0
 72
1
  1
R2
 73
0
  0
POLYLINE
  8
PIN_TOP
 66
1
 70
1
 40
0.000000
 41
0.000000
 39
0.000000
  0
VERTEX
  8
PIN_TOP
 10
22.741890
 20
11.877040
 40
0.000000
 41
0.000000
 42
0.000000
  0
VERTEX
  8
PIN_TOP
 10
22.190710
 20
11.877040
 40
0.000000
 41
0.000000
 42
0.000000
  0
VERTEX
  8
PIN_TOP
 10
22.190710
 20
12.476480
 40
0.000000
 41
0.000000
 42
0.000000
  0
VERTEX
  8
PIN_TOP
 10
22.741890
 20
12.476480
 40
0.000000
 41
0.000000
 42
0.000000
  0
SEQEND
  0
POLYLINE
  8
PIN_TOP
 66
1
 70
1
 40
0.000000
 41
0.000000
 39
0.000000
  0
VERTEX
  8
PIN_TOP
 10
22.741890
 20
10.876280
 40
0.000000
 41
0.000000
 42
0.000000
  0
VERTEX
  8
PIN_TOP
 10
22.190710
 20
10.876280
 40
0.000000
 41
0.000000
 42
0.000000
  0
VERTEX
  8
PIN_TOP
 10
22.190710
 20
11.475720
 40
0.000000
 41
0.000000
 42
0.000000
  0
VERTEX
  8
PIN_TOP
 10
22.741890
 20
11.475720
 40
0.000000
 41
0.000000
 42
0.000000
  0
SEQEND
  0
POLYLINE
  8
PG_ASSEMBLY_TOP
 66
1
 70
1
 40
0.000000
 41
0.000000
 39
0.000000
  0
VERTEX
  8
PG_ASSEMBLY_TOP
 10
22.733000
 20
11.168380
 40
0.000000
 41
0.000000
 42
0.000000
  0
VERTEX
  8
PG_ASSEMBLY_TOP
 10
22.225000
 20
11.168380
 40
0.000000
 41
0.000000
 42
0.000000
  0
VERTEX
  8
PG_ASSEMBLY_TOP
 10
22.225000
 20
12.184380
 40
0.000000
 41
0.000000
 42
0.000000
  0
VERTEX
  8
PG_ASSEMBLY_TOP
 10
22.733000
 20
12.184380
 40
0.000000
 41
0.000000
 42
0.000000
  0
SEQEND
  0
TEXT
  8
RD_ASSEMBLY_TOP
 10
23.494153
 20
11.684000
 11
23.705820
 21
11.684000
 40
0.635000
 41
0.880000
 50
90.000000
  7
STANDARD
 71
0
 72
1
  1
R12
 73
0
  0
POLYLINE
  8
PIN_TOP
 66
1
 70
1
 40
0.000000
 41
0.000000
 39
0.000000
  0
VERTEX
  8
PIN_TOP
 10
25.899110
 20
11.610340
 40
0.000000
 41
0.000000
 42
0.000000
  0
VERTEX
  8
PIN_TOP
 10
26.450290
 20
11.610340
 40
0.000000
 41
0.000000
 42
0.000000
  0
VERTEX
  8
PIN_TOP
 10
26.450290
 20
11.010900
 40
0.000000
 41
0.000000
 42
0.000000
  0
VERTEX
  8
PIN_TOP
 10
25.899110
 20
11.010900
 40
0.000000
 41
0.000000
 42
0.000000
  0
SEQEND
  0
POLYLINE
  8
PIN_TOP
 66
1
 70
1
 40
0.000000
 41
0.000000
 39
0.000000
  0
VERTEX
  8
PIN_TOP
 10
25.899110
 20
12.611100
 40
0.000000
 41
0.000000
 42
0.000000
  0
VERTEX
  8
PIN_TOP
 10
26.450290
 20
12.611100
 40
0.000000
 41
0.000000
 42
0.000000
  0
VERTEX
  8
PIN_TOP
 10
26.450290
 20
12.011660
 40
0.000000
 41
0.000000
 42
0.000000
  0
VERTEX
  8
PIN_TOP
 10
25.899110
 20
12.011660
 40
0.000000
 41
0.000000
 42
0.000000
  0
SEQEND
  0
POLYLINE
  8
PG_ASSEMBLY_TOP
 66
1
 70
1
 40
0.000000
 41
0.000000
 39
0.000000
  0
VERTEX
  8
PG_ASSEMBLY_TOP
 10
25.908000
 20
12.319000
 40
0.000000
 41
0.000000
 42
0.000000
  0
VERTEX
  8
PG_ASSEMBLY_TOP
 10
26.416000
 20
12.319000
 40
0.000000
 41
0.000000
 42
0.000000
  0
VERTEX
  8
PG_ASSEMBLY_TOP
 10
26.416000
 20
11.303000
 40
0.000000
 41
0.000000
 42
0.000000
  0
VERTEX
  8
PG_ASSEMBLY_TOP
 10
25.908000
 20
11.303000
 40
0.000000
 41
0.000000
 42
0.000000
  0
SEQEND
  0
TEXT
  8
RD_ASSEMBLY_TOP
 10
25.272153
 20
11.811000
 11
25.483820
 21
11.811000
 40
0.635000
 41
0.880000
 50
90.000000
  7
STANDARD
 71
0
 72
1
  1
R6
 73
0
  0
POLYLINE
  8
PIN_TOP
 66
1
 70
1
 40
0.000000
 41
0.000000
 39
0.000000
  0
VERTEX
  8
PIN_TOP
 10
22.146260
 20
13.860780
 40
0.000000
 41
0.000000
 42
0.000000
  0
VERTEX
  8
PIN_TOP
 10
22.146260
 20
14.411960
 40
0.000000
 41
0.000000
 42
0.000000
  0
VERTEX
  8
PIN_TOP
 10
22.745700
 20
14.411960
 40
0.000000
 41
0.000000
 42
0.000000
  0
VERTEX
  8
PIN_TOP
 10
22.745700
 20
13.860780
 40
0.000000
 41
0.000000
 42
0.000000
  0
SEQEND
  0
POLYLINE
  8
PIN_TOP
 66
1
 70
1
 40
0.000000
 41
0.000000
 39
0.000000
  0
VERTEX
  8
PIN_TOP
 10
21.145500
 20
13.860780
 40
0.000000
 41
0.000000
 42
0.000000
  0
VERTEX
  8
PIN_TOP
 10
21.145500
 20
14.411960
 40
0.000000
 41
0.000000
 42
0.000000
  0
VERTEX
  8
PIN_TOP
 10
21.744940
 20
14.411960
 40
0.000000
 41
0.000000
 42
0.000000
  0
VERTEX
  8
PIN_TOP
 10
21.744940
 20
13.860780
 40
0.000000
 41
0.000000
 42
0.000000
  0
SEQEND
  0
POLYLINE
  8
PG_ASSEMBLY_TOP
 66
1
 70
1
 40
0.000000
 41
0.000000
 39
0.000000
  0
VERTEX
  8
PG_ASSEMBLY_TOP
 10
21.437600
 20
13.896340
 40
0.000000
 41
0.000000
 42
0.000000
  0
VERTEX
  8
PG_ASSEMBLY_TOP
 10
21.437600
 20
14.404340
 40
0.000000
 41
0.000000
 42
0.000000
  0
VERTEX
  8
PG_ASSEMBLY_TOP
 10
22.453600
 20
14.404340
 40
0.000000
 41
0.000000
 42
0.000000
  0
VERTEX
  8
PG_ASSEMBLY_TOP
 10
22.453600
 20
13.896340
 40
0.000000
 41
0.000000
 42
0.000000
  0
SEQEND
  0
TEXT
  8
RD_ASSEMBLY_TOP
 10
23.791333
 20
13.759180
 11
24.003000
 21
13.759180
 40
0.635000
 41
0.880000
 50
0.000000
  7
STANDARD
 71
0
 72
1
  1
R5
 73
0
  0
POLYLINE
  8
PIN_TOP
 66
1
 70
1
 40
0.000000
 41
0.000000
 39
0.000000
  0
VERTEX
  8
PIN_TOP
 10
22.146260
 20
14.876780
 40
0.000000
 41
0.000000
 42
0.000000
  0
VERTEX
  8
PIN_TOP
 10
22.146260
 20
15.427960
 40
0.000000
 41
0.000000
 42
0.000000
  0
VERTEX
  8
PIN_TOP
 10
22.745700
 20
15.427960
 40
0.000000
 41
0.000000
 42
0.000000
  0
VERTEX
  8
PIN_TOP
 10
22.745700
 20
14.876780
 40
0.000000
 41
0.000000
 42
0.000000
  0
SEQEND
  0
POLYLINE
  8
PIN_TOP
 66
1
 70
1
 40
0.000000
 41
0.000000
 39
0.000000
  0
VERTEX
  8
PIN_TOP
 10
21.145500
 20
14.876780
 40
0.000000
 41
0.000000
 42
0.000000
  0
VERTEX
  8
PIN_TOP
 10
21.145500
 20
15.427960
 40
0.000000
 41
0.000000
 42
0.000000
  0
VERTEX
  8
PIN_TOP
 10
21.744940
 20
15.427960
 40
0.000000
 41
0.000000
 42
0.000000
  0
VERTEX
  8
PIN_TOP
 10
21.744940
 20
14.876780
 40
0.000000
 41
0.000000
 42
0.000000
  0
SEQEND
  0
POLYLINE
  8
PG_ASSEMBLY_TOP
 66
1
 70
1
 40
0.000000
 41
0.000000
 39
0.000000
  0
VERTEX
  8
PG_ASSEMBLY_TOP
 10
21.437600
 20
14.912340
 40
0.000000
 41
0.000000
 42
0.000000
  0
VERTEX
  8
PG_ASSEMBLY_TOP
 10
21.437600
 20
15.420340
 40
0.000000
 41
0.000000
 42
0.000000
  0
VERTEX
  8
PG_ASSEMBLY_TOP
 10
22.453600
 20
15.420340
 40
0.000000
 41
0.000000
 42
0.000000
  0
VERTEX
  8
PG_ASSEMBLY_TOP
 10
22.453600
 20
14.912340
 40
0.000000
 41
0.000000
 42
0.000000
  0
SEQEND
  0
TEXT
  8
RD_ASSEMBLY_TOP
 10
23.791333
 20
14.775180
 11
24.003000
 21
14.775180
 40
0.635000
 41
0.880000
 50
0.000000
  7
STANDARD
 71
0
 72
1
  1
R4
 73
0
  0
POLYLINE
  8
PIN_TOP
 66
1
 70
1
 40
0.000000
 41
0.000000
 39
0.000000
  0
VERTEX
  8
PIN_TOP
 10
22.089110
 20
17.960340
 40
0.000000
 41
0.000000
 42
0.000000
  0
VERTEX
  8
PIN_TOP
 10
22.640290
 20
17.960340
 40
0.000000
 41
0.000000
 42
0.000000
  0
VERTEX
  8
PIN_TOP
 10
22.640290
 20
17.360900
 40
0.000000
 41
0.000000
 42
0.000000
  0
VERTEX
  8
PIN_TOP
 10
22.089110
 20
17.360900
 40
0.000000
 41
0.000000
 42
0.000000
  0
SEQEND
  0
POLYLINE
  8
PIN_TOP
 66
1
 70
1
 40
0.000000
 41
0.000000
 39
0.000000
  0
VERTEX
  8
PIN_TOP
 10
22.089110
 20
18.961100
 40
0.000000
 41
0.000000
 42
0.000000
  0
VERTEX
  8
PIN_TOP
 10
22.640290
 20
18.961100
 40
0.000000
 41
0.000000
 42
0.000000
  0
VERTEX
  8
PIN_TOP
 10
22.640290
 20
18.361660
 40
0.000000
 41
0.000000
 42
0.000000
  0
VERTEX
  8
PIN_TOP
 10
22.089110
 20
18.361660
 40
0.000000
 41
0.000000
 42
0.000000
  0
SEQEND
  0
POLYLINE
  8
PG_ASSEMBLY_TOP
 66
1
 70
1
 40
0.000000
 41
0.000000
 39
0.000000
  0
VERTEX
  8
PG_ASSEMBLY_TOP
 10
22.098000
 20
18.669000
 40
0.000000
 41
0.000000
 42
0.000000
  0
VERTEX
  8
PG_ASSEMBLY_TOP
 10
22.606000
 20
18.669000
 40
0.000000
 41
0.000000
 42
0.000000
  0
VERTEX
  8
PG_ASSEMBLY_TOP
 10
22.606000
 20
17.653000
 40
0.000000
 41
0.000000
 42
0.000000
  0
VERTEX
  8
PG_ASSEMBLY_TOP
 10
22.098000
 20
17.653000
 40
0.000000
 41
0.000000
 42
0.000000
  0
SEQEND
  0
TEXT
  8
RD_ASSEMBLY_TOP
 10
22.353693
 20
19.837400
 11
22.565360
 21
19.837400
 40
0.635000
 41
0.880000
 50
90.000000
  7
STANDARD
 71
0
 72
1
  1
R3
 73
0
  0
POLYLINE
  8
PIN_TOP
 66
1
 70
1
 40
0.000000
 41
0.000000
 39
0.000000
  0
VERTEX
  8
PIN_TOP
 10
20.375880
 20
23.131780
 40
0.000000
 41
0.000000
 42
0.000000
  0
VERTEX
  8
PIN_TOP
 10
20.375880
 20
23.682960
 40
0.000000
 41
0.000000
 42
0.000000
  0
VERTEX
  8
PIN_TOP
 10
20.975320
 20
23.682960
 40
0.000000
 41
0.000000
 42
0.000000
  0
VERTEX
  8
PIN_TOP
 10
20.975320
 20
23.131780
 40
0.000000
 41
0.000000
 42
0.000000
  0
SEQEND
  0
POLYLINE
  8
PIN_TOP
 66
1
 70
1
 40
0.000000
 41
0.000000
 39
0.000000
  0
VERTEX
  8
PIN_TOP
 10
19.375120
 20
23.131780
 40
0.000000
 41
0.000000
 42
0.000000
  0
VERTEX
  8
PIN_TOP
 10
19.375120
 20
23.682960
 40
0.000000
 41
0.000000
 42
0.000000
  0
VERTEX
  8
PIN_TOP
 10
19.974560
 20
23.682960
 40
0.000000
 41
0.000000
 42
0.000000
  0
VERTEX
  8
PIN_TOP
 10
19.974560
 20
23.131780
 40
0.000000
 41
0.000000
 42
0.000000
  0
SEQEND
  0
POLYLINE
  8
PG_ASSEMBLY_TOP
 66
1
 70
1
 40
0.000000
 41
0.000000
 39
0.000000
  0
VERTEX
  8
PG_ASSEMBLY_TOP
 10
19.667220
 20
23.167340
 40
0.000000
 41
0.000000
 42
0.000000
  0
VERTEX
  8
PG_ASSEMBLY_TOP
 10
19.667220
 20
23.675340
 40
0.000000
 41
0.000000
 42
0.000000
  0
VERTEX
  8
PG_ASSEMBLY_TOP
 10
20.683220
 20
23.675340
 40
0.000000
 41
0.000000
 42
0.000000
  0
VERTEX
  8
PG_ASSEMBLY_TOP
 10
20.683220
 20
23.167340
 40
0.000000
 41
0.000000
 42
0.000000
  0
SEQEND
  0
TEXT
  8
RD_ASSEMBLY_TOP
 10
21.632333
 20
23.154640
 11
21.844000
 21
23.154640
 40
0.635000
 41
0.880000
 50
0.000000
  7
STANDARD
 71
0
 72
1
  1
R1
 73
0
  0
POLYLINE
  8
PIN_TOP
 66
1
 70
1
 40
0.000000
 41
0.000000
 39
0.000000
  0
VERTEX
  8
PIN_TOP
 10
20.275550
 20
16.772890
 40
0.000000
 41
0.000000
 42
0.000000
  0
VERTEX
  8
PIN_TOP
 10
21.075650
 20
16.772890
 40
0.000000
 41
0.000000
 42
0.000000
  0
VERTEX
  8
PIN_TOP
 10
21.075650
 20
16.023590
 40
0.000000
 41
0.000000
 42
0.000000
  0
VERTEX
  8
PIN_TOP
 10
20.275550
 20
16.023590
 40
0.000000
 41
0.000000
 42
0.000000
  0
SEQEND
  0
POLYLINE
  8
PIN_TOP
 66
1
 70
1
 40
0.000000
 41
0.000000
 39
0.000000
  0
VERTEX
  8
PIN_TOP
 10
20.275550
 20
18.119090
 40
0.000000
 41
0.000000
 42
0.000000
  0
VERTEX
  8
PIN_TOP
 10
21.075650
 20
18.119090
 40
0.000000
 41
0.000000
 42
0.000000
  0
VERTEX
  8
PIN_TOP
 10
21.075650
 20
17.369790
 40
0.000000
 41
0.000000
 42
0.000000
  0
VERTEX
  8
PIN_TOP
 10
20.275550
 20
17.369790
 40
0.000000
 41
0.000000
 42
0.000000
  0
SEQEND
  0
POLYLINE
  8
PG_ASSEMBLY_TOP
 66
1
 70
0
 40
0.000000
 41
0.000000
 39
0.000000
  0
VERTEX
  8
PG_ASSEMBLY_TOP
 10
20.091400
 20
18.138140
 40
0.000000
 41
0.000000
 42
0.000000
  0
VERTEX
  8
PG_ASSEMBLY_TOP
 10
20.091400
 20
15.979140
 40
0.000000
 41
0.000000
 42
0.000000
  0
SEQEND
  0
POLYLINE
  8
PG_ASSEMBLY_TOP
 66
1
 70
0
 40
0.000000
 41
0.000000
 39
0.000000
  0
VERTEX
  8
PG_ASSEMBLY_TOP
 10
21.259800
 20
18.138140
 40
0.000000
 41
0.000000
 42
0.000000
  0
VERTEX
  8
PG_ASSEMBLY_TOP
 10
21.259800
 20
16.004540
 40
0.000000
 41
0.000000
 42
0.000000
  0
SEQEND
  0
TEXT
  8
RD_ASSEMBLY_TOP
 10
22.184360
 20
16.535400
 11
0.000000
 21
0.000000
 40
0.635000
 41
0.880000
 50
90.000000
  7
STANDARD
 71
0
 72
0
  1
C2
 73
0
  0
POLYLINE
  8
PIN_TOP
 66
1
 70
1
 40
0.000000
 41
0.000000
 39
0.000000
  0
VERTEX
  8
PIN_TOP
 10
16.408400
 20
9.547860
 40
0.000000
 41
0.000000
 42
0.000000
  0
VERTEX
  8
PIN_TOP
 10
16.865600
 20
9.547860
 40
0.000000
 41
0.000000
 42
-1.000000
  0
VERTEX
  8
PIN_TOP
 10
16.865600
 20
9.354820
 40
0.000000
 41
0.000000
 42
0.000000
  0
VERTEX
  8
PIN_TOP
 10
16.408400
 20
9.354820
 40
0.000000
 41
0.000000
 42
-1.000000
  0
SEQEND
  0
POLYLINE
  8
PIN_TOP
 66
1
 70
1
 40
0.000000
 41
0.000000
 39
0.000000
  0
VERTEX
  8
PIN_TOP
 10
16.408400
 20
9.949180
 40
0.000000
 41
0.000000
 42
0.000000
  0
VERTEX
  8
PIN_TOP
 10
16.865600
 20
9.949180
 40
0.000000
 41
0.000000
 42
-1.000000
  0
VERTEX
  8
PIN_TOP
 10
16.865600
 20
9.756140
 40
0.000000
 41
0.000000
 42
0.000000
  0
VERTEX
  8
PIN_TOP
 10
16.408400
 20
9.756140
 40
0.000000
 41
0.000000
 42
-1.000000
  0
SEQEND
  0
POLYLINE
  8
PIN_TOP
 66
1
 70
1
 40
0.000000
 41
0.000000
 39
0.000000
  0
VERTEX
  8
PIN_TOP
 10
16.408400
 20
10.350500
 40
0.000000
 41
0.000000
 42
0.000000
  0
VERTEX
  8
PIN_TOP
 10
16.865600
 20
10.350500
 40
0.000000
 41
0.000000
 42
-1.000000
  0
VERTEX
  8
PIN_TOP
 10
16.865600
 20
10.157460
 40
0.000000
 41
0.000000
 42
0.000000
  0
VERTEX
  8
PIN_TOP
 10
16.408400
 20
10.157460
 40
0.000000
 41
0.000000
 42
-1.000000
  0
SEQEND
  0
POLYLINE
  8
PIN_TOP
 66
1
 70
1
 40
0.000000
 41
0.000000
 39
0.000000
  0
VERTEX
  8
PIN_TOP
 10
16.408400
 20
10.751820
 40
0.000000
 41
0.000000
 42
0.000000
  0
VERTEX
  8
PIN_TOP
 10
16.865600
 20
10.751820
 40
0.000000
 41
0.000000
 42
-1.000000
  0
VERTEX
  8
PIN_TOP
 10
16.865600
 20
10.558780
 40
0.000000
 41
0.000000
 42
0.000000
  0
VERTEX
  8
PIN_TOP
 10
16.408400
 20
10.558780
 40
0.000000
 41
0.000000
 42
-1.000000
  0
SEQEND
  0
POLYLINE
  8
PIN_TOP
 66
1
 70
1
 40
0.000000
 41
0.000000
 39
0.000000
  0
VERTEX
  8
PIN_TOP
 10
16.408400
 20
11.153140
 40
0.000000
 41
0.000000
 42
0.000000
  0
VERTEX
  8
PIN_TOP
 10
16.865600
 20
11.153140
 40
0.000000
 41
0.000000
 42
-1.000000
  0
VERTEX
  8
PIN_TOP
 10
16.865600
 20
10.960100
 40
0.000000
 41
0.000000
 42
0.000000
  0
VERTEX
  8
PIN_TOP
 10
16.408400
 20
10.960100
 40
0.000000
 41
0.000000
 42
-1.000000
  0
SEQEND
  0
POLYLINE
  8
PIN_TOP
 66
1
 70
1
 40
0.000000
 41
0.000000
 39
0.000000
  0
VERTEX
  8
PIN_TOP
 10
16.408400
 20
11.554460
 40
0.000000
 41
0.000000
 42
0.000000
  0
VERTEX
  8
PIN_TOP
 10
16.865600
 20
11.554460
 40
0.000000
 41
0.000000
 42
-1.000000
  0
VERTEX
  8
PIN_TOP
 10
16.865600
 20
11.361420
 40
0.000000
 41
0.000000
 42
0.000000
  0
VERTEX
  8
PIN_TOP
 10
16.408400
 20
11.361420
 40
0.000000
 41
0.000000
 42
-1.000000
  0
SEQEND
  0
POLYLINE
  8
PIN_TOP
 66
1
 70
1
 40
0.000000
 41
0.000000
 39
0.000000
  0
VERTEX
  8
PIN_TOP
 10
16.408400
 20
11.955780
 40
0.000000
 41
0.000000
 42
0.000000
  0
VERTEX
  8
PIN_TOP
 10
16.865600
 20
11.955780
 40
0.000000
 41
0.000000
 42
-1.000000
  0
VERTEX
  8
PIN_TOP
 10
16.865600
 20
11.762740
 40
0.000000
 41
0.000000
 42
0.000000
  0
VERTEX
  8
PIN_TOP
 10
16.408400
 20
11.762740
 40
0.000000
 41
0.000000
 42
-1.000000
  0
SEQEND
  0
POLYLINE
  8
PIN_TOP
 66
1
 70
1
 40
0.000000
 41
0.000000
 39
0.000000
  0
VERTEX
  8
PIN_TOP
 10
16.408400
 20
12.357100
 40
0.000000
 41
0.000000
 42
0.000000
  0
VERTEX
  8
PIN_TOP
 10
16.865600
 20
12.357100
 40
0.000000
 41
0.000000
 42
-1.000000
  0
VERTEX
  8
PIN_TOP
 10
16.865600
 20
12.164060
 40
0.000000
 41
0.000000
 42
0.000000
  0
VERTEX
  8
PIN_TOP
 10
16.408400
 20
12.164060
 40
0.000000
 41
0.000000
 42
-1.000000
  0
SEQEND
  0
POLYLINE
  8
PIN_TOP
 66
1
 70
1
 40
0.000000
 41
0.000000
 39
0.000000
  0
VERTEX
  8
PIN_TOP
 10
16.408400
 20
12.758420
 40
0.000000
 41
0.000000
 42
0.000000
  0
VERTEX
  8
PIN_TOP
 10
16.865600
 20
12.758420
 40
0.000000
 41
0.000000
 42
-1.000000
  0
VERTEX
  8
PIN_TOP
 10
16.865600
 20
12.565380
 40
0.000000
 41
0.000000
 42
0.000000
  0
VERTEX
  8
PIN_TOP
 10
16.408400
 20
12.565380
 40
0.000000
 41
0.000000
 42
-1.000000
  0
SEQEND
  0
POLYLINE
  8
PIN_TOP
 66
1
 70
1
 40
0.000000
 41
0.000000
 39
0.000000
  0
VERTEX
  8
PIN_TOP
 10
16.408400
 20
13.159740
 40
0.000000
 41
0.000000
 42
0.000000
  0
VERTEX
  8
PIN_TOP
 10
16.865600
 20
13.159740
 40
0.000000
 41
0.000000
 42
-1.000000
  0
VERTEX
  8
PIN_TOP
 10
16.865600
 20
12.966700
 40
0.000000
 41
0.000000
 42
0.000000
  0
VERTEX
  8
PIN_TOP
 10
16.408400
 20
12.966700
 40
0.000000
 41
0.000000
 42
-1.000000
  0
SEQEND
  0
POLYLINE
  8
PIN_TOP
 66
1
 70
1
 40
0.000000
 41
0.000000
 39
0.000000
  0
VERTEX
  8
PIN_TOP
 10
16.408400
 20
13.561060
 40
0.000000
 41
0.000000
 42
0.000000
  0
VERTEX
  8
PIN_TOP
 10
16.865600
 20
13.561060
 40
0.000000
 41
0.000000
 42
-1.000000
  0
VERTEX
  8
PIN_TOP
 10
16.865600
 20
13.368020
 40
0.000000
 41
0.000000
 42
0.000000
  0
VERTEX
  8
PIN_TOP
 10
16.408400
 20
13.368020
 40
0.000000
 41
0.000000
 42
-1.000000
  0
SEQEND
  0
POLYLINE
  8
PIN_TOP
 66
1
 70
1
 40
0.000000
 41
0.000000
 39
0.000000
  0
VERTEX
  8
PIN_TOP
 10
16.408400
 20
13.962380
 40
0.000000
 41
0.000000
 42
0.000000
  0
VERTEX
  8
PIN_TOP
 10
16.865600
 20
13.962380
 40
0.000000
 41
0.000000
 42
-1.000000
  0
VERTEX
  8
PIN_TOP
 10
16.865600
 20
13.769340
 40
0.000000
 41
0.000000
 42
0.000000
  0
VERTEX
  8
PIN_TOP
 10
16.408400
 20
13.769340
 40
0.000000
 41
0.000000
 42
-1.000000
  0
SEQEND
  0
POLYLINE
  8
PIN_TOP
 66
1
 70
1
 40
0.000000
 41
0.000000
 39
0.000000
  0
VERTEX
  8
PIN_TOP
 10
15.722600
 20
14.455140
 40
0.000000
 41
0.000000
 42
0.000000
  0
VERTEX
  8
PIN_TOP
 10
15.722600
 20
14.912340
 40
0.000000
 41
0.000000
 42
-1.000000
  0
VERTEX
  8
PIN_TOP
 10
15.915640
 20
14.912340
 40
0.000000
 41
0.000000
 42
0.000000
  0
VERTEX
  8
PIN_TOP
 10
15.915640
 20
14.455140
 40
0.000000
 41
0.000000
 42
-1.000000
  0
SEQEND
  0
POLYLINE
  8
PIN_TOP
 66
1
 70
1
 40
0.000000
 41
0.000000
 39
0.000000
  0
VERTEX
  8
PIN_TOP
 10
15.321280
 20
14.455140
 40
0.000000
 41
0.000000
 42
0.000000
  0
VERTEX
  8
PIN_TOP
 10
15.321280
 20
14.912340
 40
0.000000
 41
0.000000
 42
-1.000000
  0
VERTEX
  8
PIN_TOP
 10
15.514320
 20
14.912340
 40
0.000000
 41
0.000000
 42
0.000000
  0
VERTEX
  8
PIN_TOP
 10
15.514320
 20
14.455140
 40
0.000000
 41
0.000000
 42
-1.000000
  0
SEQEND
  0
POLYLINE
  8
PIN_TOP
 66
1
 70
1
 40
0.000000
 41
0.000000
 39
0.000000
  0
VERTEX
  8
PIN_TOP
 10
14.919960
 20
14.455140
 40
0.000000
 41
0.000000
 42
0.000000
  0
VERTEX
  8
PIN_TOP
 10
14.919960
 20
14.912340
 40
0.000000
 41
0.000000
 42
-1.000000
  0
VERTEX
  8
PIN_TOP
 10
15.113000
 20
14.912340
 40
0.000000
 41
0.000000
 42
0.000000
  0
VERTEX
  8
PIN_TOP
 10
15.113000
 20
14.455140
 40
0.000000
 41
0.000000
 42
-1.000000
  0
SEQEND
  0
POLYLINE
  8
PIN_TOP
 66
1
 70
1
 40
0.000000
 41
0.000000
 39
0.000000
  0
VERTEX
  8
PIN_TOP
 10
14.518640
 20
14.455140
 40
0.000000
 41
0.000000
 42
0.000000
  0
VERTEX
  8
PIN_TOP
 10
14.518640
 20
14.912340
 40
0.000000
 41
0.000000
 42
-1.000000
  0
VERTEX
  8
PIN_TOP
 10
14.711680
 20
14.912340
 40
0.000000
 41
0.000000
 42
0.000000
  0
VERTEX
  8
PIN_TOP
 10
14.711680
 20
14.455140
 40
0.000000
 41
0.000000
 42
-1.000000
  0
SEQEND
  0
POLYLINE
  8
PIN_TOP
 66
1
 70
1
 40
0.000000
 41
0.000000
 39
0.000000
  0
VERTEX
  8
PIN_TOP
 10
14.117320
 20
14.455140
 40
0.000000
 41
0.000000
 42
0.000000
  0
VERTEX
  8
PIN_TOP
 10
14.117320
 20
14.912340
 40
0.000000
 41
0.000000
 42
-1.000000
  0
VERTEX
  8
PIN_TOP
 10
14.310360
 20
14.912340
 40
0.000000
 41
0.000000
 42
0.000000
  0
VERTEX
  8
PIN_TOP
 10
14.310360
 20
14.455140
 40
0.000000
 41
0.000000
 42
-1.000000
  0
SEQEND
  0
POLYLINE
  8
PIN_TOP
 66
1
 70
1
 40
0.000000
 41
0.000000
 39
0.000000
  0
VERTEX
  8
PIN_TOP
 10
13.716000
 20
14.455140
 40
0.000000
 41
0.000000
 42
0.000000
  0
VERTEX
  8
PIN_TOP
 10
13.716000
 20
14.912340
 40
0.000000
 41
0.000000
 42
-1.000000
  0
VERTEX
  8
PIN_TOP
 10
13.909040
 20
14.912340
 40
0.000000
 41
0.000000
 42
0.000000
  0
VERTEX
  8
PIN_TOP
 10
13.909040
 20
14.455140
 40
0.000000
 41
0.000000
 42
-1.000000
  0
SEQEND
  0
POLYLINE
  8
PIN_TOP
 66
1
 70
1
 40
0.000000
 41
0.000000
 39
0.000000
  0
VERTEX
  8
PIN_TOP
 10
13.314680
 20
14.455140
 40
0.000000
 41
0.000000
 42
0.000000
  0
VERTEX
  8
PIN_TOP
 10
13.314680
 20
14.912340
 40
0.000000
 41
0.000000
 42
-1.000000
  0
VERTEX
  8
PIN_TOP
 10
13.507720
 20
14.912340
 40
0.000000
 41
0.000000
 42
0.000000
  0
VERTEX
  8
PIN_TOP
 10
13.507720
 20
14.455140
 40
0.000000
 41
0.000000
 42
-1.000000
  0
SEQEND
  0
POLYLINE
  8
PIN_TOP
 66
1
 70
1
 40
0.000000
 41
0.000000
 39
0.000000
  0
VERTEX
  8
PIN_TOP
 10
12.913360
 20
14.455140
 40
0.000000
 41
0.000000
 42
0.000000
  0
VERTEX
  8
PIN_TOP
 10
12.913360
 20
14.912340
 40
0.000000
 41
0.000000
 42
-1.000000
  0
VERTEX
  8
PIN_TOP
 10
13.106400
 20
14.912340
 40
0.000000
 41
0.000000
 42
0.000000
  0
VERTEX
  8
PIN_TOP
 10
13.106400
 20
14.455140
 40
0.000000
 41
0.000000
 42
-1.000000
  0
SEQEND
  0
POLYLINE
  8
PIN_TOP
 66
1
 70
1
 40
0.000000
 41
0.000000
 39
0.000000
  0
VERTEX
  8
PIN_TOP
 10
12.512040
 20
14.455140
 40
0.000000
 41
0.000000
 42
0.000000
  0
VERTEX
  8
PIN_TOP
 10
12.512040
 20
14.912340
 40
0.000000
 41
0.000000
 42
-1.000000
  0
VERTEX
  8
PIN_TOP
 10
12.705080
 20
14.912340
 40
0.000000
 41
0.000000
 42
0.000000
  0
VERTEX
  8
PIN_TOP
 10
12.705080
 20
14.455140
 40
0.000000
 41
0.000000
 42
-1.000000
  0
SEQEND
  0
POLYLINE
  8
PIN_TOP
 66
1
 70
1
 40
0.000000
 41
0.000000
 39
0.000000
  0
VERTEX
  8
PIN_TOP
 10
12.110720
 20
14.455140
 40
0.000000
 41
0.000000
 42
0.000000
  0
VERTEX
  8
PIN_TOP
 10
12.110720
 20
14.912340
 40
0.000000
 41
0.000000
 42
-1.000000
  0
VERTEX
  8
PIN_TOP
 10
12.303760
 20
14.912340
 40
0.000000
 41
0.000000
 42
0.000000
  0
VERTEX
  8
PIN_TOP
 10
12.303760
 20
14.455140
 40
0.000000
 41
0.000000
 42
-1.000000
  0
SEQEND
  0
POLYLINE
  8
PIN_TOP
 66
1
 70
1
 40
0.000000
 41
0.000000
 39
0.000000
  0
VERTEX
  8
PIN_TOP
 10
11.709400
 20
14.455140
 40
0.000000
 41
0.000000
 42
0.000000
  0
VERTEX
  8
PIN_TOP
 10
11.709400
 20
14.912340
 40
0.000000
 41
0.000000
 42
-1.000000
  0
VERTEX
  8
PIN_TOP
 10
11.902440
 20
14.912340
 40
0.000000
 41
0.000000
 42
0.000000
  0
VERTEX
  8
PIN_TOP
 10
11.902440
 20
14.455140
 40
0.000000
 41
0.000000
 42
-1.000000
  0
SEQEND
  0
POLYLINE
  8
PIN_TOP
 66
1
 70
1
 40
0.000000
 41
0.000000
 39
0.000000
  0
VERTEX
  8
PIN_TOP
 10
11.308080
 20
14.455140
 40
0.000000
 41
0.000000
 42
0.000000
  0
VERTEX
  8
PIN_TOP
 10
11.308080
 20
14.912340
 40
0.000000
 41
0.000000
 42
-1.000000
  0
VERTEX
  8
PIN_TOP
 10
11.501120
 20
14.912340
 40
0.000000
 41
0.000000
 42
0.000000
  0
VERTEX
  8
PIN_TOP
 10
11.501120
 20
14.455140
 40
0.000000
 41
0.000000
 42
-1.000000
  0
SEQEND
  0
POLYLINE
  8
PIN_TOP
 66
1
 70
1
 40
0.000000
 41
0.000000
 39
0.000000
  0
VERTEX
  8
PIN_TOP
 10
10.358120
 20
13.962380
 40
0.000000
 41
0.000000
 42
0.000000
  0
VERTEX
  8
PIN_TOP
 10
10.815320
 20
13.962380
 40
0.000000
 41
0.000000
 42
-1.000000
  0
VERTEX
  8
PIN_TOP
 10
10.815320
 20
13.769340
 40
0.000000
 41
0.000000
 42
0.000000
  0
VERTEX
  8
PIN_TOP
 10
10.358120
 20
13.769340
 40
0.000000
 41
0.000000
 42
-1.000000
  0
SEQEND
  0
POLYLINE
  8
PIN_TOP
 66
1
 70
1
 40
0.000000
 41
0.000000
 39
0.000000
  0
VERTEX
  8
PIN_TOP
 10
10.358120
 20
13.561060
 40
0.000000
 41
0.000000
 42
0.000000
  0
VERTEX
  8
PIN_TOP
 10
10.815320
 20
13.561060
 40
0.000000
 41
0.000000
 42
-1.000000
  0
VERTEX
  8
PIN_TOP
 10
10.815320
 20
13.368020
 40
0.000000
 41
0.000000
 42
0.000000
  0
VERTEX
  8
PIN_TOP
 10
10.358120
 20
13.368020
 40
0.000000
 41
0.000000
 42
-1.000000
  0
SEQEND
  0
POLYLINE
  8
PIN_TOP
 66
1
 70
1
 40
0.000000
 41
0.000000
 39
0.000000
  0
VERTEX
  8
PIN_TOP
 10
10.358120
 20
13.159740
 40
0.000000
 41
0.000000
 42
0.000000
  0
VERTEX
  8
PIN_TOP
 10
10.815320
 20
13.159740
 40
0.000000
 41
0.000000
 42
-1.000000
  0
VERTEX
  8
PIN_TOP
 10
10.815320
 20
12.966700
 40
0.000000
 41
0.000000
 42
0.000000
  0
VERTEX
  8
PIN_TOP
 10
10.358120
 20
12.966700
 40
0.000000
 41
0.000000
 42
-1.000000
  0
SEQEND
  0
POLYLINE
  8
PIN_TOP
 66
1
 70
1
 40
0.000000
 41
0.000000
 39
0.000000
  0
VERTEX
  8
PIN_TOP
 10
10.358120
 20
12.758420
 40
0.000000
 41
0.000000
 42
0.000000
  0
VERTEX
  8
PIN_TOP
 10
10.815320
 20
12.758420
 40
0.000000
 41
0.000000
 42
-1.000000
  0
VERTEX
  8
PIN_TOP
 10
10.815320
 20
12.565380
 40
0.000000
 41
0.000000
 42
0.000000
  0
VERTEX
  8
PIN_TOP
 10
10.358120
 20
12.565380
 40
0.000000
 41
0.000000
 42
-1.000000
  0
SEQEND
  0
POLYLINE
  8
PIN_TOP
 66
1
 70
1
 40
0.000000
 41
0.000000
 39
0.000000
  0
VERTEX
  8
PIN_TOP
 10
10.358120
 20
12.357100
 40
0.000000
 41
0.000000
 42
0.000000
  0
VERTEX
  8
PIN_TOP
 10
10.815320
 20
12.357100
 40
0.000000
 41
0.000000
 42
-1.000000
  0
VERTEX
  8
PIN_TOP
 10
10.815320
 20
12.164060
 40
0.000000
 41
0.000000
 42
0.000000
  0
VERTEX
  8
PIN_TOP
 10
10.358120
 20
12.164060
 40
0.000000
 41
0.000000
 42
-1.000000
  0
SEQEND
  0
POLYLINE
  8
PIN_TOP
 66
1
 70
1
 40
0.000000
 41
0.000000
 39
0.000000
  0
VERTEX
  8
PIN_TOP
 10
10.358120
 20
11.955780
 40
0.000000
 41
0.000000
 42
0.000000
  0
VERTEX
  8
PIN_TOP
 10
10.815320
 20
11.955780
 40
0.000000
 41
0.000000
 42
-1.000000
  0
VERTEX
  8
PIN_TOP
 10
10.815320
 20
11.762740
 40
0.000000
 41
0.000000
 42
0.000000
  0
VERTEX
  8
PIN_TOP
 10
10.358120
 20
11.762740
 40
0.000000
 41
0.000000
 42
-1.000000
  0
SEQEND
  0
POLYLINE
  8
PIN_TOP
 66
1
 70
1
 40
0.000000
 41
0.000000
 39
0.000000
  0
VERTEX
  8
PIN_TOP
 10
10.358120
 20
11.554460
 40
0.000000
 41
0.000000
 42
0.000000
  0
VERTEX
  8
PIN_TOP
 10
10.815320
 20
11.554460
 40
0.000000
 41
0.000000
 42
-1.000000
  0
VERTEX
  8
PIN_TOP
 10
10.815320
 20
11.361420
 40
0.000000
 41
0.000000
 42
0.000000
  0
VERTEX
  8
PIN_TOP
 10
10.358120
 20
11.361420
 40
0.000000
 41
0.000000
 42
-1.000000
  0
SEQEND
  0
POLYLINE
  8
PIN_TOP
 66
1
 70
1
 40
0.000000
 41
0.000000
 39
0.000000
  0
VERTEX
  8
PIN_TOP
 10
10.358120
 20
11.153140
 40
0.000000
 41
0.000000
 42
0.000000
  0
VERTEX
  8
PIN_TOP
 10
10.815320
 20
11.153140
 40
0.000000
 41
0.000000
 42
-1.000000
  0
VERTEX
  8
PIN_TOP
 10
10.815320
 20
10.960100
 40
0.000000
 41
0.000000
 42
0.000000
  0
VERTEX
  8
PIN_TOP
 10
10.358120
 20
10.960100
 40
0.000000
 41
0.000000
 42
-1.000000
  0
SEQEND
  0
POLYLINE
  8
PIN_TOP
 66
1
 70
1
 40
0.000000
 41
0.000000
 39
0.000000
  0
VERTEX
  8
PIN_TOP
 10
10.358120
 20
10.751820
 40
0.000000
 41
0.000000
 42
0.000000
  0
VERTEX
  8
PIN_TOP
 10
10.815320
 20
10.751820
 40
0.000000
 41
0.000000
 42
-1.000000
  0
VERTEX
  8
PIN_TOP
 10
10.815320
 20
10.558780
 40
0.000000
 41
0.000000
 42
0.000000
  0
VERTEX
  8
PIN_TOP
 10
10.358120
 20
10.558780
 40
0.000000
 41
0.000000
 42
-1.000000
  0
SEQEND
  0
POLYLINE
  8
PIN_TOP
 66
1
 70
1
 40
0.000000
 41
0.000000
 39
0.000000
  0
VERTEX
  8
PIN_TOP
 10
10.358120
 20
10.350500
 40
0.000000
 41
0.000000
 42
0.000000
  0
VERTEX
  8
PIN_TOP
 10
10.815320
 20
10.350500
 40
0.000000
 41
0.000000
 42
-1.000000
  0
VERTEX
  8
PIN_TOP
 10
10.815320
 20
10.157460
 40
0.000000
 41
0.000000
 42
0.000000
  0
VERTEX
  8
PIN_TOP
 10
10.358120
 20
10.157460
 40
0.000000
 41
0.000000
 42
-1.000000
  0
SEQEND
  0
POLYLINE
  8
PIN_TOP
 66
1
 70
1
 40
0.000000
 41
0.000000
 39
0.000000
  0
VERTEX
  8
PIN_TOP
 10
10.358120
 20
9.949180
 40
0.000000
 41
0.000000
 42
0.000000
  0
VERTEX
  8
PIN_TOP
 10
10.815320
 20
9.949180
 40
0.000000
 41
0.000000
 42
-1.000000
  0
VERTEX
  8
PIN_TOP
 10
10.815320
 20
9.756140
 40
0.000000
 41
0.000000
 42
0.000000
  0
VERTEX
  8
PIN_TOP
 10
10.358120
 20
9.756140
 40
0.000000
 41
0.000000
 42
-1.000000
  0
SEQEND
  0
POLYLINE
  8
PIN_TOP
 66
1
 70
1
 40
0.000000
 41
0.000000
 39
0.000000
  0
VERTEX
  8
PIN_TOP
 10
10.358120
 20
9.547860
 40
0.000000
 41
0.000000
 42
0.000000
  0
VERTEX
  8
PIN_TOP
 10
10.815320
 20
9.547860
 40
0.000000
 41
0.000000
 42
-1.000000
  0
VERTEX
  8
PIN_TOP
 10
10.815320
 20
9.354820
 40
0.000000
 41
0.000000
 42
0.000000
  0
VERTEX
  8
PIN_TOP
 10
10.358120
 20
9.354820
 40
0.000000
 41
0.000000
 42
-1.000000
  0
SEQEND
  0
POLYLINE
  8
PIN_TOP
 66
1
 70
1
 40
0.000000
 41
0.000000
 39
0.000000
  0
VERTEX
  8
PIN_TOP
 10
11.308080
 20
8.404860
 40
0.000000
 41
0.000000
 42
0.000000
  0
VERTEX
  8
PIN_TOP
 10
11.308080
 20
8.862060
 40
0.000000
 41
0.000000
 42
-1.000000
  0
VERTEX
  8
PIN_TOP
 10
11.501120
 20
8.862060
 40
0.000000
 41
0.000000
 42
0.000000
  0
VERTEX
  8
PIN_TOP
 10
11.501120
 20
8.404860
 40
0.000000
 41
0.000000
 42
-1.000000
  0
SEQEND
  0
POLYLINE
  8
PIN_TOP
 66
1
 70
1
 40
0.000000
 41
0.000000
 39
0.000000
  0
VERTEX
  8
PIN_TOP
 10
11.709400
 20
8.404860
 40
0.000000
 41
0.000000
 42
0.000000
  0
VERTEX
  8
PIN_TOP
 10
11.709400
 20
8.862060
 40
0.000000
 41
0.000000
 42
-1.000000
  0
VERTEX
  8
PIN_TOP
 10
11.902440
 20
8.862060
 40
0.000000
 41
0.000000
 42
0.000000
  0
VERTEX
  8
PIN_TOP
 10
11.902440
 20
8.404860
 40
0.000000
 41
0.000000
 42
-1.000000
  0
SEQEND
  0
POLYLINE
  8
PIN_TOP
 66
1
 70
1
 40
0.000000
 41
0.000000
 39
0.000000
  0
VERTEX
  8
PIN_TOP
 10
12.110720
 20
8.404860
 40
0.000000
 41
0.000000
 42
0.000000
  0
VERTEX
  8
PIN_TOP
 10
12.110720
 20
8.862060
 40
0.000000
 41
0.000000
 42
-1.000000
  0
VERTEX
  8
PIN_TOP
 10
12.303760
 20
8.862060
 40
0.000000
 41
0.000000
 42
0.000000
  0
VERTEX
  8
PIN_TOP
 10
12.303760
 20
8.404860
 40
0.000000
 41
0.000000
 42
-1.000000
  0
SEQEND
  0
POLYLINE
  8
PIN_TOP
 66
1
 70
1
 40
0.000000
 41
0.000000
 39
0.000000
  0
VERTEX
  8
PIN_TOP
 10
12.512040
 20
8.404860
 40
0.000000
 41
0.000000
 42
0.000000
  0
VERTEX
  8
PIN_TOP
 10
12.512040
 20
8.862060
 40
0.000000
 41
0.000000
 42
-1.000000
  0
VERTEX
  8
PIN_TOP
 10
12.705080
 20
8.862060
 40
0.000000
 41
0.000000
 42
0.000000
  0
VERTEX
  8
PIN_TOP
 10
12.705080
 20
8.404860
 40
0.000000
 41
0.000000
 42
-1.000000
  0
SEQEND
  0
POLYLINE
  8
PIN_TOP
 66
1
 70
1
 40
0.000000
 41
0.000000
 39
0.000000
  0
VERTEX
  8
PIN_TOP
 10
12.913360
 20
8.404860
 40
0.000000
 41
0.000000
 42
0.000000
  0
VERTEX
  8
PIN_TOP
 10
12.913360
 20
8.862060
 40
0.000000
 41
0.000000
 42
-1.000000
  0
VERTEX
  8
PIN_TOP
 10
13.106400
 20
8.862060
 40
0.000000
 41
0.000000
 42
0.000000
  0
VERTEX
  8
PIN_TOP
 10
13.106400
 20
8.404860
 40
0.000000
 41
0.000000
 42
-1.000000
  0
SEQEND
  0
POLYLINE
  8
PIN_TOP
 66
1
 70
1
 40
0.000000
 41
0.000000
 39
0.000000
  0
VERTEX
  8
PIN_TOP
 10
13.314680
 20
8.404860
 40
0.000000
 41
0.000000
 42
0.000000
  0
VERTEX
  8
PIN_TOP
 10
13.314680
 20
8.862060
 40
0.000000
 41
0.000000
 42
-1.000000
  0
VERTEX
  8
PIN_TOP
 10
13.507720
 20
8.862060
 40
0.000000
 41
0.000000
 42
0.000000
  0
VERTEX
  8
PIN_TOP
 10
13.507720
 20
8.404860
 40
0.000000
 41
0.000000
 42
-1.000000
  0
SEQEND
  0
POLYLINE
  8
PIN_TOP
 66
1
 70
1
 40
0.000000
 41
0.000000
 39
0.000000
  0
VERTEX
  8
PIN_TOP
 10
13.716000
 20
8.404860
 40
0.000000
 41
0.000000
 42
0.000000
  0
VERTEX
  8
PIN_TOP
 10
13.716000
 20
8.862060
 40
0.000000
 41
0.000000
 42
-1.000000
  0
VERTEX
  8
PIN_TOP
 10
13.909040
 20
8.862060
 40
0.000000
 41
0.000000
 42
0.000000
  0
VERTEX
  8
PIN_TOP
 10
13.909040
 20
8.404860
 40
0.000000
 41
0.000000
 42
-1.000000
  0
SEQEND
  0
POLYLINE
  8
PIN_TOP
 66
1
 70
1
 40
0.000000
 41
0.000000
 39
0.000000
  0
VERTEX
  8
PIN_TOP
 10
14.117320
 20
8.404860
 40
0.000000
 41
0.000000
 42
0.000000
  0
VERTEX
  8
PIN_TOP
 10
14.117320
 20
8.862060
 40
0.000000
 41
0.000000
 42
-1.000000
  0
VERTEX
  8
PIN_TOP
 10
14.310360
 20
8.862060
 40
0.000000
 41
0.000000
 42
0.000000
  0
VERTEX
  8
PIN_TOP
 10
14.310360
 20
8.404860
 40
0.000000
 41
0.000000
 42
-1.000000
  0
SEQEND
  0
POLYLINE
  8
PIN_TOP
 66
1
 70
1
 40
0.000000
 41
0.000000
 39
0.000000
  0
VERTEX
  8
PIN_TOP
 10
14.518640
 20
8.404860
 40
0.000000
 41
0.000000
 42
0.000000
  0
VERTEX
  8
PIN_TOP
 10
14.518640
 20
8.862060
 40
0.000000
 41
0.000000
 42
-1.000000
  0
VERTEX
  8
PIN_TOP
 10
14.711680
 20
8.862060
 40
0.000000
 41
0.000000
 42
0.000000
  0
VERTEX
  8
PIN_TOP
 10
14.711680
 20
8.404860
 40
0.000000
 41
0.000000
 42
-1.000000
  0
SEQEND
  0
POLYLINE
  8
PIN_TOP
 66
1
 70
1
 40
0.000000
 41
0.000000
 39
0.000000
  0
VERTEX
  8
PIN_TOP
 10
14.919960
 20
8.404860
 40
0.000000
 41
0.000000
 42
0.000000
  0
VERTEX
  8
PIN_TOP
 10
14.919960
 20
8.862060
 40
0.000000
 41
0.000000
 42
-1.000000
  0
VERTEX
  8
PIN_TOP
 10
15.113000
 20
8.862060
 40
0.000000
 41
0.000000
 42
0.000000
  0
VERTEX
  8
PIN_TOP
 10
15.113000
 20
8.404860
 40
0.000000
 41
0.000000
 42
-1.000000
  0
SEQEND
  0
POLYLINE
  8
PIN_TOP
 66
1
 70
1
 40
0.000000
 41
0.000000
 39
0.000000
  0
VERTEX
  8
PIN_TOP
 10
15.321280
 20
8.404860
 40
0.000000
 41
0.000000
 42
0.000000
  0
VERTEX
  8
PIN_TOP
 10
15.321280
 20
8.862060
 40
0.000000
 41
0.000000
 42
-1.000000
  0
VERTEX
  8
PIN_TOP
 10
15.514320
 20
8.862060
 40
0.000000
 41
0.000000
 42
0.000000
  0
VERTEX
  8
PIN_TOP
 10
15.514320
 20
8.404860
 40
0.000000
 41
0.000000
 42
-1.000000
  0
SEQEND
  0
POLYLINE
  8
PIN_TOP
 66
1
 70
1
 40
0.000000
 41
0.000000
 39
0.000000
  0
VERTEX
  8
PIN_TOP
 10
15.722600
 20
8.404860
 40
0.000000
 41
0.000000
 42
0.000000
  0
VERTEX
  8
PIN_TOP
 10
15.722600
 20
8.862060
 40
0.000000
 41
0.000000
 42
-1.000000
  0
VERTEX
  8
PIN_TOP
 10
15.915640
 20
8.862060
 40
0.000000
 41
0.000000
 42
0.000000
  0
VERTEX
  8
PIN_TOP
 10
15.915640
 20
8.404860
 40
0.000000
 41
0.000000
 42
-1.000000
  0
SEQEND
  0
POLYLINE
  8
PIN_TOP
 66
1
 70
1
 40
0.000000
 41
0.000000
 39
0.000000
  0
VERTEX
  8
PIN_TOP
 10
15.961360
 20
9.309100
 40
0.000000
 41
0.000000
 42
0.000000
  0
VERTEX
  8
PIN_TOP
 10
11.262360
 20
9.309100
 40
0.000000
 41
0.000000
 42
0.000000
  0
VERTEX
  8
PIN_TOP
 10
11.262360
 20
14.008100
 40
0.000000
 41
0.000000
 42
0.000000
  0
VERTEX
  8
PIN_TOP
 10
15.961360
 20
14.008100
 40
0.000000
 41
0.000000
 42
0.000000
  0
SEQEND
  0
POLYLINE
  8
PG_ASSEMBLY_TOP
 66
1
 70
1
 40
0.000000
 41
0.000000
 39
0.000000
  0
VERTEX
  8
PG_ASSEMBLY_TOP
 10
16.012160
 20
14.457680
 40
0.000000
 41
0.000000
 42
0.000000
  0
VERTEX
  8
PG_ASSEMBLY_TOP
 10
10.812780
 20
14.457680
 40
0.000000
 41
0.000000
 42
0.000000
  0
VERTEX
  8
PG_ASSEMBLY_TOP
 10
10.812780
 20
8.859520
 40
0.000000
 41
0.000000
 42
0.000000
  0
VERTEX
  8
PG_ASSEMBLY_TOP
 10
16.111220
 20
8.859520
 40
0.000000
 41
0.000000
 42
0.000000
  0
VERTEX
  8
PG_ASSEMBLY_TOP
 10
16.410940
 20
9.159240
 40
0.000000
 41
0.000000
 42
0.000000
  0
VERTEX
  8
PG_ASSEMBLY_TOP
 10
16.410940
 20
14.457680
 40
0.000000
 41
0.000000
 42
0.000000
  0
SEQEND
  0
TEXT
  8
PG_ASSEMBLY_TOP
 10
17.195800
 20
9.314180
 11
0.000000
 21
0.000000
 40
0.635000
 41
0.880000
 50
0.000000
  7
STANDARD
 71
0
 72
0
  1
1
 73
0
  0
TEXT
  8
PG_ASSEMBLY_TOP
 10
16.662400
 20
14.394180
 11
0.000000
 21
0.000000
 40
0.635000
 41
0.880000
 50
0.000000
  7
STANDARD
 71
0
 72
0
  1
12
 73
0
  0
TEXT
  8
PG_ASSEMBLY_TOP
 10
15.392400
 20
15.410180
 11
0.000000
 21
0.000000
 40
0.635000
 41
0.880000
 50
0.000000
  7
STANDARD
 71
0
 72
0
  1
13
 73
0
  0
TEXT
  8
PG_ASSEMBLY_TOP
 10
11.074400
 20
15.283180
 11
0.000000
 21
0.000000
 40
0.635000
 41
0.880000
 50
0.000000
  7
STANDARD
 71
0
 72
0
  1
24
 73
0
  0
TEXT
  8
PG_ASSEMBLY_TOP
 10
9.550400
 20
14.267180
 11
0.000000
 21
0.000000
 40
0.635000
 41
0.880000
 50
0.000000
  7
STANDARD
 71
0
 72
0
  1
25
 73
0
  0
TEXT
  8
PG_ASSEMBLY_TOP
 10
10.820400
 20
7.536180
 11
0.000000
 21
0.000000
 40
0.635000
 41
0.880000
 50
0.000000
  7
STANDARD
 71
0
 72
0
  1
37
 73
0
  0
TEXT
  8
PG_ASSEMBLY_TOP
 10
16.662400
 20
8.171180
 11
0.000000
 21
0.000000
 40
0.635000
 41
0.880000
 50
0.000000
  7
STANDARD
 71
0
 72
0
  1
48
 73
0
  0
TEXT
  8
RD_ASSEMBLY_TOP
 10
13.360400
 20
15.537180
 11
0.000000
 21
0.000000
 40
0.635000
 41
0.880000
 50
0.000000
  7
STANDARD
 71
0
 72
0
  1
U1
 73
0
  0
POLYLINE
  8
PIN_TOP
 66
1
 70
1
 40
0.000000
 41
0.000000
 39
0.000000
  0
VERTEX
  8
PIN_TOP
 10
18.318480
 20
3.157220
 40
0.000000
 41
0.000000
 42
0.000000
  0
VERTEX
  8
PIN_TOP
 10
25.318720
 20
3.157220
 40
0.000000
 41
0.000000
 42
0.000000
  0
VERTEX
  8
PIN_TOP
 10
25.318720
 20
7.256780
 40
0.000000
 41
0.000000
 42
0.000000
  0
VERTEX
  8
PIN_TOP
 10
23.088600
 20
7.256780
 40
0.000000
 41
0.000000
 42
0.000000
  0
VERTEX
  8
PIN_TOP
 10
23.088600
 20
5.857240
 40
0.000000
 41
0.000000
 42
0.000000
  0
VERTEX
  8
PIN_TOP
 10
20.518120
 20
5.857240
 40
0.000000
 41
0.000000
 42
0.000000
  0
VERTEX
  8
PIN_TOP
 10
20.518120
 20
7.457440
 40
0.000000
 41
0.000000
 42
0.000000
  0
VERTEX
  8
PIN_TOP
 10
23.022560
 20
7.457440
 40
0.000000
 41
0.000000
 42
0.000000
  0
VERTEX
  8
PIN_TOP
 10
23.111460
 20
7.368540
 40
0.000000
 41
0.000000
 42
0.000000
  0
VERTEX
  8
PIN_TOP
 10
25.318720
 20
7.368540
 40
0.000000
 41
0.000000
 42
0.000000
  0
VERTEX
  8
PIN_TOP
 10
25.318720
 20
10.157460
 40
0.000000
 41
0.000000
 42
0.000000
  0
VERTEX
  8
PIN_TOP
 10
18.318480
 20
10.157460
 40
0.000000
 41
0.000000
 42
0.000000
  0
SEQEND
  0
POLYLINE
  8
PG_ASSEMBLY_TOP
 66
1
 70
1
 40
0.000000
 41
0.000000
 39
0.000000
  0
VERTEX
  8
PG_ASSEMBLY_TOP
 10
25.666700
 20
10.505440
 40
0.000000
 41
0.000000
 42
0.000000
  0
VERTEX
  8
PG_ASSEMBLY_TOP
 10
25.666700
 20
2.809240
 40
0.000000
 41
0.000000
 42
0.000000
  0
VERTEX
  8
PG_ASSEMBLY_TOP
 10
17.970500
 20
2.809240
 40
0.000000
 41
0.000000
 42
0.000000
  0
VERTEX
  8
PG_ASSEMBLY_TOP
 10
17.970500
 20
10.505440
 40
0.000000
 41
0.000000
 42
0.000000
  0
SEQEND
  0
TEXT
  8
RD_ASSEMBLY_TOP
 10
17.060333
 20
6.393180
 11
17.272000
 21
6.393180
 40
0.635000
 41
0.880000
 50
0.000000
  7
STANDARD
 71
0
 72
1
  1
U2
 73
0
  0
POLYLINE
  8
PIN_TOP
 66
1
 70
1
 40
0.000000
 41
0.000000
 39
0.000000
  0
VERTEX
  8
PIN_TOP
 10
13.848080
 20
0.952500
 40
0.000000
 41
0.000000
 42
0.000000
  0
VERTEX
  8
PIN_TOP
 10
13.848080
 20
1.739900
 40
0.000000
 41
0.000000
 42
0.000000
  0
VERTEX
  8
PIN_TOP
 10
14.254480
 20
1.739900
 40
0.000000
 41
0.000000
 42
0.000000
  0
VERTEX
  8
PIN_TOP
 10
14.254480
 20
0.952500
 40
0.000000
 41
0.000000
 42
0.000000
  0
SEQEND
  0
POLYLINE
  8
PIN_TOP
 66
1
 70
1
 40
0.000000
 41
0.000000
 39
0.000000
  0
VERTEX
  8
PIN_TOP
 10
14.650720
 20
0.952500
 40
0.000000
 41
0.000000
 42
0.000000
  0
VERTEX
  8
PIN_TOP
 10
14.650720
 20
1.739900
 40
0.000000
 41
0.000000
 42
0.000000
  0
VERTEX
  8
PIN_TOP
 10
15.057120
 20
1.739900
 40
0.000000
 41
0.000000
 42
0.000000
  0
VERTEX
  8
PIN_TOP
 10
15.057120
 20
0.952500
 40
0.000000
 41
0.000000
 42
0.000000
  0
SEQEND
  0
POLYLINE
  8
PIN_TOP
 66
1
 70
1
 40
0.000000
 41
0.000000
 39
0.000000
  0
VERTEX
  8
PIN_TOP
 10
12.451080
 20
0.398780
 40
0.000000
 41
0.000000
 42
0.000000
  0
VERTEX
  8
PIN_TOP
 10
12.451080
 20
1.297940
 40
0.000000
 41
0.000000
 42
0.000000
  0
VERTEX
  8
PIN_TOP
 10
13.451840
 20
1.297940
 40
0.000000
 41
0.000000
 42
0.000000
  0
VERTEX
  8
PIN_TOP
 10
13.451840
 20
0.398780
 40
0.000000
 41
0.000000
 42
0.000000
  0
SEQEND
  0
POLYLINE
  8
PIN_TOP
 66
1
 70
1
 40
0.000000
 41
0.000000
 39
0.000000
  0
VERTEX
  8
PIN_TOP
 10
15.453360
 20
0.398780
 40
0.000000
 41
0.000000
 42
0.000000
  0
VERTEX
  8
PIN_TOP
 10
15.453360
 20
1.297940
 40
0.000000
 41
0.000000
 42
0.000000
  0
VERTEX
  8
PIN_TOP
 10
16.454120
 20
1.297940
 40
0.000000
 41
0.000000
 42
0.000000
  0
VERTEX
  8
PIN_TOP
 10
16.454120
 20
0.398780
 40
0.000000
 41
0.000000
 42
0.000000
  0
SEQEND
  0
POLYLINE
  8
PG_ASSEMBLY_TOP
 66
1
 70
1
 40
0.000000
 41
0.000000
 39
0.000000
  0
VERTEX
  8
PG_ASSEMBLY_TOP
 10
12.951460
 20
1.597660
 40
0.000000
 41
0.000000
 42
0.000000
  0
VERTEX
  8
PG_ASSEMBLY_TOP
 10
15.953740
 20
1.597660
 40
0.000000
 41
0.000000
 42
0.000000
  0
VERTEX
  8
PG_ASSEMBLY_TOP
 10
15.953740
 20
0.596900
 40
0.000000
 41
0.000000
 42
0.000000
  0
VERTEX
  8
PG_ASSEMBLY_TOP
 10
12.951460
 20
0.596900
 40
0.000000
 41
0.000000
 42
0.000000
  0
SEQEND
  0
TEXT
  8
RD_ASSEMBLY_TOP
 10
16.281400
 20
1.948180
 11
0.000000
 21
0.000000
 40
0.635000
 41
0.880000
 50
0.000000
  7
STANDARD
 71
0
 72
0
  1
D2
 73
0
  0
TEXT
  8
PG_ASSEMBLY_TOP
 10
16.687800
 20
0.548640
 11
0.000000
 21
0.000000
 40
0.635000
 41
0.880000
 50
0.000000
  7
STANDARD
 71
0
 72
0
  1
A
 73
0
  0
TEXT
  8
PG_ASSEMBLY_TOP
 10
11.861800
 20
0.548640
 11
0.000000
 21
0.000000
 40
0.635000
 41
0.880000
 50
0.000000
  7
STANDARD
 71
0
 72
0
  1
K
 73
0
  0
TEXT
  8
PG_ASSEMBLY_TOP
 10
13.893800
 20
1.945640
 11
0.000000
 21
0.000000
 40
0.635000
 41
0.880000
 50
0.000000
  7
STANDARD
 71
0
 72
0
  1
K
 73
0
  0
TEXT
  8
PG_ASSEMBLY_TOP
 10
14.655800
 20
1.945640
 11
0.000000
 21
0.000000
 40
0.635000
 41
0.880000
 50
0.000000
  7
STANDARD
 71
0
 72
0
  1
K
 73
0
  0
POLYLINE
  8
PIN_TOP
 66
1
 70
1
 40
0.000000
 41
0.000000
 39
0.000000
  0
VERTEX
  8
PIN_TOP
 10
21.046440
 20
6.405880
 40
0.000000
 41
0.000000
 42
0.000000
  0
VERTEX
  8
PIN_TOP
 10
21.046440
 20
6.906260
 40
0.000000
 41
0.000000
 42
0.000000
  0
VERTEX
  8
PIN_TOP
 10
21.747480
 20
6.906260
 40
0.000000
 41
0.000000
 42
0.000000
  0
VERTEX
  8
PIN_TOP
 10
21.747480
 20
6.405880
 40
0.000000
 41
0.000000
 42
0.000000
  0
SEQEND
  0
POLYLINE
  8
PIN_TOP
 66
1
 70
1
 40
0.000000
 41
0.000000
 39
0.000000
  0
VERTEX
  8
PIN_TOP
 10
22.143720
 20
6.405880
 40
0.000000
 41
0.000000
 42
0.000000
  0
VERTEX
  8
PIN_TOP
 10
22.143720
 20
6.906260
 40
0.000000
 41
0.000000
 42
0.000000
  0
VERTEX
  8
PIN_TOP
 10
22.844760
 20
6.906260
 40
0.000000
 41
0.000000
 42
0.000000
  0
VERTEX
  8
PIN_TOP
 10
22.844760
 20
6.405880
 40
0.000000
 41
0.000000
 42
0.000000
  0
SEQEND
  0
POLYLINE
  8
PG_ASSEMBLY_TOP
 66
1
 70
1
 40
0.000000
 41
0.000000
 39
0.000000
  0
VERTEX
  8
PG_ASSEMBLY_TOP
 10
21.445220
 20
6.408420
 40
0.000000
 41
0.000000
 42
0.000000
  0
VERTEX
  8
PG_ASSEMBLY_TOP
 10
22.445980
 20
6.408420
 40
0.000000
 41
0.000000
 42
0.000000
  0
VERTEX
  8
PG_ASSEMBLY_TOP
 10
22.445980
 20
6.906260
 40
0.000000
 41
0.000000
 42
0.000000
  0
VERTEX
  8
PG_ASSEMBLY_TOP
 10
21.445220
 20
6.906260
 40
0.000000
 41
0.000000
 42
0.000000
  0
SEQEND
  0
POLYLINE
  8
PG_ASSEMBLY_TOP
 66
1
 70
0
 40
0.000000
 41
0.000000
 39
0.000000
  0
VERTEX
  8
PG_ASSEMBLY_TOP
 10
20.919440
 20
2.070100
 40
0.152400
 41
0.152400
 42
0.000000
  0
VERTEX
  8
PG_ASSEMBLY_TOP
 10
21.518880
 20
2.070100
 40
0.152400
 41
0.152400
 42
0.000000
  0
VERTEX
  8
PG_ASSEMBLY_TOP
 10
21.518880
 20
2.369820
 40
0.152400
 41
0.152400
 42
0.000000
  0
VERTEX
  8
PG_ASSEMBLY_TOP
 10
21.818600
 20
2.070100
 40
0.152400
 41
0.152400
 42
0.000000
  0
VERTEX
  8
PG_ASSEMBLY_TOP
 10
21.518880
 20
1.770380
 40
0.152400
 41
0.152400
 42
0.000000
  0
VERTEX
  8
PG_ASSEMBLY_TOP
 10
21.518880
 20
2.070100
 40
0.152400
 41
0.152400
 42
0.000000
  0
SEQEND
  0
POLYLINE
  8
PG_ASSEMBLY_TOP
 66
1
 70
0
 40
0.000000
 41
0.000000
 39
0.000000
  0
VERTEX
  8
PG_ASSEMBLY_TOP
 10
21.818600
 20
2.369820
 40
0.152400
 41
0.152400
 42
0.000000
  0
VERTEX
  8
PG_ASSEMBLY_TOP
 10
21.818600
 20
1.770380
 40
0.152400
 41
0.152400
 42
0.000000
  0
SEQEND
  0
POLYLINE
  8
PG_ASSEMBLY_TOP
 66
1
 70
0
 40
0.000000
 41
0.000000
 39
0.000000
  0
VERTEX
  8
PG_ASSEMBLY_TOP
 10
21.818600
 20
2.070100
 40
0.152400
 41
0.152400
 42
0.000000
  0
VERTEX
  8
PG_ASSEMBLY_TOP
 10
22.219920
 20
2.070100
 40
0.152400
 41
0.152400
 42
0.000000
  0
SEQEND
  0
TEXT
  8
RD_ASSEMBLY_TOP
 10
21.234400
 20
0.805180
 11
0.000000
 21
0.000000
 40
0.635000
 41
0.880000
 50
0.000000
  7
STANDARD
 71
0
 72
0
  1
D1
 73
0
  0
POLYLINE
  8
BG_OUTLINE
 66
1
 70
1
 40
0.000000
 41
0.000000
 39
0.000000
  0
VERTEX
  8
BG_OUTLINE
 10
0.000000
 20
0.000000
 40
0.000000
 41
0.000000
 42
0.000000
  0
VERTEX
  8
BG_OUTLINE
 10
35.001200
 20
0.000000
 40
0.000000
 41
0.000000
 42
0.000000
  0
VERTEX
  8
BG_OUTLINE
 10
35.001200
 20
25.001220
 40
0.000000
 41
0.000000
 42
0.000000
  0
VERTEX
  8
BG_OUTLINE
 10
0.000000
 20
25.001220
 40
0.000000
 41
0.000000
 42
0.000000
  0
SEQEND
  0
TEXT
  8
DF_ASS_TOP
 10
-0.088900
 20
29.179520
 11
0.000000
 21
0.000000
 40
2.540000
 41
1.000000
 50
0.000000
  7
STANDARD
 71
0
 72
0
  1
ASSEMBLY_TOP
 73
0
  0
TEXT
  8
DF_FILM_LABEL_OUTLINE
 10
-0.342900
 20
36.291520
 11
0.000000
 21
0.000000
 40
2.540000
 41
1.000000
 50
0.000000
  7
STANDARD
 71
0
 72
0
  1
DATE: 19/05/15
 73
0
  0
TEXT
  8
DF_FILM_LABEL_OUTLINE
 10
-0.215900
 20
32.608520
 11
0.000000
 21
0.000000
 40
2.540000
 41
1.000000
 50
0.000000
  7
STANDARD
 71
0
 72
0
  1
WIRELESS_BOARD_Rev_B
 73
0
  0
ENDSEC
  0
EOF
