G04 ================== begin FILE IDENTIFICATION RECORD ==================*
G04 Layout Name:  CURRENT_SENSE_BOARD_03AUG15_1930.brd*
G04 Film Name:    L02_BOTTOM*
G04 File Format:  Gerber RS274X*
G04 File Origin:  Cadence Allegro 16.6-P004*
G04 Origin Date:  Mon Aug 03 19:39:57 2015*
G04 *
G04 Layer:  DRAWING FORMAT/FILM_LABEL_OUTLINE*
G04 Layer:  BOARD GEOMETRY/OUTLINE*
G04 Layer:  ETCH/BOTTOM*
G04 Layer:  PIN/BOTTOM*
G04 Layer:  VIA CLASS/BOTTOM*
G04 *
G04 Offset:    (0.00 0.00)*
G04 Mirror:    No*
G04 Mode:      Positive*
G04 Rotation:  0*
G04 FullContactRelief:  No*
G04 UndefLineWidth:     6.00*
G04 ================== end FILE IDENTIFICATION RECORD ====================*
%FSLAX25Y25*MOIN*%
%IR0*IPPOS*OFA0.00000B0.00000*MIA0B0*SFA1.00000B1.00000*%
%ADD13C,.02*%
%ADD10C,.06*%
%ADD27R,.06X.06*%
%AMMACRO23*
4,1,5,.00097,-.01673,
-.00591,-.01673,
-.00591,.01673,
.00591,.01673,
.00591,-.0118,
.00097,-.01673,
0.0*
%
%ADD23MACRO23*%
%AMMACRO19*
4,1,5,-.01673,-.00097,
-.01673,.00591,
.01673,.00591,
.01673,-.00591,
-.0118,-.00591,
-.01673,-.00097,
0.0*
%
%ADD19MACRO19*%
%ADD26R,.09646X.09646*%
%AMMACRO20*
4,1,5,.00097,.01673,
-.00591,.01673,
-.00591,-.01673,
.00591,-.01673,
.00591,.0118,
.00097,.01673,
0.0*
%
%ADD20MACRO20*%
%AMMACRO15*
4,1,5,.01673,-.00097,
.01673,.00591,
-.01673,.00591,
-.01673,-.00591,
.0118,-.00591,
.01673,-.00097,
0.0*
%
%ADD15MACRO15*%
%ADD12R,.034X.03*%
%ADD11R,.03X.034*%
%ADD14R,.0217X.0236*%
%ADD25R,.01181X.03346*%
%ADD17R,.03346X.01181*%
%AMMACRO21*
4,1,5,-.00097,.01673,
.00591,.01673,
.00591,-.01673,
-.00591,-.01673,
-.00591,.0118,
-.00097,.01673,
0.0*
%
%ADD21MACRO21*%
%ADD18R,.04921X.06299*%
%AMMACRO16*
4,1,5,.01673,.00097,
.01673,-.00591,
-.01673,-.00591,
-.01673,.00591,
.0118,.00591,
.01673,.00097,
0.0*
%
%ADD16MACRO16*%
%AMMACRO24*
4,1,5,-.01673,.00097,
-.01673,-.00591,
.01673,-.00591,
.01673,.00591,
-.0118,.00591,
-.01673,.00097,
0.0*
%
%ADD24MACRO24*%
%AMMACRO22*
4,1,5,-.00097,-.01673,
.00591,-.01673,
.00591,.01673,
-.00591,.01673,
-.00591,-.0118,
-.00097,-.01673,
0.0*
%
%ADD22MACRO22*%
%ADD28C,.011*%
%ADD29C,.012*%
%ADD30C,.015*%
%ADD31C,.006*%
%ADD32C,.008*%
%ADD33R,.01602X.03404*%
G75*
%LPD*%
G75*
G36*
G01X12998Y41500D02*
Y32602D01*
X4498D01*
Y41500D01*
X12998D01*
G37*
G36*
G01X40525Y41600D02*
Y32500D01*
X29000D01*
Y28230D01*
X25693D01*
Y41600D01*
X40525D01*
G37*
%LPC*%
G75*
G54D33*
X8781Y34724D03*
%LPD*%
G75*
G54D10*
X7493Y5000D03*
Y15000D03*
X17493Y5000D03*
X27493D03*
X37493D03*
X17493Y15000D03*
X27493D03*
X37493D03*
X47493D03*
G54D11*
X6081Y34724D03*
X2300Y71300D03*
X7700D03*
X11481Y34724D03*
X39000Y34524D03*
X27198Y29924D03*
X21798D03*
X39000Y40076D03*
X27198Y34924D03*
X21798D03*
Y39900D03*
X27198D03*
X44400Y34524D03*
Y40076D03*
G54D20*
X21919Y52047D03*
G54D30*
G01X1498Y28500D02*
Y10995D01*
X7493Y5000D01*
G01X1498Y28500D02*
Y32000D01*
G01D02*
Y47498D01*
X1500Y47500D01*
Y49000D01*
X2500Y50000D01*
G01X3498Y30500D02*
X1498Y28500D01*
G01X3498Y30500D02*
X2998D01*
X1498Y32000D01*
G01X3498Y30500D02*
X9400D01*
G01X11500Y72000D02*
X10800Y71300D01*
X7700D01*
G01X2498Y66968D02*
X5554D01*
X7700Y69114D01*
Y71300D01*
G01X21798Y39900D02*
X17998D01*
G01X30579Y69579D02*
X31200Y70200D01*
X33998D01*
G01Y54800D02*
X32212D01*
X28871Y58141D01*
Y59873D01*
G54D21*
X12077Y52047D03*
G54D12*
X6081Y45224D03*
Y39824D03*
X16498Y34924D03*
Y29524D03*
X11481Y45224D03*
Y39824D03*
X33000Y45300D03*
Y39900D03*
X33998Y70200D03*
Y64800D03*
Y54800D03*
Y60200D03*
X50000Y34524D03*
Y39924D03*
G54D31*
G01X-17Y74000D02*
X57015D01*
X56974Y0D01*
X0D01*
X-17Y74000D01*
G01X-15002Y115667D02*
Y105667D01*
X-10002D01*
G01X-2502Y115667D02*
X-3502Y115334D01*
X-4252Y114500D01*
X-4752Y113500D01*
X-5127Y112167D01*
X-5252Y110667D01*
X-5127Y109167D01*
X-4752Y107834D01*
X-4252Y106833D01*
X-3502Y106000D01*
X-2502Y105667D01*
X-1502Y106000D01*
X-752Y106833D01*
X-252Y107834D01*
X123Y109167D01*
X248Y110667D01*
X123Y112167D01*
X-252Y113500D01*
X-752Y114500D01*
X-1502Y115334D01*
X-2502Y115667D01*
G01X5123Y114000D02*
X5873Y115000D01*
X6748Y115500D01*
X7748Y115667D01*
X8998Y115334D01*
X9873Y114500D01*
X10123Y113500D01*
X9998Y112500D01*
X9498Y111667D01*
X6998Y110000D01*
X5873Y108834D01*
X5123Y107167D01*
X4873Y105667D01*
X10123D01*
G01X13748Y102334D02*
X21248D01*
G01X28498Y111000D02*
X28998Y111500D01*
X29373Y112333D01*
X29623Y113500D01*
X29373Y114500D01*
X28873Y115167D01*
X27998Y115667D01*
X24623D01*
Y105667D01*
X28748D01*
X29623Y106334D01*
X30123Y107334D01*
X30373Y108500D01*
X30123Y109667D01*
X29373Y110667D01*
X28498Y111000D01*
X24623D01*
G01X37498Y105667D02*
X36498Y105834D01*
X35623Y106500D01*
X34873Y107500D01*
X34373Y108667D01*
X34123Y110000D01*
Y111334D01*
X34373Y112667D01*
X34873Y113834D01*
X35623Y114834D01*
X36498Y115500D01*
X37498Y115667D01*
X38498Y115500D01*
X39373Y114834D01*
X40123Y113834D01*
X40623Y112667D01*
X40873Y111334D01*
Y110000D01*
X40623Y108667D01*
X40123Y107500D01*
X39373Y106500D01*
X38498Y105834D01*
X37498Y105667D01*
G01X47498Y115667D02*
Y105667D01*
G01X44623Y115667D02*
X50373D01*
G01X57498D02*
Y105667D01*
G01X54623Y115667D02*
X60373D01*
G01X67498Y105667D02*
X66498Y105834D01*
X65623Y106500D01*
X64873Y107500D01*
X64373Y108667D01*
X64123Y110000D01*
Y111334D01*
X64373Y112667D01*
X64873Y113834D01*
X65623Y114834D01*
X66498Y115500D01*
X67498Y115667D01*
X68498Y115500D01*
X69373Y114834D01*
X70123Y113834D01*
X70623Y112667D01*
X70873Y111334D01*
Y110000D01*
X70623Y108667D01*
X70123Y107500D01*
X69373Y106500D01*
X68498Y105834D01*
X67498Y105667D01*
G01X74248D02*
Y115667D01*
X77498Y107334D01*
X80748Y115667D01*
Y105667D01*
G01X-17252Y134991D02*
Y144991D01*
X-14752D01*
X-13752Y144491D01*
X-13002Y143824D01*
X-12377Y142824D01*
X-11877Y141657D01*
X-11752Y139991D01*
X-11877Y138324D01*
X-12377Y137158D01*
X-13002Y136157D01*
X-13752Y135491D01*
X-14752Y134991D01*
X-17252D01*
G01X-7627D02*
X-4502Y144991D01*
X-1377Y134991D01*
G01X-2502Y138491D02*
X-6502D01*
G01X5498Y144991D02*
Y134991D01*
G01X2623Y144991D02*
X8373D01*
G01X17998Y134991D02*
X12998D01*
Y144991D01*
X17998D01*
G01X15998Y140158D02*
X12998D01*
G01X25498Y134658D02*
X25248Y134824D01*
Y135158D01*
X25498Y135324D01*
X25748Y135158D01*
Y134824D01*
X25498Y134658D01*
G01Y139157D02*
X25248Y139324D01*
Y139658D01*
X25498Y139824D01*
X25748Y139658D01*
Y139324D01*
X25498Y139157D01*
G01X45498Y144991D02*
X44498Y144658D01*
X43748Y143824D01*
X43248Y142824D01*
X42873Y141491D01*
X42748Y139991D01*
X42873Y138491D01*
X43248Y137158D01*
X43748Y136157D01*
X44498Y135324D01*
X45498Y134991D01*
X46498Y135324D01*
X47248Y136157D01*
X47748Y137158D01*
X48123Y138491D01*
X48248Y139991D01*
X48123Y141491D01*
X47748Y142824D01*
X47248Y143824D01*
X46498Y144658D01*
X45498Y144991D01*
G01X52748Y136991D02*
X53498Y135824D01*
X54498Y135158D01*
X55623Y134991D01*
X56623Y135158D01*
X57623Y135991D01*
X58248Y136991D01*
X58373Y137991D01*
X58123Y139157D01*
X57248Y139991D01*
X56373Y140324D01*
X55248D01*
G01X56373D02*
X57123Y140824D01*
X57748Y141657D01*
X57998Y142658D01*
X57748Y143658D01*
X57123Y144491D01*
X55998Y144991D01*
X54873Y144824D01*
X53748Y144158D01*
G01X63248Y134658D02*
X67748Y144991D01*
G01X75498D02*
X74498Y144658D01*
X73748Y143824D01*
X73248Y142824D01*
X72873Y141491D01*
X72748Y139991D01*
X72873Y138491D01*
X73248Y137158D01*
X73748Y136157D01*
X74498Y135324D01*
X75498Y134991D01*
X76498Y135324D01*
X77248Y136157D01*
X77748Y137158D01*
X78123Y138491D01*
X78248Y139991D01*
X78123Y141491D01*
X77748Y142824D01*
X77248Y143824D01*
X76498Y144658D01*
X75498Y144991D01*
G01X85498Y134991D02*
X86373Y135158D01*
X87373Y135658D01*
X87998Y136491D01*
X88248Y137658D01*
X87998Y138824D01*
X87248Y139824D01*
X86123Y140324D01*
X84873D01*
X84123Y140658D01*
X83498Y141491D01*
X83248Y142658D01*
X83623Y143824D01*
X84498Y144658D01*
X85498Y144991D01*
X86498Y144658D01*
X87373Y143824D01*
X87748Y142658D01*
X87498Y141491D01*
X86873Y140658D01*
X86123Y140324D01*
X84873D01*
X83748Y139824D01*
X82998Y138824D01*
X82748Y137658D01*
X82998Y136491D01*
X83623Y135658D01*
X84623Y135158D01*
X85498Y134991D01*
G01X93248Y134658D02*
X97748Y144991D01*
G01X103123Y143324D02*
X103873Y144324D01*
X104748Y144824D01*
X105748Y144991D01*
X106998Y144658D01*
X107873Y143824D01*
X108123Y142824D01*
X107998Y141824D01*
X107498Y140991D01*
X104998Y139324D01*
X103873Y138158D01*
X103123Y136491D01*
X102873Y134991D01*
X108123D01*
G01X115498Y144991D02*
X114498Y144658D01*
X113748Y143824D01*
X113248Y142824D01*
X112873Y141491D01*
X112748Y139991D01*
X112873Y138491D01*
X113248Y137158D01*
X113748Y136157D01*
X114498Y135324D01*
X115498Y134991D01*
X116498Y135324D01*
X117248Y136157D01*
X117748Y137158D01*
X118123Y138491D01*
X118248Y139991D01*
X118123Y141491D01*
X117748Y142824D01*
X117248Y143824D01*
X116498Y144658D01*
X115498Y144991D01*
G01X125498Y134991D02*
Y144991D01*
X123998Y142991D01*
G01Y134991D02*
X126998D01*
G01X132748Y136491D02*
X133498Y135658D01*
X134373Y135158D01*
X135498Y134991D01*
X136623Y135324D01*
X137498Y135991D01*
X138123Y137158D01*
X138248Y138491D01*
X137998Y139824D01*
X137373Y140658D01*
X136498Y141324D01*
X135623Y141491D01*
X134748Y141324D01*
X133623Y140658D01*
X133998Y144991D01*
X137373D01*
G01X-11152Y164858D02*
X-11902Y165358D01*
X-12777Y165691D01*
X-13777D01*
X-14902Y165191D01*
X-15777Y164358D01*
X-16402Y163358D01*
X-16902Y161691D01*
X-17027Y160191D01*
X-16777Y158691D01*
X-16402Y157691D01*
X-15652Y156691D01*
X-14777Y156024D01*
X-13902Y155691D01*
X-13027D01*
X-12152Y156024D01*
X-11402Y156524D01*
X-10777Y157191D01*
G01X-6652Y165691D02*
Y158524D01*
X-6152Y157024D01*
X-5152Y156024D01*
X-3902Y155691D01*
X-2652Y156024D01*
X-1652Y157024D01*
X-1152Y158524D01*
Y165691D01*
G01X3598Y155691D02*
Y165691D01*
X6723D01*
X7723Y165191D01*
X8348Y164524D01*
X8598Y163191D01*
X8348Y161858D01*
X7598Y161024D01*
X6723Y160524D01*
X3598D01*
G01X6723D02*
X8598Y155691D01*
G01X13598D02*
Y165691D01*
X16723D01*
X17723Y165191D01*
X18348Y164524D01*
X18598Y163191D01*
X18348Y161858D01*
X17598Y161024D01*
X16723Y160524D01*
X13598D01*
G01X16723D02*
X18598Y155691D01*
G01X28598D02*
X23598D01*
Y165691D01*
X28598D01*
G01X26598Y160858D02*
X23598D01*
G01X33223Y155691D02*
Y165691D01*
X38973Y155691D01*
Y165691D01*
G01X46098D02*
Y155691D01*
G01X43223Y165691D02*
X48973D01*
G01X63473Y157024D02*
X64473Y156191D01*
X65598Y155691D01*
X66598D01*
X67598Y156191D01*
X68348Y157024D01*
X68723Y158191D01*
X68473Y159357D01*
X67848Y160358D01*
X66723Y161024D01*
X65223Y161358D01*
X64348Y162024D01*
X63973Y163191D01*
X64223Y164358D01*
X64848Y165191D01*
X65723Y165691D01*
X66598D01*
X67473Y165358D01*
X68223Y164524D01*
G01X78598Y155691D02*
X73598D01*
Y165691D01*
X78598D01*
G01X76598Y160858D02*
X73598D01*
G01X83223Y155691D02*
Y165691D01*
X88973Y155691D01*
Y165691D01*
G01X93473Y157024D02*
X94473Y156191D01*
X95598Y155691D01*
X96598D01*
X97598Y156191D01*
X98348Y157024D01*
X98723Y158191D01*
X98473Y159357D01*
X97848Y160358D01*
X96723Y161024D01*
X95223Y161358D01*
X94348Y162024D01*
X93973Y163191D01*
X94223Y164358D01*
X94848Y165191D01*
X95723Y165691D01*
X96598D01*
X97473Y165358D01*
X98223Y164524D01*
G01X108598Y155691D02*
X103598D01*
Y165691D01*
X108598D01*
G01X106598Y160858D02*
X103598D01*
G01X127098Y161024D02*
X127598Y161524D01*
X127973Y162357D01*
X128223Y163524D01*
X127973Y164524D01*
X127473Y165191D01*
X126598Y165691D01*
X123223D01*
Y155691D01*
X127348D01*
X128223Y156358D01*
X128723Y157358D01*
X128973Y158524D01*
X128723Y159691D01*
X127973Y160691D01*
X127098Y161024D01*
X123223D01*
G01X136098Y155691D02*
X135098Y155858D01*
X134223Y156524D01*
X133473Y157524D01*
X132973Y158691D01*
X132723Y160024D01*
Y161358D01*
X132973Y162691D01*
X133473Y163858D01*
X134223Y164858D01*
X135098Y165524D01*
X136098Y165691D01*
X137098Y165524D01*
X137973Y164858D01*
X138723Y163858D01*
X139223Y162691D01*
X139473Y161358D01*
Y160024D01*
X139223Y158691D01*
X138723Y157524D01*
X137973Y156524D01*
X137098Y155858D01*
X136098Y155691D01*
G01X142973D02*
X146098Y165691D01*
X149223Y155691D01*
G01X148098Y159191D02*
X144098D01*
G01X153598Y155691D02*
Y165691D01*
X156723D01*
X157723Y165191D01*
X158348Y164524D01*
X158598Y163191D01*
X158348Y161858D01*
X157598Y161024D01*
X156723Y160524D01*
X153598D01*
G01X156723D02*
X158598Y155691D01*
G01X163348D02*
Y165691D01*
X165848D01*
X166848Y165191D01*
X167598Y164524D01*
X168223Y163524D01*
X168723Y162357D01*
X168848Y160691D01*
X168723Y159024D01*
X168223Y157858D01*
X167598Y156857D01*
X166848Y156191D01*
X165848Y155691D01*
X163348D01*
G01X12399Y22995D02*
X12239Y23245D01*
X12052Y23370D01*
X11839Y23412D01*
X11572Y23329D01*
X11385Y23120D01*
X11332Y22870D01*
X11359Y22620D01*
X11465Y22412D01*
X11999Y21995D01*
X12239Y21704D01*
X12399Y21287D01*
X12452Y20912D01*
X11332D01*
G01X15825Y23512D02*
Y21012D01*
X14759D01*
G01X9892Y24646D02*
X17392D01*
Y19646D01*
X9892D01*
Y24646D01*
G01X13642Y19646D02*
Y24646D01*
G54D22*
X12077Y67401D03*
G54D13*
G01X11481Y45224D02*
X6081D01*
G01X47493Y5000D02*
X51500D01*
X55477Y8978D01*
Y24522D01*
X51000Y29000D01*
X41500D01*
X39000Y31500D01*
Y34524D01*
G01X21798Y29924D02*
Y25000D01*
X23798Y23000D01*
X43501D01*
X47493Y19008D01*
Y15000D01*
G01X21798Y29924D02*
X19424D01*
X19024Y29524D01*
X16498D01*
G01X33000Y45300D02*
X43200D01*
X44400Y44100D01*
Y40076D01*
G01X21798Y34924D02*
X16498D01*
G01X44400Y34524D02*
X50000D01*
G01X55000Y44000D02*
Y36524D01*
X53000Y34524D01*
X50000D01*
G01X44400Y40076D02*
X46924D01*
X47076Y39924D01*
X50000D01*
X9400Y30500D03*
X2500Y50000D03*
X7500Y27500D03*
X2300Y71300D03*
X3748Y53501D03*
X9321Y66845D03*
X19298Y46500D03*
X11481Y39824D03*
X17998Y39900D03*
X33966Y48800D03*
X16998Y59724D03*
Y63224D03*
X13498Y59724D03*
Y56224D03*
X16998D03*
X20498D03*
X30579Y69579D03*
X28871Y59873D03*
X20498Y59724D03*
X13498Y63224D03*
X26498Y51500D03*
X28000Y62926D03*
X11500Y72000D03*
X23498Y67401D03*
X55000Y44000D03*
G54D32*
G01X7500Y27500D02*
Y15007D01*
X7493Y15000D01*
G01X9321Y62677D02*
X6498D01*
X6143Y63032D01*
X2498D01*
G01X9321Y58740D02*
X4738D01*
X3498Y57500D01*
G01X9321Y64645D02*
Y66845D01*
G01X24675Y56771D02*
X27229D01*
X29000Y55000D01*
Y53766D01*
X33966Y48800D01*
G01X24675Y54803D02*
Y53323D01*
X26498Y51500D01*
G01X28000Y62926D02*
X27998Y62924D01*
X27922D01*
X27675Y62677D01*
X24675D01*
G01X40167Y54217D02*
Y58831D01*
X38798Y60200D01*
X33998D01*
G01X17982Y67401D02*
Y69482D01*
X19000Y70500D01*
X23998D01*
X30498Y64000D01*
Y61641D01*
X31939Y60200D01*
X33998D01*
G01Y64800D02*
X35842D01*
X37142Y63500D01*
X43546D01*
X48829Y68783D01*
G01X16014Y67401D02*
Y70014D01*
X18500Y72500D01*
X24261D01*
X31961Y64800D01*
X33998D01*
G01X24675Y64645D02*
Y66224D01*
X23498Y67401D01*
G01D02*
X21919D01*
G54D14*
X2448Y66968D03*
Y63032D03*
X3548Y53564D03*
Y57500D03*
G54D23*
X21919Y67401D03*
G54D24*
X24675Y64645D03*
G54D15*
X9321Y54803D03*
G54D16*
Y64645D03*
G54D25*
X14045Y67401D03*
X16014D03*
X17982D03*
X19951D03*
Y52047D03*
X17982D03*
X16014D03*
X14045D03*
G54D17*
X9321Y56771D03*
Y58740D03*
Y60708D03*
Y62677D03*
X24675D03*
Y60708D03*
Y58740D03*
Y56771D03*
G54D26*
X16998Y59724D03*
G54D18*
X40167Y68783D03*
Y54217D03*
X48829Y68783D03*
Y54217D03*
G54D27*
X47493Y5000D03*
G54D28*
G01X9321Y56771D02*
X7115D01*
X6298Y55954D01*
Y51100D01*
X5198Y50000D01*
X2500D01*
G01X13498Y56224D02*
X12951Y56771D01*
X9321D01*
G01X17982Y52047D02*
Y47816D01*
X19298Y46500D01*
G01X21919Y52047D02*
Y49581D01*
X24000Y47500D01*
X28500D01*
X30700Y45300D01*
X33000D01*
G01X16014Y52047D02*
Y46516D01*
X15000Y45502D01*
Y39000D01*
X16498Y37502D01*
Y34924D01*
G01X14045Y52047D02*
Y47548D01*
X11721Y45224D01*
X11481D01*
G01X16998Y59724D02*
X19951Y62677D01*
Y67401D01*
G01X14045D02*
Y69955D01*
X12000Y72000D01*
X11500D01*
G54D19*
X24675Y54803D03*
G54D29*
G01X27198Y39900D02*
Y42800D01*
X25998Y44000D01*
X21798D01*
X19298Y46500D01*
M02*
