G04 ================== begin FILE IDENTIFICATION RECORD ==================*
G04 Layout Name:  CURRENT_SENSE_BOARD_03AUG15_1930.brd*
G04 Film Name:    SST*
G04 File Format:  Gerber RS274X*
G04 File Origin:  Cadence Allegro 16.6-P004*
G04 Origin Date:  Mon Aug 03 19:39:57 2015*
G04 *
G04 Layer:  REF DES/SILKSCREEN_TOP*
G04 Layer:  PACKAGE GEOMETRY/SILKSCREEN_TOP*
G04 Layer:  DRAWING FORMAT/FILM_LABEL_OUTLINE*
G04 Layer:  BOARD GEOMETRY/OUTLINE*
G04 Layer:  BOARD GEOMETRY/SILKSCREEN_TOP*
G04 *
G04 Offset:    (0.00 0.00)*
G04 Mirror:    No*
G04 Mode:      Positive*
G04 Rotation:  0*
G04 FullContactRelief:  No*
G04 UndefLineWidth:     6.00*
G04 ================== end FILE IDENTIFICATION RECORD ====================*
%FSLAX25Y25*MOIN*%
%IR0*IPPOS*OFA0.00000B0.00000*MIA0B0*SFA1.00000B1.00000*%
%ADD10C,.006*%
G75*
%LPD*%
G75*
G54D10*
G01X-17Y74000D02*
X57015D01*
X56974Y0D01*
X0D01*
X-17Y74000D01*
G01X52798Y48100D02*
Y40000D01*
X37198D01*
Y48100D01*
X52798D01*
G01X33393Y38795D02*
X41493D01*
Y23195D01*
X33393D01*
Y38795D01*
G01X25798Y48099D02*
X19198D01*
G01X25798Y43901D02*
X19198D01*
G01X16698Y48900D02*
X23298D01*
G01X16698Y53100D02*
X23298D01*
G01X26498Y58324D02*
X19898D01*
G01X26498Y54124D02*
X19898D01*
G01X423Y2916D02*
X867Y2500D01*
X1373Y2333D01*
X1880Y2500D01*
X2323Y3000D01*
X2640Y3750D01*
X2767Y4500D01*
Y5416D01*
X2640Y6166D01*
X2323Y6833D01*
X1943Y7166D01*
X1500Y7333D01*
X993Y7166D01*
X613Y6833D01*
X360Y6333D01*
X233Y5666D01*
X360Y5083D01*
X677Y4500D01*
X1057Y4166D01*
X1500Y4083D01*
X2007Y4250D01*
X2387Y4666D01*
X2767Y5416D01*
G01X52493Y0D02*
X2493D01*
Y20000D01*
X52493D01*
Y0D01*
G01X1633Y46333D02*
Y51333D01*
X3217D01*
X3723Y51083D01*
X4040Y50750D01*
X4167Y50083D01*
X4040Y49416D01*
X3660Y49000D01*
X3217Y48750D01*
X1633D01*
G01X3217D02*
X4167Y46333D01*
G01X6797Y50500D02*
X7177Y51000D01*
X7620Y51250D01*
X8127Y51333D01*
X8760Y51166D01*
X9203Y50750D01*
X9330Y50250D01*
X9267Y49750D01*
X9013Y49333D01*
X7747Y48500D01*
X7177Y47916D01*
X6797Y47083D01*
X6670Y46333D01*
X9330D01*
G01X11707Y47333D02*
X12087Y46750D01*
X12593Y46416D01*
X13163Y46333D01*
X13670Y46416D01*
X14177Y46833D01*
X14493Y47333D01*
X14557Y47833D01*
X14430Y48416D01*
X13987Y48833D01*
X13543Y49000D01*
X12973D01*
G01X13543D02*
X13923Y49250D01*
X14240Y49666D01*
X14367Y50166D01*
X14240Y50666D01*
X13923Y51083D01*
X13353Y51333D01*
X12783Y51250D01*
X12213Y50916D01*
G01X1450Y21333D02*
Y26333D01*
X690Y25333D01*
G01Y21333D02*
X2210D01*
G01X6550Y26333D02*
X6043Y26166D01*
X5663Y25750D01*
X5410Y25250D01*
X5220Y24583D01*
X5157Y23833D01*
X5220Y23083D01*
X5410Y22416D01*
X5663Y21916D01*
X6043Y21500D01*
X6550Y21333D01*
X7057Y21500D01*
X7437Y21916D01*
X7690Y22416D01*
X7880Y23083D01*
X7943Y23833D01*
X7880Y24583D01*
X7690Y25250D01*
X7437Y25750D01*
X7057Y26166D01*
X6550Y26333D01*
G01X3293Y62416D02*
X2913Y62666D01*
X2470Y62833D01*
X1963D01*
X1393Y62583D01*
X950Y62166D01*
X633Y61666D01*
X380Y60833D01*
X317Y60083D01*
X443Y59333D01*
X633Y58833D01*
X1013Y58333D01*
X1457Y58000D01*
X1900Y57833D01*
X2343D01*
X2787Y58000D01*
X3167Y58250D01*
X3483Y58583D01*
G01X7000Y57833D02*
Y62833D01*
X6240Y61833D01*
G01Y57833D02*
X7760D01*
G01X10897Y62000D02*
X11277Y62500D01*
X11720Y62750D01*
X12227Y62833D01*
X12860Y62666D01*
X13303Y62250D01*
X13430Y61750D01*
X13367Y61250D01*
X13113Y60833D01*
X11847Y60000D01*
X11277Y59416D01*
X10897Y58583D01*
X10770Y57833D01*
X13430D01*
G01X-15127Y106500D02*
X-14127Y105667D01*
X-13002Y105167D01*
X-12002D01*
X-11002Y105667D01*
X-10252Y106500D01*
X-9877Y107667D01*
X-10127Y108833D01*
X-10752Y109834D01*
X-11877Y110500D01*
X-13377Y110834D01*
X-14252Y111500D01*
X-14627Y112667D01*
X-14377Y113834D01*
X-13752Y114667D01*
X-12877Y115167D01*
X-12002D01*
X-11127Y114834D01*
X-10377Y114000D01*
G01X-4002Y115167D02*
X-1002D01*
G01X-2502D02*
Y105167D01*
G01X-4002D02*
X-1002D01*
G01X4998Y115167D02*
Y105167D01*
X9998D01*
G01X14748D02*
Y115167D01*
G01X19498D02*
X14748Y109000D01*
G01X20248Y105167D02*
X16873Y111833D01*
G01X24873Y106500D02*
X25873Y105667D01*
X26998Y105167D01*
X27998D01*
X28998Y105667D01*
X29748Y106500D01*
X30123Y107667D01*
X29873Y108833D01*
X29248Y109834D01*
X28123Y110500D01*
X26623Y110834D01*
X25748Y111500D01*
X25373Y112667D01*
X25623Y113834D01*
X26248Y114667D01*
X27123Y115167D01*
X27998D01*
X28873Y114834D01*
X29623Y114000D01*
G01X40248Y114334D02*
X39498Y114834D01*
X38623Y115167D01*
X37623D01*
X36498Y114667D01*
X35623Y113834D01*
X34998Y112834D01*
X34498Y111167D01*
X34373Y109667D01*
X34623Y108167D01*
X34998Y107167D01*
X35748Y106167D01*
X36623Y105500D01*
X37498Y105167D01*
X38373D01*
X39248Y105500D01*
X39998Y106000D01*
X40623Y106667D01*
G01X44998Y105167D02*
Y115167D01*
X48123D01*
X49123Y114667D01*
X49748Y114000D01*
X49998Y112667D01*
X49748Y111334D01*
X48998Y110500D01*
X48123Y110000D01*
X44998D01*
G01X48123D02*
X49998Y105167D01*
G01X59998D02*
X54998D01*
Y115167D01*
X59998D01*
G01X57998Y110334D02*
X54998D01*
G01X69998Y105167D02*
X64998D01*
Y115167D01*
X69998D01*
G01X67998Y110334D02*
X64998D01*
G01X74623Y105167D02*
Y115167D01*
X80373Y105167D01*
Y115167D01*
G01X97498D02*
Y105167D01*
G01X94623Y115167D02*
X100373D01*
G01X107498Y105167D02*
X106498Y105334D01*
X105623Y106000D01*
X104873Y107000D01*
X104373Y108167D01*
X104123Y109500D01*
Y110834D01*
X104373Y112167D01*
X104873Y113334D01*
X105623Y114334D01*
X106498Y115000D01*
X107498Y115167D01*
X108498Y115000D01*
X109373Y114334D01*
X110123Y113334D01*
X110623Y112167D01*
X110873Y110834D01*
Y109500D01*
X110623Y108167D01*
X110123Y107000D01*
X109373Y106000D01*
X108498Y105334D01*
X107498Y105167D01*
G01X114998D02*
Y115167D01*
X117998D01*
X118998Y114667D01*
X119748Y113500D01*
X119998Y112167D01*
X119748Y110834D01*
X119123Y109834D01*
X117998Y109333D01*
X114998D01*
G01X-17252Y134991D02*
Y144991D01*
X-14752D01*
X-13752Y144491D01*
X-13002Y143824D01*
X-12377Y142824D01*
X-11877Y141657D01*
X-11752Y139991D01*
X-11877Y138324D01*
X-12377Y137158D01*
X-13002Y136157D01*
X-13752Y135491D01*
X-14752Y134991D01*
X-17252D01*
G01X-7627D02*
X-4502Y144991D01*
X-1377Y134991D01*
G01X-2502Y138491D02*
X-6502D01*
G01X5498Y144991D02*
Y134991D01*
G01X2623Y144991D02*
X8373D01*
G01X17998Y134991D02*
X12998D01*
Y144991D01*
X17998D01*
G01X15998Y140158D02*
X12998D01*
G01X25498Y134658D02*
X25248Y134824D01*
Y135158D01*
X25498Y135324D01*
X25748Y135158D01*
Y134824D01*
X25498Y134658D01*
G01Y139157D02*
X25248Y139324D01*
Y139658D01*
X25498Y139824D01*
X25748Y139658D01*
Y139324D01*
X25498Y139157D01*
G01X45498Y144991D02*
X44498Y144658D01*
X43748Y143824D01*
X43248Y142824D01*
X42873Y141491D01*
X42748Y139991D01*
X42873Y138491D01*
X43248Y137158D01*
X43748Y136157D01*
X44498Y135324D01*
X45498Y134991D01*
X46498Y135324D01*
X47248Y136157D01*
X47748Y137158D01*
X48123Y138491D01*
X48248Y139991D01*
X48123Y141491D01*
X47748Y142824D01*
X47248Y143824D01*
X46498Y144658D01*
X45498Y144991D01*
G01X52748Y136991D02*
X53498Y135824D01*
X54498Y135158D01*
X55623Y134991D01*
X56623Y135158D01*
X57623Y135991D01*
X58248Y136991D01*
X58373Y137991D01*
X58123Y139157D01*
X57248Y139991D01*
X56373Y140324D01*
X55248D01*
G01X56373D02*
X57123Y140824D01*
X57748Y141657D01*
X57998Y142658D01*
X57748Y143658D01*
X57123Y144491D01*
X55998Y144991D01*
X54873Y144824D01*
X53748Y144158D01*
G01X63248Y134658D02*
X67748Y144991D01*
G01X75498D02*
X74498Y144658D01*
X73748Y143824D01*
X73248Y142824D01*
X72873Y141491D01*
X72748Y139991D01*
X72873Y138491D01*
X73248Y137158D01*
X73748Y136157D01*
X74498Y135324D01*
X75498Y134991D01*
X76498Y135324D01*
X77248Y136157D01*
X77748Y137158D01*
X78123Y138491D01*
X78248Y139991D01*
X78123Y141491D01*
X77748Y142824D01*
X77248Y143824D01*
X76498Y144658D01*
X75498Y144991D01*
G01X85498Y134991D02*
X86373Y135158D01*
X87373Y135658D01*
X87998Y136491D01*
X88248Y137658D01*
X87998Y138824D01*
X87248Y139824D01*
X86123Y140324D01*
X84873D01*
X84123Y140658D01*
X83498Y141491D01*
X83248Y142658D01*
X83623Y143824D01*
X84498Y144658D01*
X85498Y144991D01*
X86498Y144658D01*
X87373Y143824D01*
X87748Y142658D01*
X87498Y141491D01*
X86873Y140658D01*
X86123Y140324D01*
X84873D01*
X83748Y139824D01*
X82998Y138824D01*
X82748Y137658D01*
X82998Y136491D01*
X83623Y135658D01*
X84623Y135158D01*
X85498Y134991D01*
G01X93248Y134658D02*
X97748Y144991D01*
G01X103123Y143324D02*
X103873Y144324D01*
X104748Y144824D01*
X105748Y144991D01*
X106998Y144658D01*
X107873Y143824D01*
X108123Y142824D01*
X107998Y141824D01*
X107498Y140991D01*
X104998Y139324D01*
X103873Y138158D01*
X103123Y136491D01*
X102873Y134991D01*
X108123D01*
G01X115498Y144991D02*
X114498Y144658D01*
X113748Y143824D01*
X113248Y142824D01*
X112873Y141491D01*
X112748Y139991D01*
X112873Y138491D01*
X113248Y137158D01*
X113748Y136157D01*
X114498Y135324D01*
X115498Y134991D01*
X116498Y135324D01*
X117248Y136157D01*
X117748Y137158D01*
X118123Y138491D01*
X118248Y139991D01*
X118123Y141491D01*
X117748Y142824D01*
X117248Y143824D01*
X116498Y144658D01*
X115498Y144991D01*
G01X125498Y134991D02*
Y144991D01*
X123998Y142991D01*
G01Y134991D02*
X126998D01*
G01X132748Y136491D02*
X133498Y135658D01*
X134373Y135158D01*
X135498Y134991D01*
X136623Y135324D01*
X137498Y135991D01*
X138123Y137158D01*
X138248Y138491D01*
X137998Y139824D01*
X137373Y140658D01*
X136498Y141324D01*
X135623Y141491D01*
X134748Y141324D01*
X133623Y140658D01*
X133998Y144991D01*
X137373D01*
G01X-11152Y164858D02*
X-11902Y165358D01*
X-12777Y165691D01*
X-13777D01*
X-14902Y165191D01*
X-15777Y164358D01*
X-16402Y163358D01*
X-16902Y161691D01*
X-17027Y160191D01*
X-16777Y158691D01*
X-16402Y157691D01*
X-15652Y156691D01*
X-14777Y156024D01*
X-13902Y155691D01*
X-13027D01*
X-12152Y156024D01*
X-11402Y156524D01*
X-10777Y157191D01*
G01X-6652Y165691D02*
Y158524D01*
X-6152Y157024D01*
X-5152Y156024D01*
X-3902Y155691D01*
X-2652Y156024D01*
X-1652Y157024D01*
X-1152Y158524D01*
Y165691D01*
G01X3598Y155691D02*
Y165691D01*
X6723D01*
X7723Y165191D01*
X8348Y164524D01*
X8598Y163191D01*
X8348Y161858D01*
X7598Y161024D01*
X6723Y160524D01*
X3598D01*
G01X6723D02*
X8598Y155691D01*
G01X13598D02*
Y165691D01*
X16723D01*
X17723Y165191D01*
X18348Y164524D01*
X18598Y163191D01*
X18348Y161858D01*
X17598Y161024D01*
X16723Y160524D01*
X13598D01*
G01X16723D02*
X18598Y155691D01*
G01X28598D02*
X23598D01*
Y165691D01*
X28598D01*
G01X26598Y160858D02*
X23598D01*
G01X33223Y155691D02*
Y165691D01*
X38973Y155691D01*
Y165691D01*
G01X46098D02*
Y155691D01*
G01X43223Y165691D02*
X48973D01*
G01X63473Y157024D02*
X64473Y156191D01*
X65598Y155691D01*
X66598D01*
X67598Y156191D01*
X68348Y157024D01*
X68723Y158191D01*
X68473Y159357D01*
X67848Y160358D01*
X66723Y161024D01*
X65223Y161358D01*
X64348Y162024D01*
X63973Y163191D01*
X64223Y164358D01*
X64848Y165191D01*
X65723Y165691D01*
X66598D01*
X67473Y165358D01*
X68223Y164524D01*
G01X78598Y155691D02*
X73598D01*
Y165691D01*
X78598D01*
G01X76598Y160858D02*
X73598D01*
G01X83223Y155691D02*
Y165691D01*
X88973Y155691D01*
Y165691D01*
G01X93473Y157024D02*
X94473Y156191D01*
X95598Y155691D01*
X96598D01*
X97598Y156191D01*
X98348Y157024D01*
X98723Y158191D01*
X98473Y159357D01*
X97848Y160358D01*
X96723Y161024D01*
X95223Y161358D01*
X94348Y162024D01*
X93973Y163191D01*
X94223Y164358D01*
X94848Y165191D01*
X95723Y165691D01*
X96598D01*
X97473Y165358D01*
X98223Y164524D01*
G01X108598Y155691D02*
X103598D01*
Y165691D01*
X108598D01*
G01X106598Y160858D02*
X103598D01*
G01X127098Y161024D02*
X127598Y161524D01*
X127973Y162357D01*
X128223Y163524D01*
X127973Y164524D01*
X127473Y165191D01*
X126598Y165691D01*
X123223D01*
Y155691D01*
X127348D01*
X128223Y156358D01*
X128723Y157358D01*
X128973Y158524D01*
X128723Y159691D01*
X127973Y160691D01*
X127098Y161024D01*
X123223D01*
G01X136098Y155691D02*
X135098Y155858D01*
X134223Y156524D01*
X133473Y157524D01*
X132973Y158691D01*
X132723Y160024D01*
Y161358D01*
X132973Y162691D01*
X133473Y163858D01*
X134223Y164858D01*
X135098Y165524D01*
X136098Y165691D01*
X137098Y165524D01*
X137973Y164858D01*
X138723Y163858D01*
X139223Y162691D01*
X139473Y161358D01*
Y160024D01*
X139223Y158691D01*
X138723Y157524D01*
X137973Y156524D01*
X137098Y155858D01*
X136098Y155691D01*
G01X142973D02*
X146098Y165691D01*
X149223Y155691D01*
G01X148098Y159191D02*
X144098D01*
G01X153598Y155691D02*
Y165691D01*
X156723D01*
X157723Y165191D01*
X158348Y164524D01*
X158598Y163191D01*
X158348Y161858D01*
X157598Y161024D01*
X156723Y160524D01*
X153598D01*
G01X156723D02*
X158598Y155691D01*
G01X163348D02*
Y165691D01*
X165848D01*
X166848Y165191D01*
X167598Y164524D01*
X168223Y163524D01*
X168723Y162357D01*
X168848Y160691D01*
X168723Y159024D01*
X168223Y157858D01*
X167598Y156857D01*
X166848Y156191D01*
X165848Y155691D01*
X163348D01*
G01X30183Y48333D02*
Y53333D01*
X31767D01*
X32273Y53083D01*
X32590Y52750D01*
X32717Y52083D01*
X32590Y51416D01*
X32210Y51000D01*
X31767Y50750D01*
X30183D01*
G01X31767D02*
X32717Y48333D01*
G01X35347Y50416D02*
X35790Y51000D01*
X36170Y51333D01*
X36677Y51500D01*
X37120Y51333D01*
X37437Y51000D01*
X37690Y50500D01*
X37753Y49916D01*
X37690Y49416D01*
X37437Y48916D01*
X37057Y48500D01*
X36613Y48333D01*
X36107Y48500D01*
X35663Y49000D01*
X35410Y49750D01*
X35347Y50583D01*
X35473Y51666D01*
X35663Y52250D01*
X35980Y52833D01*
X36423Y53250D01*
X36867Y53333D01*
X37310Y53166D01*
X37627Y52750D01*
G01X33298Y43400D02*
X35698D01*
Y46700D01*
X33198D01*
G01X30698D02*
X28298D01*
Y43400D01*
X30798D01*
G01X19683Y37833D02*
Y42833D01*
X21267D01*
X21773Y42583D01*
X22090Y42250D01*
X22217Y41583D01*
X22090Y40916D01*
X21710Y40500D01*
X21267Y40250D01*
X19683D01*
G01X21267D02*
X22217Y37833D01*
G01X25923D02*
X26050Y38916D01*
X26240Y39833D01*
X26493Y40666D01*
X26810Y41583D01*
X27317Y42833D01*
X24783D01*
G01X22733Y23167D02*
X23050Y22667D01*
X23430Y22334D01*
X23873Y22167D01*
X24380Y22334D01*
X24760Y22667D01*
X25140Y23167D01*
X25267Y23834D01*
Y27167D01*
G01X27897Y26334D02*
X28277Y26834D01*
X28720Y27084D01*
X29227Y27167D01*
X29860Y27000D01*
X30303Y26584D01*
X30430Y26084D01*
X30367Y25584D01*
X30113Y25167D01*
X28847Y24334D01*
X28277Y23750D01*
X27897Y22917D01*
X27770Y22167D01*
X30430D01*
G01X30633Y59333D02*
Y64333D01*
X32217D01*
X32723Y64083D01*
X33040Y63750D01*
X33167Y63083D01*
X33040Y62416D01*
X32660Y62000D01*
X32217Y61750D01*
X30633D01*
G01X32217D02*
X33167Y59333D01*
G01X35797Y63500D02*
X36177Y64000D01*
X36620Y64250D01*
X37127Y64333D01*
X37760Y64166D01*
X38203Y63750D01*
X38330Y63250D01*
X38267Y62750D01*
X38013Y62333D01*
X36747Y61500D01*
X36177Y60916D01*
X35797Y60083D01*
X35670Y59333D01*
X38330D01*
G01X40897Y63500D02*
X41277Y64000D01*
X41720Y64250D01*
X42227Y64333D01*
X42860Y64166D01*
X43303Y63750D01*
X43430Y63250D01*
X43367Y62750D01*
X43113Y62333D01*
X41847Y61500D01*
X41277Y60916D01*
X40897Y60083D01*
X40770Y59333D01*
X43430D01*
G01X31198Y58100D02*
X28798D01*
Y54800D01*
X31298D01*
G01X33798D02*
X36198D01*
Y58100D01*
X33698D01*
G01X15183Y65833D02*
Y70833D01*
X16767D01*
X17273Y70583D01*
X17590Y70250D01*
X17717Y69583D01*
X17590Y68916D01*
X17210Y68500D01*
X16767Y68250D01*
X15183D01*
G01X16767D02*
X17717Y65833D01*
G01X21550D02*
Y70833D01*
X20790Y69833D01*
G01Y65833D02*
X22310D01*
G01X17666Y64824D02*
X15266D01*
Y61524D01*
X17766D01*
G01X20266D02*
X22666D01*
Y64824D01*
X20166D01*
G01X53797Y18000D02*
X54177Y18500D01*
X54620Y18750D01*
X55127Y18833D01*
X55760Y18666D01*
X56203Y18250D01*
X56330Y17750D01*
X56267Y17250D01*
X56013Y16833D01*
X54747Y16000D01*
X54177Y15416D01*
X53797Y14583D01*
X53670Y13833D01*
X56330D01*
G01X55100Y5166D02*
Y10166D01*
X54340Y9166D01*
G01Y5166D02*
X55860D01*
G01X43133Y33833D02*
Y38833D01*
X44717D01*
X45223Y38583D01*
X45540Y38250D01*
X45667Y37583D01*
X45540Y36916D01*
X45160Y36500D01*
X44717Y36250D01*
X43133D01*
G01X44717D02*
X45667Y33833D01*
G01X49500D02*
Y38833D01*
X48740Y37833D01*
G01Y33833D02*
X50260D01*
G01X55360D02*
Y38833D01*
X53017Y35250D01*
X56183D01*
G01X43133Y26833D02*
Y31833D01*
X44717D01*
X45223Y31583D01*
X45540Y31250D01*
X45667Y30583D01*
X45540Y29916D01*
X45160Y29500D01*
X44717Y29250D01*
X43133D01*
G01X44717D02*
X45667Y26833D01*
G01X49500D02*
Y31833D01*
X48740Y30833D01*
G01Y26833D02*
X50260D01*
G01X54600D02*
X55043Y26916D01*
X55550Y27166D01*
X55867Y27583D01*
X55993Y28166D01*
X55867Y28750D01*
X55487Y29250D01*
X54917Y29500D01*
X54283D01*
X53903Y29666D01*
X53587Y30083D01*
X53460Y30666D01*
X53650Y31250D01*
X54093Y31666D01*
X54600Y31833D01*
X55107Y31666D01*
X55550Y31250D01*
X55740Y30666D01*
X55613Y30083D01*
X55297Y29666D01*
X54917Y29500D01*
X54283D01*
X53713Y29250D01*
X53333Y28750D01*
X53207Y28166D01*
X53333Y27583D01*
X53650Y27166D01*
X54157Y26916D01*
X54600Y26833D01*
M02*
