G04 ================== begin FILE IDENTIFICATION RECORD ==================*
G04 Layout Name:  CURRENT_SENSE_BOARD_03AUG15_1930.brd*
G04 Film Name:    ASB*
G04 File Format:  Gerber RS274X*
G04 File Origin:  Cadence Allegro 16.6-P004*
G04 Origin Date:  Mon Aug 03 19:39:57 2015*
G04 *
G04 Layer:  BOARD GEOMETRY/ASSEMBLY_DETAIL*
G04 Layer:  DRAWING FORMAT/ASS_BTM*
G04 Layer:  REF DES/ASSEMBLY_BOTTOM*
G04 Layer:  PIN/BOTTOM*
G04 Layer:  PACKAGE GEOMETRY/ASSEMBLY_BOTTOM*
G04 Layer:  DRAWING FORMAT/FILM_LABEL_OUTLINE*
G04 Layer:  BOARD GEOMETRY/OUTLINE*
G04 *
G04 Offset:    (0.00 0.00)*
G04 Mirror:    No*
G04 Mode:      Positive*
G04 Rotation:  0*
G04 FullContactRelief:  No*
G04 UndefLineWidth:     1.00*
G04 ================== end FILE IDENTIFICATION RECORD ====================*
%FSLAX25Y25*MOIN*%
%IR0*IPPOS*OFA0.00000B0.00000*MIA0B0*SFA1.00000B1.00000*%
%ADD10C,.06*%
%ADD26R,.06X.06*%
%AMMACRO22*
4,1,5,.00097,-.01673,
-.00591,-.01673,
-.00591,.01673,
.00591,.01673,
.00591,-.0118,
.00097,-.01673,
0.0*
%
%ADD22MACRO22*%
%AMMACRO18*
4,1,5,-.01673,-.00097,
-.01673,.00591,
.01673,.00591,
.01673,-.00591,
-.0118,-.00591,
-.01673,-.00097,
0.0*
%
%ADD18MACRO18*%
%ADD25R,.09646X.09646*%
%AMMACRO19*
4,1,5,.00097,.01673,
-.00591,.01673,
-.00591,-.01673,
.00591,-.01673,
.00591,.0118,
.00097,.01673,
0.0*
%
%ADD19MACRO19*%
%AMMACRO14*
4,1,5,.01673,-.00097,
.01673,.00591,
-.01673,.00591,
-.01673,-.00591,
.0118,-.00591,
.01673,-.00097,
0.0*
%
%ADD14MACRO14*%
%ADD12R,.034X.03*%
%ADD11R,.03X.034*%
%ADD13R,.0217X.0236*%
%ADD24R,.01181X.03346*%
%ADD16R,.03346X.01181*%
%AMMACRO20*
4,1,5,-.00097,.01673,
.00591,.01673,
.00591,-.01673,
-.00591,-.01673,
-.00591,.0118,
-.00097,.01673,
0.0*
%
%ADD20MACRO20*%
%ADD17R,.04921X.06299*%
%AMMACRO15*
4,1,5,.01673,.00097,
.01673,-.00591,
-.01673,-.00591,
-.01673,.00591,
.0118,.00591,
.01673,.00097,
0.0*
%
%ADD15MACRO15*%
%AMMACRO23*
4,1,5,-.01673,.00097,
-.01673,-.00591,
.01673,-.00591,
.01673,.00591,
-.0118,.00591,
-.01673,.00097,
0.0*
%
%ADD23MACRO23*%
%AMMACRO21*
4,1,5,-.00097,-.01673,
.00591,-.01673,
.00591,.01673,
-.00591,.01673,
-.00591,-.0118,
-.00097,-.01673,
0.0*
%
%ADD21MACRO21*%
%ADD27C,.005*%
%ADD28C,.001*%
%ADD29C,.006*%
G75*
%LPD*%
G75*
G36*
G01X7982Y50708D02*
Y48740D01*
X6014Y50708D01*
X7982D01*
G37*
G54D10*
X7493Y5000D03*
Y15000D03*
X17493Y5000D03*
X27493D03*
X37493D03*
X17493Y15000D03*
X27493D03*
X37493D03*
X47493D03*
G54D20*
X12077Y52047D03*
G54D11*
X6081Y34724D03*
X2300Y71300D03*
X7700D03*
X11481Y34724D03*
X39000Y34524D03*
X27198Y29924D03*
X21798D03*
X39000Y40076D03*
X27198Y34924D03*
X21798D03*
Y39900D03*
X27198D03*
X44400Y34524D03*
Y40076D03*
G54D21*
X12077Y67401D03*
G54D12*
X6081Y45224D03*
Y39824D03*
X16498Y34924D03*
Y29524D03*
X11481Y45224D03*
Y39824D03*
X33000Y45300D03*
Y39900D03*
X33998Y70200D03*
Y64800D03*
Y54800D03*
Y60200D03*
X50000Y34524D03*
Y39924D03*
G54D13*
X2448Y66968D03*
Y63032D03*
X3548Y53564D03*
Y57500D03*
G54D22*
X21919Y67401D03*
G54D23*
X24675Y64645D03*
G54D14*
X9321Y54803D03*
G54D15*
Y64645D03*
G54D24*
X14045Y67401D03*
X16014D03*
X17982D03*
X19951D03*
Y52047D03*
X17982D03*
X16014D03*
X14045D03*
G54D16*
X9321Y56771D03*
Y58740D03*
Y60708D03*
Y62677D03*
X24675D03*
Y60708D03*
Y58740D03*
Y56771D03*
G54D25*
X16998Y59724D03*
G54D17*
X40167Y68783D03*
Y54217D03*
X48829Y68783D03*
Y54217D03*
G54D26*
X47493Y5000D03*
G54D27*
G01X5664Y63997D02*
X5851Y63706D01*
X6011Y63539D01*
X6224Y63456D01*
X6411Y63539D01*
X6544Y63706D01*
X6651Y63956D01*
X6678Y64247D01*
X6651Y64497D01*
X6544Y64747D01*
X6384Y64956D01*
X6198Y65039D01*
X5984Y64956D01*
X5798Y64706D01*
X5691Y64331D01*
X5664Y63914D01*
X5718Y63372D01*
X5798Y63081D01*
X5931Y62789D01*
X6118Y62581D01*
X6304Y62539D01*
X6491Y62622D01*
X6624Y62831D01*
G01X6171Y55196D02*
Y52696D01*
X5851Y53196D01*
G01Y55196D02*
X6491D01*
G01X10370Y46421D02*
X10530Y46171D01*
X10717Y46046D01*
X10930Y46004D01*
X11197Y46087D01*
X11384Y46296D01*
X11437Y46546D01*
X11410Y46796D01*
X11304Y47004D01*
X10770Y47421D01*
X10530Y47712D01*
X10370Y48129D01*
X10317Y48504D01*
X11437D01*
G01X13597D02*
Y46004D01*
X12610Y47796D01*
X13944D01*
G01X16424Y58799D02*
Y60591D01*
X16531Y60966D01*
X16744Y61216D01*
X17011Y61299D01*
X17278Y61216D01*
X17491Y60966D01*
X17598Y60591D01*
Y58799D01*
G01X18904Y59216D02*
X19064Y58966D01*
X19251Y58841D01*
X19464Y58799D01*
X19731Y58882D01*
X19918Y59091D01*
X19971Y59341D01*
X19944Y59591D01*
X19838Y59799D01*
X19304Y60216D01*
X19064Y60507D01*
X18904Y60924D01*
X18851Y61299D01*
X19971D01*
G01X20719Y72519D02*
Y70019D01*
X20399Y70519D01*
G01Y72519D02*
X21039D01*
G01X22612Y70436D02*
X22772Y70186D01*
X22959Y70061D01*
X23172Y70019D01*
X23439Y70102D01*
X23626Y70311D01*
X23679Y70561D01*
X23652Y70811D01*
X23546Y71019D01*
X23012Y71436D01*
X22772Y71727D01*
X22612Y72144D01*
X22559Y72519D01*
X23679D01*
G01X27412Y55196D02*
Y52696D01*
X27092Y53196D01*
G01Y55196D02*
X27732D01*
G01X29812D02*
X29999Y55154D01*
X30212Y55029D01*
X30345Y54821D01*
X30399Y54529D01*
X30345Y54238D01*
X30185Y53988D01*
X29945Y53863D01*
X29679D01*
X29519Y53779D01*
X29385Y53571D01*
X29332Y53279D01*
X29412Y52988D01*
X29599Y52779D01*
X29812Y52696D01*
X30025Y52779D01*
X30212Y52988D01*
X30292Y53279D01*
X30239Y53571D01*
X30105Y53779D01*
X29945Y53863D01*
X29679D01*
X29439Y53988D01*
X29279Y54238D01*
X29225Y54529D01*
X29279Y54821D01*
X29412Y55029D01*
X29625Y55154D01*
X29812Y55196D01*
G54D18*
X24675Y54803D03*
G54D28*
G01X-17Y74000D02*
X57015D01*
X56974Y0D01*
X0D01*
X-17Y74000D01*
G01X12081Y32974D02*
X5481D01*
Y36474D01*
X12081D01*
Y32974D01*
G01X4331Y39224D02*
Y45824D01*
X7831D01*
Y39224D01*
X4331D01*
G01X1498Y63000D02*
Y67000D01*
X3498D01*
Y63000D01*
X1498D01*
G01X4498Y57532D02*
Y53532D01*
X2498D01*
Y57532D01*
X4498D01*
G01X8300Y69550D02*
X1700D01*
Y73050D01*
X8300D01*
Y69550D01*
G01X38400Y36274D02*
X45000D01*
Y32774D01*
X38400D01*
Y36274D01*
G01X14748Y28924D02*
Y35524D01*
X18248D01*
Y28924D01*
X14748D01*
G01X21198Y31674D02*
X27798D01*
Y28174D01*
X21198D01*
Y31674D01*
G01X38400Y41826D02*
X45000D01*
Y38326D01*
X38400D01*
Y41826D01*
G01X9731Y39224D02*
Y45824D01*
X13231D01*
Y39224D01*
X9731D01*
G01X21198Y36674D02*
X27798D01*
Y33174D01*
X21198D01*
Y36674D01*
G01X31250Y39300D02*
Y45900D01*
X34750D01*
Y39300D01*
X31250D01*
G01X27798Y38150D02*
X21198D01*
Y41650D01*
X27798D01*
Y38150D01*
G01X50797Y71343D02*
Y51657D01*
X38199D01*
Y71343D01*
X50797D01*
G01X32248Y64200D02*
Y70800D01*
X35748D01*
Y64200D01*
X32248D01*
G01X35748Y60800D02*
Y54200D01*
X32248D01*
Y60800D01*
X35748D01*
G01X9124Y67598D02*
X24872D01*
Y51850D01*
X9124D01*
Y67598D01*
G01X51750Y40524D02*
Y33924D01*
X48250D01*
Y40524D01*
X51750D01*
G54D19*
X21919Y52047D03*
G54D29*
G01X5133Y48667D02*
Y51167D01*
X4467D01*
X4253Y51042D01*
X4120Y50875D01*
X4067Y50542D01*
X4120Y50209D01*
X4280Y50000D01*
X4467Y49875D01*
X5133D01*
G01X4467D02*
X4067Y48667D01*
G01X2987Y49042D02*
X2827Y48834D01*
X2640Y48709D01*
X2400Y48667D01*
X2160Y48750D01*
X1973Y48917D01*
X1840Y49209D01*
X1813Y49542D01*
X1867Y49875D01*
X2000Y50084D01*
X2187Y50250D01*
X2373Y50292D01*
X2560Y50250D01*
X2800Y50084D01*
X2720Y51167D01*
X2000D01*
G01X11233Y29167D02*
Y31667D01*
X10567D01*
X10353Y31542D01*
X10220Y31375D01*
X10167Y31042D01*
X10220Y30709D01*
X10380Y30500D01*
X10567Y30375D01*
X11233D01*
G01X10567D02*
X10167Y29167D01*
G01X8500D02*
Y31667D01*
X8820Y31167D01*
G01Y29167D02*
X8180D01*
G01X6807Y31250D02*
X6647Y31500D01*
X6460Y31625D01*
X6247Y31667D01*
X5980Y31584D01*
X5793Y31375D01*
X5740Y31125D01*
X5767Y30875D01*
X5873Y30667D01*
X6407Y30250D01*
X6647Y29959D01*
X6807Y29542D01*
X6860Y29167D01*
X5740D01*
G01X1167Y40867D02*
X3667D01*
Y41533D01*
X3542Y41747D01*
X3375Y41880D01*
X3042Y41933D01*
X2709Y41880D01*
X2500Y41720D01*
X2375Y41533D01*
Y40867D01*
G01Y41533D02*
X1167Y41933D01*
G01Y43600D02*
X1209Y43787D01*
X1334Y44000D01*
X1542Y44133D01*
X1834Y44187D01*
X2125Y44133D01*
X2375Y43973D01*
X2500Y43733D01*
Y43467D01*
X2584Y43307D01*
X2792Y43173D01*
X3084Y43120D01*
X3375Y43200D01*
X3584Y43387D01*
X3667Y43600D01*
X3584Y43813D01*
X3375Y44000D01*
X3084Y44080D01*
X2792Y44027D01*
X2584Y43893D01*
X2500Y43733D01*
Y43467D01*
X2375Y43227D01*
X2125Y43067D01*
X1834Y43013D01*
X1542Y43067D01*
X1334Y43200D01*
X1209Y43413D01*
X1167Y43600D01*
G01X4167Y62867D02*
X6667D01*
Y63533D01*
X6542Y63747D01*
X6375Y63880D01*
X6042Y63933D01*
X5709Y63880D01*
X5500Y63720D01*
X5375Y63533D01*
Y62867D01*
G01Y63533D02*
X4167Y63933D01*
G01Y65920D02*
X6667D01*
X4875Y64933D01*
Y66267D01*
G01X-16127Y105667D02*
X-13002Y115667D01*
X-9877Y105667D01*
G01X-11002Y109167D02*
X-15002D01*
G01X-5627Y107000D02*
X-4627Y106167D01*
X-3502Y105667D01*
X-2502D01*
X-1502Y106167D01*
X-752Y107000D01*
X-377Y108167D01*
X-627Y109333D01*
X-1252Y110334D01*
X-2377Y111000D01*
X-3877Y111334D01*
X-4752Y112000D01*
X-5127Y113167D01*
X-4877Y114334D01*
X-4252Y115167D01*
X-3377Y115667D01*
X-2502D01*
X-1627Y115334D01*
X-877Y114500D01*
G01X4373Y107000D02*
X5373Y106167D01*
X6498Y105667D01*
X7498D01*
X8498Y106167D01*
X9248Y107000D01*
X9623Y108167D01*
X9373Y109333D01*
X8748Y110334D01*
X7623Y111000D01*
X6123Y111334D01*
X5248Y112000D01*
X4873Y113167D01*
X5123Y114334D01*
X5748Y115167D01*
X6623Y115667D01*
X7498D01*
X8373Y115334D01*
X9123Y114500D01*
G01X19498Y105667D02*
X14498D01*
Y115667D01*
X19498D01*
G01X17498Y110834D02*
X14498D01*
G01X23748Y105667D02*
Y115667D01*
X26998Y107334D01*
X30248Y115667D01*
Y105667D01*
G01X37998Y111000D02*
X38498Y111500D01*
X38873Y112333D01*
X39123Y113500D01*
X38873Y114500D01*
X38373Y115167D01*
X37498Y115667D01*
X34123D01*
Y105667D01*
X38248D01*
X39123Y106334D01*
X39623Y107334D01*
X39873Y108500D01*
X39623Y109667D01*
X38873Y110667D01*
X37998Y111000D01*
X34123D01*
G01X44498Y115667D02*
Y105667D01*
X49498D01*
G01X56998D02*
Y110167D01*
X54498Y115667D01*
G01X59498D02*
X56998Y110167D01*
G01X77998Y111000D02*
X78498Y111500D01*
X78873Y112333D01*
X79123Y113500D01*
X78873Y114500D01*
X78373Y115167D01*
X77498Y115667D01*
X74123D01*
Y105667D01*
X78248D01*
X79123Y106334D01*
X79623Y107334D01*
X79873Y108500D01*
X79623Y109667D01*
X78873Y110667D01*
X77998Y111000D01*
X74123D01*
G01X86998Y105667D02*
X85998Y105834D01*
X85123Y106500D01*
X84373Y107500D01*
X83873Y108667D01*
X83623Y110000D01*
Y111334D01*
X83873Y112667D01*
X84373Y113834D01*
X85123Y114834D01*
X85998Y115500D01*
X86998Y115667D01*
X87998Y115500D01*
X88873Y114834D01*
X89623Y113834D01*
X90123Y112667D01*
X90373Y111334D01*
Y110000D01*
X90123Y108667D01*
X89623Y107500D01*
X88873Y106500D01*
X87998Y105834D01*
X86998Y105667D01*
G01X96998Y115667D02*
Y105667D01*
G01X94123Y115667D02*
X99873D01*
G01X106998D02*
Y105667D01*
G01X104123Y115667D02*
X109873D01*
G01X116998Y105667D02*
X115998Y105834D01*
X115123Y106500D01*
X114373Y107500D01*
X113873Y108667D01*
X113623Y110000D01*
Y111334D01*
X113873Y112667D01*
X114373Y113834D01*
X115123Y114834D01*
X115998Y115500D01*
X116998Y115667D01*
X117998Y115500D01*
X118873Y114834D01*
X119623Y113834D01*
X120123Y112667D01*
X120373Y111334D01*
Y110000D01*
X120123Y108667D01*
X119623Y107500D01*
X118873Y106500D01*
X117998Y105834D01*
X116998Y105667D01*
G01X123748D02*
Y115667D01*
X126998Y107334D01*
X130248Y115667D01*
Y105667D01*
G01X-17252Y134991D02*
Y144991D01*
X-14752D01*
X-13752Y144491D01*
X-13002Y143824D01*
X-12377Y142824D01*
X-11877Y141657D01*
X-11752Y139991D01*
X-11877Y138324D01*
X-12377Y137158D01*
X-13002Y136157D01*
X-13752Y135491D01*
X-14752Y134991D01*
X-17252D01*
G01X-7627D02*
X-4502Y144991D01*
X-1377Y134991D01*
G01X-2502Y138491D02*
X-6502D01*
G01X5498Y144991D02*
Y134991D01*
G01X2623Y144991D02*
X8373D01*
G01X17998Y134991D02*
X12998D01*
Y144991D01*
X17998D01*
G01X15998Y140158D02*
X12998D01*
G01X25498Y134658D02*
X25248Y134824D01*
Y135158D01*
X25498Y135324D01*
X25748Y135158D01*
Y134824D01*
X25498Y134658D01*
G01Y139157D02*
X25248Y139324D01*
Y139658D01*
X25498Y139824D01*
X25748Y139658D01*
Y139324D01*
X25498Y139157D01*
G01X45498Y144991D02*
X44498Y144658D01*
X43748Y143824D01*
X43248Y142824D01*
X42873Y141491D01*
X42748Y139991D01*
X42873Y138491D01*
X43248Y137158D01*
X43748Y136157D01*
X44498Y135324D01*
X45498Y134991D01*
X46498Y135324D01*
X47248Y136157D01*
X47748Y137158D01*
X48123Y138491D01*
X48248Y139991D01*
X48123Y141491D01*
X47748Y142824D01*
X47248Y143824D01*
X46498Y144658D01*
X45498Y144991D01*
G01X52748Y136991D02*
X53498Y135824D01*
X54498Y135158D01*
X55623Y134991D01*
X56623Y135158D01*
X57623Y135991D01*
X58248Y136991D01*
X58373Y137991D01*
X58123Y139157D01*
X57248Y139991D01*
X56373Y140324D01*
X55248D01*
G01X56373D02*
X57123Y140824D01*
X57748Y141657D01*
X57998Y142658D01*
X57748Y143658D01*
X57123Y144491D01*
X55998Y144991D01*
X54873Y144824D01*
X53748Y144158D01*
G01X63248Y134658D02*
X67748Y144991D01*
G01X75498D02*
X74498Y144658D01*
X73748Y143824D01*
X73248Y142824D01*
X72873Y141491D01*
X72748Y139991D01*
X72873Y138491D01*
X73248Y137158D01*
X73748Y136157D01*
X74498Y135324D01*
X75498Y134991D01*
X76498Y135324D01*
X77248Y136157D01*
X77748Y137158D01*
X78123Y138491D01*
X78248Y139991D01*
X78123Y141491D01*
X77748Y142824D01*
X77248Y143824D01*
X76498Y144658D01*
X75498Y144991D01*
G01X85498Y134991D02*
X86373Y135158D01*
X87373Y135658D01*
X87998Y136491D01*
X88248Y137658D01*
X87998Y138824D01*
X87248Y139824D01*
X86123Y140324D01*
X84873D01*
X84123Y140658D01*
X83498Y141491D01*
X83248Y142658D01*
X83623Y143824D01*
X84498Y144658D01*
X85498Y144991D01*
X86498Y144658D01*
X87373Y143824D01*
X87748Y142658D01*
X87498Y141491D01*
X86873Y140658D01*
X86123Y140324D01*
X84873D01*
X83748Y139824D01*
X82998Y138824D01*
X82748Y137658D01*
X82998Y136491D01*
X83623Y135658D01*
X84623Y135158D01*
X85498Y134991D01*
G01X93248Y134658D02*
X97748Y144991D01*
G01X103123Y143324D02*
X103873Y144324D01*
X104748Y144824D01*
X105748Y144991D01*
X106998Y144658D01*
X107873Y143824D01*
X108123Y142824D01*
X107998Y141824D01*
X107498Y140991D01*
X104998Y139324D01*
X103873Y138158D01*
X103123Y136491D01*
X102873Y134991D01*
X108123D01*
G01X115498Y144991D02*
X114498Y144658D01*
X113748Y143824D01*
X113248Y142824D01*
X112873Y141491D01*
X112748Y139991D01*
X112873Y138491D01*
X113248Y137158D01*
X113748Y136157D01*
X114498Y135324D01*
X115498Y134991D01*
X116498Y135324D01*
X117248Y136157D01*
X117748Y137158D01*
X118123Y138491D01*
X118248Y139991D01*
X118123Y141491D01*
X117748Y142824D01*
X117248Y143824D01*
X116498Y144658D01*
X115498Y144991D01*
G01X125498Y134991D02*
Y144991D01*
X123998Y142991D01*
G01Y134991D02*
X126998D01*
G01X132748Y136491D02*
X133498Y135658D01*
X134373Y135158D01*
X135498Y134991D01*
X136623Y135324D01*
X137498Y135991D01*
X138123Y137158D01*
X138248Y138491D01*
X137998Y139824D01*
X137373Y140658D01*
X136498Y141324D01*
X135623Y141491D01*
X134748Y141324D01*
X133623Y140658D01*
X133998Y144991D01*
X137373D01*
G01X-11152Y164858D02*
X-11902Y165358D01*
X-12777Y165691D01*
X-13777D01*
X-14902Y165191D01*
X-15777Y164358D01*
X-16402Y163358D01*
X-16902Y161691D01*
X-17027Y160191D01*
X-16777Y158691D01*
X-16402Y157691D01*
X-15652Y156691D01*
X-14777Y156024D01*
X-13902Y155691D01*
X-13027D01*
X-12152Y156024D01*
X-11402Y156524D01*
X-10777Y157191D01*
G01X-6652Y165691D02*
Y158524D01*
X-6152Y157024D01*
X-5152Y156024D01*
X-3902Y155691D01*
X-2652Y156024D01*
X-1652Y157024D01*
X-1152Y158524D01*
Y165691D01*
G01X3598Y155691D02*
Y165691D01*
X6723D01*
X7723Y165191D01*
X8348Y164524D01*
X8598Y163191D01*
X8348Y161858D01*
X7598Y161024D01*
X6723Y160524D01*
X3598D01*
G01X6723D02*
X8598Y155691D01*
G01X13598D02*
Y165691D01*
X16723D01*
X17723Y165191D01*
X18348Y164524D01*
X18598Y163191D01*
X18348Y161858D01*
X17598Y161024D01*
X16723Y160524D01*
X13598D01*
G01X16723D02*
X18598Y155691D01*
G01X28598D02*
X23598D01*
Y165691D01*
X28598D01*
G01X26598Y160858D02*
X23598D01*
G01X33223Y155691D02*
Y165691D01*
X38973Y155691D01*
Y165691D01*
G01X46098D02*
Y155691D01*
G01X43223Y165691D02*
X48973D01*
G01X63473Y157024D02*
X64473Y156191D01*
X65598Y155691D01*
X66598D01*
X67598Y156191D01*
X68348Y157024D01*
X68723Y158191D01*
X68473Y159357D01*
X67848Y160358D01*
X66723Y161024D01*
X65223Y161358D01*
X64348Y162024D01*
X63973Y163191D01*
X64223Y164358D01*
X64848Y165191D01*
X65723Y165691D01*
X66598D01*
X67473Y165358D01*
X68223Y164524D01*
G01X78598Y155691D02*
X73598D01*
Y165691D01*
X78598D01*
G01X76598Y160858D02*
X73598D01*
G01X83223Y155691D02*
Y165691D01*
X88973Y155691D01*
Y165691D01*
G01X93473Y157024D02*
X94473Y156191D01*
X95598Y155691D01*
X96598D01*
X97598Y156191D01*
X98348Y157024D01*
X98723Y158191D01*
X98473Y159357D01*
X97848Y160358D01*
X96723Y161024D01*
X95223Y161358D01*
X94348Y162024D01*
X93973Y163191D01*
X94223Y164358D01*
X94848Y165191D01*
X95723Y165691D01*
X96598D01*
X97473Y165358D01*
X98223Y164524D01*
G01X108598Y155691D02*
X103598D01*
Y165691D01*
X108598D01*
G01X106598Y160858D02*
X103598D01*
G01X127098Y161024D02*
X127598Y161524D01*
X127973Y162357D01*
X128223Y163524D01*
X127973Y164524D01*
X127473Y165191D01*
X126598Y165691D01*
X123223D01*
Y155691D01*
X127348D01*
X128223Y156358D01*
X128723Y157358D01*
X128973Y158524D01*
X128723Y159691D01*
X127973Y160691D01*
X127098Y161024D01*
X123223D01*
G01X136098Y155691D02*
X135098Y155858D01*
X134223Y156524D01*
X133473Y157524D01*
X132973Y158691D01*
X132723Y160024D01*
Y161358D01*
X132973Y162691D01*
X133473Y163858D01*
X134223Y164858D01*
X135098Y165524D01*
X136098Y165691D01*
X137098Y165524D01*
X137973Y164858D01*
X138723Y163858D01*
X139223Y162691D01*
X139473Y161358D01*
Y160024D01*
X139223Y158691D01*
X138723Y157524D01*
X137973Y156524D01*
X137098Y155858D01*
X136098Y155691D01*
G01X142973D02*
X146098Y165691D01*
X149223Y155691D01*
G01X148098Y159191D02*
X144098D01*
G01X153598Y155691D02*
Y165691D01*
X156723D01*
X157723Y165191D01*
X158348Y164524D01*
X158598Y163191D01*
X158348Y161858D01*
X157598Y161024D01*
X156723Y160524D01*
X153598D01*
G01X156723D02*
X158598Y155691D01*
G01X163348D02*
Y165691D01*
X165848D01*
X166848Y165191D01*
X167598Y164524D01*
X168223Y163524D01*
X168723Y162357D01*
X168848Y160691D01*
X168723Y159024D01*
X168223Y157858D01*
X167598Y156857D01*
X166848Y156191D01*
X165848Y155691D01*
X163348D01*
G01X15667Y21267D02*
X18167D01*
Y21933D01*
X18042Y22147D01*
X17875Y22280D01*
X17542Y22333D01*
X17209Y22280D01*
X17000Y22120D01*
X16875Y21933D01*
Y21267D01*
G01Y21933D02*
X15667Y22333D01*
G01Y24000D02*
X18167D01*
X17667Y23680D01*
G01X15667D02*
Y24320D01*
G01Y26200D02*
X18167D01*
X17667Y25880D01*
G01X15667D02*
Y26520D01*
G01X26733Y24667D02*
Y27167D01*
X26067D01*
X25853Y27042D01*
X25720Y26875D01*
X25667Y26542D01*
X25720Y26209D01*
X25880Y26000D01*
X26067Y25875D01*
X26733D01*
G01X26067D02*
X25667Y24667D01*
G01X24000D02*
Y27167D01*
X24320Y26667D01*
G01Y24667D02*
X23680D01*
G01X21800Y27167D02*
X22013Y27084D01*
X22173Y26875D01*
X22280Y26625D01*
X22360Y26292D01*
X22387Y25917D01*
X22360Y25542D01*
X22280Y25209D01*
X22173Y24959D01*
X22013Y24750D01*
X21800Y24667D01*
X21587Y24750D01*
X21427Y24959D01*
X21320Y25209D01*
X21240Y25542D01*
X21213Y25917D01*
X21240Y26292D01*
X21320Y26625D01*
X21427Y26875D01*
X21587Y27084D01*
X21800Y27167D01*
G01X16459Y41987D02*
X16584Y41827D01*
X16667Y41640D01*
Y41427D01*
X16542Y41187D01*
X16334Y41000D01*
X16084Y40867D01*
X15667Y40760D01*
X15292Y40733D01*
X14917Y40787D01*
X14667Y40867D01*
X14417Y41027D01*
X14250Y41213D01*
X14167Y41400D01*
Y41587D01*
X14250Y41773D01*
X14375Y41933D01*
X14542Y42067D01*
G01X14167Y43547D02*
X14709Y43600D01*
X15167Y43680D01*
X15584Y43787D01*
X16042Y43920D01*
X16667Y44133D01*
Y43067D01*
G01X32013Y35959D02*
X32173Y36084D01*
X32360Y36167D01*
X32573D01*
X32813Y36042D01*
X33000Y35834D01*
X33133Y35584D01*
X33240Y35167D01*
X33267Y34792D01*
X33213Y34417D01*
X33133Y34167D01*
X32973Y33917D01*
X32787Y33750D01*
X32600Y33667D01*
X32413D01*
X32227Y33750D01*
X32067Y33875D01*
X31933Y34042D01*
G01X30987D02*
X30827Y33834D01*
X30640Y33709D01*
X30400Y33667D01*
X30160Y33750D01*
X29973Y33917D01*
X29840Y34209D01*
X29813Y34542D01*
X29867Y34875D01*
X30000Y35084D01*
X30187Y35250D01*
X30373Y35292D01*
X30560Y35250D01*
X30800Y35084D01*
X30720Y36167D01*
X30000D01*
G01X33513Y49959D02*
X33673Y50084D01*
X33860Y50167D01*
X34073D01*
X34313Y50042D01*
X34500Y49834D01*
X34633Y49584D01*
X34740Y49167D01*
X34767Y48792D01*
X34713Y48417D01*
X34633Y48167D01*
X34473Y47917D01*
X34287Y47750D01*
X34100Y47667D01*
X33913D01*
X33727Y47750D01*
X33567Y47875D01*
X33433Y48042D01*
G01X31580Y47667D02*
Y50167D01*
X32567Y48375D01*
X31233D01*
G01X26111Y44958D02*
X26271Y45083D01*
X26458Y45166D01*
X26671D01*
X26911Y45041D01*
X27098Y44833D01*
X27231Y44583D01*
X27338Y44166D01*
X27365Y43791D01*
X27311Y43416D01*
X27231Y43166D01*
X27071Y42916D01*
X26885Y42749D01*
X26698Y42666D01*
X26511D01*
X26325Y42749D01*
X26165Y42874D01*
X26031Y43041D01*
G01X24498Y42666D02*
Y45166D01*
X24818Y44666D01*
G01Y42666D02*
X24178D01*
G01X22885Y43166D02*
X22725Y42874D01*
X22511Y42708D01*
X22271Y42666D01*
X22058Y42708D01*
X21845Y42916D01*
X21711Y43166D01*
X21685Y43416D01*
X21738Y43708D01*
X21925Y43916D01*
X22111Y43999D01*
X22351D01*
G01X22111D02*
X21951Y44124D01*
X21818Y44333D01*
X21765Y44583D01*
X21818Y44833D01*
X21951Y45041D01*
X22191Y45166D01*
X22431Y45124D01*
X22671Y44958D01*
G01X36500Y50667D02*
Y53167D01*
X36820Y52667D01*
G01Y50667D02*
X36180D01*
G01X40750Y72493D02*
X41000Y72653D01*
X41125Y72840D01*
X41167Y73053D01*
X41084Y73320D01*
X40875Y73507D01*
X40625Y73560D01*
X40375Y73533D01*
X40167Y73427D01*
X39750Y72893D01*
X39459Y72653D01*
X39042Y72493D01*
X38667Y72440D01*
Y73560D01*
G01X12513Y72459D02*
X12673Y72584D01*
X12860Y72667D01*
X13073D01*
X13313Y72542D01*
X13500Y72334D01*
X13633Y72084D01*
X13740Y71667D01*
X13767Y71292D01*
X13713Y70917D01*
X13633Y70667D01*
X13473Y70417D01*
X13287Y70250D01*
X13100Y70167D01*
X12913D01*
X12727Y70250D01*
X12567Y70375D01*
X12433Y70542D01*
G01X11487Y70667D02*
X11327Y70375D01*
X11113Y70209D01*
X10873Y70167D01*
X10660Y70209D01*
X10447Y70417D01*
X10313Y70667D01*
X10287Y70917D01*
X10340Y71209D01*
X10527Y71417D01*
X10713Y71500D01*
X10953D01*
G01X10713D02*
X10553Y71625D01*
X10420Y71834D01*
X10367Y72084D01*
X10420Y72334D01*
X10553Y72542D01*
X10793Y72667D01*
X11033Y72625D01*
X11273Y72459D01*
G01X30959Y66987D02*
X31084Y66827D01*
X31167Y66640D01*
Y66427D01*
X31042Y66187D01*
X30834Y66000D01*
X30584Y65867D01*
X30167Y65760D01*
X29792Y65733D01*
X29417Y65787D01*
X29167Y65867D01*
X28917Y66027D01*
X28750Y66213D01*
X28667Y66400D01*
Y66587D01*
X28750Y66773D01*
X28875Y66933D01*
X29042Y67067D01*
G01X28667Y68600D02*
X31167D01*
X30667Y68280D01*
G01X28667D02*
Y68920D01*
G01X30959Y57487D02*
X31084Y57327D01*
X31167Y57140D01*
Y56927D01*
X31042Y56687D01*
X30834Y56500D01*
X30584Y56367D01*
X30167Y56260D01*
X29792Y56233D01*
X29417Y56287D01*
X29167Y56367D01*
X28917Y56527D01*
X28750Y56713D01*
X28667Y56900D01*
Y57087D01*
X28750Y57273D01*
X28875Y57433D01*
X29042Y57567D01*
G01X30750Y58593D02*
X31000Y58753D01*
X31125Y58940D01*
X31167Y59153D01*
X31084Y59420D01*
X30875Y59607D01*
X30625Y59660D01*
X30375Y59633D01*
X30167Y59527D01*
X29750Y58993D01*
X29459Y58753D01*
X29042Y58593D01*
X28667Y58540D01*
Y59660D01*
G01X51633Y42666D02*
Y45166D01*
X50967D01*
X50753Y45041D01*
X50620Y44874D01*
X50567Y44541D01*
X50620Y44208D01*
X50780Y43999D01*
X50967Y43874D01*
X51633D01*
G01X50967D02*
X50567Y42666D01*
G01X49353Y42958D02*
X49167Y42749D01*
X48953Y42666D01*
X48740Y42749D01*
X48553Y42999D01*
X48420Y43374D01*
X48367Y43749D01*
Y44208D01*
X48420Y44583D01*
X48553Y44916D01*
X48713Y45083D01*
X48900Y45166D01*
X49113Y45083D01*
X49273Y44916D01*
X49380Y44666D01*
X49433Y44333D01*
X49380Y44041D01*
X49247Y43749D01*
X49087Y43583D01*
X48900Y43541D01*
X48687Y43624D01*
X48527Y43833D01*
X48367Y44208D01*
G01X45233Y28667D02*
Y31167D01*
X44567D01*
X44353Y31042D01*
X44220Y30875D01*
X44167Y30542D01*
X44220Y30209D01*
X44380Y30000D01*
X44567Y29875D01*
X45233D01*
G01X44567D02*
X44167Y28667D01*
G01X42500D02*
Y31167D01*
X42820Y30667D01*
G01Y28667D02*
X42180D01*
G01X40887Y29167D02*
X40727Y28875D01*
X40513Y28709D01*
X40273Y28667D01*
X40060Y28709D01*
X39847Y28917D01*
X39713Y29167D01*
X39687Y29417D01*
X39740Y29709D01*
X39927Y29917D01*
X40113Y30000D01*
X40353D01*
G01X40113D02*
X39953Y30125D01*
X39820Y30334D01*
X39767Y30584D01*
X39820Y30834D01*
X39953Y31042D01*
X40193Y31167D01*
X40433Y31125D01*
X40673Y30959D01*
G01X42013Y44959D02*
X42173Y45084D01*
X42360Y45167D01*
X42573D01*
X42813Y45042D01*
X43000Y44834D01*
X43133Y44584D01*
X43240Y44167D01*
X43267Y43792D01*
X43213Y43417D01*
X43133Y43167D01*
X42973Y42917D01*
X42787Y42750D01*
X42600Y42667D01*
X42413D01*
X42227Y42750D01*
X42067Y42875D01*
X41933Y43042D01*
G01X40907Y43709D02*
X40720Y44000D01*
X40560Y44167D01*
X40347Y44250D01*
X40160Y44167D01*
X40027Y44000D01*
X39920Y43750D01*
X39893Y43459D01*
X39920Y43209D01*
X40027Y42959D01*
X40187Y42750D01*
X40373Y42667D01*
X40587Y42750D01*
X40773Y43000D01*
X40880Y43375D01*
X40907Y43792D01*
X40853Y44334D01*
X40773Y44625D01*
X40640Y44917D01*
X40453Y45125D01*
X40267Y45167D01*
X40080Y45084D01*
X39947Y44875D01*
G01X43361Y60394D02*
X44486D01*
X45861Y59861D01*
G01Y60927D02*
X44486Y60394D01*
G01X43361Y62594D02*
X45861D01*
X45361Y62274D01*
G01X43361D02*
Y62914D01*
G01X52680Y53667D02*
Y56167D01*
X53667Y54375D01*
X52333D01*
G01X53087Y68667D02*
X52927Y68375D01*
X52713Y68209D01*
X52473Y68167D01*
X52260Y68209D01*
X52047Y68417D01*
X51913Y68667D01*
X51887Y68917D01*
X51940Y69209D01*
X52127Y69417D01*
X52313Y69500D01*
X52553D01*
G01X52313D02*
X52153Y69625D01*
X52020Y69834D01*
X51967Y70084D01*
X52020Y70334D01*
X52153Y70542D01*
X52393Y70667D01*
X52633Y70625D01*
X52873Y70459D01*
M02*
