M48
INCH,LZ
T01C.01
T02C.04
;LEADER: 12 
;HEADER: 
;CODE  : ASCII 
;FILE  : CURRENT_SENSE_BOARD_03AUG15_1930-1-2.drl for  ... layers TOP and BOTTOM
;T01 Holesize 1. = 10.000000 Tolerance = +3.000000/-3.000000 PLATED MILS Quantity = 25
;T02 Holesize 2. = 40.000000 Tolerance = +0.000000/-0.000000 PLATED MILS Quantity = 10
%
G90
T01
X0023498Y0067401
X0009321Y0066845
X00075Y00275
X00115Y0072
X0003748Y0053501
X0033966Y00488
X0028Y0062926
X0026498Y00515
X0055Y0044
X0013498Y0063224
X0020498Y0059724
X0028871Y0059873
X0030579Y0069579
X0020498Y0056224
X0016998
X00023Y00713
X0013498Y0056224
X00025Y005
X00094Y00305
X0017998Y00399
X0013498Y0059724
X0016998Y0063224
Y0059724
X0011481Y0039824
X0019298Y00465
T02
X0047493Y0005
Y0015
X0037493Y0005
Y0015
X0027493Y0005
Y0015
X0017493Y0005
Y0015
X0007493Y0005
Y0015
M30
