G04 ================== begin FILE IDENTIFICATION RECORD ==================*
G04 Layout Name:  CURRENT_SENSE_BOARD_03AUG15_1930.brd*
G04 Film Name:    PMB*
G04 File Format:  Gerber RS274X*
G04 File Origin:  Cadence Allegro 16.6-P004*
G04 Origin Date:  Mon Aug 03 19:39:57 2015*
G04 *
G04 Layer:  DRAWING FORMAT/FILM_LABEL_OUTLINE*
G04 Layer:  PIN/PASTEMASK_BOTTOM*
G04 Layer:  PACKAGE GEOMETRY/PASTEMASK_BOTTOM*
G04 Layer:  BOARD GEOMETRY/OUTLINE*
G04 *
G04 Offset:    (0.00 0.00)*
G04 Mirror:    No*
G04 Mode:      Positive*
G04 Rotation:  0*
G04 FullContactRelief:  No*
G04 UndefLineWidth:     6.00*
G04 ================== end FILE IDENTIFICATION RECORD ====================*
%FSLAX25Y25*MOIN*%
%IR0*IPPOS*OFA0.00000B0.00000*MIA0B0*SFA1.00000B1.00000*%
%AMMACRO21*
4,1,5,.00097,-.01673,
-.00591,-.01673,
-.00591,.01673,
.00591,.01673,
.00591,-.0118,
.00097,-.01673,
0.0*
%
%ADD21MACRO21*%
%AMMACRO17*
4,1,5,-.01673,-.00097,
-.01673,.00591,
.01673,.00591,
.01673,-.00591,
-.0118,-.00591,
-.01673,-.00097,
0.0*
%
%ADD17MACRO17*%
%ADD24R,.09646X.09646*%
%AMMACRO18*
4,1,5,.00097,.01673,
-.00591,.01673,
-.00591,-.01673,
.00591,-.01673,
.00591,.0118,
.00097,.01673,
0.0*
%
%ADD18MACRO18*%
%AMMACRO13*
4,1,5,.01673,-.00097,
.01673,.00591,
-.01673,.00591,
-.01673,-.00591,
.0118,-.00591,
.01673,-.00097,
0.0*
%
%ADD13MACRO13*%
%ADD11R,.034X.03*%
%ADD10R,.03X.034*%
%ADD12R,.0217X.0236*%
%ADD23R,.01181X.03346*%
%ADD15R,.03346X.01181*%
%AMMACRO19*
4,1,5,-.00097,.01673,
.00591,.01673,
.00591,-.01673,
-.00591,-.01673,
-.00591,.0118,
-.00097,.01673,
0.0*
%
%ADD19MACRO19*%
%ADD16R,.04921X.06299*%
%AMMACRO14*
4,1,5,.01673,.00097,
.01673,-.00591,
-.01673,-.00591,
-.01673,.00591,
.0118,.00591,
.01673,.00097,
0.0*
%
%ADD14MACRO14*%
%AMMACRO22*
4,1,5,-.01673,.00097,
-.01673,-.00591,
.01673,-.00591,
.01673,.00591,
-.0118,.00591,
-.01673,.00097,
0.0*
%
%ADD22MACRO22*%
%AMMACRO20*
4,1,5,-.00097,-.01673,
.00591,-.01673,
.00591,.01673,
-.00591,.01673,
-.00591,-.0118,
-.00097,-.01673,
0.0*
%
%ADD20MACRO20*%
%ADD25C,.006*%
G75*
%LPD*%
G75*
G54D10*
X6081Y34724D03*
X2300Y71300D03*
X7700D03*
X11481Y34724D03*
X39000Y34524D03*
X27198Y29924D03*
X21798D03*
X39000Y40076D03*
X27198Y34924D03*
X21798D03*
Y39900D03*
X27198D03*
X44400Y34524D03*
Y40076D03*
G54D20*
X12077Y67401D03*
G54D11*
X6081Y45224D03*
Y39824D03*
X16498Y34924D03*
Y29524D03*
X11481Y45224D03*
Y39824D03*
X33000Y45300D03*
Y39900D03*
X33998Y70200D03*
Y64800D03*
Y54800D03*
Y60200D03*
X50000Y34524D03*
Y39924D03*
G54D12*
X2448Y66968D03*
Y63032D03*
X3548Y53564D03*
Y57500D03*
G54D21*
X21919Y67401D03*
G54D22*
X24675Y64645D03*
G54D13*
X9321Y54803D03*
G54D14*
Y64645D03*
G54D23*
X14045Y67401D03*
X16014D03*
X17982D03*
X19951D03*
Y52047D03*
X17982D03*
X16014D03*
X14045D03*
G54D15*
X9321Y56771D03*
Y58740D03*
Y60708D03*
Y62677D03*
X24675D03*
Y60708D03*
Y58740D03*
Y56771D03*
G54D24*
X16998Y59724D03*
G54D25*
G01X-17Y74000D02*
X57015D01*
X56974Y0D01*
X0D01*
X-17Y74000D01*
G01X-15002Y105167D02*
Y115167D01*
X-12002D01*
X-11002Y114667D01*
X-10252Y113500D01*
X-10002Y112167D01*
X-10252Y110834D01*
X-10877Y109834D01*
X-12002Y109333D01*
X-15002D01*
G01X-5627Y105167D02*
X-2502Y115167D01*
X623Y105167D01*
G01X-502Y108667D02*
X-4502D01*
G01X4873Y106500D02*
X5873Y105667D01*
X6998Y105167D01*
X7998D01*
X8998Y105667D01*
X9748Y106500D01*
X10123Y107667D01*
X9873Y108833D01*
X9248Y109834D01*
X8123Y110500D01*
X6623Y110834D01*
X5748Y111500D01*
X5373Y112667D01*
X5623Y113834D01*
X6248Y114667D01*
X7123Y115167D01*
X7998D01*
X8873Y114834D01*
X9623Y114000D01*
G01X17498Y115167D02*
Y105167D01*
G01X14623Y115167D02*
X20373D01*
G01X29998Y105167D02*
X24998D01*
Y115167D01*
X29998D01*
G01X27998Y110334D02*
X24998D01*
G01X34248Y105167D02*
Y115167D01*
X37498Y106834D01*
X40748Y115167D01*
Y105167D01*
G01X44373D02*
X47498Y115167D01*
X50623Y105167D01*
G01X49498Y108667D02*
X45498D01*
G01X54873Y106500D02*
X55873Y105667D01*
X56998Y105167D01*
X57998D01*
X58998Y105667D01*
X59748Y106500D01*
X60123Y107667D01*
X59873Y108833D01*
X59248Y109834D01*
X58123Y110500D01*
X56623Y110834D01*
X55748Y111500D01*
X55373Y112667D01*
X55623Y113834D01*
X56248Y114667D01*
X57123Y115167D01*
X57998D01*
X58873Y114834D01*
X59623Y114000D01*
G01X64748Y105167D02*
Y115167D01*
G01X69498D02*
X64748Y109000D01*
G01X70248Y105167D02*
X66873Y111833D01*
G01X88498Y110500D02*
X88998Y111000D01*
X89373Y111833D01*
X89623Y113000D01*
X89373Y114000D01*
X88873Y114667D01*
X87998Y115167D01*
X84623D01*
Y105167D01*
X88748D01*
X89623Y105834D01*
X90123Y106834D01*
X90373Y108000D01*
X90123Y109167D01*
X89373Y110167D01*
X88498Y110500D01*
X84623D01*
G01X97498Y105167D02*
X96498Y105334D01*
X95623Y106000D01*
X94873Y107000D01*
X94373Y108167D01*
X94123Y109500D01*
Y110834D01*
X94373Y112167D01*
X94873Y113334D01*
X95623Y114334D01*
X96498Y115000D01*
X97498Y115167D01*
X98498Y115000D01*
X99373Y114334D01*
X100123Y113334D01*
X100623Y112167D01*
X100873Y110834D01*
Y109500D01*
X100623Y108167D01*
X100123Y107000D01*
X99373Y106000D01*
X98498Y105334D01*
X97498Y105167D01*
G01X107498Y115167D02*
Y105167D01*
G01X104623Y115167D02*
X110373D01*
G01X117498D02*
Y105167D01*
G01X114623Y115167D02*
X120373D01*
G01X127498Y105167D02*
X126498Y105334D01*
X125623Y106000D01*
X124873Y107000D01*
X124373Y108167D01*
X124123Y109500D01*
Y110834D01*
X124373Y112167D01*
X124873Y113334D01*
X125623Y114334D01*
X126498Y115000D01*
X127498Y115167D01*
X128498Y115000D01*
X129373Y114334D01*
X130123Y113334D01*
X130623Y112167D01*
X130873Y110834D01*
Y109500D01*
X130623Y108167D01*
X130123Y107000D01*
X129373Y106000D01*
X128498Y105334D01*
X127498Y105167D01*
G01X134248D02*
Y115167D01*
X137498Y106834D01*
X140748Y115167D01*
Y105167D01*
G01X-17252Y134991D02*
Y144991D01*
X-14752D01*
X-13752Y144491D01*
X-13002Y143824D01*
X-12377Y142824D01*
X-11877Y141657D01*
X-11752Y139991D01*
X-11877Y138324D01*
X-12377Y137158D01*
X-13002Y136157D01*
X-13752Y135491D01*
X-14752Y134991D01*
X-17252D01*
G01X-7627D02*
X-4502Y144991D01*
X-1377Y134991D01*
G01X-2502Y138491D02*
X-6502D01*
G01X5498Y144991D02*
Y134991D01*
G01X2623Y144991D02*
X8373D01*
G01X17998Y134991D02*
X12998D01*
Y144991D01*
X17998D01*
G01X15998Y140158D02*
X12998D01*
G01X25498Y134658D02*
X25248Y134824D01*
Y135158D01*
X25498Y135324D01*
X25748Y135158D01*
Y134824D01*
X25498Y134658D01*
G01Y139157D02*
X25248Y139324D01*
Y139658D01*
X25498Y139824D01*
X25748Y139658D01*
Y139324D01*
X25498Y139157D01*
G01X45498Y144991D02*
X44498Y144658D01*
X43748Y143824D01*
X43248Y142824D01*
X42873Y141491D01*
X42748Y139991D01*
X42873Y138491D01*
X43248Y137158D01*
X43748Y136157D01*
X44498Y135324D01*
X45498Y134991D01*
X46498Y135324D01*
X47248Y136157D01*
X47748Y137158D01*
X48123Y138491D01*
X48248Y139991D01*
X48123Y141491D01*
X47748Y142824D01*
X47248Y143824D01*
X46498Y144658D01*
X45498Y144991D01*
G01X52748Y136991D02*
X53498Y135824D01*
X54498Y135158D01*
X55623Y134991D01*
X56623Y135158D01*
X57623Y135991D01*
X58248Y136991D01*
X58373Y137991D01*
X58123Y139157D01*
X57248Y139991D01*
X56373Y140324D01*
X55248D01*
G01X56373D02*
X57123Y140824D01*
X57748Y141657D01*
X57998Y142658D01*
X57748Y143658D01*
X57123Y144491D01*
X55998Y144991D01*
X54873Y144824D01*
X53748Y144158D01*
G01X63248Y134658D02*
X67748Y144991D01*
G01X75498D02*
X74498Y144658D01*
X73748Y143824D01*
X73248Y142824D01*
X72873Y141491D01*
X72748Y139991D01*
X72873Y138491D01*
X73248Y137158D01*
X73748Y136157D01*
X74498Y135324D01*
X75498Y134991D01*
X76498Y135324D01*
X77248Y136157D01*
X77748Y137158D01*
X78123Y138491D01*
X78248Y139991D01*
X78123Y141491D01*
X77748Y142824D01*
X77248Y143824D01*
X76498Y144658D01*
X75498Y144991D01*
G01X85498Y134991D02*
X86373Y135158D01*
X87373Y135658D01*
X87998Y136491D01*
X88248Y137658D01*
X87998Y138824D01*
X87248Y139824D01*
X86123Y140324D01*
X84873D01*
X84123Y140658D01*
X83498Y141491D01*
X83248Y142658D01*
X83623Y143824D01*
X84498Y144658D01*
X85498Y144991D01*
X86498Y144658D01*
X87373Y143824D01*
X87748Y142658D01*
X87498Y141491D01*
X86873Y140658D01*
X86123Y140324D01*
X84873D01*
X83748Y139824D01*
X82998Y138824D01*
X82748Y137658D01*
X82998Y136491D01*
X83623Y135658D01*
X84623Y135158D01*
X85498Y134991D01*
G01X93248Y134658D02*
X97748Y144991D01*
G01X103123Y143324D02*
X103873Y144324D01*
X104748Y144824D01*
X105748Y144991D01*
X106998Y144658D01*
X107873Y143824D01*
X108123Y142824D01*
X107998Y141824D01*
X107498Y140991D01*
X104998Y139324D01*
X103873Y138158D01*
X103123Y136491D01*
X102873Y134991D01*
X108123D01*
G01X115498Y144991D02*
X114498Y144658D01*
X113748Y143824D01*
X113248Y142824D01*
X112873Y141491D01*
X112748Y139991D01*
X112873Y138491D01*
X113248Y137158D01*
X113748Y136157D01*
X114498Y135324D01*
X115498Y134991D01*
X116498Y135324D01*
X117248Y136157D01*
X117748Y137158D01*
X118123Y138491D01*
X118248Y139991D01*
X118123Y141491D01*
X117748Y142824D01*
X117248Y143824D01*
X116498Y144658D01*
X115498Y144991D01*
G01X125498Y134991D02*
Y144991D01*
X123998Y142991D01*
G01Y134991D02*
X126998D01*
G01X132748Y136491D02*
X133498Y135658D01*
X134373Y135158D01*
X135498Y134991D01*
X136623Y135324D01*
X137498Y135991D01*
X138123Y137158D01*
X138248Y138491D01*
X137998Y139824D01*
X137373Y140658D01*
X136498Y141324D01*
X135623Y141491D01*
X134748Y141324D01*
X133623Y140658D01*
X133998Y144991D01*
X137373D01*
G01X-11152Y164858D02*
X-11902Y165358D01*
X-12777Y165691D01*
X-13777D01*
X-14902Y165191D01*
X-15777Y164358D01*
X-16402Y163358D01*
X-16902Y161691D01*
X-17027Y160191D01*
X-16777Y158691D01*
X-16402Y157691D01*
X-15652Y156691D01*
X-14777Y156024D01*
X-13902Y155691D01*
X-13027D01*
X-12152Y156024D01*
X-11402Y156524D01*
X-10777Y157191D01*
G01X-6652Y165691D02*
Y158524D01*
X-6152Y157024D01*
X-5152Y156024D01*
X-3902Y155691D01*
X-2652Y156024D01*
X-1652Y157024D01*
X-1152Y158524D01*
Y165691D01*
G01X3598Y155691D02*
Y165691D01*
X6723D01*
X7723Y165191D01*
X8348Y164524D01*
X8598Y163191D01*
X8348Y161858D01*
X7598Y161024D01*
X6723Y160524D01*
X3598D01*
G01X6723D02*
X8598Y155691D01*
G01X13598D02*
Y165691D01*
X16723D01*
X17723Y165191D01*
X18348Y164524D01*
X18598Y163191D01*
X18348Y161858D01*
X17598Y161024D01*
X16723Y160524D01*
X13598D01*
G01X16723D02*
X18598Y155691D01*
G01X28598D02*
X23598D01*
Y165691D01*
X28598D01*
G01X26598Y160858D02*
X23598D01*
G01X33223Y155691D02*
Y165691D01*
X38973Y155691D01*
Y165691D01*
G01X46098D02*
Y155691D01*
G01X43223Y165691D02*
X48973D01*
G01X63473Y157024D02*
X64473Y156191D01*
X65598Y155691D01*
X66598D01*
X67598Y156191D01*
X68348Y157024D01*
X68723Y158191D01*
X68473Y159357D01*
X67848Y160358D01*
X66723Y161024D01*
X65223Y161358D01*
X64348Y162024D01*
X63973Y163191D01*
X64223Y164358D01*
X64848Y165191D01*
X65723Y165691D01*
X66598D01*
X67473Y165358D01*
X68223Y164524D01*
G01X78598Y155691D02*
X73598D01*
Y165691D01*
X78598D01*
G01X76598Y160858D02*
X73598D01*
G01X83223Y155691D02*
Y165691D01*
X88973Y155691D01*
Y165691D01*
G01X93473Y157024D02*
X94473Y156191D01*
X95598Y155691D01*
X96598D01*
X97598Y156191D01*
X98348Y157024D01*
X98723Y158191D01*
X98473Y159357D01*
X97848Y160358D01*
X96723Y161024D01*
X95223Y161358D01*
X94348Y162024D01*
X93973Y163191D01*
X94223Y164358D01*
X94848Y165191D01*
X95723Y165691D01*
X96598D01*
X97473Y165358D01*
X98223Y164524D01*
G01X108598Y155691D02*
X103598D01*
Y165691D01*
X108598D01*
G01X106598Y160858D02*
X103598D01*
G01X127098Y161024D02*
X127598Y161524D01*
X127973Y162357D01*
X128223Y163524D01*
X127973Y164524D01*
X127473Y165191D01*
X126598Y165691D01*
X123223D01*
Y155691D01*
X127348D01*
X128223Y156358D01*
X128723Y157358D01*
X128973Y158524D01*
X128723Y159691D01*
X127973Y160691D01*
X127098Y161024D01*
X123223D01*
G01X136098Y155691D02*
X135098Y155858D01*
X134223Y156524D01*
X133473Y157524D01*
X132973Y158691D01*
X132723Y160024D01*
Y161358D01*
X132973Y162691D01*
X133473Y163858D01*
X134223Y164858D01*
X135098Y165524D01*
X136098Y165691D01*
X137098Y165524D01*
X137973Y164858D01*
X138723Y163858D01*
X139223Y162691D01*
X139473Y161358D01*
Y160024D01*
X139223Y158691D01*
X138723Y157524D01*
X137973Y156524D01*
X137098Y155858D01*
X136098Y155691D01*
G01X142973D02*
X146098Y165691D01*
X149223Y155691D01*
G01X148098Y159191D02*
X144098D01*
G01X153598Y155691D02*
Y165691D01*
X156723D01*
X157723Y165191D01*
X158348Y164524D01*
X158598Y163191D01*
X158348Y161858D01*
X157598Y161024D01*
X156723Y160524D01*
X153598D01*
G01X156723D02*
X158598Y155691D01*
G01X163348D02*
Y165691D01*
X165848D01*
X166848Y165191D01*
X167598Y164524D01*
X168223Y163524D01*
X168723Y162357D01*
X168848Y160691D01*
X168723Y159024D01*
X168223Y157858D01*
X167598Y156857D01*
X166848Y156191D01*
X165848Y155691D01*
X163348D01*
G54D16*
X40167Y68783D03*
Y54217D03*
X48829Y68783D03*
Y54217D03*
G54D17*
X24675Y54803D03*
G54D18*
X21919Y52047D03*
G54D19*
X12077D03*
M02*
