  0
SECTION
  2
HEADER
  9
$ACADVER
  1
AC1009
  9
$INSBASE
 10
0.000000
 20
0.000000
  9
$LIMMIN
 10
-582.422000
 20
-523.290800
  9
$LIMMAX
 10
1404.917942
 20
2822.651708
  9
$EXTMIN
 10
-582.422000
 20
-523.290800
  9
$EXTMAX
 10
1404.917942
 20
2822.651708
  9
$ATTMODE
 70
0
  9
$LUNITS
 70
2
  9
$LUPREC
 70
2
  9
$THICKNESS
 40
0.711200
  0
ENDSEC
  0
SECTION
  2
TABLES
  0
TABLE
  2
LTYPE
 70
1
  0
LTYPE
  3
Solid Line
  2
CONTINUOUS
 70
0
 72
65
 73
0
 40
0.000000
  0
ENDTAB
  0
TABLE
  2
LAYER
 70
7
  0
LAYER
  2
BG_ASSEMBLY_DETAIL
 70
0
 62
1
  6
CONTINUOUS
  0
LAYER
  2
BG_OUTLINE
 70
0
 62
2
  6
CONTINUOUS
  0
LAYER
  2
DF_FILM_LABEL_OUTLINE
 70
0
 62
3
  6
CONTINUOUS
  0
LAYER
  2
DF_ASS_BTM
 70
0
 62
4
  6
CONTINUOUS
  0
LAYER
  2
PG_ASSEMBLY_BOTTOM
 70
0
 62
5
  6
CONTINUOUS
  0
LAYER
  2
PIN_BOTTOM
 70
0
 62
6
  6
CONTINUOUS
  0
LAYER
  2
RD_ASSEMBLY_BOTTOM
 70
0
 62
7
  6
CONTINUOUS
  0
ENDTAB
  0
TABLE
  2
STYLE
 70
1
  0
STYLE
  2
STANDARD
 70
0
 40
0.000000
 41
1.000000
 50
0.000000
 71
0
 42
0.200000
  3
txt
  0
ENDTAB
  0
ENDSEC
  0
SECTION
  2
BLOCKS
  0
BLOCK
  8
0
  2
FIGURE_CIRCLE
 70
0
 10
0.000000
 20
0.000000
  0
CIRCLE
  8
0
 10
0.000000
 20
0.000000
 40
0.500000
  0
ENDBLK
  0
BLOCK
  8
0
  2
FIGURE_SQUARE
 70
0
 10
0.000000
 20
0.000000
  0
POLYLINE
  8
0
 66
1
 70
1
 40
0.000000
 41
0.000000
 39
0.000000
  0
VERTEX
  8
0
 10
-0.500000
 20
-0.500000
 40
0.000000
 41
0.000000
 42
0.000000
  0
VERTEX
  8
0
 10
-0.500000
 20
0.500000
 40
0.000000
 41
0.000000
 42
0.000000
  0
VERTEX
  8
0
 10
0.500000
 20
0.500000
 40
0.000000
 41
0.000000
 42
0.000000
  0
VERTEX
  8
0
 10
0.500000
 20
-0.500000
 40
0.000000
 41
0.000000
 42
0.000000
  0
SEQEND
  0
ENDBLK
  0
BLOCK
  8
0
  2
FIGURE_HEX
 70
0
 10
0.000000
 20
0.000000
  0
POLYLINE
  8
0
 66
1
 70
1
 40
0.000000
 41
0.000000
 39
0.000000
  0
VERTEX
  8
0
 10
-0.500000
 20
0.000000
 40
0.000000
 41
0.000000
 42
0.000000
  0
VERTEX
  8
0
 10
-0.250000
 20
0.500000
 40
0.000000
 41
0.000000
 42
0.000000
  0
VERTEX
  8
0
 10
0.250000
 20
0.500000
 40
0.000000
 41
0.000000
 42
0.000000
  0
VERTEX
  8
0
 10
0.500000
 20
0.000000
 40
0.000000
 41
0.000000
 42
0.000000
  0
VERTEX
  8
0
 10
0.250000
 20
-0.500000
 40
0.000000
 41
0.000000
 42
0.000000
  0
VERTEX
  8
0
 10
-0.250000
 20
-0.500000
 40
0.000000
 41
0.000000
 42
0.000000
  0
SEQEND
  0
ENDBLK
  0
BLOCK
  8
0
  2
FIGURE_OCT
 70
0
 10
0.000000
 20
0.000000
  0
POLYLINE
  8
0
 66
1
 70
1
 40
0.000000
 41
0.000000
 39
0.000000
  0
VERTEX
  8
0
 10
-0.500000
 20
-0.207100
 40
0.000000
 41
0.000000
 42
0.000000
  0
VERTEX
  8
0
 10
-0.500000
 20
0.207100
 40
0.000000
 41
0.000000
 42
0.000000
  0
VERTEX
  8
0
 10
-0.207100
 20
0.500000
 40
0.000000
 41
0.000000
 42
0.000000
  0
VERTEX
  8
0
 10
0.207100
 20
0.500000
 40
0.000000
 41
0.000000
 42
0.000000
  0
VERTEX
  8
0
 10
0.500000
 20
0.207100
 40
0.000000
 41
0.000000
 42
0.000000
  0
VERTEX
  8
0
 10
0.500000
 20
-0.207100
 40
0.000000
 41
0.000000
 42
0.000000
  0
VERTEX
  8
0
 10
0.207100
 20
-0.500000
 40
0.000000
 41
0.000000
 42
0.000000
  0
VERTEX
  8
0
 10
-0.207100
 20
-0.500000
 40
0.000000
 41
0.000000
 42
0.000000
  0
SEQEND
  0
ENDBLK
  0
BLOCK
  8
0
  2
FIGURE_OBLONG
 70
0
 10
0.000000
 20
0.000000
  0
POLYLINE
  8
0
 66
1
 70
1
 40
0.000000
 41
0.000000
 39
0.000000
  0
VERTEX
  8
0
 10
-0.500000
 20
-0.125000
 40
0.000000
 41
0.000000
 42
0.000000
  0
VERTEX
  8
0
 10
-0.500000
 20
0.125000
 40
0.000000
 41
0.000000
 42
0.000000
  0
VERTEX
  8
0
 10
-0.416000
 20
0.375000
 40
0.000000
 41
0.000000
 42
0.000000
  0
VERTEX
  8
0
 10
-0.250000
 20
0.500000
 40
0.000000
 41
0.000000
 42
0.000000
  0
VERTEX
  8
0
 10
0.250000
 20
0.500000
 40
0.000000
 41
0.000000
 42
0.000000
  0
VERTEX
  8
0
 10
0.416000
 20
0.375000
 40
0.000000
 41
0.000000
 42
0.000000
  0
VERTEX
  8
0
 10
0.500000
 20
0.125000
 40
0.000000
 41
0.000000
 42
0.000000
  0
VERTEX
  8
0
 10
0.500000
 20
-0.125000
 40
0.000000
 41
0.000000
 42
0.000000
  0
VERTEX
  8
0
 10
0.416000
 20
-0.375000
 40
0.000000
 41
0.000000
 42
0.000000
  0
VERTEX
  8
0
 10
0.250000
 20
-0.500000
 40
0.000000
 41
0.000000
 42
0.000000
  0
VERTEX
  8
0
 10
-0.250000
 20
-0.500000
 40
0.000000
 41
0.000000
 42
0.000000
  0
VERTEX
  8
0
 10
-0.416000
 20
-0.375000
 40
0.000000
 41
0.000000
 42
0.000000
  0
SEQEND
  0
ENDBLK
  0
BLOCK
  8
0
  2
FIGURE_TRI
 70
0
 10
0.000000
 20
0.000000
  0
POLYLINE
  8
0
 66
1
 70
1
 40
0.000000
 41
0.000000
 39
0.000000
  0
VERTEX
  8
0
 10
-0.500000
 20
-0.500000
 40
0.000000
 41
0.000000
 42
0.000000
  0
VERTEX
  8
0
 10
0.000000
 20
0.500000
 40
0.000000
 41
0.000000
 42
0.000000
  0
VERTEX
  8
0
 10
0.500000
 20
-0.500000
 40
0.000000
 41
0.000000
 42
0.000000
  0
SEQEND
  0
ENDBLK
  0
BLOCK
  8
0
  2
FIGURE_CROSS
 70
0
 10
0.000000
 20
0.000000
  0
POLYLINE
  8
0
 66
1
 70
0
 40
0.000000
 41
0.000000
 39
0.000000
  0
VERTEX
  8
0
 10
-0.500000
 20
0.000000
 40
0.000000
 41
0.000000
 42
0.000000
  0
VERTEX
  8
0
 10
0.500000
 20
0.000000
 40
0.000000
 41
0.000000
 42
0.000000
  0
SEQEND
  0
POLYLINE
  8
0
 66
1
 70
0
 40
0.000000
 41
0.000000
 39
0.000000
  0
VERTEX
  8
0
 10
0.000000
 20
0.500000
 40
0.000000
 41
0.000000
 42
0.000000
  0
VERTEX
  8
0
 10
0.000000
 20
-0.500000
 40
0.000000
 41
0.000000
 42
0.000000
  0
SEQEND
  0
ENDBLK
  0
BLOCK
  8
0
  2
FIGURE_DIAMOND
 70
0
 10
0.000000
 20
0.000000
  0
POLYLINE
  8
0
 66
1
 70
1
 40
0.000000
 41
0.000000
 39
0.000000
  0
VERTEX
  8
0
 10
-0.500000
 20
0.000000
 40
0.000000
 41
0.000000
 42
0.000000
  0
VERTEX
  8
0
 10
0.000000
 20
0.500000
 40
0.000000
 41
0.000000
 42
0.000000
  0
VERTEX
  8
0
 10
0.500000
 20
0.000000
 40
0.000000
 41
0.000000
 42
0.000000
  0
VERTEX
  8
0
 10
0.000000
 20
-0.500000
 40
0.000000
 41
0.000000
 42
0.000000
  0
SEQEND
  0
ENDBLK
  0
ENDSEC
  0
SECTION
  2
ENTITIES
  0
POLYLINE
  8
PIN_BOTTOM
 66
1
 70
1
 40
0.000000
 41
0.000000
 39
0.000000
  0
VERTEX
  8
PIN_BOTTOM
 10
23.359999
 20
1.804924
 40
0.000000
 41
0.000000
 42
0.000000
  0
VERTEX
  8
PIN_BOTTOM
 10
28.710001
 20
1.804924
 40
0.000000
 41
0.000000
 42
0.000000
  0
VERTEX
  8
PIN_BOTTOM
 10
28.710001
 20
2.955036
 40
0.000000
 41
0.000000
 42
0.000000
  0
VERTEX
  8
PIN_BOTTOM
 10
23.359999
 20
2.955036
 40
0.000000
 41
0.000000
 42
0.000000
  0
SEQEND
  0
POLYLINE
  8
PIN_BOTTOM
 66
1
 70
1
 40
0.000000
 41
0.000000
 39
0.000000
  0
VERTEX
  8
PIN_BOTTOM
 10
23.359999
 20
7.204964
 40
0.000000
 41
0.000000
 42
0.000000
  0
VERTEX
  8
PIN_BOTTOM
 10
28.710001
 20
7.204964
 40
0.000000
 41
0.000000
 42
0.000000
  0
VERTEX
  8
PIN_BOTTOM
 10
28.710001
 20
8.355076
 40
0.000000
 41
0.000000
 42
0.000000
  0
VERTEX
  8
PIN_BOTTOM
 10
23.359999
 20
8.355076
 40
0.000000
 41
0.000000
 42
0.000000
  0
SEQEND
  0
POLYLINE
  8
PG_ASSEMBLY_BOTTOM
 66
1
 70
1
 40
0.000000
 41
0.000000
 39
0.000000
  0
VERTEX
  8
PG_ASSEMBLY_BOTTOM
 10
23.135082
 20
1.579880
 40
0.025400
 41
0.025400
 42
0.000000
  0
VERTEX
  8
PG_ASSEMBLY_BOTTOM
 10
23.135082
 20
8.580120
 40
0.025400
 41
0.025400
 42
0.000000
  0
VERTEX
  8
PG_ASSEMBLY_BOTTOM
 10
28.934918
 20
8.580120
 40
0.025400
 41
0.025400
 42
0.000000
  0
VERTEX
  8
PG_ASSEMBLY_BOTTOM
 10
28.934918
 20
1.579880
 40
0.025400
 41
0.025400
 42
0.000000
  0
SEQEND
  0
TEXT
  8
RD_ASSEMBLY_BOTTOM
 10
25.950333
 20
4.741418
 11
26.162000
 21
4.741418
 40
0.635000
 41
0.880000
 50
0.000000
  7
STANDARD
 71
2
 72
1
  1
C9
 73
0
  0
POLYLINE
  8
PIN_BOTTOM
 66
1
 70
1
 40
0.000000
 41
0.000000
 39
0.000000
  0
VERTEX
  8
PIN_BOTTOM
 10
17.104106
 20
-17.054068
 40
0.000000
 41
0.000000
 42
0.000000
  0
VERTEX
  8
PIN_BOTTOM
 10
17.104106
 20
-18.616168
 40
0.000000
 41
0.000000
 42
0.000000
  0
VERTEX
  8
PIN_BOTTOM
 10
15.542006
 20
-18.616168
 40
0.000000
 41
0.000000
 42
0.000000
  0
VERTEX
  8
PIN_BOTTOM
 10
15.542006
 20
-17.054068
 40
0.000000
 41
0.000000
 42
0.000000
  0
SEQEND
  0
CIRCLE
  8
PIN_BOTTOM
 10
7.679944
 20
-17.835118
 40
0.781050
  0
POLYLINE
  8
PIN_BOTTOM
 66
1
 70
1
 40
0.000000
 41
0.000000
 39
0.000000
  0
VERTEX
  8
PIN_BOTTOM
 10
32.004000
 20
21.336000
 40
0.000000
 41
0.000000
 42
0.000000
  0
VERTEX
  8
PIN_BOTTOM
 10
30.734000
 20
21.336000
 40
0.000000
 41
0.000000
 42
0.000000
  0
VERTEX
  8
PIN_BOTTOM
 10
30.734000
 20
20.320000
 40
0.000000
 41
0.000000
 42
0.000000
  0
VERTEX
  8
PIN_BOTTOM
 10
32.004000
 20
20.320000
 40
0.000000
 41
0.000000
 42
0.000000
  0
SEQEND
  0
POLYLINE
  8
PIN_BOTTOM
 66
1
 70
1
 40
0.000000
 41
0.000000
 39
0.000000
  0
VERTEX
  8
PIN_BOTTOM
 10
32.004000
 20
19.304000
 40
0.000000
 41
0.000000
 42
0.000000
  0
VERTEX
  8
PIN_BOTTOM
 10
30.734000
 20
19.304000
 40
0.000000
 41
0.000000
 42
0.000000
  0
VERTEX
  8
PIN_BOTTOM
 10
30.734000
 20
18.288000
 40
0.000000
 41
0.000000
 42
0.000000
  0
VERTEX
  8
PIN_BOTTOM
 10
32.004000
 20
18.288000
 40
0.000000
 41
0.000000
 42
0.000000
  0
SEQEND
  0
POLYLINE
  8
PG_ASSEMBLY_BOTTOM
 66
1
 70
1
 40
0.000000
 41
0.000000
 39
0.000000
  0
VERTEX
  8
PG_ASSEMBLY_BOTTOM
 10
32.070040
 20
20.911820
 40
0.000000
 41
0.000000
 42
0.000000
  0
VERTEX
  8
PG_ASSEMBLY_BOTTOM
 10
32.070040
 20
18.712180
 40
0.000000
 41
0.000000
 42
0.000000
  0
VERTEX
  8
PG_ASSEMBLY_BOTTOM
 10
30.667960
 20
18.712180
 40
0.000000
 41
0.000000
 42
0.000000
  0
VERTEX
  8
PG_ASSEMBLY_BOTTOM
 10
30.667960
 20
20.911820
 40
0.000000
 41
0.000000
 42
0.000000
  0
SEQEND
  0
TEXT
  8
RD_ASSEMBLY_BOTTOM
 10
31.157333
 20
17.314418
 11
31.369000
 21
17.314418
 40
0.635000
 41
0.880000
 50
0.000000
  7
STANDARD
 71
2
 72
1
  1
R26
 73
0
  0
POLYLINE
  8
PIN_BOTTOM
 66
1
 70
1
 40
0.000000
 41
0.000000
 39
0.000000
  0
VERTEX
  8
PIN_BOTTOM
 10
24.073866
 20
13.627100
 40
0.000000
 41
0.000000
 42
0.000000
  0
VERTEX
  8
PIN_BOTTOM
 10
24.073866
 20
11.925300
 40
0.000000
 41
0.000000
 42
0.000000
  0
VERTEX
  8
PIN_BOTTOM
 10
25.343866
 20
11.925300
 40
0.000000
 41
0.000000
 42
0.000000
  0
VERTEX
  8
PIN_BOTTOM
 10
25.343866
 20
13.627100
 40
0.000000
 41
0.000000
 42
0.000000
  0
SEQEND
  0
POLYLINE
  8
PIN_BOTTOM
 66
1
 70
1
 40
0.000000
 41
0.000000
 39
0.000000
  0
VERTEX
  8
PIN_BOTTOM
 10
27.121866
 20
13.627100
 40
0.000000
 41
0.000000
 42
0.000000
  0
VERTEX
  8
PIN_BOTTOM
 10
27.121866
 20
11.925300
 40
0.000000
 41
0.000000
 42
0.000000
  0
VERTEX
  8
PIN_BOTTOM
 10
28.391866
 20
11.925300
 40
0.000000
 41
0.000000
 42
0.000000
  0
VERTEX
  8
PIN_BOTTOM
 10
28.391866
 20
13.627100
 40
0.000000
 41
0.000000
 42
0.000000
  0
SEQEND
  0
POLYLINE
  8
PG_ASSEMBLY_BOTTOM
 66
1
 70
1
 40
0.000000
 41
0.000000
 39
0.000000
  0
VERTEX
  8
PG_ASSEMBLY_BOTTOM
 10
23.769066
 20
13.944600
 40
0.000000
 41
0.000000
 42
0.000000
  0
VERTEX
  8
PG_ASSEMBLY_BOTTOM
 10
23.769066
 20
11.607800
 40
0.000000
 41
0.000000
 42
0.000000
  0
VERTEX
  8
PG_ASSEMBLY_BOTTOM
 10
28.696666
 20
11.607800
 40
0.000000
 41
0.000000
 42
0.000000
  0
VERTEX
  8
PG_ASSEMBLY_BOTTOM
 10
28.696666
 20
13.944600
 40
0.000000
 41
0.000000
 42
0.000000
  0
SEQEND
  0
TEXT
  8
RD_ASSEMBLY_BOTTOM
 10
25.748403
 20
12.827000
 11
25.960070
 21
12.827000
 40
0.635000
 41
0.880000
 50
270.000000
  7
STANDARD
 71
2
 72
1
  1
R27
 73
0
  0
POLYLINE
  8
PIN_BOTTOM
 66
1
 70
1
 40
0.000000
 41
0.000000
 39
0.000000
  0
VERTEX
  8
PIN_BOTTOM
 10
1.245870
 20
-12.891008
 40
0.000000
 41
0.000000
 42
0.000000
  0
VERTEX
  8
PIN_BOTTOM
 10
4.045966
 20
-12.891008
 40
0.000000
 41
0.000000
 42
0.000000
  0
VERTEX
  8
PIN_BOTTOM
 10
4.045966
 20
-8.190992
 40
0.000000
 41
0.000000
 42
0.000000
  0
VERTEX
  8
PIN_BOTTOM
 10
1.245870
 20
-8.190992
 40
0.000000
 41
0.000000
 42
0.000000
  0
SEQEND
  0
POLYLINE
  8
PIN_BOTTOM
 66
1
 70
1
 40
0.000000
 41
0.000000
 39
0.000000
  0
VERTEX
  8
PIN_BOTTOM
 10
-4.553966
 20
-12.891008
 40
0.000000
 41
0.000000
 42
0.000000
  0
VERTEX
  8
PIN_BOTTOM
 10
-1.753870
 20
-12.891008
 40
0.000000
 41
0.000000
 42
0.000000
  0
VERTEX
  8
PIN_BOTTOM
 10
-1.753870
 20
-8.190992
 40
0.000000
 41
0.000000
 42
0.000000
  0
VERTEX
  8
PIN_BOTTOM
 10
-4.553966
 20
-8.190992
 40
0.000000
 41
0.000000
 42
0.000000
  0
SEQEND
  0
POLYLINE
  8
PG_ASSEMBLY_BOTTOM
 66
1
 70
1
 40
0.000000
 41
0.000000
 39
0.000000
  0
VERTEX
  8
PG_ASSEMBLY_BOTTOM
 10
3.422904
 20
-12.768072
 40
0.203200
 41
0.203200
 42
0.000000
  0
VERTEX
  8
PG_ASSEMBLY_BOTTOM
 10
-3.930904
 20
-12.768072
 40
0.203200
 41
0.203200
 42
0.000000
  0
VERTEX
  8
PG_ASSEMBLY_BOTTOM
 10
-3.930904
 20
-8.313928
 40
0.203200
 41
0.203200
 42
0.000000
  0
VERTEX
  8
PG_ASSEMBLY_BOTTOM
 10
3.422904
 20
-8.313928
 40
0.203200
 41
0.203200
 42
0.000000
  0
SEQEND
  0
TEXT
  8
RD_ASSEMBLY_BOTTOM
 10
0.381000
 20
-10.752836
 11
0.000000
 21
0.000000
 40
0.635000
 41
0.880000
 50
0.000000
  7
STANDARD
 71
2
 72
0
  1
R41
 73
0
  0
POLYLINE
  8
PIN_BOTTOM
 66
1
 70
1
 40
0.000000
 41
0.000000
 39
0.000000
  0
VERTEX
  8
PIN_BOTTOM
 10
22.950424
 20
-0.979424
 40
0.000000
 41
0.000000
 42
0.000000
  0
VERTEX
  8
PIN_BOTTOM
 10
21.588476
 20
-0.979424
 40
0.000000
 41
0.000000
 42
0.000000
  0
VERTEX
  8
PIN_BOTTOM
 10
21.588476
 20
0.382524
 40
0.000000
 41
0.000000
 42
0.000000
  0
VERTEX
  8
PIN_BOTTOM
 10
22.950424
 20
0.382524
 40
0.000000
 41
0.000000
 42
0.000000
  0
SEQEND
  0
CIRCLE
  8
PIN_BOTTOM
 10
24.809450
 20
-0.298450
 40
0.680974
  0
CIRCLE
  8
PIN_BOTTOM
 10
27.349450
 20
-0.298450
 40
0.680974
  0
CIRCLE
  8
PIN_BOTTOM
 10
29.889450
 20
-0.298450
 40
0.680974
  0
CIRCLE
  8
PIN_BOTTOM
 10
29.889450
 20
10.204450
 40
0.680974
  0
CIRCLE
  8
PIN_BOTTOM
 10
27.349450
 20
10.204450
 40
0.680974
  0
CIRCLE
  8
PIN_BOTTOM
 10
24.809450
 20
10.204450
 40
0.680974
  0
CIRCLE
  8
PIN_BOTTOM
 10
22.269450
 20
10.204450
 40
0.680974
  0
POLYLINE
  8
PIN_BOTTOM
 66
1
 70
1
 40
0.000000
 41
0.000000
 39
0.000000
  0
VERTEX
  8
PIN_BOTTOM
 10
4.807966
 20
12.781026
 40
0.000000
 41
0.000000
 42
0.000000
  0
VERTEX
  8
PIN_BOTTOM
 10
4.807966
 20
14.142974
 40
0.000000
 41
0.000000
 42
0.000000
  0
VERTEX
  8
PIN_BOTTOM
 10
6.169914
 20
14.142974
 40
0.000000
 41
0.000000
 42
0.000000
  0
VERTEX
  8
PIN_BOTTOM
 10
6.169914
 20
12.781026
 40
0.000000
 41
0.000000
 42
0.000000
  0
SEQEND
  0
CIRCLE
  8
PIN_BOTTOM
 10
8.989060
 20
13.462000
 40
0.680974
  0
POLYLINE
  8
PIN_BOTTOM
 66
1
 70
1
 40
0.000000
 41
0.000000
 39
0.000000
  0
VERTEX
  8
PIN_BOTTOM
 10
24.719026
 20
-4.566158
 40
0.000000
 41
0.000000
 42
0.000000
  0
VERTEX
  8
PIN_BOTTOM
 10
26.080974
 20
-4.566158
 40
0.000000
 41
0.000000
 42
0.000000
  0
VERTEX
  8
PIN_BOTTOM
 10
26.080974
 20
-5.928106
 40
0.000000
 41
0.000000
 42
0.000000
  0
VERTEX
  8
PIN_BOTTOM
 10
24.719026
 20
-5.928106
 40
0.000000
 41
0.000000
 42
0.000000
  0
SEQEND
  0
CIRCLE
  8
PIN_BOTTOM
 10
25.400000
 20
-10.247122
 40
0.680974
  0
POLYLINE
  8
PIN_BOTTOM
 66
1
 70
1
 40
0.000000
 41
0.000000
 39
0.000000
  0
VERTEX
  8
PIN_BOTTOM
 10
-2.331974
 20
1.148842
 40
0.000000
 41
0.000000
 42
0.000000
  0
VERTEX
  8
PIN_BOTTOM
 10
-0.970026
 20
1.148842
 40
0.000000
 41
0.000000
 42
0.000000
  0
VERTEX
  8
PIN_BOTTOM
 10
-0.970026
 20
-0.213106
 40
0.000000
 41
0.000000
 42
0.000000
  0
VERTEX
  8
PIN_BOTTOM
 10
-2.331974
 20
-0.213106
 40
0.000000
 41
0.000000
 42
0.000000
  0
SEQEND
  0
CIRCLE
  8
PIN_BOTTOM
 10
-1.651000
 20
-4.532122
 40
0.680974
  0
POLYLINE
  8
PIN_BOTTOM
 66
1
 70
1
 40
0.000000
 41
0.000000
 39
0.000000
  0
VERTEX
  8
PIN_BOTTOM
 10
23.092156
 20
-34.383218
 40
0.000000
 41
0.000000
 42
0.000000
  0
VERTEX
  8
PIN_BOTTOM
 10
23.092156
 20
-33.133284
 40
0.000000
 41
0.000000
 42
0.000000
  0
VERTEX
  8
PIN_BOTTOM
 10
20.342098
 20
-33.133284
 40
0.000000
 41
0.000000
 42
0.000000
  0
VERTEX
  8
PIN_BOTTOM
 10
20.342098
 20
-34.383218
 40
0.000000
 41
0.000000
 42
0.000000
  0
SEQEND
  0
POLYLINE
  8
PIN_BOTTOM
 66
1
 70
1
 40
0.000000
 41
0.000000
 39
0.000000
  0
VERTEX
  8
PIN_BOTTOM
 10
23.092156
 20
-31.382970
 40
0.000000
 41
0.000000
 42
0.000000
  0
VERTEX
  8
PIN_BOTTOM
 10
23.092156
 20
-30.133036
 40
0.000000
 41
0.000000
 42
0.000000
  0
VERTEX
  8
PIN_BOTTOM
 10
20.342098
 20
-30.133036
 40
0.000000
 41
0.000000
 42
0.000000
  0
VERTEX
  8
PIN_BOTTOM
 10
20.342098
 20
-31.382970
 40
0.000000
 41
0.000000
 42
0.000000
  0
SEQEND
  0
POLYLINE
  8
PG_ASSEMBLY_BOTTOM
 66
1
 70
1
 40
0.000000
 41
0.000000
 39
0.000000
  0
VERTEX
  8
PG_ASSEMBLY_BOTTOM
 10
22.966934
 20
-30.658054
 40
0.152400
 41
0.152400
 42
0.000000
  0
VERTEX
  8
PG_ASSEMBLY_BOTTOM
 10
22.966934
 20
-33.857946
 40
0.152400
 41
0.152400
 42
0.000000
  0
VERTEX
  8
PG_ASSEMBLY_BOTTOM
 10
20.467066
 20
-33.857946
 40
0.152400
 41
0.152400
 42
0.000000
  0
VERTEX
  8
PG_ASSEMBLY_BOTTOM
 10
20.467066
 20
-30.658054
 40
0.152400
 41
0.152400
 42
0.000000
  0
SEQEND
  0
TEXT
  8
RD_ASSEMBLY_BOTTOM
 10
22.479000
 20
-32.639000
 11
0.000000
 21
0.000000
 40
0.635000
 41
0.880000
 50
0.000000
  7
STANDARD
 71
2
 72
0
  1
R37
 73
0
  0
POLYLINE
  8
PIN_BOTTOM
 66
1
 70
1
 40
0.000000
 41
0.000000
 39
0.000000
  0
VERTEX
  8
PIN_BOTTOM
 10
30.061027
 20
15.246985
 40
0.000000
 41
0.000000
 42
0.000000
  0
VERTEX
  8
PIN_BOTTOM
 10
31.660973
 20
15.246985
 40
0.000000
 41
0.000000
 42
0.000000
  0
VERTEX
  8
PIN_BOTTOM
 10
31.660973
 20
16.146907
 40
0.000000
 41
0.000000
 42
0.000000
  0
VERTEX
  8
PIN_BOTTOM
 10
30.061027
 20
16.146907
 40
0.000000
 41
0.000000
 42
0.000000
  0
SEQEND
  0
POLYLINE
  8
PIN_BOTTOM
 66
1
 70
1
 40
0.000000
 41
0.000000
 39
0.000000
  0
VERTEX
  8
PIN_BOTTOM
 10
30.061027
 20
12.047093
 40
0.000000
 41
0.000000
 42
0.000000
  0
VERTEX
  8
PIN_BOTTOM
 10
31.660973
 20
12.047093
 40
0.000000
 41
0.000000
 42
0.000000
  0
VERTEX
  8
PIN_BOTTOM
 10
31.660973
 20
12.947015
 40
0.000000
 41
0.000000
 42
0.000000
  0
VERTEX
  8
PIN_BOTTOM
 10
30.061027
 20
12.947015
 40
0.000000
 41
0.000000
 42
0.000000
  0
SEQEND
  0
POLYLINE
  8
PG_ASSEMBLY_BOTTOM
 66
1
 70
1
 40
0.000000
 41
0.000000
 39
0.000000
  0
VERTEX
  8
PG_ASSEMBLY_BOTTOM
 10
29.736034
 20
11.821922
 40
0.000000
 41
0.000000
 42
0.000000
  0
VERTEX
  8
PG_ASSEMBLY_BOTTOM
 10
29.736034
 20
16.372078
 40
0.000000
 41
0.000000
 42
0.000000
  0
VERTEX
  8
PG_ASSEMBLY_BOTTOM
 10
31.985966
 20
16.372078
 40
0.000000
 41
0.000000
 42
0.000000
  0
VERTEX
  8
PG_ASSEMBLY_BOTTOM
 10
31.985966
 20
11.821922
 40
0.000000
 41
0.000000
 42
0.000000
  0
SEQEND
  0
TEXT
  8
RD_ASSEMBLY_BOTTOM
 10
31.595060
 20
13.791946
 11
0.000000
 21
0.000000
 40
0.635000
 41
0.880000
 50
0.000000
  7
STANDARD
 71
2
 72
0
  1
VR2
 73
0
  0
CIRCLE
  8
PIN_BOTTOM
 10
27.573986
 20
-36.138104
 40
0.889000
  0
POLYLINE
  8
PIN_BOTTOM
 66
1
 70
1
 40
0.000000
 41
0.000000
 39
0.000000
  0
VERTEX
  8
PIN_BOTTOM
 10
21.590000
 20
-37.027104
 40
0.000000
 41
0.000000
 42
0.000000
  0
VERTEX
  8
PIN_BOTTOM
 10
21.590000
 20
-35.249104
 40
0.000000
 41
0.000000
 42
0.000000
  0
VERTEX
  8
PIN_BOTTOM
 10
23.368000
 20
-35.249104
 40
0.000000
 41
0.000000
 42
0.000000
  0
VERTEX
  8
PIN_BOTTOM
 10
23.368000
 20
-37.027104
 40
0.000000
 41
0.000000
 42
0.000000
  0
SEQEND
  0
CIRCLE
  8
PIN_BOTTOM
 10
-4.618990
 20
-37.465000
 40
0.552450
  0
POLYLINE
  8
PIN_BOTTOM
 66
1
 70
1
 40
0.000000
 41
0.000000
 39
0.000000
  0
VERTEX
  8
PIN_BOTTOM
 10
5.933440
 20
-36.912550
 40
0.000000
 41
0.000000
 42
0.000000
  0
VERTEX
  8
PIN_BOTTOM
 10
5.933440
 20
-38.017450
 40
0.000000
 41
0.000000
 42
0.000000
  0
VERTEX
  8
PIN_BOTTOM
 10
4.828540
 20
-38.017450
 40
0.000000
 41
0.000000
 42
0.000000
  0
VERTEX
  8
PIN_BOTTOM
 10
4.828540
 20
-36.912550
 40
0.000000
 41
0.000000
 42
0.000000
  0
SEQEND
  0
POLYLINE
  8
PIN_BOTTOM
 66
1
 70
1
 40
0.000000
 41
0.000000
 39
0.000000
  0
VERTEX
  8
PIN_BOTTOM
 10
15.237968
 20
-16.966057
 40
0.000000
 41
0.000000
 42
0.000000
  0
VERTEX
  8
PIN_BOTTOM
 10
13.837920
 20
-16.966057
 40
0.000000
 41
0.000000
 42
0.000000
  0
VERTEX
  8
PIN_BOTTOM
 10
13.837920
 20
-19.466179
 40
0.000000
 41
0.000000
 42
0.000000
  0
VERTEX
  8
PIN_BOTTOM
 10
15.237968
 20
-19.466179
 40
0.000000
 41
0.000000
 42
0.000000
  0
SEQEND
  0
POLYLINE
  8
PIN_BOTTOM
 66
1
 70
1
 40
0.000000
 41
0.000000
 39
0.000000
  0
VERTEX
  8
PIN_BOTTOM
 10
8.638032
 20
-10.465943
 40
0.000000
 41
0.000000
 42
0.000000
  0
VERTEX
  8
PIN_BOTTOM
 10
10.038080
 20
-10.465943
 40
0.000000
 41
0.000000
 42
0.000000
  0
VERTEX
  8
PIN_BOTTOM
 10
10.038080
 20
-7.965821
 40
0.000000
 41
0.000000
 42
0.000000
  0
VERTEX
  8
PIN_BOTTOM
 10
8.638032
 20
-7.965821
 40
0.000000
 41
0.000000
 42
0.000000
  0
SEQEND
  0
POLYLINE
  8
PIN_BOTTOM
 66
1
 70
1
 40
0.000000
 41
0.000000
 39
0.000000
  0
VERTEX
  8
PIN_BOTTOM
 10
10.038080
 20
-16.966057
 40
0.000000
 41
0.000000
 42
0.000000
  0
VERTEX
  8
PIN_BOTTOM
 10
8.638032
 20
-16.966057
 40
0.000000
 41
0.000000
 42
0.000000
  0
VERTEX
  8
PIN_BOTTOM
 10
8.638032
 20
-19.466179
 40
0.000000
 41
0.000000
 42
0.000000
  0
VERTEX
  8
PIN_BOTTOM
 10
10.038080
 20
-19.466179
 40
0.000000
 41
0.000000
 42
0.000000
  0
SEQEND
  0
POLYLINE
  8
PIN_BOTTOM
 66
1
 70
1
 40
0.000000
 41
0.000000
 39
0.000000
  0
VERTEX
  8
PIN_BOTTOM
 10
15.237968
 20
-7.965821
 40
0.000000
 41
0.000000
 42
0.000000
  0
VERTEX
  8
PIN_BOTTOM
 10
13.837920
 20
-7.965821
 40
0.000000
 41
0.000000
 42
0.000000
  0
VERTEX
  8
PIN_BOTTOM
 10
13.837920
 20
-10.465943
 40
0.000000
 41
0.000000
 42
0.000000
  0
VERTEX
  8
PIN_BOTTOM
 10
15.237968
 20
-10.465943
 40
0.000000
 41
0.000000
 42
0.000000
  0
SEQEND
  0
POLYLINE
  8
PG_ASSEMBLY_BOTTOM
 66
1
 70
1
 40
0.000000
 41
0.000000
 39
0.000000
  0
VERTEX
  8
PG_ASSEMBLY_BOTTOM
 10
15.187930
 20
-17.971008
 40
0.203200
 41
0.203200
 42
0.000000
  0
VERTEX
  8
PG_ASSEMBLY_BOTTOM
 10
8.688070
 20
-17.971008
 40
0.203200
 41
0.203200
 42
0.000000
  0
VERTEX
  8
PG_ASSEMBLY_BOTTOM
 10
8.688070
 20
-9.460992
 40
0.203200
 41
0.203200
 42
0.000000
  0
VERTEX
  8
PG_ASSEMBLY_BOTTOM
 10
15.187930
 20
-9.460992
 40
0.203200
 41
0.203200
 42
0.000000
  0
SEQEND
  0
TEXT
  8
RD_ASSEMBLY_BOTTOM
 10
12.446000
 20
-13.843000
 11
0.000000
 21
0.000000
 40
0.635000
 41
0.880000
 50
0.000000
  7
STANDARD
 71
2
 72
0
  1
D1
 73
0
  0
TEXT
  8
PG_ASSEMBLY_BOTTOM
 10
14.897100
 20
-10.295382
 11
0.000000
 21
0.000000
 40
0.635000
 41
0.880000
 50
0.000000
  7
STANDARD
 71
2
 72
0
  1
-
 73
0
  0
TEXT
  8
PG_ASSEMBLY_BOTTOM
 10
9.563100
 20
-10.295382
 11
0.000000
 21
0.000000
 40
0.635000
 41
0.880000
 50
0.000000
  7
STANDARD
 71
2
 72
0
  1
+
 73
0
  0
TEXT
  8
PG_ASSEMBLY_BOTTOM
 10
14.770100
 20
-17.407382
 11
0.000000
 21
0.000000
 40
0.635000
 41
0.880000
 50
0.000000
  7
STANDARD
 71
2
 72
0
  1
~
 73
0
  0
TEXT
  8
PG_ASSEMBLY_BOTTOM
 10
9.690100
 20
-17.534382
 11
0.000000
 21
0.000000
 40
0.635000
 41
0.880000
 50
0.000000
  7
STANDARD
 71
2
 72
0
  1
~
 73
0
  0
POLYLINE
  8
PIN_BOTTOM
 66
1
 70
1
 40
0.000000
 41
0.000000
 39
0.000000
  0
VERTEX
  8
PIN_BOTTOM
 10
18.936081
 20
20.381976
 40
0.000000
 41
0.000000
 42
0.000000
  0
VERTEX
  8
PIN_BOTTOM
 10
20.886039
 20
20.381976
 40
0.000000
 41
0.000000
 42
0.000000
  0
VERTEX
  8
PIN_BOTTOM
 10
20.886039
 20
21.782024
 40
0.000000
 41
0.000000
 42
0.000000
  0
VERTEX
  8
PIN_BOTTOM
 10
18.936081
 20
21.782024
 40
0.000000
 41
0.000000
 42
0.000000
  0
SEQEND
  0
POLYLINE
  8
PIN_BOTTOM
 66
1
 70
1
 40
0.000000
 41
0.000000
 39
0.000000
  0
VERTEX
  8
PIN_BOTTOM
 10
18.936081
 20
17.841976
 40
0.000000
 41
0.000000
 42
0.000000
  0
VERTEX
  8
PIN_BOTTOM
 10
20.886039
 20
17.841976
 40
0.000000
 41
0.000000
 42
0.000000
  0
VERTEX
  8
PIN_BOTTOM
 10
20.886039
 20
19.242024
 40
0.000000
 41
0.000000
 42
0.000000
  0
VERTEX
  8
PIN_BOTTOM
 10
18.936081
 20
19.242024
 40
0.000000
 41
0.000000
 42
0.000000
  0
SEQEND
  0
POLYLINE
  8
PIN_BOTTOM
 66
1
 70
1
 40
0.000000
 41
0.000000
 39
0.000000
  0
VERTEX
  8
PIN_BOTTOM
 10
28.135961
 20
17.841976
 40
0.000000
 41
0.000000
 42
0.000000
  0
VERTEX
  8
PIN_BOTTOM
 10
30.085919
 20
17.841976
 40
0.000000
 41
0.000000
 42
0.000000
  0
VERTEX
  8
PIN_BOTTOM
 10
30.085919
 20
19.242024
 40
0.000000
 41
0.000000
 42
0.000000
  0
VERTEX
  8
PIN_BOTTOM
 10
28.135961
 20
19.242024
 40
0.000000
 41
0.000000
 42
0.000000
  0
SEQEND
  0
POLYLINE
  8
PIN_BOTTOM
 66
1
 70
1
 40
0.000000
 41
0.000000
 39
0.000000
  0
VERTEX
  8
PIN_BOTTOM
 10
28.135961
 20
20.381976
 40
0.000000
 41
0.000000
 42
0.000000
  0
VERTEX
  8
PIN_BOTTOM
 10
30.085919
 20
20.381976
 40
0.000000
 41
0.000000
 42
0.000000
  0
VERTEX
  8
PIN_BOTTOM
 10
30.085919
 20
21.782024
 40
0.000000
 41
0.000000
 42
0.000000
  0
VERTEX
  8
PIN_BOTTOM
 10
28.135961
 20
21.782024
 40
0.000000
 41
0.000000
 42
0.000000
  0
SEQEND
  0
POLYLINE
  8
PG_ASSEMBLY_BOTTOM
 66
1
 70
1
 40
0.000000
 41
0.000000
 39
0.000000
  0
VERTEX
  8
PG_ASSEMBLY_BOTTOM
 10
28.471114
 20
17.262094
 40
0.000000
 41
0.000000
 42
0.000000
  0
VERTEX
  8
PG_ASSEMBLY_BOTTOM
 10
20.550886
 20
17.262094
 40
0.000000
 41
0.000000
 42
0.000000
  0
VERTEX
  8
PG_ASSEMBLY_BOTTOM
 10
20.550886
 20
22.361906
 40
0.000000
 41
0.000000
 42
0.000000
  0
VERTEX
  8
PG_ASSEMBLY_BOTTOM
 10
27.836114
 20
22.361906
 40
0.000000
 41
0.000000
 42
0.000000
  0
VERTEX
  8
PG_ASSEMBLY_BOTTOM
 10
28.471114
 20
21.726906
 40
0.000000
 41
0.000000
 42
0.000000
  0
SEQEND
  0
TEXT
  8
PG_ASSEMBLY_BOTTOM
 10
18.669000
 20
21.082000
 11
0.000000
 21
0.000000
 40
0.635000
 41
0.880000
 50
0.000000
  7
STANDARD
 71
2
 72
0
  1
4
 73
0
  0
TEXT
  8
PG_ASSEMBLY_BOTTOM
 10
18.796000
 20
17.907000
 11
0.000000
 21
0.000000
 40
0.635000
 41
0.880000
 50
0.000000
  7
STANDARD
 71
2
 72
0
  1
3
 73
0
  0
TEXT
  8
PG_ASSEMBLY_BOTTOM
 10
29.794200
 20
16.933418
 11
0.000000
 21
0.000000
 40
0.635000
 41
0.880000
 50
0.000000
  7
STANDARD
 71
2
 72
0
  1
2
 73
0
  0
TEXT
  8
PG_ASSEMBLY_BOTTOM
 10
30.556200
 20
21.886418
 11
0.000000
 21
0.000000
 40
0.635000
 41
0.880000
 50
0.000000
  7
STANDARD
 71
2
 72
0
  1
1
 73
0
  0
TEXT
  8
RD_ASSEMBLY_BOTTOM
 10
24.892000
 20
19.558000
 11
0.000000
 21
0.000000
 40
0.635000
 41
0.880000
 50
0.000000
  7
STANDARD
 71
2
 72
0
  1
U11
 73
0
  0
POLYLINE
  8
PIN_BOTTOM
 66
1
 70
1
 40
0.000000
 41
0.000000
 39
0.000000
  0
VERTEX
  8
PIN_BOTTOM
 10
1.720977
 20
-5.170170
 40
0.000000
 41
0.000000
 42
0.000000
  0
VERTEX
  8
PIN_BOTTOM
 10
4.121023
 20
-5.170170
 40
0.000000
 41
0.000000
 42
0.000000
  0
VERTEX
  8
PIN_BOTTOM
 10
4.121023
 20
-3.670046
 40
0.000000
 41
0.000000
 42
0.000000
  0
VERTEX
  8
PIN_BOTTOM
 10
1.720977
 20
-3.670046
 40
0.000000
 41
0.000000
 42
0.000000
  0
SEQEND
  0
POLYLINE
  8
PIN_BOTTOM
 66
1
 70
1
 40
0.000000
 41
0.000000
 39
0.000000
  0
VERTEX
  8
PIN_BOTTOM
 10
1.720977
 20
1.130046
 40
0.000000
 41
0.000000
 42
0.000000
  0
VERTEX
  8
PIN_BOTTOM
 10
4.121023
 20
1.130046
 40
0.000000
 41
0.000000
 42
0.000000
  0
VERTEX
  8
PIN_BOTTOM
 10
4.121023
 20
2.630170
 40
0.000000
 41
0.000000
 42
0.000000
  0
VERTEX
  8
PIN_BOTTOM
 10
1.720977
 20
2.630170
 40
0.000000
 41
0.000000
 42
0.000000
  0
SEQEND
  0
POLYLINE
  8
PG_ASSEMBLY_BOTTOM
 66
1
 70
1
 40
0.000000
 41
0.000000
 39
0.000000
  0
VERTEX
  8
PG_ASSEMBLY_BOTTOM
 10
-0.829056
 20
-5.020056
 40
0.000000
 41
0.000000
 42
0.000000
  0
VERTEX
  8
PG_ASSEMBLY_BOTTOM
 10
-0.829056
 20
2.480056
 40
0.000000
 41
0.000000
 42
0.000000
  0
VERTEX
  8
PG_ASSEMBLY_BOTTOM
 10
6.671056
 20
2.480056
 40
0.000000
 41
0.000000
 42
0.000000
  0
VERTEX
  8
PG_ASSEMBLY_BOTTOM
 10
6.671056
 20
-5.020056
 40
0.000000
 41
0.000000
 42
0.000000
  0
SEQEND
  0
TEXT
  8
RD_ASSEMBLY_BOTTOM
 10
3.429000
 20
-1.524000
 11
0.000000
 21
0.000000
 40
0.635000
 41
0.880000
 50
0.000000
  7
STANDARD
 71
2
 72
0
  1
L1
 73
0
  0
POLYLINE
  8
PIN_BOTTOM
 66
1
 70
1
 40
0.000000
 41
0.000000
 39
0.000000
  0
VERTEX
  8
PIN_BOTTOM
 10
16.546830
 20
-7.562977
 40
0.000000
 41
0.000000
 42
0.000000
  0
VERTEX
  8
PIN_BOTTOM
 10
16.546830
 20
-9.963023
 40
0.000000
 41
0.000000
 42
0.000000
  0
VERTEX
  8
PIN_BOTTOM
 10
18.046954
 20
-9.963023
 40
0.000000
 41
0.000000
 42
0.000000
  0
VERTEX
  8
PIN_BOTTOM
 10
18.046954
 20
-7.562977
 40
0.000000
 41
0.000000
 42
0.000000
  0
SEQEND
  0
POLYLINE
  8
PIN_BOTTOM
 66
1
 70
1
 40
0.000000
 41
0.000000
 39
0.000000
  0
VERTEX
  8
PIN_BOTTOM
 10
22.847046
 20
-7.562977
 40
0.000000
 41
0.000000
 42
0.000000
  0
VERTEX
  8
PIN_BOTTOM
 10
22.847046
 20
-9.963023
 40
0.000000
 41
0.000000
 42
0.000000
  0
VERTEX
  8
PIN_BOTTOM
 10
24.347170
 20
-9.963023
 40
0.000000
 41
0.000000
 42
0.000000
  0
VERTEX
  8
PIN_BOTTOM
 10
24.347170
 20
-7.562977
 40
0.000000
 41
0.000000
 42
0.000000
  0
SEQEND
  0
POLYLINE
  8
PG_ASSEMBLY_BOTTOM
 66
1
 70
1
 40
0.000000
 41
0.000000
 39
0.000000
  0
VERTEX
  8
PG_ASSEMBLY_BOTTOM
 10
16.696944
 20
-5.012944
 40
0.000000
 41
0.000000
 42
0.000000
  0
VERTEX
  8
PG_ASSEMBLY_BOTTOM
 10
24.197056
 20
-5.012944
 40
0.000000
 41
0.000000
 42
0.000000
  0
VERTEX
  8
PG_ASSEMBLY_BOTTOM
 10
24.197056
 20
-12.513056
 40
0.000000
 41
0.000000
 42
0.000000
  0
VERTEX
  8
PG_ASSEMBLY_BOTTOM
 10
16.696944
 20
-12.513056
 40
0.000000
 41
0.000000
 42
0.000000
  0
SEQEND
  0
TEXT
  8
RD_ASSEMBLY_BOTTOM
 10
21.082000
 20
-8.890000
 11
0.000000
 21
0.000000
 40
0.635000
 41
0.880000
 50
0.000000
  7
STANDARD
 71
2
 72
0
  1
L2
 73
0
  0
POLYLINE
  8
PIN_BOTTOM
 66
1
 70
1
 40
0.000000
 41
0.000000
 39
0.000000
  0
VERTEX
  8
PIN_BOTTOM
 10
-0.635000
 20
9.845040
 40
0.000000
 41
0.000000
 42
0.000000
  0
VERTEX
  8
PIN_BOTTOM
 10
-2.159000
 20
9.845040
 40
0.000000
 41
0.000000
 42
0.000000
  0
VERTEX
  8
PIN_BOTTOM
 10
-2.159000
 20
11.369040
 40
0.000000
 41
0.000000
 42
0.000000
  0
VERTEX
  8
PIN_BOTTOM
 10
-0.635000
 20
11.369040
 40
0.000000
 41
0.000000
 42
0.000000
  0
SEQEND
  0
CIRCLE
  8
PIN_BOTTOM
 10
-1.397000
 20
13.147040
 40
0.762000
  0
CIRCLE
  8
PIN_BOTTOM
 10
-1.397000
 20
15.687040
 40
0.762000
  0
CIRCLE
  8
PIN_BOTTOM
 10
-1.397000
 20
18.227040
 40
0.762000
  0
CIRCLE
  8
PIN_BOTTOM
 10
-1.397000
 20
20.767040
 40
0.762000
  0
CIRCLE
  8
PIN_BOTTOM
 10
-3.937000
 20
10.607040
 40
0.762000
  0
CIRCLE
  8
PIN_BOTTOM
 10
-3.937000
 20
13.147040
 40
0.762000
  0
CIRCLE
  8
PIN_BOTTOM
 10
-3.937000
 20
15.687040
 40
0.762000
  0
CIRCLE
  8
PIN_BOTTOM
 10
-3.937000
 20
18.227040
 40
0.762000
  0
CIRCLE
  8
PIN_BOTTOM
 10
-3.937000
 20
20.767040
 40
0.762000
  0
POLYLINE
  8
PIN_BOTTOM
 66
1
 70
1
 40
0.000000
 41
0.000000
 39
0.000000
  0
VERTEX
  8
PIN_BOTTOM
 10
26.687018
 20
-2.211959
 40
0.000000
 41
0.000000
 42
0.000000
  0
VERTEX
  8
PIN_BOTTOM
 10
26.687018
 20
-4.392041
 40
0.000000
 41
0.000000
 42
0.000000
  0
VERTEX
  8
PIN_BOTTOM
 10
28.307030
 20
-4.392041
 40
0.000000
 41
0.000000
 42
0.000000
  0
VERTEX
  8
PIN_BOTTOM
 10
28.307030
 20
-2.211959
 40
0.000000
 41
0.000000
 42
0.000000
  0
SEQEND
  0
POLYLINE
  8
PIN_BOTTOM
 66
1
 70
1
 40
0.000000
 41
0.000000
 39
0.000000
  0
VERTEX
  8
PIN_BOTTOM
 10
30.366970
 20
-2.211959
 40
0.000000
 41
0.000000
 42
0.000000
  0
VERTEX
  8
PIN_BOTTOM
 10
30.366970
 20
-4.392041
 40
0.000000
 41
0.000000
 42
0.000000
  0
VERTEX
  8
PIN_BOTTOM
 10
31.986982
 20
-4.392041
 40
0.000000
 41
0.000000
 42
0.000000
  0
VERTEX
  8
PIN_BOTTOM
 10
31.986982
 20
-2.211959
 40
0.000000
 41
0.000000
 42
0.000000
  0
SEQEND
  0
POLYLINE
  8
PG_ASSEMBLY_BOTTOM
 66
1
 70
1
 40
0.000000
 41
0.000000
 39
0.000000
  0
VERTEX
  8
PG_ASSEMBLY_BOTTOM
 10
27.037030
 20
-1.326896
 40
0.000000
 41
0.000000
 42
0.000000
  0
VERTEX
  8
PG_ASSEMBLY_BOTTOM
 10
31.636970
 20
-1.326896
 40
0.000000
 41
0.000000
 42
0.000000
  0
VERTEX
  8
PG_ASSEMBLY_BOTTOM
 10
31.636970
 20
-5.277104
 40
0.000000
 41
0.000000
 42
0.000000
  0
VERTEX
  8
PG_ASSEMBLY_BOTTOM
 10
27.037030
 20
-5.277104
 40
0.000000
 41
0.000000
 42
0.000000
  0
SEQEND
  0
TEXT
  8
RD_ASSEMBLY_BOTTOM
 10
29.845000
 20
-3.429000
 11
0.000000
 21
0.000000
 40
0.635000
 41
0.880000
 50
0.000000
  7
STANDARD
 71
2
 72
0
  1
D5
 73
0
  0
POLYLINE
  8
PIN_BOTTOM
 66
1
 70
1
 40
0.000000
 41
0.000000
 39
0.000000
  0
VERTEX
  8
PIN_BOTTOM
 10
22.302978
 20
16.567912
 40
0.000000
 41
0.000000
 42
0.000000
  0
VERTEX
  8
PIN_BOTTOM
 10
20.623022
 20
16.567912
 40
0.000000
 41
0.000000
 42
0.000000
  0
VERTEX
  8
PIN_BOTTOM
 10
20.623022
 20
15.047976
 40
0.000000
 41
0.000000
 42
0.000000
  0
VERTEX
  8
PIN_BOTTOM
 10
22.302978
 20
15.047976
 40
0.000000
 41
0.000000
 42
0.000000
  0
SEQEND
  0
POLYLINE
  8
PIN_BOTTOM
 66
1
 70
1
 40
0.000000
 41
0.000000
 39
0.000000
  0
VERTEX
  8
PIN_BOTTOM
 10
22.302978
 20
12.638024
 40
0.000000
 41
0.000000
 42
0.000000
  0
VERTEX
  8
PIN_BOTTOM
 10
20.623022
 20
12.638024
 40
0.000000
 41
0.000000
 42
0.000000
  0
VERTEX
  8
PIN_BOTTOM
 10
20.623022
 20
11.118088
 40
0.000000
 41
0.000000
 42
0.000000
  0
VERTEX
  8
PIN_BOTTOM
 10
22.302978
 20
11.118088
 40
0.000000
 41
0.000000
 42
0.000000
  0
SEQEND
  0
POLYLINE
  8
PG_ASSEMBLY_BOTTOM
 66
1
 70
0
 40
0.000000
 41
0.000000
 39
0.000000
  0
VERTEX
  8
PG_ASSEMBLY_BOTTOM
 10
19.359880
 20
14.269974
 40
0.000000
 41
0.000000
 42
0.000000
  0
VERTEX
  8
PG_ASSEMBLY_BOTTOM
 10
19.359880
 20
14.869922
 40
0.000000
 41
0.000000
 42
0.000000
  0
SEQEND
  0
POLYLINE
  8
PG_ASSEMBLY_BOTTOM
 66
1
 70
0
 40
0.000000
 41
0.000000
 39
0.000000
  0
VERTEX
  8
PG_ASSEMBLY_BOTTOM
 10
19.809968
 20
14.269974
 40
0.000000
 41
0.000000
 42
0.000000
  0
VERTEX
  8
PG_ASSEMBLY_BOTTOM
 10
18.910046
 20
14.269974
 40
0.000000
 41
0.000000
 42
0.000000
  0
SEQEND
  0
POLYLINE
  8
PG_ASSEMBLY_BOTTOM
 66
1
 70
0
 40
0.000000
 41
0.000000
 39
0.000000
  0
VERTEX
  8
PG_ASSEMBLY_BOTTOM
 10
19.359880
 20
12.619990
 40
0.000000
 41
0.000000
 42
0.000000
  0
VERTEX
  8
PG_ASSEMBLY_BOTTOM
 10
19.359880
 20
13.670026
 40
0.000000
 41
0.000000
 42
0.000000
  0
VERTEX
  8
PG_ASSEMBLY_BOTTOM
 10
19.809968
 20
13.670026
 40
0.000000
 41
0.000000
 42
0.000000
  0
VERTEX
  8
PG_ASSEMBLY_BOTTOM
 10
19.359880
 20
14.269974
 40
0.000000
 41
0.000000
 42
0.000000
  0
VERTEX
  8
PG_ASSEMBLY_BOTTOM
 10
18.910046
 20
13.670026
 40
0.000000
 41
0.000000
 42
0.000000
  0
VERTEX
  8
PG_ASSEMBLY_BOTTOM
 10
19.359880
 20
13.670026
 40
0.000000
 41
0.000000
 42
0.000000
  0
SEQEND
  0
POLYLINE
  8
PG_ASSEMBLY_BOTTOM
 66
1
 70
1
 40
0.000000
 41
0.000000
 39
0.000000
  0
VERTEX
  8
PG_ASSEMBLY_BOTTOM
 10
22.878034
 20
16.142970
 40
0.000000
 41
0.000000
 42
0.000000
  0
VERTEX
  8
PG_ASSEMBLY_BOTTOM
 10
22.878034
 20
11.543030
 40
0.000000
 41
0.000000
 42
0.000000
  0
VERTEX
  8
PG_ASSEMBLY_BOTTOM
 10
20.047966
 20
11.543030
 40
0.000000
 41
0.000000
 42
0.000000
  0
VERTEX
  8
PG_ASSEMBLY_BOTTOM
 10
20.047966
 20
16.142970
 40
0.000000
 41
0.000000
 42
0.000000
  0
SEQEND
  0
TEXT
  8
RD_ASSEMBLY_BOTTOM
 10
22.072600
 20
13.377418
 11
0.000000
 21
0.000000
 40
0.635000
 41
0.880000
 50
0.000000
  7
STANDARD
 71
2
 72
0
  1
D6
 73
0
  0
CIRCLE
  8
PIN_BOTTOM
 10
17.145000
 20
21.722080
 40
0.632968
  0
POLYLINE
  8
PIN_BOTTOM
 66
1
 70
1
 40
0.000000
 41
0.000000
 39
0.000000
  0
VERTEX
  8
PIN_BOTTOM
 10
16.512032
 20
16.088868
 40
0.000000
 41
0.000000
 42
0.000000
  0
VERTEX
  8
PIN_BOTTOM
 10
17.777968
 20
16.088868
 40
0.000000
 41
0.000000
 42
0.000000
  0
VERTEX
  8
PIN_BOTTOM
 10
17.777968
 20
17.354804
 40
0.000000
 41
0.000000
 42
0.000000
  0
VERTEX
  8
PIN_BOTTOM
 10
16.512032
 20
17.354804
 40
0.000000
 41
0.000000
 42
0.000000
  0
SEQEND
  0
POLYLINE
  8
PG_ASSEMBLY_BOTTOM
 66
1
 70
1
 40
0.000000
 41
0.000000
 39
0.000000
  0
VERTEX
  8
PG_ASSEMBLY_BOTTOM
 10
17.945100
 20
20.521930
 40
0.000000
 41
0.000000
 42
0.000000
  0
VERTEX
  8
PG_ASSEMBLY_BOTTOM
 10
17.945100
 20
17.921986
 40
0.000000
 41
0.000000
 42
0.000000
  0
VERTEX
  8
PG_ASSEMBLY_BOTTOM
 10
16.344900
 20
17.921986
 40
0.000000
 41
0.000000
 42
0.000000
  0
VERTEX
  8
PG_ASSEMBLY_BOTTOM
 10
16.344900
 20
20.521930
 40
0.000000
 41
0.000000
 42
0.000000
  0
SEQEND
  0
TEXT
  8
RD_ASSEMBLY_BOTTOM
 10
16.891000
 20
18.542000
 11
0.000000
 21
0.000000
 40
0.635000
 41
0.880000
 50
270.000000
  7
STANDARD
 71
2
 72
0
  1
R25
 73
0
  0
CIRCLE
  8
PIN_BOTTOM
 10
13.081000
 20
16.721836
 40
0.632968
  0
POLYLINE
  8
PIN_BOTTOM
 66
1
 70
1
 40
0.000000
 41
0.000000
 39
0.000000
  0
VERTEX
  8
PIN_BOTTOM
 10
12.448032
 20
11.088624
 40
0.000000
 41
0.000000
 42
0.000000
  0
VERTEX
  8
PIN_BOTTOM
 10
13.713968
 20
11.088624
 40
0.000000
 41
0.000000
 42
0.000000
  0
VERTEX
  8
PIN_BOTTOM
 10
13.713968
 20
12.354560
 40
0.000000
 41
0.000000
 42
0.000000
  0
VERTEX
  8
PIN_BOTTOM
 10
12.448032
 20
12.354560
 40
0.000000
 41
0.000000
 42
0.000000
  0
SEQEND
  0
POLYLINE
  8
PG_ASSEMBLY_BOTTOM
 66
1
 70
1
 40
0.000000
 41
0.000000
 39
0.000000
  0
VERTEX
  8
PG_ASSEMBLY_BOTTOM
 10
13.881100
 20
15.521686
 40
0.000000
 41
0.000000
 42
0.000000
  0
VERTEX
  8
PG_ASSEMBLY_BOTTOM
 10
13.881100
 20
12.921742
 40
0.000000
 41
0.000000
 42
0.000000
  0
VERTEX
  8
PG_ASSEMBLY_BOTTOM
 10
12.280900
 20
12.921742
 40
0.000000
 41
0.000000
 42
0.000000
  0
VERTEX
  8
PG_ASSEMBLY_BOTTOM
 10
12.280900
 20
15.521686
 40
0.000000
 41
0.000000
 42
0.000000
  0
SEQEND
  0
TEXT
  8
RD_ASSEMBLY_BOTTOM
 10
12.827000
 20
13.459714
 11
0.000000
 21
0.000000
 40
0.635000
 41
0.880000
 50
270.000000
  7
STANDARD
 71
2
 72
0
  1
R24
 73
0
  0
POLYLINE
  8
PIN_BOTTOM
 66
1
 70
1
 40
0.000000
 41
0.000000
 39
0.000000
  0
VERTEX
  8
PIN_BOTTOM
 10
2.360041
 20
10.069957
 40
0.000000
 41
0.000000
 42
0.000000
  0
VERTEX
  8
PIN_BOTTOM
 10
3.460115
 20
10.069957
 40
0.000000
 41
0.000000
 42
0.000000
  0
VERTEX
  8
PIN_BOTTOM
 10
3.460115
 20
11.520043
 40
0.000000
 41
0.000000
 42
0.000000
  0
VERTEX
  8
PIN_BOTTOM
 10
2.360041
 20
11.520043
 40
0.000000
 41
0.000000
 42
0.000000
  0
SEQEND
  0
POLYLINE
  8
PIN_BOTTOM
 66
1
 70
1
 40
0.000000
 41
0.000000
 39
0.000000
  0
VERTEX
  8
PIN_BOTTOM
 10
4.159885
 20
10.069957
 40
0.000000
 41
0.000000
 42
0.000000
  0
VERTEX
  8
PIN_BOTTOM
 10
5.259959
 20
10.069957
 40
0.000000
 41
0.000000
 42
0.000000
  0
VERTEX
  8
PIN_BOTTOM
 10
5.259959
 20
11.520043
 40
0.000000
 41
0.000000
 42
0.000000
  0
VERTEX
  8
PIN_BOTTOM
 10
4.159885
 20
11.520043
 40
0.000000
 41
0.000000
 42
0.000000
  0
SEQEND
  0
POLYLINE
  8
PG_ASSEMBLY_BOTTOM
 66
1
 70
0
 40
0.000000
 41
0.000000
 39
0.000000
  0
VERTEX
  8
PG_ASSEMBLY_BOTTOM
 10
4.709922
 20
8.843010
 40
0.150114
 41
0.150114
 42
0.677182
  0
VERTEX
  8
PG_ASSEMBLY_BOTTOM
 10
5.009896
 20
9.593072
 40
0.150114
 41
0.150114
 42
0.000000
  0
VERTEX
  8
PG_ASSEMBLY_BOTTOM
 10
5.356098
 20
9.593072
 40
0.150114
 41
0.150114
 42
0.000000
  0
SEQEND
  0
POLYLINE
  8
PG_ASSEMBLY_BOTTOM
 66
1
 70
0
 40
0.000000
 41
0.000000
 39
0.000000
  0
VERTEX
  8
PG_ASSEMBLY_BOTTOM
 10
4.709922
 20
8.843010
 40
0.150114
 41
0.150114
 42
-0.414205
  0
VERTEX
  8
PG_ASSEMBLY_BOTTOM
 10
4.260088
 20
9.293098
 40
0.150114
 41
0.150114
 42
0.000000
  0
SEQEND
  0
POLYLINE
  8
PG_ASSEMBLY_BOTTOM
 66
1
 70
0
 40
0.000000
 41
0.000000
 39
0.000000
  0
VERTEX
  8
PG_ASSEMBLY_BOTTOM
 10
4.260088
 20
9.293098
 40
0.150114
 41
0.150114
 42
-0.236000
  0
VERTEX
  8
PG_ASSEMBLY_BOTTOM
 10
4.409948
 20
9.593072
 40
0.150114
 41
0.150114
 42
0.000000
  0
SEQEND
  0
POLYLINE
  8
PG_ASSEMBLY_BOTTOM
 66
1
 70
0
 40
0.000000
 41
0.000000
 39
0.000000
  0
VERTEX
  8
PG_ASSEMBLY_BOTTOM
 10
4.409948
 20
9.593072
 40
0.150114
 41
0.150114
 42
-0.677132
  0
VERTEX
  8
PG_ASSEMBLY_BOTTOM
 10
4.109974
 20
8.843010
 40
0.150114
 41
0.150114
 42
0.000000
  0
SEQEND
  0
POLYLINE
  8
PG_ASSEMBLY_BOTTOM
 66
1
 70
0
 40
0.000000
 41
0.000000
 39
0.000000
  0
VERTEX
  8
PG_ASSEMBLY_BOTTOM
 10
4.109974
 20
8.843010
 40
0.150114
 41
0.150114
 42
-0.414283
  0
VERTEX
  8
PG_ASSEMBLY_BOTTOM
 10
3.659886
 20
9.293098
 40
0.150114
 41
0.150114
 42
0.000000
  0
SEQEND
  0
POLYLINE
  8
PG_ASSEMBLY_BOTTOM
 66
1
 70
0
 40
0.000000
 41
0.000000
 39
0.000000
  0
VERTEX
  8
PG_ASSEMBLY_BOTTOM
 10
3.659886
 20
9.293098
 40
0.150114
 41
0.150114
 42
-0.236050
  0
VERTEX
  8
PG_ASSEMBLY_BOTTOM
 10
3.810000
 20
9.593072
 40
0.150114
 41
0.150114
 42
0.000000
  0
SEQEND
  0
POLYLINE
  8
PG_ASSEMBLY_BOTTOM
 66
1
 70
0
 40
0.000000
 41
0.000000
 39
0.000000
  0
VERTEX
  8
PG_ASSEMBLY_BOTTOM
 10
3.810000
 20
9.593072
 40
0.150114
 41
0.150114
 42
-0.677082
  0
VERTEX
  8
PG_ASSEMBLY_BOTTOM
 10
3.510026
 20
8.843010
 40
0.150114
 41
0.150114
 42
0.000000
  0
SEQEND
  0
POLYLINE
  8
PG_ASSEMBLY_BOTTOM
 66
1
 70
0
 40
0.000000
 41
0.000000
 39
0.000000
  0
VERTEX
  8
PG_ASSEMBLY_BOTTOM
 10
3.510026
 20
8.843010
 40
0.150114
 41
0.150114
 42
-0.414306
  0
VERTEX
  8
PG_ASSEMBLY_BOTTOM
 10
3.059938
 20
9.293098
 40
0.150114
 41
0.150114
 42
0.000000
  0
SEQEND
  0
POLYLINE
  8
PG_ASSEMBLY_BOTTOM
 66
1
 70
0
 40
0.000000
 41
0.000000
 39
0.000000
  0
VERTEX
  8
PG_ASSEMBLY_BOTTOM
 10
3.059938
 20
9.293098
 40
0.150114
 41
0.150114
 42
-0.236069
  0
VERTEX
  8
PG_ASSEMBLY_BOTTOM
 10
3.210052
 20
9.593072
 40
0.150114
 41
0.150114
 42
0.000000
  0
SEQEND
  0
POLYLINE
  8
PG_ASSEMBLY_BOTTOM
 66
1
 70
0
 40
0.000000
 41
0.000000
 39
0.000000
  0
VERTEX
  8
PG_ASSEMBLY_BOTTOM
 10
3.210052
 20
9.593072
 40
0.150114
 41
0.150114
 42
-0.677032
  0
VERTEX
  8
PG_ASSEMBLY_BOTTOM
 10
2.910078
 20
8.843010
 40
0.150114
 41
0.150114
 42
-0.414328
  0
VERTEX
  8
PG_ASSEMBLY_BOTTOM
 10
2.459990
 20
9.293098
 40
0.150114
 41
0.150114
 42
-0.236089
  0
VERTEX
  8
PG_ASSEMBLY_BOTTOM
 10
2.610104
 20
9.593072
 40
0.150114
 41
0.150114
 42
0.000000
  0
VERTEX
  8
PG_ASSEMBLY_BOTTOM
 10
2.241042
 20
9.593072
 40
0.150114
 41
0.150114
 42
0.000000
  0
SEQEND
  0
POLYLINE
  8
PG_ASSEMBLY_BOTTOM
 66
1
 70
1
 40
0.000000
 41
0.000000
 39
0.000000
  0
VERTEX
  8
PG_ASSEMBLY_BOTTOM
 10
2.735072
 20
11.495024
 40
0.000000
 41
0.000000
 42
0.000000
  0
VERTEX
  8
PG_ASSEMBLY_BOTTOM
 10
4.884928
 20
11.495024
 40
0.000000
 41
0.000000
 42
0.000000
  0
VERTEX
  8
PG_ASSEMBLY_BOTTOM
 10
4.884928
 20
10.094976
 40
0.000000
 41
0.000000
 42
0.000000
  0
VERTEX
  8
PG_ASSEMBLY_BOTTOM
 10
2.735072
 20
10.094976
 40
0.000000
 41
0.000000
 42
0.000000
  0
SEQEND
  0
TEXT
  8
RD_ASSEMBLY_BOTTOM
 10
4.292600
 20
11.980164
 11
0.000000
 21
0.000000
 40
0.635000
 41
0.880000
 50
0.000000
  7
STANDARD
 71
2
 72
0
  1
L3
 73
0
  0
POLYLINE
  8
PIN_BOTTOM
 66
1
 70
1
 40
0.000000
 41
0.000000
 39
0.000000
  0
VERTEX
  8
PIN_BOTTOM
 10
17.171035
 20
-3.480435
 40
0.000000
 41
0.000000
 42
0.000000
  0
VERTEX
  8
PIN_BOTTOM
 10
18.642965
 20
-3.480435
 40
0.000000
 41
0.000000
 42
0.000000
  0
VERTEX
  8
PIN_BOTTOM
 10
18.642965
 20
-4.952365
 40
0.000000
 41
0.000000
 42
0.000000
  0
VERTEX
  8
PIN_BOTTOM
 10
17.171035
 20
-4.952365
 40
0.000000
 41
0.000000
 42
0.000000
  0
SEQEND
  0
POLYLINE
  8
PIN_BOTTOM
 66
1
 70
1
 40
0.000000
 41
0.000000
 39
0.000000
  0
VERTEX
  8
PIN_BOTTOM
 10
17.171035
 20
9.219565
 40
0.000000
 41
0.000000
 42
0.000000
  0
VERTEX
  8
PIN_BOTTOM
 10
18.642965
 20
9.219565
 40
0.000000
 41
0.000000
 42
0.000000
  0
VERTEX
  8
PIN_BOTTOM
 10
18.642965
 20
7.747635
 40
0.000000
 41
0.000000
 42
0.000000
  0
VERTEX
  8
PIN_BOTTOM
 10
17.171035
 20
7.747635
 40
0.000000
 41
0.000000
 42
0.000000
  0
SEQEND
  0
POLYLINE
  8
PIN_BOTTOM
 66
1
 70
1
 40
0.000000
 41
0.000000
 39
0.000000
  0
VERTEX
  8
PIN_BOTTOM
 10
28.391866
 20
15.045944
 40
0.000000
 41
0.000000
 42
0.000000
  0
VERTEX
  8
PIN_BOTTOM
 10
28.391866
 20
16.569944
 40
0.000000
 41
0.000000
 42
0.000000
  0
VERTEX
  8
PIN_BOTTOM
 10
27.121866
 20
16.569944
 40
0.000000
 41
0.000000
 42
0.000000
  0
VERTEX
  8
PIN_BOTTOM
 10
27.121866
 20
15.045944
 40
0.000000
 41
0.000000
 42
0.000000
  0
SEQEND
  0
POLYLINE
  8
PIN_BOTTOM
 66
1
 70
1
 40
0.000000
 41
0.000000
 39
0.000000
  0
VERTEX
  8
PIN_BOTTOM
 10
26.491946
 20
15.045944
 40
0.000000
 41
0.000000
 42
0.000000
  0
VERTEX
  8
PIN_BOTTOM
 10
26.491946
 20
16.569944
 40
0.000000
 41
0.000000
 42
0.000000
  0
VERTEX
  8
PIN_BOTTOM
 10
25.221946
 20
16.569944
 40
0.000000
 41
0.000000
 42
0.000000
  0
VERTEX
  8
PIN_BOTTOM
 10
25.221946
 20
15.045944
 40
0.000000
 41
0.000000
 42
0.000000
  0
SEQEND
  0
POLYLINE
  8
PG_ASSEMBLY_BOTTOM
 66
1
 70
1
 40
0.000000
 41
0.000000
 39
0.000000
  0
VERTEX
  8
PG_ASSEMBLY_BOTTOM
 10
27.906726
 20
15.106904
 40
0.000000
 41
0.000000
 42
0.000000
  0
VERTEX
  8
PG_ASSEMBLY_BOTTOM
 10
25.707086
 20
15.106904
 40
0.000000
 41
0.000000
 42
0.000000
  0
VERTEX
  8
PG_ASSEMBLY_BOTTOM
 10
25.707086
 20
16.508984
 40
0.000000
 41
0.000000
 42
0.000000
  0
VERTEX
  8
PG_ASSEMBLY_BOTTOM
 10
27.906726
 20
16.508984
 40
0.000000
 41
0.000000
 42
0.000000
  0
SEQEND
  0
TEXT
  8
RD_ASSEMBLY_BOTTOM
 10
23.918333
 20
15.536418
 11
24.130000
 21
15.536418
 40
0.635000
 41
0.880000
 50
0.000000
  7
STANDARD
 71
2
 72
1
  1
C10
 73
0
  0
CIRCLE
  8
PIN_BOTTOM
 10
11.658092
 20
5.501894
 40
3.099943
  0
CIRCLE
  8
PIN_BOTTOM
 10
2.107692
 20
-16.697706
 40
3.099943
  0
CIRCLE
  8
PIN_BOTTOM
 10
21.208492
 20
-16.697706
 40
3.099943
  0
CIRCLE
  8
PIN_BOTTOM
 10
2.107692
 20
-24.452580
 40
3.099943
  0
POLYLINE
  8
PG_ASSEMBLY_BOTTOM
 66
1
 70
1
 40
0.000000
 41
0.000000
 39
0.000000
  0
VERTEX
  8
PG_ASSEMBLY_BOTTOM
 10
5.699760
 20
-24.452580
 40
0.000000
 41
0.000000
 42
1.000000
  0
VERTEX
  8
PG_ASSEMBLY_BOTTOM
 10
-1.484376
 20
-24.452580
 40
0.000000
 41
0.000000
 42
1.000000
  0
SEQEND
  0
TEXT
  8
RD_ASSEMBLY_BOTTOM
 10
-1.778000
 20
-25.527000
 11
0.000000
 21
0.000000
 40
0.635000
 41
0.880000
 50
0.000000
  7
STANDARD
 71
2
 72
0
  1
U9
 73
0
  0
CIRCLE
  8
PIN_BOTTOM
 10
21.208492
 20
-24.452580
 40
3.099943
  0
POLYLINE
  8
PG_ASSEMBLY_BOTTOM
 66
1
 70
1
 40
0.000000
 41
0.000000
 39
0.000000
  0
VERTEX
  8
PG_ASSEMBLY_BOTTOM
 10
24.800560
 20
-24.452580
 40
0.000000
 41
0.000000
 42
1.000000
  0
VERTEX
  8
PG_ASSEMBLY_BOTTOM
 10
17.616424
 20
-24.452580
 40
0.000000
 41
0.000000
 42
1.000000
  0
SEQEND
  0
TEXT
  8
RD_ASSEMBLY_BOTTOM
 10
26.034492
 20
-24.452580
 11
0.000000
 21
0.000000
 40
0.635000
 41
0.880000
 50
0.000000
  7
STANDARD
 71
2
 72
0
  1
U8
 73
0
  0
CIRCLE
  8
PIN_BOTTOM
 10
11.658092
 20
-2.252980
 40
3.099943
  0
POLYLINE
  8
PG_ASSEMBLY_BOTTOM
 66
1
 70
1
 40
0.000000
 41
0.000000
 39
0.000000
  0
VERTEX
  8
PG_ASSEMBLY_BOTTOM
 10
15.250160
 20
-2.252980
 40
0.000000
 41
0.000000
 42
1.000000
  0
VERTEX
  8
PG_ASSEMBLY_BOTTOM
 10
8.066024
 20
-2.252980
 40
0.000000
 41
0.000000
 42
1.000000
  0
SEQEND
  0
TEXT
  8
RD_ASSEMBLY_BOTTOM
 10
9.779000
 20
1.270000
 11
0.000000
 21
0.000000
 40
0.635000
 41
0.880000
 50
0.000000
  7
STANDARD
 71
2
 72
0
  1
U7
 73
0
  0
POLYLINE
  8
PIN_BOTTOM
 66
1
 70
1
 40
0.000000
 41
0.000000
 39
0.000000
  0
VERTEX
  8
PIN_BOTTOM
 10
14.209014
 20
-25.965277
 40
0.000000
 41
0.000000
 42
0.000000
  0
VERTEX
  8
PIN_BOTTOM
 10
15.508986
 20
-25.965277
 40
0.000000
 41
0.000000
 42
0.000000
  0
VERTEX
  8
PIN_BOTTOM
 10
15.508986
 20
-22.265259
 40
0.000000
 41
0.000000
 42
0.000000
  0
VERTEX
  8
PIN_BOTTOM
 10
14.209014
 20
-22.265259
 40
0.000000
 41
0.000000
 42
0.000000
  0
SEQEND
  0
POLYLINE
  8
PIN_BOTTOM
 66
1
 70
1
 40
0.000000
 41
0.000000
 39
0.000000
  0
VERTEX
  8
PIN_BOTTOM
 10
9.129014
 20
-25.965277
 40
0.000000
 41
0.000000
 42
0.000000
  0
VERTEX
  8
PIN_BOTTOM
 10
10.428986
 20
-25.965277
 40
0.000000
 41
0.000000
 42
0.000000
  0
VERTEX
  8
PIN_BOTTOM
 10
10.428986
 20
-22.265259
 40
0.000000
 41
0.000000
 42
0.000000
  0
VERTEX
  8
PIN_BOTTOM
 10
9.129014
 20
-22.265259
 40
0.000000
 41
0.000000
 42
0.000000
  0
SEQEND
  0
POLYLINE
  8
PIN_BOTTOM
 66
1
 70
1
 40
0.000000
 41
0.000000
 39
0.000000
  0
VERTEX
  8
PIN_BOTTOM
 10
7.169023
 20
-30.265243
 40
0.000000
 41
0.000000
 42
0.000000
  0
VERTEX
  8
PIN_BOTTOM
 10
7.169023
 20
-39.165149
 40
0.000000
 41
0.000000
 42
0.000000
  0
VERTEX
  8
PIN_BOTTOM
 10
17.468977
 20
-39.165149
 40
0.000000
 41
0.000000
 42
0.000000
  0
VERTEX
  8
PIN_BOTTOM
 10
17.468977
 20
-30.265243
 40
0.000000
 41
0.000000
 42
0.000000
  0
SEQEND
  0
POLYLINE
  8
PG_ASSEMBLY_BOTTOM
 66
1
 70
1
 40
0.000000
 41
0.000000
 39
0.000000
  0
VERTEX
  8
PG_ASSEMBLY_BOTTOM
 10
6.983984
 20
-25.200356
 40
0.203200
 41
0.203200
 42
0.000000
  0
VERTEX
  8
PG_ASSEMBLY_BOTTOM
 10
17.654016
 20
-25.200356
 40
0.203200
 41
0.203200
 42
0.000000
  0
VERTEX
  8
PG_ASSEMBLY_BOTTOM
 10
17.654016
 20
-36.430204
 40
0.203200
 41
0.203200
 42
0.000000
  0
VERTEX
  8
PG_ASSEMBLY_BOTTOM
 10
6.983984
 20
-36.430204
 40
0.203200
 41
0.203200
 42
0.000000
  0
SEQEND
  0
TEXT
  8
RD_ASSEMBLY_BOTTOM
 10
12.827000
 20
-28.448000
 11
0.000000
 21
0.000000
 40
0.635000
 41
0.880000
 50
0.000000
  7
STANDARD
 71
2
 72
0
  1
Q3
 73
0
  0
POLYLINE
  8
PIN_BOTTOM
 66
1
 70
1
 40
0.000000
 41
0.000000
 39
0.000000
  0
VERTEX
  8
PIN_BOTTOM
 10
31.315660
 20
-31.356300
 40
0.000000
 41
0.000000
 42
0.000000
  0
VERTEX
  8
PIN_BOTTOM
 10
31.315660
 20
-30.805120
 40
0.000000
 41
0.000000
 42
0.000000
  0
VERTEX
  8
PIN_BOTTOM
 10
30.716220
 20
-30.805120
 40
0.000000
 41
0.000000
 42
0.000000
  0
VERTEX
  8
PIN_BOTTOM
 10
30.716220
 20
-31.356300
 40
0.000000
 41
0.000000
 42
0.000000
  0
SEQEND
  0
POLYLINE
  8
PIN_BOTTOM
 66
1
 70
1
 40
0.000000
 41
0.000000
 39
0.000000
  0
VERTEX
  8
PIN_BOTTOM
 10
30.315916
 20
-31.356300
 40
0.000000
 41
0.000000
 42
0.000000
  0
VERTEX
  8
PIN_BOTTOM
 10
30.315916
 20
-30.805120
 40
0.000000
 41
0.000000
 42
0.000000
  0
VERTEX
  8
PIN_BOTTOM
 10
29.716476
 20
-30.805120
 40
0.000000
 41
0.000000
 42
0.000000
  0
VERTEX
  8
PIN_BOTTOM
 10
29.716476
 20
-31.356300
 40
0.000000
 41
0.000000
 42
0.000000
  0
SEQEND
  0
POLYLINE
  8
PG_ASSEMBLY_BOTTOM
 66
1
 70
1
 40
0.000000
 41
0.000000
 39
0.000000
  0
VERTEX
  8
PG_ASSEMBLY_BOTTOM
 10
31.024068
 20
-31.322010
 40
0.000000
 41
0.000000
 42
0.000000
  0
VERTEX
  8
PG_ASSEMBLY_BOTTOM
 10
30.008068
 20
-31.322010
 40
0.000000
 41
0.000000
 42
0.000000
  0
VERTEX
  8
PG_ASSEMBLY_BOTTOM
 10
30.008068
 20
-30.814010
 40
0.000000
 41
0.000000
 42
0.000000
  0
VERTEX
  8
PG_ASSEMBLY_BOTTOM
 10
31.024068
 20
-30.814010
 40
0.000000
 41
0.000000
 42
0.000000
  0
SEQEND
  0
TEXT
  8
RD_ASSEMBLY_BOTTOM
 10
30.268333
 20
-30.480000
 11
30.480000
 21
-30.480000
 40
0.635000
 41
0.880000
 50
0.000000
  7
STANDARD
 71
2
 72
1
  1
R38
 73
0
  0
POLYLINE
  8
PIN_BOTTOM
 66
1
 70
1
 40
0.000000
 41
0.000000
 39
0.000000
  0
VERTEX
  8
PIN_BOTTOM
 10
8.005572
 20
20.289520
 40
0.000000
 41
0.000000
 42
0.000000
  0
VERTEX
  8
PIN_BOTTOM
 10
8.005572
 20
21.244306
 40
0.000000
 41
0.000000
 42
0.000000
  0
VERTEX
  8
PIN_BOTTOM
 10
8.960358
 20
21.244306
 40
0.000000
 41
0.000000
 42
0.000000
  0
VERTEX
  8
PIN_BOTTOM
 10
8.960358
 20
20.289520
 40
0.000000
 41
0.000000
 42
0.000000
  0
SEQEND
  0
CIRCLE
  8
PIN_BOTTOM
 10
8.483092
 20
19.497040
 40
0.477393
  0
CIRCLE
  8
PIN_BOTTOM
 10
9.753092
 20
20.767040
 40
0.477393
  0
CIRCLE
  8
PIN_BOTTOM
 10
9.753092
 20
19.497040
 40
0.477393
  0
CIRCLE
  8
PIN_BOTTOM
 10
11.023092
 20
20.767040
 40
0.477393
  0
CIRCLE
  8
PIN_BOTTOM
 10
11.023092
 20
19.497040
 40
0.477393
  0
CIRCLE
  8
PIN_BOTTOM
 10
12.293092
 20
20.767040
 40
0.477393
  0
CIRCLE
  8
PIN_BOTTOM
 10
12.293092
 20
19.497040
 40
0.477393
  0
CIRCLE
  8
PIN_BOTTOM
 10
13.563092
 20
20.767040
 40
0.477393
  0
CIRCLE
  8
PIN_BOTTOM
 10
13.563092
 20
19.497040
 40
0.477393
  0
CIRCLE
  8
PIN_BOTTOM
 10
14.833092
 20
20.767040
 40
0.477393
  0
CIRCLE
  8
PIN_BOTTOM
 10
14.833092
 20
19.497040
 40
0.477393
  0
POLYLINE
  8
BG_OUTLINE
 66
1
 70
1
 40
0.000000
 41
0.000000
 39
0.000000
  0
VERTEX
  8
BG_OUTLINE
 10
-5.842000
 20
22.733000
 40
0.000000
 41
0.000000
 42
0.000000
  0
VERTEX
  8
BG_OUTLINE
 10
32.282892
 20
22.733000
 40
0.000000
 41
0.000000
 42
0.000000
  0
VERTEX
  8
BG_OUTLINE
 10
32.282892
 20
-40.259000
 40
0.000000
 41
0.000000
 42
0.000000
  0
VERTEX
  8
BG_OUTLINE
 10
-5.842000
 20
-40.259000
 40
0.000000
 41
0.000000
 42
0.000000
  0
SEQEND
  0
TEXT
  8
BG_ASSEMBLY_DETAIL
 10
16.891000
 20
-23.241000
 11
0.000000
 21
0.000000
 40
0.635000
 41
0.880000
 50
0.000000
  7
STANDARD
 71
2
 72
0
  1
G
 73
0
  0
TEXT
  8
BG_ASSEMBLY_DETAIL
 10
8.382000
 20
-23.622000
 11
0.000000
 21
0.000000
 40
0.635000
 41
0.880000
 50
0.000000
  7
STANDARD
 71
2
 72
0
  1
A1
 73
0
  0
TEXT
  8
BG_ASSEMBLY_DETAIL
 10
6.604000
 20
-33.655000
 11
0.000000
 21
0.000000
 40
0.635000
 41
0.880000
 50
0.000000
  7
STANDARD
 71
2
 72
0
  1
A2
 73
0
  0
TEXT
  8
DF_FILM_LABEL_OUTLINE
 10
-6.477000
 20
30.353000
 11
0.000000
 21
0.000000
 40
2.540000
 41
1.000000
 50
0.000000
  7
STANDARD
 71
0
 72
0
  1
DATE: 03/08/2015
 73
0
  0
TEXT
  8
DF_FILM_LABEL_OUTLINE
 10
-6.388100
 20
35.608514
 11
0.000000
 21
0.000000
 40
2.540000
 41
1.000000
 50
0.000000
  7
STANDARD
 71
0
 72
0
  1
POWER BOARD
 73
0
  0
TEXT
  8
PG_ASSEMBLY_BOTTOM
 10
-6.858000
 20
25.781000
 11
0.000000
 21
0.000000
 40
2.540000
 41
1.000000
 50
0.000000
  7
STANDARD
 71
0
 72
0
  1
ASSEMBLY BOTTOM
 73
0
  0
ENDSEC
  0
EOF
