  0
SECTION
  2
HEADER
  9
$ACADVER
  1
AC1009
  9
$INSBASE
 10
0.000000
 20
0.000000
  9
$LIMMIN
 10
-582.422000
 20
-523.290800
  9
$LIMMAX
 10
1404.917942
 20
2822.651708
  9
$EXTMIN
 10
-582.422000
 20
-523.290800
  9
$EXTMAX
 10
1404.917942
 20
2822.651708
  9
$ATTMODE
 70
0
  9
$LUNITS
 70
2
  9
$LUPREC
 70
2
  9
$THICKNESS
 40
0.711200
  0
ENDSEC
  0
SECTION
  2
TABLES
  0
TABLE
  2
LTYPE
 70
1
  0
LTYPE
  3
Solid Line
  2
CONTINUOUS
 70
0
 72
65
 73
0
 40
0.000000
  0
ENDTAB
  0
TABLE
  2
LAYER
 70
5
  0
LAYER
  2
BG_OUTLINE
 70
0
 62
1
  6
CONTINUOUS
  0
LAYER
  2
DF_FILM_LABEL_OUTLINE
 70
0
 62
2
  6
CONTINUOUS
  0
LAYER
  2
PG_ASSEMBLY_TOP
 70
0
 62
3
  6
CONTINUOUS
  0
LAYER
  2
PIN_TOP
 70
0
 62
4
  6
CONTINUOUS
  0
LAYER
  2
RD_ASSEMBLY_TOP
 70
0
 62
5
  6
CONTINUOUS
  0
ENDTAB
  0
TABLE
  2
STYLE
 70
1
  0
STYLE
  2
STANDARD
 70
0
 40
0.000000
 41
1.000000
 50
0.000000
 71
0
 42
0.200000
  3
txt
  0
ENDTAB
  0
ENDSEC
  0
SECTION
  2
BLOCKS
  0
BLOCK
  8
0
  2
FIGURE_CIRCLE
 70
0
 10
0.000000
 20
0.000000
  0
CIRCLE
  8
0
 10
0.000000
 20
0.000000
 40
0.500000
  0
ENDBLK
  0
BLOCK
  8
0
  2
FIGURE_SQUARE
 70
0
 10
0.000000
 20
0.000000
  0
POLYLINE
  8
0
 66
1
 70
1
 40
0.000000
 41
0.000000
 39
0.000000
  0
VERTEX
  8
0
 10
-0.500000
 20
-0.500000
 40
0.000000
 41
0.000000
 42
0.000000
  0
VERTEX
  8
0
 10
-0.500000
 20
0.500000
 40
0.000000
 41
0.000000
 42
0.000000
  0
VERTEX
  8
0
 10
0.500000
 20
0.500000
 40
0.000000
 41
0.000000
 42
0.000000
  0
VERTEX
  8
0
 10
0.500000
 20
-0.500000
 40
0.000000
 41
0.000000
 42
0.000000
  0
SEQEND
  0
ENDBLK
  0
BLOCK
  8
0
  2
FIGURE_HEX
 70
0
 10
0.000000
 20
0.000000
  0
POLYLINE
  8
0
 66
1
 70
1
 40
0.000000
 41
0.000000
 39
0.000000
  0
VERTEX
  8
0
 10
-0.500000
 20
0.000000
 40
0.000000
 41
0.000000
 42
0.000000
  0
VERTEX
  8
0
 10
-0.250000
 20
0.500000
 40
0.000000
 41
0.000000
 42
0.000000
  0
VERTEX
  8
0
 10
0.250000
 20
0.500000
 40
0.000000
 41
0.000000
 42
0.000000
  0
VERTEX
  8
0
 10
0.500000
 20
0.000000
 40
0.000000
 41
0.000000
 42
0.000000
  0
VERTEX
  8
0
 10
0.250000
 20
-0.500000
 40
0.000000
 41
0.000000
 42
0.000000
  0
VERTEX
  8
0
 10
-0.250000
 20
-0.500000
 40
0.000000
 41
0.000000
 42
0.000000
  0
SEQEND
  0
ENDBLK
  0
BLOCK
  8
0
  2
FIGURE_OCT
 70
0
 10
0.000000
 20
0.000000
  0
POLYLINE
  8
0
 66
1
 70
1
 40
0.000000
 41
0.000000
 39
0.000000
  0
VERTEX
  8
0
 10
-0.500000
 20
-0.207100
 40
0.000000
 41
0.000000
 42
0.000000
  0
VERTEX
  8
0
 10
-0.500000
 20
0.207100
 40
0.000000
 41
0.000000
 42
0.000000
  0
VERTEX
  8
0
 10
-0.207100
 20
0.500000
 40
0.000000
 41
0.000000
 42
0.000000
  0
VERTEX
  8
0
 10
0.207100
 20
0.500000
 40
0.000000
 41
0.000000
 42
0.000000
  0
VERTEX
  8
0
 10
0.500000
 20
0.207100
 40
0.000000
 41
0.000000
 42
0.000000
  0
VERTEX
  8
0
 10
0.500000
 20
-0.207100
 40
0.000000
 41
0.000000
 42
0.000000
  0
VERTEX
  8
0
 10
0.207100
 20
-0.500000
 40
0.000000
 41
0.000000
 42
0.000000
  0
VERTEX
  8
0
 10
-0.207100
 20
-0.500000
 40
0.000000
 41
0.000000
 42
0.000000
  0
SEQEND
  0
ENDBLK
  0
BLOCK
  8
0
  2
FIGURE_OBLONG
 70
0
 10
0.000000
 20
0.000000
  0
POLYLINE
  8
0
 66
1
 70
1
 40
0.000000
 41
0.000000
 39
0.000000
  0
VERTEX
  8
0
 10
-0.500000
 20
-0.125000
 40
0.000000
 41
0.000000
 42
0.000000
  0
VERTEX
  8
0
 10
-0.500000
 20
0.125000
 40
0.000000
 41
0.000000
 42
0.000000
  0
VERTEX
  8
0
 10
-0.416000
 20
0.375000
 40
0.000000
 41
0.000000
 42
0.000000
  0
VERTEX
  8
0
 10
-0.250000
 20
0.500000
 40
0.000000
 41
0.000000
 42
0.000000
  0
VERTEX
  8
0
 10
0.250000
 20
0.500000
 40
0.000000
 41
0.000000
 42
0.000000
  0
VERTEX
  8
0
 10
0.416000
 20
0.375000
 40
0.000000
 41
0.000000
 42
0.000000
  0
VERTEX
  8
0
 10
0.500000
 20
0.125000
 40
0.000000
 41
0.000000
 42
0.000000
  0
VERTEX
  8
0
 10
0.500000
 20
-0.125000
 40
0.000000
 41
0.000000
 42
0.000000
  0
VERTEX
  8
0
 10
0.416000
 20
-0.375000
 40
0.000000
 41
0.000000
 42
0.000000
  0
VERTEX
  8
0
 10
0.250000
 20
-0.500000
 40
0.000000
 41
0.000000
 42
0.000000
  0
VERTEX
  8
0
 10
-0.250000
 20
-0.500000
 40
0.000000
 41
0.000000
 42
0.000000
  0
VERTEX
  8
0
 10
-0.416000
 20
-0.375000
 40
0.000000
 41
0.000000
 42
0.000000
  0
SEQEND
  0
ENDBLK
  0
BLOCK
  8
0
  2
FIGURE_TRI
 70
0
 10
0.000000
 20
0.000000
  0
POLYLINE
  8
0
 66
1
 70
1
 40
0.000000
 41
0.000000
 39
0.000000
  0
VERTEX
  8
0
 10
-0.500000
 20
-0.500000
 40
0.000000
 41
0.000000
 42
0.000000
  0
VERTEX
  8
0
 10
0.000000
 20
0.500000
 40
0.000000
 41
0.000000
 42
0.000000
  0
VERTEX
  8
0
 10
0.500000
 20
-0.500000
 40
0.000000
 41
0.000000
 42
0.000000
  0
SEQEND
  0
ENDBLK
  0
BLOCK
  8
0
  2
FIGURE_CROSS
 70
0
 10
0.000000
 20
0.000000
  0
POLYLINE
  8
0
 66
1
 70
0
 40
0.000000
 41
0.000000
 39
0.000000
  0
VERTEX
  8
0
 10
-0.500000
 20
0.000000
 40
0.000000
 41
0.000000
 42
0.000000
  0
VERTEX
  8
0
 10
0.500000
 20
0.000000
 40
0.000000
 41
0.000000
 42
0.000000
  0
SEQEND
  0
POLYLINE
  8
0
 66
1
 70
0
 40
0.000000
 41
0.000000
 39
0.000000
  0
VERTEX
  8
0
 10
0.000000
 20
0.500000
 40
0.000000
 41
0.000000
 42
0.000000
  0
VERTEX
  8
0
 10
0.000000
 20
-0.500000
 40
0.000000
 41
0.000000
 42
0.000000
  0
SEQEND
  0
ENDBLK
  0
BLOCK
  8
0
  2
FIGURE_DIAMOND
 70
0
 10
0.000000
 20
0.000000
  0
POLYLINE
  8
0
 66
1
 70
1
 40
0.000000
 41
0.000000
 39
0.000000
  0
VERTEX
  8
0
 10
-0.500000
 20
0.000000
 40
0.000000
 41
0.000000
 42
0.000000
  0
VERTEX
  8
0
 10
0.000000
 20
0.500000
 40
0.000000
 41
0.000000
 42
0.000000
  0
VERTEX
  8
0
 10
0.500000
 20
0.000000
 40
0.000000
 41
0.000000
 42
0.000000
  0
VERTEX
  8
0
 10
0.000000
 20
-0.500000
 40
0.000000
 41
0.000000
 42
0.000000
  0
SEQEND
  0
ENDBLK
  0
ENDSEC
  0
SECTION
  2
ENTITIES
  0
POLYLINE
  8
PIN_TOP
 66
1
 70
1
 40
0.000000
 41
0.000000
 39
0.000000
  0
VERTEX
  8
PIN_TOP
 10
17.104106
 20
-17.054068
 40
0.000000
 41
0.000000
 42
0.000000
  0
VERTEX
  8
PIN_TOP
 10
17.104106
 20
-18.616168
 40
0.000000
 41
0.000000
 42
0.000000
  0
VERTEX
  8
PIN_TOP
 10
15.542006
 20
-18.616168
 40
0.000000
 41
0.000000
 42
0.000000
  0
VERTEX
  8
PIN_TOP
 10
15.542006
 20
-17.054068
 40
0.000000
 41
0.000000
 42
0.000000
  0
SEQEND
  0
CIRCLE
  8
PIN_TOP
 10
7.679944
 20
-17.835118
 40
0.781050
  0
POLYLINE
  8
PG_ASSEMBLY_TOP
 66
1
 70
1
 40
0.000000
 41
0.000000
 39
0.000000
  0
VERTEX
  8
PG_ASSEMBLY_TOP
 10
6.180074
 20
-20.144994
 40
0.000000
 41
0.000000
 42
0.000000
  0
VERTEX
  8
PG_ASSEMBLY_TOP
 10
6.180074
 20
-16.685006
 40
0.000000
 41
0.000000
 42
0.000000
  0
VERTEX
  8
PG_ASSEMBLY_TOP
 10
17.823180
 20
-16.685006
 40
0.000000
 41
0.000000
 42
0.000000
  0
VERTEX
  8
PG_ASSEMBLY_TOP
 10
17.823180
 20
-20.144994
 40
0.000000
 41
0.000000
 42
0.000000
  0
SEQEND
  0
TEXT
  8
RD_ASSEMBLY_TOP
 10
11.557000
 20
-19.642582
 11
0.000000
 21
0.000000
 40
0.635000
 41
0.880000
 50
0.000000
  7
STANDARD
 71
0
 72
0
  1
RV1
 73
0
  0
POLYLINE
  8
PIN_TOP
 66
1
 70
1
 40
0.000000
 41
0.000000
 39
0.000000
  0
VERTEX
  8
PIN_TOP
 10
0.522986
 20
5.803900
 40
0.000000
 41
0.000000
 42
0.000000
  0
VERTEX
  8
PIN_TOP
 10
0.522986
 20
4.102100
 40
0.000000
 41
0.000000
 42
0.000000
  0
VERTEX
  8
PIN_TOP
 10
-0.747014
 20
4.102100
 40
0.000000
 41
0.000000
 42
0.000000
  0
VERTEX
  8
PIN_TOP
 10
-0.747014
 20
5.803900
 40
0.000000
 41
0.000000
 42
0.000000
  0
SEQEND
  0
POLYLINE
  8
PIN_TOP
 66
1
 70
1
 40
0.000000
 41
0.000000
 39
0.000000
  0
VERTEX
  8
PIN_TOP
 10
-2.525014
 20
5.803900
 40
0.000000
 41
0.000000
 42
0.000000
  0
VERTEX
  8
PIN_TOP
 10
-2.525014
 20
4.102100
 40
0.000000
 41
0.000000
 42
0.000000
  0
VERTEX
  8
PIN_TOP
 10
-3.795014
 20
4.102100
 40
0.000000
 41
0.000000
 42
0.000000
  0
VERTEX
  8
PIN_TOP
 10
-3.795014
 20
5.803900
 40
0.000000
 41
0.000000
 42
0.000000
  0
SEQEND
  0
POLYLINE
  8
PG_ASSEMBLY_TOP
 66
1
 70
1
 40
0.000000
 41
0.000000
 39
0.000000
  0
VERTEX
  8
PG_ASSEMBLY_TOP
 10
0.827786
 20
6.121400
 40
0.000000
 41
0.000000
 42
0.000000
  0
VERTEX
  8
PG_ASSEMBLY_TOP
 10
0.827786
 20
3.784600
 40
0.000000
 41
0.000000
 42
0.000000
  0
VERTEX
  8
PG_ASSEMBLY_TOP
 10
-4.099814
 20
3.784600
 40
0.000000
 41
0.000000
 42
0.000000
  0
VERTEX
  8
PG_ASSEMBLY_TOP
 10
-4.099814
 20
6.121400
 40
0.000000
 41
0.000000
 42
0.000000
  0
SEQEND
  0
TEXT
  8
RD_ASSEMBLY_TOP
 10
-1.524085
 20
5.080000
 11
-1.312418
 21
5.080000
 40
0.635000
 41
0.880000
 50
90.000000
  7
STANDARD
 71
0
 72
1
  1
C17
 73
0
  0
POLYLINE
  8
PIN_TOP
 66
1
 70
1
 40
0.000000
 41
0.000000
 39
0.000000
  0
VERTEX
  8
PIN_TOP
 10
0.522986
 20
8.216900
 40
0.000000
 41
0.000000
 42
0.000000
  0
VERTEX
  8
PIN_TOP
 10
0.522986
 20
6.515100
 40
0.000000
 41
0.000000
 42
0.000000
  0
VERTEX
  8
PIN_TOP
 10
-0.747014
 20
6.515100
 40
0.000000
 41
0.000000
 42
0.000000
  0
VERTEX
  8
PIN_TOP
 10
-0.747014
 20
8.216900
 40
0.000000
 41
0.000000
 42
0.000000
  0
SEQEND
  0
POLYLINE
  8
PIN_TOP
 66
1
 70
1
 40
0.000000
 41
0.000000
 39
0.000000
  0
VERTEX
  8
PIN_TOP
 10
-2.525014
 20
8.216900
 40
0.000000
 41
0.000000
 42
0.000000
  0
VERTEX
  8
PIN_TOP
 10
-2.525014
 20
6.515100
 40
0.000000
 41
0.000000
 42
0.000000
  0
VERTEX
  8
PIN_TOP
 10
-3.795014
 20
6.515100
 40
0.000000
 41
0.000000
 42
0.000000
  0
VERTEX
  8
PIN_TOP
 10
-3.795014
 20
8.216900
 40
0.000000
 41
0.000000
 42
0.000000
  0
SEQEND
  0
POLYLINE
  8
PG_ASSEMBLY_TOP
 66
1
 70
1
 40
0.000000
 41
0.000000
 39
0.000000
  0
VERTEX
  8
PG_ASSEMBLY_TOP
 10
0.827786
 20
8.534400
 40
0.000000
 41
0.000000
 42
0.000000
  0
VERTEX
  8
PG_ASSEMBLY_TOP
 10
0.827786
 20
6.197600
 40
0.000000
 41
0.000000
 42
0.000000
  0
VERTEX
  8
PG_ASSEMBLY_TOP
 10
-4.099814
 20
6.197600
 40
0.000000
 41
0.000000
 42
0.000000
  0
VERTEX
  8
PG_ASSEMBLY_TOP
 10
-4.099814
 20
8.534400
 40
0.000000
 41
0.000000
 42
0.000000
  0
SEQEND
  0
TEXT
  8
RD_ASSEMBLY_TOP
 10
-1.524085
 20
7.493000
 11
-1.312418
 21
7.493000
 40
0.635000
 41
0.880000
 50
90.000000
  7
STANDARD
 71
0
 72
1
  1
C18
 73
0
  0
POLYLINE
  8
PIN_TOP
 66
1
 70
1
 40
0.000000
 41
0.000000
 39
0.000000
  0
VERTEX
  8
PIN_TOP
 10
22.950424
 20
-0.979424
 40
0.000000
 41
0.000000
 42
0.000000
  0
VERTEX
  8
PIN_TOP
 10
21.588476
 20
-0.979424
 40
0.000000
 41
0.000000
 42
0.000000
  0
VERTEX
  8
PIN_TOP
 10
21.588476
 20
0.382524
 40
0.000000
 41
0.000000
 42
0.000000
  0
VERTEX
  8
PIN_TOP
 10
22.950424
 20
0.382524
 40
0.000000
 41
0.000000
 42
0.000000
  0
SEQEND
  0
CIRCLE
  8
PIN_TOP
 10
24.809450
 20
-0.298450
 40
0.680974
  0
CIRCLE
  8
PIN_TOP
 10
27.349450
 20
-0.298450
 40
0.680974
  0
CIRCLE
  8
PIN_TOP
 10
29.889450
 20
-0.298450
 40
0.680974
  0
CIRCLE
  8
PIN_TOP
 10
29.889450
 20
10.204450
 40
0.680974
  0
CIRCLE
  8
PIN_TOP
 10
27.349450
 20
10.204450
 40
0.680974
  0
CIRCLE
  8
PIN_TOP
 10
24.809450
 20
10.204450
 40
0.680974
  0
CIRCLE
  8
PIN_TOP
 10
22.269450
 20
10.204450
 40
0.680974
  0
POLYLINE
  8
PG_ASSEMBLY_TOP
 66
1
 70
1
 40
0.000000
 41
0.000000
 39
0.000000
  0
VERTEX
  8
PG_ASSEMBLY_TOP
 10
19.824700
 20
-1.797050
 40
0.000000
 41
0.000000
 42
0.000000
  0
VERTEX
  8
PG_ASSEMBLY_TOP
 10
19.824700
 20
11.703050
 40
0.000000
 41
0.000000
 42
0.000000
  0
VERTEX
  8
PG_ASSEMBLY_TOP
 10
32.334200
 20
11.703050
 40
0.000000
 41
0.000000
 42
0.000000
  0
VERTEX
  8
PG_ASSEMBLY_TOP
 10
32.334200
 20
-1.797050
 40
0.000000
 41
0.000000
 42
0.000000
  0
SEQEND
  0
TEXT
  8
RD_ASSEMBLY_TOP
 10
26.077333
 20
4.445000
 11
26.289000
 21
4.445000
 40
0.635000
 41
0.880000
 50
0.000000
  7
STANDARD
 71
0
 72
1
  1
T2
 73
0
  0
POLYLINE
  8
PIN_TOP
 66
1
 70
1
 40
0.000000
 41
0.000000
 39
0.000000
  0
VERTEX
  8
PIN_TOP
 10
4.807966
 20
12.781026
 40
0.000000
 41
0.000000
 42
0.000000
  0
VERTEX
  8
PIN_TOP
 10
4.807966
 20
14.142974
 40
0.000000
 41
0.000000
 42
0.000000
  0
VERTEX
  8
PIN_TOP
 10
6.169914
 20
14.142974
 40
0.000000
 41
0.000000
 42
0.000000
  0
VERTEX
  8
PIN_TOP
 10
6.169914
 20
12.781026
 40
0.000000
 41
0.000000
 42
0.000000
  0
SEQEND
  0
CIRCLE
  8
PIN_TOP
 10
8.989060
 20
13.462000
 40
0.680974
  0
POLYLINE
  8
PG_ASSEMBLY_TOP
 66
1
 70
1
 40
0.000000
 41
0.000000
 39
0.000000
  0
VERTEX
  8
PG_ASSEMBLY_TOP
 10
11.238992
 20
13.462000
 40
0.000000
 41
0.000000
 42
1.000000
  0
VERTEX
  8
PG_ASSEMBLY_TOP
 10
3.238888
 20
13.462000
 40
0.000000
 41
0.000000
 42
1.000000
  0
SEQEND
  0
TEXT
  8
PG_ASSEMBLY_TOP
 10
4.614333
 20
9.567418
 11
4.826000
 21
9.567418
 40
0.635000
 41
0.880000
 50
0.000000
  7
STANDARD
 71
0
 72
1
  1
+
 73
0
  0
TEXT
  8
RD_ASSEMBLY_TOP
 10
6.773333
 20
11.091418
 11
6.985000
 21
11.091418
 40
0.635000
 41
0.880000
 50
0.000000
  7
STANDARD
 71
0
 72
1
  1
C16
 73
0
  0
POLYLINE
  8
PIN_TOP
 66
1
 70
1
 40
0.000000
 41
0.000000
 39
0.000000
  0
VERTEX
  8
PIN_TOP
 10
24.719026
 20
-4.566158
 40
0.000000
 41
0.000000
 42
0.000000
  0
VERTEX
  8
PIN_TOP
 10
26.080974
 20
-4.566158
 40
0.000000
 41
0.000000
 42
0.000000
  0
VERTEX
  8
PIN_TOP
 10
26.080974
 20
-5.928106
 40
0.000000
 41
0.000000
 42
0.000000
  0
VERTEX
  8
PIN_TOP
 10
24.719026
 20
-5.928106
 40
0.000000
 41
0.000000
 42
0.000000
  0
SEQEND
  0
CIRCLE
  8
PIN_TOP
 10
25.400000
 20
-10.247122
 40
0.680974
  0
POLYLINE
  8
PG_ASSEMBLY_TOP
 66
1
 70
1
 40
0.000000
 41
0.000000
 39
0.000000
  0
VERTEX
  8
PG_ASSEMBLY_TOP
 10
30.399990
 20
-7.747254
 40
0.000000
 41
0.000000
 42
1.000000
  0
VERTEX
  8
PG_ASSEMBLY_TOP
 10
20.400010
 20
-7.747010
 40
0.000000
 41
0.000000
 42
1.000000
  0
SEQEND
  0
TEXT
  8
PG_ASSEMBLY_TOP
 10
28.405751
 20
-3.429000
 11
28.617418
 21
-3.429000
 40
0.635000
 41
0.880000
 50
270.000000
  7
STANDARD
 71
0
 72
1
  1
+
 73
0
  0
TEXT
  8
RD_ASSEMBLY_TOP
 10
25.188333
 20
-8.085836
 11
25.400000
 21
-8.085836
 40
0.635000
 41
0.880000
 50
0.000000
  7
STANDARD
 71
0
 72
1
  1
C15
 73
0
  0
POLYLINE
  8
PIN_TOP
 66
1
 70
1
 40
0.000000
 41
0.000000
 39
0.000000
  0
VERTEX
  8
PIN_TOP
 10
-2.331974
 20
1.148842
 40
0.000000
 41
0.000000
 42
0.000000
  0
VERTEX
  8
PIN_TOP
 10
-0.970026
 20
1.148842
 40
0.000000
 41
0.000000
 42
0.000000
  0
VERTEX
  8
PIN_TOP
 10
-0.970026
 20
-0.213106
 40
0.000000
 41
0.000000
 42
0.000000
  0
VERTEX
  8
PIN_TOP
 10
-2.331974
 20
-0.213106
 40
0.000000
 41
0.000000
 42
0.000000
  0
SEQEND
  0
CIRCLE
  8
PIN_TOP
 10
-1.651000
 20
-4.532122
 40
0.680974
  0
POLYLINE
  8
PG_ASSEMBLY_TOP
 66
1
 70
1
 40
0.000000
 41
0.000000
 39
0.000000
  0
VERTEX
  8
PG_ASSEMBLY_TOP
 10
3.348990
 20
-2.032254
 40
0.000000
 41
0.000000
 42
1.000000
  0
VERTEX
  8
PG_ASSEMBLY_TOP
 10
-6.650990
 20
-2.032010
 40
0.000000
 41
0.000000
 42
1.000000
  0
SEQEND
  0
TEXT
  8
PG_ASSEMBLY_TOP
 10
1.862751
 20
1.651000
 11
2.074418
 21
1.651000
 40
0.635000
 41
0.880000
 50
270.000000
  7
STANDARD
 71
0
 72
1
  1
+
 73
0
  0
TEXT
  8
RD_ASSEMBLY_TOP
 10
-1.862667
 20
-2.413000
 11
-1.651000
 21
-2.413000
 40
0.635000
 41
0.880000
 50
0.000000
  7
STANDARD
 71
0
 72
1
  1
C14
 73
0
  0
POLYLINE
  8
PIN_TOP
 66
1
 70
1
 40
0.000000
 41
0.000000
 39
0.000000
  0
VERTEX
  8
PIN_TOP
 10
27.211909
 20
-13.886307
 40
0.000000
 41
0.000000
 42
0.000000
  0
VERTEX
  8
PIN_TOP
 10
28.461843
 20
-13.886307
 40
0.000000
 41
0.000000
 42
0.000000
  0
VERTEX
  8
PIN_TOP
 10
28.461843
 20
-16.636365
 40
0.000000
 41
0.000000
 42
0.000000
  0
VERTEX
  8
PIN_TOP
 10
27.211909
 20
-16.636365
 40
0.000000
 41
0.000000
 42
0.000000
  0
SEQEND
  0
POLYLINE
  8
PIN_TOP
 66
1
 70
1
 40
0.000000
 41
0.000000
 39
0.000000
  0
VERTEX
  8
PIN_TOP
 10
30.212157
 20
-13.886307
 40
0.000000
 41
0.000000
 42
0.000000
  0
VERTEX
  8
PIN_TOP
 10
31.462091
 20
-13.886307
 40
0.000000
 41
0.000000
 42
0.000000
  0
VERTEX
  8
PIN_TOP
 10
31.462091
 20
-16.636365
 40
0.000000
 41
0.000000
 42
0.000000
  0
VERTEX
  8
PIN_TOP
 10
30.212157
 20
-16.636365
 40
0.000000
 41
0.000000
 42
0.000000
  0
SEQEND
  0
POLYLINE
  8
PG_ASSEMBLY_TOP
 66
1
 70
1
 40
0.000000
 41
0.000000
 39
0.000000
  0
VERTEX
  8
PG_ASSEMBLY_TOP
 10
30.936946
 20
-14.011402
 40
0.152400
 41
0.152400
 42
0.000000
  0
VERTEX
  8
PG_ASSEMBLY_TOP
 10
27.737054
 20
-14.011402
 40
0.152400
 41
0.152400
 42
0.000000
  0
VERTEX
  8
PG_ASSEMBLY_TOP
 10
27.737054
 20
-16.511270
 40
0.152400
 41
0.152400
 42
0.000000
  0
VERTEX
  8
PG_ASSEMBLY_TOP
 10
30.936946
 20
-16.511270
 40
0.152400
 41
0.152400
 42
0.000000
  0
SEQEND
  0
TEXT
  8
RD_ASSEMBLY_TOP
 10
29.718000
 20
-16.002000
 11
0.000000
 21
0.000000
 40
0.635000
 41
0.880000
 50
90.000000
  7
STANDARD
 71
0
 72
0
  1
R40
 73
0
  0
POLYLINE
  8
PIN_TOP
 66
1
 70
1
 40
0.000000
 41
0.000000
 39
0.000000
  0
VERTEX
  8
PIN_TOP
 10
31.462091
 20
-27.410029
 40
0.000000
 41
0.000000
 42
0.000000
  0
VERTEX
  8
PIN_TOP
 10
30.212157
 20
-27.410029
 40
0.000000
 41
0.000000
 42
0.000000
  0
VERTEX
  8
PIN_TOP
 10
30.212157
 20
-24.659971
 40
0.000000
 41
0.000000
 42
0.000000
  0
VERTEX
  8
PIN_TOP
 10
31.462091
 20
-24.659971
 40
0.000000
 41
0.000000
 42
0.000000
  0
SEQEND
  0
POLYLINE
  8
PIN_TOP
 66
1
 70
1
 40
0.000000
 41
0.000000
 39
0.000000
  0
VERTEX
  8
PIN_TOP
 10
28.461843
 20
-27.410029
 40
0.000000
 41
0.000000
 42
0.000000
  0
VERTEX
  8
PIN_TOP
 10
27.211909
 20
-27.410029
 40
0.000000
 41
0.000000
 42
0.000000
  0
VERTEX
  8
PIN_TOP
 10
27.211909
 20
-24.659971
 40
0.000000
 41
0.000000
 42
0.000000
  0
VERTEX
  8
PIN_TOP
 10
28.461843
 20
-24.659971
 40
0.000000
 41
0.000000
 42
0.000000
  0
SEQEND
  0
POLYLINE
  8
PG_ASSEMBLY_TOP
 66
1
 70
1
 40
0.000000
 41
0.000000
 39
0.000000
  0
VERTEX
  8
PG_ASSEMBLY_TOP
 10
27.737054
 20
-27.284934
 40
0.152400
 41
0.152400
 42
0.000000
  0
VERTEX
  8
PG_ASSEMBLY_TOP
 10
30.936946
 20
-27.284934
 40
0.152400
 41
0.152400
 42
0.000000
  0
VERTEX
  8
PG_ASSEMBLY_TOP
 10
30.936946
 20
-24.785066
 40
0.152400
 41
0.152400
 42
0.000000
  0
VERTEX
  8
PG_ASSEMBLY_TOP
 10
27.737054
 20
-24.785066
 40
0.152400
 41
0.152400
 42
0.000000
  0
SEQEND
  0
TEXT
  8
RD_ASSEMBLY_TOP
 10
29.591000
 20
-26.797000
 11
0.000000
 21
0.000000
 40
0.635000
 41
0.880000
 50
90.000000
  7
STANDARD
 71
0
 72
0
  1
R36
 73
0
  0
POLYLINE
  8
PIN_TOP
 66
1
 70
1
 40
0.000000
 41
0.000000
 39
0.000000
  0
VERTEX
  8
PIN_TOP
 10
-2.815971
 20
-29.624909
 40
0.000000
 41
0.000000
 42
0.000000
  0
VERTEX
  8
PIN_TOP
 10
-2.815971
 20
-30.874843
 40
0.000000
 41
0.000000
 42
0.000000
  0
VERTEX
  8
PIN_TOP
 10
-5.566029
 20
-30.874843
 40
0.000000
 41
0.000000
 42
0.000000
  0
VERTEX
  8
PIN_TOP
 10
-5.566029
 20
-29.624909
 40
0.000000
 41
0.000000
 42
0.000000
  0
SEQEND
  0
POLYLINE
  8
PIN_TOP
 66
1
 70
1
 40
0.000000
 41
0.000000
 39
0.000000
  0
VERTEX
  8
PIN_TOP
 10
-2.815971
 20
-32.625157
 40
0.000000
 41
0.000000
 42
0.000000
  0
VERTEX
  8
PIN_TOP
 10
-2.815971
 20
-33.875091
 40
0.000000
 41
0.000000
 42
0.000000
  0
VERTEX
  8
PIN_TOP
 10
-5.566029
 20
-33.875091
 40
0.000000
 41
0.000000
 42
0.000000
  0
VERTEX
  8
PIN_TOP
 10
-5.566029
 20
-32.625157
 40
0.000000
 41
0.000000
 42
0.000000
  0
SEQEND
  0
POLYLINE
  8
PG_ASSEMBLY_TOP
 66
1
 70
1
 40
0.000000
 41
0.000000
 39
0.000000
  0
VERTEX
  8
PG_ASSEMBLY_TOP
 10
-2.941066
 20
-33.349946
 40
0.152400
 41
0.152400
 42
0.000000
  0
VERTEX
  8
PG_ASSEMBLY_TOP
 10
-2.941066
 20
-30.150054
 40
0.152400
 41
0.152400
 42
0.000000
  0
VERTEX
  8
PG_ASSEMBLY_TOP
 10
-5.440934
 20
-30.150054
 40
0.152400
 41
0.152400
 42
0.000000
  0
VERTEX
  8
PG_ASSEMBLY_TOP
 10
-5.440934
 20
-33.349946
 40
0.152400
 41
0.152400
 42
0.000000
  0
SEQEND
  0
TEXT
  8
RD_ASSEMBLY_TOP
 10
-4.953000
 20
-32.004000
 11
0.000000
 21
0.000000
 40
0.635000
 41
0.880000
 50
0.000000
  7
STANDARD
 71
0
 72
0
  1
R35
 73
0
  0
POLYLINE
  8
PIN_TOP
 66
1
 70
1
 40
0.000000
 41
0.000000
 39
0.000000
  0
VERTEX
  8
PIN_TOP
 10
-2.815971
 20
-12.897739
 40
0.000000
 41
0.000000
 42
0.000000
  0
VERTEX
  8
PIN_TOP
 10
-2.815971
 20
-14.147673
 40
0.000000
 41
0.000000
 42
0.000000
  0
VERTEX
  8
PIN_TOP
 10
-5.566029
 20
-14.147673
 40
0.000000
 41
0.000000
 42
0.000000
  0
VERTEX
  8
PIN_TOP
 10
-5.566029
 20
-12.897739
 40
0.000000
 41
0.000000
 42
0.000000
  0
SEQEND
  0
POLYLINE
  8
PIN_TOP
 66
1
 70
1
 40
0.000000
 41
0.000000
 39
0.000000
  0
VERTEX
  8
PIN_TOP
 10
-2.815971
 20
-15.897987
 40
0.000000
 41
0.000000
 42
0.000000
  0
VERTEX
  8
PIN_TOP
 10
-2.815971
 20
-17.147921
 40
0.000000
 41
0.000000
 42
0.000000
  0
VERTEX
  8
PIN_TOP
 10
-5.566029
 20
-17.147921
 40
0.000000
 41
0.000000
 42
0.000000
  0
VERTEX
  8
PIN_TOP
 10
-5.566029
 20
-15.897987
 40
0.000000
 41
0.000000
 42
0.000000
  0
SEQEND
  0
POLYLINE
  8
PG_ASSEMBLY_TOP
 66
1
 70
1
 40
0.000000
 41
0.000000
 39
0.000000
  0
VERTEX
  8
PG_ASSEMBLY_TOP
 10
-2.941066
 20
-16.622776
 40
0.152400
 41
0.152400
 42
0.000000
  0
VERTEX
  8
PG_ASSEMBLY_TOP
 10
-2.941066
 20
-13.422884
 40
0.152400
 41
0.152400
 42
0.000000
  0
VERTEX
  8
PG_ASSEMBLY_TOP
 10
-5.440934
 20
-13.422884
 40
0.152400
 41
0.152400
 42
0.000000
  0
VERTEX
  8
PG_ASSEMBLY_TOP
 10
-5.440934
 20
-16.622776
 40
0.152400
 41
0.152400
 42
0.000000
  0
SEQEND
  0
TEXT
  8
RD_ASSEMBLY_TOP
 10
-4.953000
 20
-15.367000
 11
0.000000
 21
0.000000
 40
0.635000
 41
0.880000
 50
0.000000
  7
STANDARD
 71
0
 72
0
  1
R39
 73
0
  0
POLYLINE
  8
PIN_TOP
 66
1
 70
1
 40
0.000000
 41
0.000000
 39
0.000000
  0
VERTEX
  8
PIN_TOP
 10
27.211909
 20
-21.148167
 40
0.000000
 41
0.000000
 42
0.000000
  0
VERTEX
  8
PIN_TOP
 10
28.461843
 20
-21.148167
 40
0.000000
 41
0.000000
 42
0.000000
  0
VERTEX
  8
PIN_TOP
 10
28.461843
 20
-23.898225
 40
0.000000
 41
0.000000
 42
0.000000
  0
VERTEX
  8
PIN_TOP
 10
27.211909
 20
-23.898225
 40
0.000000
 41
0.000000
 42
0.000000
  0
SEQEND
  0
POLYLINE
  8
PIN_TOP
 66
1
 70
1
 40
0.000000
 41
0.000000
 39
0.000000
  0
VERTEX
  8
PIN_TOP
 10
30.212157
 20
-21.148167
 40
0.000000
 41
0.000000
 42
0.000000
  0
VERTEX
  8
PIN_TOP
 10
31.462091
 20
-21.148167
 40
0.000000
 41
0.000000
 42
0.000000
  0
VERTEX
  8
PIN_TOP
 10
31.462091
 20
-23.898225
 40
0.000000
 41
0.000000
 42
0.000000
  0
VERTEX
  8
PIN_TOP
 10
30.212157
 20
-23.898225
 40
0.000000
 41
0.000000
 42
0.000000
  0
SEQEND
  0
POLYLINE
  8
PG_ASSEMBLY_TOP
 66
1
 70
1
 40
0.000000
 41
0.000000
 39
0.000000
  0
VERTEX
  8
PG_ASSEMBLY_TOP
 10
30.936946
 20
-21.273262
 40
0.152400
 41
0.152400
 42
0.000000
  0
VERTEX
  8
PG_ASSEMBLY_TOP
 10
27.737054
 20
-21.273262
 40
0.152400
 41
0.152400
 42
0.000000
  0
VERTEX
  8
PG_ASSEMBLY_TOP
 10
27.737054
 20
-23.773130
 40
0.152400
 41
0.152400
 42
0.000000
  0
VERTEX
  8
PG_ASSEMBLY_TOP
 10
30.936946
 20
-23.773130
 40
0.152400
 41
0.152400
 42
0.000000
  0
SEQEND
  0
TEXT
  8
RD_ASSEMBLY_TOP
 10
29.591000
 20
-23.241000
 11
0.000000
 21
0.000000
 40
0.635000
 41
0.880000
 50
90.000000
  7
STANDARD
 71
0
 72
0
  1
R33
 73
0
  0
POLYLINE
  8
PIN_TOP
 66
1
 70
1
 40
0.000000
 41
0.000000
 39
0.000000
  0
VERTEX
  8
PIN_TOP
 10
31.462091
 20
-20.267295
 40
0.000000
 41
0.000000
 42
0.000000
  0
VERTEX
  8
PIN_TOP
 10
30.212157
 20
-20.267295
 40
0.000000
 41
0.000000
 42
0.000000
  0
VERTEX
  8
PIN_TOP
 10
30.212157
 20
-17.517237
 40
0.000000
 41
0.000000
 42
0.000000
  0
VERTEX
  8
PIN_TOP
 10
31.462091
 20
-17.517237
 40
0.000000
 41
0.000000
 42
0.000000
  0
SEQEND
  0
POLYLINE
  8
PIN_TOP
 66
1
 70
1
 40
0.000000
 41
0.000000
 39
0.000000
  0
VERTEX
  8
PIN_TOP
 10
28.461843
 20
-20.267295
 40
0.000000
 41
0.000000
 42
0.000000
  0
VERTEX
  8
PIN_TOP
 10
27.211909
 20
-20.267295
 40
0.000000
 41
0.000000
 42
0.000000
  0
VERTEX
  8
PIN_TOP
 10
27.211909
 20
-17.517237
 40
0.000000
 41
0.000000
 42
0.000000
  0
VERTEX
  8
PIN_TOP
 10
28.461843
 20
-17.517237
 40
0.000000
 41
0.000000
 42
0.000000
  0
SEQEND
  0
POLYLINE
  8
PG_ASSEMBLY_TOP
 66
1
 70
1
 40
0.000000
 41
0.000000
 39
0.000000
  0
VERTEX
  8
PG_ASSEMBLY_TOP
 10
27.737054
 20
-20.142200
 40
0.152400
 41
0.152400
 42
0.000000
  0
VERTEX
  8
PG_ASSEMBLY_TOP
 10
30.936946
 20
-20.142200
 40
0.152400
 41
0.152400
 42
0.000000
  0
VERTEX
  8
PG_ASSEMBLY_TOP
 10
30.936946
 20
-17.642332
 40
0.152400
 41
0.152400
 42
0.000000
  0
VERTEX
  8
PG_ASSEMBLY_TOP
 10
27.737054
 20
-17.642332
 40
0.152400
 41
0.152400
 42
0.000000
  0
SEQEND
  0
TEXT
  8
RD_ASSEMBLY_TOP
 10
29.718000
 20
-19.558000
 11
0.000000
 21
0.000000
 40
0.635000
 41
0.880000
 50
90.000000
  7
STANDARD
 71
0
 72
0
  1
R34
 73
0
  0
POLYLINE
  8
PIN_TOP
 66
1
 70
1
 40
0.000000
 41
0.000000
 39
0.000000
  0
VERTEX
  8
PIN_TOP
 10
-2.815971
 20
-24.036909
 40
0.000000
 41
0.000000
 42
0.000000
  0
VERTEX
  8
PIN_TOP
 10
-2.815971
 20
-25.286843
 40
0.000000
 41
0.000000
 42
0.000000
  0
VERTEX
  8
PIN_TOP
 10
-5.566029
 20
-25.286843
 40
0.000000
 41
0.000000
 42
0.000000
  0
VERTEX
  8
PIN_TOP
 10
-5.566029
 20
-24.036909
 40
0.000000
 41
0.000000
 42
0.000000
  0
SEQEND
  0
POLYLINE
  8
PIN_TOP
 66
1
 70
1
 40
0.000000
 41
0.000000
 39
0.000000
  0
VERTEX
  8
PIN_TOP
 10
-2.815971
 20
-27.037157
 40
0.000000
 41
0.000000
 42
0.000000
  0
VERTEX
  8
PIN_TOP
 10
-2.815971
 20
-28.287091
 40
0.000000
 41
0.000000
 42
0.000000
  0
VERTEX
  8
PIN_TOP
 10
-5.566029
 20
-28.287091
 40
0.000000
 41
0.000000
 42
0.000000
  0
VERTEX
  8
PIN_TOP
 10
-5.566029
 20
-27.037157
 40
0.000000
 41
0.000000
 42
0.000000
  0
SEQEND
  0
POLYLINE
  8
PG_ASSEMBLY_TOP
 66
1
 70
1
 40
0.000000
 41
0.000000
 39
0.000000
  0
VERTEX
  8
PG_ASSEMBLY_TOP
 10
-2.941066
 20
-27.761946
 40
0.152400
 41
0.152400
 42
0.000000
  0
VERTEX
  8
PG_ASSEMBLY_TOP
 10
-2.941066
 20
-24.562054
 40
0.152400
 41
0.152400
 42
0.000000
  0
VERTEX
  8
PG_ASSEMBLY_TOP
 10
-5.440934
 20
-24.562054
 40
0.152400
 41
0.152400
 42
0.000000
  0
VERTEX
  8
PG_ASSEMBLY_TOP
 10
-5.440934
 20
-27.761946
 40
0.152400
 41
0.152400
 42
0.000000
  0
SEQEND
  0
TEXT
  8
RD_ASSEMBLY_TOP
 10
-4.826000
 20
-26.543000
 11
0.000000
 21
0.000000
 40
0.635000
 41
0.880000
 50
0.000000
  7
STANDARD
 71
0
 72
0
  1
R28
 73
0
  0
POLYLINE
  8
PIN_TOP
 66
1
 70
1
 40
0.000000
 41
0.000000
 39
0.000000
  0
VERTEX
  8
PIN_TOP
 10
-2.815971
 20
-18.448909
 40
0.000000
 41
0.000000
 42
0.000000
  0
VERTEX
  8
PIN_TOP
 10
-2.815971
 20
-19.698843
 40
0.000000
 41
0.000000
 42
0.000000
  0
VERTEX
  8
PIN_TOP
 10
-5.566029
 20
-19.698843
 40
0.000000
 41
0.000000
 42
0.000000
  0
VERTEX
  8
PIN_TOP
 10
-5.566029
 20
-18.448909
 40
0.000000
 41
0.000000
 42
0.000000
  0
SEQEND
  0
POLYLINE
  8
PIN_TOP
 66
1
 70
1
 40
0.000000
 41
0.000000
 39
0.000000
  0
VERTEX
  8
PIN_TOP
 10
-2.815971
 20
-21.449157
 40
0.000000
 41
0.000000
 42
0.000000
  0
VERTEX
  8
PIN_TOP
 10
-2.815971
 20
-22.699091
 40
0.000000
 41
0.000000
 42
0.000000
  0
VERTEX
  8
PIN_TOP
 10
-5.566029
 20
-22.699091
 40
0.000000
 41
0.000000
 42
0.000000
  0
VERTEX
  8
PIN_TOP
 10
-5.566029
 20
-21.449157
 40
0.000000
 41
0.000000
 42
0.000000
  0
SEQEND
  0
POLYLINE
  8
PG_ASSEMBLY_TOP
 66
1
 70
1
 40
0.000000
 41
0.000000
 39
0.000000
  0
VERTEX
  8
PG_ASSEMBLY_TOP
 10
-2.941066
 20
-22.173946
 40
0.152400
 41
0.152400
 42
0.000000
  0
VERTEX
  8
PG_ASSEMBLY_TOP
 10
-2.941066
 20
-18.974054
 40
0.152400
 41
0.152400
 42
0.000000
  0
VERTEX
  8
PG_ASSEMBLY_TOP
 10
-5.440934
 20
-18.974054
 40
0.152400
 41
0.152400
 42
0.000000
  0
VERTEX
  8
PG_ASSEMBLY_TOP
 10
-5.440934
 20
-22.173946
 40
0.152400
 41
0.152400
 42
0.000000
  0
SEQEND
  0
TEXT
  8
RD_ASSEMBLY_TOP
 10
-4.953000
 20
-20.955000
 11
0.000000
 21
0.000000
 40
0.635000
 41
0.880000
 50
0.000000
  7
STANDARD
 71
0
 72
0
  1
R29
 73
0
  0
POLYLINE
  8
PIN_TOP
 66
1
 70
1
 40
0.000000
 41
0.000000
 39
0.000000
  0
VERTEX
  8
PIN_TOP
 10
28.766008
 20
-30.647132
 40
0.000000
 41
0.000000
 42
0.000000
  0
VERTEX
  8
PIN_TOP
 10
28.766008
 20
-29.297122
 40
0.000000
 41
0.000000
 42
0.000000
  0
VERTEX
  8
PIN_TOP
 10
30.415992
 20
-29.297122
 40
0.000000
 41
0.000000
 42
0.000000
  0
VERTEX
  8
PIN_TOP
 10
30.415992
 20
-30.647132
 40
0.000000
 41
0.000000
 42
0.000000
  0
SEQEND
  0
POLYLINE
  8
PIN_TOP
 66
1
 70
1
 40
0.000000
 41
0.000000
 39
0.000000
  0
VERTEX
  8
PIN_TOP
 10
27.816048
 20
-31.197042
 40
0.000000
 41
0.000000
 42
0.000000
  0
VERTEX
  8
PIN_TOP
 10
28.516072
 20
-31.197042
 40
0.000000
 41
0.000000
 42
0.000000
  0
VERTEX
  8
PIN_TOP
 10
28.516072
 20
-31.446978
 40
0.000000
 41
0.000000
 42
0.000000
  0
VERTEX
  8
PIN_TOP
 10
27.816048
 20
-31.446978
 40
0.000000
 41
0.000000
 42
0.000000
  0
SEQEND
  0
POLYLINE
  8
PIN_TOP
 66
1
 70
1
 40
0.000000
 41
0.000000
 39
0.000000
  0
VERTEX
  8
PIN_TOP
 10
27.816048
 20
-29.847032
 40
0.000000
 41
0.000000
 42
0.000000
  0
VERTEX
  8
PIN_TOP
 10
28.516072
 20
-29.847032
 40
0.000000
 41
0.000000
 42
0.000000
  0
VERTEX
  8
PIN_TOP
 10
28.516072
 20
-30.096968
 40
0.000000
 41
0.000000
 42
0.000000
  0
VERTEX
  8
PIN_TOP
 10
27.816048
 20
-30.096968
 40
0.000000
 41
0.000000
 42
0.000000
  0
SEQEND
  0
POLYLINE
  8
PIN_TOP
 66
1
 70
1
 40
0.000000
 41
0.000000
 39
0.000000
  0
VERTEX
  8
PIN_TOP
 10
27.816048
 20
-28.497022
 40
0.000000
 41
0.000000
 42
0.000000
  0
VERTEX
  8
PIN_TOP
 10
28.516072
 20
-28.497022
 40
0.000000
 41
0.000000
 42
0.000000
  0
VERTEX
  8
PIN_TOP
 10
28.516072
 20
-28.746958
 40
0.000000
 41
0.000000
 42
0.000000
  0
VERTEX
  8
PIN_TOP
 10
27.816048
 20
-28.746958
 40
0.000000
 41
0.000000
 42
0.000000
  0
SEQEND
  0
POLYLINE
  8
PIN_TOP
 66
1
 70
1
 40
0.000000
 41
0.000000
 39
0.000000
  0
VERTEX
  8
PIN_TOP
 10
30.665928
 20
-28.497022
 40
0.000000
 41
0.000000
 42
0.000000
  0
VERTEX
  8
PIN_TOP
 10
31.365952
 20
-28.497022
 40
0.000000
 41
0.000000
 42
0.000000
  0
VERTEX
  8
PIN_TOP
 10
31.365952
 20
-28.746958
 40
0.000000
 41
0.000000
 42
0.000000
  0
VERTEX
  8
PIN_TOP
 10
30.665928
 20
-28.746958
 40
0.000000
 41
0.000000
 42
0.000000
  0
SEQEND
  0
POLYLINE
  8
PIN_TOP
 66
1
 70
1
 40
0.000000
 41
0.000000
 39
0.000000
  0
VERTEX
  8
PIN_TOP
 10
30.665928
 20
-29.847032
 40
0.000000
 41
0.000000
 42
0.000000
  0
VERTEX
  8
PIN_TOP
 10
31.365952
 20
-29.847032
 40
0.000000
 41
0.000000
 42
0.000000
  0
VERTEX
  8
PIN_TOP
 10
31.365952
 20
-30.096968
 40
0.000000
 41
0.000000
 42
0.000000
  0
VERTEX
  8
PIN_TOP
 10
30.665928
 20
-30.096968
 40
0.000000
 41
0.000000
 42
0.000000
  0
SEQEND
  0
POLYLINE
  8
PIN_TOP
 66
1
 70
1
 40
0.000000
 41
0.000000
 39
0.000000
  0
VERTEX
  8
PIN_TOP
 10
30.665928
 20
-31.197042
 40
0.000000
 41
0.000000
 42
0.000000
  0
VERTEX
  8
PIN_TOP
 10
31.365952
 20
-31.197042
 40
0.000000
 41
0.000000
 42
0.000000
  0
VERTEX
  8
PIN_TOP
 10
31.365952
 20
-31.446978
 40
0.000000
 41
0.000000
 42
0.000000
  0
VERTEX
  8
PIN_TOP
 10
30.665928
 20
-31.446978
 40
0.000000
 41
0.000000
 42
0.000000
  0
SEQEND
  0
POLYLINE
  8
PG_ASSEMBLY_TOP
 66
1
 70
1
 40
0.000000
 41
0.000000
 39
0.000000
  0
VERTEX
  8
PG_ASSEMBLY_TOP
 10
27.816048
 20
-30.971998
 40
0.000000
 41
0.000000
 42
0.000000
  0
VERTEX
  8
PG_ASSEMBLY_TOP
 10
31.365952
 20
-30.971998
 40
0.000000
 41
0.000000
 42
0.000000
  0
VERTEX
  8
PG_ASSEMBLY_TOP
 10
31.365952
 20
-28.972002
 40
0.000000
 41
0.000000
 42
0.000000
  0
VERTEX
  8
PG_ASSEMBLY_TOP
 10
27.816048
 20
-28.972002
 40
0.000000
 41
0.000000
 42
0.000000
  0
SEQEND
  0
POLYLINE
  8
PG_ASSEMBLY_TOP
 66
1
 70
1
 40
0.000000
 41
0.000000
 39
0.000000
  0
VERTEX
  8
PG_ASSEMBLY_TOP
 10
32.047942
 20
-31.645098
 40
0.000000
 41
0.000000
 42
0.000000
  0
VERTEX
  8
PG_ASSEMBLY_TOP
 10
32.047942
 20
-31.044896
 40
0.000000
 41
0.000000
 42
0.000000
  0
VERTEX
  8
PG_ASSEMBLY_TOP
 10
31.747968
 20
-31.345124
 40
0.000000
 41
0.000000
 42
0.000000
  0
SEQEND
  0
TEXT
  8
PG_ASSEMBLY_TOP
 10
26.974800
 20
-31.580836
 11
0.000000
 21
0.000000
 40
0.635000
 41
0.880000
 50
0.000000
  7
STANDARD
 71
0
 72
0
  1
6
 73
0
  0
TEXT
  8
PG_ASSEMBLY_TOP
 10
26.974800
 20
-28.913836
 11
0.000000
 21
0.000000
 40
0.635000
 41
0.880000
 50
0.000000
  7
STANDARD
 71
0
 72
0
  1
4
 73
0
  0
TEXT
  8
PG_ASSEMBLY_TOP
 10
31.623000
 20
-28.829000
 11
0.000000
 21
0.000000
 40
0.635000
 41
0.880000
 50
0.000000
  7
STANDARD
 71
0
 72
0
  1
3
 73
0
  0
TEXT
  8
RD_ASSEMBLY_TOP
 10
28.829000
 20
-32.469836
 11
0.000000
 21
0.000000
 40
0.635000
 41
0.880000
 50
0.000000
  7
STANDARD
 71
0
 72
0
  1
U13
 73
0
  0
CIRCLE
  8
PIN_TOP
 10
27.573986
 20
-36.138104
 40
0.889000
  0
POLYLINE
  8
PIN_TOP
 66
1
 70
1
 40
0.000000
 41
0.000000
 39
0.000000
  0
VERTEX
  8
PIN_TOP
 10
21.590000
 20
-37.027104
 40
0.000000
 41
0.000000
 42
0.000000
  0
VERTEX
  8
PIN_TOP
 10
21.590000
 20
-35.249104
 40
0.000000
 41
0.000000
 42
0.000000
  0
VERTEX
  8
PIN_TOP
 10
23.368000
 20
-35.249104
 40
0.000000
 41
0.000000
 42
0.000000
  0
VERTEX
  8
PIN_TOP
 10
23.368000
 20
-37.027104
 40
0.000000
 41
0.000000
 42
0.000000
  0
SEQEND
  0
TEXT
  8
PG_ASSEMBLY_TOP
 10
29.210000
 20
-36.449000
 11
0.000000
 21
0.000000
 40
0.635000
 41
0.880000
 50
0.000000
  7
STANDARD
 71
0
 72
0
  1
2
 73
0
  0
TEXT
  8
PG_ASSEMBLY_TOP
 10
20.574000
 20
-36.322000
 11
0.000000
 21
0.000000
 40
0.635000
 41
0.880000
 50
0.000000
  7
STANDARD
 71
0
 72
0
  1
1
 73
0
  0
TEXT
  8
RD_ASSEMBLY_TOP
 10
24.384000
 20
-36.279836
 11
0.000000
 21
0.000000
 40
0.635000
 41
0.880000
 50
0.000000
  7
STANDARD
 71
0
 72
0
  1
R21
 73
0
  0
CIRCLE
  8
PIN_TOP
 10
-4.618990
 20
-37.465000
 40
0.552450
  0
POLYLINE
  8
PIN_TOP
 66
1
 70
1
 40
0.000000
 41
0.000000
 39
0.000000
  0
VERTEX
  8
PIN_TOP
 10
5.933440
 20
-36.912550
 40
0.000000
 41
0.000000
 42
0.000000
  0
VERTEX
  8
PIN_TOP
 10
5.933440
 20
-38.017450
 40
0.000000
 41
0.000000
 42
0.000000
  0
VERTEX
  8
PIN_TOP
 10
4.828540
 20
-38.017450
 40
0.000000
 41
0.000000
 42
0.000000
  0
VERTEX
  8
PIN_TOP
 10
4.828540
 20
-36.912550
 40
0.000000
 41
0.000000
 42
0.000000
  0
SEQEND
  0
POLYLINE
  8
PG_ASSEMBLY_TOP
 66
1
 70
1
 40
0.000000
 41
0.000000
 39
0.000000
  0
VERTEX
  8
PG_ASSEMBLY_TOP
 10
6.881114
 20
-34.465006
 40
0.000000
 41
0.000000
 42
0.000000
  0
VERTEX
  8
PG_ASSEMBLY_TOP
 10
-6.119114
 20
-34.465006
 40
0.000000
 41
0.000000
 42
0.000000
  0
VERTEX
  8
PG_ASSEMBLY_TOP
 10
-6.119114
 20
-40.464994
 40
0.000000
 41
0.000000
 42
0.000000
  0
VERTEX
  8
PG_ASSEMBLY_TOP
 10
6.881114
 20
-40.464994
 40
0.000000
 41
0.000000
 42
0.000000
  0
SEQEND
  0
TEXT
  8
RD_ASSEMBLY_TOP
 10
-0.889000
 20
-37.973000
 11
0.000000
 21
0.000000
 40
0.635000
 41
0.880000
 50
0.000000
  7
STANDARD
 71
0
 72
0
  1
C11
 73
0
  0
POLYLINE
  8
PIN_TOP
 66
1
 70
1
 40
0.000000
 41
0.000000
 39
0.000000
  0
VERTEX
  8
PIN_TOP
 10
-0.635000
 20
9.845040
 40
0.000000
 41
0.000000
 42
0.000000
  0
VERTEX
  8
PIN_TOP
 10
-2.159000
 20
9.845040
 40
0.000000
 41
0.000000
 42
0.000000
  0
VERTEX
  8
PIN_TOP
 10
-2.159000
 20
11.369040
 40
0.000000
 41
0.000000
 42
0.000000
  0
VERTEX
  8
PIN_TOP
 10
-0.635000
 20
11.369040
 40
0.000000
 41
0.000000
 42
0.000000
  0
SEQEND
  0
CIRCLE
  8
PIN_TOP
 10
-1.397000
 20
13.147040
 40
0.762000
  0
CIRCLE
  8
PIN_TOP
 10
-1.397000
 20
15.687040
 40
0.762000
  0
CIRCLE
  8
PIN_TOP
 10
-1.397000
 20
18.227040
 40
0.762000
  0
CIRCLE
  8
PIN_TOP
 10
-1.397000
 20
20.767040
 40
0.762000
  0
CIRCLE
  8
PIN_TOP
 10
-3.937000
 20
10.607040
 40
0.762000
  0
CIRCLE
  8
PIN_TOP
 10
-3.937000
 20
13.147040
 40
0.762000
  0
CIRCLE
  8
PIN_TOP
 10
-3.937000
 20
15.687040
 40
0.762000
  0
CIRCLE
  8
PIN_TOP
 10
-3.937000
 20
18.227040
 40
0.762000
  0
CIRCLE
  8
PIN_TOP
 10
-3.937000
 20
20.767040
 40
0.762000
  0
POLYLINE
  8
PG_ASSEMBLY_TOP
 66
1
 70
1
 40
0.000000
 41
0.000000
 39
0.000000
  0
VERTEX
  8
PG_ASSEMBLY_TOP
 10
-5.207000
 20
9.337040
 40
0.000000
 41
0.000000
 42
0.000000
  0
VERTEX
  8
PG_ASSEMBLY_TOP
 10
-5.207000
 20
22.037040
 40
0.000000
 41
0.000000
 42
0.000000
  0
VERTEX
  8
PG_ASSEMBLY_TOP
 10
2.159000
 20
22.037040
 40
0.000000
 41
0.000000
 42
0.000000
  0
VERTEX
  8
PG_ASSEMBLY_TOP
 10
2.159000
 20
9.337040
 40
0.000000
 41
0.000000
 42
0.000000
  0
SEQEND
  0
TEXT
  8
RD_ASSEMBLY_TOP
 10
1.397000
 20
15.043150
 11
0.000000
 21
0.000000
 40
0.635000
 41
0.880000
 50
90.000000
  7
STANDARD
 71
0
 72
0
  1
J2
 73
0
  0
TEXT
  8
PG_ASSEMBLY_TOP
 10
2.159000
 20
10.160000
 11
0.000000
 21
0.000000
 40
0.635000
 41
0.880000
 50
0.000000
  7
STANDARD
 71
0
 72
0
  1
1
 73
0
  0
TEXT
  8
PG_ASSEMBLY_TOP
 10
-5.715000
 20
21.971000
 11
0.000000
 21
0.000000
 40
0.635000
 41
0.880000
 50
0.000000
  7
STANDARD
 71
0
 72
0
  1
10
 73
0
  0
TEXT
  8
PG_ASSEMBLY_TOP
 10
-5.715000
 20
10.160000
 11
0.000000
 21
0.000000
 40
0.635000
 41
0.880000
 50
0.000000
  7
STANDARD
 71
0
 72
0
  1
2
 73
0
  0
TEXT
  8
PG_ASSEMBLY_TOP
 10
2.286000
 20
20.574000
 11
0.000000
 21
0.000000
 40
0.635000
 41
0.880000
 50
0.000000
  7
STANDARD
 71
0
 72
0
  1
9
 73
0
  0
POLYLINE
  8
PIN_TOP
 66
1
 70
1
 40
0.000000
 41
0.000000
 39
0.000000
  0
VERTEX
  8
PIN_TOP
 10
22.771862
 20
13.196824
 40
0.000000
 41
0.000000
 42
0.000000
  0
VERTEX
  8
PIN_TOP
 10
22.771862
 20
21.346922
 40
0.000000
 41
0.000000
 42
0.000000
  0
VERTEX
  8
PIN_TOP
 10
28.281884
 20
21.346922
 40
0.000000
 41
0.000000
 42
0.000000
  0
VERTEX
  8
PIN_TOP
 10
28.281884
 20
13.196824
 40
0.000000
 41
0.000000
 42
0.000000
  0
SEQEND
  0
POLYLINE
  8
PIN_TOP
 66
1
 70
1
 40
0.000000
 41
0.000000
 39
0.000000
  0
VERTEX
  8
PIN_TOP
 10
30.527117
 20
21.672042
 40
0.000000
 41
0.000000
 42
0.000000
  0
VERTEX
  8
PIN_TOP
 10
31.427039
 20
21.672042
 40
0.000000
 41
0.000000
 42
-1.000000
  0
VERTEX
  8
PIN_TOP
 10
31.427039
 20
20.972018
 40
0.000000
 41
0.000000
 42
0.000000
  0
VERTEX
  8
PIN_TOP
 10
30.527117
 20
20.972018
 40
0.000000
 41
0.000000
 42
-1.000000
  0
SEQEND
  0
POLYLINE
  8
PIN_TOP
 66
1
 70
1
 40
0.000000
 41
0.000000
 39
0.000000
  0
VERTEX
  8
PIN_TOP
 10
30.527117
 20
19.972020
 40
0.000000
 41
0.000000
 42
0.000000
  0
VERTEX
  8
PIN_TOP
 10
31.427039
 20
19.972020
 40
0.000000
 41
0.000000
 42
-1.000000
  0
VERTEX
  8
PIN_TOP
 10
31.427039
 20
19.271996
 40
0.000000
 41
0.000000
 42
0.000000
  0
VERTEX
  8
PIN_TOP
 10
30.527117
 20
19.271996
 40
0.000000
 41
0.000000
 42
-1.000000
  0
SEQEND
  0
POLYLINE
  8
PIN_TOP
 66
1
 70
1
 40
0.000000
 41
0.000000
 39
0.000000
  0
VERTEX
  8
PIN_TOP
 10
30.527117
 20
18.271998
 40
0.000000
 41
0.000000
 42
0.000000
  0
VERTEX
  8
PIN_TOP
 10
31.427039
 20
18.271998
 40
0.000000
 41
0.000000
 42
-1.000000
  0
VERTEX
  8
PIN_TOP
 10
31.427039
 20
17.571974
 40
0.000000
 41
0.000000
 42
0.000000
  0
VERTEX
  8
PIN_TOP
 10
30.527117
 20
17.571974
 40
0.000000
 41
0.000000
 42
-1.000000
  0
SEQEND
  0
POLYLINE
  8
PIN_TOP
 66
1
 70
1
 40
0.000000
 41
0.000000
 39
0.000000
  0
VERTEX
  8
PIN_TOP
 10
30.527117
 20
16.571976
 40
0.000000
 41
0.000000
 42
0.000000
  0
VERTEX
  8
PIN_TOP
 10
31.427039
 20
16.571976
 40
0.000000
 41
0.000000
 42
-1.000000
  0
VERTEX
  8
PIN_TOP
 10
31.427039
 20
15.871952
 40
0.000000
 41
0.000000
 42
0.000000
  0
VERTEX
  8
PIN_TOP
 10
30.527117
 20
15.871952
 40
0.000000
 41
0.000000
 42
-1.000000
  0
SEQEND
  0
POLYLINE
  8
PIN_TOP
 66
1
 70
1
 40
0.000000
 41
0.000000
 39
0.000000
  0
VERTEX
  8
PIN_TOP
 10
30.527117
 20
14.871954
 40
0.000000
 41
0.000000
 42
0.000000
  0
VERTEX
  8
PIN_TOP
 10
31.427039
 20
14.871954
 40
0.000000
 41
0.000000
 42
-1.000000
  0
VERTEX
  8
PIN_TOP
 10
31.427039
 20
14.171930
 40
0.000000
 41
0.000000
 42
0.000000
  0
VERTEX
  8
PIN_TOP
 10
30.527117
 20
14.171930
 40
0.000000
 41
0.000000
 42
-1.000000
  0
SEQEND
  0
POLYLINE
  8
PIN_TOP
 66
1
 70
1
 40
0.000000
 41
0.000000
 39
0.000000
  0
VERTEX
  8
PIN_TOP
 10
30.527117
 20
13.171932
 40
0.000000
 41
0.000000
 42
0.000000
  0
VERTEX
  8
PIN_TOP
 10
31.427039
 20
13.171932
 40
0.000000
 41
0.000000
 42
-1.000000
  0
VERTEX
  8
PIN_TOP
 10
31.427039
 20
12.471908
 40
0.000000
 41
0.000000
 42
0.000000
  0
VERTEX
  8
PIN_TOP
 10
30.527117
 20
12.471908
 40
0.000000
 41
0.000000
 42
-1.000000
  0
SEQEND
  0
POLYLINE
  8
PIN_TOP
 66
1
 70
1
 40
0.000000
 41
0.000000
 39
0.000000
  0
VERTEX
  8
PIN_TOP
 10
19.626961
 20
13.571982
 40
0.000000
 41
0.000000
 42
0.000000
  0
VERTEX
  8
PIN_TOP
 10
20.526883
 20
13.571982
 40
0.000000
 41
0.000000
 42
-1.000000
  0
VERTEX
  8
PIN_TOP
 10
20.526883
 20
12.871958
 40
0.000000
 41
0.000000
 42
0.000000
  0
VERTEX
  8
PIN_TOP
 10
19.626961
 20
12.871958
 40
0.000000
 41
0.000000
 42
-1.000000
  0
SEQEND
  0
POLYLINE
  8
PIN_TOP
 66
1
 70
1
 40
0.000000
 41
0.000000
 39
0.000000
  0
VERTEX
  8
PIN_TOP
 10
19.626961
 20
16.972026
 40
0.000000
 41
0.000000
 42
0.000000
  0
VERTEX
  8
PIN_TOP
 10
20.526883
 20
16.972026
 40
0.000000
 41
0.000000
 42
-1.000000
  0
VERTEX
  8
PIN_TOP
 10
20.526883
 20
16.272002
 40
0.000000
 41
0.000000
 42
0.000000
  0
VERTEX
  8
PIN_TOP
 10
19.626961
 20
16.272002
 40
0.000000
 41
0.000000
 42
-1.000000
  0
SEQEND
  0
POLYLINE
  8
PIN_TOP
 66
1
 70
1
 40
0.000000
 41
0.000000
 39
0.000000
  0
VERTEX
  8
PIN_TOP
 10
19.626961
 20
18.672048
 40
0.000000
 41
0.000000
 42
0.000000
  0
VERTEX
  8
PIN_TOP
 10
20.526883
 20
18.672048
 40
0.000000
 41
0.000000
 42
-1.000000
  0
VERTEX
  8
PIN_TOP
 10
20.526883
 20
17.972024
 40
0.000000
 41
0.000000
 42
0.000000
  0
VERTEX
  8
PIN_TOP
 10
19.626961
 20
17.972024
 40
0.000000
 41
0.000000
 42
-1.000000
  0
SEQEND
  0
POLYLINE
  8
PIN_TOP
 66
1
 70
1
 40
0.000000
 41
0.000000
 39
0.000000
  0
VERTEX
  8
PIN_TOP
 10
19.626961
 20
20.372070
 40
0.000000
 41
0.000000
 42
0.000000
  0
VERTEX
  8
PIN_TOP
 10
20.526883
 20
20.372070
 40
0.000000
 41
0.000000
 42
-1.000000
  0
VERTEX
  8
PIN_TOP
 10
20.526883
 20
19.672046
 40
0.000000
 41
0.000000
 42
0.000000
  0
VERTEX
  8
PIN_TOP
 10
19.626961
 20
19.672046
 40
0.000000
 41
0.000000
 42
-1.000000
  0
SEQEND
  0
POLYLINE
  8
PIN_TOP
 66
1
 70
1
 40
0.000000
 41
0.000000
 39
0.000000
  0
VERTEX
  8
PIN_TOP
 10
19.626961
 20
22.072092
 40
0.000000
 41
0.000000
 42
0.000000
  0
VERTEX
  8
PIN_TOP
 10
20.526883
 20
22.072092
 40
0.000000
 41
0.000000
 42
-1.000000
  0
VERTEX
  8
PIN_TOP
 10
20.526883
 20
21.372068
 40
0.000000
 41
0.000000
 42
0.000000
  0
VERTEX
  8
PIN_TOP
 10
19.626961
 20
21.372068
 40
0.000000
 41
0.000000
 42
-1.000000
  0
SEQEND
  0
POLYLINE
  8
PG_ASSEMBLY_TOP
 66
1
 70
1
 40
0.000000
 41
0.000000
 39
0.000000
  0
VERTEX
  8
PG_ASSEMBLY_TOP
 10
29.972000
 20
22.352000
 40
0.000000
 41
0.000000
 42
0.000000
  0
VERTEX
  8
PG_ASSEMBLY_TOP
 10
21.844000
 20
22.352000
 40
0.000000
 41
0.000000
 42
0.000000
  0
VERTEX
  8
PG_ASSEMBLY_TOP
 10
21.082000
 20
21.590000
 40
0.000000
 41
0.000000
 42
0.000000
  0
VERTEX
  8
PG_ASSEMBLY_TOP
 10
21.082000
 20
12.192000
 40
0.000000
 41
0.000000
 42
0.000000
  0
VERTEX
  8
PG_ASSEMBLY_TOP
 10
29.972000
 20
12.192000
 40
0.000000
 41
0.000000
 42
0.000000
  0
SEQEND
  0
TEXT
  8
PG_ASSEMBLY_TOP
 10
30.861000
 20
21.971000
 11
0.000000
 21
0.000000
 40
0.635000
 41
0.880000
 50
0.000000
  7
STANDARD
 71
0
 72
0
  1
12
 73
0
  0
TEXT
  8
PG_ASSEMBLY_TOP
 10
31.877000
 20
12.446000
 11
0.000000
 21
0.000000
 40
0.635000
 41
0.880000
 50
0.000000
  7
STANDARD
 71
0
 72
0
  1
7
 73
0
  0
TEXT
  8
PG_ASSEMBLY_TOP
 10
18.542000
 20
12.827000
 11
0.000000
 21
0.000000
 40
0.635000
 41
0.880000
 50
0.000000
  7
STANDARD
 71
0
 72
0
  1
6
 73
0
  0
TEXT
  8
PG_ASSEMBLY_TOP
 10
18.669000
 20
21.463000
 11
0.000000
 21
0.000000
 40
0.635000
 41
0.880000
 50
0.000000
  7
STANDARD
 71
0
 72
0
  1
1
 73
0
  0
TEXT
  8
RD_ASSEMBLY_TOP
 10
24.765000
 20
21.505418
 11
0.000000
 21
0.000000
 40
0.635000
 41
0.880000
 50
0.000000
  7
STANDARD
 71
0
 72
0
  1
U12
 73
0
  0
CIRCLE
  8
PIN_TOP
 10
17.145000
 20
21.722080
 40
0.632968
  0
POLYLINE
  8
PIN_TOP
 66
1
 70
1
 40
0.000000
 41
0.000000
 39
0.000000
  0
VERTEX
  8
PIN_TOP
 10
16.512032
 20
16.088868
 40
0.000000
 41
0.000000
 42
0.000000
  0
VERTEX
  8
PIN_TOP
 10
17.777968
 20
16.088868
 40
0.000000
 41
0.000000
 42
0.000000
  0
VERTEX
  8
PIN_TOP
 10
17.777968
 20
17.354804
 40
0.000000
 41
0.000000
 42
0.000000
  0
VERTEX
  8
PIN_TOP
 10
16.512032
 20
17.354804
 40
0.000000
 41
0.000000
 42
0.000000
  0
SEQEND
  0
CIRCLE
  8
PIN_TOP
 10
13.081000
 20
16.721836
 40
0.632968
  0
POLYLINE
  8
PIN_TOP
 66
1
 70
1
 40
0.000000
 41
0.000000
 39
0.000000
  0
VERTEX
  8
PIN_TOP
 10
12.448032
 20
11.088624
 40
0.000000
 41
0.000000
 42
0.000000
  0
VERTEX
  8
PIN_TOP
 10
13.713968
 20
11.088624
 40
0.000000
 41
0.000000
 42
0.000000
  0
VERTEX
  8
PIN_TOP
 10
13.713968
 20
12.354560
 40
0.000000
 41
0.000000
 42
0.000000
  0
VERTEX
  8
PIN_TOP
 10
12.448032
 20
12.354560
 40
0.000000
 41
0.000000
 42
0.000000
  0
SEQEND
  0
POLYLINE
  8
PIN_TOP
 66
1
 70
1
 40
0.000000
 41
0.000000
 39
0.000000
  0
VERTEX
  8
PIN_TOP
 10
17.171035
 20
-3.480435
 40
0.000000
 41
0.000000
 42
0.000000
  0
VERTEX
  8
PIN_TOP
 10
18.642965
 20
-3.480435
 40
0.000000
 41
0.000000
 42
0.000000
  0
VERTEX
  8
PIN_TOP
 10
18.642965
 20
-4.952365
 40
0.000000
 41
0.000000
 42
0.000000
  0
VERTEX
  8
PIN_TOP
 10
17.171035
 20
-4.952365
 40
0.000000
 41
0.000000
 42
0.000000
  0
SEQEND
  0
POLYLINE
  8
PIN_TOP
 66
1
 70
1
 40
0.000000
 41
0.000000
 39
0.000000
  0
VERTEX
  8
PIN_TOP
 10
17.171035
 20
9.219565
 40
0.000000
 41
0.000000
 42
0.000000
  0
VERTEX
  8
PIN_TOP
 10
18.642965
 20
9.219565
 40
0.000000
 41
0.000000
 42
0.000000
  0
VERTEX
  8
PIN_TOP
 10
18.642965
 20
7.747635
 40
0.000000
 41
0.000000
 42
0.000000
  0
VERTEX
  8
PIN_TOP
 10
17.171035
 20
7.747635
 40
0.000000
 41
0.000000
 42
0.000000
  0
SEQEND
  0
POLYLINE
  8
PG_ASSEMBLY_TOP
 66
1
 70
1
 40
0.000000
 41
0.000000
 39
0.000000
  0
VERTEX
  8
PG_ASSEMBLY_TOP
 10
16.980662
 20
9.383522
 40
0.000000
 41
0.000000
 42
0.000000
  0
VERTEX
  8
PG_ASSEMBLY_TOP
 10
16.980662
 20
-5.116322
 40
0.000000
 41
0.000000
 42
0.000000
  0
VERTEX
  8
PG_ASSEMBLY_TOP
 10
18.930620
 20
-5.116322
 40
0.000000
 41
0.000000
 42
0.000000
  0
VERTEX
  8
PG_ASSEMBLY_TOP
 10
18.930620
 20
9.383522
 40
0.000000
 41
0.000000
 42
0.000000
  0
SEQEND
  0
TEXT
  8
RD_ASSEMBLY_TOP
 10
17.526000
 20
1.879600
 11
0.000000
 21
0.000000
 40
0.635000
 41
0.880000
 50
0.000000
  7
STANDARD
 71
0
 72
0
  1
D2
 73
0
  0
CIRCLE
  8
PIN_TOP
 10
11.658092
 20
5.501894
 40
3.099943
  0
POLYLINE
  8
PG_ASSEMBLY_TOP
 66
1
 70
1
 40
0.000000
 41
0.000000
 39
0.000000
  0
VERTEX
  8
PG_ASSEMBLY_TOP
 10
15.622524
 20
5.501894
 40
0.000000
 41
0.000000
 42
1.000000
  0
VERTEX
  8
PG_ASSEMBLY_TOP
 10
7.693660
 20
5.501894
 40
0.000000
 41
0.000000
 42
1.000000
  0
SEQEND
  0
TEXT
  8
RD_ASSEMBLY_TOP
 10
11.472333
 20
9.779000
 11
11.684000
 21
9.779000
 40
0.635000
 41
0.880000
 50
0.000000
  7
STANDARD
 71
0
 72
1
  1
U1
 73
0
  0
CIRCLE
  8
PIN_TOP
 10
2.107692
 20
-16.697706
 40
3.099943
  0
POLYLINE
  8
PG_ASSEMBLY_TOP
 66
1
 70
1
 40
0.000000
 41
0.000000
 39
0.000000
  0
VERTEX
  8
PG_ASSEMBLY_TOP
 10
6.072124
 20
-16.697706
 40
0.000000
 41
0.000000
 42
1.000000
  0
VERTEX
  8
PG_ASSEMBLY_TOP
 10
-1.856740
 20
-16.697706
 40
0.000000
 41
0.000000
 42
1.000000
  0
SEQEND
  0
TEXT
  8
RD_ASSEMBLY_TOP
 10
0.931333
 20
-12.446000
 11
1.143000
 21
-12.446000
 40
0.635000
 41
0.880000
 50
0.000000
  7
STANDARD
 71
0
 72
1
  1
U4
 73
0
  0
CIRCLE
  8
PIN_TOP
 10
21.208492
 20
-16.697706
 40
3.099943
  0
POLYLINE
  8
PG_ASSEMBLY_TOP
 66
1
 70
1
 40
0.000000
 41
0.000000
 39
0.000000
  0
VERTEX
  8
PG_ASSEMBLY_TOP
 10
25.172924
 20
-16.697706
 40
0.000000
 41
0.000000
 42
1.000000
  0
VERTEX
  8
PG_ASSEMBLY_TOP
 10
17.244060
 20
-16.697706
 40
0.000000
 41
0.000000
 42
1.000000
  0
SEQEND
  0
TEXT
  8
RD_ASSEMBLY_TOP
 10
20.870333
 20
-12.319000
 11
21.082000
 21
-12.319000
 40
0.635000
 41
0.880000
 50
0.000000
  7
STANDARD
 71
0
 72
1
  1
U5
 73
0
  0
CIRCLE
  8
PIN_TOP
 10
2.107692
 20
-24.452580
 40
3.099943
  0
CIRCLE
  8
PIN_TOP
 10
21.208492
 20
-24.452580
 40
3.099943
  0
CIRCLE
  8
PIN_TOP
 10
11.658092
 20
-2.252980
 40
3.099943
  0
POLYLINE
  8
PIN_TOP
 66
1
 70
1
 40
0.000000
 41
0.000000
 39
0.000000
  0
VERTEX
  8
PIN_TOP
 10
15.891129
 20
-29.142944
 40
0.000000
 41
0.000000
 42
0.000000
  0
VERTEX
  8
PIN_TOP
 10
14.091031
 20
-29.142944
 40
0.000000
 41
0.000000
 42
0.000000
  0
VERTEX
  8
PIN_TOP
 10
14.091031
 20
-27.642820
 40
0.000000
 41
0.000000
 42
0.000000
  0
VERTEX
  8
PIN_TOP
 10
15.891129
 20
-27.642820
 40
0.000000
 41
0.000000
 42
0.000000
  0
SEQEND
  0
POLYLINE
  8
PIN_TOP
 66
1
 70
1
 40
0.000000
 41
0.000000
 39
0.000000
  0
VERTEX
  8
PIN_TOP
 10
13.351129
 20
-29.142944
 40
0.000000
 41
0.000000
 42
0.000000
  0
VERTEX
  8
PIN_TOP
 10
11.551031
 20
-29.142944
 40
0.000000
 41
0.000000
 42
0.000000
  0
VERTEX
  8
PIN_TOP
 10
11.551031
 20
-27.642820
 40
0.000000
 41
0.000000
 42
0.000000
  0
VERTEX
  8
PIN_TOP
 10
13.351129
 20
-27.642820
 40
0.000000
 41
0.000000
 42
0.000000
  0
SEQEND
  0
POLYLINE
  8
PIN_TOP
 66
1
 70
1
 40
0.000000
 41
0.000000
 39
0.000000
  0
VERTEX
  8
PIN_TOP
 10
10.811129
 20
-29.142944
 40
0.000000
 41
0.000000
 42
0.000000
  0
VERTEX
  8
PIN_TOP
 10
9.011031
 20
-29.142944
 40
0.000000
 41
0.000000
 42
0.000000
  0
VERTEX
  8
PIN_TOP
 10
9.011031
 20
-27.642820
 40
0.000000
 41
0.000000
 42
0.000000
  0
VERTEX
  8
PIN_TOP
 10
10.811129
 20
-27.642820
 40
0.000000
 41
0.000000
 42
0.000000
  0
SEQEND
  0
POLYLINE
  8
PIN_TOP
 66
1
 70
1
 40
0.000000
 41
0.000000
 39
0.000000
  0
VERTEX
  8
PIN_TOP
 10
10.811129
 20
-38.143180
 40
0.000000
 41
0.000000
 42
0.000000
  0
VERTEX
  8
PIN_TOP
 10
9.011031
 20
-38.143180
 40
0.000000
 41
0.000000
 42
0.000000
  0
VERTEX
  8
PIN_TOP
 10
9.011031
 20
-36.643056
 40
0.000000
 41
0.000000
 42
0.000000
  0
VERTEX
  8
PIN_TOP
 10
10.811129
 20
-36.643056
 40
0.000000
 41
0.000000
 42
0.000000
  0
SEQEND
  0
POLYLINE
  8
PIN_TOP
 66
1
 70
1
 40
0.000000
 41
0.000000
 39
0.000000
  0
VERTEX
  8
PIN_TOP
 10
15.891129
 20
-38.143180
 40
0.000000
 41
0.000000
 42
0.000000
  0
VERTEX
  8
PIN_TOP
 10
14.091031
 20
-38.143180
 40
0.000000
 41
0.000000
 42
0.000000
  0
VERTEX
  8
PIN_TOP
 10
14.091031
 20
-36.643056
 40
0.000000
 41
0.000000
 42
0.000000
  0
VERTEX
  8
PIN_TOP
 10
15.891129
 20
-36.643056
 40
0.000000
 41
0.000000
 42
0.000000
  0
SEQEND
  0
POLYLINE
  8
PIN_TOP
 66
1
 70
1
 40
0.000000
 41
0.000000
 39
0.000000
  0
VERTEX
  8
PIN_TOP
 10
13.351129
 20
-38.143180
 40
0.000000
 41
0.000000
 42
0.000000
  0
VERTEX
  8
PIN_TOP
 10
11.551031
 20
-38.143180
 40
0.000000
 41
0.000000
 42
0.000000
  0
VERTEX
  8
PIN_TOP
 10
11.551031
 20
-36.643056
 40
0.000000
 41
0.000000
 42
0.000000
  0
VERTEX
  8
PIN_TOP
 10
13.351129
 20
-36.643056
 40
0.000000
 41
0.000000
 42
0.000000
  0
SEQEND
  0
POLYLINE
  8
PG_ASSEMBLY_TOP
 66
1
 70
0
 40
0.000000
 41
0.000000
 39
0.000000
  0
VERTEX
  8
PG_ASSEMBLY_TOP
 10
16.893286
 20
-36.192968
 40
0.152400
 41
0.152400
 42
0.000000
  0
VERTEX
  8
PG_ASSEMBLY_TOP
 10
16.896080
 20
-29.593032
 40
0.152400
 41
0.152400
 42
0.000000
  0
VERTEX
  8
PG_ASSEMBLY_TOP
 10
8.006080
 20
-29.593032
 40
0.152400
 41
0.152400
 42
0.000000
  0
VERTEX
  8
PG_ASSEMBLY_TOP
 10
8.006080
 20
-35.430968
 40
0.152400
 41
0.152400
 42
0.000000
  0
VERTEX
  8
PG_ASSEMBLY_TOP
 10
8.768080
 20
-36.192968
 40
0.152400
 41
0.152400
 42
0.000000
  0
VERTEX
  8
PG_ASSEMBLY_TOP
 10
16.896080
 20
-36.192968
 40
0.152400
 41
0.152400
 42
0.000000
  0
SEQEND
  0
TEXT
  8
RD_ASSEMBLY_TOP
 10
12.615333
 20
-32.893000
 11
12.827000
 21
-32.893000
 40
0.635000
 41
0.880000
 50
0.000000
  7
STANDARD
 71
0
 72
1
  1
Q1
 73
0
  0
POLYLINE
  8
PIN_TOP
 66
1
 70
1
 40
0.000000
 41
0.000000
 39
0.000000
  0
VERTEX
  8
PIN_TOP
 10
14.554200
 20
-23.698200
 40
0.000000
 41
0.000000
 42
0.000000
  0
VERTEX
  8
PIN_TOP
 10
15.417800
 20
-23.698200
 40
0.000000
 41
0.000000
 42
0.000000
  0
VERTEX
  8
PIN_TOP
 10
15.417800
 20
-24.460200
 40
0.000000
 41
0.000000
 42
0.000000
  0
VERTEX
  8
PIN_TOP
 10
14.554200
 20
-24.460200
 40
0.000000
 41
0.000000
 42
0.000000
  0
SEQEND
  0
POLYLINE
  8
PIN_TOP
 66
1
 70
1
 40
0.000000
 41
0.000000
 39
0.000000
  0
VERTEX
  8
PIN_TOP
 10
14.554200
 20
-25.069800
 40
0.000000
 41
0.000000
 42
0.000000
  0
VERTEX
  8
PIN_TOP
 10
15.417800
 20
-25.069800
 40
0.000000
 41
0.000000
 42
0.000000
  0
VERTEX
  8
PIN_TOP
 10
15.417800
 20
-25.831800
 40
0.000000
 41
0.000000
 42
0.000000
  0
VERTEX
  8
PIN_TOP
 10
14.554200
 20
-25.831800
 40
0.000000
 41
0.000000
 42
0.000000
  0
SEQEND
  0
POLYLINE
  8
PG_ASSEMBLY_TOP
 66
1
 70
1
 40
0.000000
 41
0.000000
 39
0.000000
  0
VERTEX
  8
PG_ASSEMBLY_TOP
 10
14.541500
 20
-23.926800
 40
0.000000
 41
0.000000
 42
0.000000
  0
VERTEX
  8
PG_ASSEMBLY_TOP
 10
15.430500
 20
-23.926800
 40
0.000000
 41
0.000000
 42
0.000000
  0
VERTEX
  8
PG_ASSEMBLY_TOP
 10
15.430500
 20
-25.603200
 40
0.000000
 41
0.000000
 42
0.000000
  0
VERTEX
  8
PG_ASSEMBLY_TOP
 10
14.541500
 20
-25.603200
 40
0.000000
 41
0.000000
 42
0.000000
  0
SEQEND
  0
TEXT
  8
RD_ASSEMBLY_TOP
 10
14.097000
 20
-25.527000
 11
0.000000
 21
0.000000
 40
0.635000
 41
0.880000
 50
90.000000
  7
STANDARD
 71
0
 72
0
  1
R20
 73
0
  0
POLYLINE
  8
PIN_TOP
 66
1
 70
1
 40
0.000000
 41
0.000000
 39
0.000000
  0
VERTEX
  8
PIN_TOP
 10
-1.066800
 20
-34.213800
 40
0.000000
 41
0.000000
 42
0.000000
  0
VERTEX
  8
PIN_TOP
 10
-1.066800
 20
-33.350200
 40
0.000000
 41
0.000000
 42
0.000000
  0
VERTEX
  8
PIN_TOP
 10
-0.304800
 20
-33.350200
 40
0.000000
 41
0.000000
 42
0.000000
  0
VERTEX
  8
PIN_TOP
 10
-0.304800
 20
-34.213800
 40
0.000000
 41
0.000000
 42
0.000000
  0
SEQEND
  0
POLYLINE
  8
PIN_TOP
 66
1
 70
1
 40
0.000000
 41
0.000000
 39
0.000000
  0
VERTEX
  8
PIN_TOP
 10
0.304800
 20
-34.213800
 40
0.000000
 41
0.000000
 42
0.000000
  0
VERTEX
  8
PIN_TOP
 10
0.304800
 20
-33.350200
 40
0.000000
 41
0.000000
 42
0.000000
  0
VERTEX
  8
PIN_TOP
 10
1.066800
 20
-33.350200
 40
0.000000
 41
0.000000
 42
0.000000
  0
VERTEX
  8
PIN_TOP
 10
1.066800
 20
-34.213800
 40
0.000000
 41
0.000000
 42
0.000000
  0
SEQEND
  0
POLYLINE
  8
PG_ASSEMBLY_TOP
 66
1
 70
1
 40
0.000000
 41
0.000000
 39
0.000000
  0
VERTEX
  8
PG_ASSEMBLY_TOP
 10
-0.838200
 20
-34.226500
 40
0.000000
 41
0.000000
 42
0.000000
  0
VERTEX
  8
PG_ASSEMBLY_TOP
 10
-0.838200
 20
-33.337500
 40
0.000000
 41
0.000000
 42
0.000000
  0
VERTEX
  8
PG_ASSEMBLY_TOP
 10
0.838200
 20
-33.337500
 40
0.000000
 41
0.000000
 42
0.000000
  0
VERTEX
  8
PG_ASSEMBLY_TOP
 10
0.838200
 20
-34.226500
 40
0.000000
 41
0.000000
 42
0.000000
  0
SEQEND
  0
TEXT
  8
RD_ASSEMBLY_TOP
 10
-0.635000
 20
-33.020000
 11
0.000000
 21
0.000000
 40
0.635000
 41
0.880000
 50
0.000000
  7
STANDARD
 71
0
 72
0
  1
R32
 73
0
  0
POLYLINE
  8
PIN_TOP
 66
1
 70
1
 40
0.000000
 41
0.000000
 39
0.000000
  0
VERTEX
  8
PIN_TOP
 10
1.434592
 20
-30.638750
 40
0.000000
 41
0.000000
 42
0.000000
  0
VERTEX
  8
PIN_TOP
 10
1.434592
 20
-31.189930
 40
0.000000
 41
0.000000
 42
0.000000
  0
VERTEX
  8
PIN_TOP
 10
0.835152
 20
-31.189930
 40
0.000000
 41
0.000000
 42
0.000000
  0
VERTEX
  8
PIN_TOP
 10
0.835152
 20
-30.638750
 40
0.000000
 41
0.000000
 42
0.000000
  0
SEQEND
  0
POLYLINE
  8
PIN_TOP
 66
1
 70
1
 40
0.000000
 41
0.000000
 39
0.000000
  0
VERTEX
  8
PIN_TOP
 10
0.434848
 20
-30.638750
 40
0.000000
 41
0.000000
 42
0.000000
  0
VERTEX
  8
PIN_TOP
 10
0.434848
 20
-31.189930
 40
0.000000
 41
0.000000
 42
0.000000
  0
VERTEX
  8
PIN_TOP
 10
-0.164592
 20
-31.189930
 40
0.000000
 41
0.000000
 42
0.000000
  0
VERTEX
  8
PIN_TOP
 10
-0.164592
 20
-30.638750
 40
0.000000
 41
0.000000
 42
0.000000
  0
SEQEND
  0
POLYLINE
  8
PG_ASSEMBLY_TOP
 66
1
 70
1
 40
0.000000
 41
0.000000
 39
0.000000
  0
VERTEX
  8
PG_ASSEMBLY_TOP
 10
1.143000
 20
-30.673040
 40
0.000000
 41
0.000000
 42
0.000000
  0
VERTEX
  8
PG_ASSEMBLY_TOP
 10
1.143000
 20
-31.181040
 40
0.000000
 41
0.000000
 42
0.000000
  0
VERTEX
  8
PG_ASSEMBLY_TOP
 10
0.127000
 20
-31.181040
 40
0.000000
 41
0.000000
 42
0.000000
  0
VERTEX
  8
PG_ASSEMBLY_TOP
 10
0.127000
 20
-30.673040
 40
0.000000
 41
0.000000
 42
0.000000
  0
SEQEND
  0
TEXT
  8
RD_ASSEMBLY_TOP
 10
0.423333
 20
-30.226000
 11
0.635000
 21
-30.226000
 40
0.635000
 41
0.880000
 50
0.000000
  7
STANDARD
 71
0
 72
1
  1
R30
 73
0
  0
POLYLINE
  8
PIN_TOP
 66
1
 70
1
 40
0.000000
 41
0.000000
 39
0.000000
  0
VERTEX
  8
PIN_TOP
 10
17.602200
 20
-31.496000
 40
0.000000
 41
0.000000
 42
0.000000
  0
VERTEX
  8
PIN_TOP
 10
17.602200
 20
-29.972000
 40
0.000000
 41
0.000000
 42
0.000000
  0
VERTEX
  8
PIN_TOP
 10
18.669000
 20
-29.972000
 40
0.000000
 41
0.000000
 42
0.000000
  0
VERTEX
  8
PIN_TOP
 10
18.669000
 20
-31.496000
 40
0.000000
 41
0.000000
 42
0.000000
  0
SEQEND
  0
POLYLINE
  8
PIN_TOP
 66
1
 70
1
 40
0.000000
 41
0.000000
 39
0.000000
  0
VERTEX
  8
PIN_TOP
 10
20.193000
 20
-31.496000
 40
0.000000
 41
0.000000
 42
0.000000
  0
VERTEX
  8
PIN_TOP
 10
20.193000
 20
-29.972000
 40
0.000000
 41
0.000000
 42
0.000000
  0
VERTEX
  8
PIN_TOP
 10
21.259800
 20
-29.972000
 40
0.000000
 41
0.000000
 42
0.000000
  0
VERTEX
  8
PIN_TOP
 10
21.259800
 20
-31.496000
 40
0.000000
 41
0.000000
 42
0.000000
  0
SEQEND
  0
POLYLINE
  8
PG_ASSEMBLY_TOP
 66
1
 70
1
 40
0.000000
 41
0.000000
 39
0.000000
  0
VERTEX
  8
PG_ASSEMBLY_TOP
 10
17.729200
 20
-31.635700
 40
0.000000
 41
0.000000
 42
0.000000
  0
VERTEX
  8
PG_ASSEMBLY_TOP
 10
17.729200
 20
-29.832300
 40
0.000000
 41
0.000000
 42
0.000000
  0
VERTEX
  8
PG_ASSEMBLY_TOP
 10
21.132800
 20
-29.832300
 40
0.000000
 41
0.000000
 42
0.000000
  0
VERTEX
  8
PG_ASSEMBLY_TOP
 10
21.132800
 20
-31.635700
 40
0.000000
 41
0.000000
 42
0.000000
  0
SEQEND
  0
TEXT
  8
RD_ASSEMBLY_TOP
 10
19.346333
 20
-29.421836
 11
19.558000
 21
-29.421836
 40
0.635000
 41
0.880000
 50
0.000000
  7
STANDARD
 71
0
 72
1
  1
R31
 73
0
  0
POLYLINE
  8
PIN_TOP
 66
1
 70
1
 40
0.000000
 41
0.000000
 39
0.000000
  0
VERTEX
  8
PIN_TOP
 10
14.300200
 20
17.653000
 40
0.000000
 41
0.000000
 42
0.000000
  0
VERTEX
  8
PIN_TOP
 10
15.925800
 20
17.653000
 40
0.000000
 41
0.000000
 42
0.000000
  0
VERTEX
  8
PIN_TOP
 10
15.925800
 20
16.510000
 40
0.000000
 41
0.000000
 42
0.000000
  0
VERTEX
  8
PIN_TOP
 10
14.300200
 20
16.510000
 40
0.000000
 41
0.000000
 42
0.000000
  0
SEQEND
  0
POLYLINE
  8
PIN_TOP
 66
1
 70
1
 40
0.000000
 41
0.000000
 39
0.000000
  0
VERTEX
  8
PIN_TOP
 10
14.300200
 20
14.986000
 40
0.000000
 41
0.000000
 42
0.000000
  0
VERTEX
  8
PIN_TOP
 10
15.925800
 20
14.986000
 40
0.000000
 41
0.000000
 42
0.000000
  0
VERTEX
  8
PIN_TOP
 10
15.925800
 20
13.843000
 40
0.000000
 41
0.000000
 42
0.000000
  0
VERTEX
  8
PIN_TOP
 10
14.300200
 20
13.843000
 40
0.000000
 41
0.000000
 42
0.000000
  0
SEQEND
  0
POLYLINE
  8
PG_ASSEMBLY_TOP
 66
1
 70
1
 40
0.000000
 41
0.000000
 39
0.000000
  0
VERTEX
  8
PG_ASSEMBLY_TOP
 10
14.211300
 20
17.449800
 40
0.000000
 41
0.000000
 42
0.000000
  0
VERTEX
  8
PG_ASSEMBLY_TOP
 10
16.014700
 20
17.449800
 40
0.000000
 41
0.000000
 42
0.000000
  0
VERTEX
  8
PG_ASSEMBLY_TOP
 10
16.014700
 20
14.046200
 40
0.000000
 41
0.000000
 42
0.000000
  0
VERTEX
  8
PG_ASSEMBLY_TOP
 10
14.211300
 20
14.046200
 40
0.000000
 41
0.000000
 42
0.000000
  0
SEQEND
  0
TEXT
  8
RD_ASSEMBLY_TOP
 10
14.901333
 20
15.409418
 11
15.113000
 21
15.409418
 40
0.635000
 41
0.880000
 50
0.000000
  7
STANDARD
 71
0
 72
1
  1
C8
 73
0
  0
POLYLINE
  8
PIN_TOP
 66
1
 70
1
 40
0.000000
 41
0.000000
 39
0.000000
  0
VERTEX
  8
PIN_TOP
 10
7.746871
 20
-11.538319
 40
0.000000
 41
0.000000
 42
0.000000
  0
VERTEX
  8
PIN_TOP
 10
5.696319
 20
-13.588871
 40
0.000000
 41
0.000000
 42
0.000000
  0
VERTEX
  8
PIN_TOP
 10
3.857881
 20
-11.750433
 40
0.000000
 41
0.000000
 42
0.000000
  0
VERTEX
  8
PIN_TOP
 10
5.908433
 20
-9.699881
 40
0.000000
 41
0.000000
 42
0.000000
  0
SEQEND
  0
POLYLINE
  8
PIN_TOP
 66
1
 70
1
 40
0.000000
 41
0.000000
 39
0.000000
  0
VERTEX
  8
PIN_TOP
 10
11.636119
 20
-15.427567
 40
0.000000
 41
0.000000
 42
0.000000
  0
VERTEX
  8
PIN_TOP
 10
9.585567
 20
-17.478119
 40
0.000000
 41
0.000000
 42
0.000000
  0
VERTEX
  8
PIN_TOP
 10
7.747129
 20
-15.639681
 40
0.000000
 41
0.000000
 42
0.000000
  0
VERTEX
  8
PIN_TOP
 10
9.797681
 20
-13.589129
 40
0.000000
 41
0.000000
 42
0.000000
  0
SEQEND
  0
POLYLINE
  8
PG_ASSEMBLY_TOP
 66
1
 70
1
 40
0.000000
 41
0.000000
 39
0.000000
  0
VERTEX
  8
PG_ASSEMBLY_TOP
 10
3.150870
 20
-11.750548
 40
0.154178
 41
0.154178
 42
0.000000
  0
VERTEX
  8
PG_ASSEMBLY_TOP
 10
9.585452
 20
-18.185130
 40
0.154178
 41
0.154178
 42
0.000000
  0
VERTEX
  8
PG_ASSEMBLY_TOP
 10
12.343130
 20
-15.427452
 40
0.154178
 41
0.154178
 42
0.000000
  0
VERTEX
  8
PG_ASSEMBLY_TOP
 10
5.908548
 20
-8.992870
 40
0.154178
 41
0.154178
 42
0.000000
  0
SEQEND
  0
TEXT
  8
RD_ASSEMBLY_TOP
 10
8.890000
 20
-11.176000
 11
0.000000
 21
0.000000
 40
0.635000
 41
0.880000
 50
315.000000
  7
STANDARD
 71
0
 72
0
  1
R19
 73
0
  0
POLYLINE
  8
PIN_TOP
 66
1
 70
1
 40
0.000000
 41
0.000000
 39
0.000000
  0
VERTEX
  8
PIN_TOP
 10
8.005572
 20
20.289520
 40
0.000000
 41
0.000000
 42
0.000000
  0
VERTEX
  8
PIN_TOP
 10
8.005572
 20
21.244306
 40
0.000000
 41
0.000000
 42
0.000000
  0
VERTEX
  8
PIN_TOP
 10
8.960358
 20
21.244306
 40
0.000000
 41
0.000000
 42
0.000000
  0
VERTEX
  8
PIN_TOP
 10
8.960358
 20
20.289520
 40
0.000000
 41
0.000000
 42
0.000000
  0
SEQEND
  0
CIRCLE
  8
PIN_TOP
 10
8.483092
 20
19.497040
 40
0.477393
  0
CIRCLE
  8
PIN_TOP
 10
9.753092
 20
20.767040
 40
0.477393
  0
CIRCLE
  8
PIN_TOP
 10
9.753092
 20
19.497040
 40
0.477393
  0
CIRCLE
  8
PIN_TOP
 10
11.023092
 20
20.767040
 40
0.477393
  0
CIRCLE
  8
PIN_TOP
 10
11.023092
 20
19.497040
 40
0.477393
  0
CIRCLE
  8
PIN_TOP
 10
12.293092
 20
20.767040
 40
0.477393
  0
CIRCLE
  8
PIN_TOP
 10
12.293092
 20
19.497040
 40
0.477393
  0
CIRCLE
  8
PIN_TOP
 10
13.563092
 20
20.767040
 40
0.477393
  0
CIRCLE
  8
PIN_TOP
 10
13.563092
 20
19.497040
 40
0.477393
  0
CIRCLE
  8
PIN_TOP
 10
14.833092
 20
20.767040
 40
0.477393
  0
CIRCLE
  8
PIN_TOP
 10
14.833092
 20
19.497040
 40
0.477393
  0
POLYLINE
  8
PG_ASSEMBLY_TOP
 66
1
 70
1
 40
0.000000
 41
0.000000
 39
0.000000
  0
VERTEX
  8
PG_ASSEMBLY_TOP
 10
8.483092
 20
19.052032
 40
0.000000
 41
0.000000
 42
0.000000
  0
VERTEX
  8
PG_ASSEMBLY_TOP
 10
14.833092
 20
19.052032
 40
0.000000
 41
0.000000
 42
0.000000
  0
VERTEX
  8
PG_ASSEMBLY_TOP
 10
14.833092
 20
21.212048
 40
0.000000
 41
0.000000
 42
0.000000
  0
VERTEX
  8
PG_ASSEMBLY_TOP
 10
8.483092
 20
21.212048
 40
0.000000
 41
0.000000
 42
0.000000
  0
SEQEND
  0
TEXT
  8
RD_ASSEMBLY_TOP
 10
11.176000
 20
21.590000
 11
0.000000
 21
0.000000
 40
0.635000
 41
0.880000
 50
0.000000
  7
STANDARD
 71
0
 72
0
  1
P1
 73
0
  0
TEXT
  8
PG_ASSEMBLY_TOP
 10
7.112000
 20
20.447000
 11
0.000000
 21
0.000000
 40
0.635000
 41
0.880000
 50
0.000000
  7
STANDARD
 71
0
 72
0
  1
1
 73
0
  0
TEXT
  8
PG_ASSEMBLY_TOP
 10
15.494000
 20
20.574000
 11
0.000000
 21
0.000000
 40
0.635000
 41
0.880000
 50
0.000000
  7
STANDARD
 71
0
 72
0
  1
11
 73
0
  0
TEXT
  8
PG_ASSEMBLY_TOP
 10
15.494000
 20
19.050000
 11
0.000000
 21
0.000000
 40
0.635000
 41
0.880000
 50
0.000000
  7
STANDARD
 71
0
 72
0
  1
12
 73
0
  0
TEXT
  8
PG_ASSEMBLY_TOP
 10
6.985000
 20
19.177000
 11
0.000000
 21
0.000000
 40
0.635000
 41
0.880000
 50
0.000000
  7
STANDARD
 71
0
 72
0
  1
2
 73
0
  0
POLYLINE
  8
PIN_TOP
 66
1
 70
1
 40
0.000000
 41
0.000000
 39
0.000000
  0
VERTEX
  8
PIN_TOP
 10
2.645410
 20
-33.327340
 40
0.000000
 41
0.000000
 42
0.000000
  0
VERTEX
  8
PIN_TOP
 10
2.645410
 20
-32.326580
 40
0.000000
 41
0.000000
 42
0.000000
  0
VERTEX
  8
PIN_TOP
 10
4.044950
 20
-32.326580
 40
0.000000
 41
0.000000
 42
0.000000
  0
VERTEX
  8
PIN_TOP
 10
4.044950
 20
-33.327340
 40
0.000000
 41
0.000000
 42
0.000000
  0
SEQEND
  0
POLYLINE
  8
PIN_TOP
 66
1
 70
1
 40
0.000000
 41
0.000000
 39
0.000000
  0
VERTEX
  8
PIN_TOP
 10
4.845050
 20
-32.377380
 40
0.000000
 41
0.000000
 42
0.000000
  0
VERTEX
  8
PIN_TOP
 10
4.845050
 20
-31.376620
 40
0.000000
 41
0.000000
 42
0.000000
  0
VERTEX
  8
PIN_TOP
 10
6.244590
 20
-31.376620
 40
0.000000
 41
0.000000
 42
0.000000
  0
VERTEX
  8
PIN_TOP
 10
6.244590
 20
-32.377380
 40
0.000000
 41
0.000000
 42
0.000000
  0
SEQEND
  0
POLYLINE
  8
PIN_TOP
 66
1
 70
1
 40
0.000000
 41
0.000000
 39
0.000000
  0
VERTEX
  8
PIN_TOP
 10
2.645410
 20
-31.427420
 40
0.000000
 41
0.000000
 42
0.000000
  0
VERTEX
  8
PIN_TOP
 10
2.645410
 20
-30.426660
 40
0.000000
 41
0.000000
 42
0.000000
  0
VERTEX
  8
PIN_TOP
 10
4.044950
 20
-30.426660
 40
0.000000
 41
0.000000
 42
0.000000
  0
VERTEX
  8
PIN_TOP
 10
4.044950
 20
-31.427420
 40
0.000000
 41
0.000000
 42
0.000000
  0
SEQEND
  0
POLYLINE
  8
PG_ASSEMBLY_TOP
 66
1
 70
1
 40
0.000000
 41
0.000000
 39
0.000000
  0
VERTEX
  8
PG_ASSEMBLY_TOP
 10
3.743960
 20
-30.375860
 40
0.203200
 41
0.203200
 42
0.000000
  0
VERTEX
  8
PG_ASSEMBLY_TOP
 10
3.743960
 20
-33.378140
 40
0.203200
 41
0.203200
 42
0.000000
  0
VERTEX
  8
PG_ASSEMBLY_TOP
 10
5.146040
 20
-33.378140
 40
0.203200
 41
0.203200
 42
0.000000
  0
VERTEX
  8
PG_ASSEMBLY_TOP
 10
5.146040
 20
-30.375860
 40
0.203200
 41
0.203200
 42
0.000000
  0
SEQEND
  0
TEXT
  8
RD_ASSEMBLY_TOP
 10
4.233333
 20
-29.718000
 11
4.445000
 21
-29.718000
 40
0.635000
 41
0.880000
 50
0.000000
  7
STANDARD
 71
0
 72
1
  1
Q5
 73
0
  0
POLYLINE
  8
PG_ASSEMBLY_TOP
 66
1
 70
1
 40
0.000000
 41
0.000000
 39
0.000000
  0
VERTEX
  8
PG_ASSEMBLY_TOP
 10
17.907000
 20
-40.202104
 40
0.000000
 41
0.000000
 42
0.000000
  0
VERTEX
  8
PG_ASSEMBLY_TOP
 10
28.067000
 20
-40.202104
 40
0.000000
 41
0.000000
 42
0.000000
  0
VERTEX
  8
PG_ASSEMBLY_TOP
 10
28.067000
 20
-32.074104
 40
0.000000
 41
0.000000
 42
0.000000
  0
VERTEX
  8
PG_ASSEMBLY_TOP
 10
17.907000
 20
-32.074104
 40
0.000000
 41
0.000000
 42
0.000000
  0
SEQEND
  0
POLYLINE
  8
BG_OUTLINE
 66
1
 70
1
 40
0.000000
 41
0.000000
 39
0.000000
  0
VERTEX
  8
BG_OUTLINE
 10
-5.842000
 20
22.733000
 40
0.000000
 41
0.000000
 42
0.000000
  0
VERTEX
  8
BG_OUTLINE
 10
32.282892
 20
22.733000
 40
0.000000
 41
0.000000
 42
0.000000
  0
VERTEX
  8
BG_OUTLINE
 10
32.282892
 20
-40.259000
 40
0.000000
 41
0.000000
 42
0.000000
  0
VERTEX
  8
BG_OUTLINE
 10
-5.842000
 20
-40.259000
 40
0.000000
 41
0.000000
 42
0.000000
  0
SEQEND
  0
TEXT
  8
PG_ASSEMBLY_TOP
 10
1.905000
 20
-33.147000
 11
0.000000
 21
0.000000
 40
0.635000
 41
0.880000
 50
0.000000
  7
STANDARD
 71
0
 72
0
  1
E
 73
0
  0
TEXT
  8
PG_ASSEMBLY_TOP
 10
1.905000
 20
-31.242000
 11
0.000000
 21
0.000000
 40
0.635000
 41
0.880000
 50
0.000000
  7
STANDARD
 71
0
 72
0
  1
B
 73
0
  0
TEXT
  8
PG_ASSEMBLY_TOP
 10
6.604000
 20
-32.131000
 11
0.000000
 21
0.000000
 40
0.635000
 41
0.880000
 50
0.000000
  7
STANDARD
 71
0
 72
0
  1
C
 73
0
  0
TEXT
  8
DF_FILM_LABEL_OUTLINE
 10
-6.477000
 20
30.353000
 11
0.000000
 21
0.000000
 40
2.540000
 41
1.000000
 50
0.000000
  7
STANDARD
 71
0
 72
0
  1
DATE: 03/08/2015
 73
0
  0
TEXT
  8
DF_FILM_LABEL_OUTLINE
 10
-6.388100
 20
35.608514
 11
0.000000
 21
0.000000
 40
2.540000
 41
1.000000
 50
0.000000
  7
STANDARD
 71
0
 72
0
  1
POWER BOARD
 73
0
  0
TEXT
  8
PG_ASSEMBLY_TOP
 10
-6.858000
 20
25.781000
 11
0.000000
 21
0.000000
 40
2.540000
 41
1.000000
 50
0.000000
  7
STANDARD
 71
0
 72
0
  1
ASSEMBLY TOP
 73
0
  0
ENDSEC
  0
EOF
